<svg width="60" height="60" viewBox="0 0 60 60" fill="none" xmlns="http://www.w3.org/2000/svg">
<g clip-path="url(#clip0_4104_63004)">
<path d="M23.75 33.75C23.06 33.75 22.5 33.19 22.5 32.5C22.5 31.12 21.3775 30 20 30C18.6225 30 17.5 31.12 17.5 32.5C17.5 33.19 16.94 33.75 16.25 33.75C15.56 33.75 15 33.19 15 32.5C15 29.7425 17.2425 27.5 20 27.5C22.7575 27.5 25 29.7425 25 32.5C25 33.19 24.44 33.75 23.75 33.75Z" fill="white"/>
<path d="M43.75 33.75C43.06 33.75 42.5 33.19 42.5 32.5C42.5 31.12 41.3775 30 40 30C38.6225 30 37.5 31.12 37.5 32.5C37.5 33.19 36.94 33.75 36.25 33.75C35.56 33.75 35 33.19 35 32.5C35 29.7425 37.2425 27.5 40 27.5C42.7575 27.5 45 29.7425 45 32.5C45 33.19 44.44 33.75 43.75 33.75Z" fill="white"/>
<path d="M30.0078 58.7561C16.2228 58.7561 5.00781 47.5386 5.00781 33.7511C5.00781 19.9636 16.2228 8.74609 30.0078 8.74609C43.7928 8.74609 55.0078 19.9636 55.0078 33.7511C55.0078 47.5386 43.7928 58.7561 30.0078 58.7561ZM30.0078 11.2461C17.6028 11.2461 7.50781 21.3411 7.50781 33.7511C7.50781 46.1611 17.6028 56.2561 30.0078 56.2561C42.4128 56.2561 52.5078 46.1611 52.5078 33.7511C52.5078 21.3411 42.4128 11.2461 30.0078 11.2461Z" fill="white"/>
<path d="M53.7511 40.0005C53.5186 40.0005 53.2836 39.9955 53.0536 39.963C52.3711 39.868 51.8936 39.2355 51.9886 38.553C52.0836 37.8705 52.7186 37.4055 53.3986 37.488C53.5161 37.5005 53.6361 37.5005 53.7511 37.5005C55.8186 37.5005 57.5011 35.818 57.5011 33.7505C57.5011 31.643 55.8061 29.978 53.6361 30.0005C53.5586 30.0005 53.4786 30.003 53.4011 30.013C52.7161 30.088 52.0836 29.633 51.9911 28.948C51.8961 28.2655 52.3711 27.633 53.0561 27.538C56.7211 27.0305 60.0011 30.0705 60.0011 33.7505C60.0011 37.198 57.1961 40.0005 53.7511 40.0005Z" fill="white"/>
<path d="M6.25 40C2.805 40 0 37.1975 0 33.75C0 30.07 3.2575 27.0325 6.9475 27.5375C7.63 27.6325 8.1075 28.265 8.0125 28.9475C7.9175 29.63 7.29 30.09 6.6025 30.0125C6.485 29.995 6.3625 30 6.25 30C4.1825 30 2.5 31.6825 2.5 33.75C2.5 35.855 4.25 37.585 6.365 37.5C6.4425 37.5 6.5225 37.4975 6.6 37.4875C7.285 37.4025 7.915 37.8675 8.01 38.5525C8.105 39.2375 7.63 39.8675 6.945 39.9625C6.7175 39.995 6.4825 40 6.25 40Z" fill="white"/>
<path d="M31.2553 21.2509C28.7853 21.2509 26.4153 20.3459 24.5803 18.6984C24.0653 18.2359 24.0228 17.4459 24.4853 16.9309C24.9503 16.4159 25.7378 16.3734 26.2503 16.8359C27.6253 18.0734 29.4028 18.7509 31.2553 18.7509C35.3903 18.7509 38.7528 15.3859 38.7528 11.2534C38.7528 7.12086 35.3903 3.75586 31.2553 3.75586C27.1203 3.75586 23.7578 7.12086 23.7578 11.2534C23.7578 11.9434 23.1978 12.5034 22.5078 12.5034C21.8178 12.5034 21.2578 11.9434 21.2578 11.2534C21.2578 5.74086 25.7428 1.25586 31.2553 1.25586C36.7678 1.25586 41.2528 5.74086 41.2528 11.2534C41.2528 16.7659 36.7678 21.2509 31.2553 21.2509Z" fill="white"/>
<path d="M29.9978 49.9929C27.1178 49.9929 24.2378 48.8979 22.0453 46.7054C21.5578 46.2179 21.5578 45.4254 22.0453 44.9379C22.5328 44.4504 23.3253 44.4504 23.8128 44.9379C27.1153 48.2429 32.8778 48.2429 36.1803 44.9379C36.6678 44.4504 37.4603 44.4504 37.9478 44.9379C38.4353 45.4254 38.4353 46.2179 37.9478 46.7054C35.7578 48.8979 32.8778 49.9929 29.9978 49.9929Z" fill="white"/>
</g>
<defs>
<clipPath id="clip0_4104_63004">
<rect width="60" height="60" fill="white"/>
</clipPath>
</defs>
</svg>
