<svg width="60" height="60" viewBox="0 0 60 60" fill="none" xmlns="http://www.w3.org/2000/svg">
<path d="M9.70044 30H5.83381C5.29992 30 4.86719 30.4327 4.86719 30.9666V56.0998C4.86719 57.7014 6.1655 58.9998 7.76718 58.9998C9.36886 58.9998 10.6672 57.7015 10.6672 56.0998V30.9665C10.6671 30.4327 10.2343 30 9.70044 30ZM8.73392 56.0998C8.73381 56.6337 8.30108 57.0665 7.76718 57.0665C7.23329 57.0665 6.80055 56.6337 6.80055 56.0998V31.9333H8.73392V56.0998Z" fill="white"/>
<path d="M9.70044 16.4668H5.83381C5.29992 16.4668 4.86719 16.8995 4.86719 17.4334V30.9668C4.86719 31.5007 5.29992 31.9334 5.83381 31.9334H9.70044C10.2343 31.9334 10.6671 31.5007 10.6671 30.9668V17.4335C10.6671 16.8996 10.2343 16.4668 9.70044 16.4668ZM8.73381 30.0001H6.80044V18.4001H8.73381V30.0001Z" fill="white"/>
<path d="M57.0658 1H55.1325C52.997 1 51.2659 2.73116 51.2659 4.86662V28.0666C51.2448 29.9978 52.652 31.6485 54.5622 31.9332H54.7362H55.1326H58.0326C58.5665 31.9332 58.9992 31.5005 58.9992 30.9666V2.93337C58.9992 1.86558 58.1336 1 57.0658 1ZM55.0165 29.9999H54.9005C53.9242 29.882 53.1921 29.05 53.1991 28.0666V4.86662C53.1991 3.79883 54.0647 2.93325 55.1325 2.93325H57.0658V29.9999H55.0165Z" fill="white"/>
<path d="M5.83336 16.4666C4.23179 16.4666 2.93337 15.1683 2.93337 13.5666V1.96663C2.93337 1.43273 2.50052 1 1.96663 1C1.43273 1 1 1.43273 1 1.96663V13.5666C1 16.236 3.16401 18.3999 5.83336 18.3999C6.36726 18.3999 6.79999 17.967 6.79999 17.4332C6.79999 16.8994 6.36726 16.4666 5.83336 16.4666Z" fill="white"/>
<path d="M13.5676 1C13.0337 1 12.601 1.43273 12.601 1.96663V13.5666C12.601 15.1682 11.3026 16.4666 9.701 16.4666C9.16711 16.4666 8.73438 16.8993 8.73438 17.4332C8.73438 17.9671 9.16711 18.3999 9.701 18.3999C12.3704 18.3999 14.5344 16.2358 14.5344 13.5665V1.96663C14.5344 1.43273 14.1015 1 13.5676 1Z" fill="white"/>
<path d="M13.5666 11.6348H1.96663C1.43273 11.6348 1 12.0675 1 12.6014C1 13.1353 1.43273 13.568 1.96663 13.568H13.5666C14.1005 13.568 14.5332 13.1353 14.5332 12.6014C14.5332 12.0675 14.1005 11.6348 13.5666 11.6348Z" fill="white"/>
<path d="M5.83381 1C5.29992 1 4.86719 1.43273 4.86719 1.96663V12.6C4.86719 13.1339 5.29992 13.5666 5.83381 13.5666C6.36771 13.5666 6.80044 13.1339 6.80044 12.6V1.96663C6.80044 1.43273 6.36771 1 5.83381 1Z" fill="white"/>
<path d="M9.701 1C9.16711 1 8.73438 1.43273 8.73438 1.96663V12.6C8.73438 13.1339 9.16711 13.5666 9.701 13.5666C10.2349 13.5666 10.6676 13.1339 10.6676 12.6V1.96663C10.6676 1.43273 10.2349 1 9.701 1Z" fill="white"/>
<path d="M58.0364 30H54.1698C53.6359 30 53.2031 30.4327 53.2031 30.9666V56.0998C53.2031 57.7014 54.5014 58.9998 56.1031 58.9998C57.7048 58.9998 59.0031 57.7015 59.0031 56.0998V30.9665C59.003 30.4327 58.5703 30 58.0364 30ZM57.0697 56.0998C57.0696 56.6337 56.6369 57.0665 56.103 57.0665C55.5691 57.0665 55.1364 56.6337 55.1364 56.0998V31.9333H57.0697V56.0998Z" fill="white"/>
<path d="M55.7359 30.8231C55.7195 30.7324 55.6902 30.6445 55.6489 30.5621C55.5062 30.2492 55.208 30.0358 54.8659 30.0015C53.8897 29.8835 53.1575 29.0515 53.1646 28.0681V23.5827C53.1624 23.42 53.1191 23.2603 53.0389 23.1187C49.9704 17.583 44.8526 13.4721 38.7853 11.6693C25.9914 7.86806 12.5381 15.158 8.73676 27.9521C8.72407 28.0418 8.72407 28.133 8.73676 28.2227V41.4467C8.72316 41.5397 8.72316 41.6341 8.73676 41.7271C11.8311 51.9596 21.2465 58.9701 31.9367 59.0013C42.6242 58.9714 52.0388 51.9654 55.1367 41.7367C55.1503 41.6438 55.1503 41.5493 55.1367 41.4563V31.8767C55.5592 31.7099 55.8085 31.2715 55.7359 30.8231ZM53.2033 41.3113C51.0442 48.3923 45.5022 53.9342 38.4213 56.0934C26.6761 59.6748 14.2514 53.0565 10.67 41.3113V28.3677C12.3291 22.9264 16.0108 18.328 20.9574 15.5188C31.6348 9.45512 45.2062 13.1953 51.2699 23.8727V28.0681C51.2714 29.4481 52.0082 30.7227 53.2033 31.4127V41.3113Z" fill="white"/>
<path d="M31.9333 18.4004C22.8575 18.4004 15.5 25.758 15.5 34.8338C15.5 43.9097 22.8575 51.2672 31.9333 51.2672C41.0092 51.2672 48.3667 43.9097 48.3667 34.8338C48.3667 25.758 41.0092 18.4004 31.9333 18.4004ZM31.9333 49.3338C23.9252 49.3338 17.4334 42.8419 17.4334 34.8338C17.4334 26.8258 23.9253 20.3339 31.9333 20.3339C39.9414 20.3339 46.4333 26.8258 46.4333 34.8338C46.4333 42.8419 39.9414 49.3338 31.9333 49.3338Z" fill="white"/>
<path d="M31.9338 22.2656C24.9934 22.2656 19.3672 27.892 19.3672 34.8322C19.3672 35.3661 19.7999 35.7989 20.3338 35.7989C20.8677 35.7989 21.3004 35.3661 21.3004 34.8322C21.3004 28.9596 26.0612 24.1989 31.9338 24.1989C32.4677 24.1989 32.9004 23.7661 32.9004 23.2323C32.9004 22.6984 32.4676 22.2656 31.9338 22.2656Z" fill="white"/>
<path d="M43.5354 33.8652C43.0015 33.8652 42.5687 34.298 42.5687 34.8319C42.5687 40.7045 37.808 45.4652 31.9354 45.4652C31.4015 45.4652 30.9688 45.8981 30.9688 46.4318C30.9688 46.9656 31.4016 47.3985 31.9354 47.3985C38.8757 47.3985 44.502 41.7723 44.502 34.832C44.502 34.298 44.0693 33.8652 43.5354 33.8652Z" fill="white"/>
</svg>
