<svg width="60" height="60" viewBox="0 0 60 60" fill="none" xmlns="http://www.w3.org/2000/svg">
<path d="M5.44622 25.543H26.2852C27.5467 25.543 28.6946 26.0593 29.5252 26.8898C30.3557 27.7203 30.872 28.8682 30.872 30.1298V36.4882C30.872 39.373 29.6925 41.994 27.7931 43.8951C25.8936 45.7945 23.271 46.974 20.3862 46.974H5.44622C4.18464 46.974 3.03674 46.4577 2.20622 45.6272C1.37569 44.7967 0.859375 43.6488 0.859375 42.3872V30.1298C0.859375 28.8682 1.37569 27.7203 2.20622 26.8898C3.03674 26.0593 4.18464 25.543 5.44622 25.543ZM26.2852 27.3619H5.44622C4.68674 27.3619 3.99359 27.673 3.49148 28.1751C2.98937 28.6772 2.67832 29.3688 2.67832 30.1298V42.3872C2.67832 43.1467 2.98937 43.8398 3.49148 44.3419C3.99359 44.844 4.68516 45.1551 5.44622 45.1551H20.3862C22.7688 45.1551 24.9352 44.1793 26.5062 42.6082C28.0773 41.0372 29.0531 38.8709 29.0531 36.4882V30.1298C29.0531 29.3703 28.742 28.6772 28.2399 28.1751C27.7378 27.6745 27.0446 27.3619 26.2852 27.3619Z" fill="white"/>
<path d="M54.4805 27.3619H33.6415C32.8821 27.3619 32.1889 27.673 31.6868 28.1751C31.1847 28.6772 30.8736 29.3688 30.8736 30.1298V36.4882C30.8736 38.8709 31.8494 41.0372 33.4205 42.6082C34.9915 44.1793 37.1578 45.1551 39.5405 45.1551H54.4805C55.24 45.1551 55.9331 44.844 56.4352 44.3419C56.9373 43.8398 57.2484 43.1482 57.2484 42.3872V30.1298C57.2484 29.3703 56.9373 28.6772 56.4352 28.1751C55.9331 27.6745 55.24 27.3619 54.4805 27.3619ZM33.6415 25.543H54.4805C55.7421 25.543 56.8899 26.0593 57.7205 26.8898C58.551 27.7203 59.0673 28.8682 59.0673 30.1298V42.3872C59.0673 43.6488 58.551 44.7967 57.7205 45.6272C56.8899 46.4577 55.7421 46.974 54.4805 46.974H39.5405C36.6557 46.974 34.0347 45.7945 32.1336 43.8951C30.2342 41.9956 29.0547 39.373 29.0547 36.4882V30.1298C29.0547 28.8682 29.571 27.7203 30.4015 26.8898C31.2321 26.0593 32.38 25.543 33.6415 25.543Z" fill="white"/>
<path d="M54.183 30.4264H33.9377V36.4895C33.9377 38.0258 34.5693 39.4264 35.5861 40.4432C36.603 41.4601 38.0035 42.0916 39.5398 42.0916H54.183V30.4264ZM33.6409 28.6074H54.4798C54.8967 28.6074 55.2788 28.7811 55.5535 29.0558C55.8282 29.3306 56.0019 29.7127 56.0019 30.1295V42.3869C56.0019 42.7627 55.8582 43.1101 55.6261 43.3785C55.604 43.4069 55.5803 43.4337 55.5535 43.4606L55.5519 43.459L55.5503 43.4606C55.274 43.7353 54.8935 43.909 54.4798 43.909H39.5398C37.5014 43.909 35.6446 43.0722 34.2993 41.7269C32.954 40.3816 32.1172 38.5264 32.1172 36.4864V30.1279C32.1172 29.7111 32.2909 29.329 32.5656 29.0543C32.8419 28.7811 33.224 28.6074 33.6409 28.6074ZM54.4798 42.3885V42.3901L54.9109 42.8179L54.4798 42.3885ZM54.2809 42.1927L54.4767 42.3885H54.4782L54.2809 42.1911V42.1927ZM54.4767 42.3885L54.4782 42.3916V42.3901L54.4767 42.3885Z" fill="white"/>
<path d="M4.3703 29.0558C4.64503 28.7811 5.02714 28.6074 5.44398 28.6074H26.2829C26.6998 28.6074 27.0819 28.7811 27.3566 29.0558C27.6313 29.3306 27.805 29.7127 27.805 30.1295V36.4879C27.805 38.5264 26.9682 40.3832 25.6229 41.7285C24.2777 43.0737 22.4224 43.9106 20.3824 43.9106H5.44398C5.06819 43.9106 4.72082 43.7669 4.4524 43.5348C4.42398 43.5127 4.39714 43.489 4.3703 43.4622L4.37188 43.4606L4.3703 43.459C4.09398 43.1827 3.92188 42.8022 3.92188 42.3885V30.1311C3.92188 29.7143 4.09556 29.3322 4.3703 29.0558ZM5.74082 30.4264V42.0916H20.384C21.9203 42.0916 23.3208 41.4601 24.3377 40.4432C25.3545 39.4264 25.9861 38.0258 25.9861 36.4895V30.4264H5.74082ZM5.44398 42.3885H5.4424L5.01451 42.8195L5.44398 42.3885ZM5.63977 42.1895L5.44398 42.3853V42.3869L5.64135 42.1895H5.63977ZM5.44398 42.3853L5.4424 42.3869H5.44398V42.3853Z" fill="white"/>
<path d="M9.07924 25.9688C8.8124 26.3919 8.9403 26.9525 9.36346 27.2193C9.78661 27.4862 10.3471 27.3583 10.614 26.9351L15.2198 19.623C15.6319 18.9693 16.3898 18.9677 17.0971 18.9677C18.4787 18.9662 19.7561 18.9646 20.2961 16.9593C20.3719 16.6767 20.4177 16.4114 20.435 16.1635C20.4998 15.2825 20.2298 14.6335 19.7892 14.1567C19.374 13.7067 18.8292 13.4462 18.2892 13.3009C17.9577 13.2125 17.6277 13.1651 17.334 13.1446C16.5903 13.0893 15.6982 13.0925 14.9214 13.1383C14.1098 13.1856 13.3882 13.2914 13.0187 13.443C11.424 14.0967 7.38188 19.7872 4.60924 23.6904C3.67135 25.0104 2.88345 26.1204 2.41609 26.7235C2.10977 27.1198 2.1824 27.6898 2.57872 27.9962C2.97503 28.3025 3.54503 28.2298 3.85135 27.8319C4.34556 27.1941 5.14135 26.0746 6.08714 24.7419C8.73661 21.0125 12.5987 15.5746 13.7071 15.1198C13.884 15.0472 14.394 14.9872 15.0271 14.9493C15.725 14.9083 16.5303 14.9067 17.2045 14.9556C17.3956 14.9698 17.6087 14.9983 17.8187 15.0551C18.0682 15.123 18.305 15.2256 18.4519 15.3851C18.5719 15.5162 18.6445 15.7214 18.6224 16.0356C18.6129 16.1683 18.5861 16.3198 18.5403 16.4904C18.3619 17.1551 17.754 17.1551 17.0956 17.1551C15.9035 17.1567 14.6277 17.1583 13.6835 18.6567L9.07924 25.9688Z" fill="white"/>
<path d="M49.3087 26.9345C49.5756 27.3577 50.1361 27.4856 50.5593 27.2187C50.9824 26.9519 51.1103 26.3914 50.8435 25.9682L46.2377 18.6561C45.2935 17.1577 44.0177 17.1561 42.8256 17.1545C42.1672 17.1545 41.5593 17.1529 41.3808 16.4898C41.3351 16.3177 41.3082 16.1677 41.2987 16.035C41.2751 15.7208 41.3477 15.5156 41.4693 15.3845C41.6161 15.2251 41.8529 15.1224 42.1024 15.0545C42.3108 14.9977 42.5256 14.9693 42.7166 14.9551C43.3924 14.9061 44.1961 14.9077 44.894 14.9487C45.5287 14.9866 46.0372 15.0466 46.214 15.1193C47.3224 15.574 51.1861 21.0119 53.834 24.7414C54.7798 26.0724 55.5756 27.1935 56.0698 27.8314C56.3761 28.2277 56.9461 28.3003 57.3424 27.9956C57.7387 27.6893 57.8114 27.1193 57.5051 26.7229C57.0377 26.1198 56.2498 25.0098 55.3119 23.6898C52.5393 19.7866 48.4972 14.0961 46.9024 13.4424C46.5329 13.2908 45.8114 13.185 44.9998 13.1377C44.2229 13.0919 43.3308 13.0903 42.5872 13.144C42.2951 13.1645 41.9635 13.2119 41.6319 13.3003C41.0903 13.4456 40.5472 13.7061 40.1319 14.1561C39.6914 14.6345 39.4214 15.2835 39.4861 16.1629C39.5051 16.4108 39.5493 16.6761 39.6251 16.9587C40.1651 18.964 41.4424 18.9656 42.824 18.9672C43.5314 18.9672 44.2893 18.9687 44.7014 19.6224L49.3087 26.9345Z" fill="white"/>
</svg>
