<svg width="60" height="60" viewBox="0 0 60 60" fill="none" xmlns="http://www.w3.org/2000/svg">
<path d="M53.3119 30.5621V30.562C53.3121 27.7074 52.4658 24.9169 50.88 22.5434C49.2942 20.1698 47.0402 18.3198 44.403 17.2274C41.7658 16.1349 38.8639 15.8489 36.0641 16.4058C33.2644 16.9626 30.6927 18.3371 28.6742 20.3555C26.6557 22.374 25.2811 24.9456 24.7242 27.7453C24.1673 30.545 24.4531 33.447 25.5455 36.0842C26.6379 38.7215 28.4879 40.9755 30.8614 42.5614C33.2349 44.1472 36.0253 44.9936 38.8799 44.9935H38.88C42.7062 44.9893 46.3744 43.4675 49.08 40.762C51.7856 38.0565 53.3075 34.3883 53.3119 30.5621ZM26.288 30.562C26.2878 28.0715 27.0261 25.6369 28.4096 23.566C29.7931 21.4952 31.7597 19.8811 34.0605 18.9279C36.3614 17.9747 38.8932 17.7252 41.3358 18.211C43.7785 18.6967 46.0222 19.8959 47.7833 21.6569C49.5444 23.4179 50.7438 25.6615 51.2297 28.1041C51.7156 30.5467 51.4663 33.0786 50.5133 35.3795C49.5603 37.6804 47.9464 39.6471 45.8756 41.0307C43.8049 42.4144 41.3704 43.1529 38.88 43.1529C35.5417 43.1492 32.3411 41.8215 29.9805 39.461C27.6199 37.1006 26.2919 33.9002 26.288 30.562Z" fill="white" stroke="white" stroke-width="0.2"/>
<path d="M57.5393 51.0704H57.6393V51.0705V54.3746V54.3747C57.6383 55.2401 57.2941 56.0697 56.6822 56.6816C56.0703 57.2934 55.2407 57.6376 54.3754 57.6387H54.3753H23.3909H23.3908C22.5254 57.6376 21.6958 57.2934 21.084 56.6816C20.4721 56.0697 20.1279 55.2401 20.1268 54.3747L20.1268 54.3746L20.1268 51.0699C20.1268 50.8258 20.2238 50.5918 20.3964 50.4192C20.569 50.2466 20.8031 50.1496 21.0472 50.1496H33.1084H44.6573V50.2496H56.719C56.8268 50.2495 56.9335 50.2707 57.0331 50.312C57.1327 50.3532 57.2232 50.4137 57.2994 50.4899C57.3756 50.5661 57.436 50.6566 57.4772 50.7563C57.5183 50.8559 57.5395 50.9626 57.5393 51.0704ZM57.5393 51.0704V54.3746V51.0704ZM21.9661 30.5621C21.9661 27.2165 22.9581 23.946 24.8169 21.1643C26.6756 18.3825 29.3174 16.2144 32.4084 14.9341C35.4993 13.6538 38.9004 13.3188 42.1818 13.9715C45.4631 14.6242 48.4771 16.2353 50.8428 18.601C53.2085 20.9667 54.8196 23.9807 55.4723 27.262C56.125 30.5433 55.79 33.9445 54.5097 37.0354C53.2294 40.1264 51.0613 42.7682 48.2795 44.6269C45.4978 46.4856 42.2274 47.4777 38.8818 47.4777C34.3971 47.4723 30.0977 45.6884 26.9266 42.5172C23.7554 39.3461 21.9715 35.0467 21.9661 30.5621ZM34.9491 50.1496L34.9503 48.8992C37.543 49.4593 40.2254 49.4593 42.8181 48.8993V50.1496H34.9491ZM55.7987 54.3745C55.7983 54.7519 55.6481 55.1137 55.3813 55.3806C55.1144 55.6475 54.7526 55.7976 54.3752 55.798H23.391C23.0136 55.7976 22.6518 55.6475 22.3849 55.3806C22.1181 55.1137 21.968 54.752 21.9675 54.3746C21.9675 54.3746 21.9675 54.3745 21.9675 54.3745L21.9675 51.9902H55.7987V54.3745Z" fill="white" stroke="white" stroke-width="0.2"/>
<path d="M14.1686 13.6768H14.7464H14.7464V13.7768C14.8541 13.7768 14.9608 13.7979 15.0604 13.8391C15.16 13.8803 15.2504 13.9408 15.3266 14.0169C15.4028 14.0931 15.4632 14.1836 15.5044 14.2831C15.5456 14.3827 15.5668 14.4894 15.5667 14.5971L14.1686 13.6768ZM14.1686 13.6768V3.28104V3.28096C14.1685 3.12131 14.1268 2.96443 14.0478 2.82574C13.9687 2.68704 13.8549 2.57128 13.7176 2.48982L13.6667 2.57564L13.7176 2.48982C13.5803 2.40836 13.4242 2.364 13.2646 2.36109C13.105 2.35818 12.9473 2.39683 12.8071 2.47323L12.8071 2.47327L6.95571 5.66778C6.9557 5.66779 6.95569 5.66779 6.95568 5.6678C6.44129 5.9484 6.01197 6.36234 5.7128 6.86615C5.41362 7.36997 5.25565 7.94506 5.25547 8.53101V8.53104V13.6768H4.67766C4.43357 13.6768 4.19949 13.7738 4.0269 13.9464C3.8543 14.119 3.75734 14.3531 3.75734 14.5971V22.1654H3.28131H3.28125V22.2654M14.1686 13.6768L2.36094 23.0857H2.46094M3.28125 22.2654C3.17351 22.2654 3.06681 22.2865 2.96726 22.3277C2.8677 22.3689 2.77725 22.4294 2.70106 22.5055C2.62488 22.5817 2.56446 22.6722 2.52325 22.7717C2.48205 22.8713 2.46088 22.978 2.46094 23.0857M3.28125 22.2654H3.75734H3.28125ZM2.46094 23.0857L2.36094 23.0858L16.9627 23.0834V54.3748C16.9617 55.2136 16.628 56.0179 16.0348 56.611C15.4417 57.2042 14.6375 57.5379 13.7986 57.5389H5.625C4.78614 57.5379 3.98193 57.2042 3.38877 56.611C2.7956 56.0179 2.46193 55.2136 2.46094 54.3748V23.0857ZM12.855 2.56104C12.98 2.49293 13.1205 2.45848 13.2628 2.46107C13.405 2.46367 13.5442 2.50321 13.6666 2.57582C13.789 2.64843 13.8904 2.75162 13.9609 2.87526C14.0314 2.99889 14.0685 3.13873 14.0686 3.28104L12.855 2.56104ZM12.855 2.56104L7.00359 5.75557C6.50496 6.02757 6.08879 6.42883 5.79878 6.91721C5.50878 7.40558 5.35564 7.96305 5.35547 8.53104M12.855 2.56104L5.35547 8.53104M5.35547 8.53104V13.6768V8.53104ZM15.6667 22.1654V14.5972L16.1423 22.2654V22.1654H16.1423H15.6667ZM3.85734 14.5971V22.1654L5.25547 13.7768H4.67766C4.4601 13.7768 4.25145 13.8632 4.09761 14.0171C3.94377 14.1709 3.85734 14.3796 3.85734 14.5971ZM7.09609 8.53104V8.53097C7.09592 8.27535 7.1647 8.02441 7.29518 7.8046C7.42567 7.58479 7.61302 7.40424 7.83751 7.28198L7.83757 7.28195L12.3303 4.83137V13.6768H7.09609V8.53104ZM4.20156 24.006H15.222V29.6415H4.20156V24.006ZM5.59612 15.5156H13.8242V22.1654H5.59794L5.59612 15.5156ZM13.7985 55.7982H5.62512C5.24771 55.7978 4.8859 55.6476 4.61903 55.3808C4.35218 55.1139 4.20205 54.7522 4.20156 54.3748C4.20156 54.3748 4.20156 54.3747 4.20156 54.3747L4.20156 31.4821H15.222V54.3747C15.2216 54.7521 15.0714 55.1139 14.8046 55.3808C14.5377 55.6476 14.1759 55.7978 13.7985 55.7982Z" fill="white" stroke="white" stroke-width="0.2"/>
<path d="M43.1605 24.9838L43.1606 24.9838C43.3331 24.8113 43.5671 24.7145 43.8111 24.7145C44.0551 24.7145 44.289 24.8113 44.4616 24.9838C44.5471 25.0692 44.615 25.1706 44.6613 25.2823C44.7076 25.394 44.7314 25.5137 44.7314 25.6346C44.7314 25.7555 44.7076 25.8752 44.6613 25.9869C44.615 26.0985 44.5472 26.2 44.4616 26.2854L43.1605 24.9838ZM43.1605 24.9838L33.3052 34.8396C33.2176 34.9244 33.1477 35.0258 33.0996 35.1378C33.0514 35.2501 33.0261 35.3708 33.025 35.493C33.024 35.6152 33.0473 35.7364 33.0936 35.8495C33.1399 35.9626 33.2083 36.0653 33.2947 36.1517L33.3654 36.081L33.2947 36.1517C33.3811 36.2381 33.4839 36.3064 33.597 36.3527C33.7101 36.3989 33.8313 36.4222 33.9535 36.4211C34.0757 36.42 34.1965 36.3946 34.3087 36.3464C34.4207 36.2982 34.522 36.2283 34.6068 36.1407L44.4616 26.2854L43.1605 24.9838Z" fill="white" stroke="white" stroke-width="0.2"/>
<path d="M37.3673 26.8302L37.3673 26.8302L35.2445 28.9525C35.2445 28.9526 35.2444 28.9526 35.2444 28.9526L35.2444 28.9527L35.1737 28.882C35.0976 28.9583 35.0073 29.0188 34.9077 29.0601C34.8082 29.1014 34.7015 29.1225 34.5938 29.1224L37.3673 26.8302ZM37.3673 26.8302L37.3685 26.8289C37.5362 26.6554 37.629 26.4229 37.627 26.1816C37.6249 25.9403 37.5282 25.7095 37.3576 25.5388C37.187 25.3682 36.9562 25.2713 36.7149 25.2692C36.4736 25.267 36.2411 25.3597 36.0675 25.5274L36.0675 25.5273L36.0662 25.5286L33.9428 27.6515L33.9428 27.6516C33.8141 27.7803 33.7265 27.9443 33.6911 28.1228C33.6556 28.3013 33.6739 28.4863 33.7436 28.6545C33.8133 28.8226 33.9312 28.9663 34.0826 29.0674C34.2339 29.1685 34.4117 29.2224 34.5937 29.2224L37.3673 26.8302Z" fill="white" stroke="white" stroke-width="0.2"/>
<path d="M42.5213 32.1715L42.5213 32.1715L40.3989 34.2944C40.3114 34.3792 40.2415 34.4805 40.1934 34.5925C40.1452 34.7048 40.1198 34.8256 40.1188 34.9478C40.1177 35.07 40.1411 35.1912 40.1874 35.3043C40.2336 35.4173 40.302 35.5201 40.3884 35.6065C40.4749 35.6929 40.5776 35.7612 40.6907 35.8074C40.8039 35.8537 40.925 35.877 41.0472 35.8759C41.1694 35.8748 41.2902 35.8494 41.4025 35.8011C41.5145 35.753 41.6158 35.6831 41.7005 35.5955L43.8229 33.4731C43.9084 33.3876 43.9762 33.2862 44.0224 33.1745C44.0687 33.0629 44.0925 32.9432 44.0925 32.8223C44.0925 32.7014 44.0687 32.5818 44.0224 32.4701C43.9762 32.3584 43.9084 32.257 43.8229 32.1715C43.7374 32.0861 43.636 32.0183 43.5243 31.972C43.4127 31.9258 43.293 31.902 43.1721 31.902C43.0512 31.902 42.9316 31.9258 42.8199 31.972C42.7082 32.0183 42.6068 32.0861 42.5213 32.1715Z" fill="white" stroke="white" stroke-width="0.2"/>
</svg>
