<svg width="60" height="60" viewBox="0 0 60 60" fill="none" xmlns="http://www.w3.org/2000/svg">
<path d="M16.5031 38.9073V38.9073C16.5031 38.6171 16.5805 38.3322 16.7272 38.0818C16.8739 37.8315 17.0847 37.6247 17.3379 37.4829C17.5911 37.3411 17.8775 37.2693 18.1676 37.2749C18.4577 37.2805 18.7411 37.3634 18.9885 37.5149L16.5031 38.9073ZM16.5031 38.9073L16.5031 49.1336C16.5031 49.1336 16.5031 49.1336 16.5031 49.1336C16.503 49.3481 16.5452 49.5605 16.6273 49.7587C16.7093 49.9569 16.8296 50.1369 16.9813 50.2886C17.133 50.4403 17.313 50.5606 17.5112 50.6426C17.7094 50.7247 17.9218 50.7669 18.1363 50.7668L16.5031 38.9073ZM27.3549 42.6268L18.9886 37.5149L18.1363 50.7668C18.4367 50.7668 18.7312 50.684 18.9875 50.5275L18.9876 50.5275L27.3554 45.4136L27.3554 45.4136C27.594 45.2676 27.7911 45.0628 27.9279 44.8188C28.0646 44.5748 28.1364 44.2998 28.1363 44.0201C28.1363 43.7404 28.0644 43.4654 27.9276 43.2214C27.7907 42.9774 27.5936 42.7727 27.3549 42.6268L27.3549 42.6268ZM18.6595 39.841L25.4997 44.0207L18.6595 48.2005V39.841Z" fill="white" stroke="white" stroke-width="0.15"/>
<path d="M39.3079 40.3527H39.3079C39.0219 40.3527 38.7477 40.4663 38.5455 40.6685C38.3433 40.8707 38.2297 41.145 38.2297 41.4309V42.4341C38.2297 42.72 38.3433 42.9943 38.5455 43.1965C38.7477 43.3987 39.0219 43.5123 39.3079 43.5123C39.5938 43.5123 39.8681 43.3987 40.0703 43.1965C40.2725 42.9943 40.3861 42.72 40.3861 42.4341V41.4309V41.4309C40.386 41.145 40.2724 40.8707 40.0702 40.6685C39.868 40.4663 39.5938 40.3527 39.3079 40.3527Z" fill="white" stroke="white" stroke-width="0.15"/>
<path d="M39.3079 36.341H39.3079C39.0219 36.341 38.7477 36.4546 38.5455 36.6568C38.3433 36.859 38.2297 37.1332 38.2297 37.4192V38.4224C38.2297 38.7083 38.3433 38.9826 38.5455 39.1848C38.7477 39.387 39.0219 39.5006 39.3079 39.5006C39.5938 39.5006 39.8681 39.387 40.0703 39.1848C40.2725 38.9826 40.3861 38.7083 40.3861 38.4224V37.4192V37.4192C40.386 37.1332 40.2724 36.859 40.0702 36.6568C39.868 36.4546 39.5938 36.341 39.3079 36.341Z" fill="white" stroke="white" stroke-width="0.15"/>
<path d="M39.3079 44.3664H39.3079C39.0219 44.3664 38.7477 44.48 38.5455 44.6822C38.3433 44.8844 38.2297 45.1586 38.2297 45.4446V46.4478C38.2297 46.7337 38.3433 47.008 38.5455 47.2102C38.7477 47.4124 39.0219 47.526 39.3079 47.526C39.5938 47.526 39.8681 47.4124 40.0703 47.2102C40.2725 47.008 40.3861 46.7337 40.3861 46.4478V45.4446V45.4446C40.386 45.1586 40.2724 44.8844 40.0702 44.6822C39.868 44.48 39.5938 44.3664 39.3079 44.3664Z" fill="white" stroke="white" stroke-width="0.15"/>
<path d="M39.3079 48.3781H39.3079C39.0219 48.3781 38.7477 48.4917 38.5455 48.6939C38.3433 48.8961 38.2297 49.1704 38.2297 49.4563V50.4595C38.2297 50.7454 38.3433 51.0197 38.5455 51.2219C38.7477 51.4241 39.0219 51.5377 39.3079 51.5377C39.5938 51.5377 39.8681 51.4241 40.0703 51.2219C40.2725 51.0197 40.3861 50.7454 40.3861 50.4595V49.4563V49.4563C40.386 49.1704 40.2724 48.8961 40.0702 48.6939C39.868 48.4917 39.5938 48.3781 39.3079 48.3781Z" fill="white" stroke="white" stroke-width="0.15"/>
<mask id="path-6-outside-1_4101_17414" maskUnits="userSpaceOnUse" x="0.5" y="2.5" width="58" height="55" fill="black">
<rect fill="white" x="0.5" y="2.5" width="58" height="55"/>
<path d="M56.7499 18.7562L52.2939 14.3002C52.0906 14.0956 51.8152 13.979 51.5269 13.9753C51.2386 13.9716 50.9603 14.0812 50.7519 14.2806C50.2332 14.7575 49.5503 15.0155 48.8458 15.0009C48.1414 14.9863 47.4698 14.7002 46.9713 14.2022C46.4728 13.7042 46.1859 13.0329 46.1706 12.3284C46.1553 11.624 46.4127 10.9408 46.8891 10.4216C47.0873 10.2126 47.1964 9.93453 47.1932 9.64643C47.19 9.35833 47.0747 9.08279 46.8719 8.87817L42.4159 4.42212C41.8314 3.83467 41.0378 3.50305 40.2091 3.50002C39.3804 3.49699 38.5844 3.8228 37.9956 4.40596L11.6528 30.7483H4.61389C3.78521 30.7523 2.99198 31.0849 2.40822 31.6731C1.82446 32.2613 1.49784 33.057 1.50001 33.8857V40.1874C1.49871 40.4758 1.61087 40.7532 1.8123 40.9597C2.01373 41.1662 2.28827 41.2852 2.57667 41.291C3.28075 41.3207 3.94613 41.6213 4.43384 42.13C4.92155 42.6387 5.19387 43.3161 5.19393 44.0209C5.194 44.7256 4.9218 45.4031 4.43418 45.9118C3.94656 46.4206 3.28124 46.7213 2.57716 46.7512C2.28861 46.7569 2.0139 46.8759 1.81237 47.0825C1.61083 47.2891 1.49863 47.5667 1.50001 47.8553V54.157C1.49793 54.9856 1.8246 55.7812 2.40835 56.3693C2.99211 56.9574 3.78528 57.2899 4.61389 57.2939H51.3578C52.1865 57.29 52.9798 56.9575 53.5636 56.3694C54.1475 55.7814 54.4742 54.9857 54.4722 54.157V47.8553C54.4736 47.5667 54.3614 47.2891 54.1598 47.0825C53.9583 46.8759 53.6836 46.7569 53.395 46.7512C52.691 46.7215 52.0256 46.4209 51.5379 45.9122C51.0502 45.4035 50.7778 44.726 50.7778 44.0213C50.7777 43.3166 51.0499 42.6391 51.5375 42.1303C52.0251 41.6216 52.6905 41.3209 53.3946 41.291C53.6831 41.2854 53.9579 41.1665 54.1595 40.96C54.3611 40.7535 54.4734 40.476 54.4722 40.1874V33.8857C54.4743 33.0569 54.1476 32.2611 53.5638 31.673C52.9799 31.0848 52.1866 30.7522 51.3578 30.7483H49.1937L56.7661 23.1759C57.3492 22.5873 57.675 21.7913 57.672 20.9627C57.669 20.1341 57.3374 19.3406 56.7499 18.7562ZM52.4658 33.8857V39.3899C51.4165 39.6291 50.4794 40.2175 49.8082 41.0589C49.137 41.9002 48.7715 42.9446 48.7715 44.0208C48.7715 45.0971 49.137 46.1415 49.8082 46.9828C50.4794 47.8242 51.4165 48.4126 52.4658 48.6517V54.157C52.4685 54.4538 52.3533 54.7394 52.1456 54.9514C51.9379 55.1633 51.6546 55.2842 51.3578 55.2876H39.8643C40.0008 55.1994 40.1134 55.0789 40.192 54.9366C40.2707 54.7944 40.3129 54.6349 40.315 54.4724V53.4693C40.315 53.2032 40.2093 52.948 40.0212 52.7599C39.833 52.5718 39.5779 52.4661 39.3118 52.4661C39.0458 52.4661 38.7906 52.5718 38.6025 52.7599C38.4143 52.948 38.3086 53.2032 38.3086 53.4693V54.4724C38.3107 54.6349 38.353 54.7944 38.4316 54.9366C38.5102 55.0788 38.6228 55.1994 38.7593 55.2875H4.61389C4.3172 55.2842 4.03396 55.1632 3.82632 54.9513C3.61869 54.7393 3.50362 54.4536 3.50638 54.1569V48.6517C4.55563 48.4125 5.49255 47.8241 6.16364 46.9828C6.83474 46.1415 7.20022 45.0972 7.20022 44.021C7.20022 42.9449 6.83474 41.9006 6.16364 41.0593C5.49255 40.218 4.55563 39.6296 3.50638 39.3904V33.8856C3.50362 33.5889 3.61867 33.3032 3.82629 33.0911C4.03391 32.8791 4.31715 32.7581 4.61389 32.7546H38.5632C38.4019 32.9334 38.3114 33.1649 38.3086 33.4056V34.4088C38.3086 34.6749 38.4143 34.93 38.6025 35.1182C38.7906 35.3063 39.0458 35.412 39.3118 35.412C39.5779 35.412 39.833 35.3063 40.0212 35.1182C40.2093 34.93 40.315 34.6749 40.315 34.4088V33.4056C40.3122 33.1649 40.2217 32.9334 40.0605 32.7546H51.3578C51.6546 32.7581 51.9379 32.8791 52.1456 33.0911C52.3533 33.3031 52.4685 33.5889 52.4658 33.8857ZM55.3475 21.7574L47.3139 29.791C47.311 29.5311 47.2068 29.2826 47.0233 29.0985L46.3141 28.3893C46.2209 28.2961 46.1104 28.2222 45.9887 28.1718C45.867 28.1214 45.7365 28.0955 45.6048 28.0955C45.4731 28.0955 45.3426 28.1214 45.2209 28.1718C45.0993 28.2222 44.9887 28.2961 44.8955 28.3893C44.8024 28.4824 44.7285 28.593 44.6781 28.7147C44.6277 28.8364 44.6017 28.9668 44.6017 29.0985C44.6017 29.2303 44.6277 29.3607 44.6781 29.4824C44.7285 29.6041 44.8024 29.7147 44.8955 29.8078L45.6048 30.5171C45.7142 30.6231 45.8467 30.7023 45.992 30.7483H14.49L30.4356 14.803C30.4162 14.951 30.4307 15.1014 30.4779 15.243C30.5252 15.3846 30.604 15.5136 30.7084 15.6202L31.4177 16.3295C31.5106 16.4234 31.6212 16.498 31.7431 16.549C31.865 16.6001 31.9958 16.6265 32.128 16.6269C32.2601 16.6272 32.391 16.6014 32.5132 16.551C32.6354 16.5006 32.7463 16.4265 32.8398 16.3331C32.9332 16.2397 33.0073 16.1287 33.0577 16.0065C33.1081 15.8844 33.1339 15.7535 33.1336 15.6213C33.1333 15.4892 33.1068 15.3584 33.0558 15.2365C33.0048 15.1146 32.9302 15.004 32.8363 14.911L32.127 14.2017C32.0203 14.0973 31.8914 14.0185 31.7498 13.9713C31.6082 13.924 31.4578 13.9095 31.3098 13.9289L39.4142 5.82462C39.6267 5.6175 39.9125 5.50294 40.2091 5.50596C40.5058 5.50899 40.7892 5.62937 40.9974 5.84078L44.8896 9.733C44.3167 10.6441 44.0702 11.7228 44.1906 12.7923C44.3109 13.8618 44.7909 14.8588 45.5519 15.6199C46.3129 16.3809 47.3098 16.861 48.3793 16.9814C49.4488 17.1018 50.5275 16.8554 51.4387 16.2826L55.3314 20.1747C55.543 20.3826 55.6635 20.666 55.6666 20.9627C55.6696 21.2594 55.5549 21.5451 55.3475 21.7574Z"/>
</mask>
<path d="M56.7499 18.7562L52.2939 14.3002C52.0906 14.0956 51.8152 13.979 51.5269 13.9753C51.2386 13.9716 50.9603 14.0812 50.7519 14.2806C50.2332 14.7575 49.5503 15.0155 48.8458 15.0009C48.1414 14.9863 47.4698 14.7002 46.9713 14.2022C46.4728 13.7042 46.1859 13.0329 46.1706 12.3284C46.1553 11.624 46.4127 10.9408 46.8891 10.4216C47.0873 10.2126 47.1964 9.93453 47.1932 9.64643C47.19 9.35833 47.0747 9.08279 46.8719 8.87817L42.4159 4.42212C41.8314 3.83467 41.0378 3.50305 40.2091 3.50002C39.3804 3.49699 38.5844 3.8228 37.9956 4.40596L11.6528 30.7483H4.61389C3.78521 30.7523 2.99198 31.0849 2.40822 31.6731C1.82446 32.2613 1.49784 33.057 1.50001 33.8857V40.1874C1.49871 40.4758 1.61087 40.7532 1.8123 40.9597C2.01373 41.1662 2.28827 41.2852 2.57667 41.291C3.28075 41.3207 3.94613 41.6213 4.43384 42.13C4.92155 42.6387 5.19387 43.3161 5.19393 44.0209C5.194 44.7256 4.9218 45.4031 4.43418 45.9118C3.94656 46.4206 3.28124 46.7213 2.57716 46.7512C2.28861 46.7569 2.0139 46.8759 1.81237 47.0825C1.61083 47.2891 1.49863 47.5667 1.50001 47.8553V54.157C1.49793 54.9856 1.8246 55.7812 2.40835 56.3693C2.99211 56.9574 3.78528 57.2899 4.61389 57.2939H51.3578C52.1865 57.29 52.9798 56.9575 53.5636 56.3694C54.1475 55.7814 54.4742 54.9857 54.4722 54.157V47.8553C54.4736 47.5667 54.3614 47.2891 54.1598 47.0825C53.9583 46.8759 53.6836 46.7569 53.395 46.7512C52.691 46.7215 52.0256 46.4209 51.5379 45.9122C51.0502 45.4035 50.7778 44.726 50.7778 44.0213C50.7777 43.3166 51.0499 42.6391 51.5375 42.1303C52.0251 41.6216 52.6905 41.3209 53.3946 41.291C53.6831 41.2854 53.9579 41.1665 54.1595 40.96C54.3611 40.7535 54.4734 40.476 54.4722 40.1874V33.8857C54.4743 33.0569 54.1476 32.2611 53.5638 31.673C52.9799 31.0848 52.1866 30.7522 51.3578 30.7483H49.1937L56.7661 23.1759C57.3492 22.5873 57.675 21.7913 57.672 20.9627C57.669 20.1341 57.3374 19.3406 56.7499 18.7562ZM52.4658 33.8857V39.3899C51.4165 39.6291 50.4794 40.2175 49.8082 41.0589C49.137 41.9002 48.7715 42.9446 48.7715 44.0208C48.7715 45.0971 49.137 46.1415 49.8082 46.9828C50.4794 47.8242 51.4165 48.4126 52.4658 48.6517V54.157C52.4685 54.4538 52.3533 54.7394 52.1456 54.9514C51.9379 55.1633 51.6546 55.2842 51.3578 55.2876H39.8643C40.0008 55.1994 40.1134 55.0789 40.192 54.9366C40.2707 54.7944 40.3129 54.6349 40.315 54.4724V53.4693C40.315 53.2032 40.2093 52.948 40.0212 52.7599C39.833 52.5718 39.5779 52.4661 39.3118 52.4661C39.0458 52.4661 38.7906 52.5718 38.6025 52.7599C38.4143 52.948 38.3086 53.2032 38.3086 53.4693V54.4724C38.3107 54.6349 38.353 54.7944 38.4316 54.9366C38.5102 55.0788 38.6228 55.1994 38.7593 55.2875H4.61389C4.3172 55.2842 4.03396 55.1632 3.82632 54.9513C3.61869 54.7393 3.50362 54.4536 3.50638 54.1569V48.6517C4.55563 48.4125 5.49255 47.8241 6.16364 46.9828C6.83474 46.1415 7.20022 45.0972 7.20022 44.021C7.20022 42.9449 6.83474 41.9006 6.16364 41.0593C5.49255 40.218 4.55563 39.6296 3.50638 39.3904V33.8856C3.50362 33.5889 3.61867 33.3032 3.82629 33.0911C4.03391 32.8791 4.31715 32.7581 4.61389 32.7546H38.5632C38.4019 32.9334 38.3114 33.1649 38.3086 33.4056V34.4088C38.3086 34.6749 38.4143 34.93 38.6025 35.1182C38.7906 35.3063 39.0458 35.412 39.3118 35.412C39.5779 35.412 39.833 35.3063 40.0212 35.1182C40.2093 34.93 40.315 34.6749 40.315 34.4088V33.4056C40.3122 33.1649 40.2217 32.9334 40.0605 32.7546H51.3578C51.6546 32.7581 51.9379 32.8791 52.1456 33.0911C52.3533 33.3031 52.4685 33.5889 52.4658 33.8857ZM55.3475 21.7574L47.3139 29.791C47.311 29.5311 47.2068 29.2826 47.0233 29.0985L46.3141 28.3893C46.2209 28.2961 46.1104 28.2222 45.9887 28.1718C45.867 28.1214 45.7365 28.0955 45.6048 28.0955C45.4731 28.0955 45.3426 28.1214 45.2209 28.1718C45.0993 28.2222 44.9887 28.2961 44.8955 28.3893C44.8024 28.4824 44.7285 28.593 44.6781 28.7147C44.6277 28.8364 44.6017 28.9668 44.6017 29.0985C44.6017 29.2303 44.6277 29.3607 44.6781 29.4824C44.7285 29.6041 44.8024 29.7147 44.8955 29.8078L45.6048 30.5171C45.7142 30.6231 45.8467 30.7023 45.992 30.7483H14.49L30.4356 14.803C30.4162 14.951 30.4307 15.1014 30.4779 15.243C30.5252 15.3846 30.604 15.5136 30.7084 15.6202L31.4177 16.3295C31.5106 16.4234 31.6212 16.498 31.7431 16.549C31.865 16.6001 31.9958 16.6265 32.128 16.6269C32.2601 16.6272 32.391 16.6014 32.5132 16.551C32.6354 16.5006 32.7463 16.4265 32.8398 16.3331C32.9332 16.2397 33.0073 16.1287 33.0577 16.0065C33.1081 15.8844 33.1339 15.7535 33.1336 15.6213C33.1333 15.4892 33.1068 15.3584 33.0558 15.2365C33.0048 15.1146 32.9302 15.004 32.8363 14.911L32.127 14.2017C32.0203 14.0973 31.8914 14.0185 31.7498 13.9713C31.6082 13.924 31.4578 13.9095 31.3098 13.9289L39.4142 5.82462C39.6267 5.6175 39.9125 5.50294 40.2091 5.50596C40.5058 5.50899 40.7892 5.62937 40.9974 5.84078L44.8896 9.733C44.3167 10.6441 44.0702 11.7228 44.1906 12.7923C44.3109 13.8618 44.7909 14.8588 45.5519 15.6199C46.3129 16.3809 47.3098 16.861 48.3793 16.9814C49.4488 17.1018 50.5275 16.8554 51.4387 16.2826L55.3314 20.1747C55.543 20.3826 55.6635 20.666 55.6666 20.9627C55.6696 21.2594 55.5549 21.5451 55.3475 21.7574Z" fill="white"/>
<path d="M56.7499 18.7562L52.2939 14.3002C52.0906 14.0956 51.8152 13.979 51.5269 13.9753C51.2386 13.9716 50.9603 14.0812 50.7519 14.2806C50.2332 14.7575 49.5503 15.0155 48.8458 15.0009C48.1414 14.9863 47.4698 14.7002 46.9713 14.2022C46.4728 13.7042 46.1859 13.0329 46.1706 12.3284C46.1553 11.624 46.4127 10.9408 46.8891 10.4216C47.0873 10.2126 47.1964 9.93453 47.1932 9.64643C47.19 9.35833 47.0747 9.08279 46.8719 8.87817L42.4159 4.42212C41.8314 3.83467 41.0378 3.50305 40.2091 3.50002C39.3804 3.49699 38.5844 3.8228 37.9956 4.40596L11.6528 30.7483H4.61389C3.78521 30.7523 2.99198 31.0849 2.40822 31.6731C1.82446 32.2613 1.49784 33.057 1.50001 33.8857V40.1874C1.49871 40.4758 1.61087 40.7532 1.8123 40.9597C2.01373 41.1662 2.28827 41.2852 2.57667 41.291C3.28075 41.3207 3.94613 41.6213 4.43384 42.13C4.92155 42.6387 5.19387 43.3161 5.19393 44.0209C5.194 44.7256 4.9218 45.4031 4.43418 45.9118C3.94656 46.4206 3.28124 46.7213 2.57716 46.7512C2.28861 46.7569 2.0139 46.8759 1.81237 47.0825C1.61083 47.2891 1.49863 47.5667 1.50001 47.8553V54.157C1.49793 54.9856 1.8246 55.7812 2.40835 56.3693C2.99211 56.9574 3.78528 57.2899 4.61389 57.2939H51.3578C52.1865 57.29 52.9798 56.9575 53.5636 56.3694C54.1475 55.7814 54.4742 54.9857 54.4722 54.157V47.8553C54.4736 47.5667 54.3614 47.2891 54.1598 47.0825C53.9583 46.8759 53.6836 46.7569 53.395 46.7512C52.691 46.7215 52.0256 46.4209 51.5379 45.9122C51.0502 45.4035 50.7778 44.726 50.7778 44.0213C50.7777 43.3166 51.0499 42.6391 51.5375 42.1303C52.0251 41.6216 52.6905 41.3209 53.3946 41.291C53.6831 41.2854 53.9579 41.1665 54.1595 40.96C54.3611 40.7535 54.4734 40.476 54.4722 40.1874V33.8857C54.4743 33.0569 54.1476 32.2611 53.5638 31.673C52.9799 31.0848 52.1866 30.7522 51.3578 30.7483H49.1937L56.7661 23.1759C57.3492 22.5873 57.675 21.7913 57.672 20.9627C57.669 20.1341 57.3374 19.3406 56.7499 18.7562ZM52.4658 33.8857V39.3899C51.4165 39.6291 50.4794 40.2175 49.8082 41.0589C49.137 41.9002 48.7715 42.9446 48.7715 44.0208C48.7715 45.0971 49.137 46.1415 49.8082 46.9828C50.4794 47.8242 51.4165 48.4126 52.4658 48.6517V54.157C52.4685 54.4538 52.3533 54.7394 52.1456 54.9514C51.9379 55.1633 51.6546 55.2842 51.3578 55.2876H39.8643C40.0008 55.1994 40.1134 55.0789 40.192 54.9366C40.2707 54.7944 40.3129 54.6349 40.315 54.4724V53.4693C40.315 53.2032 40.2093 52.948 40.0212 52.7599C39.833 52.5718 39.5779 52.4661 39.3118 52.4661C39.0458 52.4661 38.7906 52.5718 38.6025 52.7599C38.4143 52.948 38.3086 53.2032 38.3086 53.4693V54.4724C38.3107 54.6349 38.353 54.7944 38.4316 54.9366C38.5102 55.0788 38.6228 55.1994 38.7593 55.2875H4.61389C4.3172 55.2842 4.03396 55.1632 3.82632 54.9513C3.61869 54.7393 3.50362 54.4536 3.50638 54.1569V48.6517C4.55563 48.4125 5.49255 47.8241 6.16364 46.9828C6.83474 46.1415 7.20022 45.0972 7.20022 44.021C7.20022 42.9449 6.83474 41.9006 6.16364 41.0593C5.49255 40.218 4.55563 39.6296 3.50638 39.3904V33.8856C3.50362 33.5889 3.61867 33.3032 3.82629 33.0911C4.03391 32.8791 4.31715 32.7581 4.61389 32.7546H38.5632C38.4019 32.9334 38.3114 33.1649 38.3086 33.4056V34.4088C38.3086 34.6749 38.4143 34.93 38.6025 35.1182C38.7906 35.3063 39.0458 35.412 39.3118 35.412C39.5779 35.412 39.833 35.3063 40.0212 35.1182C40.2093 34.93 40.315 34.6749 40.315 34.4088V33.4056C40.3122 33.1649 40.2217 32.9334 40.0605 32.7546H51.3578C51.6546 32.7581 51.9379 32.8791 52.1456 33.0911C52.3533 33.3031 52.4685 33.5889 52.4658 33.8857ZM55.3475 21.7574L47.3139 29.791C47.311 29.5311 47.2068 29.2826 47.0233 29.0985L46.3141 28.3893C46.2209 28.2961 46.1104 28.2222 45.9887 28.1718C45.867 28.1214 45.7365 28.0955 45.6048 28.0955C45.4731 28.0955 45.3426 28.1214 45.2209 28.1718C45.0993 28.2222 44.9887 28.2961 44.8955 28.3893C44.8024 28.4824 44.7285 28.593 44.6781 28.7147C44.6277 28.8364 44.6017 28.9668 44.6017 29.0985C44.6017 29.2303 44.6277 29.3607 44.6781 29.4824C44.7285 29.6041 44.8024 29.7147 44.8955 29.8078L45.6048 30.5171C45.7142 30.6231 45.8467 30.7023 45.992 30.7483H14.49L30.4356 14.803C30.4162 14.951 30.4307 15.1014 30.4779 15.243C30.5252 15.3846 30.604 15.5136 30.7084 15.6202L31.4177 16.3295C31.5106 16.4234 31.6212 16.498 31.7431 16.549C31.865 16.6001 31.9958 16.6265 32.128 16.6269C32.2601 16.6272 32.391 16.6014 32.5132 16.551C32.6354 16.5006 32.7463 16.4265 32.8398 16.3331C32.9332 16.2397 33.0073 16.1287 33.0577 16.0065C33.1081 15.8844 33.1339 15.7535 33.1336 15.6213C33.1333 15.4892 33.1068 15.3584 33.0558 15.2365C33.0048 15.1146 32.9302 15.004 32.8363 14.911L32.127 14.2017C32.0203 14.0973 31.8914 14.0185 31.7498 13.9713C31.6082 13.924 31.4578 13.9095 31.3098 13.9289L39.4142 5.82462C39.6267 5.6175 39.9125 5.50294 40.2091 5.50596C40.5058 5.50899 40.7892 5.62937 40.9974 5.84078L44.8896 9.733C44.3167 10.6441 44.0702 11.7228 44.1906 12.7923C44.3109 13.8618 44.7909 14.8588 45.5519 15.6199C46.3129 16.3809 47.3098 16.861 48.3793 16.9814C49.4488 17.1018 50.5275 16.8554 51.4387 16.2826L55.3314 20.1747C55.543 20.3826 55.6635 20.666 55.6666 20.9627C55.6696 21.2594 55.5549 21.5451 55.3475 21.7574Z" stroke="white" stroke-width="0.3" mask="url(#path-6-outside-1_4101_17414)"/>
<path d="M43.531 25.4986L43.531 25.4986C43.4309 25.3985 43.3121 25.319 43.1813 25.2649C43.0505 25.2107 42.9103 25.1828 42.7687 25.1828C42.6271 25.1828 42.4869 25.2107 42.3561 25.2649C42.2253 25.3191 42.1065 25.3985 42.0064 25.4986C41.9063 25.5987 41.8269 25.7175 41.7727 25.8483C41.7185 25.9791 41.6906 26.1193 41.6906 26.2609C41.6906 26.4025 41.7185 26.5427 41.7727 26.6735C41.8269 26.8043 41.9063 26.9231 42.0064 27.0232C42.0064 27.0232 42.0064 27.0232 42.0064 27.0232L42.7156 27.7325C42.8158 27.8326 42.9346 27.912 43.0654 27.9662C43.1962 28.0204 43.3364 28.0482 43.478 28.0482C43.6195 28.0482 43.7597 28.0204 43.8905 27.9662C44.0213 27.912 44.1402 27.8326 44.2403 27.7325C44.3404 27.6324 44.4198 27.5135 44.474 27.3827C44.5282 27.2519 44.556 27.1117 44.556 26.9702C44.556 26.8286 44.5282 26.6884 44.474 26.5576C44.4198 26.4268 44.3404 26.308 44.2403 26.2079L43.531 25.4986Z" fill="white" stroke="white" stroke-width="0.15"/>
<path d="M40.6873 22.6607C40.5872 22.5606 40.4683 22.4812 40.3375 22.427C40.2067 22.3728 40.0665 22.3449 39.9249 22.3449C39.7834 22.3449 39.6432 22.3728 39.5124 22.427C39.3816 22.4812 39.2627 22.5606 39.1626 22.6607C39.0625 22.7608 38.9831 22.8796 38.9289 23.0104C38.8748 23.1412 38.8469 23.2814 38.8469 23.423C38.8469 23.5646 38.8748 23.7048 38.9289 23.8356C38.9831 23.9664 39.0625 24.0852 39.1626 24.1853L39.8719 24.8946C39.972 24.9947 40.0908 25.0741 40.2216 25.1283C40.3524 25.1824 40.4926 25.2103 40.6342 25.2103C40.7758 25.2103 40.916 25.1824 41.0468 25.1283C41.1776 25.0741 41.2964 24.9947 41.3965 24.8946C41.4966 24.7944 41.576 24.6756 41.6302 24.5448C41.6844 24.414 41.7123 24.2738 41.7123 24.1322C41.7123 23.9907 41.6844 23.8505 41.6302 23.7197C41.576 23.5889 41.4966 23.47 41.3965 23.3699L40.6873 22.6607Z" fill="white" stroke="white" stroke-width="0.15"/>
<path d="M37.8548 19.8239C37.8548 19.8239 37.8548 19.8238 37.8548 19.8238C37.7548 19.7231 37.6359 19.6431 37.505 19.5884C37.374 19.5337 37.2335 19.5054 37.0916 19.5051C36.9497 19.5048 36.8091 19.5325 36.6779 19.5867C36.5467 19.6408 36.4274 19.7204 36.327 19.8207C36.2267 19.921 36.147 20.0402 36.0928 20.1713C36.0386 20.3025 36.0107 20.4431 36.0109 20.585C36.0111 20.727 36.0394 20.8675 36.094 20.9985C36.1486 21.1294 36.2285 21.2483 36.3291 21.3484C36.3292 21.3484 36.3292 21.3484 36.3292 21.3485L37.038 22.0577C37.038 22.0578 37.0381 22.0579 37.0382 22.0579C37.138 22.1589 37.2569 22.2393 37.3879 22.2942C37.5189 22.3492 37.6596 22.3778 37.8017 22.3782C37.9438 22.3787 38.0847 22.351 38.2161 22.2969C38.3475 22.2427 38.4669 22.1631 38.5674 22.0626C38.668 21.9621 38.7477 21.8428 38.8019 21.7114C38.8562 21.58 38.8839 21.4392 38.8835 21.2971C38.8832 21.1549 38.8547 21.0143 38.7998 20.8832C38.7449 20.7522 38.6647 20.6333 38.5638 20.5333C38.5637 20.5333 38.5636 20.5332 38.5636 20.5332L37.8548 19.8239Z" fill="white" stroke="white" stroke-width="0.15"/>
<path d="M35.0154 16.9869C34.9153 16.8867 34.7964 16.8073 34.6656 16.7532C34.5348 16.699 34.3946 16.6711 34.2531 16.6711C34.1115 16.6711 33.9713 16.699 33.8405 16.7532C33.7097 16.8073 33.5909 16.8867 33.4908 16.9869C33.3906 17.087 33.3112 17.2058 33.2571 17.3366C33.2029 17.4674 33.175 17.6076 33.175 17.7492C33.175 17.8907 33.2029 18.0309 33.2571 18.1617C33.3112 18.2925 33.3906 18.4114 33.4908 18.5115L34.2 19.2207C34.4022 19.4229 34.6764 19.5365 34.9623 19.5365C35.2482 19.5365 35.5225 19.4229 35.7246 19.2207C35.9268 19.0185 36.0404 18.7443 36.0404 18.4584C36.0404 18.1725 35.9268 17.8983 35.7246 17.6961L35.0154 16.9869Z" fill="white" stroke="white" stroke-width="0.15"/>
</svg>
