<svg width="60" height="60" viewBox="0 0 60 60" fill="none" xmlns="http://www.w3.org/2000/svg">
<path d="M44.6704 15.85C44.6704 7.55139 37.9264 0.8 29.636 0.8C21.3456 0.8 14.6016 7.55139 14.6016 15.85C14.6016 21.5669 17.6768 26.761 22.5467 29.3553C11.5973 32.452 3.8 42.2763 3.8 54.2106V57.84C3.8 58.5911 4.40888 59.2 5.16 59.2H54.112C54.863 59.2 55.472 58.5911 55.472 57.84V54.2106C55.472 42.3727 47.6832 32.4613 36.7331 29.3578C41.6059 26.7633 44.6704 21.5665 44.6704 15.85ZM17.3216 15.85C17.3216 9.05112 22.8462 3.52 29.636 3.52C36.4257 3.52 41.9504 9.05112 41.9504 15.85C41.9504 22.759 36.4229 28.3747 29.636 28.3747C22.8491 28.3746 17.3216 22.759 17.3216 15.85ZM6.52 56.48V54.2106C6.52 41.4645 16.8899 31.0946 29.636 31.0946C42.3821 31.0946 52.752 41.4645 52.752 54.2106V56.48H6.52Z" fill="white" stroke="white" stroke-width="0.4"/>
</svg>
