<svg width="60" height="60" viewBox="0 0 60 60" fill="none" xmlns="http://www.w3.org/2000/svg">
<g clip-path="url(#clip0_4104_62993)">
<path d="M59.0853 20.0231L59.0854 20.0232C60.1407 22.2874 60.1052 24.8666 58.9881 27.0994L56.4089 32.2568C56.4089 32.2568 56.4089 32.2568 56.4089 32.2568C55.0281 35.0198 52.2506 36.7365 49.1614 36.7365H42.605C42.5169 36.7365 42.4316 36.7248 42.3506 36.7028C42.2695 36.7248 42.1842 36.7365 42.0962 36.7365H33.7056V48.9505H44.9372C47.8734 48.9505 50.262 51.339 50.262 54.2752C50.262 57.2114 47.8735 59.6 44.9372 59.6H15.3101C12.374 59.6 9.98534 57.2114 9.98534 54.2752C9.98534 51.3391 12.374 48.9505 15.3101 48.9505H26.5416V36.7367H19.6883C19.178 41.2131 16.0648 45.0093 11.7021 46.3494C9.10872 47.1483 6.4997 45.2039 6.4997 42.5069V36.4839C2.99772 35.5892 0.4 32.4095 0.4 28.6324V17.6346C0.4 13.8582 2.99773 10.6792 6.4997 9.78458V4.17524C6.4997 1.46796 9.1157 -0.46328 11.7027 0.332721C15.9385 1.6341 18.9887 5.246 19.6343 9.53167H20.6834C23.0593 9.53167 24.992 11.4638 24.9921 13.8389L59.0853 20.0231ZM59.0853 20.0231L56.3707 14.2087M59.0853 20.0231L56.3707 14.2087M56.3707 14.2087C55.0455 11.3672 52.1628 9.53155 49.026 9.53155M56.3707 14.2087L49.026 9.53155M49.026 9.53155H44.7919M49.026 9.53155H44.7919M44.7919 9.53155C42.4161 9.53155 40.4834 11.4637 40.4833 13.8372L44.7919 9.53155ZM17.6694 9.53158C17.0343 6.10347 14.5123 3.22086 11.1338 2.18283L17.6694 9.53158ZM17.6694 9.53158C16.9141 9.53177 15.8909 9.5316 14.7979 9.53142C12.1403 9.53098 9.07029 9.53047 8.43546 9.53477V4.17513C8.43546 2.77461 9.78817 1.76961 11.1338 2.18283L17.6694 9.53158ZM24.9922 13.8881L24.9921 13.8392L40.4833 13.8374L40.4832 13.8881H24.9922ZM54.6776 31.3912C53.6609 33.4257 51.65 34.7136 49.3912 34.7956V21.9404C49.3912 21.9355 49.3912 21.9306 49.3911 21.9256V11.4787C51.6351 11.6129 53.6598 12.9755 54.6166 15.0271L54.6167 15.0272L57.3311 20.8413C58.1354 22.5668 58.1083 24.5317 57.2571 26.2334L54.6777 31.3911L54.6776 31.3912ZM47.4554 11.4674V22.0955C47.4554 22.1005 47.4554 22.1055 47.4555 22.1105V34.8008H42.605C42.5169 34.8008 42.4316 34.8125 42.3506 34.8345C42.2695 34.8125 42.1842 34.8008 42.0962 34.8008H8.50418C5.10304 34.8008 2.33576 32.0335 2.33576 28.6324V17.6346C2.33576 14.234 5.10347 11.4673 8.50533 11.4673H20.6834C21.9917 11.4673 23.0563 12.5313 23.0563 13.8408L23.0563 13.841C23.0567 14.0013 23.0564 14.1312 23.0562 14.2421C23.0558 14.4634 23.0555 14.6083 23.0603 14.7659C23.0515 14.8606 23.0564 14.9549 23.0759 15.0499C23.3734 19.8933 27.3705 23.6663 32.2437 23.6663H33.232C38.1066 23.6663 42.104 19.8929 42.3999 15.0506C42.4202 14.9517 42.4242 14.8561 42.4153 14.7633C42.42 14.6063 42.4197 14.4664 42.4193 14.245C42.4191 14.1342 42.4188 14.0031 42.4191 13.8393V13.8392C42.4191 12.5315 43.4837 11.4674 44.792 11.4674H47.4554ZM8.43546 42.5069V36.7354C8.53295 36.7392 8.68659 36.7336 17.7367 36.7365C17.2378 40.3578 14.6845 43.4083 11.1332 44.4992L11.1331 44.4992C9.79249 44.9119 8.43546 43.9106 8.43546 42.5069ZM48.3264 54.2751C48.3264 56.1438 46.806 57.6641 44.9374 57.6641H15.3102C13.4415 57.6641 11.9212 56.1438 11.9212 54.2751C11.9212 52.4064 13.4415 50.8861 15.3102 50.8861H44.9374C46.806 50.8861 48.3264 52.4064 48.3264 54.2751ZM31.77 48.9504H28.4774V36.7365H31.77V48.9504ZM33.2318 21.7304H32.2436C28.7026 21.7304 25.7485 19.2072 25.1178 15.8237H40.3581C39.7288 19.2066 36.7742 21.7304 33.2318 21.7304Z" fill="white" stroke="white" stroke-width="0.2"/>
<path d="M6.50156 15.0632V31.2036C6.50156 31.7382 6.9348 32.1715 7.46944 32.1715C8.00409 32.1715 8.43732 31.7382 8.43732 31.2036V15.0632C8.43732 14.5285 8.00409 14.0953 7.46944 14.0953C6.9348 14.0953 6.50156 14.5285 6.50156 15.0632Z" fill="white" stroke="white" stroke-width="0.2"/>
<path d="M11.7281 15.0632V31.206C11.7281 31.7407 12.1614 32.1739 12.696 32.1739C13.2307 32.1739 13.6639 31.7407 13.6639 31.206V15.0632C13.6639 14.5285 13.2307 14.0953 12.696 14.0953C12.1614 14.0953 11.7281 14.5287 11.7281 15.0632Z" fill="white" stroke="white" stroke-width="0.2"/>
<path d="M16.9547 15.0632V31.206C16.9547 31.7407 17.3879 32.1739 17.9226 32.1739C18.4572 32.1739 18.8904 31.7407 18.8904 31.206V15.0632C18.8904 14.5285 18.4572 14.0953 17.9226 14.0953C17.388 14.0953 16.9547 14.5287 16.9547 15.0632Z" fill="white" stroke="white" stroke-width="0.2"/>
</g>
<defs>
<clipPath id="clip0_4104_62993">
<rect width="60" height="60" fill="white"/>
</clipPath>
</defs>
</svg>
