<svg width="60" height="60" viewBox="0 0 60 60" fill="none" xmlns="http://www.w3.org/2000/svg">
<path d="M56.875 55C56.875 55.4973 56.6775 55.9742 56.3258 56.3258C55.9742 56.6775 55.4973 56.875 55 56.875H12.5C10.0144 56.8724 7.63138 55.8838 5.8738 54.1262C4.11622 52.3686 3.12765 49.9856 3.125 47.5V5C3.125 4.50272 3.32254 4.02581 3.67417 3.67417C4.02581 3.32254 4.50272 3.125 5 3.125C5.49728 3.125 5.9742 3.32254 6.32583 3.67417C6.67746 4.02581 6.875 4.50272 6.875 5V47.5C6.87632 48.9914 7.46938 50.4214 8.52399 51.476C9.57859 52.5306 11.0086 53.1237 12.5 53.125H55C55.4973 53.125 55.9742 53.3225 56.3258 53.6742C56.6775 54.0258 56.875 54.5027 56.875 55ZM12.5 44.375C12.7704 44.3753 13.0376 44.3169 13.2832 44.2038C13.5288 44.0907 13.7469 43.9257 13.9225 43.72L25.4225 30.32C25.7009 29.9916 26.0449 29.725 26.4323 29.5373C26.8198 29.3496 27.2422 29.2449 27.6725 29.23C28.103 29.2138 28.5321 29.2868 28.933 29.4442C29.334 29.6017 29.6981 29.8403 30.0025 30.145L32.365 32.5075C33.0394 33.1704 33.8414 33.6895 34.7223 34.0333C35.6033 34.3771 36.5449 34.5384 37.49 34.5075C38.4364 34.4694 39.3648 34.2371 40.2176 33.8251C41.0704 33.4131 41.8294 32.8302 42.4475 32.1125L53.9325 18.71C54.2372 18.3304 54.3823 17.8473 54.3372 17.3626C54.2922 16.878 54.0604 16.4299 53.6909 16.113C53.3215 15.7962 52.8433 15.6354 52.3575 15.6647C51.8716 15.694 51.4162 15.911 51.0875 16.27L39.5875 29.67C39.3091 29.9984 38.9651 30.265 38.5777 30.4527C38.1902 30.6404 37.7678 30.7451 37.3375 30.76C36.907 30.7741 36.4782 30.7012 36.0765 30.5457C35.6749 30.3902 35.3088 30.1553 35 29.855L32.645 27.5C31.9701 26.8378 31.168 26.3192 30.2872 25.9754C29.4064 25.6317 28.465 25.47 27.52 25.5C26.5736 25.5381 25.6452 25.7704 24.7924 26.1824C23.9396 26.5944 23.1806 27.1774 22.5625 27.895L11.0775 41.28C10.8443 41.5522 10.6939 41.8855 10.6443 42.2405C10.5947 42.5956 10.6479 42.9573 10.7976 43.283C10.9473 43.6087 11.1872 43.8847 11.489 44.0782C11.7907 44.2718 12.1415 44.3748 12.5 44.375Z" fill="white"/>
</svg>
