<svg width="48" height="48" viewBox="0 0 48 48" fill="none" xmlns="http://www.w3.org/2000/svg">
<g clip-path="url(#clip0_5191_15569)">
<mask id="path-1-outside-1_5191_15569" maskUnits="userSpaceOnUse" x="-1" y="4" width="50" height="41" fill="black">
<rect fill="white" x="-1" y="4" width="50" height="41"/>
<path d="M46.6213 27.0861L43.0417 24.7378C42.8232 24.5949 42.5827 24.49 42.3301 24.4273L42.565 12.4167C42.5651 11.6489 42.3594 10.8955 41.9699 10.2368C41.5804 9.57804 41.0216 9.03862 40.3533 8.676C39.6849 8.31339 38.9318 8.14116 38.1744 8.17767C37.4169 8.21418 36.6835 8.45807 36.0521 8.88334L35.9594 8.94579C35.7902 8.74976 35.6137 8.55814 35.4297 8.37094C33.5351 6.45696 31.0357 5.27907 28.3694 5.04365C25.7032 4.80823 23.0401 5.5303 20.8469 7.08334C18.6536 8.63637 17.0701 10.9213 16.3737 13.5378C15.6774 16.1543 15.9126 18.9355 17.0383 21.394L0.253877 38.3882C0.147907 38.4954 0.0883573 38.6409 0.0883253 38.7926C0.0883253 39.7758 0.00102929 43.2654 0.000181752 43.3004C-0.00361412 43.452 0.0521778 43.5989 0.155299 43.7089C0.25842 43.8188 0.400434 43.8828 0.550137 43.8868L4.80466 44H4.81945C4.89366 44 4.96714 43.9852 5.0357 43.9564C5.10426 43.9277 5.16655 43.8855 5.21901 43.8324L6.89864 42.1319C7.00457 42.0246 7.06409 41.8791 7.0641 41.7274V39.6714L8.38145 38.3376H10.7508C10.825 38.3376 10.8985 38.3228 10.967 38.2941C11.0356 38.2653 11.0979 38.2231 11.1503 38.17L12.8803 36.4184C12.9862 36.3111 13.0457 36.1656 13.0457 36.0139V33.713L14.2808 32.4626L16.4999 32.8059C16.5875 32.8195 16.6771 32.8121 16.7613 32.7841C16.8456 32.7561 16.9221 32.7084 16.9848 32.6448L22.5711 26.9887C24.8505 28.0613 27.4161 28.3406 29.8686 27.7832C32.321 27.2259 34.5226 25.8631 36.1305 23.907C37.7384 21.951 38.6624 19.5115 38.7585 16.9685C38.8547 14.4255 38.1176 11.9217 36.6621 9.84691L36.6783 9.83595C37.1395 9.52538 37.6752 9.34728 38.2284 9.32063C38.7816 9.29398 39.3316 9.41978 39.8198 9.68463C40.308 9.94948 40.716 10.3434 41.0005 10.8246C41.285 11.3057 41.4353 11.8559 41.4353 12.4167L41.2003 24.4273C40.9477 24.49 40.7072 24.5949 40.4887 24.7378L36.9093 27.0861C36.5578 27.3158 36.2688 27.6312 36.069 28.0034C35.8692 28.3756 35.7649 28.7927 35.7657 29.2163L35.5933 42.1916C35.5939 42.6695 35.7816 43.1277 36.1154 43.4656C36.4491 43.8035 36.9017 43.9936 37.3737 43.9942H45.8122C46.2842 43.9936 46.7368 43.8035 47.0705 43.4656C47.4043 43.1277 47.5921 42.6695 47.5926 42.1916L47.765 29.2163C47.7658 28.7926 47.6615 28.3756 47.4617 28.0034C47.2619 27.6312 46.9729 27.3157 46.6213 27.0861ZM16.3879 31.6309L14.1686 31.2877C14.081 31.2741 13.9914 31.2816 13.9072 31.3096C13.823 31.3375 13.7464 31.3852 13.6837 31.4486L12.081 33.0713C12.0285 33.1245 11.9869 33.1875 11.9585 33.2569C11.9301 33.3264 11.9155 33.4008 11.9155 33.4759V35.7768L10.5167 37.1935H8.14734C8.07314 37.1935 7.99967 37.2082 7.93112 37.237C7.86258 37.2658 7.8003 37.3079 7.74787 37.3611L6.09988 39.0297C5.99392 39.1369 5.93437 39.2824 5.93433 39.4341V41.4902L4.59146 42.8498L1.14379 42.7579C1.16658 41.8094 1.20971 39.9347 1.21715 39.0305L17.5923 22.451C18.5619 24.0833 19.9129 25.4493 21.5264 26.4287L16.3879 31.6309ZM34.631 23.8754C33.196 25.327 31.3681 26.3153 29.3785 26.7153C27.3888 27.1153 25.3267 26.909 23.4528 26.1226C21.5789 25.3362 19.9773 24.005 18.8505 22.2971C17.7237 20.5893 17.1223 18.5816 17.1223 16.5277C17.1223 14.4739 17.7237 12.4662 18.8505 10.7583C19.9773 9.0505 21.5789 7.71924 23.4528 6.93283C25.3267 6.14643 27.3888 5.94019 29.3785 6.34018C31.3681 6.74017 33.196 7.72844 34.631 9.18006C34.7617 9.3124 34.8881 9.44751 35.0102 9.58538L32.9705 10.9591C32.9547 10.9425 32.9396 10.9254 32.9234 10.909C32.3585 10.336 31.6028 9.99695 30.8041 9.95824C30.0054 9.91954 29.2212 10.1839 28.6048 10.6997C27.9885 11.2155 27.5844 11.9455 27.4715 12.747C27.3587 13.5485 27.5452 14.3638 27.9947 15.0334C28.4442 15.703 29.1242 16.1788 29.9018 16.3675C30.6793 16.5563 31.4985 16.4446 32.199 16.0542C32.8995 15.6638 33.431 15.0229 33.6894 14.2567C33.9479 13.4906 33.9147 12.6544 33.5964 11.9117L35.7205 10.4814C37.1318 12.4842 37.7967 14.9284 37.5972 17.3804C37.3978 19.8323 36.3469 22.1334 34.631 23.8754ZM30.1842 13.5227C30.2253 13.5853 30.2781 13.639 30.3397 13.6809C30.4014 13.7227 30.4705 13.7519 30.5433 13.7667C30.616 13.7815 30.6909 13.7817 30.7637 13.7672C30.8365 13.7527 30.9058 13.7238 30.9676 13.6821L32.631 12.5618C32.7482 12.93 32.7628 13.3238 32.6734 13.6999C32.584 14.0759 32.394 14.4198 32.1242 14.6937C31.8385 14.9838 31.4754 15.1833 31.0794 15.2675C30.6834 15.3518 30.2717 15.3173 29.8948 15.1682C29.5179 15.0191 29.1922 14.7619 28.9575 14.4281C28.7228 14.0944 28.5894 13.6985 28.5737 13.2891C28.5579 12.8797 28.6605 12.4746 28.8688 12.1233C29.0771 11.7721 29.3821 11.49 29.7463 11.3116C30.1106 11.1333 30.5184 11.0664 30.9197 11.1192C31.321 11.1721 31.6983 11.3423 32.0054 11.609L30.3417 12.7295C30.2799 12.7711 30.2268 12.8247 30.1855 12.887C30.1441 12.9494 30.1153 13.0194 30.1007 13.0931C30.0861 13.1668 30.0859 13.2426 30.1002 13.3163C30.1145 13.39 30.1431 13.4602 30.1842 13.5227ZM46.4626 42.1916C46.4624 42.3661 46.3938 42.5335 46.2719 42.6569C46.1499 42.7804 45.9846 42.8498 45.8122 42.85H37.3737C37.2013 42.8498 37.036 42.7804 36.9141 42.6569C36.7921 42.5335 36.7236 42.3661 36.7234 42.1916L36.8958 29.2163C36.8953 28.9836 36.9526 28.7545 37.0623 28.5501C37.172 28.3456 37.3307 28.1724 37.5238 28.0462L41.1031 25.698C41.3004 25.5688 41.5304 25.5 41.7653 25.5C42.0003 25.5 42.2303 25.5688 42.4275 25.698L46.0069 28.0464C46.2 28.1726 46.3587 28.3458 46.4684 28.5503C46.5782 28.7547 46.6354 28.9838 46.635 29.2165L46.4626 42.1916Z"/>
</mask>
<path d="M46.6213 27.0861L43.0417 24.7378C42.8232 24.5949 42.5827 24.49 42.3301 24.4273L42.565 12.4167C42.5651 11.6489 42.3594 10.8955 41.9699 10.2368C41.5804 9.57804 41.0216 9.03862 40.3533 8.676C39.6849 8.31339 38.9318 8.14116 38.1744 8.17767C37.4169 8.21418 36.6835 8.45807 36.0521 8.88334L35.9594 8.94579C35.7902 8.74976 35.6137 8.55814 35.4297 8.37094C33.5351 6.45696 31.0357 5.27907 28.3694 5.04365C25.7032 4.80823 23.0401 5.5303 20.8469 7.08334C18.6536 8.63637 17.0701 10.9213 16.3737 13.5378C15.6774 16.1543 15.9126 18.9355 17.0383 21.394L0.253877 38.3882C0.147907 38.4954 0.0883573 38.6409 0.0883253 38.7926C0.0883253 39.7758 0.00102929 43.2654 0.000181752 43.3004C-0.00361412 43.452 0.0521778 43.5989 0.155299 43.7089C0.25842 43.8188 0.400434 43.8828 0.550137 43.8868L4.80466 44H4.81945C4.89366 44 4.96714 43.9852 5.0357 43.9564C5.10426 43.9277 5.16655 43.8855 5.21901 43.8324L6.89864 42.1319C7.00457 42.0246 7.06409 41.8791 7.0641 41.7274V39.6714L8.38145 38.3376H10.7508C10.825 38.3376 10.8985 38.3228 10.967 38.2941C11.0356 38.2653 11.0979 38.2231 11.1503 38.17L12.8803 36.4184C12.9862 36.3111 13.0457 36.1656 13.0457 36.0139V33.713L14.2808 32.4626L16.4999 32.8059C16.5875 32.8195 16.6771 32.8121 16.7613 32.7841C16.8456 32.7561 16.9221 32.7084 16.9848 32.6448L22.5711 26.9887C24.8505 28.0613 27.4161 28.3406 29.8686 27.7832C32.321 27.2259 34.5226 25.8631 36.1305 23.907C37.7384 21.951 38.6624 19.5115 38.7585 16.9685C38.8547 14.4255 38.1176 11.9217 36.6621 9.84691L36.6783 9.83595C37.1395 9.52538 37.6752 9.34728 38.2284 9.32063C38.7816 9.29398 39.3316 9.41978 39.8198 9.68463C40.308 9.94948 40.716 10.3434 41.0005 10.8246C41.285 11.3057 41.4353 11.8559 41.4353 12.4167L41.2003 24.4273C40.9477 24.49 40.7072 24.5949 40.4887 24.7378L36.9093 27.0861C36.5578 27.3158 36.2688 27.6312 36.069 28.0034C35.8692 28.3756 35.7649 28.7927 35.7657 29.2163L35.5933 42.1916C35.5939 42.6695 35.7816 43.1277 36.1154 43.4656C36.4491 43.8035 36.9017 43.9936 37.3737 43.9942H45.8122C46.2842 43.9936 46.7368 43.8035 47.0705 43.4656C47.4043 43.1277 47.5921 42.6695 47.5926 42.1916L47.765 29.2163C47.7658 28.7926 47.6615 28.3756 47.4617 28.0034C47.2619 27.6312 46.9729 27.3157 46.6213 27.0861ZM16.3879 31.6309L14.1686 31.2877C14.081 31.2741 13.9914 31.2816 13.9072 31.3096C13.823 31.3375 13.7464 31.3852 13.6837 31.4486L12.081 33.0713C12.0285 33.1245 11.9869 33.1875 11.9585 33.2569C11.9301 33.3264 11.9155 33.4008 11.9155 33.4759V35.7768L10.5167 37.1935H8.14734C8.07314 37.1935 7.99967 37.2082 7.93112 37.237C7.86258 37.2658 7.8003 37.3079 7.74787 37.3611L6.09988 39.0297C5.99392 39.1369 5.93437 39.2824 5.93433 39.4341V41.4902L4.59146 42.8498L1.14379 42.7579C1.16658 41.8094 1.20971 39.9347 1.21715 39.0305L17.5923 22.451C18.5619 24.0833 19.9129 25.4493 21.5264 26.4287L16.3879 31.6309ZM34.631 23.8754C33.196 25.327 31.3681 26.3153 29.3785 26.7153C27.3888 27.1153 25.3267 26.909 23.4528 26.1226C21.5789 25.3362 19.9773 24.005 18.8505 22.2971C17.7237 20.5893 17.1223 18.5816 17.1223 16.5277C17.1223 14.4739 17.7237 12.4662 18.8505 10.7583C19.9773 9.0505 21.5789 7.71924 23.4528 6.93283C25.3267 6.14643 27.3888 5.94019 29.3785 6.34018C31.3681 6.74017 33.196 7.72844 34.631 9.18006C34.7617 9.3124 34.8881 9.44751 35.0102 9.58538L32.9705 10.9591C32.9547 10.9425 32.9396 10.9254 32.9234 10.909C32.3585 10.336 31.6028 9.99695 30.8041 9.95824C30.0054 9.91954 29.2212 10.1839 28.6048 10.6997C27.9885 11.2155 27.5844 11.9455 27.4715 12.747C27.3587 13.5485 27.5452 14.3638 27.9947 15.0334C28.4442 15.703 29.1242 16.1788 29.9018 16.3675C30.6793 16.5563 31.4985 16.4446 32.199 16.0542C32.8995 15.6638 33.431 15.0229 33.6894 14.2567C33.9479 13.4906 33.9147 12.6544 33.5964 11.9117L35.7205 10.4814C37.1318 12.4842 37.7967 14.9284 37.5972 17.3804C37.3978 19.8323 36.3469 22.1334 34.631 23.8754ZM30.1842 13.5227C30.2253 13.5853 30.2781 13.639 30.3397 13.6809C30.4014 13.7227 30.4705 13.7519 30.5433 13.7667C30.616 13.7815 30.6909 13.7817 30.7637 13.7672C30.8365 13.7527 30.9058 13.7238 30.9676 13.6821L32.631 12.5618C32.7482 12.93 32.7628 13.3238 32.6734 13.6999C32.584 14.0759 32.394 14.4198 32.1242 14.6937C31.8385 14.9838 31.4754 15.1833 31.0794 15.2675C30.6834 15.3518 30.2717 15.3173 29.8948 15.1682C29.5179 15.0191 29.1922 14.7619 28.9575 14.4281C28.7228 14.0944 28.5894 13.6985 28.5737 13.2891C28.5579 12.8797 28.6605 12.4746 28.8688 12.1233C29.0771 11.7721 29.3821 11.49 29.7463 11.3116C30.1106 11.1333 30.5184 11.0664 30.9197 11.1192C31.321 11.1721 31.6983 11.3423 32.0054 11.609L30.3417 12.7295C30.2799 12.7711 30.2268 12.8247 30.1855 12.887C30.1441 12.9494 30.1153 13.0194 30.1007 13.0931C30.0861 13.1668 30.0859 13.2426 30.1002 13.3163C30.1145 13.39 30.1431 13.4602 30.1842 13.5227ZM46.4626 42.1916C46.4624 42.3661 46.3938 42.5335 46.2719 42.6569C46.1499 42.7804 45.9846 42.8498 45.8122 42.85H37.3737C37.2013 42.8498 37.036 42.7804 36.9141 42.6569C36.7921 42.5335 36.7236 42.3661 36.7234 42.1916L36.8958 29.2163C36.8953 28.9836 36.9526 28.7545 37.0623 28.5501C37.172 28.3456 37.3307 28.1724 37.5238 28.0462L41.1031 25.698C41.3004 25.5688 41.5304 25.5 41.7653 25.5C42.0003 25.5 42.2303 25.5688 42.4275 25.698L46.0069 28.0464C46.2 28.1726 46.3587 28.3458 46.4684 28.5503C46.5782 28.7547 46.6354 28.9838 46.635 29.2165L46.4626 42.1916Z" fill="white"/>
<path d="M46.6213 27.0861L43.0417 24.7378C42.8232 24.5949 42.5827 24.49 42.3301 24.4273L42.565 12.4167C42.5651 11.6489 42.3594 10.8955 41.9699 10.2368C41.5804 9.57804 41.0216 9.03862 40.3533 8.676C39.6849 8.31339 38.9318 8.14116 38.1744 8.17767C37.4169 8.21418 36.6835 8.45807 36.0521 8.88334L35.9594 8.94579C35.7902 8.74976 35.6137 8.55814 35.4297 8.37094C33.5351 6.45696 31.0357 5.27907 28.3694 5.04365C25.7032 4.80823 23.0401 5.5303 20.8469 7.08334C18.6536 8.63637 17.0701 10.9213 16.3737 13.5378C15.6774 16.1543 15.9126 18.9355 17.0383 21.394L0.253877 38.3882C0.147907 38.4954 0.0883573 38.6409 0.0883253 38.7926C0.0883253 39.7758 0.00102929 43.2654 0.000181752 43.3004C-0.00361412 43.452 0.0521778 43.5989 0.155299 43.7089C0.25842 43.8188 0.400434 43.8828 0.550137 43.8868L4.80466 44H4.81945C4.89366 44 4.96714 43.9852 5.0357 43.9564C5.10426 43.9277 5.16655 43.8855 5.21901 43.8324L6.89864 42.1319C7.00457 42.0246 7.06409 41.8791 7.0641 41.7274V39.6714L8.38145 38.3376H10.7508C10.825 38.3376 10.8985 38.3228 10.967 38.2941C11.0356 38.2653 11.0979 38.2231 11.1503 38.17L12.8803 36.4184C12.9862 36.3111 13.0457 36.1656 13.0457 36.0139V33.713L14.2808 32.4626L16.4999 32.8059C16.5875 32.8195 16.6771 32.8121 16.7613 32.7841C16.8456 32.7561 16.9221 32.7084 16.9848 32.6448L22.5711 26.9887C24.8505 28.0613 27.4161 28.3406 29.8686 27.7832C32.321 27.2259 34.5226 25.8631 36.1305 23.907C37.7384 21.951 38.6624 19.5115 38.7585 16.9685C38.8547 14.4255 38.1176 11.9217 36.6621 9.84691L36.6783 9.83595C37.1395 9.52538 37.6752 9.34728 38.2284 9.32063C38.7816 9.29398 39.3316 9.41978 39.8198 9.68463C40.308 9.94948 40.716 10.3434 41.0005 10.8246C41.285 11.3057 41.4353 11.8559 41.4353 12.4167L41.2003 24.4273C40.9477 24.49 40.7072 24.5949 40.4887 24.7378L36.9093 27.0861C36.5578 27.3158 36.2688 27.6312 36.069 28.0034C35.8692 28.3756 35.7649 28.7927 35.7657 29.2163L35.5933 42.1916C35.5939 42.6695 35.7816 43.1277 36.1154 43.4656C36.4491 43.8035 36.9017 43.9936 37.3737 43.9942H45.8122C46.2842 43.9936 46.7368 43.8035 47.0705 43.4656C47.4043 43.1277 47.5921 42.6695 47.5926 42.1916L47.765 29.2163C47.7658 28.7926 47.6615 28.3756 47.4617 28.0034C47.2619 27.6312 46.9729 27.3157 46.6213 27.0861ZM16.3879 31.6309L14.1686 31.2877C14.081 31.2741 13.9914 31.2816 13.9072 31.3096C13.823 31.3375 13.7464 31.3852 13.6837 31.4486L12.081 33.0713C12.0285 33.1245 11.9869 33.1875 11.9585 33.2569C11.9301 33.3264 11.9155 33.4008 11.9155 33.4759V35.7768L10.5167 37.1935H8.14734C8.07314 37.1935 7.99967 37.2082 7.93112 37.237C7.86258 37.2658 7.8003 37.3079 7.74787 37.3611L6.09988 39.0297C5.99392 39.1369 5.93437 39.2824 5.93433 39.4341V41.4902L4.59146 42.8498L1.14379 42.7579C1.16658 41.8094 1.20971 39.9347 1.21715 39.0305L17.5923 22.451C18.5619 24.0833 19.9129 25.4493 21.5264 26.4287L16.3879 31.6309ZM34.631 23.8754C33.196 25.327 31.3681 26.3153 29.3785 26.7153C27.3888 27.1153 25.3267 26.909 23.4528 26.1226C21.5789 25.3362 19.9773 24.005 18.8505 22.2971C17.7237 20.5893 17.1223 18.5816 17.1223 16.5277C17.1223 14.4739 17.7237 12.4662 18.8505 10.7583C19.9773 9.0505 21.5789 7.71924 23.4528 6.93283C25.3267 6.14643 27.3888 5.94019 29.3785 6.34018C31.3681 6.74017 33.196 7.72844 34.631 9.18006C34.7617 9.3124 34.8881 9.44751 35.0102 9.58538L32.9705 10.9591C32.9547 10.9425 32.9396 10.9254 32.9234 10.909C32.3585 10.336 31.6028 9.99695 30.8041 9.95824C30.0054 9.91954 29.2212 10.1839 28.6048 10.6997C27.9885 11.2155 27.5844 11.9455 27.4715 12.747C27.3587 13.5485 27.5452 14.3638 27.9947 15.0334C28.4442 15.703 29.1242 16.1788 29.9018 16.3675C30.6793 16.5563 31.4985 16.4446 32.199 16.0542C32.8995 15.6638 33.431 15.0229 33.6894 14.2567C33.9479 13.4906 33.9147 12.6544 33.5964 11.9117L35.7205 10.4814C37.1318 12.4842 37.7967 14.9284 37.5972 17.3804C37.3978 19.8323 36.3469 22.1334 34.631 23.8754ZM30.1842 13.5227C30.2253 13.5853 30.2781 13.639 30.3397 13.6809C30.4014 13.7227 30.4705 13.7519 30.5433 13.7667C30.616 13.7815 30.6909 13.7817 30.7637 13.7672C30.8365 13.7527 30.9058 13.7238 30.9676 13.6821L32.631 12.5618C32.7482 12.93 32.7628 13.3238 32.6734 13.6999C32.584 14.0759 32.394 14.4198 32.1242 14.6937C31.8385 14.9838 31.4754 15.1833 31.0794 15.2675C30.6834 15.3518 30.2717 15.3173 29.8948 15.1682C29.5179 15.0191 29.1922 14.7619 28.9575 14.4281C28.7228 14.0944 28.5894 13.6985 28.5737 13.2891C28.5579 12.8797 28.6605 12.4746 28.8688 12.1233C29.0771 11.7721 29.3821 11.49 29.7463 11.3116C30.1106 11.1333 30.5184 11.0664 30.9197 11.1192C31.321 11.1721 31.6983 11.3423 32.0054 11.609L30.3417 12.7295C30.2799 12.7711 30.2268 12.8247 30.1855 12.887C30.1441 12.9494 30.1153 13.0194 30.1007 13.0931C30.0861 13.1668 30.0859 13.2426 30.1002 13.3163C30.1145 13.39 30.1431 13.4602 30.1842 13.5227ZM46.4626 42.1916C46.4624 42.3661 46.3938 42.5335 46.2719 42.6569C46.1499 42.7804 45.9846 42.8498 45.8122 42.85H37.3737C37.2013 42.8498 37.036 42.7804 36.9141 42.6569C36.7921 42.5335 36.7236 42.3661 36.7234 42.1916L36.8958 29.2163C36.8953 28.9836 36.9526 28.7545 37.0623 28.5501C37.172 28.3456 37.3307 28.1724 37.5238 28.0462L41.1031 25.698C41.3004 25.5688 41.5304 25.5 41.7653 25.5C42.0003 25.5 42.2303 25.5688 42.4275 25.698L46.0069 28.0464C46.2 28.1726 46.3587 28.3458 46.4684 28.5503C46.5782 28.7547 46.6354 28.9838 46.635 29.2165L46.4626 42.1916Z" stroke="white" stroke-width="0.8" mask="url(#path-1-outside-1_5191_15569)"/>
</g>
<defs>
<clipPath id="clip0_5191_15569">
<rect width="48" height="48" fill="white"/>
</clipPath>
</defs>
</svg>
