<svg width="48" height="48" viewBox="0 0 48 48" fill="none" xmlns="http://www.w3.org/2000/svg">
<path d="M34.9607 4.01685L34.9605 4.01692L18.3018 10.1063H8.44677C4.75405 10.1063 1.75 13.1099 1.75 16.8027V21.0687C1.75 24.7614 4.75404 27.7655 8.44677 27.7655H8.87883V38.1915C8.87883 41.0949 11.2406 43.4567 14.1441 43.4567C17.0475 43.4567 19.4093 41.095 19.4093 38.1915V28.1703L34.9605 33.8542C34.9606 33.8542 34.9606 33.8542 34.9606 33.8542C37.7851 34.8873 40.8056 32.8001 40.8056 29.7684V25.442C43.9884 24.982 46.4421 22.2391 46.4421 18.9305C46.442 15.6269 43.988 12.8886 40.8055 12.4294V8.10304C40.8055 5.08252 37.7984 2.98217 34.9607 4.01685ZM35.6071 32.0876L35.6069 32.0875L19.4092 26.1674V11.7044L35.606 5.78399C37.228 5.19279 38.9245 6.39127 38.9245 8.10304V29.7684C38.9245 31.4855 37.2208 32.6791 35.6071 32.0876ZM3.63092 21.0688V16.8028C3.63092 14.1479 5.79144 11.9874 8.44668 11.9874H17.5282V25.8846H17.518H17.5031H17.4882H17.4732H17.4581H17.4431H17.4279H17.4128H17.3976H17.3823H17.367H17.3517H17.3363H17.3209H17.3054H17.2899H17.2743H17.2587H17.2431H17.2274H17.2117H17.1959H17.1801H17.1642H17.1483H17.1324H17.1164H17.1004H17.0844H17.0683H17.0521H17.036H17.0197H17.0035H16.9872H16.9709H16.9545H16.9381H16.9216H16.9051H16.8886H16.872H16.8554H16.8388H16.8221H16.8054H16.7887H16.7719H16.7551H16.7382H16.7213H16.7044H16.6874H16.6704H16.6534H16.6363H16.6192H16.602H16.5849H16.5676H16.5504H16.5331H16.5158H16.4985H16.4811H16.4637H16.4462H16.4287H16.4112H16.3937H16.3761H16.3585H16.3408H16.3232H16.3054H16.2877H16.2699H16.2521H16.2343H16.2164H16.1985H16.1806H16.1627H16.1447H16.1267H16.1086H16.0906H16.0725H16.0543H16.0362H16.018H15.9998H15.9815H15.9633H15.945H15.9266H15.9083H15.8899H15.8715H15.853H15.8346H15.8161H15.7976H15.779H15.7605H15.7419H15.7233H15.7046H15.686H15.6673H15.6485H15.6298H15.611H15.5922H15.5734H15.5546H15.5357H15.5168H15.4979H15.479H15.46H15.4411H15.4221H15.403H15.384H15.3649H15.3458H15.3267H15.3076H15.2884H15.2693H15.2501H15.2309H15.2116H15.1924H15.1731H15.1538H15.1345H15.1152H15.0958H15.0764H15.057H15.0376H15.0182H14.9988H14.9793H14.9598H14.9403H14.9208H14.9013H14.8817H14.8621H14.8426H14.8229H14.8033H14.7837H14.764H14.7444H14.7247H14.705H14.6853H14.6656H14.6458H14.6261H14.6063H14.5865H14.5667H14.5469H14.5271H14.5072H14.4874H14.4675H14.4476H14.4277H14.4078H14.3879H14.368H14.348H14.3281H14.3081H14.2881H14.2682H14.2482H14.2281H14.2081H14.1881H14.1681H14.148H14.1279H14.1079H14.0878H14.0677H14.0476H14.0275H14.0074H13.9873H13.9671H13.947H13.9268H13.9067H13.8865H13.8663H13.8462H13.826H13.8058H13.7856H13.7654H13.7452H13.725H13.7047H13.6845H13.6643H13.644H13.6238H13.6035H13.5833H13.563H13.5428H13.5225H13.5022H13.4819H13.4617H13.4414H13.4211H13.4008H13.3805H13.3602H13.3399H13.3196H13.2993H13.279H13.2587H13.2384H13.2181H13.1978H13.1775H13.1572H13.1369H13.1166H13.0963H13.0759H13.0556H13.0353H13.015H12.9947H12.9744H12.9541H12.9338H12.9135H12.8932H12.8729H12.8526H12.8323H12.812H12.7917H12.7714H12.7511H12.7309H12.7106H12.6903H12.67H12.6498H12.6295H12.6093H12.589H12.5688H12.5485H12.5283H12.5081H12.4878H12.4676H12.4474H12.4272H12.407H12.3868H12.3666H12.3464H12.3263H12.3061H12.2859H12.2658H12.2456H12.2255H12.2054H12.1853H12.1651H12.145H12.125H12.1049H12.0848H12.0647H12.0447H12.0246H12.0046H11.9846H11.9646H11.9446H11.9246H11.9046H11.8846H11.8647H11.8447H11.8248H11.8049H11.785H11.7651H11.7452H11.7253H11.7054H11.6856H11.6658H11.646H11.6262H11.6064H11.5866H11.5668H11.5471H11.5273H11.5076H11.4879H11.4682H11.4486H11.4289H11.4093H11.3896H11.37H11.3505H11.3309H11.3113H11.2918H11.2723H11.2528H11.2333H11.2138H11.1943H11.1749H11.1555H11.1361H11.1167H11.0974H11.078H11.0587H11.0394H11.0201H11.0009H10.9816H10.9624H10.9432H10.924H10.9049H10.8857H10.8666H10.8475H10.8284H10.8094H10.7903H10.7713H10.7524H10.7334H10.7145H10.6955H10.6766H10.6578H10.6389H10.6201H10.6013H10.5825H10.5638H10.5451H10.5264H10.5077H10.489H10.4704H10.4518H10.4332H10.4147H10.3961H10.3777H10.3592H10.3407H10.3223H10.3039H10.2856H10.2672H10.2489H10.2306H10.2124H10.1942H10.176H10.1578H10.1397H10.1215H10.1035H10.0854H10.0674H10.0494H10.0314H10.0135H9.9956H9.97773H9.95989H9.94208H9.9243H9.90655H9.88883H9.87115H9.85349H9.83587H9.81828H9.80072H9.7832H9.76571H9.74825H9.73082H9.71343H9.69607H9.67874H9.66145H9.64419H9.62697H9.60978H9.59262H9.5755H9.55842H9.54137H9.52435H9.50737H9.49043H9.47352H9.45665H9.43982H9.42302H9.40626H9.38953H9.37284H9.35619H9.33958H9.32301H9.30647H9.28997H9.27351H9.25709H9.2407H9.22436H9.20805H9.19178H9.17556H9.15937H9.14322H9.12711H9.11104H9.09502H9.07903H9.06308H9.04718H9.03131H9.01549H8.99971H8.98397H8.96827H8.95261H8.937H8.92143H8.9059H8.89041H8.87497H8.85957H8.84421H8.8289H8.81363H8.7984H8.78322H8.76809H8.75299H8.73795H8.72294H8.70799H8.69307H8.67821H8.66339H8.64861H8.63388H8.6192H8.60456H8.58997H8.57543H8.56094H8.54649H8.53209H8.51773H8.50343H8.48917H8.47496H8.4608H8.44668C5.79145 25.8845 3.63092 23.724 3.63092 21.0688ZM17.5282 38.1916C17.5282 40.0576 16.0099 41.5758 14.144 41.5758C12.278 41.5758 10.7598 40.0576 10.7598 38.1916V27.7655H17.5282V38.1916ZM44.5611 18.9305C44.5611 21.197 42.9454 23.0904 40.8055 23.5294V14.3418C42.9458 14.7799 44.5611 16.6694 44.5611 18.9305Z" fill="white" stroke="white" stroke-width="0.5"/>
</svg>
