<svg width="48" height="48" viewBox="0 0 48 48" fill="none" xmlns="http://www.w3.org/2000/svg">
<path d="M22.4587 21.2775H22.4596C23.2757 21.2824 23.6821 22.2672 23.1033 22.8413L22.4587 21.2775ZM22.4587 21.2775H13.3318V18.7349L23.1014 9.02586C23.1017 9.02554 23.102 9.02522 23.1024 9.02491C23.2816 8.85243 23.3773 8.61674 23.3773 8.37398V4.68667C29.6374 4.76624 34.6682 9.81991 34.6682 16.0536V36.6316H13.3318V32.5614L23.1031 22.8415L22.4587 21.2775ZM11.4864 22.2005L11.4864 22.202C11.4913 22.7092 11.9055 23.1143 12.4132 23.1143H20.2271L11.7608 31.5322C11.5878 31.7029 11.4864 31.9376 11.4864 32.1827V36.6316H10.8678C8.66027 36.6316 6.85 38.4302 6.85 40.625V45.2362C6.85 45.7459 7.27045 46.15 7.77685 46.15H40.2273C40.7347 46.15 41.15 45.7449 41.15 45.2362V40.625C41.15 38.4306 39.3473 36.6316 37.1405 36.6316H36.5136V16.0536C36.5136 8.77146 30.5574 2.85 23.2273 2.85H22.4587C21.9512 2.85 21.5318 3.25923 21.5318 3.76786V7.99624L11.7608 17.7067C11.7607 17.7068 11.7607 17.7068 11.7606 17.7069C11.5877 17.8775 11.4864 18.1122 11.4864 18.3571L11.4864 22.2005ZM10.8678 38.4714H37.1405C38.35 38.4714 39.3045 39.4285 39.3045 40.625V44.3143H8.69545V40.625C8.69545 39.4291 9.65753 38.4714 10.8678 38.4714Z" fill="white" stroke="white" stroke-width="0.3"/>
</svg>
