<svg width="58" height="22" viewBox="0 0 58 22" fill="none" xmlns="http://www.w3.org/2000/svg">
<g clip-path="url(#clip0_3790_7126)">
<path d="M56.3268 0H1.67322C0.749124 0 0 0.732886 0 1.63695V20.3631C0 21.2671 0.749124 22 1.67322 22H56.3268C57.2509 22 58 21.2671 58 20.3631V1.63695C58 0.732886 57.2509 0 56.3268 0Z" fill="black"/>
<path d="M21.1604 13.4483C20.4968 13.4483 18.4053 13.4766 18.3909 13.4766C18.3188 12.7992 18.3044 12.2347 18.3044 11.6421C18.3044 11.0917 18.3332 10.5413 18.3909 10.0192C18.5928 10.0192 20.9584 10.0474 21.1604 10.0616C21.3623 10.0616 21.4344 9.93455 21.4488 9.76521C21.4488 9.48298 21.4488 9.20074 21.4488 8.9044C21.4488 8.73506 21.3046 8.57983 21.0305 8.57983C21.0305 8.57983 13.9482 8.60806 13.8905 8.60806C13.6597 8.60806 13.5443 8.73506 13.4866 8.94674C13.4001 9.22897 13.2559 10.6119 13.2559 11.6421C13.2559 12.6016 13.328 13.5189 13.4578 14.4785C13.5011 14.8031 13.703 14.9583 14.0492 14.9583C16.3282 14.9583 18.7082 14.9583 21.0305 14.9583C21.3479 14.9583 21.4488 14.7184 21.4488 14.5773C21.4488 14.295 21.4344 14.0128 21.4344 13.7447C21.4344 13.5753 21.3335 13.4483 21.1604 13.4483Z" fill="white"/>
<path d="M5.43789 14.9442C5.17825 14.9442 5.00516 14.789 4.97631 14.6055C4.87534 13.8012 4.80322 13.0815 4.80322 12.1783C4.80322 11.0071 5.00516 9.97691 5.06286 9.76524C5.07728 9.69468 5.12056 9.52534 5.35135 9.52534C5.35135 9.52534 10.2412 10.0192 11.3807 10.0898L11.4528 9.42656C9.70748 9.20077 6.95244 8.93265 5.59656 8.76331C5.42347 8.73509 5.3225 8.57986 5.33692 8.45286C5.38019 8.10007 5.55328 7.50738 5.58213 7.43682C5.65425 7.23926 5.81292 7.23926 5.92832 7.25337C7.97656 7.52149 10.6451 7.84606 12.4914 8.08596C12.8664 8.1424 12.9097 8.42464 12.9097 8.55164C12.7221 10.6119 12.7221 12.3336 12.9097 14.5773C12.9097 14.7466 12.7943 14.9724 12.5923 14.9583C12.5923 14.9583 5.62541 14.9583 5.46674 14.9583M11.3951 13.4484C11.3951 13.3214 11.2941 11.9384 11.3086 11.4727L9.83729 11.3881C9.79402 11.7691 9.79402 12.3336 9.79402 12.6299C9.79402 12.898 9.82287 13.1944 9.85172 13.4625C10.0248 13.4625 11.2364 13.4343 11.3951 13.4343" fill="white"/>
<path d="M45.6386 14.9442C45.3789 14.9442 45.2058 14.789 45.177 14.6055C45.076 13.8012 45.0039 13.0815 45.0039 12.1783C45.0039 11.0071 45.2058 9.97691 45.2635 9.76524C45.278 9.69468 45.3212 9.52534 45.552 9.52534C45.552 9.52534 50.4419 10.0192 51.5814 10.0898L51.6535 9.42656C49.9082 9.20077 47.1531 8.93265 45.7972 8.76331C45.6241 8.73509 45.5232 8.57986 45.5376 8.45286C45.5665 8.22707 45.754 7.50738 45.7828 7.43682C45.8549 7.23926 46.0136 7.23926 46.129 7.25337C48.1772 7.52149 50.8457 7.84606 52.692 8.08596C53.0671 8.1424 53.1248 8.42464 53.1103 8.55164C52.9084 10.6119 52.9228 12.3336 53.1103 14.5773C53.1103 14.7466 52.9949 14.9724 52.793 14.9583C52.793 14.9583 45.8261 14.9583 45.6674 14.9583M51.5958 13.4484C51.5958 13.3214 51.4948 11.9384 51.5093 11.4727L50.038 11.3881C49.9947 11.7691 49.9947 12.3336 49.9947 12.6299C49.9947 12.898 50.0236 13.1944 50.0524 13.4625C50.2255 13.4625 51.4371 13.4343 51.5958 13.4343" fill="white"/>
<path d="M22.5163 14.9018C22.4009 14.9018 22.1846 14.8171 22.1413 14.5208C22.0259 13.5612 21.9249 12.2912 21.9394 11.3316C21.9394 10.3014 22.0403 9.75107 22.1413 8.86204C22.1413 8.74915 22.2423 8.53748 22.5308 8.53748C22.5885 8.53748 29.6275 8.53748 29.6275 8.53748C29.9016 8.53748 30.0458 8.74915 30.0458 8.91849C30.0314 9.97686 30.0025 10.7248 30.0025 11.7126C30.0025 12.7004 30.0025 13.533 30.0458 14.5208C30.0458 14.6619 29.9448 14.9018 29.6275 14.9018H22.5163ZM28.5457 13.3919C28.5168 12.5734 28.488 12.2771 28.488 11.7267C28.488 11.0493 28.5168 10.5554 28.5457 9.99097C28.5457 9.99097 27.5216 9.96275 26.9879 9.96275C26.9302 10.4849 26.9013 11.1622 26.9013 11.7267C26.9013 12.3335 26.9302 12.7992 27.0023 13.4342C27.5071 13.4201 28.5457 13.406 28.5457 13.406" fill="white"/>
<path d="M38.0221 14.9018C38.1375 14.9018 38.3539 14.8171 38.3972 14.5208C38.5126 13.5612 38.6135 12.2912 38.5991 11.3316C38.5991 10.3014 38.426 9.15839 38.3972 8.86204C38.3972 8.74915 38.2962 8.53748 38.0077 8.53748C37.95 8.53748 30.911 8.53748 30.911 8.53748C30.6369 8.53748 30.4927 8.74915 30.4927 8.91849C30.4927 9.97686 30.5359 10.7248 30.5359 11.7126C30.5359 12.7004 30.5359 13.533 30.4927 14.5208C30.4927 14.6619 30.5936 14.9018 30.911 14.9018H38.0221ZM31.9928 13.3919C32.0216 12.5734 32.0505 12.2771 32.0505 11.7267C32.0505 11.0493 32.0216 10.5554 31.9928 9.99097C31.9928 9.99097 33.0169 9.96275 33.5506 9.96275C33.6083 10.4849 33.6372 11.1622 33.6372 11.7267C33.6372 12.3335 33.6083 12.7992 33.5362 13.4342C33.0313 13.4201 31.9928 13.406 31.9928 13.406" fill="white"/>
<path d="M39.8399 6.64648C39.8399 6.64648 41.1958 6.64648 42.018 6.64648C42.768 6.64648 44.1672 6.64648 44.1672 6.64648C44.3691 6.6606 44.5566 6.82994 44.5278 7.08394C44.3836 8.26932 44.2105 9.46881 44.2105 10.753C44.2105 12.0371 44.3547 13.1802 44.5278 14.4643C44.5566 14.7183 44.3403 14.8877 44.1528 14.8877C43.5037 14.93 42.869 14.93 41.9891 14.9159C41.1381 14.9159 40.489 14.9159 39.8111 14.8736C39.6524 14.8736 39.4793 14.7465 39.436 14.4925C39.2774 13.4624 39.0898 11.9383 39.0898 10.7247C39.0898 9.42647 39.2629 8.26932 39.436 6.99927C39.4649 6.7876 39.6235 6.6606 39.8255 6.64648" fill="white"/>
<path d="M23.2518 7.54973C23.2806 7.8743 23.4826 7.94485 23.7999 7.93074L28.358 7.59206C28.6176 7.59206 28.8051 7.47917 28.7763 7.16872L28.7186 6.50547C28.6897 6.20913 28.531 6.15268 28.1704 6.1809L23.6412 6.51958C23.3095 6.5478 23.1796 6.67481 23.2085 6.99938L23.2518 7.56384V7.54973Z" fill="white"/>
<path d="M31.3728 6.19497C31.3295 6.51954 31.5026 6.63243 31.8343 6.67476L36.3636 7.26745C36.6232 7.30979 36.8251 7.26745 36.8684 6.92877L36.955 6.26553C36.9982 5.96918 36.854 5.88451 36.479 5.84218L31.9786 5.24949C31.6468 5.20716 31.4882 5.30594 31.4449 5.63051L31.3728 6.19497Z" fill="white"/>
</g>
<defs>
<clipPath id="clip0_3790_7126">
<rect width="58" height="22" fill="white"/>
</clipPath>
</defs>
</svg>
