<svg width="15" height="10" viewBox="0 0 15 10" fill="none" xmlns="http://www.w3.org/2000/svg">
<g clip-path="url(#clip0_3790_6433)">
<path d="M1.3801 0.720001H1.3201V0.0700005H1.1001V0.0200005H1.6101V0.0700005H1.3801V0.720001Z" fill="black"/>
<path d="M2.17986 0.0200005L2.38986 0.53L2.59986 0.0200005H2.66986L2.39986 0.63C2.35986 0.71 2.32986 0.74 2.25986 0.74C2.24986 0.74 2.22986 0.74 2.21986 0.74V0.68C2.21986 0.68 2.23986 0.68 2.25986 0.68C2.29986 0.68 2.31986 0.67 2.33986 0.63V0.600001L2.10986 0.0200005H2.17986Z" fill="black"/>
<path d="M3.29998 0.720001H3.22998V0.0200005H3.47998C3.65998 0.0200005 3.70998 0.11 3.70998 0.22C3.70998 0.38 3.58998 0.42 3.45998 0.42H3.28998V0.73L3.29998 0.720001ZM3.29998 0.35H3.44998C3.56998 0.35 3.65998 0.33 3.65998 0.21C3.65998 0.0900005 3.58998 0.0700005 3.44998 0.0700005H3.30998V0.35H3.29998Z" fill="black"/>
<path d="M4.60977 0.0200005L4.87977 0.720001H4.80977L4.72977 0.5H4.40977L4.32977 0.720001H4.25977L4.53977 0.0200005H4.60977ZM4.42977 0.44H4.69977L4.55977 0.0700005L4.41977 0.44H4.42977Z" fill="black"/>
<path d="M5.90996 0.0200005V0.0700005H5.51996V0.720001H5.45996V0.0200005H5.90996Z" fill="black"/>
<path d="M6.95023 0.0200005V0.0700005H6.56023V0.32H6.92023V0.38H6.56023V0.660001H6.96023V0.720001H6.49023V0.0200005H6.95023Z" fill="black"/>
<path d="M7.63982 0.32H8.04982V0.0200005H8.11982V0.720001H8.04982V0.38H7.63982V0.720001H7.56982V0.0200005H7.63982V0.32Z" fill="black"/>
<path d="M8.9802 0.720001H8.9202V0.0700005H8.7002V0.0200005H9.2102V0.0700005H8.9802V0.720001Z" fill="black"/>
<path d="M10.29 0.22C10.26 0.0999998 10.19 0.0499998 10.07 0.0499998C9.90002 0.0499998 9.83002 0.19 9.83002 0.36C9.83002 0.52 9.89002 0.67 10.08 0.67C10.2 0.67 10.28 0.59 10.3 0.48H10.37C10.34 0.62 10.25 0.73 10.07 0.73C9.85002 0.73 9.77002 0.56 9.77002 0.36C9.77002 0.0899998 9.91002 -0.0100002 10.1 -0.0100002C10.24 -0.0100002 10.35 0.0699998 10.37 0.21H10.3L10.29 0.22Z" fill="black"/>
<path d="M11.1999 0.720001H11.1399V0.0700005H10.9199V0.0200005H11.4199V0.0700005H11.1999V0.720001Z" fill="black"/>
<path d="M12.01 0.0200005H12.26C12.42 0.0200005 12.49 0.0900005 12.49 0.2C12.49 0.3 12.43 0.34 12.38 0.35C12.48 0.37 12.52 0.43 12.52 0.53C12.52 0.68 12.42 0.73 12.29 0.73H12V0.0200005H12.01ZM12.08 0.33H12.25C12.39 0.33 12.43 0.28 12.43 0.2C12.43 0.12 12.38 0.0800005 12.23 0.0800005H12.08V0.33ZM12.08 0.660001H12.25C12.4 0.660001 12.46 0.64 12.46 0.52C12.46 0.4 12.38 0.38 12.25 0.38H12.07V0.660001H12.08Z" fill="black"/>
<path d="M13.4301 0C13.6501 0 13.7601 0.16 13.7601 0.37C13.7601 0.58 13.6501 0.74 13.4301 0.74C13.2101 0.74 13.1001 0.57 13.1001 0.37C13.1001 0.17 13.2201 0 13.4301 0ZM13.6901 0.37C13.6901 0.18 13.5901 0.06 13.4301 0.06C13.2501 0.06 13.1701 0.21 13.1701 0.37C13.1701 0.53 13.2501 0.68 13.4301 0.68C13.6101 0.68 13.6901 0.53 13.6901 0.37Z" fill="black"/>
<path d="M9.03994 5.45C9.22994 5.51 9.42994 5.54 9.63994 5.54C9.84994 5.54 10.0499 5.51 10.2399 5.45C10.3799 5.41 10.5199 5.34 10.6499 5.26C10.9499 5.08 11.1899 4.83 11.3499 4.52L11.4199 4.38L10.7399 4L10.6599 4.15C10.5599 4.34 10.4199 4.49 10.2299 4.61C10.0499 4.72 9.83994 4.78 9.62994 4.78C9.43994 4.78 9.25994 4.74 9.09994 4.66L10.7799 3.18L11.3499 2.68L11.2799 2.56C11.1099 2.29 10.8699 2.08 10.5899 1.92C10.3799 1.8 10.1699 1.73 9.93994 1.69C9.83994 1.67 9.73994 1.67 9.63994 1.67C9.58994 1.67 9.53994 1.67 9.48994 1.67C9.01994 1.7 8.61994 1.89 8.26994 2.23C7.88994 2.61 7.68994 3.07 7.68994 3.61C7.68994 3.92 7.75994 4.21 7.88994 4.47C7.97994 4.65 8.10994 4.82 8.26994 4.98C8.49994 5.21 8.74994 5.37 9.03994 5.46M8.48994 3.43C8.51994 3.18 8.62994 2.97 8.80994 2.78C8.83994 2.75 8.86994 2.72 8.90994 2.69C9.11994 2.52 9.35994 2.44 9.63994 2.44C9.85994 2.44 10.0699 2.5 10.2499 2.61L8.57994 4.1C8.50994 3.95 8.47994 3.78 8.47994 3.61C8.47994 3.55 8.47994 3.49 8.48994 3.43Z" fill="black"/>
<path d="M1.95 1.66C1.46 1.66 1.03 1.83 0.67 2.14C0.64 2.17 0.61 2.19 0.58 2.22C0.2 2.6 0 3.06 0 3.6C0 4.14 0.2 4.59 0.58 4.97C0.84 5.23 1.14 5.4 1.47 5.49C1.62 5.53 1.78 5.55 1.95 5.55C2.12 5.55 2.28 5.53 2.43 5.49C2.47 5.49 2.52 5.47 2.56 5.45C2.58 5.45 2.59 5.44 2.61 5.43C2.84 5.35 3.05 5.22 3.24 5.05L3.84 5.48L3.89 5.52V1.66L3.23 2.15C2.87 1.82 2.44 1.66 1.94 1.66M2.77 4.43C2.59 4.61 2.39 4.71 2.15 4.75C2.08 4.76 2.02 4.77 1.94 4.77C1.61 4.77 1.34 4.66 1.11 4.43C0.88 4.2 0.77 3.92 0.77 3.6C0.77 3.3 0.86 3.05 1.05 2.83C1.07 2.81 1.09 2.79 1.11 2.77C1.34 2.54 1.62 2.43 1.94 2.43C2.26 2.43 2.54 2.54 2.77 2.77C3 3 3.11 3.27 3.11 3.6C3.11 3.93 3 4.2 2.77 4.43Z" fill="black"/>
<path d="M6.55982 5.54H7.33982V3.26C7.33982 2.85 7.19982 2.48 6.89982 2.19C6.60982 1.9 6.23982 1.75 5.82982 1.75C5.45982 1.75 5.13982 1.86 4.85982 2.1L4.31982 1.66V5.54H5.09982V3.26C5.09982 3.06 5.16982 2.89 5.30982 2.74C5.44982 2.6 5.61982 2.53 5.82982 2.53C6.03982 2.53 6.19982 2.6 6.34982 2.74C6.49982 2.88 6.55982 3.06 6.55982 3.26V5.54Z" fill="black"/>
<path d="M14.68 5.55L13.42 3.33L14.37 1.66H13.44L12.96 2.52L12.47 1.66H11.54L12.5 3.33L11.23 5.55H12.15L12.96 4.13L13.76 5.55H14.68Z" fill="black"/>
<path d="M7.33988 6.87V6.11L6.78988 6.35V6.87H6.37988V7.39H6.78988V8.13V8.42C6.78988 8.7 6.88988 8.95 7.08988 9.15C7.09988 9.16 7.11988 9.17 7.12988 9.18L7.22988 9.27L7.57988 8.83L7.48988 8.75C7.38988 8.66 7.34988 8.55 7.34988 8.42V7.39H7.74988V6.87H7.34988H7.33988Z" fill="black"/>
<path d="M9.29979 6.55C9.29979 6.55 9.28979 6.55 9.27979 6.56C9.30979 6.58 9.27979 6.56 9.29979 6.55Z" fill="black"/>
<path d="M10.5899 7.64H10.6199C10.5999 7.58 10.5899 7.53 10.5799 7.48C10.5699 7.43 10.5499 7.38 10.5099 7.34C10.5099 7.31 10.5099 7.26 10.4899 7.24C10.4499 7.22 10.4499 7.2 10.3999 7.2C10.3999 7.19 10.3999 7.17 10.4099 7.16C10.3899 7.12 10.4099 7.06 10.3399 7.05L10.3599 7.03C10.3599 7.03 10.2699 6.99 10.2599 6.94C10.2399 6.94 10.1999 6.92 10.1999 6.95C10.1899 6.95 10.2199 6.92 10.1999 6.92H10.2399C10.1899 6.84 10.1199 6.8 10.0399 6.76C10.0399 6.71 9.96992 6.72 9.93992 6.67C9.89992 6.67 9.86992 6.62 9.82992 6.66V6.64C9.82992 6.64 9.75992 6.6 9.70992 6.57C9.67992 6.55 9.66992 6.59 9.64992 6.59V6.57C9.64992 6.57 9.60992 6.61 9.59992 6.63C9.58992 6.63 9.57992 6.63 9.56992 6.61C9.58992 6.61 9.60992 6.58 9.62992 6.55C9.59992 6.53 9.55992 6.58 9.54992 6.55C9.52992 6.54 9.49992 6.55 9.49992 6.57C9.49992 6.57 9.48992 6.55 9.49992 6.54C9.47992 6.54 9.46992 6.54 9.45992 6.55C9.45992 6.55 9.45992 6.55 9.46992 6.55C9.45992 6.57 9.43992 6.57 9.43992 6.6C9.43992 6.6 9.42992 6.6 9.41992 6.6C9.41992 6.58 9.43992 6.57 9.42992 6.55C9.40992 6.57 9.39992 6.58 9.37992 6.6C9.34992 6.6 9.31992 6.6 9.29992 6.6C9.16992 6.6 9.05992 6.62 8.93992 6.65C8.93992 6.65 9.01992 6.62 9.05992 6.61C9.10992 6.61 9.15992 6.6 9.19992 6.55C9.26992 6.52 9.28992 6.43 9.28992 6.43C9.19992 6.45 9.10992 6.45 9.01992 6.46C8.92992 6.46 8.83992 6.46 8.73992 6.48C8.67992 6.51 8.61992 6.57 8.55992 6.59C8.50992 6.63 8.45992 6.66 8.40992 6.7L8.36992 6.73L8.32992 6.76H8.30992V6.78C8.30992 6.78 8.28992 6.81 8.26992 6.82C8.16992 6.9 8.07992 7.01 8.03992 7.13C8.05992 7.13 8.06992 7.15 8.06992 7.16H8.05992L8.06992 7.19C8.06992 7.21 8.03992 7.19 8.03992 7.17C7.98992 7.27 7.96992 7.36 7.94992 7.45C7.97992 7.46 7.94992 7.5 7.97992 7.51C7.97992 7.51 7.97992 7.51 7.95992 7.51C7.95992 7.58 7.95992 7.58 7.91992 7.64C7.91992 7.66 7.91992 7.67 7.91992 7.69C7.91992 7.71 7.91992 7.73 7.91992 7.74V7.76V7.79V7.84C7.91992 7.91 7.91992 7.97 7.93992 8.04C7.96992 8.17 8.01992 8.3 8.07992 8.42C8.14992 8.54 8.23992 8.64 8.33992 8.73C8.43992 8.81 8.54992 8.89 8.66992 8.96C8.69992 8.95 8.72992 8.96 8.74992 8.96C8.77992 8.96 8.79992 8.97 8.82992 8.96V8.98C8.82992 8.98 8.85992 9 8.90992 9.04C8.90992 9.02 8.92992 9.04 8.92992 9.01C8.94992 8.99 8.94992 9.06 8.97992 9.06C8.97992 9.04 8.97992 9.07 8.97992 9.06C9.01992 9.05 9.00992 9.06 9.00992 9.06C9.00992 9.07 9.00992 9.1 9.03992 9.12C9.15992 9.13 9.28992 9.11 9.39992 9.12C9.39992 9.12 9.38992 9.1 9.39992 9.09C9.40992 9.14 9.43992 9.07 9.45992 9.09C9.45992 9.1 9.45992 9.11 9.44992 9.11C9.49992 9.13 9.53992 9.09 9.58992 9.11C9.60992 9.1 9.62992 9.09 9.65992 9.09C9.68992 9.09 9.70992 9.09 9.71992 9.07C9.71992 9.09 9.74992 9.07 9.75992 9.09C9.75992 9.05 9.78992 9.05 9.81992 9.05C9.84992 9.05 9.86992 9.05 9.88992 9.02C9.94992 9 10.0099 8.97 10.0699 8.94C10.1299 8.9 10.1799 8.86 10.2199 8.8C10.2399 8.77 10.2899 8.75 10.3199 8.73C10.3599 8.71 10.3899 8.68 10.4099 8.64C10.4099 8.62 10.3899 8.62 10.3999 8.61C10.4099 8.6 10.4199 8.62 10.4299 8.62C10.4299 8.57 10.4899 8.55 10.5199 8.5C10.5199 8.49 10.5199 8.48 10.4999 8.47C10.5299 8.46 10.5499 8.43 10.5599 8.39C10.5699 8.36 10.5799 8.32 10.6099 8.3C10.5499 8.3 10.5999 8.26 10.5899 8.23C10.5899 8.23 10.6099 8.23 10.6199 8.23C10.6199 8.19 10.6299 8.16 10.6599 8.12C10.6599 8.09 10.6299 8.08 10.6499 8.06C10.6899 8.06 10.6599 8 10.6799 7.98C10.6499 7.98 10.6199 7.94 10.6399 7.92H10.6899C10.6699 7.84 10.7299 7.72 10.6599 7.62M8.19992 7.97C8.19992 7.97 8.19992 7.98 8.19992 7.99C8.19992 7.99 8.19992 7.99 8.19992 7.98V7.97ZM9.51992 6.6C9.51992 6.6 9.51992 6.6 9.50992 6.6C9.50992 6.6 9.50992 6.6 9.51992 6.6ZM9.38992 6.97C9.58992 6.97 9.77992 7.05 9.91992 7.18C10.0999 7.34 10.2199 7.57 10.2199 7.83C10.2199 7.87 10.2199 7.91 10.2199 7.95C10.2199 7.98 10.2099 8.01 10.1999 8.03C10.1999 8.03 10.1999 8.03 10.1999 8.04C10.1899 8.09 10.1699 8.14 10.1399 8.18C10.1399 8.18 10.1399 8.18 10.1399 8.19C10.1299 8.22 10.1099 8.24 10.0899 8.27C10.0799 8.29 10.0599 8.31 10.0399 8.33C10.0399 8.33 10.0399 8.33 10.0299 8.34C10.0299 8.34 10.0299 8.34 10.0199 8.35C9.99992 8.37 9.97992 8.39 9.95992 8.41C9.95992 8.41 9.94992 8.42 9.93992 8.43C9.93992 8.43 9.93992 8.43 9.92992 8.43C9.77992 8.55 9.58992 8.63 9.37992 8.63C8.89992 8.63 8.51992 8.24 8.51992 7.77C8.51992 7.53 8.61992 7.32 8.76992 7.16C8.83992 7.09 8.91992 7.04 9.00992 6.99C9.02992 6.99 9.04992 6.97 9.06992 6.97C9.08992 6.97 9.10992 6.96 9.12992 6.95C9.13992 6.95 9.15992 6.95 9.16992 6.94C9.16992 6.94 9.16992 6.94 9.17992 6.94C9.23992 6.92 9.30992 6.92 9.37992 6.92C9.38992 6.92 9.39992 6.92 9.40992 6.92L9.38992 6.97ZM8.94992 6.64C8.94992 6.64 8.96992 6.64 8.97992 6.66C8.97992 6.66 8.93992 6.67 8.91992 6.68C8.92992 6.67 8.94992 6.65 8.95992 6.64H8.94992ZM8.42992 7.01C8.42992 7.01 8.42992 7.01 8.43992 7.03C8.43992 7 8.46992 6.99 8.48992 6.97C8.50992 6.96 8.52992 6.94 8.50992 6.9V6.87C8.50992 6.87 8.52992 6.89 8.53992 6.89C8.53992 6.87 8.56992 6.85 8.55992 6.83C8.56992 6.83 8.55992 6.84 8.57992 6.85C8.59992 6.84 8.58992 6.79 8.61992 6.78V6.8C8.67992 6.79 8.73992 6.77 8.78992 6.75C8.69992 6.8 8.61992 6.86 8.54992 6.94C8.49992 6.99 8.45992 7.04 8.41992 7.09C8.42992 7.06 8.43992 7.04 8.44992 7.01H8.42992ZM8.30992 7.25C8.30992 7.25 8.30992 7.25 8.29992 7.24C8.29992 7.24 8.30992 7.24 8.31992 7.24L8.30992 7.25ZM8.20992 7.54C8.20992 7.54 8.20992 7.55 8.20992 7.56C8.20992 7.56 8.20992 7.55 8.20992 7.54ZM8.19992 7.91V7.93C8.19992 7.93 8.19992 7.91 8.18992 7.91H8.19992ZM8.19992 8.02C8.19992 8.02 8.19992 8.02 8.20992 8.02C8.20992 8.02 8.20992 8.02 8.20992 8.03C8.20992 8.03 8.20992 8.03 8.19992 8.03V8.02ZM8.23992 8.14C8.23992 8.14 8.23992 8.15 8.23992 8.16C8.22992 8.16 8.21992 8.16 8.21992 8.14H8.23992ZM8.35992 8.38C8.35992 8.38 8.35992 8.37 8.35992 8.36C8.35992 8.36 8.35992 8.37 8.35992 8.38ZM8.44992 8.55C8.44992 8.55 8.40992 8.52 8.39992 8.51C8.40992 8.49 8.39992 8.51 8.41992 8.51V8.48C8.41992 8.48 8.42992 8.48 8.43992 8.48C8.45992 8.5 8.46992 8.52 8.48992 8.54C8.46992 8.54 8.45992 8.54 8.44992 8.54V8.55Z" fill="black"/>
<path d="M9.33984 6.54C9.33984 6.54 9.33984 6.58 9.33984 6.6C9.35984 6.58 9.33984 6.56 9.33984 6.54Z" fill="black"/>
<path d="M9.07992 7C9.07992 7 9.07992 7 9.06992 7C9.05992 7 9.03992 7 9.02992 7.01C9.00992 7.01 8.98992 7.02 8.96992 7.03C8.94992 7.03 8.92992 7.05 8.90992 7.05C8.81992 7.09 8.73992 7.15 8.66992 7.22C8.50992 7.38 8.41992 7.59 8.41992 7.83C8.41992 8.31 8.80992 8.69 9.27992 8.69C9.48992 8.69 9.67992 8.62 9.82992 8.49C9.82992 8.49 9.82992 8.49 9.83992 8.49C9.83992 8.49 9.84992 8.48 9.85992 8.47C9.87992 8.45 9.89992 8.43 9.91992 8.41C9.91992 8.41 9.91992 8.41 9.92992 8.4C9.92992 8.4 9.92992 8.4 9.93992 8.39C9.95992 8.37 9.96992 8.35 9.98992 8.33C10.0099 8.3 10.0199 8.28 10.0399 8.25C10.0399 8.25 10.0399 8.25 10.0399 8.24C10.0599 8.19 10.0799 8.15 10.0999 8.1C10.0999 8.1 10.0999 8.1 10.0999 8.09C10.0999 8.06 10.1099 8.03 10.1199 8.01C10.1199 7.97 10.1199 7.93 10.1199 7.89C10.1199 7.63 9.99992 7.4 9.81992 7.24C9.67992 7.12 9.48992 7.04 9.28992 7.03C9.27992 7.03 9.26992 7.03 9.25992 7.03C9.18992 7.03 9.11992 7.03 9.05992 7.05" fill="white"/>
<path d="M14.2499 6.48C13.9899 6.48 13.7599 6.56 13.5699 6.73L13.1899 6.42V9.15H13.7399V7.54C13.7399 7.4 13.7899 7.28 13.8899 7.18C13.9899 7.08 14.1099 7.03 14.2499 7.03C14.3199 7.03 14.3799 7.04 14.4299 7.06L14.6799 6.57C14.5499 6.51 14.3999 6.48 14.2499 6.48Z" fill="black"/>
<path d="M11.3498 6.47H10.7998V8.08C10.7998 8.37 10.8998 8.63 11.1098 8.83C11.3198 9.04 11.5698 9.14 11.8698 9.14C12.1298 9.14 12.3598 9.06 12.5498 8.89L12.9298 9.2V6.47H12.3798V8.08C12.3798 8.22 12.3298 8.34 12.2298 8.44C12.1298 8.54 12.0098 8.59 11.8698 8.59C11.7298 8.59 11.6098 8.54 11.4998 8.44C11.3998 8.34 11.3498 8.21 11.3498 8.07V6.46V6.47Z" fill="black"/>
</g>
<defs>
<clipPath id="clip0_3790_6433">
<rect width="14.69" height="9.27" fill="white"/>
</clipPath>
</defs>
</svg>
