<svg width="35" height="10" viewBox="0 0 35 10" fill="none" xmlns="http://www.w3.org/2000/svg">

    <path
        d="M4.37938 0.707947H4.37819C4.0616 0.708388 3.80425 0.96113 3.80469 1.27136C3.80528 1.58027 4.0631 1.83198 4.37922 1.83198C4.69641 1.83139 4.95469 1.57865 4.95422 1.26886C4.95363 0.959659 4.69566 0.707947 4.37938 0.707947Z"
        fill="black" />
    <path
        d="M4.37938 6.6805H4.37819C4.0616 6.68094 3.80425 6.93355 3.80469 7.24376C3.80528 7.55283 4.0631 7.80454 4.37922 7.80454C4.69641 7.80394 4.95469 7.55135 4.95422 7.24127C4.95363 6.93222 4.69566 6.6805 4.37938 6.6805Z"
        fill="black" />
    <path
        d="M6.54717 1.41211H6.54536C6.11918 1.41285 5.77269 1.75292 5.77344 2.17048C5.77419 2.58716 6.12115 2.92591 6.54686 2.92591C6.9744 2.92518 7.3218 2.58511 7.32119 2.16754C7.32059 1.75101 6.97304 1.41211 6.54717 1.41211Z"
        fill="black" />
    <path
        d="M6.54717 5.58789H6.54536C6.11918 5.58849 5.77269 5.92885 5.77344 6.34643C5.77419 6.76294 6.12115 7.1017 6.54686 7.1017C6.9744 7.10112 7.3218 6.76074 7.32119 6.34334C7.32059 5.9268 6.97304 5.58789 6.54717 5.58789Z"
        fill="black" />
    <path
        d="M1.65964 4.24376C1.65964 4.4271 1.50781 4.57574 1.3202 4.57574C1.1326 4.57574 0.980469 4.4271 0.980469 4.24376C0.980469 4.06027 1.1326 3.91162 1.3202 3.91162C1.50781 3.91162 1.65964 4.06027 1.65964 4.24376Z"
        fill="black" />
    <path
        d="M2.60323 2.16932C2.60323 2.39325 2.41758 2.57497 2.18849 2.57497C1.95924 2.57497 1.77344 2.39325 1.77344 2.16932C1.77344 1.94525 1.95924 1.76367 2.18849 1.76367C2.41758 1.76367 2.60323 1.94525 2.60323 2.16932Z"
        fill="black" />
    <path
        d="M2.60323 6.34266C2.60323 6.5666 2.41758 6.74832 2.18849 6.74832C1.95924 6.74832 1.77344 6.5666 1.77344 6.34266C1.77344 6.11874 1.95924 5.93701 2.18849 5.93701C2.41758 5.93701 2.60323 6.11874 2.60323 6.34266Z"
        fill="black" />
    <path
        d="M7.42741 3.24658H7.42514C6.86489 3.24762 6.40956 3.69488 6.41016 4.24372C6.41135 4.79111 6.86743 5.23676 7.4271 5.23676C7.98918 5.23559 8.44601 4.78833 8.44526 4.23947C8.4442 3.69192 7.98752 3.24658 7.42741 3.24658Z"
        fill="black" />
    <path
        d="M23.7367 2.33398C22.9535 2.33398 21.7695 2.71757 21.7695 4.21316C21.7695 5.70901 23.0603 6.07953 23.7367 6.07953C24.4133 6.07953 25.7046 5.70901 25.7046 4.21316C25.7046 2.71757 24.5198 2.33398 23.7367 2.33398ZM24.7137 4.20668C24.7137 5.17678 24.1482 5.41701 23.7378 5.41701C23.3271 5.41701 22.761 5.17678 22.7608 4.20668C22.7608 3.2366 23.3602 2.99634 23.7367 2.99634C24.1134 2.99634 24.7137 3.2366 24.7137 4.20668Z"
        fill="black" />
    <path
        d="M20.2239 4.05762L21.7483 2.37325L20.6409 2.37325L19.2433 3.93204V1.28656C19.2433 1.04794 19.0938 0.704475 18.5001 0.711533C18.435 0.712269 18.3635 0.716385 18.2891 0.727266V6.03221H19.2433V4.17744L20.7509 6.0328L21.8379 6.0328L20.2239 4.05762Z"
        fill="black" />
    <path
        d="M28.3091 2.33737C27.7344 2.33737 27.3877 2.53688 27.2362 2.65128V2.6498C27.2159 2.66288 27.1961 2.67598 27.176 2.68966C27.0847 2.51189 26.8844 2.33398 26.4711 2.33398C26.4041 2.33398 26.3304 2.33884 26.2539 2.34957V6.03586H27.2362V3.27467C27.4969 3.02898 28.2216 2.89946 28.5515 3.23131C28.7379 3.41833 28.7749 3.68239 28.7749 3.92955V6.03586H29.7572V3.74839C29.7572 2.81007 29.0171 2.33737 28.3091 2.33737Z"
        fill="black" />
    <path
        d="M12.2785 2.33008C11.3363 2.33008 10.6652 2.76529 10.6652 2.76529L10.9611 3.28504C11.4051 3.0467 12.0638 2.92467 12.4672 3.01377C12.7633 3.07919 12.8884 3.27695 12.9517 3.46161C12.9846 3.55776 12.9772 3.86198 12.9772 3.86198V3.76375C12.4539 3.64849 10.4805 3.39708 10.4805 4.92469C10.4805 5.49369 10.8509 5.95506 11.6512 6.05594C12.1319 6.11637 12.5772 6.01873 12.9772 5.75966C12.9972 5.74674 13.0174 5.73364 13.0372 5.71983C13.1284 5.89759 13.3287 6.07563 13.7421 6.07563C13.8093 6.07563 13.8828 6.07063 13.9594 6.05976V3.58262C13.9594 2.5715 12.9049 2.33008 12.2785 2.33008ZM12.9772 4.31939V5.13464C12.59 5.37166 12.2588 5.41312 12.0662 5.41312C11.842 5.41312 11.4522 5.32784 11.4287 4.8675C11.3875 4.05899 12.4473 4.18029 12.9772 4.29217V4.31939Z"
        fill="black" />
    <path
        d="M15.8301 3.68495C15.4529 3.55984 15.4272 3.41207 15.4627 3.26107C15.5649 2.82468 16.6224 2.97127 17.2095 3.26135L17.4991 2.73794C17.1842 2.53636 16.6238 2.33008 16.0088 2.33008C15.4743 2.33008 14.9859 2.46049 14.7144 2.85997C14.4551 3.24137 14.4934 3.81904 14.9346 4.12985C15.2712 4.36702 15.8988 4.5433 16.3416 4.63578C16.6145 4.69268 16.843 4.80736 16.7732 5.10408C16.6957 5.4337 15.9221 5.68499 14.8763 4.89633L14.5039 5.36842C14.5039 5.36842 15.0831 6.02182 16.0399 6.07535C17.0231 6.13048 17.7488 5.60603 17.6998 4.88559C17.6404 4.01018 16.738 3.98606 15.8301 3.68495Z"
        fill="black" />
    <path
        d="M32.0713 2.33008C31.1294 2.33008 30.458 2.76529 30.458 2.76529L30.754 3.28504C31.198 3.0467 31.8569 2.92467 32.2601 3.01377C32.5563 3.07919 32.6813 3.27695 32.7446 3.46161C32.7775 3.55776 32.77 3.86198 32.77 3.86198V3.76375C32.2469 3.64849 30.2734 3.39708 30.2734 4.92469C30.2734 5.49369 30.6437 5.95506 31.4441 6.05594C31.9249 6.11637 32.3701 6.01873 32.77 5.75966C32.7903 5.74674 32.8101 5.73364 32.8302 5.71983C32.9213 5.89759 33.1215 6.07563 33.535 6.07563C33.6021 6.07563 33.6757 6.07063 33.7523 6.05976V3.58262C33.7523 2.5715 32.6979 2.33008 32.0713 2.33008ZM32.77 4.31939V5.13464C32.3829 5.37166 32.0519 5.41312 31.8594 5.41312C31.6351 5.41312 31.2451 5.32784 31.2216 4.8675C31.1805 4.05899 32.2402 4.18029 32.77 4.29217V4.31939Z"
        fill="black" />
    <path
        d="M15.6234 8.55366C15.5178 8.44808 15.4648 8.31988 15.4648 8.16462C15.4648 8.00964 15.5178 7.88144 15.6234 7.77792C15.7293 7.67237 15.8624 7.62061 16.0212 7.62061C16.2304 7.62061 16.406 7.72618 16.4886 7.89172L16.3342 7.97861C16.2812 7.86894 16.1628 7.7966 16.0212 7.7966C15.9154 7.7966 15.8265 7.83173 15.7547 7.90202C15.6848 7.97244 15.6488 8.05933 15.6488 8.16462C15.6488 8.26827 15.6848 8.35501 15.7547 8.42543C15.8265 8.49572 15.9154 8.53101 16.0212 8.53101C16.1628 8.53101 16.2812 8.46059 16.3405 8.35089L16.497 8.43999C16.406 8.60334 16.2262 8.70892 16.0212 8.70892C15.8624 8.70892 15.7293 8.65716 15.6234 8.55366Z"
        fill="black" />
    <path d="M17.6345 7.64697V8.68116H17.4505V7.81855H16.9027V8.68116H16.7188V7.64697H17.6345Z" fill="black" />
    <path d="M18.7247 7.6468H18.8728V8.681H18.6909V7.95497L18.1049 8.681H17.957V7.6468H18.1389V8.37283L18.7247 7.6468Z"
        fill="black" />
    <path d="M19.9834 7.64697V7.82076H19.6238V8.68116H19.4398V7.82076H19.0781V7.64697H19.9834Z" fill="black" />
    <path
        d="M20.2702 8.24739C20.3062 8.43145 20.4521 8.53908 20.653 8.53908C20.7926 8.53908 20.8941 8.48939 20.9577 8.38794L21.1142 8.47499C21.0105 8.6301 20.8561 8.70876 20.6489 8.70876C20.4817 8.70876 20.3442 8.657 20.2385 8.55571C20.1349 8.45218 20.082 8.32178 20.082 8.1646C20.082 8.00949 20.1327 7.87908 20.2364 7.77571C20.34 7.67221 20.4733 7.62061 20.6361 7.62061C20.7905 7.62061 20.9174 7.67442 21.0148 7.78189C21.1142 7.88746 21.1627 8.01566 21.1627 8.1668C21.1627 8.19358 21.1606 8.22048 21.1564 8.24739H20.2702ZM20.2702 8.09021H20.9766C20.9449 7.89364 20.8054 7.79027 20.6361 7.79027C20.4394 7.79027 20.302 7.90819 20.2702 8.09021Z"
        fill="black" />
    <path d="M21.6086 8.46826L21.4711 8.97094H21.3125L21.3971 8.46826H21.6086Z" fill="black" />
    <path
        d="M23.1482 7.64697H23.3323V8.68116H23.1482V8.30889C23.0637 8.34402 22.9684 8.3627 22.8628 8.3627C22.5919 8.3627 22.4375 8.23655 22.4375 7.99027V7.64697H22.6216V7.97999C22.6216 8.1351 22.7082 8.19524 22.8753 8.19524C22.9748 8.19524 23.0657 8.17656 23.1482 8.14128V7.64697Z"
        fill="black" />
    <path d="M24.4403 7.64648V7.82027H24.0808V8.68068H23.8968V7.82027H23.5352V7.64648H24.4403Z" fill="black" />
    <path
        d="M25.0992 8.70895C24.9448 8.70895 24.8116 8.65719 24.7037 8.55177C24.5959 8.44619 24.543 8.31799 24.543 8.16478C24.543 8.01172 24.5959 7.88352 24.7037 7.77795C24.8116 7.6724 24.9448 7.62079 25.0992 7.62079C25.2536 7.62079 25.387 7.6724 25.4948 7.77795C25.6027 7.88352 25.6576 8.01172 25.6576 8.16478C25.6576 8.31799 25.6027 8.44619 25.4948 8.55177C25.387 8.65719 25.2538 8.70895 25.0992 8.70895ZM25.3658 8.42753C25.4379 8.35709 25.4737 8.27035 25.4737 8.16478C25.4737 8.05936 25.4379 7.97247 25.3658 7.9022C25.2939 7.83176 25.2053 7.79663 25.0994 7.79663C24.9957 7.79663 24.9069 7.83176 24.835 7.9022C24.7631 7.97247 24.7271 8.05936 24.7271 8.16478C24.7271 8.27035 24.7631 8.35709 24.835 8.42753C24.9069 8.49795 24.9957 8.53309 25.0994 8.53309C25.2053 8.53309 25.2939 8.49795 25.3658 8.42753Z"
        fill="black" />
    <path
        d="M26.0118 8.55775C25.9103 8.45645 25.8594 8.3281 25.8594 8.16871C25.8594 7.99303 25.885 7.85642 25.9379 7.7613C25.9906 7.66618 26.1006 7.57929 26.2634 7.50267C26.293 7.48827 26.3331 7.47166 26.384 7.44886L26.4983 7.39933C26.5786 7.35992 26.6696 7.29375 26.678 7.20068L26.826 7.28345C26.8176 7.32683 26.8048 7.36417 26.7773 7.39933C26.7521 7.43241 26.7413 7.45298 26.6928 7.48401C26.6485 7.51105 26.6421 7.51915 26.5808 7.54621C26.5512 7.56061 26.5298 7.56884 26.5195 7.57501L26.4495 7.60412L26.3818 7.6309C26.1895 7.71161 26.1154 7.78395 26.0753 7.91024C26.1662 7.80071 26.3121 7.7488 26.4473 7.7488C26.5808 7.7488 26.6928 7.79233 26.7839 7.88128C26.877 7.97022 26.9233 8.08402 26.9233 8.22268C26.9233 8.36339 26.8748 8.4791 26.7753 8.57231C26.6758 8.66332 26.5512 8.70876 26.3988 8.70876C26.2422 8.70876 26.1132 8.65907 26.0118 8.55775ZM26.4052 7.90819C26.3141 7.90819 26.2339 7.93714 26.1598 7.99303C26.0879 8.04889 26.0519 8.12123 26.0519 8.21225C26.0519 8.30532 26.0857 8.38396 26.1514 8.44395C26.2169 8.50394 26.2994 8.53497 26.3988 8.53497C26.4983 8.53497 26.5786 8.50601 26.6421 8.44602C26.7076 8.38604 26.7393 8.31149 26.7393 8.22268C26.7393 8.03859 26.6059 7.90819 26.4052 7.90819Z"
        fill="black" />
    <path
        d="M27.6063 8.01938C27.7122 8.01938 27.7988 8.05026 27.8685 8.11232C27.9385 8.17244 27.9744 8.25302 27.9744 8.35035C27.9744 8.44754 27.9385 8.52811 27.8685 8.59015C27.7988 8.65029 27.7122 8.68132 27.6063 8.68132H27.1602V7.64697H27.3441V8.01938H27.6063ZM27.6063 8.51371C27.71 8.51371 27.7927 8.44959 27.7927 8.35035C27.7927 8.25111 27.71 8.18494 27.6063 8.18494H27.3441V8.51371H27.6063ZM28.1118 7.64697H28.296V8.68116H28.1118V7.64697Z"
        fill="black" />
    <path
        d="M30.4921 8.68119H30.2764L29.8809 8.19099V8.68119H29.699V8.19099L29.3036 8.68119H29.0898L29.5318 8.14747L29.1108 7.64697H29.3245L29.699 8.10409V7.64697H29.8809V8.10409L30.2552 7.64697H30.4709L30.0479 8.14747L30.4921 8.68119Z"
        fill="black" />
    <path
        d="M31.4747 7.64697H31.6227V8.68116H31.4408V7.95514L30.8548 8.68116H30.707V7.64697H30.8888V8.373L31.4747 7.64697Z"
        fill="black" />
    <path d="M32.7335 7.64697V7.82076H32.374V8.68116H32.1898V7.82076H31.8281V7.64697H32.7335Z" fill="black" />
    <path
        d="M33.38 8.01938C33.4858 8.01938 33.5723 8.05041 33.6422 8.11245C33.7119 8.17244 33.7478 8.25316 33.7478 8.35035C33.7478 8.44754 33.7119 8.52826 33.6422 8.5903C33.5723 8.65029 33.4858 8.68132 33.38 8.68132H32.9336V7.64697H33.1175V8.01938H33.38ZM33.38 8.51371C33.4834 8.51371 33.5661 8.44959 33.5661 8.35035C33.5661 8.25111 33.4834 8.18494 33.38 8.18494H33.1175V8.51371H33.38Z"
        fill="black" />

</svg>