<svg width="8" height="16" viewBox="0 0 8 16" fill="none" xmlns="http://www.w3.org/2000/svg">
<g clip-path="url(#clip0_3790_6915)">
<path d="M7.26009 11.5967L7.26009 12.0567L6.55009 11.8567L6.55009 11.7967L7.26009 11.5967ZM6.34009 11.7267L6.34009 12.0067L8.00009 12.4967L8.00009 12.3367C8.00009 12.2867 7.97009 12.2467 7.92009 12.2367L7.47009 12.1167L7.47009 11.5467L8.00009 11.3967L8.00009 11.1667L6.43009 11.6267C6.37009 11.6467 6.35009 11.6767 6.35009 11.7367" fill="black"/>
<path d="M6.4901 10.5868C6.4901 10.5868 6.5501 10.5668 6.5501 10.5268L6.5501 10.1368L7.9901 10.1368L7.9901 9.97679C7.9901 9.97679 7.9701 9.91679 7.9301 9.91679L6.5601 9.91679L6.5601 9.52679C6.5601 9.52679 6.5401 9.46679 6.5001 9.46679L6.3501 9.46679L6.3501 10.5868L6.5001 10.5868L6.4901 10.5868Z" fill="black"/>
<path d="M7.16006 7.57678C7.58006 7.57678 7.79006 7.72678 7.79006 8.02678C7.79006 8.32678 7.58006 8.47678 7.16006 8.47678C6.74006 8.47678 6.53006 8.32678 6.53006 8.02678C6.53006 7.72678 6.74006 7.57678 7.16006 7.57678ZM6.31006 8.02678C6.31006 8.46678 6.60006 8.69678 7.16006 8.69678C7.72006 8.69678 8.01006 8.46678 8.01006 8.02678C8.01006 7.71678 7.86006 7.35678 7.16006 7.35678C6.46006 7.35678 6.31006 7.71678 6.31006 8.02678Z" fill="black"/>
<path d="M6.45009 5.4467L7.43009 5.7767L7.47009 5.7767L7.43009 5.7967L6.42009 6.1667C6.36009 6.1967 6.34009 6.2367 6.34009 6.2667L6.34009 6.4967L8.00009 6.4967L8.00009 6.3367C8.00009 6.3367 7.98009 6.2767 7.94009 6.2767L6.66009 6.2767L6.73009 6.2567L7.78009 5.8767L7.78009 5.7767C7.78009 5.7267 7.75009 5.6867 7.70009 5.6667L6.72009 5.3367L6.65009 5.3167L7.99009 5.3167L7.99009 5.1567C7.99009 5.1567 7.97009 5.0967 7.93009 5.0967L6.34009 5.0967L6.34009 5.3067C6.34009 5.3867 6.37009 5.4267 6.45009 5.4567" fill="black"/>
<path d="M6.33008 3.1567C6.33008 3.2367 6.35008 3.2667 6.43008 3.2967L7.10008 3.6267L6.34008 3.9967L6.34008 4.2467L7.35008 3.7367L7.99008 3.7367L7.99008 3.5667C7.99008 3.5667 7.99008 3.5067 7.93008 3.5067L7.48008 3.5067C7.39008 3.5067 7.33008 3.4967 7.26008 3.4567L6.34008 2.9967L6.34008 3.1467L6.33008 3.1567Z" fill="black"/>
<path d="M2.46013 13.7367C2.46013 13.0867 3.13013 12.8567 3.70013 12.8567C4.27013 12.8567 4.94013 13.0867 4.94013 13.7367C4.94013 14.3867 4.27013 14.6167 3.70013 14.6167C3.13013 14.6167 2.46013 14.3867 2.46013 13.7367ZM5.47013 13.7267C5.47013 12.9967 4.94013 12.8267 4.94013 12.8267L5.23013 12.8267C5.39013 12.8267 5.47013 12.7067 5.47013 12.5767C5.47013 12.4767 5.42013 12.3267 5.23013 12.3267L2.14013 12.3267C1.94013 12.3267 1.89013 12.4767 1.89013 12.5767C1.89013 12.6867 1.94013 12.8267 2.14013 12.8267L2.35013 12.8267C2.35013 12.8267 1.88013 13.0567 1.88013 13.7267C1.88013 14.6467 2.74013 15.1667 3.67013 15.1667C4.60013 15.1667 5.46013 14.6467 5.46013 13.7267" fill="black"/>
<path d="M2.38011 11.8767L2.38011 11.4867L5.22011 11.4867C5.36011 11.4867 5.46011 11.3767 5.46011 11.2167C5.46011 11.0567 5.36011 10.9467 5.22011 10.9467L2.38011 10.9467L2.38011 10.5567C2.38011 10.3767 2.29011 10.2867 2.13011 10.2867C1.97011 10.2867 1.88011 10.3767 1.88011 10.5567L1.88011 10.9467L1.13011 10.9467C1.01011 10.9467 0.860107 10.9667 0.860107 11.2167C0.860107 11.4467 1.01011 11.4867 1.13011 11.4867L1.88011 11.4867L1.88011 11.8767C1.88011 12.0567 1.97011 12.1467 2.13011 12.1467C2.29011 12.1467 2.38011 12.0567 2.38011 11.8767Z" fill="black"/>
<path d="M2.42013 9.07672C2.42013 8.41672 3.10013 8.17672 3.68013 8.17672C4.26013 8.17672 4.95013 8.40672 4.95013 9.07672C4.95013 9.74672 4.27013 9.97672 3.68013 9.97672C3.09013 9.97672 2.42013 9.74672 2.42013 9.07672ZM5.46013 9.07672C5.46013 8.15672 4.60013 7.63672 3.67013 7.63672C2.74013 7.63672 1.88013 8.15672 1.88013 9.07672C1.88013 9.99672 2.74013 10.5167 3.67013 10.5167C4.60013 10.5167 5.46013 9.99672 5.46013 9.07672Z" fill="black"/>
<path d="M4.95002 0.776725C4.95002 1.46673 4.60002 1.66673 4.56002 1.69673L4.56002 0.836726C4.56002 0.836726 4.58002 0.596726 4.30002 0.596726C4.02002 0.596726 4.04002 0.836726 4.04002 0.836726L4.04002 1.88673L3.86002 1.88673L3.86002 0.826726C3.86002 0.826726 3.88002 0.566725 3.62002 0.566725C3.36002 0.566725 3.37002 0.826726 3.37002 0.826726L3.37002 1.88673L3.21002 1.88673L3.21002 0.956726C3.21002 0.956726 3.23002 0.716726 2.98002 0.716726C2.73002 0.716726 2.75002 0.956726 2.75002 0.956726L2.75002 1.88673L2.58002 1.88673L2.58002 0.726726C2.58002 0.726726 2.60002 0.486726 2.32002 0.486726C2.04002 0.486726 2.06002 0.726726 2.06002 0.726726L2.06002 1.32673C2.06002 1.32673 1.80002 1.06673 1.64002 1.24673C1.48002 1.42673 1.67002 1.57673 1.67002 1.57673L2.06002 1.92673L2.06002 2.32673L1.67002 2.68673C1.67002 2.68673 1.48002 2.83673 1.64002 3.01673C1.80002 3.19673 2.06002 2.93673 2.06002 2.93673L2.06002 3.53673C2.06002 3.53673 2.05002 3.77673 2.32002 3.77673C2.59002 3.77673 2.58002 3.53673 2.58002 3.53673L2.58002 2.37673L2.75002 2.37673L2.75002 3.30673C2.75002 3.30673 2.74002 3.54673 2.98002 3.54673C3.22002 3.54673 3.21002 3.30673 3.21002 3.30673L3.21002 2.37673L3.37002 2.37673L3.37002 3.43673C3.37002 3.43673 3.36002 3.69673 3.62002 3.69673C3.88002 3.69673 3.86002 3.43673 3.86002 3.43673L3.86002 2.37673L4.04002 2.37673L4.04002 3.42673C4.04002 3.42673 4.03002 3.66673 4.30002 3.66673C4.57002 3.66673 4.56002 3.42673 4.56002 3.42673L4.56002 2.56673C4.56002 2.56673 4.95002 2.78673 4.95002 3.48673C4.95002 3.77673 5.15002 3.79673 5.27002 3.76673C5.38002 3.74673 5.46002 3.63673 5.45002 3.51673C5.45002 3.51673 5.51002 2.60673 4.83002 2.12673C5.51002 1.64673 5.45002 0.736725 5.45002 0.736725C5.45002 0.626726 5.37002 0.506725 5.27002 0.486725C5.14002 0.466725 4.95002 0.486726 4.95002 0.766726" fill="black"/>
<path d="M2.68013 4.03671C2.20013 4.03671 1.89013 4.49671 1.89013 4.92671C1.89013 5.28671 2.04013 5.59671 2.25013 5.72671C2.04013 5.82671 1.89013 6.07671 1.89013 6.35671C1.89013 6.58671 1.99013 6.79671 2.15013 6.91671C1.96013 6.91671 1.88013 6.98671 1.88013 7.13671C1.88013 7.30671 1.96013 7.37671 2.16013 7.37671L5.21013 7.37671C5.21013 7.37671 5.45013 7.37671 5.45013 7.11671C5.45013 6.84671 5.21013 6.85671 5.21013 6.85671L2.92013 6.85671C2.84013 6.85671 2.53013 6.82671 2.53013 6.40671C2.53013 6.00671 2.77013 5.95671 2.92013 5.95671L5.23013 5.95671C5.23013 5.95671 5.47013 5.95671 5.47013 5.69671C5.47013 5.43671 5.23013 5.43671 5.23013 5.43671L2.92013 5.43671C2.74013 5.43671 2.53013 5.32671 2.53013 4.98671C2.53013 4.57671 2.77013 4.53671 2.92013 4.53671L5.23013 4.53671C5.23013 4.53671 5.47013 4.54671 5.47013 4.27671C5.47013 4.00671 5.23013 4.01671 5.23013 4.01671L2.68013 4.01671L2.68013 4.03671Z" fill="black"/>
</g>
<defs>
<clipPath id="clip0_3790_6915">
<rect width="14.69" height="7.14" fill="white" transform="translate(0.860107 15.1667) rotate(-90)"/>
</clipPath>
</defs>
</svg>
