<svg width="4" height="22" viewBox="0 0 4 22" fill="none" xmlns="http://www.w3.org/2000/svg">
<path d="M3.05742 1.84469L2.29684 1.84469L2.29684 1.69718C2.25919 1.66107 2.21847 1.62996 2.17468 1.60384C2.13089 1.57771 2.07903 1.55505 2.01911 1.53584C1.95841 1.51587 1.88466 1.49897 1.79785 1.48514C1.71026 1.47131 1.60463 1.45902 1.48094 1.44826L0.780273 1.38834L0.780273 0.26359L2.29684 0.26359L2.29684 -0.00837714L3.05742 -0.00837717L3.05742 0.26359L2.55037 0.26359L2.55037 1.57272L3.05742 1.57272L3.05742 1.84469ZM2.29684 1.38834L2.29684 0.535557L1.0338 0.535557L1.0338 1.13481L1.48094 1.1809C1.66609 1.20011 1.82781 1.22393 1.9661 1.25235C2.10439 1.28078 2.21463 1.32611 2.29684 1.38834Z" fill="black"/>
<path d="M3.21425 3.53587L0.780372 3.53587L0.780372 3.27312L1.06156 3.27312L1.06156 3.24085C1.03083 3.22087 0.991646 3.19322 0.944014 3.15788C0.895613 3.12177 0.85259 3.07029 0.814944 3.00345C0.776531 2.93585 0.757324 2.84442 0.757324 2.72918C0.757324 2.58014 0.794585 2.44876 0.869107 2.33506C0.943629 2.22136 1.04927 2.13262 1.18602 2.06885C1.32277 2.00509 1.48411 1.9732 1.67003 1.9732C1.85749 1.9732 2.01998 2.00509 2.1575 2.06885C2.29425 2.13262 2.40027 2.22097 2.47556 2.33391C2.55008 2.44684 2.58734 2.57707 2.58734 2.72457C2.58734 2.83828 2.56852 2.92932 2.53087 2.99769C2.49246 3.06607 2.44905 3.11869 2.40065 3.15557C2.35148 3.19245 2.31077 3.22087 2.2785 3.24085L2.2785 3.2639L3.21425 3.2639L3.21425 3.53587ZM1.66542 3.26851C1.7991 3.26851 1.91703 3.24892 2.01921 3.20973C2.12062 3.17055 2.20013 3.11332 2.25775 3.03803C2.31461 2.96274 2.34303 2.87054 2.34303 2.76145C2.34303 2.64775 2.31307 2.55286 2.25315 2.4768C2.19245 2.39998 2.11102 2.34236 2.00884 2.30395C1.90589 2.26476 1.79141 2.24517 1.66542 2.24517C1.54096 2.24517 1.42879 2.26438 1.32892 2.30279C1.22827 2.34044 1.14876 2.39767 1.09037 2.4745C1.03121 2.55056 1.00163 2.64621 1.00163 2.76145C1.00163 2.87208 1.02968 2.96504 1.08576 3.04033C1.14107 3.11562 1.21867 3.17247 1.31855 3.21089C1.41765 3.2493 1.53328 3.26851 1.66542 3.26851Z" fill="black"/>
<path d="M2.59195 4.7462C2.59195 4.85837 2.57082 4.96016 2.52857 5.05159C2.48555 5.14301 2.4237 5.21561 2.34303 5.26939C2.2616 5.32317 2.16326 5.35006 2.04802 5.35006C1.94661 5.35006 1.8644 5.33008 1.8014 5.29013C1.73764 5.25018 1.6877 5.19679 1.65159 5.12995C1.61548 5.06311 1.58859 4.98936 1.57092 4.90869C1.55248 4.82725 1.53789 4.74543 1.52713 4.66323C1.5133 4.55567 1.50293 4.46847 1.49602 4.40163C1.48833 4.33402 1.47566 4.28485 1.45799 4.25412C1.44032 4.22262 1.40959 4.20687 1.36579 4.20687L1.35657 4.20687C1.24287 4.20687 1.15452 4.23799 1.09152 4.30022C1.02852 4.36168 0.997024 4.45503 0.997024 4.58025C0.997024 4.71009 1.02545 4.81189 1.0823 4.88564C1.13915 4.95939 1.19985 5.01125 1.26438 5.04122L1.17219 5.29935C1.06463 5.25326 0.980891 5.1918 0.920966 5.11497C0.860272 5.03737 0.818017 4.95286 0.794201 4.86144C0.769617 4.76925 0.757324 4.67859 0.757324 4.58947C0.757324 4.53262 0.764239 4.46732 0.778067 4.39356C0.791128 4.31904 0.818401 4.24721 0.859888 4.17806C0.901375 4.10815 0.963989 4.05015 1.04773 4.00405C1.13147 3.95795 1.24364 3.93491 1.38423 3.93491L2.55047 3.93491L2.55047 4.20687L2.31077 4.20687L2.31077 4.2207C2.34918 4.23914 2.39028 4.26987 2.43407 4.3129C2.47786 4.35592 2.51513 4.41315 2.54586 4.4846C2.57659 4.55605 2.59195 4.64325 2.59195 4.7462ZM2.34764 4.70471C2.34764 4.59716 2.32651 4.5065 2.28426 4.43275C2.24201 4.35822 2.18746 4.30214 2.12062 4.2645C2.05378 4.22608 1.98348 4.20687 1.90973 4.20687L1.66081 4.20687C1.67464 4.2184 1.68731 4.24375 1.69884 4.28293C1.70959 4.32135 1.7192 4.36591 1.72765 4.41661C1.73533 4.46655 1.74225 4.51533 1.74839 4.56297C1.75377 4.60983 1.75838 4.64786 1.76222 4.67706C1.77144 4.74774 1.78642 4.81381 1.80716 4.87527C1.82714 4.93596 1.85749 4.98513 1.8982 5.02278C1.93815 5.05965 1.9927 5.07809 2.06185 5.07809C2.15634 5.07809 2.22779 5.04314 2.27619 4.97322C2.32383 4.90254 2.34764 4.81304 2.34764 4.70471Z" fill="black"/>
<path d="M0.780273 5.47483L1.0338 5.47483L1.0338 6.29534L2.55037 6.29534L2.55037 6.56731L0.780273 6.56731L0.780273 5.47483Z" fill="black"/>
<path d="M1.54086 7.17408L1.79439 7.17408L1.79439 8.15132L1.54086 8.15132L1.54086 7.17408ZM0.780273 8.08678L2.55037 8.08678L2.55037 8.35875L0.780273 8.35875L0.780273 8.08678ZM0.780273 6.96665L2.55037 6.96665L2.55037 7.23861L0.780273 7.23861L0.780273 6.96665Z" fill="black"/>
<path d="M2.59195 9.56908C2.59195 9.68125 2.57082 9.78305 2.52857 9.87447C2.48555 9.96589 2.4237 10.0385 2.34303 10.0923C2.2616 10.1461 2.16326 10.1729 2.04802 10.1729C1.94661 10.1729 1.8644 10.153 1.8014 10.113C1.73764 10.0731 1.6877 10.0197 1.65159 9.95283C1.61548 9.88599 1.58859 9.81224 1.57092 9.73157C1.55248 9.65014 1.53789 9.56831 1.52713 9.48611C1.5133 9.37855 1.50293 9.29135 1.49602 9.22451C1.48833 9.15691 1.47566 9.10774 1.45799 9.07701C1.44032 9.04551 1.40959 9.02976 1.36579 9.02976L1.35657 9.02976C1.24287 9.02976 1.15452 9.06087 1.09152 9.1231C1.02852 9.18456 0.997024 9.27791 0.997024 9.40314C0.997024 9.53297 1.02545 9.63477 1.0823 9.70852C1.13915 9.78228 1.19985 9.83414 1.26438 9.8641L1.17219 10.1222C1.06463 10.0761 0.980891 10.0147 0.920966 9.93785C0.860272 9.86026 0.818017 9.77575 0.794201 9.68432C0.769617 9.59213 0.757324 9.50148 0.757324 9.41236C0.757324 9.3555 0.764239 9.2902 0.778067 9.21645C0.791128 9.14192 0.818401 9.07009 0.859888 9.00095C0.901375 8.93104 0.963989 8.87303 1.04773 8.82693C1.13147 8.78084 1.24364 8.75779 1.38423 8.75779L2.55047 8.75779L2.55047 9.02976L2.31077 9.02976L2.31077 9.04359C2.34918 9.06203 2.39028 9.09276 2.43407 9.13578C2.47786 9.1788 2.51513 9.23604 2.54586 9.30749C2.57659 9.37894 2.59195 9.46613 2.59195 9.56908ZM2.34764 9.5276C2.34764 9.42004 2.32651 9.32938 2.28426 9.25563C2.24201 9.18111 2.18746 9.12502 2.12062 9.08738C2.05378 9.04896 1.98348 9.02976 1.90973 9.02976L1.66081 9.02976C1.67464 9.04128 1.68731 9.06664 1.69884 9.10582C1.70959 9.14423 1.7192 9.18879 1.72765 9.2395C1.73533 9.28943 1.74225 9.33822 1.74839 9.38585C1.75377 9.43272 1.75838 9.47074 1.76222 9.49994C1.77144 9.57062 1.78642 9.63669 1.80716 9.69815C1.82714 9.75885 1.85749 9.80801 1.8982 9.84566C1.93815 9.88254 1.9927 9.90098 2.06185 9.90098C2.15634 9.90098 2.22779 9.86602 2.27619 9.79611C2.32383 9.72543 2.34764 9.63592 2.34764 9.5276Z" fill="black"/>
<path d="M2.55037 11.8148L0.780273 11.8148L0.780273 11.0911C0.780273 10.9006 0.823296 10.7493 0.909343 10.6371C0.995389 10.5249 1.10909 10.4688 1.25045 10.4688C1.35801 10.4688 1.44137 10.5007 1.50053 10.5645C1.55891 10.6283 1.59848 10.7101 1.61922 10.81C1.62844 10.7447 1.65149 10.6813 1.68837 10.6198C1.72524 10.5576 1.77595 10.5061 1.84049 10.4654C1.90425 10.4247 1.98262 10.4043 2.07558 10.4043C2.16623 10.4043 2.24728 10.4274 2.31873 10.4735C2.39018 10.5195 2.44665 10.5856 2.48814 10.6717C2.52962 10.7577 2.55037 10.8607 2.55037 10.9805L2.55037 11.8148ZM2.30145 11.5567L2.30145 10.9805C2.30145 10.8868 2.27917 10.8134 2.23461 10.7604C2.19005 10.7074 2.12935 10.6809 2.05253 10.6809C1.9611 10.6809 1.88927 10.7074 1.83703 10.7604C1.78402 10.8134 1.75751 10.8868 1.75751 10.9805L1.75751 11.5567L2.30145 11.5567ZM1.52242 11.5567L1.52242 11.0911C1.52242 11.0182 1.51243 10.9555 1.49246 10.9033C1.47172 10.8511 1.44252 10.8111 1.40488 10.7834C1.36646 10.755 1.32114 10.7408 1.26889 10.7408C1.19437 10.7408 1.13598 10.7719 1.09373 10.8342C1.0507 10.8964 1.02919 10.982 1.02919 11.0911L1.02919 11.5567L1.52242 11.5567Z" fill="black"/>
<path d="M2.55055 13.7768L2.55055 14.0765L0.19043 13.2099L0.19043 12.9148L2.55055 12.0482L2.55055 12.3479L0.563809 13.0531L0.563809 13.0716L2.55055 13.7768ZM1.62863 13.6662L1.62863 12.4585L1.88216 12.4585L1.88216 13.6662L1.62863 13.6662Z" fill="black"/>
<path d="M2.55037 16.3715L0.780273 16.3715L0.780273 16.0996L1.55008 16.0996L1.55008 15.9198L0.780273 15.2837L0.780273 14.9333L1.63305 15.6478L2.55037 14.9241L2.55037 15.2744L1.80361 15.8553L1.80361 16.0996L2.55037 16.0996L2.55037 16.3715Z" fill="black"/>
<path d="M1.54086 16.9783L1.79439 16.9783L1.79439 17.9555L1.54086 17.9555L1.54086 16.9783ZM0.780273 17.891L2.55037 17.891L2.55037 18.163L0.780273 18.163L0.780273 17.891ZM0.780273 16.7709L2.55037 16.7709L2.55037 17.0428L0.780273 17.0428L0.780273 16.7709Z" fill="black"/>
<path d="M2.59195 19.3733C2.59195 19.4855 2.57082 19.5873 2.52857 19.6787C2.48555 19.7701 2.4237 19.8427 2.34303 19.8965C2.2616 19.9503 2.16326 19.9772 2.04802 19.9772C1.94661 19.9772 1.8644 19.9572 1.8014 19.9172C1.73764 19.8773 1.6877 19.8239 1.65159 19.757C1.61548 19.6902 1.58859 19.6165 1.57092 19.5358C1.55248 19.4544 1.53789 19.3725 1.52713 19.2903C1.5133 19.1828 1.50293 19.0956 1.49602 19.0287C1.48833 18.9611 1.47566 18.912 1.45799 18.8812C1.44032 18.8497 1.40959 18.834 1.36579 18.834L1.35657 18.834C1.24287 18.834 1.15452 18.8651 1.09152 18.9273C1.02852 18.9888 0.997024 19.0821 0.997024 19.2074C0.997024 19.3372 1.02545 19.439 1.0823 19.5127C1.13915 19.5865 1.19985 19.6384 1.26438 19.6683L1.17219 19.9265C1.06463 19.8804 0.980891 19.8189 0.920966 19.7421C0.860272 19.6645 0.818017 19.58 0.794201 19.4885C0.769617 19.3963 0.757324 19.3057 0.757324 19.2166C0.757324 19.1597 0.764239 19.0944 0.778067 19.0207C0.791128 18.9461 0.818401 18.8743 0.859888 18.8052C0.901375 18.7352 0.963989 18.6772 1.04773 18.6311C1.13147 18.5851 1.24364 18.562 1.38423 18.562L2.55047 18.562L2.55047 18.834L2.31077 18.834L2.31077 18.8478C2.34918 18.8662 2.39028 18.897 2.43407 18.94C2.47786 18.983 2.51513 19.0403 2.54586 19.1117C2.57659 19.1832 2.59195 19.2703 2.59195 19.3733ZM2.34764 19.3318C2.34764 19.2243 2.32651 19.1336 2.28426 19.0598C2.24201 18.9853 2.18746 18.9292 2.12062 18.8916C2.05378 18.8532 1.98348 18.834 1.90973 18.834L1.66081 18.834C1.67464 18.8455 1.68731 18.8708 1.69884 18.91C1.70959 18.9484 1.7192 18.993 1.72765 19.0437C1.73533 19.0936 1.74225 19.1424 1.74839 19.1901C1.75377 19.2369 1.75838 19.275 1.76222 19.3042C1.77144 19.3748 1.78642 19.4409 1.80716 19.5024C1.82714 19.5631 1.85749 19.6122 1.8982 19.6499C1.93815 19.6868 1.9927 19.7052 2.06185 19.7052C2.15634 19.7052 2.22779 19.6702 2.27619 19.6003C2.32383 19.5296 2.34764 19.4401 2.34764 19.3318Z" fill="black"/>
<path d="M2.55055 21.8991L0.19043 21.8991L0.19043 20.4747L0.443959 20.4747L0.443959 21.6133L1.1815 21.6133L1.1815 21.0141C1.1815 20.845 1.20916 20.7025 1.26447 20.5865C1.31979 20.4697 1.39777 20.3814 1.49841 20.3215C1.59905 20.2608 1.71775 20.2304 1.8545 20.2304C1.99125 20.2304 2.11187 20.2608 2.21636 20.3215C2.32084 20.3814 2.40266 20.4697 2.46182 20.5865C2.52098 20.7025 2.55055 20.845 2.55055 21.0141L2.55055 21.8991ZM2.30163 21.6133L2.30163 21.0141C2.30163 20.9065 2.28012 20.8155 2.2371 20.7409C2.19331 20.6657 2.13723 20.6088 2.06885 20.5704C1.9997 20.5312 1.92672 20.5116 1.84989 20.5116C1.73696 20.5116 1.63977 20.555 1.55833 20.6418C1.47613 20.7286 1.43503 20.8527 1.43503 21.0141L1.43503 21.6133L2.30163 21.6133Z" fill="black"/>
</svg>
