<svg width="20" height="3" viewBox="0 0 20 3" fill="none" xmlns="http://www.w3.org/2000/svg">
<g clip-path="url(#clip0_3790_7081)">
<path d="M5.84539 2.34234C5.84539 2.34234 5.81539 2.36234 5.79539 2.36234C5.77539 2.36234 5.77539 2.33234 5.77539 2.31234L6.57539 0.672344C6.57539 0.672344 6.60539 0.652344 6.62539 0.652344C6.62539 0.652344 6.63539 0.652344 6.64539 0.672344L7.61539 2.53234C7.61539 2.53234 7.61539 2.57234 7.60539 2.58234C7.58539 2.58234 7.56539 2.58234 7.55539 2.57234L6.60539 0.772344L5.84539 2.35234V2.34234Z" fill="black"/>
<path d="M6.1052 1.75238C6.1052 1.75238 6.0752 1.73238 6.0752 1.72238C6.0752 1.71238 6.0952 1.69238 6.1052 1.69238H6.9452C6.9452 1.69238 6.97519 1.71238 6.97519 1.72238C6.97519 1.73238 6.9552 1.75238 6.9452 1.75238H6.1052Z" fill="black"/>
<path d="M6.68506 0.652417C6.68506 0.652417 6.68506 0.612417 6.69506 0.602417C6.71506 0.602417 6.73506 0.602417 6.74506 0.612417L7.71506 2.47242C7.71506 2.47242 7.71506 2.51242 7.70506 2.52242C7.68506 2.52242 7.66506 2.52242 7.65506 2.51242L6.68506 0.652417Z" fill="black"/>
<path d="M10.5353 2.65233C10.5353 2.65233 10.5053 2.67233 10.4853 2.67233C10.4653 2.67233 10.4653 2.64233 10.4653 2.62233L11.4453 0.662334C11.4453 0.662334 11.4753 0.642334 11.4953 0.642334C11.4953 0.642334 11.5053 0.642334 11.5153 0.662334L12.3653 2.28233C12.3653 2.28233 12.3653 2.32233 12.3553 2.33233C12.3353 2.33233 12.3153 2.33233 12.3053 2.32233L11.4853 0.752334L10.5453 2.65233H10.5353Z" fill="black"/>
<path d="M11.5552 0.642407C11.5552 0.642407 11.5552 0.602407 11.5652 0.592407C11.5852 0.592407 11.6052 0.592407 11.6152 0.602407L12.4752 2.25241C12.4752 2.25241 12.4752 2.29241 12.4652 2.30241C12.4452 2.30241 12.4252 2.30241 12.4152 2.29241L11.5552 0.642407Z" fill="black"/>
<path d="M12.8252 0.702314C12.8252 0.702314 12.7952 0.692314 12.7852 0.672314C12.7852 0.652314 12.7952 0.642314 12.8152 0.632314C12.8152 0.632314 13.3052 0.602314 13.6552 0.672314C13.9452 0.732314 14.2652 0.672314 14.3952 0.632314C14.4152 0.632314 14.4352 0.632314 14.4452 0.622314C14.4652 0.622314 14.4852 0.622314 14.4852 0.652314C14.4852 0.672314 14.4852 0.692314 14.4552 0.692314C14.4452 0.692314 14.4252 0.692314 14.4052 0.692314C14.2652 0.722314 13.9352 0.792314 13.6352 0.732314C13.2952 0.662314 12.8152 0.692314 12.8152 0.692314L12.8252 0.702314Z" fill="black"/>
<path d="M13.585 0.752412C13.585 0.752412 13.605 0.722412 13.615 0.722412C13.625 0.722412 13.645 0.742412 13.645 0.752412V2.42241C13.645 2.42241 13.625 2.45241 13.615 2.45241C13.605 2.45241 13.585 2.43241 13.585 2.42241V0.752412Z" fill="black"/>
<path d="M13.7051 0.792329C13.7051 0.792329 13.7251 0.762329 13.7351 0.762329C13.7451 0.762329 13.7651 0.782329 13.7651 0.792329V2.46233C13.7651 2.46233 13.7451 2.49233 13.7351 2.49233C13.7251 2.49233 13.7051 2.47233 13.7051 2.46233V0.792329Z" fill="black"/>
<path d="M16.9254 2.60232C16.9254 2.60232 16.9254 2.64232 16.9054 2.65232C16.8854 2.65232 16.8654 2.65232 16.8554 2.63232L15.9154 0.732324L15.0954 2.30232C15.0954 2.30232 15.0654 2.32232 15.0454 2.31232C15.0254 2.30232 15.0254 2.28232 15.0354 2.26232L15.8854 0.652324C15.8854 0.652324 15.8854 0.642324 15.9054 0.632324C15.9254 0.632324 15.9454 0.632324 15.9554 0.652324L16.9254 2.60232Z" fill="black"/>
<path d="M15.7753 0.6024C15.7753 0.6024 15.8053 0.5824 15.8253 0.5924C15.8453 0.5924 15.8453 0.6224 15.8353 0.6424L14.9753 2.2924C14.9753 2.2924 14.9453 2.3124 14.9253 2.3024C14.9053 2.2924 14.9053 2.2724 14.9153 2.2524L15.7753 0.6024Z" fill="black"/>
<path d="M17.7153 0.622407C17.7153 0.622407 17.7353 0.592407 17.7453 0.592407C17.7553 0.592407 17.7753 0.612407 17.7753 0.622407V2.29241C17.7753 2.29241 17.7553 2.32241 17.7453 2.32241C17.7353 2.32241 17.7153 2.30241 17.7153 2.29241V0.622407Z" fill="black"/>
<path d="M17.835 0.662324C17.835 0.662324 17.855 0.632324 17.865 0.632324C17.875 0.632324 17.895 0.652324 17.895 0.662324V2.33232C17.895 2.33232 17.875 2.36232 17.865 2.36232C17.855 2.36232 17.835 2.34232 17.835 2.33232V0.662324Z" fill="black"/>
<path d="M17.9754 1.54239C17.9754 1.54239 17.9454 1.52239 17.9454 1.51239C17.9454 1.50239 17.9654 1.48239 17.9754 1.48239C18.4154 1.48239 18.7554 1.32239 18.9054 1.14239C18.9554 1.08239 18.9854 1.03239 18.9954 0.972388C18.9954 0.922388 18.9954 0.872388 18.9654 0.832388C18.9054 0.742388 18.7554 0.682388 18.4954 0.672388C17.9254 0.652388 17.8054 0.642388 17.8054 0.642388C17.7854 0.642388 17.7754 0.622388 17.7754 0.602388C17.7754 0.582388 17.7954 0.572388 17.8154 0.572388C17.8154 0.572388 17.9454 0.572388 18.5054 0.602388C18.7854 0.602388 18.9554 0.682388 19.0254 0.792388C19.0654 0.852388 19.0754 0.912388 19.0654 0.982388C19.0554 1.05239 19.0154 1.11239 18.9654 1.18239C18.7954 1.37239 18.4454 1.54239 17.9854 1.54239H17.9754Z" fill="black"/>
<path d="M9.97508 0.872306C9.97508 0.872306 10.0051 0.852306 10.0251 0.852306C10.0451 0.852306 10.0451 0.882306 10.0451 0.902306L9.25508 2.54231C9.25508 2.54231 9.22508 2.56231 9.20508 2.56231C9.20508 2.56231 9.19508 2.56231 9.18508 2.54231L8.20508 0.672306C8.20508 0.672306 8.20508 0.632306 8.21508 0.622306C8.22508 0.612306 8.25508 0.622306 8.26508 0.632306L9.20508 2.43231L9.96508 0.852306L9.97508 0.872306Z" fill="black"/>
<path d="M9.13521 2.56236C9.13521 2.56236 9.13521 2.60236 9.12521 2.61235C9.10521 2.61235 9.08521 2.61235 9.07521 2.60236L8.09521 0.722355C8.09521 0.722355 8.09521 0.682355 8.10521 0.672355C8.11521 0.662355 8.14521 0.672355 8.15521 0.682355L9.12521 2.54236L9.13521 2.56236Z" fill="black"/>
<path d="M18.0152 1.66241C18.0152 1.66241 17.9952 1.63241 18.0152 1.61241C18.0252 1.59241 18.0452 1.59241 18.0652 1.61241L19.4452 2.55241C19.4452 2.55241 19.4652 2.58241 19.4452 2.60241C19.4352 2.62241 19.4152 2.62241 19.3952 2.60241L18.0152 1.66241Z" fill="black"/>
<path d="M1.94518 1.01242C1.87518 1.13242 1.80518 1.24242 1.72518 1.36242C1.65518 1.48242 1.58518 1.59242 1.52518 1.70242C1.46518 1.81242 1.40518 1.91242 1.35518 2.00242C1.30518 2.09242 1.27518 2.17242 1.24518 2.23242C1.23518 2.26242 1.22518 2.29242 1.21518 2.33242C1.21518 2.37242 1.20518 2.41242 1.19518 2.47242C1.19518 2.52242 1.19518 2.59242 1.19518 2.67242C1.21518 2.67242 1.24518 2.67242 1.27518 2.67242C1.30518 2.67242 1.34518 2.67242 1.39518 2.67242C1.43518 2.67242 1.48518 2.67242 1.52518 2.67242C1.56518 2.67242 1.60518 2.67242 1.64518 2.67242C1.68518 2.67242 1.71518 2.67242 1.73518 2.67242V2.59242C1.73518 2.59242 1.73518 2.52242 1.73518 2.48242C1.73518 2.44242 1.73518 2.40242 1.73518 2.37242C1.73518 2.33242 1.73518 2.30242 1.74518 2.27242C1.78518 2.12242 1.85518 1.94242 1.96518 1.72242C2.07518 1.50242 2.22518 1.25242 2.41518 0.972417C2.41518 0.932417 2.39518 0.892417 2.38518 0.852417C2.37518 0.812417 2.36518 0.772417 2.35518 0.722417C2.34518 0.682417 2.32518 0.642417 2.31518 0.602417H1.21518C1.21518 0.602417 1.15518 0.602417 1.12518 0.602417C1.09518 0.602417 1.06518 0.602417 1.02518 0.602417C0.995176 0.602417 0.965176 0.602417 0.945176 0.602417C0.925176 0.602417 0.905176 0.602417 0.905176 0.602417C0.885176 0.712417 0.865176 0.832417 0.855176 0.952417C0.835176 1.07242 0.825176 1.18242 0.805176 1.30242C0.855176 1.31242 0.905176 1.32242 0.965176 1.33242C1.02518 1.33242 1.07518 1.35242 1.12518 1.35242L1.20518 1.10242C1.20518 1.10242 1.22518 1.07242 1.23518 1.06242C1.24518 1.05242 1.25518 1.04242 1.27518 1.04242C1.29518 1.04242 1.31518 1.04242 1.33518 1.04242C1.35518 1.04242 1.38518 1.04242 1.41518 1.04242C1.44518 1.04242 1.48518 1.04242 1.53518 1.04242C1.58518 1.04242 1.64518 1.04242 1.70518 1.04242C1.77518 1.04242 1.85518 1.04242 1.95518 1.04242L1.94518 1.01242Z" fill="black"/>
<path d="M3.68516 0.822358V2.38236H4.05516C4.23516 2.38236 4.39516 2.31236 4.51516 2.18236C4.63516 2.05236 4.69516 1.88236 4.69516 1.67236C4.69516 1.43236 4.63516 1.23236 4.50516 1.07236C4.36516 0.902358 4.19516 0.812358 3.97516 0.812358H3.69516L3.68516 0.822358ZM3.18516 2.39236V0.822358C3.18516 0.822358 3.16516 0.752358 3.13516 0.722358C3.10516 0.692358 3.07516 0.682358 3.03516 0.682358V0.542358H4.01516C4.34516 0.542358 4.62516 0.652358 4.86516 0.862358C5.11516 1.08236 5.23516 1.35236 5.23516 1.67236C5.23516 1.97236 5.13516 2.21236 4.93516 2.40236C4.74516 2.57236 4.50516 2.66236 4.22516 2.66236H3.04516V2.52236C3.04516 2.52236 3.11516 2.51236 3.14516 2.48236C3.17516 2.45236 3.18516 2.42236 3.18516 2.38236V2.39236Z" fill="black"/>
</g>
<defs>
<clipPath id="clip0_3790_7081">
<rect width="18.65" height="2.13" fill="white" transform="translate(0.79541 0.542358)"/>
</clipPath>
</defs>
</svg>
