<svg width="21" height="21" viewBox="0 0 21 21" fill="none" xmlns="http://www.w3.org/2000/svg">
<g clip-path="url(#clip0_3799_6154)">
<path fill-rule="evenodd" clip-rule="evenodd" d="M10.1553 4.20051C13.4291 4.20051 16.0842 6.8555 16.0842 10.1295C16.0842 13.4034 13.4291 16.0584 10.1553 16.0584C6.88142 16.0584 4.22656 13.4034 4.22656 10.1295C4.22656 6.8555 6.88142 4.20051 10.1553 4.20051ZM8.01379 6.21579C8.08732 5.95557 8.22614 5.65253 8.46362 5.38752C8.89484 4.90604 9.45623 4.73092 10.0638 4.71536C7.11571 4.7643 4.74022 7.16971 4.74022 10.1295C4.74022 11.1064 4.99911 12.0227 5.45187 12.8141H5.452C5.62819 12.7486 5.82153 12.7142 6.03241 12.7194C6.92078 12.7415 7.56209 12.3431 7.99716 11.5788C8.03519 11.4984 8.08679 11.4258 8.15274 11.3658C8.16258 11.1828 8.20912 10.9975 8.31749 10.847C8.30725 10.7839 8.24302 10.7651 8.19662 10.7224C8.09955 10.6329 8.02589 10.5175 7.97296 10.3765C7.56568 10.1184 7.53629 9.77683 7.52153 9.32926C7.10893 8.97516 6.81015 8.37188 6.80762 7.82976C6.80403 7.05243 7.24908 6.37641 8.01392 6.21579H8.01379ZM10.2527 4.71536C11.4812 4.74409 12.4526 5.31984 12.6412 6.67094C13.0858 6.74567 13.5914 7.03368 13.5905 7.5472C13.5894 8.21697 13.1577 8.69127 12.6604 9.07901C12.6841 9.31702 12.6456 9.54533 12.6373 9.78122C12.6358 9.82403 12.6359 9.86525 12.6392 9.90288C12.6696 10.242 12.6064 10.5341 12.4101 10.8184C12.335 10.9277 12.3592 11.0225 12.3434 11.1497C12.3149 11.3788 12.2118 11.6138 12.0458 11.7772C12.0785 11.8305 12.1058 11.8878 12.1282 11.9469C12.1951 12.1229 12.2172 12.3216 12.2231 12.4671C12.232 12.6944 12.449 12.7197 12.6357 12.7874C12.8463 12.8638 13.0429 12.9592 13.2625 13.0085C13.6914 13.1054 14.0075 13.2911 14.2773 13.6396H14.2774C15.0833 12.6943 15.5701 11.4686 15.5701 10.1292C15.5701 7.17157 13.1977 4.76735 10.2525 4.71523L10.2527 4.71536Z" fill="white"/>
<path fill-rule="evenodd" clip-rule="evenodd" d="M10.2527 4.71536C13.1979 4.76749 15.569 7.1717 15.5704 10.1293C15.571 11.4134 15.1155 12.6656 14.2776 13.6397C14.0152 13.3002 13.6784 13.1025 13.2627 13.0086C13.0432 12.9593 12.8466 12.864 12.6359 12.7875C12.4492 12.7198 12.2322 12.6946 12.2233 12.4672C12.2175 12.3216 12.1954 12.1231 12.1285 11.947C12.1061 11.8878 12.0788 11.8307 12.0461 11.7773C12.212 11.6139 12.3152 11.3791 12.3437 11.1499C12.3595 11.0226 12.3353 10.9278 12.4104 10.8185C12.6067 10.5341 12.6698 10.2421 12.6395 9.90301C12.6362 9.86538 12.6359 9.82416 12.6375 9.78135C12.6458 9.54546 12.6843 9.31729 12.6607 9.07914C13.158 8.69127 13.5897 8.21697 13.5908 7.54734C13.5917 7.03394 13.086 6.7458 12.6415 6.67107C12.4528 5.31997 11.4815 4.74422 10.253 4.71549L10.2527 4.71536ZM5.45202 12.8138C4.99926 12.0225 4.74023 11.1061 4.74023 10.1293C4.74023 7.1697 7.11573 4.76416 10.0638 4.71523C9.45624 4.73079 8.89485 4.90591 8.46363 5.38739C8.22615 5.65239 8.08746 5.95543 8.0138 6.21565C7.24896 6.37641 6.80405 7.05229 6.8075 7.82963C6.81003 8.37161 7.10881 8.97489 7.52141 9.32912C7.53617 9.77656 7.56556 10.1183 7.97284 10.3764C8.02576 10.5172 8.09943 10.6327 8.1965 10.7222C8.2429 10.7651 8.30713 10.7838 8.31737 10.8468C8.209 10.9973 8.16246 11.1827 8.15262 11.3657C8.08666 11.4256 8.03507 11.4981 7.99704 11.5787C7.56197 12.343 6.92079 12.7412 6.03229 12.7193C5.82726 12.7142 5.62887 12.7431 5.45188 12.8138H5.45202Z" fill="white"/>
<path fill-rule="evenodd" clip-rule="evenodd" d="M10.1551 0.643188C15.3934 0.643188 19.6412 4.89102 19.6412 10.1293C19.6412 15.3676 15.3934 19.6155 10.1551 19.6155C4.91677 19.6155 0.668945 15.3675 0.668945 10.1293C0.668945 4.89115 4.91704 0.643188 10.1551 0.643188ZM10.1551 1.15711C15.1094 1.15711 19.1274 5.17517 19.1274 10.1293C19.1274 15.0835 15.1094 19.1017 10.1551 19.1017C5.20079 19.1017 1.18287 15.0836 1.18287 10.1293C1.18287 5.17504 5.20093 1.15711 10.1552 1.15711H10.1551Z" fill="white"/>
<path fill-rule="evenodd" clip-rule="evenodd" d="M10.1553 0.129395C15.6771 0.129395 20.1553 4.60766 20.1553 10.1293C20.1553 15.651 15.6771 20.1294 10.1553 20.1294C4.63354 20.1294 0.155273 15.6513 0.155273 10.1293C0.155273 4.60739 4.63354 0.129395 10.1553 0.129395ZM10.1553 0.643187C15.3937 0.643187 19.6415 4.89115 19.6415 10.1293C19.6415 15.3675 15.3937 19.6156 10.1553 19.6156C4.91703 19.6156 0.669066 15.3675 0.669066 10.1293C0.669066 4.89115 4.91703 0.643187 10.1553 0.643187Z" fill="black"/>
<path fill-rule="evenodd" clip-rule="evenodd" d="M10.1555 1.15711C15.1097 1.15711 19.1278 5.17517 19.1278 10.1293C19.1278 15.0835 15.1097 19.1017 10.1555 19.1017C5.20116 19.1017 1.18311 15.0836 1.18311 10.1293C1.18311 5.17504 5.20116 1.15711 10.1555 1.15711ZM10.1555 4.20051C13.4294 4.20051 16.0844 6.8555 16.0844 10.1295C16.0844 13.4034 13.4294 16.0584 10.1555 16.0584C6.88149 16.0584 4.22677 13.4034 4.22677 10.1295C4.22677 6.8555 6.88149 4.20051 10.1555 4.20051Z" fill="black"/>
<path fill-rule="evenodd" clip-rule="evenodd" d="M3.19822 8.64991C3.66667 8.69073 3.79764 9.11464 3.76174 9.52671L3.668 10.598L1.57666 10.4151L1.66774 9.37473C1.69873 9.0197 1.81547 8.67664 2.23073 8.71294C2.43431 8.73076 2.55771 8.89099 2.59547 9.08033C2.68562 8.81041 2.90356 8.62412 3.19835 8.64991H3.19822ZM2.33804 9.40212C2.22023 9.39175 2.15561 9.44813 2.1447 9.57205L2.13141 9.7251L2.49255 9.75661C2.51223 9.53097 2.46064 9.41276 2.33817 9.40199L2.33804 9.40212ZM3.10607 9.4214C2.97988 9.41036 2.91047 9.47406 2.89824 9.61341L2.88268 9.79092L3.23226 9.8215L3.24781 9.64399C3.25566 9.55437 3.20939 9.43044 3.1062 9.42153L3.10607 9.4214ZM4.49347 6.97982L3.94896 8.32773L2.00243 7.54122L2.54707 6.19331L3.08932 6.41244L2.82644 7.06306L3.00634 7.1358L3.24529 6.54448L3.73328 6.74168L3.49434 7.33299L3.68847 7.41144L3.95135 6.76069L4.4936 6.97982H4.49347ZM6.08497 5.00377L5.56679 5.6L5.21576 5.4173L4.85794 5.82884L5.08771 6.15103L4.56846 6.74832L3.3881 4.90617L4.09722 4.09027L6.08484 5.00377H6.08497ZM4.75768 5.18142L4.19362 4.88716L4.55889 5.41012L4.75768 5.18142ZM8.1686 3.91662L7.48421 4.26539L6.53388 3.70879L6.95486 4.53505L6.3295 4.85365L5.37638 2.98304L6.06197 2.6336L7.0111 3.19087L6.58999 2.3646L7.21534 2.04601L8.16847 3.91662H8.1686ZM10.6838 3.64323L9.93363 3.69575L9.87765 2.89568L9.34431 2.93304L9.40029 3.73312L8.65008 3.78564L8.50368 1.69138L9.25389 1.63886L9.30761 2.40795L9.84108 2.37072L9.78723 1.60163L10.5374 1.5491L10.684 3.64336L10.6838 3.64323ZM12.5741 4.11328L11.1698 3.73697L11.7132 1.70906L13.1174 2.08537L12.966 2.65035L12.2881 2.46872L12.2378 2.65607L12.8539 2.82108L12.7177 3.32956L12.1017 3.16441L12.0476 3.36666L12.7254 3.54829L12.5741 4.11328ZM14.706 5.46757L14.0589 5.01441L14.2039 4.64635L13.7572 4.33361L13.4608 4.59582L12.8124 4.142L14.5212 2.77561L15.4066 3.39564L14.7059 5.46783L14.706 5.46757ZM14.3905 4.1662L14.6241 3.57449L14.1422 3.99241L14.3905 4.16633V4.1662ZM16.0058 7.22621L15.4984 6.52786L15.9057 5.88589L15.8965 5.86381L15.3201 6.28253L14.8827 5.68058L16.5811 4.44663L17.1415 5.21798C17.4171 5.59734 17.4589 6.03614 17.0461 6.33599C16.8343 6.48983 16.6197 6.49542 16.4031 6.35274L16.0055 7.22621H16.0058ZM16.5952 5.73085C16.7435 5.62341 16.6576 5.47953 16.5774 5.36917L16.2552 5.60319C16.3415 5.72194 16.4374 5.8456 16.5952 5.73085ZM17.9539 8.40272L17.8095 7.98347L16.4007 8.46868L16.1559 7.75769L17.5647 7.27262L17.4208 6.85483L17.9971 6.65644L18.5301 8.20433L17.9538 8.40272H17.9539ZM17.2662 10.6652C17.0394 10.673 16.8584 10.5971 16.7218 10.4381C16.3879 10.0493 16.4921 9.39308 16.7089 8.97688L17.2808 9.16783C17.1511 9.373 17.0883 9.54612 17.0932 9.6876C17.098 9.82536 17.1263 9.89304 17.1779 9.89131C17.2214 9.88985 17.2588 9.86578 17.2896 9.81911C17.3275 9.76074 17.3865 9.6299 17.4663 9.42645C17.5694 9.16424 17.7579 9.02834 18.0302 9.0189C18.2486 9.01132 18.4221 9.08632 18.5512 9.24322C18.8418 9.59599 18.783 10.1624 18.5774 10.539L18.0005 10.3766C18.1151 10.2124 18.17 10.0573 18.1649 9.91259C18.1617 9.82124 18.135 9.77616 18.0856 9.77789C17.9923 9.78108 17.8893 10.0824 17.864 10.1396C17.7426 10.4129 17.5937 10.6539 17.2661 10.6653L17.2662 10.6652Z" fill="white"/>
<path fill-rule="evenodd" clip-rule="evenodd" d="M10.258 4.71549C10.3154 4.71656 10.3725 4.71815 10.4293 4.72108V4.72347C10.3728 4.71962 10.3158 4.71696 10.258 4.71563V4.71549ZM10.6121 4.73345C10.6733 4.7385 10.7342 4.74475 10.7948 4.7518V4.76735C10.7349 4.75672 10.674 4.74781 10.6121 4.74049V4.73345ZM10.9775 4.77626C11.0388 4.78557 11.0997 4.79634 11.1602 4.80778V4.85604C11.1005 4.83729 11.0396 4.82041 10.9775 4.80552V4.77626ZM11.3429 4.84527C11.4042 4.85897 11.4651 4.8736 11.5256 4.88942V5.00404C11.4665 4.97399 11.4056 4.94646 11.3429 4.92133V4.84527ZM11.7083 4.94074C11.7696 4.95909 11.8307 4.97811 11.891 4.99845V5.23953C11.8328 5.19232 11.7718 5.14858 11.7083 5.10802V4.94074ZM12.0737 5.06441C12.1352 5.08768 12.1962 5.11188 12.2564 5.13727V5.63232C12.2003 5.552 12.1394 5.47727 12.0737 5.40813V5.06441ZM12.2564 11.4655V12.5901C12.237 12.5571 12.2251 12.5171 12.2232 12.4672C12.2173 12.3216 12.1953 12.1231 12.1284 11.947C12.1127 11.9055 12.0945 11.865 12.0737 11.826V11.7486C12.1495 11.6668 12.211 11.5696 12.2564 11.4657V11.4655ZM12.4391 5.21865C12.5007 5.24737 12.5617 5.27676 12.6218 5.30761V6.55073C12.5819 6.33014 12.5203 6.13161 12.4391 5.95384V5.21878V5.21865ZM12.6218 10.3252V12.7825C12.5608 12.761 12.4971 12.7435 12.4391 12.7216V10.7748C12.5324 10.6292 12.5917 10.481 12.6218 10.3252ZM12.8045 5.40614C12.8661 5.44084 12.9271 5.47648 12.9872 5.51344V6.77133C12.9274 6.74606 12.8661 6.72479 12.8045 6.7075V5.40614ZM12.9872 8.79738V12.9239C12.9261 12.9012 12.8654 12.8767 12.8045 12.8525V8.96199C12.8674 8.9088 12.9286 8.85402 12.9872 8.79738ZM13.1699 5.63085C13.2319 5.67247 13.2927 5.71542 13.3526 5.75943V7.00589C13.298 6.95296 13.2362 6.90616 13.1699 6.8652V5.63085ZM13.3526 8.35499V13.0307C13.2919 13.0146 13.2303 13.0021 13.1699 12.9848V8.60351C13.2372 8.52439 13.2987 8.44168 13.3526 8.35486V8.35499ZM13.5353 5.89945C13.5974 5.94918 13.6583 5.99998 13.718 6.05223V13.1677C13.6597 13.138 13.5989 13.1118 13.5353 13.0884V7.94611C13.5706 7.82112 13.5901 7.68855 13.5903 7.54707C13.5904 7.44521 13.5706 7.35214 13.5353 7.26797V5.89945ZM13.9007 6.21937C13.9631 6.27908 14.024 6.34038 14.0834 6.403V13.4248C14.0251 13.3698 13.9644 13.3206 13.9007 13.2764V6.21951V6.21937ZM14.2661 6.60565C14.329 6.67891 14.3899 6.75404 14.4488 6.83063V13.4275C14.3934 13.4997 14.3361 13.5704 14.2772 13.6396L14.2661 13.6255V6.60578V6.60565ZM14.6315 7.08261C14.6954 7.17635 14.7563 7.27196 14.8142 7.36982V12.8884C14.7563 12.9862 14.6954 13.082 14.6315 13.1758V7.08261ZM14.9969 7.70397C15.0631 7.83575 15.1242 7.97071 15.1796 8.10846V12.1499C15.1242 12.2877 15.0631 12.4225 14.9969 12.5544V7.70411V7.70397ZM15.3623 8.64074C15.4974 9.11371 15.5698 9.61314 15.5698 10.1293C15.5698 10.6455 15.4974 11.1447 15.3623 11.6176V8.64074ZM9.88055 4.72507V4.72095C9.94118 4.71789 10.0022 4.71616 10.0632 4.71523C10.0018 4.71682 9.94092 4.72002 9.88055 4.72494V4.72507ZM9.51515 4.77985V4.7518C9.57578 4.74462 9.63668 4.73863 9.69785 4.73345V4.74608C9.63615 4.75525 9.57525 4.76642 9.51515 4.77998V4.77985ZM9.14975 4.89593V4.80751C9.21039 4.79607 9.27115 4.78544 9.33245 4.77613V4.82892C9.27049 4.84846 9.20959 4.87067 9.14975 4.89593ZM8.78435 5.09924V4.88929C8.84485 4.87346 8.90575 4.85884 8.96705 4.84514V4.98436C8.90456 5.0188 8.84366 5.05696 8.78435 5.09911V5.09924ZM8.41895 5.43871V4.99845C8.47932 4.97798 8.54036 4.95896 8.60165 4.94061V5.24724C8.55418 5.29072 8.50804 5.33739 8.46323 5.38739C8.44807 5.40427 8.43331 5.42143 8.41895 5.43871ZM8.05356 11.4796V10.5455C8.09398 10.6127 8.14131 10.6716 8.19623 10.7222C8.20873 10.7338 8.22256 10.7435 8.23625 10.7528V10.9894C8.1844 11.1073 8.1594 11.2371 8.15235 11.3657C8.11472 11.3998 8.08188 11.438 8.05342 11.4796H8.05356ZM8.05356 6.0892V5.13714C8.11379 5.11174 8.17482 5.08754 8.23625 5.06427V5.69694C8.15767 5.82871 8.09797 5.96221 8.05356 6.08906V6.0892ZM7.68816 12.0193V10.1057C7.7343 10.1763 7.79387 10.2424 7.87086 10.304V11.7813C7.81315 11.8662 7.75225 11.9456 7.68816 12.0193ZM7.68816 6.32296V5.30747C7.74839 5.27649 7.80942 5.24711 7.87086 5.21852V6.25275C7.80743 6.27256 7.74653 6.29596 7.68816 6.32296ZM7.32276 12.3539V9.12967C7.38033 9.19668 7.4415 9.25905 7.50546 9.31529V12.2064C7.44682 12.2596 7.38592 12.3087 7.32276 12.3539ZM7.32276 6.56602V5.51344C7.38286 5.47648 7.44389 5.44084 7.50546 5.40614V6.42415C7.4403 6.4667 7.3794 6.51417 7.32276 6.56602ZM6.95736 12.5581V8.53051C7.00762 8.65271 7.06932 8.77131 7.14006 8.88261V12.4693C7.08102 12.502 7.02012 12.5317 6.95736 12.5581ZM6.95736 7.08141V5.75943C7.01746 5.71542 7.07823 5.67247 7.14006 5.63085V6.76761C7.06786 6.86374 7.00669 6.96905 6.95736 7.08141ZM6.59196 12.6716V6.0521C6.65166 5.99984 6.71256 5.94892 6.77466 5.89932V12.6244C6.71522 12.6426 6.65432 12.6583 6.59196 12.6714V12.6716ZM6.22656 12.7173V6.403C6.286 6.34038 6.3469 6.27908 6.40926 6.21937V12.7017C6.34969 12.7091 6.28879 12.7142 6.22656 12.7172V12.7173ZM5.86116 12.724V6.83077C5.92007 6.75418 5.98097 6.67905 6.04386 6.60578V12.7196C5.98283 12.7185 5.92206 12.719 5.86116 12.724ZM5.49576 12.7985V7.36996C5.55387 7.27222 5.61464 7.17635 5.67846 7.08261V12.7495C5.6157 12.7621 5.5548 12.7786 5.49576 12.7984V12.7985ZM5.31307 12.5547C5.24685 12.4229 5.18581 12.2881 5.13037 12.1503V8.1086C5.18581 7.97084 5.24685 7.83588 5.31307 7.70411V12.5547ZM4.94767 11.6178C4.81257 11.1449 4.74023 10.6456 4.74023 10.1295C4.74023 9.61327 4.81257 9.11371 4.94767 8.64087V11.6178Z" fill="black"/>
<path fill-rule="evenodd" clip-rule="evenodd" d="M5.07425 16.9679C4.8877 16.9038 4.72374 16.8037 4.58213 16.667C4.10477 16.2059 4.0706 15.5543 4.53732 15.0711C4.98782 14.6045 5.66157 14.6049 6.12378 15.0513C6.27097 15.1935 6.37961 15.3577 6.44981 15.5436L6.00291 16.0063C5.97246 15.8341 5.8956 15.689 5.773 15.5708C5.56225 15.3672 5.26998 15.4303 5.08077 15.6263C4.89966 15.8139 4.88929 16.1032 5.0805 16.2881C5.21812 16.4209 5.36519 16.4932 5.52129 16.5052L5.07438 16.9679H5.07425ZM8.22415 17.4422C7.93136 18.0702 7.28287 18.2355 6.6736 17.9515C6.06407 17.6672 5.77314 17.0646 6.0662 16.4359C6.35926 15.8076 7.00828 15.6436 7.61742 15.9276C8.22615 16.2115 8.51708 16.8145 8.22429 17.4422H8.22415ZM7.51915 17.1135C7.62047 16.8959 7.57473 16.6263 7.34204 16.5178C7.10841 16.4089 6.87212 16.5448 6.76987 16.7641C6.66749 16.9836 6.71469 17.2521 6.94871 17.3612C7.18168 17.4697 7.41756 17.3313 7.51915 17.1135ZM10.143 17.1481L9.53164 17.0731L9.50704 17.274L10.0553 17.3413L9.99104 17.8637L9.44281 17.7965L9.34708 18.5764L8.60072 18.4848L8.85655 16.4011L10.2142 16.5678L10.1429 17.1484L10.143 17.1481ZM11.9521 16.9351L11.3407 17.0101L11.3653 17.211L11.9135 17.1437L11.9776 17.6661L11.4294 17.7334L11.5251 18.5133L10.7788 18.6049L10.5229 16.5211L11.8805 16.3544L11.9518 16.9349L11.9521 16.9351ZM14.2302 17.5989L12.9128 18.2132L12.0255 16.3104L13.3431 15.6961L13.5903 16.2261L12.9543 16.5226L13.0363 16.6984L13.6143 16.4289L13.8368 16.906L13.2588 17.1755L13.3472 17.3652L13.9832 17.0687L14.2304 17.5987L14.2302 17.5989ZM16.1022 16.2561L14.9723 17.171L13.6511 15.5394L14.7809 14.6245L15.1489 15.079L14.6035 15.5207L14.7255 15.6715L15.2211 15.2702L15.5523 15.6792L15.0568 16.0805L15.1885 16.2431L15.734 15.8014L16.102 16.2559L16.1022 16.2561Z" fill="white"/>
<path fill-rule="evenodd" clip-rule="evenodd" d="M7.45858 7.09989C7.55206 6.914 7.7809 6.65591 8.3992 6.62387C8.42234 6.24943 8.68934 5.40959 9.67065 5.20429C10.1416 5.10576 10.6452 5.16054 11.1685 5.33487C12.0864 5.64083 12.1449 6.38519 12.2223 6.96347C12.237 7.07277 12.2705 7.0987 12.3617 7.10083C12.7795 7.10242 13.1373 7.30427 13.1368 7.54694C13.1362 7.8037 13.034 8.05381 12.8764 8.25433C12.6952 8.48503 12.4306 8.68063 12.1459 8.88979C12.2909 9.19535 12.2098 9.54679 12.1566 9.77151C12.1459 9.81698 12.1386 9.86379 12.1432 9.91618C12.16 10.1047 12.1634 10.2868 11.9924 10.5346C11.9329 10.6209 11.9287 10.7387 11.9089 10.8561C11.8963 10.9314 11.9012 11.0186 11.8918 11.0944C11.8672 11.2923 11.743 11.4875 11.6347 11.5142C11.5587 11.5329 11.4964 11.5473 11.478 11.6227C11.4683 11.6622 11.4653 11.6988 11.4496 11.7369C11.4366 11.7687 11.4441 11.809 11.4737 11.8357C11.5003 11.8595 11.5175 11.8885 11.5499 11.9058C11.7222 11.9983 11.762 12.2973 11.7696 12.4847C11.7799 12.7426 11.8621 12.8948 12.0033 12.9947C12.2189 13.1471 12.5243 13.213 12.7997 13.3403C12.905 13.3889 13.031 13.4216 13.1631 13.4514C13.5664 13.5425 13.7335 13.6862 13.8598 13.8433C13.9049 13.8994 13.9453 13.9519 13.9819 14.0019C13.9529 14.0306 13.9235 14.059 13.8939 14.0869C13.8278 14.0006 13.7533 13.9136 13.6681 13.8257C13.566 13.7203 13.4151 13.6404 13.1978 13.5819C12.9083 13.5303 12.6529 13.4351 12.3879 13.3468C12.357 13.3359 12.3183 13.3591 12.3268 13.4165C12.3742 13.5051 12.4275 13.5635 12.4836 13.6081C12.6621 13.7703 12.8498 13.9297 12.9626 14.1481C12.9837 14.1812 12.9885 14.2089 12.9886 14.2351C12.9707 14.3294 12.9458 14.423 12.8929 14.5138C12.8842 14.5428 12.8804 14.572 12.9103 14.6009L13.0957 14.7121C13.0445 14.7451 12.9926 14.777 12.9402 14.8082C12.8437 14.7392 12.7566 14.6727 12.6839 14.6097C12.6583 14.5895 12.657 14.562 12.6664 14.5313C12.7042 14.4297 12.742 14.3281 12.7796 14.2265C12.678 14.054 12.5559 13.8949 12.3964 13.7562C12.2178 13.601 12.0527 13.427 11.9 13.2338C11.8664 13.2074 11.8305 13.2231 11.8216 13.2512C11.7899 13.6004 12.0844 14.3024 12.477 15.055C12.4159 15.0839 12.3544 15.1118 12.2921 15.1384C12.1277 14.6872 11.9434 14.2225 11.7779 13.7912C11.7576 13.7639 11.7262 13.7664 11.7169 13.7912C11.7754 14.2639 11.9759 14.7523 12.1145 15.2103C12.0112 15.2504 11.9061 15.2871 11.7999 15.3207C11.8051 15.1819 11.8104 15.0429 11.8157 14.9041C11.8169 14.8679 11.7865 14.8723 11.7615 14.8931C11.7064 14.9386 11.7032 14.9749 11.6978 15.0166L11.6526 15.365C11.3801 15.4429 11.099 15.5001 10.8109 15.5348C10.455 15.044 10.1662 14.6024 9.9431 14.2288C9.90255 14.1608 9.83965 14.1411 9.79631 14.1237C9.76014 14.1092 9.74751 14.1286 9.75961 14.1499C10.018 14.6064 10.3145 15.0736 10.6423 15.5522C10.4816 15.5666 10.3191 15.5743 10.1549 15.5743C10.0118 15.5743 9.86984 15.5687 9.72956 15.5578C9.5688 14.7523 9.28876 13.9963 8.96884 13.2439C8.94065 13.1772 8.93055 13.2041 8.9219 13.2316C8.90222 13.3074 8.91366 13.3391 8.93454 13.4154C9.14143 14.1676 9.31057 14.4922 9.51481 15.5365C9.13944 15.4925 8.77564 15.4105 8.42752 15.2941L8.54946 15.1254C8.56368 15.1113 8.60876 15.0318 8.53882 14.9868C8.40213 14.9015 8.23272 14.8162 8.04843 14.731C8.00016 14.6931 7.9604 14.6523 7.97224 14.5944C8.01519 14.3826 8.02277 14.1661 8.02396 13.9506C8.02463 13.8255 7.9991 13.7603 7.94378 13.647C7.92131 13.6009 7.89392 13.6328 7.89392 13.6541C7.89525 13.9654 7.8777 14.275 7.83289 14.5837C7.82265 14.6507 7.8281 14.7021 7.87517 14.7317C8.03154 14.8387 8.19536 14.9588 8.35439 15.073C8.36543 15.0808 8.36915 15.1068 8.3625 15.1187C8.33937 15.1599 8.31384 15.2022 8.28658 15.2449C7.2187 14.8548 6.30747 14.1393 5.67188 13.2189C5.78011 13.186 5.89659 13.1695 6.02145 13.1726C7.13267 13.2002 7.88408 12.7153 8.40293 11.7845C8.42473 11.7453 8.46183 11.6664 8.53842 11.6833C8.58283 11.6932 8.61528 11.6563 8.6081 11.544C8.59161 11.2876 8.63442 11.1174 8.77351 11.0302C8.79226 10.8835 8.76699 10.6979 8.67764 10.4554C8.53988 10.4523 8.448 10.3639 8.39029 10.1941C8.36596 10.1227 8.31543 10.0519 8.23352 10.0025C8.0697 9.90355 7.95495 9.77084 7.97264 9.48895C7.97915 9.38404 7.97809 9.25253 7.95495 9.08805C7.71667 8.92875 7.48318 8.69034 7.31045 8.06033C7.26777 7.90476 7.26285 7.74094 7.2804 7.60717C7.29356 7.50638 7.31963 7.37527 7.45845 7.09936L7.45858 7.09989ZM9.94922 8.11019C9.93074 8.10195 9.84697 8.07948 9.80056 8.10075C9.70881 8.14277 9.63581 8.18825 9.56095 8.2433C9.54739 8.25433 9.5317 8.25899 9.51401 8.25739C9.45325 8.25274 9.41362 8.32614 9.38237 8.40166C9.36522 8.45964 9.34794 8.51761 9.33078 8.57559C9.32001 8.61907 9.31576 8.65723 9.326 8.68369C9.32241 8.71866 9.45764 8.72371 9.46987 8.68834C9.49912 8.66454 9.5309 8.64207 9.56853 8.62252C9.59818 8.61322 9.62797 8.59699 9.65775 8.5708C9.70536 8.52958 9.74498 8.47839 9.79405 8.43451C9.83075 8.40166 9.89138 8.40366 9.93566 8.41602C9.95441 8.41988 9.97116 8.42626 9.99071 8.4232C9.99124 8.42746 9.98925 8.43304 9.98353 8.43929C9.95201 8.47586 9.91718 8.50551 9.88021 8.52865C9.84657 8.54966 9.82503 8.57306 9.79258 8.59593C9.76865 8.58915 9.71254 8.58862 9.69312 8.58822C9.65443 8.58755 9.59978 8.60989 9.60217 8.66295C9.60363 8.69512 9.62039 8.73196 9.62185 8.75443C9.62278 8.77504 9.62159 8.79206 9.61281 8.80695C9.60177 8.8378 9.6055 8.87636 9.63595 8.89085C9.65975 8.90109 9.76027 8.89857 9.78926 8.89551C9.84444 8.88979 9.92648 8.89405 9.97714 8.91904C10.0202 8.94192 10.0387 8.90455 10.0194 8.87743C9.99616 8.85296 9.95866 8.83501 9.91611 8.82025C9.89045 8.80735 9.885 8.76546 9.9068 8.76134C9.92768 8.75749 9.95028 8.76733 9.97409 8.77318C10.0133 8.79326 10.1206 8.79804 10.1602 8.77783C10.1855 8.76507 10.2074 8.74911 10.2354 8.74485C10.2589 8.72704 10.2492 8.69313 10.2213 8.69712L10.1843 8.70736C10.1843 8.69951 10.1834 8.69207 10.1834 8.67651C10.1834 8.61189 10.2253 8.57731 10.3375 8.59034C10.3709 8.59034 10.3828 8.62611 10.3875 8.6555C10.4146 8.67917 10.4416 8.67691 10.4687 8.67026C10.4702 8.67146 10.4714 8.67146 10.4721 8.66959C10.5081 8.6664 10.5441 8.66334 10.5802 8.66015C10.6117 8.66015 10.6053 8.69778 10.5848 8.71653C10.5723 8.75416 10.5425 8.79179 10.5049 8.82942C10.4908 8.84418 10.4939 8.87357 10.5049 8.90934C10.5195 8.92822 10.5258 8.94697 10.5236 8.96585C10.5262 9.00773 10.5372 9.03898 10.5566 9.05986C10.5823 9.09802 10.5803 9.14509 10.5707 9.20573C10.5639 9.24801 10.5582 9.29561 10.5331 9.34681C10.4855 9.44148 10.4589 9.5307 10.4532 9.60862C10.451 9.77324 10.0146 10.0259 9.83314 10.1275C9.80482 10.136 9.80296 10.1479 9.80495 10.1604C9.81386 10.1856 9.81944 10.211 9.81905 10.2357C9.81851 10.266 9.80322 10.2931 9.81439 10.3251C9.8245 10.3503 9.85734 10.3459 9.86612 10.3203C9.89603 10.2563 9.95866 10.2046 10.054 10.1651C10.2303 10.0803 10.3787 9.98413 10.5143 9.88294C10.5379 9.86419 10.5635 9.8465 10.6036 9.836C10.6349 9.82975 10.6662 9.82337 10.6976 9.81712C10.7186 9.80688 10.7579 9.8094 10.7352 9.85009C10.6758 9.90461 10.6162 9.94902 10.5568 9.9582C10.5242 9.96604 10.5242 10.0261 10.5568 10.0241C10.6351 10.022 10.7133 9.99543 10.7916 9.94424C10.843 9.89158 10.9047 9.84411 10.9889 9.80781C11.0176 9.8001 11.0378 9.79943 11.0453 9.83134C11.0425 9.87057 11.0377 9.9098 11.0312 9.94889C11.0229 9.98772 11.0656 9.98838 11.0829 9.96777C11.1309 9.94304 11.1732 9.90793 11.2192 9.87842C11.2931 9.83095 11.3806 9.83746 11.4588 9.86897C11.545 9.90381 11.6237 9.95142 11.689 10.0101C11.7124 10.0311 11.7359 10.051 11.7641 10.0618C11.8426 10.0918 11.8291 10.1279 11.8205 10.1652C11.8025 10.2509 11.7653 10.3221 11.6749 10.3534C11.6063 10.3707 11.596 10.3235 11.6091 10.2687C11.6178 10.232 11.6266 10.1909 11.6278 10.1417C11.6296 10.0901 11.6026 10.0888 11.5714 10.0946C11.5552 10.1154 11.5349 10.1279 11.5104 10.1323C11.4627 10.1457 11.4314 10.1348 11.4164 10.0993C11.4195 10.0554 11.4227 10.0115 11.4257 9.9675C11.4208 9.93892 11.379 9.93892 11.374 9.9675C11.3661 10.0005 11.3583 10.0333 11.3506 10.0663C11.3191 10.124 11.2699 10.1562 11.1814 10.1323C11.1438 10.1057 11.1063 10.0789 11.0687 10.0523C11.0483 10.0335 11.028 10.0351 11.0077 10.0571C10.9454 10.136 10.7321 10.3128 10.6365 10.1934C10.6287 10.1793 10.6208 10.1652 10.613 10.1511C10.6076 10.1396 10.5808 10.138 10.5754 10.1463C10.4976 10.2336 10.4193 10.3244 10.3499 10.3532C10.3249 10.3685 10.3009 10.3777 10.284 10.3438V10.245C10.2505 10.2212 10.2332 10.2289 10.2323 10.2622C10.2169 10.4309 10.1075 10.5132 9.9693 10.4284C9.92874 10.4195 9.91079 10.4276 9.90348 10.466C9.94005 10.5632 10.024 10.5738 10.0209 10.7059C10.0269 10.7213 10.041 10.7244 10.0632 10.7153C10.1091 10.6547 10.1529 10.5935 10.2322 10.5413C10.25 10.529 10.2719 10.529 10.298 10.5413C10.4842 10.6875 10.659 10.6934 10.8288 10.6353C10.9368 10.6101 11.0449 10.596 11.153 10.6117C11.203 10.6187 11.2531 10.6187 11.3032 10.6117C11.3312 10.6083 11.3578 10.6019 11.3832 10.5929C11.3965 10.5859 11.3975 10.5648 11.3832 10.5599C11.3705 10.5586 11.358 10.5526 11.3455 10.5458C11.235 10.4564 11.1449 10.4002 10.9839 10.4518C10.9151 10.4737 10.8664 10.4715 10.8195 10.4848C10.7754 10.4973 10.7333 10.5058 10.7114 10.4848C10.6864 10.4607 10.6756 10.4438 10.7067 10.4048C10.7622 10.3352 10.8307 10.2849 10.9228 10.2873C11.0402 10.2951 11.1594 10.2902 11.2752 10.3108C11.32 10.3188 11.3566 10.3518 11.3973 10.372C11.4514 10.3987 11.4722 10.429 11.4865 10.4519C11.5202 10.5062 11.5861 10.5084 11.6603 10.4754C11.7432 10.4705 11.812 10.4236 11.8482 10.3626C11.8593 10.3475 11.9223 10.3418 11.8999 10.4095C11.7258 10.6464 11.829 10.902 11.7355 11.1479C11.6902 11.267 11.6363 11.3517 11.5476 11.3783C11.4425 11.4098 11.3493 11.4546 11.2564 11.5006C11.1695 11.5439 11.0749 11.5485 10.9886 11.5195C10.8255 11.4647 10.6864 11.4359 10.5518 11.4489C10.4657 11.4573 10.4993 11.5562 10.5518 11.5554C10.6674 11.5534 10.7312 11.5908 10.7397 11.6635C10.7506 11.7561 10.7496 11.846 10.782 11.9175C10.8071 11.9725 10.8625 11.9708 10.9089 11.9364C10.9816 11.8755 11.0583 11.8195 11.1485 11.7859C11.2185 11.7598 11.2676 11.7815 11.2848 11.8235C11.3248 11.9221 11.3141 12.056 11.2753 12.1591C11.2269 12.2875 11.1983 12.3736 11.0874 12.4554C11.0219 12.5036 10.9311 12.4909 10.8666 12.4554C10.746 12.389 10.6368 12.3032 10.5236 12.2249C10.4223 12.1548 10.3109 12.0118 10.2465 11.75C10.2176 11.6319 10.1622 11.5349 10.0164 11.4867C9.64632 11.3639 9.34262 11.2469 9.11444 11.0822C8.81207 10.8638 8.82949 10.4584 8.80556 10.12C8.80303 10.0844 8.7525 10.0839 8.74798 10.118C8.75117 10.1541 8.75423 10.1902 8.75742 10.2263C8.75981 10.3023 8.68083 10.3494 8.60717 10.2967C8.56063 10.2697 8.52725 10.2317 8.5226 10.1698C8.53004 10.1007 8.48151 10.0317 8.37686 9.96285C8.26384 9.86552 8.2189 9.73986 8.27355 9.57245C8.30054 9.51395 8.32142 9.4448 8.32048 9.33736C8.33006 9.31675 8.35346 9.31356 8.39096 9.32792C8.42859 9.34361 8.4496 9.37579 8.46609 9.41263C8.46768 9.42353 8.47779 9.43696 8.47074 9.4456C8.40598 9.52618 8.39282 9.65051 8.44667 9.83201C8.45159 9.84863 8.45266 9.85874 8.46515 9.8699C8.47632 9.87975 8.48297 9.89676 8.48483 9.92057C8.47353 9.95434 8.48683 9.97601 8.50358 9.99583C8.54587 10.0547 8.58815 10.0753 8.63044 10.0852C8.6537 10.0866 8.66315 10.0741 8.65862 10.0476C8.64333 9.99902 8.6295 9.95035 8.5928 9.90168C8.5565 9.85102 8.52379 9.78574 8.54587 9.72297C8.55291 9.69784 8.56714 9.67285 8.58815 9.64771C8.59733 9.6392 8.60982 9.63761 8.62578 9.64306C8.63522 9.65237 8.64466 9.66181 8.65397 9.67125C8.68017 9.69173 8.71421 9.665 8.70091 9.63827C8.64785 9.43709 8.56741 9.1669 8.31104 9.14921C8.24788 9.14948 8.21304 9.18791 8.23592 9.23857C8.24895 9.26942 8.25161 9.29508 8.25945 9.32327C8.24855 9.40491 8.22129 9.45411 8.20307 9.49733C8.17435 9.56541 8.16624 9.64532 8.16558 9.73707C8.16504 9.75422 8.15414 9.75741 8.1326 9.74651C8.08699 9.70077 8.07303 9.61288 8.09032 9.48323C8.09603 9.41635 8.10095 9.34774 8.09976 9.26689C8.09351 9.20838 8.09218 9.13073 8.1326 9.08353C8.28365 8.95136 8.4835 9.04204 8.57884 9.12581C8.63017 9.16451 8.64905 9.13445 8.63256 9.11185C8.61927 9.08712 8.60464 9.05627 8.60264 9.01212C8.59679 8.885 8.61647 8.71268 8.75729 8.60377C8.87177 8.56415 9.01658 8.36416 8.96871 8.17123C8.95794 8.15939 8.95794 8.13745 8.97815 8.1195C8.9969 8.11325 9.0094 8.107 9.01578 8.10062C9.03612 8.08972 9.05966 8.08825 9.08625 8.09597C9.1659 8.1187 9.23013 8.07948 9.27879 7.97829C9.31669 7.93933 9.34142 7.89279 9.3728 7.8513C9.3837 7.83681 9.40232 7.84585 9.41974 7.8513C9.5543 7.89385 9.64512 7.87949 9.69685 7.82777C9.74764 7.77697 9.79285 7.71488 9.8471 7.65384C9.90162 7.59241 9.97262 7.55292 10.0491 7.5363C10.0782 7.53005 10.0995 7.51077 10.1242 7.50332C10.2461 7.46702 10.398 7.46396 10.5845 7.48444C10.9983 7.52992 11.3663 7.5956 11.6367 7.71022C11.7874 7.77405 11.8047 7.86048 11.8375 7.93946C11.8697 8.02882 11.893 8.06432 11.9044 8.11937C11.913 8.13346 11.91 8.14756 11.8951 8.16165C11.8067 8.16484 11.722 8.14437 11.6414 8.10049C11.6225 8.08865 11.6038 8.08865 11.585 8.10049C11.4897 8.1941 11.425 8.20779 11.3689 8.19928C11.3507 8.20194 11.3445 8.21138 11.3502 8.22747C11.3594 8.26763 11.35 8.29436 11.322 8.30739C11.3088 8.32653 11.2889 8.34329 11.2656 8.35911C11.2328 8.39767 11.1998 8.40392 11.167 8.37799C11.151 8.3651 11.1388 8.34661 11.1247 8.33106C11.1191 8.31563 11.0921 8.31537 11.0965 8.3405C11.0994 8.35659 11.1059 8.37188 11.1106 8.38743C11.1138 8.40964 11.1211 8.42998 11.1388 8.43916C11.1546 8.4474 11.1688 8.45299 11.181 8.46269C11.2147 8.48929 11.211 8.52745 11.1904 8.5708C11.1596 8.60098 11.1675 8.64593 11.181 8.69313C11.2286 8.79166 11.2536 8.88766 11.2469 8.97994C11.2455 8.99896 11.2514 9.01771 11.2564 9.03632C11.2644 9.06584 11.3011 9.05613 11.2954 9.02795C11.2934 9.01811 11.2917 9.00827 11.2938 8.99869C11.3009 8.96598 11.336 8.96678 11.3689 8.9705C11.4453 8.98008 11.5144 8.97875 11.5687 8.95508C11.597 8.94285 11.5801 8.90123 11.5568 8.90934C11.5286 8.91638 11.5004 8.91638 11.4722 8.90934C11.4373 8.89179 11.423 8.8858 11.3841 8.8858C11.3433 8.8858 11.3431 8.81865 11.3818 8.82025C11.4096 8.82144 11.4455 8.82238 11.4688 8.80097C11.4966 8.78514 11.5268 8.78102 11.558 8.78209C11.5805 8.78461 11.596 8.77517 11.605 8.7539C11.6043 8.7398 11.6024 8.72677 11.595 8.71932C11.5915 8.716 11.5905 8.71653 11.5861 8.71667C11.5596 8.71799 11.5487 8.70058 11.5532 8.66454C11.5544 8.65537 11.5532 8.64606 11.5615 8.64127C11.6047 8.61601 11.6083 8.66308 11.7052 8.67225C11.7274 8.67438 11.7127 8.74166 11.7023 8.75376C11.6887 8.7664 11.6887 8.77743 11.7023 8.78674C11.7468 8.80562 11.7827 8.78554 11.8244 8.7632C11.8592 8.74459 11.8849 8.68103 11.8807 8.64566C11.8742 8.58875 11.8556 8.58064 11.8152 8.54022C11.7891 8.51415 11.767 8.48969 11.7492 8.46695C11.7353 8.43477 11.7645 8.40246 11.8103 8.41988C11.856 8.45644 11.9033 8.51229 11.9559 8.52838C12.0176 8.53623 12.0182 8.59606 12.0076 8.63183C11.9794 8.67624 12.0009 8.74153 11.97 8.79645C11.9672 8.82171 11.9793 8.83793 11.9935 8.85283C12.1763 9.22088 12.0771 9.68548 11.9722 9.84398C11.9257 9.91418 11.821 9.9433 11.745 9.90235C11.6434 9.8477 11.556 9.74678 11.5097 9.58642C11.5007 9.55876 11.4968 9.52831 11.4742 9.53256C11.4567 9.5206 11.4325 9.52911 11.4252 9.53934C11.4144 9.55929 11.4181 9.57525 11.4209 9.60437C11.4183 9.63362 11.4038 9.65955 11.3875 9.66154C11.3594 9.6767 11.3312 9.6783 11.303 9.66633C11.2844 9.65064 11.2897 9.63495 11.2983 9.61926C11.3108 9.58788 11.3233 9.55663 11.3358 9.52525C11.3583 9.4835 11.2942 9.45371 11.2607 9.49706C11.2469 9.52046 11.2181 9.55065 11.1761 9.58176C11.0929 9.64319 10.9357 9.62112 10.9131 9.44534C10.8744 9.14443 10.8759 8.90296 10.8145 8.69286C10.8247 8.66481 10.8212 8.64646 10.791 8.64819C10.7482 8.65085 10.7282 8.60776 10.7272 8.57186C10.7254 8.49115 10.7566 8.43092 10.8566 8.40605C10.8754 8.40153 10.8756 8.36935 10.8519 8.37307C10.8152 8.37613 10.7793 8.3772 10.7489 8.36762C10.7388 8.36443 10.7305 8.35725 10.7203 8.35419C10.7105 8.35127 10.6997 8.35393 10.6895 8.35273C10.6669 8.3502 10.6443 8.34435 10.6216 8.33531C10.6111 8.31018 10.6142 8.28518 10.631 8.26005C10.645 8.24755 10.6591 8.23492 10.6732 8.22242C10.6835 8.20513 10.6964 8.18798 10.6638 8.17069C10.6262 8.15341 10.5887 8.13626 10.551 8.11897H10.4947C10.327 8.18652 10.1132 8.1828 9.94789 8.10953L9.94922 8.11019ZM8.67445 6.58876C8.65929 6.65817 8.5686 6.64049 8.57246 6.59262C8.62791 5.89546 9.21962 5.28154 10.0192 5.30681C10.4229 5.32848 10.823 5.38991 11.2165 5.52235C11.795 5.68178 12.06 6.33107 12.04 6.8914C12.0362 7.00615 11.9662 7.06027 11.8323 7.03886C11.6192 7.00496 11.4019 6.96081 11.1788 6.95562C10.8703 6.94858 10.6751 6.62028 10.7746 6.16526C10.7695 6.13374 10.7343 6.09465 10.6687 6.11991C10.5107 6.23546 10.3269 6.25395 10.1286 6.21818C9.96611 6.15329 9.88673 6.08149 9.84537 6.00636C9.82649 5.96487 9.81758 5.91315 9.81891 5.85132C9.83021 5.77446 9.87183 5.68245 9.94364 5.57527C9.95627 5.55134 9.95374 5.5274 9.93606 5.50334C9.90454 5.4794 9.86651 5.46172 9.83407 5.45042C9.77264 5.42901 9.71387 5.42887 9.66028 5.44669C9.11311 5.62806 8.7291 6.18307 8.67431 6.58876H8.67445ZM8.41303 6.93661C8.1185 6.9281 7.88528 6.98421 7.6692 7.06386C7.77292 6.85257 8.05933 6.73902 8.67232 6.78489C9.19077 6.82372 9.70895 6.87345 10.2283 6.95616C10.7807 7.04405 11.3278 7.12729 11.9997 7.18127C12.3594 7.21013 12.6763 7.28845 12.8756 7.36716C12.964 7.40213 12.9764 7.4613 12.9735 7.51396C12.9703 7.5363 12.9534 7.53856 12.9392 7.53351C12.6226 7.40825 12.0916 7.33366 11.5006 7.27422C11.044 7.22821 10.5872 7.16931 10.1305 7.09803C9.53236 7.00469 8.98533 6.9531 8.4129 6.93661H8.41303ZM10.5988 9.67683C10.5758 9.67218 10.5486 9.64399 10.5589 9.61913C10.567 9.57538 10.5771 9.53389 10.6004 9.50756C10.6175 9.48509 10.6295 9.46262 10.6337 9.44002C10.6345 9.40771 10.6736 9.40146 10.6997 9.42619C10.7081 9.45252 10.7219 9.47459 10.7411 9.49214C10.7653 9.52365 10.748 9.55517 10.7361 9.58655C10.7141 9.62232 10.6864 9.64825 10.6557 9.66872C10.6226 9.68534 10.6145 9.67989 10.5988 9.67683ZM9.51388 7.57792C9.59127 7.58563 9.66188 7.56941 9.7257 7.52939C9.73674 7.51064 9.75296 7.54042 9.75123 7.54973C9.68993 7.63456 9.62292 7.71621 9.37599 7.69799C9.34714 7.68443 9.31815 7.68443 9.28916 7.69799C9.24502 7.72099 9.21098 7.74745 9.18704 7.77724C9.09077 7.83614 9.03639 7.82936 8.98799 7.81301C8.83361 7.83442 8.72378 7.90821 8.65105 8.02509C8.59919 8.107 8.5452 8.18732 8.43151 8.21418C8.42048 8.21418 8.40944 8.22096 8.3984 8.23465C8.37966 8.25686 8.37806 8.27547 8.39335 8.2909C8.41463 8.28744 8.4359 8.29768 8.45718 8.32161C8.4742 8.33956 8.49122 8.34036 8.50824 8.32414C8.54321 8.29941 8.57805 8.27468 8.61288 8.24994C8.64014 8.23545 8.66394 8.23798 8.68442 8.25766C8.67325 8.3764 8.65716 8.49368 8.48789 8.56428C8.40439 8.57771 8.32474 8.56282 8.24788 8.52851C8.21211 8.52506 8.20028 8.53875 8.21211 8.56934C8.23512 8.58981 8.25812 8.61029 8.28099 8.63077C8.30147 8.64952 8.30998 8.66826 8.31676 8.68688C8.33298 8.69965 8.34907 8.70231 8.36529 8.69459C8.38325 8.68608 8.40106 8.69114 8.41888 8.70988C8.42526 8.75549 8.3895 8.77757 8.33471 8.78913C8.25214 8.79339 8.1798 8.77717 8.11771 8.7406C8.08965 8.72956 8.07861 8.74233 8.0846 8.77903C8.1076 8.7874 8.12462 8.81387 8.14071 8.84285C8.15175 8.85056 8.16278 8.85814 8.17382 8.86586C8.1935 8.88367 8.19603 8.90163 8.18153 8.91958C8.00468 8.9854 7.85616 8.96744 7.80882 8.65111C7.80629 8.59739 7.83089 8.57785 7.88288 8.59234C8.00349 8.59739 8.07968 8.57013 8.12542 8.5208C8.13393 8.49088 8.12542 8.47812 8.09989 8.48237C8.00548 8.4986 7.93142 8.46708 7.87783 8.38783C7.87437 8.37587 7.87358 8.33079 7.92889 8.33664C8.02277 8.35845 8.11598 8.37773 8.18924 8.32388C8.19948 8.2889 8.1927 8.27441 8.1689 8.28039C8.07343 8.2772 8.01426 8.2538 7.97995 8.21644C7.96293 8.18998 7.94086 8.15594 7.98248 8.1219C8.01399 8.1074 8.0455 8.08865 8.07702 8.0606C8.13154 8.0332 8.18592 8.0477 8.2403 8.06831C8.31317 8.07044 8.37952 8.05342 8.43178 7.99424C8.49481 7.90356 8.56714 7.8174 8.64373 7.73349C8.69227 7.7049 8.73694 7.67206 8.84797 7.71302C9.05261 7.75809 9.16843 7.72232 9.22321 7.63124C9.27879 7.54627 9.37027 7.51941 9.51428 7.57752L9.51388 7.57792ZM8.77191 11.2146C8.78947 11.1892 8.82803 11.1669 8.838 11.2195C8.91672 11.6395 10.1633 12.3641 10.8147 12.5847C10.9232 12.6214 11.0202 12.6629 11.1267 12.5758C11.3394 12.4019 11.3699 12.2995 11.443 12.0945C11.4579 12.0526 11.5169 12.0489 11.5397 12.0858C11.6427 12.2449 11.6806 12.5991 11.6624 12.961C11.6559 13.0932 11.641 13.2092 11.6069 13.3064C11.5567 13.4494 11.5183 13.5908 11.4475 13.7031C11.397 13.77 11.351 13.7833 11.2826 13.7164C11.0849 13.4875 11.0151 13.0799 10.988 12.7749C10.9844 12.7337 10.9039 12.7218 10.8845 12.7592C10.7934 12.9335 10.7244 13.1234 10.6583 13.3065C10.6167 13.4219 10.5873 13.5619 10.4951 13.6465C10.3251 13.8026 10.0258 13.8245 9.81639 13.7344C9.13293 13.44 8.89491 12.9117 8.72551 12.1664C8.69891 12.0493 8.69785 11.9315 8.72112 11.8143C8.75715 11.6321 8.67352 11.3577 8.77178 11.2145L8.77191 11.2146ZM11.4762 15.2122C11.2685 14.617 11.1626 14.155 11.1583 13.8259C11.1579 13.7908 11.1877 13.7809 11.2142 13.8123C11.256 13.8622 11.3518 13.9413 11.4212 13.9033C11.4615 13.8845 11.493 13.8591 11.5191 13.8299C11.5393 13.8074 11.5607 13.8179 11.5619 13.836C11.5956 14.3512 11.5766 14.8132 11.5129 15.2305C11.5007 15.2244 11.4885 15.2183 11.4762 15.2122ZM10.6072 14.9903C10.6057 15.0182 10.5693 15.0246 10.5556 15.005C10.2785 14.6314 10.0503 14.2929 9.91079 14.0176C9.90095 13.9877 9.92768 13.9579 9.98087 13.9623C10.2399 13.9744 10.465 13.9318 10.5961 13.7376C10.6029 13.7227 10.6279 13.7192 10.6404 13.7376C10.6486 13.7768 10.6802 13.835 10.7214 13.8481C10.6282 14.2288 10.6202 14.6095 10.6072 14.9903Z" fill="black"/>
</g>
<defs>
<clipPath id="clip0_3799_6154">
<rect width="20" height="20" fill="white" transform="translate(0.155273 0.129395)"/>
</clipPath>
</defs>
</svg>
