<svg width="16" height="4" viewBox="0 0 16 4" fill="none" xmlns="http://www.w3.org/2000/svg">
<path d="M15.0048 3.03687C14.8343 3.03687 14.6871 2.99922 14.5634 2.92393C14.4405 2.84787 14.3456 2.74185 14.2788 2.60587C14.2127 2.46912 14.1797 2.31008 14.1797 2.12877C14.1797 1.94746 14.2127 1.78766 14.2788 1.64937C14.3456 1.51031 14.4386 1.40199 14.5577 1.32439C14.6775 1.24603 14.8173 1.20685 14.9771 1.20685C15.0693 1.20685 15.1604 1.22221 15.2503 1.25294C15.3402 1.28368 15.422 1.33361 15.4957 1.40276C15.5695 1.47113 15.6283 1.56179 15.6721 1.67472C15.7158 1.78766 15.7377 1.92672 15.7377 2.09189V2.20714H14.3733V1.97204H15.4612C15.4612 1.87217 15.4412 1.78305 15.4012 1.70469C15.3621 1.62632 15.306 1.56448 15.233 1.51915C15.1608 1.47382 15.0755 1.45116 14.9771 1.45116C14.8688 1.45116 14.7751 1.47805 14.696 1.53183C14.6176 1.58484 14.5573 1.65398 14.515 1.73926C14.4728 1.82454 14.4517 1.91596 14.4517 2.01353V2.17026C14.4517 2.30394 14.4747 2.41726 14.5208 2.51022C14.5677 2.60241 14.6326 2.67271 14.7156 2.72111C14.7985 2.76874 14.8949 2.79256 15.0048 2.79256C15.0763 2.79256 15.1408 2.78257 15.1984 2.76259C15.2568 2.74185 15.3071 2.71112 15.3494 2.6704C15.3916 2.62892 15.4243 2.57744 15.4473 2.51598L15.7101 2.58973C15.6824 2.67885 15.6359 2.75722 15.5706 2.82482C15.5053 2.89166 15.4247 2.94391 15.3286 2.98155C15.2326 3.01843 15.1247 3.03687 15.0048 3.03687Z" fill="black"/>
<path d="M13.2065 2.99999V1.2299H13.4693V1.49726H13.4877C13.52 1.40967 13.5784 1.33861 13.6629 1.28406C13.7474 1.22951 13.8427 1.20224 13.9487 1.20224C13.9687 1.20224 13.9936 1.20262 14.0236 1.20339C14.0536 1.20416 14.0762 1.20531 14.0916 1.20685V1.48343C14.0824 1.48112 14.0612 1.47766 14.0282 1.47306C13.9959 1.46768 13.9618 1.46499 13.9256 1.46499C13.8396 1.46499 13.7628 1.48304 13.6952 1.51915C13.6283 1.55449 13.5753 1.60366 13.5361 1.66666C13.4977 1.72889 13.4785 1.79995 13.4785 1.87985V2.99999H13.2065Z" fill="black"/>
<path d="M12.0867 3.03687C11.9269 3.03687 11.7867 2.99884 11.6661 2.92278C11.5463 2.84672 11.4525 2.74031 11.3849 2.60356C11.3181 2.46681 11.2847 2.30701 11.2847 2.12416C11.2847 1.93978 11.3181 1.77882 11.3849 1.6413C11.4525 1.50378 11.5463 1.39699 11.6661 1.32094C11.7867 1.24488 11.9269 1.20685 12.0867 1.20685C12.2465 1.20685 12.3864 1.24488 12.5062 1.32094C12.6268 1.39699 12.7206 1.50378 12.7874 1.6413C12.855 1.77882 12.8888 1.93978 12.8888 2.12416C12.8888 2.30701 12.855 2.46681 12.7874 2.60356C12.7206 2.74031 12.6268 2.84672 12.5062 2.92278C12.3864 2.99884 12.2465 3.03687 12.0867 3.03687ZM12.0867 2.79256C12.2081 2.79256 12.308 2.76144 12.3864 2.69921C12.4647 2.63698 12.5227 2.55516 12.5604 2.45375C12.598 2.35234 12.6168 2.24248 12.6168 2.12416C12.6168 2.00585 12.598 1.8956 12.5604 1.79342C12.5227 1.69124 12.4647 1.60865 12.3864 1.54565C12.308 1.48266 12.2081 1.45116 12.0867 1.45116C11.9654 1.45116 11.8655 1.48266 11.7871 1.54565C11.7088 1.60865 11.6507 1.69124 11.6131 1.79342C11.5755 1.8956 11.5566 2.00585 11.5566 2.12416C11.5566 2.24248 11.5755 2.35234 11.6131 2.45375C11.6507 2.55516 11.7088 2.63698 11.7871 2.69921C11.8655 2.76144 11.9654 2.79256 12.0867 2.79256Z" fill="black"/>
<path d="M11.0745 1.2299V1.46038H10.1572V1.2299H11.0745ZM10.4246 0.805817H10.6966V2.49294C10.6966 2.56976 10.7077 2.62738 10.73 2.6658C10.753 2.70344 10.7822 2.7288 10.8176 2.74186C10.8537 2.75415 10.8917 2.76029 10.9316 2.76029C10.9616 2.76029 10.9862 2.75876 11.0054 2.75569C11.0246 2.75184 11.04 2.74877 11.0515 2.74647L11.1068 2.99078C11.0884 2.99769 11.0626 3.0046 11.0296 3.01152C10.9966 3.0192 10.9547 3.02304 10.904 3.02304C10.8272 3.02304 10.7519 3.00653 10.6781 2.97349C10.6051 2.94045 10.5444 2.89013 10.496 2.82252C10.4484 2.75492 10.4246 2.66964 10.4246 2.56669V0.805817Z" fill="black"/>
<path d="M9.66017 1.2299C9.64634 1.11313 9.59026 1.02247 9.49192 0.957936C9.39358 0.893401 9.27296 0.861134 9.13006 0.861134C9.02558 0.861134 8.93416 0.878036 8.85579 0.91184C8.7782 0.945644 8.7175 0.992124 8.67371 1.05128C8.63069 1.11044 8.60918 1.17766 8.60918 1.25295C8.60918 1.31595 8.62416 1.37011 8.65412 1.41544C8.68485 1.46 8.72403 1.49726 8.77167 1.52722C8.8193 1.55642 8.86924 1.58062 8.92148 1.59983C8.97372 1.61826 9.02174 1.63324 9.06553 1.64477L9.30523 1.7093C9.36669 1.72544 9.43507 1.74772 9.51036 1.77614C9.58642 1.80457 9.65902 1.84337 9.72816 1.89254C9.79808 1.94094 9.8557 2.00317 9.90102 2.07923C9.94635 2.15528 9.96902 2.24863 9.96902 2.35926C9.96902 2.48679 9.9356 2.60203 9.86876 2.70498C9.80269 2.80793 9.70588 2.88975 9.57835 2.95044C9.45159 3.01114 9.29755 3.04148 9.11624 3.04148C8.94722 3.04148 8.80086 3.01421 8.67717 2.95966C8.55425 2.90512 8.45745 2.82906 8.38676 2.73149C8.31685 2.63392 8.27729 2.5206 8.26807 2.39153H8.56308C8.57077 2.48065 8.60073 2.5544 8.65297 2.61279C8.70598 2.67041 8.77282 2.71343 8.85349 2.74186C8.93492 2.76952 9.02251 2.78334 9.11624 2.78334C9.22533 2.78334 9.32329 2.76567 9.4101 2.73033C9.49691 2.69423 9.56567 2.64429 9.61638 2.58052C9.66709 2.51599 9.69244 2.4407 9.69244 2.35465C9.69244 2.27629 9.67054 2.21252 9.62675 2.16335C9.58296 2.11418 9.52534 2.07423 9.45389 2.0435C9.38244 2.01277 9.30523 1.98588 9.22226 1.96283L8.93185 1.87986C8.74747 1.82685 8.6015 1.75117 8.49394 1.65284C8.38638 1.5545 8.3326 1.42581 8.3326 1.26678C8.3326 1.13464 8.36833 1.0194 8.43978 0.921059C8.51199 0.821952 8.60879 0.745125 8.73018 0.690578C8.85234 0.635263 8.9887 0.607605 9.13928 0.607605C9.2914 0.607605 9.42662 0.634879 9.54493 0.689426C9.66324 0.743205 9.75697 0.816958 9.82612 0.910687C9.89603 1.00442 9.93291 1.11082 9.93675 1.2299H9.66017Z" fill="black"/>
<path d="M6.40723 2.99999V1.2299H6.66997V1.49726H6.68841C6.72068 1.40967 6.77907 1.33861 6.86358 1.28406C6.94809 1.22951 7.04335 1.20224 7.14937 1.20224C7.16935 1.20224 7.19432 1.20262 7.22428 1.20339C7.25424 1.20416 7.27691 1.20531 7.29227 1.20685V1.48343C7.28305 1.48112 7.26193 1.47766 7.22889 1.47306C7.19662 1.46768 7.16244 1.46499 7.12633 1.46499C7.04028 1.46499 6.96345 1.48304 6.89585 1.51915C6.82901 1.55449 6.776 1.60366 6.73681 1.66666C6.6984 1.72889 6.67919 1.79995 6.67919 1.87985V2.99999H6.40723Z" fill="black"/>
<path d="M5.35833 3.03687C5.18777 3.03687 5.04065 2.99922 4.91695 2.92393C4.79403 2.84787 4.69915 2.74185 4.63231 2.60587C4.56624 2.46912 4.5332 2.31008 4.5332 2.12877C4.5332 1.94746 4.56624 1.78766 4.63231 1.64937C4.69915 1.51031 4.79211 1.40199 4.91119 1.32439C5.03104 1.24603 5.17087 1.20685 5.33067 1.20685C5.42286 1.20685 5.5139 1.22221 5.60379 1.25294C5.69368 1.28368 5.7755 1.33361 5.84925 1.40276C5.923 1.47113 5.98178 1.56179 6.02557 1.67472C6.06936 1.78766 6.09125 1.92672 6.09125 2.09189V2.20714H4.72681V1.97204H5.81468C5.81468 1.87217 5.7947 1.78305 5.75475 1.70469C5.71557 1.62632 5.65949 1.56448 5.5865 1.51915C5.51428 1.47382 5.42901 1.45116 5.33067 1.45116C5.22234 1.45116 5.12861 1.47805 5.04948 1.53183C4.97112 1.58484 4.91081 1.65398 4.86855 1.73926C4.8263 1.82454 4.80517 1.91596 4.80517 2.01353V2.17026C4.80517 2.30394 4.82822 2.41726 4.87432 2.51022C4.92118 2.60241 4.9861 2.67271 5.06907 2.72111C5.15204 2.76874 5.24846 2.79256 5.35833 2.79256C5.42977 2.79256 5.49431 2.78257 5.55193 2.76259C5.61032 2.74185 5.66064 2.71112 5.70289 2.6704C5.74515 2.62892 5.7778 2.57744 5.80085 2.51598L6.0636 2.58973C6.03594 2.67885 5.98946 2.75722 5.92416 2.82482C5.85885 2.89166 5.77818 2.94391 5.68215 2.98155C5.58612 3.01843 5.47818 3.03687 5.35833 3.03687Z" fill="black"/>
<path d="M3.56682 3.03687C3.39626 3.03687 3.24914 2.99922 3.12545 2.92393C3.00253 2.84787 2.90764 2.74185 2.84081 2.60587C2.77473 2.46912 2.7417 2.31008 2.7417 2.12877C2.7417 1.94746 2.77473 1.78766 2.84081 1.64937C2.90764 1.51031 3.00061 1.40199 3.11969 1.32439C3.23954 1.24603 3.37936 1.20685 3.53916 1.20685C3.63136 1.20685 3.7224 1.22221 3.81228 1.25294C3.90217 1.28368 3.98399 1.33361 4.05774 1.40276C4.1315 1.47113 4.19027 1.56179 4.23406 1.67472C4.27785 1.78766 4.29975 1.92672 4.29975 2.09189V2.20714H2.9353V1.97204H4.02317C4.02317 1.87217 4.0032 1.78305 3.96325 1.70469C3.92407 1.62632 3.86798 1.56448 3.795 1.51915C3.72278 1.47382 3.6375 1.45116 3.53916 1.45116C3.43084 1.45116 3.33711 1.47805 3.25798 1.53183C3.17961 1.58484 3.1193 1.65398 3.07705 1.73926C3.03479 1.82454 3.01367 1.91596 3.01367 2.01353V2.17026C3.01367 2.30394 3.03671 2.41726 3.08281 2.51022C3.12968 2.60241 3.19459 2.67271 3.27757 2.72111C3.36054 2.76874 3.45696 2.79256 3.56682 2.79256C3.63827 2.79256 3.7028 2.78257 3.76042 2.76259C3.81881 2.74185 3.86913 2.71112 3.91139 2.6704C3.95364 2.62892 3.9863 2.57744 4.00934 2.51598L4.27209 2.58973C4.24443 2.67885 4.19795 2.75722 4.13265 2.82482C4.06735 2.89166 3.98668 2.94391 3.89065 2.98155C3.79461 3.01843 3.68667 3.03687 3.56682 3.03687Z" fill="black"/>
<path d="M0.848145 3V0.639877H1.67327C1.83768 0.639877 1.97328 0.668303 2.08007 0.725155C2.18685 0.781239 2.26637 0.856913 2.31861 0.952179C2.37085 1.04668 2.39698 1.15154 2.39698 1.26679C2.39698 1.3682 2.37892 1.45194 2.34281 1.51801C2.30747 1.58408 2.26061 1.63632 2.20222 1.67474C2.1446 1.71315 2.08199 1.74158 2.01438 1.76001V1.78306C2.0866 1.78767 2.1592 1.81303 2.23218 1.85912C2.30517 1.90522 2.36625 1.97129 2.41541 2.05733C2.46458 2.14338 2.48917 2.24863 2.48917 2.37309C2.48917 2.49141 2.46228 2.59781 2.4085 2.69231C2.35472 2.78681 2.26983 2.86171 2.15382 2.91703C2.03781 2.97234 1.88685 3 1.70092 3H0.848145ZM1.13394 2.74647H1.70092C1.88761 2.74647 2.02014 2.71036 2.0985 2.63815C2.17764 2.56516 2.2172 2.47681 2.2172 2.37309C2.2172 2.29319 2.19684 2.21944 2.15612 2.15183C2.11541 2.08346 2.0574 2.02891 1.98211 1.98819C1.90682 1.9467 1.8177 1.92596 1.71475 1.92596H1.13394V2.74647ZM1.13394 1.67704H1.66405C1.75009 1.67704 1.82769 1.66014 1.89683 1.62634C1.96675 1.59253 2.02206 1.5449 2.06278 1.48344C2.10427 1.42198 2.12501 1.34976 2.12501 1.26679C2.12501 1.16307 2.0889 1.0751 2.01668 1.00288C1.94447 0.929899 1.82999 0.893406 1.67327 0.893406H1.13394V1.67704Z" fill="black"/>
</svg>
