<svg width="15" height="9" viewBox="0 0 15 9" fill="none" xmlns="http://www.w3.org/2000/svg">
<g clip-path="url(#clip0_3790_7330)">
<path d="M13.2082 5.31989L13.0034 2.67872L12.8114 5.31989H13.2082ZM15 8.9249H13.5666L13.3234 6.54659H12.6834L12.4403 8.9249H11.0068L12.0819 0.0751043H13.9249L15 8.9249ZM10.802 8.9249H9.31741L8.33191 4.20584V8.9249H7.12884V0.0751043H8.76707L9.59898 4.11822V0.0751043H10.802V8.9249ZM5.42662 7.49791V1.47705C5.42662 1.30181 5.34983 1.21419 5.19625 1.21419C5.04266 1.21419 4.95307 1.30181 4.95307 1.47705V7.49791C4.95307 7.67316 5.02986 7.76078 5.19625 7.76078C5.36263 7.76078 5.42662 7.67316 5.42662 7.49791ZM3.55802 7.41029V1.71488C3.55802 0.563282 4.10836 0 5.20904 0C6.30973 0 6.83447 0.563282 6.83447 1.70236V7.39777C6.83447 7.91099 6.68089 8.31154 6.38652 8.58693C6.07935 8.86231 5.69539 9 5.20904 9C4.12116 9 3.57082 8.47427 3.57082 7.41029H3.55802ZM1.8558 7.32267V5.08206C1.8558 4.76912 1.72782 4.61892 1.45904 4.61892V7.79833C1.72782 7.79833 1.8558 7.64812 1.8558 7.32267ZM1.8558 3.19193V1.67733C1.8558 1.3644 1.72782 1.21419 1.45904 1.21419V3.65508C1.72782 3.65508 1.8558 3.50487 1.8558 3.17942V3.19193ZM0 8.9249V0.0751043H1.70222C2.11177 0.0751043 2.45734 0.200278 2.76451 0.450626C3.05887 0.700974 3.21246 1.10153 3.21246 1.63978V2.86648C3.21246 3.49235 2.93089 3.93046 2.36775 4.18081C2.95648 4.38108 3.25085 4.80668 3.25085 5.45758V7.17246C3.25085 7.76078 3.11007 8.19889 2.8285 8.48679C2.54693 8.77469 2.21416 8.9249 1.81741 8.9249H0Z" fill="black"/>
</g>
<defs>
<clipPath id="clip0_3790_7330">
<rect width="15" height="9" fill="white"/>
</clipPath>
</defs>
</svg>
