<svg width="15" height="14" viewBox="0 0 15 14" fill="none" xmlns="http://www.w3.org/2000/svg">
<g clip-path="url(#clip0_3790_7228)">
<path d="M4.46343 8.8662C3.61131 9.2198 0.770914 9.95319 0.108154 9.02335C0.689759 9.71746 2.19111 9.44244 2.88092 9.18051C4.07118 8.81381 4.90978 7.73991 5.62664 6.81007C6.05946 6.23383 7.15504 4.51821 7.77723 3.30025C8.25063 2.3966 8.80518 1.55843 9.40031 1.10006C9.6032 0.942903 9.80608 0.77265 10.036 0.641687C10.4959 0.366663 11.0099 0.183314 11.5644 0.104736V0.144025C11.1722 0.222603 10.7394 0.602398 10.3742 1.07387C9.64377 2.0299 9.22448 2.95974 8.73755 3.88958C8.12889 5.05516 7.52024 6.20764 6.62754 7.18986C5.97831 7.91016 5.20734 8.56498 4.46343 8.87929" fill="black"/>
<mask id="mask0_3790_7228" style="mask-type:luminance" maskUnits="userSpaceOnUse" x="5" y="7" width="9" height="3">
<path d="M5.95129 7.85779C7.72315 8.32926 9.79258 9.08884 11.4157 9.15433C12.2002 9.18052 12.917 8.98407 13.3769 8.63047C11.5645 10.2413 8.45354 9.2591 5.275 8.40784C5.24795 8.43403 5.2209 8.43403 5.19385 8.46022L5.26148 8.42093L5.95129 7.87088V7.85779Z" fill="white"/>
</mask>
<g mask="url(#mask0_3790_7228)">
<path d="M13.3903 7.85779H5.20728V10.2544H13.3903V7.85779Z" fill="black"/>
</g>
<mask id="mask1_3790_7228" style="mask-type:luminance" maskUnits="userSpaceOnUse" x="0" y="7" width="5" height="3">
<path d="M0.108258 9.04954C0.0406293 8.94476 5.21764e-05 8.8269 0.0135779 8.72213C0.0135779 8.60426 0.0676807 8.48639 0.148835 8.38162C0.906274 7.34701 3.80077 7.34701 4.97751 7.63513L4.73405 7.89706L4.49058 8.14589C3.90898 7.96254 1.79897 7.49107 1.06858 8.01492C0.933325 8.11969 0.838646 8.27685 0.82512 8.48639C0.82512 8.60426 0.852171 8.70903 0.9198 8.8138C1.24442 9.27217 1.9207 9.36385 2.55641 9.25908C2.66461 9.24598 2.8134 9.1936 2.90808 9.1674C2.21827 9.44243 0.662811 9.74364 0.0812064 9.04954" fill="white"/>
</mask>
<g mask="url(#mask1_3790_7228)">
<path d="M4.97746 7.33386H0V9.74359H4.97746V7.33386Z" fill="black"/>
</g>
<mask id="mask2_3790_7228" style="mask-type:luminance" maskUnits="userSpaceOnUse" x="7" y="0" width="7" height="6">
<path d="M12.5518 3.811C12.2678 3.75861 11.9702 3.69313 11.6726 3.60146C11.5239 3.73242 11.3616 3.85029 11.1992 3.96815C10.4012 4.5182 9.22449 5.00277 7.92603 5.35637L7.98013 5.27779C8.73757 5.09444 9.58969 4.72774 10.3742 4.20389C10.7123 3.96815 10.9964 3.71932 11.2398 3.4574C10.7258 3.27405 10.2119 3.05141 9.69789 2.84187L9.94135 2.50136C10.4689 2.7109 10.9828 2.93354 11.5103 3.14308C11.8755 2.64542 12.1731 2.0037 12.2407 1.55842C12.3895 0.471428 12.0784 -4.1265e-05 11.5644 0.130922V0.0916332C11.7673 0.0654405 11.9702 0.0523441 12.1596 0.0654405C12.5518 0.10473 12.89 0.248789 13.0117 0.615487C13.0793 0.825029 13.0928 1.07386 13.0658 1.36198C12.9846 1.92512 12.5924 2.68471 12.0108 3.31334C12.3219 3.4312 12.6059 3.52288 12.8629 3.58836L12.5789 3.7979L12.5518 3.811Z" fill="white"/>
</mask>
<g mask="url(#mask2_3790_7228)">
<path d="M13.0793 0H7.92603V5.35641H13.0793V0Z" fill="black"/>
</g>
<mask id="mask3_3790_7228" style="mask-type:luminance" maskUnits="userSpaceOnUse" x="9" y="2" width="7" height="2">
<path d="M9.60318 2.22637L9.64376 2.16089C9.64376 2.16089 9.61671 2.21327 9.60318 2.22637ZM14.9999 3.28718C14.2695 4.02057 13.0387 3.98128 11.7538 3.61458L11.2263 3.43123C10.5906 3.1955 9.96837 2.93357 9.34619 2.68474L9.54908 2.31804C10.036 2.50139 10.5094 2.69784 10.9963 2.89428C11.4833 3.09073 12.0919 3.35266 12.5788 3.49672C13.9449 3.9027 14.5806 3.62768 15.0135 3.27408L14.9999 3.28718Z" fill="white"/>
</mask>
<g mask="url(#mask3_3790_7228)">
<path d="M14.9999 2.16089H9.34619V4.03367H14.9999V2.16089Z" fill="black"/>
</g>
<mask id="mask4_3790_7228" style="mask-type:luminance" maskUnits="userSpaceOnUse" x="1" y="1" width="8" height="5">
<path d="M6.42473 5.63139C5.57261 5.76235 4.69344 5.82783 3.94952 5.74926C2.75926 5.61829 1.96125 5.17302 1.58253 4.63607C1.39317 4.37414 1.31201 4.08602 1.31201 3.7979C1.31201 3.50978 1.43374 3.22166 1.65015 2.94664C1.9883 2.51446 2.59695 2.09537 3.50317 1.83345C5.39677 1.30959 6.66819 1.45365 8.58884 1.97751L8.34537 2.33111C7.14159 1.89893 5.89722 1.58462 4.72049 1.68939C3.63843 1.78106 2.89452 2.20014 2.48875 2.7109C2.27234 2.98593 2.16413 3.27405 2.15061 3.56217C2.15061 3.85028 2.23176 4.1384 2.40759 4.40033C2.78631 4.95038 3.58433 5.38256 4.77459 5.51352C5.31562 5.579 5.87017 5.5921 6.47883 5.52662L6.4112 5.63139H6.42473Z" fill="white"/>
</mask>
<g mask="url(#mask4_3790_7228)">
<path d="M8.57541 1.29651H1.29858V5.82785H8.57541V1.29651Z" fill="black"/>
</g>
<path d="M1.67723 12.1272C1.67723 11.9176 1.6096 11.7343 1.47435 11.6033C1.33909 11.4593 1.17678 11.3938 0.973897 11.3938C0.771012 11.3938 0.622229 11.4593 0.486972 11.6033C0.365241 11.7474 0.297612 11.9176 0.297612 12.1272C0.297612 12.3498 0.351715 12.5201 0.473446 12.651C0.595177 12.7951 0.757486 12.8606 0.973897 12.8606C1.17678 12.8606 1.33909 12.782 1.47435 12.6379C1.6096 12.4939 1.67723 12.3236 1.67723 12.1141M1.89364 12.1141C1.89364 12.376 1.81249 12.5986 1.65018 12.7689C1.47435 12.9522 1.25794 13.0308 0.987423 13.0308C0.716909 13.0308 0.486972 12.913 0.311138 12.6641V12.9522H0.0947266V10.1627H0.311138V11.289C0.311138 11.3545 0.311138 11.4462 0.311138 11.564C0.45992 11.3152 0.689857 11.1842 0.973897 11.1842C1.24441 11.1842 1.47435 11.2759 1.63666 11.4462C1.81249 11.6164 1.89364 11.8391 1.89364 12.101V12.1141Z" fill="black"/>
<path d="M3.86825 12.1272C3.86825 11.9046 3.7871 11.7343 3.63832 11.5902C3.48953 11.4593 3.32722 11.3938 3.12434 11.3938C2.92145 11.3938 2.74562 11.4593 2.59684 11.5902C2.44805 11.7343 2.3669 11.9046 2.3669 12.1272C2.3669 12.3498 2.44805 12.5201 2.59684 12.6641C2.74562 12.7951 2.92145 12.8606 3.12434 12.8606C3.32722 12.8606 3.50306 12.7951 3.63832 12.6641C3.7871 12.5201 3.86825 12.3498 3.86825 12.1272ZM4.08466 12.1272C4.08466 12.3891 3.98998 12.6118 3.81415 12.782C3.62479 12.9523 3.39485 13.0439 3.11081 13.0439C2.82677 13.0439 2.59684 12.9523 2.40748 12.782C2.21812 12.6118 2.13696 12.3891 2.13696 12.1272C2.13696 11.8653 2.23164 11.6426 2.40748 11.4724C2.59684 11.3021 2.82677 11.2104 3.11081 11.2104C3.39485 11.2104 3.62479 11.3021 3.81415 11.4724C3.98998 11.6426 4.08466 11.8653 4.08466 12.1272Z" fill="black"/>
<path d="M5.85662 12.3106C5.85662 12.5333 5.80252 12.7035 5.69432 12.8345C5.57258 12.9785 5.39675 13.044 5.15329 13.044C4.90982 13.044 4.73399 12.9785 4.61226 12.8345C4.50405 12.7035 4.44995 12.5333 4.44995 12.3106V11.276H4.66636V12.3106C4.66636 12.6773 4.82867 12.8738 5.16681 12.8738C5.50496 12.8738 5.66726 12.6904 5.66726 12.3106V11.276H5.87015V12.3106H5.85662Z" fill="black"/>
<path d="M6.92507 11.4593H6.55987V12.9785H6.34346V11.4593H6.11353V11.276H6.34346V10.6866H6.55987V11.276H6.92507V11.4593Z" fill="black"/>
<path d="M7.29039 12.9785H7.07398V11.276H7.29039V12.9785ZM7.35802 10.6735C7.35802 10.6735 7.34449 10.7652 7.30391 10.7914C7.27686 10.8176 7.23628 10.8438 7.18218 10.8438C7.12808 10.8438 7.0875 10.8307 7.06045 10.7914C7.0334 10.7652 7.00635 10.7128 7.00635 10.6735C7.00635 10.6343 7.01987 10.5819 7.06045 10.5557C7.0875 10.5295 7.12808 10.5033 7.18218 10.5033C7.23628 10.5033 7.27686 10.5164 7.30391 10.5557C7.33096 10.5819 7.35802 10.6343 7.35802 10.6735Z" fill="black"/>
<path d="M9.25165 12.1272C9.25165 11.9046 9.19755 11.7343 9.07581 11.6033C8.95408 11.4593 8.77825 11.3938 8.57536 11.3938C8.37248 11.3938 8.21017 11.4593 8.07491 11.6033C7.93965 11.7474 7.87203 11.9177 7.87203 12.1272C7.87203 12.3367 7.93965 12.5201 8.07491 12.651C8.21017 12.7951 8.37248 12.8606 8.57536 12.8606C8.77825 12.8606 8.92703 12.7951 9.06229 12.651C9.19754 12.507 9.25165 12.3367 9.25165 12.1272ZM9.45453 14H9.23812V12.9392C9.23812 12.8737 9.23812 12.782 9.23812 12.6641C9.08934 12.9261 8.8594 13.0439 8.56184 13.0439C8.29132 13.0439 8.06139 12.9523 7.89908 12.782C7.72324 12.6118 7.64209 12.3891 7.64209 12.1272C7.64209 11.8653 7.72324 11.6426 7.88555 11.4724C8.06139 11.289 8.2778 11.2104 8.54831 11.2104C8.81883 11.2104 9.04876 11.3283 9.2246 11.5771V11.289H9.42748V14.0131L9.45453 14Z" fill="black"/>
<path d="M11.3481 12.3106C11.3481 12.5333 11.294 12.7035 11.1858 12.8345C11.064 12.9785 10.8882 13.044 10.6447 13.044C10.4013 13.044 10.2254 12.9785 10.1037 12.8345C9.99551 12.7035 9.94141 12.5333 9.94141 12.3106V11.276H10.1578V12.3106C10.1578 12.6773 10.3201 12.8738 10.6583 12.8738C10.9964 12.8738 11.1587 12.6904 11.1587 12.3106V11.276H11.3616V12.3106H11.3481Z" fill="black"/>
<path d="M13.2145 11.9439C13.174 11.7737 13.0793 11.6296 12.9576 11.5248C12.8358 11.4201 12.687 11.3677 12.5247 11.3677C12.3624 11.3677 12.2272 11.4201 12.0919 11.5248C11.9566 11.6296 11.8755 11.7737 11.8349 11.9439H13.2145ZM13.431 12.1142H11.8214C11.8214 12.3368 11.889 12.5202 12.0108 12.6511C12.1325 12.7821 12.3083 12.8607 12.5247 12.8607C12.8358 12.8607 13.0522 12.7428 13.1469 12.494H13.3768C13.3092 12.6642 13.2145 12.7952 13.0658 12.9C12.917 13.0047 12.7276 13.0571 12.5247 13.0571C12.2407 13.0571 12.0243 12.9654 11.8484 12.7952C11.6861 12.6249 11.605 12.4023 11.605 12.1404C11.605 11.8785 11.6861 11.6558 11.862 11.4856C12.0378 11.3153 12.2542 11.2236 12.5247 11.2236C12.7952 11.2236 13.0117 11.3153 13.1875 11.4856C13.3498 11.6558 13.4445 11.8785 13.4445 12.1404L13.431 12.1142Z" fill="black"/>
</g>
<defs>
<clipPath id="clip0_3790_7228">
<rect width="15" height="14" fill="white"/>
</clipPath>
</defs>
</svg>
