<svg width="17" height="4" viewBox="0 0 17 4" fill="none" xmlns="http://www.w3.org/2000/svg">
<path d="M14.749 3.20534V0.771461H15.0118V1.05265H15.044C15.064 1.02192 15.0917 0.982735 15.127 0.935102C15.1631 0.886702 15.2146 0.843679 15.2814 0.806033C15.349 0.76762 15.4405 0.748413 15.5557 0.748413C15.7048 0.748413 15.8361 0.785674 15.9498 0.860196C16.0635 0.934718 16.1523 1.04036 16.216 1.17711C16.2798 1.31386 16.3117 1.4752 16.3117 1.66112C16.3117 1.84858 16.2798 2.01106 16.216 2.14858C16.1523 2.28534 16.0639 2.39136 15.951 2.46665C15.838 2.54117 15.7078 2.57843 15.5603 2.57843C15.4466 2.57843 15.3556 2.55961 15.2872 2.52196C15.2188 2.48355 15.1662 2.44014 15.1293 2.39174C15.0924 2.34257 15.064 2.30185 15.044 2.26959H15.021V3.20534H14.749ZM15.0164 1.65651C15.0164 1.79019 15.036 1.90812 15.0752 2.0103C15.1143 2.11171 15.1716 2.19122 15.2469 2.24884C15.3222 2.3057 15.4143 2.33412 15.5234 2.33412C15.6371 2.33412 15.732 2.30416 15.8081 2.24423C15.8849 2.18354 15.9425 2.1021 15.9809 1.99992C16.0201 1.89698 16.0397 1.7825 16.0397 1.65651C16.0397 1.53205 16.0205 1.41988 15.9821 1.32001C15.9445 1.21936 15.8872 1.13985 15.8104 1.08146C15.7343 1.0223 15.6387 0.992723 15.5234 0.992723C15.4128 0.992723 15.3198 1.02076 15.2446 1.07685C15.1693 1.13216 15.1124 1.20976 15.074 1.30963C15.0356 1.40874 15.0164 1.52437 15.0164 1.65651Z" fill="black"/>
<path d="M13.6292 2.57843C13.4694 2.57843 13.3292 2.5404 13.2086 2.46434C13.0887 2.38828 12.995 2.28188 12.9274 2.14513C12.8606 2.00838 12.8271 1.84858 12.8271 1.66573C12.8271 1.48134 12.8606 1.32039 12.9274 1.18287C12.995 1.04535 13.0887 0.93856 13.2086 0.862501C13.3292 0.786442 13.4694 0.748413 13.6292 0.748413C13.789 0.748413 13.9288 0.786442 14.0487 0.862501C14.1693 0.93856 14.263 1.04535 14.3299 1.18287C14.3975 1.32039 14.4313 1.48134 14.4313 1.66573C14.4313 1.84858 14.3975 2.00838 14.3299 2.14513C14.263 2.28188 14.1693 2.38828 14.0487 2.46434C13.9288 2.5404 13.789 2.57843 13.6292 2.57843ZM13.6292 2.33412C13.7506 2.33412 13.8505 2.30301 13.9288 2.24078C14.0072 2.17855 14.0652 2.09673 14.1029 1.99531C14.1405 1.8939 14.1593 1.78404 14.1593 1.66573C14.1593 1.54741 14.1405 1.43717 14.1029 1.33499C14.0652 1.23281 14.0072 1.15022 13.9288 1.08722C13.8505 1.02422 13.7506 0.992723 13.6292 0.992723C13.5078 0.992723 13.408 1.02422 13.3296 1.08722C13.2512 1.15022 13.1932 1.23281 13.1556 1.33499C13.1179 1.43717 13.0991 1.54741 13.0991 1.66573C13.0991 1.78404 13.1179 1.8939 13.1556 1.99531C13.1932 2.09673 13.2512 2.17855 13.3296 2.24078C13.408 2.30301 13.5078 2.33412 13.6292 2.33412Z" fill="black"/>
<path d="M11.3621 1.4767V2.54152H11.0901V0.181396H11.3621V1.048H11.3851C11.4266 0.95658 11.4888 0.883979 11.5718 0.8302C11.6555 0.775653 11.7669 0.74838 11.906 0.74838C12.0266 0.74838 12.1322 0.77258 12.2229 0.820981C12.3136 0.868614 12.3839 0.941983 12.4338 1.04109C12.4845 1.13943 12.5099 1.26466 12.5099 1.41677V2.54152H12.2379V1.43521C12.2379 1.29462 12.2014 1.18591 12.1284 1.10908C12.0562 1.03149 11.9559 0.992689 11.8276 0.992689C11.7385 0.992689 11.6586 1.01151 11.5879 1.04916C11.518 1.0868 11.4627 1.14173 11.422 1.21395C11.382 1.28617 11.3621 1.37375 11.3621 1.4767Z" fill="black"/>
<path d="M10.7458 1.16789L10.5014 1.23703C10.4861 1.19631 10.4634 1.15675 10.4335 1.11833C10.4043 1.07915 10.3643 1.04689 10.3136 1.02153C10.2629 0.99618 10.198 0.983503 10.1188 0.983503C10.0105 0.983503 9.92025 1.00847 9.84803 1.05841C9.77658 1.10758 9.74086 1.17019 9.74086 1.24625C9.74086 1.31386 9.76544 1.36725 9.81461 1.40644C9.86378 1.44562 9.94061 1.47827 10.0451 1.50439L10.3078 1.56893C10.4661 1.60734 10.584 1.66611 10.6616 1.74524C10.7392 1.82361 10.778 1.92463 10.778 2.04833C10.778 2.14974 10.7488 2.24039 10.6904 2.32029C10.6328 2.40019 10.5521 2.46319 10.4484 2.50929C10.3447 2.55538 10.2241 2.57843 10.0866 2.57843C9.90604 2.57843 9.75661 2.53925 9.63829 2.46089C9.51998 2.38252 9.44507 2.26805 9.41357 2.11747L9.67171 2.05293C9.6963 2.1482 9.74278 2.21965 9.81115 2.26728C9.8803 2.31491 9.97057 2.33873 10.082 2.33873C10.2087 2.33873 10.3094 2.31184 10.3839 2.25806C10.4592 2.20352 10.4968 2.13821 10.4968 2.06215C10.4968 2.00069 10.4753 1.94922 10.4323 1.90773C10.3893 1.86548 10.3232 1.83398 10.2341 1.81323L9.93907 1.74409C9.77697 1.70568 9.65788 1.64614 9.58183 1.56547C9.50653 1.48403 9.46889 1.38224 9.46889 1.26008C9.46889 1.16021 9.49693 1.07185 9.55301 0.995028C9.60987 0.918201 9.68708 0.857891 9.78465 0.8141C9.88299 0.770309 9.99439 0.748413 10.1188 0.748413C10.294 0.748413 10.4315 0.786827 10.5314 0.863653C10.632 0.94048 10.7035 1.04189 10.7458 1.16789Z" fill="black"/>
<path d="M8.36482 0.771497V1.00198H7.44751V0.771497H8.36482ZM7.71487 0.347412H7.98683V2.03453C7.98683 2.11136 7.99797 2.16898 8.02025 2.20739C8.0433 2.24504 8.0725 2.27039 8.10784 2.28345C8.14395 2.29574 8.18198 2.30189 8.22193 2.30189C8.25189 2.30189 8.27647 2.30035 8.29568 2.29728C8.31489 2.29344 8.33025 2.29037 8.34177 2.28806L8.39709 2.53237C8.37865 2.53929 8.35292 2.5462 8.31988 2.55311C8.28684 2.5608 8.24497 2.56464 8.19427 2.56464C8.11744 2.56464 8.04215 2.54812 7.9684 2.51508C7.89541 2.48205 7.83472 2.43173 7.78632 2.36412C7.73868 2.29651 7.71487 2.21123 7.71487 2.10829V0.347412Z" fill="black"/>
<path d="M6.04711 1.4767V2.54152H5.77515V0.181396H6.04711V1.048H6.07016C6.11165 0.95658 6.17388 0.883979 6.25685 0.8302C6.34059 0.775653 6.45199 0.74838 6.59105 0.74838C6.71167 0.74838 6.8173 0.77258 6.90796 0.820981C6.99862 0.868614 7.06891 0.941983 7.11885 1.04109C7.16956 1.13943 7.19491 1.26466 7.19491 1.41677V2.54152H6.92294V1.43521C6.92294 1.29462 6.88645 1.18591 6.81346 1.10908C6.74125 1.03149 6.64099 0.992689 6.51268 0.992689C6.42357 0.992689 6.34367 1.01151 6.27299 1.04916C6.20307 1.0868 6.14776 1.14173 6.10704 1.21395C6.06709 1.28617 6.04711 1.37375 6.04711 1.4767Z" fill="black"/>
<path d="M4.60948 3.24222C4.4781 3.24222 4.36517 3.22531 4.27067 3.19151C4.17617 3.15847 4.09742 3.11468 4.03443 3.06014C3.9722 3.00636 3.92264 2.94874 3.88577 2.88728L4.10242 2.73516C4.127 2.76743 4.15812 2.8043 4.19576 2.84579C4.23341 2.88804 4.28488 2.92454 4.35018 2.95527C4.41626 2.98677 4.50269 3.00252 4.60948 3.00252C4.75237 3.00252 4.8703 2.96794 4.96326 2.8988C5.05622 2.82966 5.1027 2.72133 5.1027 2.57382V2.21427H5.07966C5.05968 2.24654 5.03126 2.28649 4.99438 2.33412C4.95827 2.38099 4.90603 2.42286 4.83765 2.45973C4.77004 2.49584 4.67862 2.5139 4.56338 2.5139C4.42048 2.5139 4.29218 2.48009 4.17848 2.41249C4.06554 2.34488 3.97604 2.24654 3.90997 2.11747C3.84466 1.9884 3.81201 1.83167 3.81201 1.64729C3.81201 1.46598 3.84389 1.3081 3.90766 1.17365C3.97143 1.03843 4.06016 0.93395 4.17387 0.860196C4.28757 0.785674 4.41894 0.748413 4.56799 0.748413C4.68323 0.748413 4.77465 0.76762 4.84226 0.806033C4.91064 0.843679 4.96288 0.886702 4.99899 0.935102C5.03587 0.982735 5.06429 1.02192 5.08427 1.05265H5.11192V0.771461H5.37467V2.59226C5.37467 2.74438 5.3401 2.86807 5.27096 2.96333C5.20258 3.05937 5.11039 3.12966 4.99438 3.17422C4.87914 3.21955 4.75084 3.24222 4.60948 3.24222ZM4.60026 2.26959C4.70935 2.26959 4.80154 2.24462 4.87683 2.19468C4.95212 2.14474 5.00936 2.07291 5.04854 1.97918C5.08772 1.88545 5.10731 1.77328 5.10731 1.64268C5.10731 1.51515 5.08811 1.40259 5.04969 1.30502C5.01128 1.20745 4.95443 1.13101 4.87914 1.0757C4.80385 1.02038 4.71089 0.992723 4.60026 0.992723C4.48502 0.992723 4.38898 1.02192 4.31215 1.08031C4.2361 1.13869 4.17886 1.21706 4.14045 1.3154C4.1028 1.41373 4.08398 1.52283 4.08398 1.64268C4.08398 1.7656 4.10319 1.87431 4.1416 1.96881C4.18078 2.06254 4.2384 2.13629 4.31446 2.19007C4.39129 2.24308 4.48655 2.26959 4.60026 2.26959Z" fill="black"/>
<path d="M3.22231 2.54154V0.771451H3.49428V2.54154H3.22231ZM3.3606 0.476435C3.30759 0.476435 3.26187 0.458381 3.22346 0.422272C3.18581 0.386164 3.16699 0.342757 3.16699 0.292051C3.16699 0.241345 3.18581 0.197938 3.22346 0.161829C3.26187 0.12572 3.30759 0.107666 3.3606 0.107666C3.41361 0.107666 3.45893 0.12572 3.49658 0.161829C3.53499 0.197938 3.5542 0.241345 3.5542 0.292051C3.5542 0.342757 3.53499 0.386164 3.49658 0.422272C3.45893 0.458381 3.41361 0.476435 3.3606 0.476435Z" fill="black"/>
<path d="M2.11206 2.54153V0.771432H2.37481V1.03879H2.39325C2.42551 0.951207 2.4839 0.880142 2.56841 0.825595C2.65292 0.771048 2.74819 0.743774 2.85421 0.743774C2.87418 0.743774 2.89915 0.744159 2.92912 0.744927C2.95908 0.745695 2.98174 0.746848 2.99711 0.748384V1.02496C2.98789 1.02266 2.96676 1.0192 2.93372 1.01459C2.90146 1.00921 2.86727 1.00652 2.83116 1.00652C2.74511 1.00652 2.66829 1.02458 2.60068 1.06069C2.53384 1.09603 2.48083 1.1452 2.44165 1.20819C2.40324 1.27042 2.38403 1.34149 2.38403 1.42139V2.54153H2.11206Z" fill="black"/>
<path d="M0.135742 2.54152V0.181396H0.960864C1.12527 0.181396 1.26087 0.209822 1.36766 0.266674C1.47445 0.322758 1.55397 0.398433 1.60621 0.493698C1.65845 0.588195 1.68457 0.693064 1.68457 0.808304C1.68457 0.909716 1.66652 0.993457 1.63041 1.05953C1.59507 1.1256 1.54821 1.17784 1.48982 1.21626C1.4322 1.25467 1.36958 1.2831 1.30198 1.30153V1.32458C1.37419 1.32919 1.44679 1.35454 1.51978 1.40064C1.59277 1.44674 1.65384 1.51281 1.70301 1.59885C1.75218 1.6849 1.77677 1.79015 1.77677 1.91461C1.77677 2.03293 1.74988 2.13933 1.6961 2.23383C1.64232 2.32833 1.55743 2.40323 1.44142 2.45855C1.32541 2.51386 1.17444 2.54152 0.988521 2.54152H0.135742ZM0.421538 2.28799H0.988521C1.17521 2.28799 1.30774 2.25188 1.3861 2.17967C1.46523 2.10668 1.5048 2.01833 1.5048 1.91461C1.5048 1.83471 1.48444 1.76096 1.44372 1.69335C1.403 1.62498 1.345 1.57043 1.26971 1.52971C1.19442 1.48822 1.1053 1.46748 1.00235 1.46748H0.421538V2.28799ZM0.421538 1.21856H0.951645C1.03769 1.21856 1.11529 1.20166 1.18443 1.16785C1.25434 1.13405 1.30966 1.08642 1.35038 1.02496C1.39186 0.963495 1.41261 0.891278 1.41261 0.808304C1.41261 0.704588 1.3765 0.616621 1.30428 0.544404C1.23206 0.471418 1.11759 0.434925 0.960864 0.434925H0.421538V1.21856Z" fill="black"/>
</svg>
