<svg width="15" height="18" viewBox="0 0 15 18" fill="none" xmlns="http://www.w3.org/2000/svg">
<g clip-path="url(#clip0_3790_7496)">
<path d="M7.4332 17.0293C4.2732 17.0293 2.5232 16.7693 1.3932 16.1293C0.553203 15.6593 0.0332031 14.9393 0.0332031 14.2693V5.35925C0.0332031 4.34925 0.763203 3.20925 1.9432 2.36925C2.9132 1.67925 4.6632 0.859253 7.4432 0.859253C12.2732 0.859253 14.8432 3.46925 14.8432 5.35925V14.2593C14.8432 14.9393 14.3232 15.6493 13.4832 16.1193C12.3532 16.7593 10.6032 17.0193 7.4432 17.0193" fill="black"/>
<path d="M13.0432 15.4193C11.9432 16.0393 10.0532 16.2193 7.43324 16.2193C4.81324 16.2193 2.92324 16.0393 1.82324 15.4193C1.16324 15.0493 0.823242 14.5393 0.823242 14.1793C0.823242 13.9693 0.933242 13.8493 1.18324 13.8493H13.6832C13.9332 13.8493 14.0432 13.9693 14.0432 14.1793C14.0432 14.5393 13.7132 15.0493 13.0432 15.4193ZM13.6832 5.76931H1.18324C0.933242 5.76931 0.823242 5.63931 0.823242 5.40931C0.833242 4.05931 2.87324 1.66931 7.43324 1.66931C11.9932 1.66931 14.0432 4.05931 14.0432 5.41931C14.0432 5.64931 13.9332 5.77931 13.6832 5.77931" fill="white"/>
<path d="M3.53305 11.3593C3.49305 11.2993 3.49305 11.2593 3.49305 11.2493C3.49305 11.1993 3.52305 11.1693 3.57305 11.1193C3.69305 11.0093 3.98305 10.7293 4.14305 10.4793C4.26305 10.2893 4.31305 10.1193 4.31305 9.96928C4.31305 9.59928 3.98305 9.30928 3.61305 9.30928C3.38305 9.30928 3.16305 9.43928 3.01305 9.67928C2.81305 9.99928 2.57305 10.3693 2.42305 10.5193C2.38305 10.5593 2.36305 10.5693 2.33305 10.5693C2.28305 10.5693 2.26305 10.5393 2.26305 10.4793V10.0593C2.26305 9.64928 2.01305 9.30928 1.57305 9.30928C1.13305 9.30928 0.883047 9.63928 0.883047 10.0593V12.6693C0.883047 13.0793 1.12305 13.4193 1.57305 13.4193C2.02305 13.4193 2.26305 13.0893 2.26305 12.6693V12.0693C2.26305 12.0193 2.28305 11.9793 2.33305 11.9793C2.40305 11.9793 2.41305 12.0493 2.43305 12.0793C2.53305 12.3093 2.81305 12.8093 3.07305 13.0993C3.25305 13.2893 3.47305 13.4193 3.70305 13.4193C4.09305 13.4193 4.43305 13.0793 4.43305 12.7093C4.43305 12.4793 4.33305 12.3093 4.15305 12.1093C3.91305 11.8493 3.63305 11.5093 3.53305 11.3593ZM8.82305 9.07928C9.49305 9.07928 9.91305 8.65928 9.91305 8.03928C9.91305 7.64928 9.67305 7.37928 9.20305 7.37928H9.06305C8.81305 7.37928 8.61305 7.49928 8.61305 7.76928C8.61305 8.00928 8.82305 8.11928 8.97305 8.11928C9.05305 8.11928 9.10305 8.14928 9.10305 8.19928C9.10305 8.27928 9.01305 8.32928 8.91305 8.32928C8.59305 8.32928 8.38305 8.10928 8.38305 7.68928C8.38305 7.21928 8.68305 7.05928 8.91305 7.05928C9.19305 7.05928 9.24305 7.19928 9.43305 7.19928C9.65305 7.19928 9.81305 7.00928 9.81305 6.81928C9.81305 6.67928 9.75305 6.56928 9.65305 6.48928C9.47305 6.35928 9.22305 6.25928 8.85305 6.25928C8.19305 6.25928 7.55305 6.68928 7.55305 7.68928C7.55305 8.64928 8.19305 9.08928 8.82305 9.08928M1.37305 9.05928H1.97305C2.53305 9.05928 2.88305 8.67928 2.88305 8.20928C2.88305 7.82928 2.66305 7.65928 2.60305 7.61928C2.58305 7.59928 2.56305 7.58928 2.56305 7.56928C2.56305 7.54928 2.57305 7.53928 2.59305 7.51928C2.67305 7.42928 2.75305 7.27928 2.75305 7.05928C2.75305 6.54928 2.41305 6.27928 1.87305 6.27928H1.37305C1.04305 6.27928 0.873047 6.47928 0.873047 6.73928V8.60928C0.873047 8.86928 1.03305 9.06928 1.37305 9.06928M1.62305 7.01928C1.62305 6.96928 1.65305 6.91928 1.73305 6.91928H1.79305C1.97305 6.91928 2.03305 7.04928 2.03305 7.15928C2.03305 7.25928 1.97305 7.40928 1.79305 7.40928H1.74305C1.67305 7.40928 1.63305 7.36928 1.63305 7.30928V7.01928M1.63305 8.00928C1.63305 7.95928 1.66305 7.90928 1.74305 7.90928H1.82305C2.02305 7.90928 2.08305 8.04928 2.08305 8.16928C2.08305 8.27928 2.02305 8.43928 1.82305 8.43928H1.74305C1.67305 8.43928 1.63305 8.39928 1.63305 8.33928V8.00928ZM12.453 9.08928C12.723 9.08928 12.873 8.88928 12.873 8.62928V8.17928C12.873 8.11928 12.903 8.09928 12.943 8.09928C12.993 8.09928 13.013 8.12928 13.023 8.17928C13.063 8.39928 13.163 8.68928 13.273 8.83928C13.413 9.02928 13.553 9.08928 13.693 9.08928C13.913 9.08928 14.103 8.91928 14.103 8.69928C14.103 8.55928 14.043 8.44928 13.963 8.34928C13.823 8.16928 13.733 8.04928 13.673 7.89928C13.663 7.86928 13.673 7.83928 13.703 7.80928C13.833 7.70928 13.983 7.47928 13.983 7.12928C13.983 6.58928 13.533 6.28928 13.003 6.28928H12.523C12.193 6.28928 12.023 6.47928 12.023 6.74928V8.63928C12.023 8.88928 12.173 9.09928 12.443 9.09928M12.813 7.09928C12.813 7.04928 12.843 6.99928 12.923 6.99928H12.983C13.163 6.99928 13.213 7.12928 13.213 7.23928C13.213 7.34928 13.163 7.48928 12.983 7.48928H12.923C12.853 7.48928 12.813 7.44928 12.813 7.38928V7.09928ZM5.47305 9.34928C5.00305 9.34928 4.74305 9.70928 4.74305 10.1493V12.6593C4.74305 13.0993 5.00305 13.4593 5.47305 13.4593C5.94305 13.4593 6.20305 13.0993 6.20305 12.6593V10.1493C6.20305 9.70928 5.94305 9.34928 5.47305 9.34928ZM13.013 10.9793H12.803C12.433 10.9793 12.143 11.1493 12.143 11.5293C12.143 11.8793 12.453 12.0393 12.693 12.0393C12.803 12.0393 12.893 12.0693 12.893 12.1593C12.893 12.2693 12.753 12.3393 12.613 12.3393C12.133 12.3393 11.803 12.0093 11.803 11.4093C11.803 10.7393 12.253 10.4893 12.593 10.4893C13.013 10.4893 13.083 10.6993 13.373 10.6993C13.713 10.6993 13.943 10.4193 13.943 10.1493C13.943 9.93928 13.853 9.77928 13.703 9.66928C13.443 9.47928 13.053 9.33928 12.503 9.33928C11.513 9.33928 10.553 9.95928 10.553 11.4093C10.553 12.8593 11.513 13.4393 12.463 13.4393C13.413 13.4393 14.093 12.8293 14.093 11.9293C14.093 11.3593 13.733 10.9693 13.023 10.9693M11.423 9.06928C11.663 9.06928 11.843 8.92928 11.843 8.67928C11.843 8.42928 11.653 8.28928 11.423 8.28928H11.043C10.973 8.28928 10.933 8.24928 10.933 8.18928V8.10928C10.933 8.05928 10.963 8.00928 11.043 8.00928H11.333C11.533 8.00928 11.693 7.88928 11.693 7.66928C11.693 7.44928 11.533 7.32928 11.333 7.32928H11.043C10.973 7.32928 10.933 7.28928 10.933 7.22928V7.15928C10.933 7.10928 10.963 7.05928 11.043 7.05928H11.423C11.663 7.05928 11.843 6.91928 11.843 6.66928C11.843 6.41928 11.653 6.27928 11.423 6.27928H10.623C10.293 6.27928 10.123 6.46928 10.123 6.73928V8.60928C10.123 8.86928 10.283 9.06928 10.623 9.06928H11.423ZM4.14305 9.08928C4.83305 9.08928 5.19305 8.67928 5.19305 8.15928V6.72928C5.19305 6.47928 5.04305 6.26928 4.77305 6.26928C4.50305 6.26928 4.35305 6.46928 4.35305 6.72928V8.10928C4.35305 8.20928 4.29305 8.32928 4.14305 8.32928C3.99305 8.32928 3.94305 8.20928 3.94305 8.10928V6.72928C3.94305 6.47928 3.79305 6.26928 3.52305 6.26928C3.25305 6.26928 3.10305 6.46928 3.10305 6.72928V8.15928C3.10305 8.67928 3.46305 9.08928 4.15305 9.08928M7.13305 9.08928C7.35305 9.08928 7.54305 8.91928 7.54305 8.69928C7.54305 8.55928 7.48305 8.44928 7.40305 8.34928C7.28305 8.18928 7.17305 8.04928 7.11305 7.89928C7.10305 7.86928 7.11305 7.83928 7.14305 7.80928C7.27305 7.70928 7.42305 7.47928 7.42305 7.12928C7.42305 6.58928 6.97305 6.28928 6.44305 6.28928H5.96305C5.63305 6.28928 5.46305 6.47928 5.46305 6.74928V8.63928C5.46305 8.88928 5.61305 9.09928 5.88305 9.09928C6.15305 9.09928 6.30305 8.89928 6.30305 8.63928V8.18928C6.30305 8.13928 6.33305 8.10928 6.37305 8.10928C6.42305 8.10928 6.44305 8.13928 6.45305 8.18928C6.49305 8.40928 6.59305 8.69928 6.70305 8.84928C6.84305 9.03928 6.98305 9.09928 7.12305 9.09928M6.42305 7.47928H6.36305C6.29305 7.47928 6.25305 7.43928 6.25305 7.37928V7.08928C6.25305 7.03928 6.28305 6.98928 6.36305 6.98928H6.42305C6.60305 6.98928 6.65305 7.11928 6.65305 7.22928C6.65305 7.33928 6.60305 7.47928 6.42305 7.47928ZM9.55305 9.33928C9.11305 9.33928 8.88305 9.66928 8.88305 10.0793V10.9893C8.88305 11.0693 8.85305 11.0993 8.81305 11.0993C8.78305 11.0993 8.75305 11.0793 8.72305 11.0193L8.13305 9.87928C7.91305 9.43928 7.67305 9.33928 7.41305 9.33928C6.96305 9.33928 6.72305 9.66928 6.72305 10.0893V12.7093C6.72305 13.1193 6.96305 13.4493 7.39305 13.4493C7.82305 13.4493 8.06305 13.1193 8.06305 12.7093V11.7993C8.06305 11.7193 8.09305 11.6893 8.13305 11.6893C8.16305 11.6893 8.19305 11.7093 8.22305 11.7693L8.81305 12.9093C9.03305 13.3493 9.28305 13.4493 9.54305 13.4493C9.99305 13.4493 10.233 13.1193 10.233 12.6993V10.0793C10.233 9.66928 9.99305 9.33928 9.56305 9.33928" fill="white"/>
</g>
<defs>
<clipPath id="clip0_3790_7496">
<rect width="14.8" height="16.17" fill="white" transform="translate(0.0332031 0.859253)"/>
</clipPath>
</defs>
</svg>
