<svg width="6" height="63" viewBox="0 0 6 63" fill="none" xmlns="http://www.w3.org/2000/svg">
<g clip-path="url(#clip0_3789_5697)">
<path d="M2.32647 57.7455C0.861553 57.885 -1.84401e-07 58.7814 -1.1439e-07 60.3831C-5.0363e-08 61.8478 1.1478 63 2.99158 63C4.83536 63 6 61.9512 6 60.2152C6 58.8305 5.11319 57.8617 3.63985 57.7093L3.63985 59.3627C4.18709 59.4272 4.60524 59.6907 4.60524 60.2436C4.60524 61.1193 3.85314 61.2795 3.05332 61.2795C1.95323 61.2795 1.39196 60.9152 1.39196 60.3107C1.39196 59.7708 1.73153 59.4298 2.32647 59.3782L2.32647 57.7455ZM4.93639 49.0706L4.93639 50.8583L5.85127 51.114L5.85127 52.7235L0.303087 50.804L0.303087 49.0758L5.85127 47.1615L5.85127 48.8149L4.93639 49.0706ZM3.73527 49.4039L1.74275 49.9619L3.73527 50.5225L3.73527 49.4039ZM0.303086 41.9096L0.303086 40.3337L4.48737 40.3337L4.48737 37.8667L5.85126 37.8667L5.85126 41.9096L0.303086 41.9096ZM0.303086 32.3331L0.303086 30.7495L5.85126 30.7495L5.85126 32.3331L0.303086 32.3331ZM4.0159 25.1359L3.91487 23.6376C4.17867 23.6066 4.38073 23.5394 4.51544 23.4387C4.73994 23.2759 4.8522 23.0434 4.8522 22.7412C4.8522 22.5164 4.79607 22.3433 4.68101 22.2219C4.56595 22.1005 4.43405 22.0385 4.28251 22.0385C4.13096 22.0385 4.01029 22.0953 3.89523 22.2116C3.78297 22.3278 3.67633 22.5965 3.5725 23.0176C3.40412 23.7099 3.17961 24.2008 2.89897 24.4953C2.62114 24.7924 2.26473 24.9396 1.82975 24.9396C1.5463 24.9396 1.27689 24.8647 1.02432 24.7123C0.768942 24.5598 0.572496 24.3325 0.426565 24.0277C0.280635 23.7228 0.210475 23.3043 0.210475 22.7722C0.210475 22.1186 0.342374 21.6226 0.606173 21.2816C0.869971 20.9406 1.28812 20.7365 1.86623 20.6719L1.96165 22.1548C1.70907 22.1935 1.52666 22.2762 1.4116 22.4028C1.29654 22.5293 1.24041 22.705 1.24041 22.9272C1.24041 23.1106 1.28251 23.2501 1.3667 23.3431C1.45089 23.4361 1.55472 23.4826 1.6754 23.4826C1.76239 23.4826 1.84097 23.4438 1.91394 23.3689C1.9869 23.2966 2.05426 23.1209 2.1188 22.8419C2.27876 22.1522 2.44434 21.6588 2.60992 21.3617C2.77549 21.062 2.98036 20.845 3.22451 20.7107C3.46866 20.5763 3.74088 20.5066 4.04677 20.5066C4.40318 20.5066 4.72872 20.597 5.03181 20.7778C5.33209 20.9587 5.5594 21.2118 5.71375 21.5373C5.8681 21.8628 5.94668 22.271 5.94668 22.7644C5.94668 23.6324 5.76427 24.2343 5.40225 24.5676C5.04023 24.9009 4.57718 25.0894 4.01871 25.1334L4.0159 25.1359ZM0.303085 15.3141L0.303085 10.5142L1.6754 10.5142L1.6754 12.1262L5.85126 12.1262L5.85126 13.7021L1.6754 13.7021L1.6754 15.3141L0.303085 15.3141ZM4.93639 1.9091L4.93639 3.69677L5.85126 3.95252L5.85126 5.56194L0.303085 3.63993L0.303085 1.91168L5.85126 -0.00257899L5.85126 1.65076L4.93639 1.90651L4.93639 1.9091ZM3.73527 2.24235L1.74275 2.80035L3.73527 3.36094L3.73527 2.24235Z" fill="#010101"/>
</g>
<defs>
<clipPath id="clip0_3789_5697">
<rect width="63" height="6" fill="white" transform="translate(0 63) rotate(-90)"/>
</clipPath>
</defs>
</svg>
