<svg width="18" height="5" viewBox="0 0 18 5" fill="none" xmlns="http://www.w3.org/2000/svg">
<g clip-path="url(#clip0_3790_7223)">
<path d="M1.33 3.18896C0.84 3.18896 0.45 2.79158 0.45 2.2923C0.45 1.79303 0.84 1.38546 1.33 1.38546C1.57 1.38546 1.8 1.48735 1.96 1.65038L2.27 1.33451C2.02 1.08997 1.7 0.937134 1.33 0.937134C0.6 0.937134 0 1.54849 0 2.2923C0 3.03612 0.6 3.64748 1.33 3.64748C1.7 3.64748 2.03 3.49464 2.27 3.25009L1.96 2.93423C1.8 3.09726 1.58 3.19915 1.33 3.19915V3.18896ZM3.86 0.937134L2.8 3.63729H3.28L3.37 3.41312H4.36L4.45 3.63729H4.93L3.86 0.937134ZM3.55 2.9648L3.86 2.14966L4.18 2.9648H3.55ZM7.37 3.63729L6.65 2.46552C6.91 2.3942 7.23 2.2006 7.23 1.72171C7.23 0.937134 6.34 0.937134 6.34 0.937134H5.46V1.38546L5.88 2.05795H5.46V3.63729H5.9V2.51647H6.15L6.84 3.64748H7.36L7.37 3.63729ZM5.98 1.38546H6.34C6.34 1.38546 6.78 1.38546 6.78 1.72171C6.78 1.98663 6.51 2.04776 6.39 2.05795L5.98 1.38546ZM8.83 0.937134L7.77 3.63729H8.25L8.34 3.41312H9.33L9.42 3.63729H9.9L8.83 0.937134ZM8.52 2.9648L8.83 2.14966L9.15 2.9648H8.52ZM13.31 0.937134H12.86L11.89 3.03612L10.88 0.937134H10.43V3.63729H10.87V1.94587L11.68 3.63729H12.1L12.86 1.97644V3.63729H13.3V0.937134H13.31ZM15.62 1.38546V0.937134H13.85V3.63729H15.62V3.18896H14.29V2.51647H15.39V2.06814H14.29V1.38546H15.62ZM16.6 3.18896V0.937134H16.16V3.63729H17.59V3.18896H16.61H16.6Z" fill="#010101"/>
<path d="M0.500039 5.00234C0.780039 5.00234 1.01004 4.7886 1.01004 4.51378C1.01004 4.27968 0.840039 4.04558 0.550039 4.04558C0.310039 4.04558 0.0400391 4.20843 0.0400391 4.52396C0.0400391 4.7886 0.220039 5.00234 0.500039 5.00234ZM0.550039 4.97181C0.300039 4.97181 0.130039 4.74788 0.130039 4.47307C0.130039 4.22879 0.260039 4.07611 0.490039 4.07611C0.750039 4.07611 0.920039 4.2695 0.920039 4.5545C0.920039 4.83949 0.760039 4.97181 0.560039 4.97181H0.550039ZM2.47004 4.05576C2.47004 4.05576 2.39004 4.05576 2.34004 4.05576C2.29004 4.05576 2.25004 4.05576 2.22004 4.05576V4.07611C2.30004 4.07611 2.33004 4.11683 2.33004 4.21861V4.87003L1.76004 4.14736C1.71004 4.08629 1.72004 4.06594 1.69004 4.06594C1.68004 4.06594 1.65004 4.06594 1.62004 4.06594C1.59004 4.06594 1.55004 4.06594 1.52004 4.06594V4.08629C1.55004 4.08629 1.59004 4.09647 1.62004 4.12701V4.83949C1.62004 4.94127 1.60004 4.97181 1.51004 4.97181V4.99217C1.55004 4.99217 1.59004 4.99217 1.64004 4.99217C1.69004 4.99217 1.73004 4.99217 1.76004 4.99217V4.97181C1.68004 4.97181 1.65004 4.94127 1.65004 4.83949V4.15754C1.65004 4.15754 1.67004 4.1779 1.67004 4.18808L2.33004 5.01252H2.35004V4.22879C2.35004 4.12701 2.38004 4.08629 2.46004 4.08629V4.06594L2.47004 4.05576ZM3.14004 4.1779C3.14004 4.09647 3.16004 4.07611 3.27004 4.07611V4.05576C3.22004 4.05576 3.17004 4.05576 3.10004 4.05576C3.03004 4.05576 2.98004 4.05576 2.93004 4.05576V4.07611C3.04004 4.07611 3.06004 4.09647 3.06004 4.1779V4.85985C3.06004 4.94127 3.04004 4.96163 2.93004 4.96163V4.98199H3.60004C3.60004 4.98199 3.62004 4.98199 3.62004 4.96163C3.62004 4.90056 3.62004 4.81913 3.63004 4.76824H3.61004C3.59004 4.8802 3.54004 4.95145 3.44004 4.95145H3.25004C3.14004 4.95145 3.13004 4.94127 3.13004 4.84967V4.16772L3.14004 4.1779ZM4.88004 4.05576C4.88004 4.05576 4.81004 4.05576 4.77004 4.05576C4.70004 4.05576 4.66004 4.05576 4.61004 4.05576V4.07611C4.70004 4.07611 4.71004 4.11683 4.66004 4.20843L4.47004 4.49343L4.23004 4.13718C4.23004 4.13718 4.22004 4.07611 4.30004 4.07611V4.05576C4.25004 4.05576 4.18004 4.05576 4.11004 4.05576C4.08004 4.05576 4.04004 4.05576 4.00004 4.05576V4.07611C4.07004 4.07611 4.11004 4.10665 4.16004 4.1779L4.41004 4.54432V4.85985C4.41004 4.94127 4.39004 4.96163 4.28004 4.96163V4.98199C4.33004 4.98199 4.38004 4.98199 4.45004 4.98199C4.52004 4.98199 4.57004 4.98199 4.62004 4.98199V4.96163C4.51004 4.96163 4.49004 4.94127 4.49004 4.85985V4.52396L4.69004 4.20843C4.74004 4.12701 4.81004 4.07611 4.89004 4.07611V4.05576H4.88004ZM6.61004 4.06594C6.61004 4.06594 6.61004 4.05576 6.60004 4.05576H6.02004V4.07611C6.13004 4.07611 6.15004 4.09647 6.15004 4.1779V4.85985C6.15004 4.94127 6.13004 4.96163 6.02004 4.96163V4.98199C6.07004 4.98199 6.13004 4.98199 6.19004 4.98199C6.28004 4.98199 6.35004 4.98199 6.41004 4.98199V4.96163C6.25004 4.96163 6.23004 4.94127 6.23004 4.84967V4.52396H6.38004C6.49004 4.52396 6.52004 4.5545 6.52004 4.6461H6.54004C6.54004 4.59521 6.54004 4.5545 6.54004 4.51378C6.54004 4.48325 6.54004 4.45271 6.54004 4.40182H6.52004C6.52004 4.47307 6.49004 4.5036 6.38004 4.5036H6.22004V4.1779C6.22004 4.09647 6.24004 4.08629 6.35004 4.08629H6.45004C6.53004 4.08629 6.59004 4.14736 6.59004 4.24915H6.61004V4.06594ZM7.60004 4.99217C7.88004 4.99217 8.11004 4.77842 8.11004 4.5036C8.11004 4.2695 7.94004 4.0354 7.65004 4.0354C7.41004 4.0354 7.14004 4.19825 7.14004 4.51378C7.14004 4.77842 7.32004 4.99217 7.60004 4.99217ZM7.65004 4.96163C7.40004 4.96163 7.23004 4.73771 7.23004 4.46289C7.23004 4.21861 7.36004 4.06594 7.59004 4.06594C7.85004 4.06594 8.02004 4.25932 8.02004 4.54432C8.02004 4.82931 7.86004 4.96163 7.66004 4.96163H7.65004ZM9.53004 4.96163C9.40004 4.96163 9.28004 4.83949 9.04004 4.47307C9.13004 4.42218 9.19004 4.33057 9.19004 4.23897C9.19004 4.12701 9.11004 4.05576 8.95004 4.05576C8.91004 4.05576 8.83004 4.05576 8.78004 4.05576C8.72004 4.05576 8.66004 4.05576 8.61004 4.05576V4.07611C8.72004 4.07611 8.74004 4.09647 8.74004 4.1779V4.85985C8.74004 4.94127 8.72004 4.96163 8.61004 4.96163V4.98199C8.66004 4.98199 8.72004 4.98199 8.78004 4.98199C8.85004 4.98199 8.90004 4.98199 8.95004 4.98199V4.96163C8.84004 4.96163 8.82004 4.94127 8.82004 4.85985V4.5036C8.82004 4.5036 8.87004 4.5036 8.88004 4.5036C8.91004 4.5036 8.94004 4.5036 8.97004 4.49343C9.16004 4.7886 9.31004 4.97181 9.36004 4.97181H9.53004V4.95145V4.96163ZM8.82004 4.47307V4.1779C8.82004 4.07611 8.85004 4.06594 8.92004 4.06594C9.03004 4.06594 9.11004 4.12701 9.11004 4.27968C9.11004 4.412 9.05004 4.47307 8.91004 4.47307C8.88004 4.47307 8.85004 4.47307 8.82004 4.47307ZM11.97 4.05576C11.97 4.05576 11.9 4.05576 11.84 4.05576C11.77 4.05576 11.74 4.05576 11.69 4.05576V4.07611C11.8 4.07611 11.82 4.09647 11.8 4.16772L11.52 4.87003L11.33 4.45271L11.44 4.16772C11.47 4.08629 11.52 4.06594 11.58 4.06594V4.04558C11.53 4.04558 11.5 4.04558 11.45 4.04558C11.41 4.04558 11.38 4.04558 11.35 4.04558V4.06594C11.42 4.06594 11.43 4.08629 11.41 4.15754L11.31 4.412L11.19 4.15754C11.15 4.07611 11.16 4.06594 11.22 4.06594V4.04558C11.19 4.04558 11.16 4.04558 11.11 4.04558C11.07 4.04558 11.03 4.04558 10.99 4.04558V4.06594C11.05 4.06594 11.08 4.09647 11.12 4.16772L11.27 4.5036L11.13 4.85985L10.81 4.15754C10.78 4.08629 10.81 4.06594 10.89 4.06594V4.04558C10.85 4.04558 10.8 4.04558 10.73 4.04558C10.69 4.04558 10.65 4.04558 10.61 4.04558V4.06594C10.67 4.06594 10.7 4.09647 10.74 4.16772L11.1 4.97181H11.13L11.3 4.54432L11.49 4.97181H11.52L11.84 4.16772C11.87 4.08629 11.92 4.06594 11.98 4.06594V4.04558L11.97 4.05576ZM12.84 5.00234C13.12 5.00234 13.35 4.7886 13.35 4.51378C13.35 4.27968 13.18 4.04558 12.89 4.04558C12.65 4.04558 12.38 4.20843 12.38 4.52396C12.38 4.7886 12.56 5.00234 12.84 5.00234ZM12.89 4.97181C12.64 4.97181 12.47 4.74788 12.47 4.47307C12.47 4.22879 12.6 4.07611 12.83 4.07611C13.09 4.07611 13.26 4.2695 13.26 4.5545C13.26 4.83949 13.1 4.97181 12.9 4.97181H12.89ZM14.96 4.97181C14.85 4.97181 14.83 4.95145 14.83 4.87003L14.8 4.1779C14.8 4.09647 14.84 4.07611 14.94 4.07611V4.05576C14.91 4.05576 14.88 4.05576 14.83 4.05576C14.8 4.05576 14.78 4.05576 14.77 4.05576C14.75 4.05576 14.74 4.06594 14.73 4.09647L14.4 4.85985L14.07 4.13718C14.04 4.06594 14.03 4.05576 14 4.05576C13.99 4.05576 13.96 4.05576 13.94 4.05576C13.92 4.05576 13.88 4.05576 13.85 4.05576V4.07611C13.9 4.07611 13.94 4.09647 13.97 4.12701V4.82931C13.95 4.9311 13.92 4.96163 13.84 4.96163V4.98199C13.88 4.98199 13.92 4.98199 13.97 4.98199C14.02 4.98199 14.07 4.98199 14.11 4.98199V4.96163C14.01 4.96163 13.99 4.9311 13.99 4.82931V4.1779H14L14.35 4.97181H14.37L14.71 4.1779L14.73 4.87003C14.73 4.95145 14.72 4.97181 14.62 4.97181V4.99217C14.66 4.99217 14.71 4.99217 14.77 4.99217C14.83 4.99217 14.89 4.99217 14.94 4.99217V4.97181H14.96ZM16.05 4.77842C16.04 4.89038 15.97 4.96163 15.9 4.96163H15.77C15.66 4.96163 15.64 4.95145 15.64 4.85985V4.51378H15.83C15.92 4.51378 15.95 4.54432 15.95 4.63592H15.97C15.97 4.58503 15.97 4.54432 15.97 4.5036C15.97 4.47307 15.97 4.44253 15.97 4.39164H15.95C15.95 4.46289 15.92 4.49343 15.83 4.49343H15.64V4.19825C15.64 4.11683 15.66 4.09647 15.77 4.09647H15.87C15.95 4.09647 16.01 4.15754 16.01 4.25932H16.03V4.07611C16.03 4.07611 16.03 4.06594 16.01 4.06594H15.43V4.08629C15.54 4.08629 15.56 4.10665 15.56 4.18808V4.87003C15.56 4.95145 15.54 4.97181 15.43 4.97181V4.99217H16.03C16.03 4.99217 16.05 4.99217 16.05 4.97181C16.05 4.91074 16.05 4.82931 16.06 4.77842H16.04H16.05ZM17.53 4.06594C17.53 4.06594 17.45 4.06594 17.4 4.06594C17.35 4.06594 17.31 4.06594 17.28 4.06594V4.08629C17.36 4.08629 17.39 4.12701 17.39 4.22879V4.8802L16.82 4.15754C16.77 4.09647 16.78 4.07611 16.75 4.07611C16.74 4.07611 16.71 4.07611 16.68 4.07611C16.65 4.07611 16.61 4.07611 16.58 4.07611V4.09647C16.61 4.09647 16.65 4.10665 16.68 4.13718V4.84967C16.68 4.95145 16.66 4.98199 16.57 4.98199V5.00234C16.61 5.00234 16.65 5.00234 16.7 5.00234C16.75 5.00234 16.79 5.00234 16.82 5.00234V4.98199C16.74 4.98199 16.71 4.95145 16.71 4.84967V4.16772C16.71 4.16772 16.73 4.18808 16.73 4.19825L17.39 5.0227H17.41V4.23897C17.41 4.13718 17.44 4.09647 17.52 4.09647V4.07611L17.53 4.06594Z" fill="#010101"/>
</g>
<defs>
<clipPath id="clip0_3790_7223">
<rect width="17.57" height="4.06652" fill="white" transform="translate(0 0.937134)"/>
</clipPath>
</defs>
</svg>
