<svg width="64" height="46" viewBox="0 0 64 46" fill="none" xmlns="http://www.w3.org/2000/svg">
<g clip-path="url(#clip0_3790_7324)">
<path d="M53.8856 31.5289L49.757 26.6302C49.6566 26.5053 49.7068 26.3303 49.8448 26.2678C51.8526 25.468 53.2707 23.5186 53.2707 21.2317V19.1323C53.2707 16.1456 50.8362 13.7087 47.8244 13.7087H33.2675C33.0166 13.7087 32.8032 13.9087 32.8032 14.1711V31.8288C32.8032 32.0787 33.004 32.2912 33.2675 32.2912H35.564C35.815 32.2912 36.0283 32.0912 36.0283 31.8288V26.8802C36.0283 26.7552 36.1287 26.6552 36.2542 26.6552H45.9671C46.0299 26.6552 46.1052 26.6802 46.1428 26.7427L50.3593 31.7538C50.6479 32.1037 51.0871 32.3037 51.5389 32.3037H53.5342C53.9232 32.3037 54.1366 31.8538 53.8856 31.5539M36.2668 16.9204H47.8369C49.0793 16.9204 50.0832 17.9201 50.0832 19.1573V21.2567C50.0832 22.4939 49.0793 23.4936 47.8369 23.4936H36.2668C36.1413 23.4936 36.0409 23.3936 36.0409 23.2686V17.1453C36.0409 17.0203 36.1413 16.9204 36.2668 16.9204Z" fill="#1D1D1B"/>
<path d="M29.3522 29.0796H16.1255C14.5193 29.0796 13.2267 27.7799 13.2267 26.1929V19.8071C13.2267 18.2075 14.5318 16.9204 16.1255 16.9204H29.3522C29.6032 16.9204 29.804 16.7205 29.804 16.4705V14.1836C29.804 13.9337 29.6032 13.7338 29.3522 13.7338H16.1255C12.7498 13.7338 10.0142 16.458 10.0142 19.8196V26.2054C10.0142 29.567 12.7498 32.2912 16.1255 32.2912H29.3397C29.5906 32.2912 29.804 32.0913 29.804 31.8288V29.542C29.804 29.292 29.6032 29.0796 29.3397 29.0796" fill="#1D1D1B"/>
<path d="M64 46H0V0H64V46ZM3.21255 42.8009H60.7875V3.19913H3.21255V42.8009Z" fill="#1D1D1B"/>
</g>
<defs>
<clipPath id="clip0_3790_7324">
<rect width="64" height="46" fill="white"/>
</clipPath>
</defs>
</svg>
