<svg width="9" height="44" viewBox="0 0 9 44" fill="none" xmlns="http://www.w3.org/2000/svg">
<g clip-path="url(#clip0_3790_7139)">
<path fill-rule="evenodd" clip-rule="evenodd" d="M4.60629 40.3194C4.12263 40.3194 3.73047 39.9275 3.73047 39.444C3.73047 38.9606 4.12263 38.5686 4.60629 38.5686C5.08995 38.5686 5.4821 38.9606 5.4821 39.444C5.4821 39.9275 5.08995 40.3194 4.60629 40.3194Z" fill="black"/>
<path fill-rule="evenodd" clip-rule="evenodd" d="M8.75011 27.1228C8.75011 27.358 8.65861 27.5671 8.48867 27.7369C8.31874 27.9068 8.10959 27.9983 7.86122 27.9983C7.61286 27.9983 7.40371 27.9068 7.23377 27.7369C7.06384 27.5671 6.97233 27.358 6.97233 27.1228C6.97233 26.8746 7.06384 26.6655 7.23377 26.4957C7.40371 26.3258 7.62593 26.2344 7.87429 26.2344C8.12266 26.2344 8.31874 26.3258 8.48867 26.4957C8.65861 26.6655 8.75011 26.8746 8.75011 27.1098V27.1228ZM5.24684 31.2255C5.24684 30.8074 5.10305 30.4547 4.8024 30.1672C4.50175 29.8928 4.12266 29.7491 3.65207 29.7491C3.18148 29.7491 2.78933 29.8928 2.48867 30.1803C2.18802 30.4677 2.03116 30.8205 2.03116 31.2386C2.03116 31.6698 2.17495 32.0226 2.4756 32.31C2.77626 32.5975 3.16841 32.7412 3.65207 32.7412C4.13573 32.7412 4.51482 32.5975 4.8024 32.31C5.10305 32.0226 5.24684 31.6698 5.24684 31.2386V31.2255ZM8.48867 32.6628V34.0347H0.893903V32.6628H1.48214C1.23377 32.3884 1.05077 32.1271 0.933118 31.8527C0.815471 31.5783 0.763184 31.2909 0.763184 30.9773C0.763184 30.2717 1.03769 29.6576 1.58671 29.1481C2.13573 28.6385 2.81547 28.3772 3.62593 28.3772C4.43639 28.3772 5.15534 28.6254 5.70436 29.1219C6.24031 29.6184 6.51482 30.2325 6.51482 30.9381C6.51482 31.2647 6.44946 31.5783 6.33181 31.8658C6.21416 32.1532 6.01809 32.4145 5.78279 32.6628H8.50175H8.48867ZM6.37103 26.3519V27.7239H0.893903V26.3519H6.37103ZM8.48867 20.7597V22.1316H4.12266L6.3841 24.1569V25.8685L3.76972 23.5297L0.893903 26.156V24.4574L3.41678 22.1316H0.893903V20.7597H8.48867ZM5.25992 20.4461L4.63246 19.3094C4.85469 19.1004 5.01155 18.8782 5.10305 18.6692C5.19456 18.4601 5.23377 18.2119 5.23377 17.9375C5.23377 17.4279 5.07691 17.0098 4.77626 16.6962C4.4756 16.3826 4.08345 16.2258 3.59979 16.2258C3.11612 16.2258 2.76318 16.3826 2.46253 16.6832C2.17495 16.9837 2.01809 17.3887 2.01809 17.8852C2.01809 18.4993 2.22724 18.9697 2.64554 19.3094L1.90044 20.3939C1.14227 19.7928 0.763184 18.9697 0.763184 17.8983C0.763184 16.9314 1.05077 16.1866 1.61286 15.6379C2.18802 15.0891 2.84162 14.8278 3.61286 14.8278C4.13573 14.8278 4.63246 14.9584 5.07691 15.2198C5.52135 15.4811 5.87429 15.86 6.12266 16.3304C6.37103 16.8007 6.50175 17.3364 6.50175 17.9244C6.50175 18.4732 6.39717 18.9566 6.17495 19.3878C5.95273 19.819 5.65207 20.1718 5.24684 20.4461H5.25992ZM5.2207 11.6658C5.2207 12.097 5.07691 12.4629 4.77626 12.7372C4.48867 13.0116 4.10959 13.1553 3.639 13.1553C3.16841 13.1553 2.78933 13.0116 2.48867 12.7242C2.18802 12.4367 2.04423 12.0839 2.04423 11.6528C2.04423 11.2216 2.18802 10.8688 2.48867 10.5944C2.78933 10.32 3.16841 10.1763 3.639 10.1763C4.10959 10.1763 4.4756 10.32 4.77626 10.6075C5.07691 10.8949 5.2207 11.2477 5.2207 11.6658ZM6.51482 11.6397C6.51482 10.9211 6.26645 10.2939 5.76972 9.74514C5.19456 9.11797 4.48867 8.80439 3.639 8.80439C2.84161 8.80439 2.16188 9.07878 1.61286 9.64061C1.03769 10.2024 0.763184 10.8688 0.763184 11.6528C0.763184 12.1885 0.893903 12.6719 1.14227 13.1162C1.39063 13.5604 1.74358 13.9132 2.18802 14.1614C2.63246 14.4227 3.11612 14.5403 3.639 14.5403C4.16188 14.5403 4.63246 14.4097 5.06384 14.1614C5.50828 13.9001 5.86122 13.5473 6.10959 13.1031C6.37103 12.6458 6.50175 12.1623 6.50175 11.6528L6.51482 11.6397ZM6.3841 6.29573V7.48473H5.69129C5.9658 7.61539 6.17495 7.78525 6.30567 7.9943C6.44946 8.20336 6.51482 8.43855 6.51482 8.6868C6.51482 8.86972 6.46253 9.05264 6.37103 9.23557L5.18148 8.81746C5.25992 8.66067 5.29913 8.53001 5.29913 8.42548C5.29913 8.21642 5.16841 8.0335 4.90697 7.88978C4.64554 7.74605 4.13573 7.66766 3.37756 7.66766H3.11612H0.906974V6.29573H6.37103H6.3841ZM5.27299 5.89069L4.64554 4.75395C4.86776 4.5449 5.02462 4.32278 5.11612 4.11372C5.20763 3.90467 5.24684 3.65641 5.24684 3.38203C5.24684 2.87246 5.08998 2.45435 4.78933 2.14076C4.48867 1.82718 4.09652 1.67039 3.61286 1.67039C3.1292 1.67039 2.77626 1.82718 2.4756 2.1277C2.18802 2.42821 2.03116 2.83326 2.03116 3.32976C2.03116 3.94386 2.24031 4.41424 2.65861 4.75395L1.91351 5.83842C1.14227 5.25046 0.763184 4.4273 0.763184 3.3559C0.763184 2.38902 1.05077 1.64426 1.61286 1.09549C2.18802 0.546719 2.84162 0.2854 3.61286 0.2854C4.13573 0.2854 4.63246 0.41606 5.07691 0.677379C5.52135 0.938697 5.87429 1.31761 6.12266 1.78798C6.37103 2.25836 6.50175 2.79406 6.50175 3.38203C6.50175 3.9308 6.39717 4.41424 6.17495 4.84541C5.95273 5.27659 5.65207 5.62937 5.24684 5.90375L5.27299 5.89069Z" fill="black"/>
<path fill-rule="evenodd" clip-rule="evenodd" d="M4.55392 35.5504C2.59314 35.5765 0.985294 37.0399 0.75 38.9083C0.789216 38.856 0.828431 38.8038 0.880719 38.7515C1.06373 38.5686 1.29902 38.4641 1.57353 38.4641C1.83497 38.4641 2.05719 38.5555 2.25327 38.7385C2.35784 38.843 2.43627 38.9606 2.48856 39.1043C2.63235 38.0852 3.52124 37.2881 4.59314 37.2751C5.78268 37.262 6.75 38.2028 6.76307 39.3918C6.76307 40.3717 6.12255 41.1949 5.23366 41.4692L4.91993 43.2723C6.94608 43.1155 8.51471 41.417 8.48856 39.3787C8.46242 37.2489 6.71078 35.5373 4.56699 35.5504H4.55392ZM2.47549 39.7315C2.43627 39.8621 2.35784 39.9797 2.25327 40.0842C2.07026 40.2672 1.83497 40.3717 1.57353 40.3717C1.31209 40.3717 1.0768 40.2802 0.893791 40.0973C0.841503 40.045 0.802288 39.9928 0.763072 39.9405C1.02451 41.8351 2.67157 43.2985 4.6585 43.2723L4.12255 41.4823C3.27288 41.2863 2.61928 40.5938 2.48856 39.7184L2.47549 39.7315Z" fill="black"/>
</g>
<defs>
<clipPath id="clip0_3790_7139">
<rect width="8" height="43" fill="white" transform="translate(0.75 0.2854)"/>
</clipPath>
</defs>
</svg>
