<svg width="21" height="5" viewBox="0 0 21 5" fill="none" xmlns="http://www.w3.org/2000/svg">
<path d="M0.253329 4.88068V3.60938H0.487704C0.568197 3.53598 0.643954 3.43241 0.714977 3.29865C0.787183 3.16371 0.848145 2.98378 0.89786 2.75888C0.94876 2.53279 0.982496 2.24574 0.999068 1.89773L1.07719 0.363636H3.23628V3.60938H3.65532V4.87358H3.23628V4H0.672363V4.88068H0.253329ZM1.01327 3.60938H2.81725V0.754261H1.47492L1.4181 1.89773C1.4039 2.16288 1.37904 2.40317 1.34353 2.61861C1.30802 2.83286 1.26244 3.02285 1.20681 3.18857C1.15117 3.3531 1.08666 3.49337 1.01327 3.60938ZM6.39372 2.03267V2.4233H4.89514V2.03267H6.39372ZM4.02867 2.86364H4.48321C4.52227 3.11932 4.60869 3.31581 4.74244 3.45312C4.8762 3.59044 5.09046 3.65909 5.3852 3.65909C5.59353 3.65909 5.76754 3.6005 5.90722 3.48331C6.04808 3.36612 6.15343 3.21106 6.22327 3.01811C6.29429 2.82517 6.3298 2.61506 6.3298 2.38778V1.98295C6.3298 1.73201 6.29015 1.51125 6.21084 1.32067C6.13271 1.12891 6.01967 0.979759 5.87171 0.873224C5.72493 0.765506 5.54855 0.711648 5.34259 0.711648C5.16266 0.711648 5.01351 0.743608 4.89514 0.807528C4.77677 0.871449 4.68444 0.963186 4.61816 1.08274C4.55187 1.2023 4.50689 1.34612 4.48321 1.5142H4.02867C4.05234 1.2822 4.11567 1.07623 4.21865 0.896307C4.32282 0.715199 4.46782 0.573153 4.65367 0.47017C4.84069 0.366004 5.07033 0.31392 5.34259 0.31392C5.63851 0.31392 5.8942 0.383168 6.10963 0.521662C6.32507 0.658973 6.49138 0.852509 6.60857 1.10227C6.72575 1.35085 6.78435 1.64205 6.78435 1.97585V2.39489C6.78435 2.72869 6.72635 3.01989 6.61034 3.26847C6.49434 3.51586 6.33158 3.70821 6.12206 3.84553C5.91254 3.98165 5.66692 4.04972 5.3852 4.04972C5.09637 4.04972 4.85608 3.99763 4.66432 3.89347C4.47374 3.78812 4.32637 3.64607 4.2222 3.46733C4.11922 3.28741 4.05471 3.08617 4.02867 2.86364ZM7.0627 4.88068V3.60938H7.29708C7.37757 3.53598 7.45333 3.43241 7.52435 3.29865C7.59656 3.16371 7.65752 2.98378 7.70724 2.75888C7.75813 2.53279 7.79187 2.24574 7.80844 1.89773L7.88657 0.363636H10.0457V3.60938H10.4647V4.87358H10.0457V4H7.48174V4.88068H7.0627ZM7.82265 3.60938H9.62662V0.754261H8.28429L8.22748 1.89773C8.21327 2.16288 8.18841 2.40317 8.1529 2.61861C8.11739 2.83286 8.07182 3.02285 8.01618 3.18857C7.96055 3.3531 7.89604 3.49337 7.82265 3.60938ZM10.9801 0.363636H11.4133V3.22585H11.4488L13.4375 0.363636H13.8636V4H13.4233V1.14489H13.3878L11.4062 4H10.9801V0.363636ZM16.7325 4L15.4825 2.33097H15.0351V4H14.5947V0.363636H15.0351V1.94034H15.2268L16.6828 0.363636H17.2084L15.7382 1.96165L17.2581 4H16.7325ZM20.5744 2.18182C20.5744 2.56534 20.5052 2.89678 20.3667 3.17614C20.2282 3.45549 20.0382 3.67093 19.7967 3.82244C19.5553 3.97396 19.2795 4.04972 18.9693 4.04972C18.6592 4.04972 18.3834 3.97396 18.1419 3.82244C17.9004 3.67093 17.7104 3.45549 17.572 3.17614C17.4335 2.89678 17.3642 2.56534 17.3642 2.18182C17.3642 1.7983 17.4335 1.46686 17.572 1.1875C17.7104 0.908144 17.9004 0.692708 18.1419 0.541193C18.3834 0.389678 18.6592 0.31392 18.9693 0.31392C19.2795 0.31392 19.5553 0.389678 19.7967 0.541193C20.0382 0.692708 20.2282 0.908144 20.3667 1.1875C20.5052 1.46686 20.5744 1.7983 20.5744 2.18182ZM20.1483 2.18182C20.1483 1.86695 20.0956 1.60121 19.9903 1.38459C19.8861 1.16797 19.7447 1.00402 19.5659 0.892756C19.3884 0.781487 19.1895 0.725852 18.9693 0.725852C18.7492 0.725852 18.5497 0.781487 18.371 0.892756C18.1934 1.00402 18.052 1.16797 17.9466 1.38459C17.8424 1.60121 17.7903 1.86695 17.7903 2.18182C17.7903 2.49669 17.8424 2.76243 17.9466 2.97905C18.052 3.19567 18.1934 3.35961 18.371 3.47088C18.5497 3.58215 18.7492 3.63778 18.9693 3.63778C19.1895 3.63778 19.3884 3.58215 19.5659 3.47088C19.7447 3.35961 19.8861 3.19567 19.9903 2.97905C20.0956 2.76243 20.1483 2.49669 20.1483 2.18182Z" fill="black"/>
</svg>
