<svg width="115" height="37" viewBox="0 0 115 37" fill="none" xmlns="http://www.w3.org/2000/svg">
<g clip-path="url(#clip0_3790_6963)">
<path d="M41.3597 9.01604C41.2126 8.10757 40.9184 6.81943 40.3434 5.20587C39.7684 3.59231 39.18 2.39909 38.712 1.61265C38.244 0.799092 37.3213 0.378753 36.412 0.568584C35.5428 0.744855 34.2859 1.07028 32.6812 1.66689C31.0765 2.2635 29.9132 2.81943 29.1242 3.25333C28.3085 3.70079 27.8672 4.62282 28.0143 5.55841C28.1614 6.46689 28.4556 7.75502 29.0306 9.36858C29.6056 10.9821 30.194 12.1754 30.662 12.9618C31.13 13.7754 32.0527 14.1957 32.962 14.0059C33.8312 13.8296 35.0882 13.5042 36.6928 12.9076C38.2975 12.311 39.4609 11.755 40.2498 11.3211C41.0655 10.8737 41.5068 9.95163 41.3597 9.01604Z" fill="black"/>
<path d="M55.3338 2.81946C54.5181 2.45336 53.3146 1.97879 51.6699 1.51777C50.0251 1.05675 48.7548 0.826243 47.8722 0.717768C46.9495 0.595734 46.0536 1.09743 45.6524 1.93811C45.2513 2.76523 44.7565 3.98556 44.3019 5.6398C43.8472 7.29404 43.6466 8.60929 43.5664 9.51777C43.4862 10.4534 43.9943 11.3483 44.8367 11.7279C45.6524 12.094 46.8559 12.5686 48.5007 13.0296C50.1455 13.4906 51.4158 13.7212 52.2984 13.8296C53.221 13.9517 54.117 13.45 54.5181 12.6093C54.9193 11.7822 55.4141 10.5618 55.8687 8.9076C56.3234 7.25336 56.524 5.93811 56.6042 5.02963C56.6844 4.09404 56.1763 3.19912 55.3338 2.81946Z" fill="black"/>
<path d="M72.0355 9.01604C71.8884 8.10757 71.5942 6.81943 71.0192 5.20587C70.4442 3.59231 69.8558 2.39909 69.3878 1.61265C68.9198 0.799092 67.9971 0.378753 67.0878 0.568584C66.2186 0.744855 64.9616 1.07028 63.357 1.66689C61.7523 2.2635 60.589 2.81943 59.8 3.25333C58.9843 3.70079 58.543 4.62282 58.6901 5.55841C58.8372 6.46689 59.1314 7.75502 59.7064 9.36858C60.2814 10.9821 60.8698 12.1754 61.3378 12.9618C61.8058 13.7754 62.7285 14.1957 63.6378 14.0059C64.507 13.8296 65.764 13.5042 67.3686 12.9076C68.9733 12.311 70.1366 11.755 70.9256 11.3211C71.7413 10.8737 72.1826 9.95163 72.0355 9.01604Z" fill="black"/>
<path d="M86.0091 2.81946C85.1934 2.45336 83.9899 1.97879 82.3452 1.51777C80.7004 1.05675 79.4301 0.826243 78.5475 0.717768C77.6248 0.595734 76.7289 1.09743 76.3277 1.93811C75.9266 2.76523 75.4318 3.98556 74.9772 5.6398C74.5225 7.29404 74.3219 8.60929 74.2417 9.51777C74.1615 10.4534 74.6696 11.3483 75.512 11.7279C76.3277 12.094 77.5312 12.5686 79.176 13.0296C80.8208 13.4906 82.0911 13.7212 82.9737 13.8296C83.8963 13.9517 84.7923 13.45 85.1934 12.6093C85.5946 11.7822 86.0894 10.5618 86.544 8.9076C86.9987 7.25336 87.1992 5.93811 87.2795 5.02963C87.3597 4.09404 86.8516 3.19912 86.0091 2.81946Z" fill="black"/>
<path d="M2.875 33.6398C2.875 33.8567 2.79477 34.0466 2.64767 34.1957C2.50058 34.3449 2.31337 34.4262 2.09942 34.4262H0.775581C0.561628 34.4262 0.374419 34.3449 0.227326 34.1957C0.0802326 34.0466 0 33.8567 0 33.6398V30.2364C0 30.0194 0.0802326 29.8296 0.227326 29.6805C0.374419 29.5313 0.561628 29.4499 0.775581 29.4499H1.19012C1.36395 29.2194 1.52442 28.9347 1.65814 28.5957C1.79186 28.2567 1.91221 27.9042 2.00581 27.511C2.09942 27.1177 2.17965 26.711 2.24651 26.2906C2.31337 25.8703 2.35349 25.4499 2.38023 25.0296L2.46046 23.8093C2.46046 23.5923 2.55407 23.4025 2.71453 23.2533C2.875 23.1042 3.06221 23.0228 3.27616 23.0228H9.03953C9.25349 23.0228 9.4407 23.1042 9.58779 23.2533C9.73488 23.4025 9.81512 23.5923 9.81512 23.8093V29.4635H10.5773C10.7913 29.4635 10.9785 29.5449 11.1256 29.694C11.2727 29.8432 11.3529 30.033 11.3529 30.2499V33.6533C11.3529 33.8703 11.2727 34.0601 11.1256 34.2093C10.9785 34.3584 10.7913 34.4398 10.5773 34.4398H9.26686C9.05291 34.4398 8.8657 34.3584 8.7186 34.2093C8.57151 34.0601 8.49128 33.8703 8.49128 33.6533V32.3652H2.875V33.6533V33.6398ZM6.75291 25.911H5.37558L5.33546 26.2906C5.24186 27.0771 5.10814 27.7279 4.94767 28.2432C4.78721 28.7584 4.6 29.1516 4.41279 29.4499H6.75291V25.911Z" fill="black"/>
<path d="M15.3513 28.7178C15.4984 29.1653 15.7659 29.4907 16.167 29.6941C16.5548 29.8975 17.0095 30.0059 17.5042 30.0059C17.8519 30.0059 18.1461 29.9788 18.4002 29.9382C18.6542 29.8975 18.9083 29.8297 19.1624 29.7348C19.3095 29.6805 19.4565 29.6534 19.617 29.6534C19.9513 29.6534 20.1786 29.8026 20.3391 30.0873L20.6734 30.7517C20.7269 30.8602 20.7536 30.9822 20.7536 31.1314C20.7536 31.4297 20.6333 31.6602 20.3792 31.8229C19.7909 32.1483 19.256 32.3653 18.7612 32.4602C18.2664 32.5551 17.7449 32.6093 17.1833 32.6093C16.4211 32.6093 15.7257 32.4873 15.1106 32.2568C14.4955 32.0263 13.974 31.6873 13.5461 31.2534C13.1182 30.8195 12.7839 30.3043 12.5432 29.6941C12.3025 29.0839 12.1821 28.4059 12.1821 27.6737C12.1821 26.9958 12.3025 26.3585 12.5432 25.7619C12.7839 25.1653 13.1182 24.65 13.5461 24.189C13.974 23.7415 14.4955 23.389 15.1106 23.1314C15.7257 22.8737 16.4211 22.7517 17.1833 22.7517C17.7717 22.7517 18.3333 22.8602 18.8682 23.0636C19.4031 23.267 19.8845 23.5653 20.2856 23.9585C20.7002 24.3517 21.0211 24.8127 21.2752 25.3551C21.5159 25.8975 21.6496 26.4941 21.6496 27.1585C21.6496 27.5381 21.6228 27.85 21.5827 28.0941C21.556 28.2432 21.4757 28.3924 21.3286 28.5144C21.1815 28.65 21.0345 28.7178 20.8874 28.7178H15.3513ZM18.574 26.6432C18.574 26.3314 18.4536 26.0331 18.1996 25.7619C17.9455 25.4907 17.5711 25.3551 17.0763 25.3551C16.5548 25.3551 16.167 25.4636 15.8862 25.6941C15.6188 25.911 15.4048 26.2365 15.2577 26.6432H18.574Z" fill="black"/>
<path d="M25.902 32.3516C25.688 32.3516 25.5008 32.2703 25.3537 32.1211C25.2066 31.972 25.1264 31.7821 25.1264 31.5652V26.1279H23.2409C23.027 26.1279 22.8398 26.0466 22.6927 25.8974C22.5456 25.7482 22.4653 25.5584 22.4653 25.3415V23.8093C22.4653 23.5923 22.5456 23.4025 22.6927 23.2533C22.8398 23.1042 23.027 23.0228 23.2409 23.0228H30.0874C30.3014 23.0228 30.4886 23.1042 30.6357 23.2533C30.7828 23.4025 30.863 23.5923 30.863 23.8093V25.3415C30.863 25.5584 30.7828 25.7482 30.6357 25.8974C30.4886 26.0466 30.3014 26.1279 30.0874 26.1279H28.202V31.5652C28.202 31.7821 28.1217 31.972 27.9746 32.1211C27.8275 32.2703 27.6403 32.3516 27.4264 32.3516H25.9153H25.902Z" fill="black"/>
<path d="M38.3246 26.0331C37.8298 25.789 37.3618 25.6534 36.9072 25.6534C36.6665 25.6534 36.4258 25.6941 36.1851 25.7755C35.9577 25.8568 35.7438 25.9924 35.5432 26.1551C35.356 26.3314 35.1955 26.5348 35.0886 26.7924C34.9682 27.0365 34.9147 27.3348 34.9147 27.6602C34.9147 27.9856 34.9816 28.2568 35.1019 28.5144C35.2223 28.7585 35.3827 28.9755 35.57 29.1517C35.7572 29.328 35.9711 29.4636 36.2118 29.5449C36.4525 29.6399 36.6932 29.6805 36.9339 29.6805C37.4153 29.6805 37.8833 29.5314 38.3647 29.2195C38.5386 29.0975 38.7391 29.0297 38.9397 29.0297C39.1938 29.0297 39.4077 29.1382 39.5816 29.3551L40.2101 30.2094C40.317 30.3585 40.3705 30.5348 40.3705 30.7111C40.3705 30.9822 40.2636 31.2127 40.0362 31.3755C39.4211 31.8772 38.8461 32.2026 38.2979 32.3517C37.7496 32.5009 37.2281 32.5822 36.7467 32.5822C35.9711 32.5822 35.2624 32.4602 34.6205 32.2297C33.9787 31.9992 33.4438 31.6602 33.0025 31.2263C32.5612 30.7924 32.2136 30.2772 31.9729 29.667C31.7322 29.0568 31.6118 28.3924 31.6118 27.6466C31.6118 26.9687 31.7322 26.3314 31.9595 25.7348C32.1868 25.1382 32.5211 24.6229 32.949 24.1619C33.3769 23.7144 33.8984 23.3619 34.5002 23.1043C35.1019 22.8466 35.7572 22.7246 36.4926 22.7246C37.1077 22.7246 37.656 22.7788 38.1508 22.8873C38.6455 22.9958 39.167 23.2399 39.7019 23.5924C39.9961 23.7822 40.1566 24.0263 40.1566 24.3246C40.1566 24.4602 40.1165 24.5958 40.0362 24.7178L39.4479 25.7212C39.2874 25.9924 39.0467 26.1416 38.7525 26.1416C38.592 26.1416 38.4316 26.1009 38.2979 26.0195" fill="black"/>
<path d="M45.1975 27.8906V31.5652C45.1975 31.7822 45.1172 31.972 44.9701 32.1212C44.823 32.2703 44.6358 32.3517 44.4219 32.3517H42.9108C42.6969 32.3517 42.5097 32.2703 42.3626 32.1212C42.2155 31.972 42.1353 31.7822 42.1353 31.5652V23.7957C42.1353 23.5788 42.2155 23.3889 42.3626 23.2398C42.5097 23.0906 42.6969 23.0093 42.9108 23.0093H44.4219C44.6358 23.0093 44.823 23.0906 44.9701 23.2398C45.1172 23.3889 45.1975 23.5788 45.1975 23.7957V27.0771L47.5777 23.5245C47.6847 23.3754 47.8318 23.2534 47.9922 23.1449C48.1661 23.05 48.3399 22.9957 48.5405 22.9957H49.9713C50.1986 22.9957 50.3992 23.0771 50.5463 23.2398C50.6934 23.4025 50.7736 23.5923 50.7736 23.7957C50.7736 23.9584 50.7201 24.1212 50.6132 24.2703L48.4469 27.1856L49.4498 28.5822C49.8376 29.0974 50.1986 29.3957 50.5597 29.4771C50.8672 29.5449 51.0812 29.6534 51.1882 29.7889C51.2951 29.9245 51.3353 30.1551 51.3353 30.4805V31.7415C51.3353 31.9042 51.2684 32.0534 51.148 32.2025C51.0277 32.3381 50.8806 32.4195 50.7201 32.4466C50.6132 32.4601 50.5062 32.4737 50.4126 32.4737C50.319 32.4737 50.212 32.4737 50.105 32.4737C49.8643 32.4737 49.5969 32.4466 49.3428 32.3923C49.0754 32.3381 48.8079 32.2432 48.5405 32.094C48.273 31.9449 48.0056 31.7415 47.7382 31.4839C47.4707 31.2262 47.2033 30.8873 46.9225 30.4669L45.1975 27.8635V27.8906Z" fill="black"/>
<path d="M60.2011 32.3516C59.9871 32.3516 59.7999 32.2703 59.6528 32.1211C59.5057 31.972 59.4255 31.7822 59.4255 31.5652V27.4703L56.497 31.8364C56.39 31.9855 56.2563 32.1076 56.1226 32.2161C55.9755 32.311 55.815 32.3652 55.6144 32.3652H53.8493C53.6354 32.3652 53.4482 32.2839 53.3011 32.1347C53.154 31.9855 53.0737 31.7957 53.0737 31.5788V23.8093C53.0737 23.5923 53.154 23.4025 53.3011 23.2533C53.4482 23.1042 53.6354 23.0228 53.8493 23.0228H55.3604C55.5743 23.0228 55.7615 23.1042 55.9086 23.2533C56.0557 23.4025 56.1359 23.5923 56.1359 23.8093V27.9042L59.0644 23.5381C59.1714 23.3889 59.2918 23.2669 59.4388 23.1584C59.5726 23.0635 59.733 23.0093 59.9336 23.0093H61.7121C61.9261 23.0093 62.1133 23.0906 62.2604 23.2398C62.4075 23.3889 62.4877 23.5788 62.4877 23.7957V31.5652C62.4877 31.7822 62.4075 31.972 62.2604 32.1211C62.1133 32.2703 61.9261 32.3516 61.7121 32.3516H60.2011Z" fill="black"/>
<path d="M71.8886 32.3517C71.6746 32.3517 71.4874 32.2704 71.3403 32.1212C71.1932 31.9721 71.113 31.7822 71.113 31.5653V27.4704L68.1845 31.8365C68.0775 31.9856 67.9438 32.1076 67.8101 32.2161C67.663 32.311 67.5025 32.3653 67.3019 32.3653H65.5368C65.3229 32.3653 65.1356 32.2839 64.9886 32.1348C64.8415 31.9856 64.7612 31.7958 64.7612 31.5788V23.8093C64.7612 23.5924 64.8415 23.4026 64.9886 23.2534C65.1356 23.1043 65.3229 23.0229 65.5368 23.0229H67.0479C67.2618 23.0229 67.449 23.1043 67.5961 23.2534C67.7432 23.4026 67.8234 23.5924 67.8234 23.8093V27.9043L70.7519 23.5382C70.8589 23.389 70.9793 23.267 71.1263 23.1585C71.2601 23.0636 71.4205 23.0093 71.6211 23.0093H73.3996C73.6136 23.0093 73.8008 23.0907 73.9479 23.2399C74.095 23.389 74.1752 23.5788 74.1752 23.7958V31.5653C74.1752 31.7822 74.095 31.9721 73.9479 32.1212C73.8008 32.2704 73.6136 32.3517 73.3996 32.3517H71.8886ZM71.4339 18.9144C71.8484 18.9144 72.156 19.0365 72.3699 19.267C72.5839 19.4975 72.6909 19.8093 72.6909 20.1754C72.6909 20.7178 72.4234 21.1788 71.9019 21.5449C71.3804 21.9246 70.5915 22.1009 69.5618 22.1009C68.4118 22.1009 67.5961 21.911 67.088 21.5449C66.5932 21.1653 66.3391 20.7178 66.3391 20.1754C66.3391 19.7958 66.4461 19.4975 66.6467 19.267C66.8473 19.0365 67.1548 18.9144 67.5694 18.9144C67.9304 18.9144 68.1845 18.9822 68.345 19.1314C68.5054 19.2805 68.6258 19.4704 68.6926 19.7009C68.7595 19.8907 68.8531 20.0399 68.9734 20.1619C69.0938 20.2839 69.281 20.3382 69.5484 20.3382C69.7758 20.3382 69.9496 20.2839 70.0566 20.1619C70.1636 20.0399 70.2572 19.8907 70.324 19.7009C70.3909 19.4704 70.5112 19.2805 70.6717 19.1314C70.8322 18.9822 71.0862 18.9144 71.4339 18.9144Z" fill="black"/>
<path d="M83.6022 31.5652C83.6022 31.7822 83.522 31.972 83.3749 32.1212C83.2278 32.2703 83.0406 32.3517 82.8267 32.3517H81.3156C81.1017 32.3517 80.9145 32.2703 80.7674 32.1212C80.6203 31.972 80.54 31.7822 80.54 31.5652V23.7957C80.54 23.5788 80.6203 23.3889 80.7674 23.2398C80.9145 23.0906 81.1017 23.0093 81.3156 23.0093H82.7732C83.1342 23.0093 83.4418 23.172 83.7226 23.4839L86.0761 26.1822L88.2424 23.4974C88.3627 23.3483 88.4964 23.2262 88.6569 23.1313C88.804 23.0364 88.9778 22.9957 89.165 22.9957H90.5424C90.7563 22.9957 90.9435 23.0771 91.0906 23.2262C91.2377 23.3754 91.3179 23.5652 91.3179 23.7822V31.5517C91.3179 31.7686 91.2377 31.9584 91.0906 32.1076C90.9435 32.2567 90.7563 32.3381 90.5424 32.3381H89.0313C88.8174 32.3381 88.6302 32.2567 88.4831 32.1076C88.336 31.9584 88.2557 31.7686 88.2557 31.5517V27.7551L86.5174 29.7483C86.3703 29.911 86.1831 29.9923 85.9825 29.9923C85.7819 29.9923 85.5947 29.911 85.4476 29.7618L83.629 27.7415V31.5381L83.6022 31.5652Z" fill="black"/>
<path d="M100.692 32.3516C100.478 32.3516 100.291 32.2703 100.144 32.1211C99.9964 31.972 99.9162 31.7822 99.9162 31.5652V27.4703L96.9877 31.8364C96.8807 31.9855 96.747 32.1076 96.6133 32.2161C96.4662 32.311 96.3057 32.3652 96.1052 32.3652H94.34C94.1261 32.3652 93.9389 32.2839 93.7918 32.1347C93.6447 31.9855 93.5645 31.7957 93.5645 31.5788V23.8093C93.5645 23.5923 93.6447 23.4025 93.7918 23.2533C93.9389 23.1042 94.1261 23.0228 94.34 23.0228H95.8511C96.065 23.0228 96.2522 23.1042 96.3993 23.2533C96.5464 23.4025 96.6267 23.5923 96.6267 23.8093V27.9042L99.5551 23.5381C99.6621 23.3889 99.7825 23.2669 99.9296 23.1584C100.063 23.0635 100.224 23.0093 100.424 23.0093H102.203C102.417 23.0093 102.604 23.0906 102.751 23.2398C102.898 23.3889 102.978 23.5788 102.978 23.7957V31.5652C102.978 31.7822 102.898 31.972 102.751 32.1211C102.604 32.2703 102.417 32.3516 102.203 32.3516H100.692Z" fill="black"/>
<path d="M108.314 35.7144C108.314 35.9314 108.234 36.1212 108.087 36.2704C107.94 36.4195 107.753 36.5009 107.539 36.5009H106.028C105.814 36.5009 105.626 36.4195 105.479 36.2704C105.332 36.1212 105.252 35.9314 105.252 35.7144V23.7822C105.252 23.5653 105.332 23.3754 105.479 23.2263C105.626 23.0771 105.814 22.9958 106.028 22.9958H107.646C107.833 22.9958 107.993 23.0636 108.127 23.1992C108.261 23.3348 108.328 23.4975 108.328 23.6873C108.582 23.4432 108.929 23.2263 109.371 23.0365C109.812 22.8466 110.32 22.7517 110.882 22.7517C111.497 22.7517 112.058 22.8737 112.566 23.1043C113.075 23.3348 113.516 23.6737 113.864 24.1076C114.225 24.5415 114.492 25.0432 114.693 25.6263C114.893 26.2093 114.987 26.8466 114.987 27.5382C114.987 28.2297 114.866 28.9076 114.626 29.5178C114.385 30.128 114.051 30.6704 113.623 31.1314C113.195 31.5924 112.673 31.9449 112.072 32.2161C111.47 32.4737 110.788 32.6093 110.039 32.6093C109.718 32.6093 109.411 32.5822 109.103 32.5415C108.796 32.4873 108.528 32.4195 108.314 32.3246V35.728V35.7144ZM108.314 29.3415C108.541 29.4771 108.755 29.572 108.956 29.6263C109.157 29.6805 109.411 29.6941 109.745 29.6941C110.414 29.6941 110.908 29.4907 111.229 29.0839C111.55 28.6771 111.711 28.1754 111.711 27.5924C111.711 27.05 111.55 26.589 111.243 26.2229C110.935 25.8432 110.494 25.667 109.905 25.667C109.317 25.667 108.796 25.9382 108.301 26.4941V29.3415H108.314Z" fill="black"/>
</g>
<defs>
<clipPath id="clip0_3790_6963">
<rect width="115" height="36" fill="white" transform="translate(0 0.514404)"/>
</clipPath>
</defs>
</svg>
