<svg width="33" height="6" viewBox="0 0 33 6" fill="none" xmlns="http://www.w3.org/2000/svg">
<g clip-path="url(#clip0_3789_5712)">
<path d="M16.7778 5.20631V0.688995H18.4118C18.9517 0.688995 19.3615 0.792007 19.6431 0.996341C19.9246 1.20068 20.0654 1.50633 20.0654 1.91162C20.0654 2.11765 20.0066 2.30509 19.889 2.47059C19.7714 2.63608 19.5985 2.76442 19.3722 2.85562C19.6306 2.92148 19.8284 3.04644 19.9674 3.23051C20.1099 3.41289 20.1794 3.63242 20.1794 3.88742C20.1794 4.31129 20.0351 4.63721 19.7482 4.86518C19.4631 5.09316 19.0515 5.20631 18.5169 5.20631H16.7796H16.7778ZM17.6064 3.16803V4.57979H18.5258C18.786 4.57979 18.9891 4.519 19.1352 4.39741C19.2813 4.27582 19.3544 4.10526 19.3544 3.88911C19.3544 3.41965 19.1014 3.17985 18.5953 3.16972H17.6064V3.16803ZM17.6064 2.59049H18.4189C18.6773 2.59049 18.8769 2.53645 19.0212 2.42668C19.1673 2.31523 19.2404 2.15818 19.2404 1.95553C19.2404 1.73262 19.1726 1.5705 19.0372 1.47087C18.9036 1.37124 18.6951 1.32226 18.4118 1.32226H17.6064V2.59049Z" fill="#010101"/>
<path d="M24.8104 3.06502C24.8104 3.50746 24.7302 3.89586 24.5681 4.23192C24.4059 4.56459 24.1743 4.82128 23.8749 5.00197C23.5756 5.17929 23.2317 5.26879 22.8397 5.26879C22.4476 5.26879 22.1091 5.17929 21.8062 5.00197C21.505 4.82128 21.2716 4.56628 21.1059 4.2353C20.942 3.90431 20.86 3.52266 20.8564 3.09035V2.83535C20.8564 2.3946 20.9384 2.00619 21.1023 1.66845C21.2681 1.33071 21.5015 1.07402 21.799 0.896709C22.1002 0.716016 22.4459 0.626514 22.8343 0.626514C23.2228 0.626514 23.5667 0.716016 23.866 0.893331C24.1671 1.06896 24.3988 1.32395 24.5627 1.65663C24.7266 1.98762 24.8086 2.37264 24.8122 2.8134V3.06502H24.8104ZM23.9818 2.8286C23.9818 2.32874 23.882 1.94371 23.6807 1.67689C23.4811 1.41008 23.1996 1.27667 22.8325 1.27667C22.4655 1.27667 22.1946 1.41008 21.9915 1.67689C21.7901 1.94202 21.6886 2.31692 21.6832 2.80327V3.06333C21.6832 3.55981 21.7848 3.94315 21.9879 4.21503C22.1928 4.48523 22.4762 4.62201 22.8397 4.62201C23.2031 4.62201 23.4882 4.49029 23.6843 4.22516C23.8838 3.96004 23.9818 3.57332 23.9818 3.06502V2.8286Z" fill="#010101"/>
<path d="M28.1268 4.04278C28.1268 3.84351 28.0519 3.69153 27.904 3.58345C27.7579 3.47537 27.4924 3.3673 27.1093 3.25753C26.7262 3.14776 26.4198 3.02618 26.1935 2.89108C25.7587 2.63271 25.5413 2.29496 25.5413 1.87954C25.5413 1.51478 25.6981 1.21588 26.0099 0.979456C26.3235 0.743036 26.7316 0.626514 27.2305 0.626514C27.5619 0.626514 27.8577 0.683931 28.1179 0.800452C28.378 0.916973 28.5812 1.08247 28.7308 1.29693C28.8787 1.50971 28.9536 1.74613 28.9536 2.00788H28.1286C28.1286 1.77146 28.0502 1.58739 27.8934 1.45567C27.7383 1.32058 27.5156 1.25472 27.2252 1.25472C26.9543 1.25472 26.7441 1.30875 26.5944 1.41852C26.4465 1.52829 26.3716 1.68196 26.3716 1.87785C26.3716 2.04335 26.4518 2.18182 26.614 2.29327C26.7761 2.40304 27.0416 2.51112 27.4123 2.61582C27.7829 2.71883 28.0805 2.83873 28.3067 2.97214C28.5313 3.10386 28.697 3.25753 28.8003 3.43147C28.9055 3.60372 28.9571 3.80467 28.9571 4.03603C28.9571 4.41261 28.8039 4.71151 28.4992 4.93611C28.1963 5.15733 27.7829 5.26879 27.2626 5.26879C26.9169 5.26879 26.5997 5.20799 26.3093 5.0881C26.0206 4.96651 25.7961 4.79933 25.6357 4.58486C25.4772 4.37208 25.397 4.12384 25.397 3.84014H26.2255C26.2255 4.09682 26.3146 4.2944 26.4946 4.43625C26.6728 4.57642 26.9294 4.64734 27.2644 4.64734C27.553 4.64734 27.7686 4.5933 27.913 4.48354C28.0591 4.37208 28.1321 4.22516 28.1321 4.04278H28.1268Z" fill="#010101"/>
<path d="M32.173 4.04278C32.173 3.84351 32.0982 3.69153 31.9503 3.58345C31.8041 3.47537 31.5387 3.3673 31.1556 3.25753C30.7707 3.14776 30.466 3.02618 30.2397 2.89108C29.8049 2.63271 29.5875 2.29496 29.5875 1.87954C29.5875 1.51478 29.7443 1.21588 30.0561 0.979456C30.3698 0.743036 30.7778 0.626514 31.2767 0.626514C31.6081 0.626514 31.9039 0.683931 32.1641 0.800452C32.4242 0.916973 32.6274 1.08247 32.777 1.29693C32.9249 1.50971 32.9998 1.74613 32.9998 2.00788H32.1748C32.1748 1.77146 32.0964 1.58739 31.9396 1.45567C31.7845 1.32058 31.5618 1.25472 31.2714 1.25472C31.0005 1.25472 30.7903 1.30875 30.6388 1.41852C30.4909 1.52829 30.4161 1.68196 30.4161 1.87785C30.4161 2.04335 30.4963 2.18182 30.6584 2.29327C30.8206 2.40304 31.0861 2.51112 31.4567 2.61582C31.8273 2.71883 32.1249 2.83873 32.3512 2.97214C32.5757 3.10386 32.7414 3.25753 32.8448 3.43147C32.9499 3.60372 33.0016 3.80467 33.0016 4.03603C33.0016 4.41261 32.8483 4.71151 32.5436 4.93611C32.2407 5.15733 31.8273 5.26879 31.307 5.26879C30.9631 5.26879 30.6442 5.20799 30.3537 5.0881C30.0651 4.96651 29.8405 4.79933 29.6802 4.58486C29.5216 4.37208 29.4414 4.12384 29.4414 3.84014H30.27C30.27 4.09682 30.3591 4.2944 30.539 4.43625C30.7172 4.57642 30.9738 4.64734 31.3088 4.64734C31.5975 4.64734 31.8131 4.5933 31.9574 4.48354C32.1035 4.37208 32.1766 4.22516 32.1766 4.04278H32.173Z" fill="#010101"/>
<path d="M1.53418 4.50042V1.48944H2.47322C2.75475 1.48944 3.00243 1.54855 3.21982 1.66676C3.4372 1.78497 3.60648 1.95384 3.72586 2.17169C3.84525 2.38953 3.90405 2.63946 3.90405 2.91979V3.07008C3.90405 3.35547 3.84347 3.60709 3.7223 3.82325C3.60292 4.0394 3.43186 4.20659 3.20913 4.32311C2.98818 4.43963 2.73337 4.49873 2.44827 4.49873H1.53418V4.50042ZM2.08656 1.91162V4.08331H2.44649C2.73515 4.08331 2.95788 3.99718 3.11291 3.82662C3.26793 3.65438 3.34811 3.40782 3.34989 3.08697V2.91979C3.34989 2.59218 3.27505 2.34393 3.12538 2.17169C2.9757 1.99944 2.75832 1.91331 2.47322 1.91331H2.08656V1.91162Z" fill="#010101"/>
<path d="M5.03546 4.50042H4.48486V1.48944H5.03546V4.50042Z" fill="#010101"/>
<path d="M6.8333 3.8452L7.64048 1.48944H8.24632L7.10236 4.50042H6.56781L5.4292 1.48944H6.03325L6.83152 3.8452H6.8333Z" fill="#010101"/>
<path d="M10.2206 3.79961H8.98935L8.73098 4.50042H8.15723L9.3582 1.48944H9.85355L11.0563 4.50042H10.4808L10.2206 3.79961ZM9.14438 3.37743H10.0656L9.60588 2.12778L9.14616 3.37743H9.14438Z" fill="#010101"/>
<path d="M13.9393 4.50042H13.3869L11.9703 2.3642V4.50042H11.418V1.48944H11.9703L13.3905 3.63411V1.48944H13.9375V4.50042H13.9393Z" fill="#010101"/>
<path d="M15.6429 6H0V0H15.6429V6ZM0.187095 5.82437H15.4558V0.177315H0.187095V5.82437Z" fill="#010101"/>
</g>
<defs>
<clipPath id="clip0_3789_5712">
<rect width="33" height="6" fill="white"/>
</clipPath>
</defs>
</svg>
