<svg width="23" height="23" viewBox="0 0 23 23" fill="none" xmlns="http://www.w3.org/2000/svg">
<g clip-path="url(#clip0_3790_6613)">
<path d="M11.0993 8.56252L10.5073 7.97058L7.9408 10.5371L8.53274 11.129L11.0993 8.56252Z" fill="black"/>
<path fill-rule="evenodd" clip-rule="evenodd" d="M1.10791 2.67238L2.6543 1.12599L3.72028 2.19197C3.83697 2.30865 3.98826 2.48068 4.03033 2.65497C4.08002 2.86539 3.95931 3.02985 3.82321 3.16596L3.15047 3.8387C3.08436 3.90481 3.00432 3.97512 2.92006 4.02049C2.82818 4.06861 2.73744 4.08156 2.63786 4.05716C2.46487 4.01379 2.28944 3.85132 2.17518 3.73707L1.1092 2.67109L1.10791 2.67238ZM0.00525145 2.59115L2.57178 0.0246277L4.48373 1.93659C4.70981 2.16267 4.95203 2.47228 4.93522 2.83915C4.91865 3.19849 4.65746 3.51802 4.42544 3.75004L3.74492 4.43056C3.09162 5.08386 2.57114 5.15704 1.92086 4.50676L0.00525145 2.59115Z" fill="black"/>
<path d="M15.3556 12.8191L14.7637 12.2272L12.1971 14.7937L12.7891 15.3857L15.3556 12.8191Z" fill="black"/>
<path d="M12.2155 13.7907L10.3764 11.9517L13.7541 12.2521L14.2713 11.7349L11.4902 8.9539L10.9795 9.46462L12.8878 11.3729L9.42664 11.0175L8.92371 11.5204L11.7047 14.3015L12.2155 13.7907Z" fill="black"/>
<path d="M14.8195 16.3943C14.7466 16.3214 14.6701 16.2398 14.6153 16.1512C14.5759 16.0885 14.5443 16.018 14.5418 15.9403C14.5392 15.8651 14.5627 15.7979 14.5986 15.7327C14.6465 15.6484 14.718 15.5696 14.7854 15.5022C14.8995 15.3881 15.0149 15.2727 15.1289 15.1587C15.186 15.1016 15.243 15.0446 15.3 14.9876L15.3856 14.902C15.44 14.8476 15.4945 14.7931 15.55 14.7424C15.6224 14.6774 15.7061 14.6107 15.7988 14.5763C15.875 14.5463 15.9491 14.5426 16.0262 14.5653C16.117 14.5912 16.1991 14.65 16.27 14.708C16.3189 14.7491 16.3651 14.7927 16.4113 14.8389L16.4466 14.8742C16.5669 14.9945 16.6885 15.1161 16.8088 15.2364C16.8696 15.2972 16.9291 15.3567 16.9899 15.4175C17.0543 15.4819 17.1187 15.5463 17.1832 15.6108C17.5088 15.9415 17.5611 16.1468 17.2057 16.5095C17.1707 16.5445 17.1357 16.5795 17.1007 16.6145L17.0152 16.7001C16.9581 16.7571 16.9011 16.8142 16.8441 16.8712L16.673 17.0423C16.6444 17.0708 16.6159 17.0993 16.5874 17.1278C16.5395 17.1758 16.4915 17.2238 16.4435 17.2717C16.4008 17.312 16.3544 17.3511 16.3056 17.3853C16.2659 17.4129 16.2262 17.4355 16.1806 17.4521C16.0956 17.4811 16.0192 17.4748 15.9388 17.441C15.8918 17.4199 15.8488 17.3925 15.8071 17.3612C15.7544 17.3215 15.7057 17.2779 15.6582 17.233C15.6387 17.2135 15.6181 17.1929 15.5986 17.1734L15.5597 17.1345C15.3142 16.889 15.0687 16.6435 14.8231 16.398L14.8195 16.3943ZM16.7629 14.1665C16.6414 14.0449 16.5085 13.925 16.3648 13.828C16.2543 13.7538 16.1333 13.6924 15.9999 13.6653C15.879 13.6404 15.7609 13.6467 15.6406 13.6819C15.5025 13.7227 15.3772 13.797 15.2616 13.881C15.1074 13.9939 14.9751 14.1286 14.8403 14.2634L14.7379 14.3658C14.6705 14.4332 14.6018 14.5019 14.5344 14.5693L14.3309 14.7728C14.2972 14.8065 14.2635 14.8402 14.2285 14.8752C14.1507 14.953 14.0742 15.0295 14.0001 15.1109C13.8998 15.2258 13.808 15.3517 13.7445 15.4905C13.6918 15.6088 13.6615 15.7315 13.6636 15.8606C13.6681 15.9947 13.7055 16.1202 13.7632 16.2376C13.835 16.3846 13.9361 16.5168 14.0439 16.6375C14.1238 16.7278 14.2115 16.8103 14.2965 16.8954L14.4315 17.0303C14.5214 17.1202 14.6113 17.2102 14.7013 17.3001C14.8812 17.48 15.0611 17.6599 15.2398 17.8386L15.2495 17.8483C15.3115 17.9103 15.3748 17.971 15.4419 18.0278C15.5298 18.1028 15.6204 18.1726 15.7215 18.2296C16.0922 18.4447 16.4004 18.3796 16.7373 18.1229C16.8762 18.0181 16.9968 17.895 17.12 17.7719L17.2224 17.6695C17.2898 17.6021 17.3585 17.5334 17.4259 17.466C17.4933 17.3986 17.562 17.3299 17.6294 17.2625C17.6631 17.2288 17.6968 17.1951 17.7318 17.1601C17.8199 17.0719 17.9081 16.9838 17.9914 16.8883C18.0983 16.7644 18.1993 16.6269 18.2657 16.4755C18.3185 16.3546 18.3475 16.2307 18.3405 16.0992C18.3346 15.9689 18.2921 15.8486 18.2329 15.7376C18.1607 15.6032 18.0619 15.4784 17.9601 15.3662C17.8825 15.2809 17.7986 15.1995 17.7171 15.1181C17.6722 15.0731 17.626 15.0269 17.581 14.982C17.4898 14.8908 17.3999 14.8009 17.3087 14.7097C17.1276 14.5286 16.9453 14.3463 16.7642 14.1652L16.7629 14.1665Z" fill="black"/>
<path d="M6.42446 3.88776L5.83252 3.29582L3.26599 5.86235L3.85793 6.45429L6.42446 3.88776Z" fill="black"/>
<path d="M10.2176 7.68129L6.32501 8.92172L5.46931 8.06602L6.71582 4.17947L7.40014 4.86379L6.37141 7.94669L6.44312 8.0184L9.54061 7.00426L10.2176 7.68129Z" fill="black"/>
<path d="M19.6506 21.2259L21.7064 19.1701L22.2984 19.762L19.7318 22.3285L18.7157 21.3124L19.285 17.77L19.2023 17.6874L17.1465 19.7432L16.5546 19.1512L19.1211 16.5847L20.1166 17.5802L19.5692 21.1444L19.6506 21.2259Z" fill="black"/>
</g>
<defs>
<clipPath id="clip0_3790_6613">
<rect width="27.9055" height="3.67178" fill="white" transform="translate(2.59619) rotate(45)"/>
</clipPath>
</defs>
</svg>
