<svg width="41" height="10" viewBox="0 0 41 10" fill="none" xmlns="http://www.w3.org/2000/svg">
<g clip-path="url(#clip0_3790_7474)">
<path d="M10.686 4.99432C10.686 4.32463 10.4168 3.68899 9.92521 3.22361C9.43363 2.74688 8.7899 2.48581 8.09934 2.48581H2.56323V7.50284H8.09934C8.7899 7.50284 9.44533 7.24177 9.92521 6.76504C10.4168 6.28831 10.686 5.66402 10.686 4.99432ZM13.2492 4.99432C13.2492 7.75255 10.9435 9.98865 8.09934 9.98865H0V0H8.09934C10.9435 0 13.2492 2.2361 13.2492 4.99432ZM40.052 4.66515C39.7594 4.38138 39.4082 4.15437 39.0337 3.99546C38.6357 3.83655 38.2144 3.74574 37.7813 3.74574H30.9578C30.5949 3.74574 30.3023 3.46198 30.3023 3.1101C30.3023 2.75823 30.5949 2.47446 30.9578 2.47446H39.0337C39.7359 2.47446 40.3094 1.91827 40.3094 1.23723C40.3094 0.556186 39.7476 0 39.0454 0H30.9695C30.5364 0 30.115 0.0794552 29.7171 0.249716C29.3309 0.408627 28.9914 0.635641 28.6988 0.91941C28.4062 1.20318 28.1721 1.5437 28.0083 1.90692C27.8444 2.29285 27.7508 2.70148 27.7508 3.12145C27.7508 3.54143 27.8327 3.95006 28.0083 4.33598C28.1721 4.71056 28.4062 5.03973 28.6988 5.3235C28.9914 5.60726 29.3426 5.83428 29.7171 5.99319C30.115 6.1521 30.5364 6.24291 30.9695 6.24291H37.793C38.1559 6.24291 38.4485 6.52667 38.4485 6.87855C38.4485 7.23042 38.1559 7.51419 37.793 7.51419H29.0383C28.336 7.51419 27.7625 8.07037 27.7625 8.75142C27.7625 9.43246 28.336 9.98865 29.0383 9.98865H37.793C38.2261 9.98865 38.6474 9.90919 39.0454 9.73893C39.4316 9.58002 39.7711 9.35301 40.0637 9.06924C40.3563 8.78547 40.5904 8.44495 40.7542 8.08173C40.9181 7.6958 41.0117 7.28717 41.0117 6.8672C41.0117 6.44722 40.9298 6.03859 40.7542 5.65267C40.5904 5.27809 40.3563 4.94892 40.0637 4.66515H40.052ZM24.5555 0H27.1071V8.75142C27.1071 9.25085 26.791 9.70488 26.3229 9.89784C26.1707 9.96595 25.9951 9.98865 25.8313 9.98865C25.5036 9.98865 25.1758 9.86379 24.9301 9.62543L16.4211 3.65494V9.98865H13.8695V1.24858C13.8695 0.749149 14.1856 0.295119 14.6537 0.102157C15.1336 -0.0908059 15.6837 0.0113508 16.0465 0.374574L24.5555 6.34506V0Z" fill="black"/>
</g>
<defs>
<clipPath id="clip0_3790_7474">
<rect width="41" height="10" fill="white"/>
</clipPath>
</defs>
</svg>
