<svg width="33" height="49" viewBox="0 0 33 49" fill="none" xmlns="http://www.w3.org/2000/svg">
<g clip-path="url(#clip0_3790_7103)">
<path d="M10.2403 34.7598H10.0299V32.5574C10.0299 32.3372 9.87789 32.1517 9.62072 32.1517H7.72699C7.50488 32.1517 7.35292 32.3024 7.35292 32.5574V33.0906C7.35292 33.4732 7.35292 33.7745 7.28278 34.0875C7.21264 34.4005 7.13081 34.5975 7.01392 34.7482H6.9204C6.65154 34.7482 6.52295 34.9105 6.52295 35.1539V35.9073C6.52295 36.1624 6.69829 36.313 6.93209 36.313C7.16588 36.313 7.34123 36.1624 7.34123 35.9073V35.548H9.83113V35.9073C9.83113 36.1624 10.0065 36.313 10.2403 36.313C10.4741 36.313 10.6494 36.1624 10.6494 35.9073V35.1539C10.6494 34.9221 10.5208 34.7482 10.2403 34.7482V34.7598ZM9.19989 34.7598H7.85557C7.9374 34.5859 8.00754 34.4236 8.06599 34.1802C8.12444 33.9252 8.14782 33.6702 8.14782 33.3456V32.9515H9.19989V34.7598Z" fill="#010101"/>
<path d="M12.5899 32.1401C11.5963 32.1401 10.8364 32.882 10.8364 33.8673C10.8364 34.8525 11.5963 35.5944 12.5899 35.5944C13.5835 35.5944 14.3433 34.8409 14.3433 33.8557C14.3433 32.8704 13.5835 32.1401 12.5899 32.1401ZM12.5899 34.8178C12.0522 34.8178 11.6547 34.4121 11.6547 33.8557C11.6547 33.2993 12.0522 32.9052 12.5899 32.9052C13.1276 32.9052 13.5251 33.3109 13.5251 33.8557C13.5251 34.4005 13.151 34.8178 12.5899 34.8178Z" fill="#010101"/>
<path d="M18.1543 34.7598H17.9439V32.5574C17.9439 32.3372 17.792 32.1517 17.5348 32.1517H15.641C15.4189 32.1517 15.267 32.3024 15.267 32.5574V33.0906C15.267 33.4732 15.267 33.7745 15.1968 34.0875C15.1267 34.4005 15.0449 34.5975 14.928 34.7482H14.8345C14.5656 34.7482 14.437 34.9105 14.437 35.1539V35.9073C14.437 36.1624 14.6124 36.313 14.8462 36.313C15.0799 36.313 15.2553 36.1624 15.2553 35.9073V35.548H17.7452V35.9073C17.7452 36.1624 17.9205 36.313 18.1543 36.313C18.3881 36.313 18.5635 36.1624 18.5635 35.9073V35.1539C18.5635 34.9221 18.4349 34.7482 18.1543 34.7482V34.7598ZM17.114 34.7598H15.7696C15.8515 34.5859 15.9216 34.4236 15.9801 34.1802C16.0385 33.9252 16.0619 33.6702 16.0619 33.3456V32.9515H17.114V34.7598Z" fill="#010101"/>
<path d="M20.4688 32.1401C19.4752 32.1401 18.7153 32.882 18.7153 33.8673C18.7153 34.8525 19.4752 35.5944 20.4688 35.5944C21.4624 35.5944 22.2222 34.8409 22.2222 33.8557C22.2222 32.8704 21.4624 32.1401 20.4688 32.1401ZM20.4688 34.8178C19.9311 34.8178 19.5336 34.4121 19.5336 33.8557C19.5336 33.2993 19.9311 32.9052 20.4688 32.9052C21.0065 32.9052 21.404 33.3109 21.404 33.8557C21.404 34.4005 21.0299 34.8178 20.4688 34.8178Z" fill="#010101"/>
<path d="M9.27008 38.1097H6.95553C6.68666 38.1097 6.54639 38.2952 6.54639 38.5154V41.1351C6.54639 41.3901 6.73342 41.5408 6.96722 41.5408C7.20101 41.5408 7.37635 41.3901 7.37635 41.1351V38.9095H8.84926V41.1351C8.84926 41.3901 9.03629 41.5408 9.2584 41.5408C9.4805 41.5408 9.66754 41.3901 9.66754 41.1351V38.5154C9.66754 38.2952 9.51557 38.1097 9.2584 38.1097H9.27008Z" fill="#010101"/>
<path d="M13.2915 38.1097H13.2564C13.0109 38.1097 12.8473 38.2257 12.6836 38.4691L11.3393 40.3701V38.5154C11.3393 38.2604 11.1756 38.1097 10.9419 38.1097C10.7081 38.1097 10.5327 38.2604 10.5327 38.5154V41.0424C10.5327 41.3206 10.7081 41.506 10.9886 41.506H11.0237C11.2809 41.506 11.4445 41.3785 11.6082 41.1467L12.9525 39.2457V41.1003C12.9525 41.3553 13.1161 41.506 13.3499 41.506C13.5837 41.506 13.7474 41.3553 13.7474 41.1003V38.5734C13.7474 38.2836 13.572 38.1097 13.2681 38.1097H13.2915Z" fill="#010101"/>
<path d="M17.8971 40.7178H17.6867V38.4922C17.6867 38.2372 17.4996 38.0865 17.2658 38.0865C17.032 38.0865 16.8567 38.2372 16.8567 38.4922V40.7178H15.4189V38.4922C15.4189 38.2372 15.2435 38.0865 15.0097 38.0865C14.7759 38.0865 14.6006 38.2372 14.6006 38.4922V41.1119C14.6006 41.3321 14.7526 41.5176 15.0097 41.5176H17.4996V41.8769C17.4996 42.1319 17.675 42.2826 17.9088 42.2826C18.1426 42.2826 18.3179 42.1319 18.3179 41.8769V41.1235C18.3179 40.8569 18.1543 40.7178 17.9088 40.7178H17.8971Z" fill="#010101"/>
<path d="M22.0587 40.7178H21.8483V38.4922C21.8483 38.2372 21.6613 38.0865 21.4275 38.0865C21.1937 38.0865 21.0183 38.2372 21.0183 38.4922V40.7178H19.5805V38.4922C19.5805 38.2372 19.4051 38.0865 19.1713 38.0865C18.9376 38.0865 18.7622 38.2372 18.7622 38.4922V41.1119C18.7622 41.3321 18.9142 41.5176 19.1713 41.5176H21.6613V41.8769C21.6613 42.1319 21.8366 42.2826 22.0704 42.2826C22.3042 42.2826 22.4795 42.1319 22.4795 41.8769V41.1235C22.4795 40.8569 22.3159 40.7178 22.0704 40.7178H22.0587Z" fill="#010101"/>
<path d="M26.0917 40.938L24.9695 38.5039C24.8409 38.2373 24.6656 38.1213 24.4084 38.1213H24.3617C24.0928 38.1213 23.9174 38.2373 23.7889 38.5039L22.6666 40.938C22.5614 41.1815 22.6316 41.3901 22.8537 41.4713C23.0524 41.5524 23.2511 41.506 23.368 41.2742L23.6252 40.741C23.8473 40.8221 24.1395 40.8569 24.3967 40.8569C24.6773 40.8569 24.9228 40.8221 25.1332 40.741L25.3787 41.2626C25.4839 41.4944 25.6943 41.5408 25.893 41.4597C26.1151 41.3785 26.1969 41.1583 26.1034 40.9265L26.0917 40.938ZM24.385 40.1266C24.2097 40.1266 24.0343 40.1035 23.8941 40.0687L24.3733 39.0023L24.8526 40.0687C24.724 40.1035 24.5487 40.1266 24.385 40.1266Z" fill="#010101"/>
<path d="M15.8046 7.25342C21.8365 7.25342 26.4773 11.3684 26.4773 17.4886C26.4773 23.6089 21.8365 27.8166 15.8046 27.8166H9.03626C7.66857 27.8166 6.53467 26.924 6.53467 25.3592V9.81512C6.53467 8.25028 7.66857 7.25342 9.03626 7.25342H15.8046Z" fill="black"/>
<path d="M20.7961 15.5644C21.5676 15.6919 21.6027 16.0744 21.7546 16.3295C21.9066 16.5729 22.1638 16.6888 22.4677 16.6888C23.0405 16.6888 23.3912 16.399 23.3912 15.3442C23.3912 13.0259 21.9183 11.9015 20.3752 11.9015C19.1011 11.9015 18.6101 12.1797 17.4061 12.1797C16.5527 12.1797 15.8396 10.4526 14.8694 10.2324C14.4369 9.28188 13.4783 9.17756 12.8821 9.65281C12.3444 9.32825 11.5028 9.50212 11.4677 10.1049C10.8481 9.91941 10.0532 10.244 10.3922 11.0554C8.87258 11.1017 8.59202 12.4232 9.62072 12.5738C8.29978 13.3157 8.90765 14.6023 10.0182 14.3241C10.1 15.2399 10.4741 16.7004 10.4741 17.7204C10.4741 19.1346 9.83113 19.4591 8.94272 19.4591C8.24133 19.4591 7.22433 19.2041 6.52295 19.0071V19.9923C7.22433 20.1662 8.2764 20.3864 9.0713 20.3864C10.4624 20.3864 11.2339 19.575 11.2339 18.0334C11.2339 16.144 10.626 14.4169 10.8248 13.3389L10.778 13.2809C10.0883 13.9996 9.63241 13.8141 9.58565 13.5823C9.49213 13.1186 10.2987 12.5507 10.7663 12.3536C10.7663 12.3188 10.7897 12.2956 10.8014 12.2609C10.3689 12.3304 9.85451 12.2725 9.84282 11.9595C9.81944 11.5886 10.5676 11.264 11.5261 11.3452C11.5495 11.3336 11.5612 11.3104 11.5846 11.2988C11.5261 11.2756 11.456 11.2408 11.3742 11.2061C11.1287 11.0785 11.0585 10.8699 11.1404 10.7076C11.2339 10.5338 11.5028 10.4758 11.7249 10.4758C12.0756 10.4758 12.3678 10.5685 12.5899 10.6497C12.6133 10.6497 12.6367 10.6265 12.66 10.6149C12.5782 10.5569 12.5081 10.4874 12.473 10.4178C12.4146 10.3135 12.4029 10.1744 12.5198 10.0817C12.66 9.97737 12.999 9.94259 13.3147 10.2208C13.3731 10.2787 13.4316 10.3367 13.4783 10.3831C13.5134 10.3831 13.5485 10.3715 13.5835 10.3599C13.5368 10.2787 13.49 10.1976 13.4783 10.1281C13.4549 10.0237 13.49 9.90782 13.6186 9.87304C13.7472 9.82668 13.9225 9.89623 14.016 10.0237C14.1096 10.1628 14.168 10.3367 14.2031 10.4526C13.5134 10.5338 11.7015 10.9395 11.7015 13.1186C11.7015 15.2978 13.4783 17.477 13.4783 20.769C13.4783 21.9629 13.2095 23.1684 12.1106 24.5594C11.269 25.6374 9.92465 26.6806 7.83219 27.5383C7.91402 27.5731 7.99585 27.6079 8.07768 27.6427C8.11275 27.6427 8.13613 27.6658 8.1712 27.6774C8.22964 27.689 8.2764 27.7122 8.33485 27.7238C8.38161 27.7238 8.41668 27.747 8.46344 27.747C8.5102 27.747 8.55696 27.7586 8.60371 27.7702C8.65047 27.7702 8.69723 27.7818 8.74399 27.7934C8.79075 27.7934 8.82582 27.7934 8.87258 27.7934C8.91934 27.7934 8.96609 27.7934 9.01285 27.7934H9.76099C11.4911 26.8429 12.3444 25.9735 12.9406 25.1505C14.0979 25.6605 15.2201 25.8808 16.2254 25.8808C18.1074 25.8808 19.7206 25.023 20.5506 23.4814C21.4156 22.9713 21.9884 21.9165 22.0235 21.1631C22.5612 20.4908 22.6547 19.6446 22.4911 19.0766C22.456 18.9375 22.3391 18.9375 22.1521 19.0534C20.4571 20.0619 18.8088 20.5487 17.2424 20.5487C16.2955 20.5487 15.3136 20.398 14.2732 20.0967C14.2031 18.9955 13.9693 18.0682 13.8875 17.5002C13.7706 16.7583 13.9342 16.2135 14.7642 16.2135C15.3604 16.2135 16.4826 16.3642 17.371 16.7699C18.2477 17.164 18.7737 17.9523 19.1478 17.9523C19.2998 17.9523 19.4517 17.8595 19.4517 17.5466C19.4517 16.909 19.2296 15.9006 18.9374 15.5296C19.7674 15.4833 20.422 15.4949 20.7844 15.5296L20.7961 15.5644ZM14.3083 21.2326C15.2668 21.4992 16.5761 21.6383 17.6749 21.5572C19.592 21.4181 21.0415 20.711 21.8481 20.201C21.3572 21.4181 19.5336 22.1831 17.7567 22.3918C17.7567 22.4845 17.7334 22.5656 17.7217 22.6468C19.0543 22.5772 20.3168 22.1483 20.8896 21.7542C20.5623 22.9597 18.9374 23.435 17.4528 23.5045C17.4061 23.5973 17.371 23.69 17.3242 23.7711C18.1893 23.7827 19.0075 23.632 19.4985 23.4698C19.0543 24.3043 17.5346 24.9651 15.9799 24.9651C15.2201 24.9651 14.2615 24.8144 13.4432 24.4318C14.0394 23.3538 14.2732 22.2411 14.32 21.221L14.3083 21.2326ZM18.3529 16.5961C18.3062 16.654 18.236 16.5613 18.2126 16.5381C16.7865 15.2283 11.7716 15.9817 12.1691 12.7129C12.2626 11.9479 12.7652 11.1597 13.6537 10.9626C13.5952 11.0554 13.5368 11.1829 13.49 11.3336L13.6303 11.3683C14.0511 10.6613 15.1149 10.6844 15.2084 11.4031C15.2084 11.4031 16.05 12.2493 16.2371 12.4232C16.2838 12.4695 16.3072 12.4927 16.2722 12.5275C16.2488 12.5622 16.1436 12.5507 16.0384 12.5159L16.0033 12.597C16.1786 12.7361 16.7397 12.8636 17.7334 12.8057C18.0139 12.7941 18.3412 12.7825 18.6919 12.7361C18.2477 13.1766 17.9438 13.7678 17.7801 14.4169C17.7567 14.5096 17.71 14.6023 17.5113 14.6139C15.6058 14.7646 14.0044 14.5444 13.4432 13.5243C13.3848 13.4084 13.3965 13.3157 13.5017 13.2577C13.6186 13.1882 13.7822 13.1882 13.9459 13.2114L13.981 13.1302C13.677 12.9448 13.1744 12.91 12.9172 13.2114C12.7419 13.42 12.7769 13.7214 12.9523 13.9648L13.0458 13.93C13.0458 13.93 13.0224 13.8141 13.0341 13.7562C13.0341 13.733 13.0458 13.7098 13.0692 13.7098C13.0926 13.7098 13.1159 13.7098 13.1276 13.733C13.7939 14.7067 15.0447 15.0312 16.1786 15.2746C17.8035 15.634 18.4347 16.3874 18.3763 16.5729L18.3529 16.5961ZM18.2945 14.6139C18.1659 14.6139 18.1308 14.5328 18.1425 14.4748C18.3529 13.8605 18.5283 13.3852 18.879 13.0375C19.2413 12.6666 19.6388 12.5507 20.5038 12.5507C21.7079 12.5507 22.7132 13.7562 22.7132 15.4485C22.7132 15.7035 22.3742 15.6919 22.269 15.4717C21.8598 14.753 21.2987 14.6487 20.4337 14.5907C19.7907 14.556 19.0075 14.6023 18.3062 14.6371L18.2945 14.6139ZM14.4953 11.7856C14.5655 11.9247 14.5771 12.0754 14.4953 12.1334C14.4252 12.1797 14.3317 12.1566 14.2498 12.0754H14.2031C14.2265 12.145 14.2381 12.1913 14.2732 12.2493C14.4719 12.6434 14.8343 12.8868 15.0915 12.8057C15.3487 12.7245 15.3954 12.3304 15.1967 11.9479C14.998 11.5538 14.6356 11.3104 14.3784 11.3915C14.2966 11.4147 14.2381 11.4727 14.2031 11.5538L14.2265 11.577C14.3317 11.577 14.4602 11.6813 14.507 11.7972L14.4953 11.7856ZM8.06599 22.3454C7.73868 22.3338 7.08405 22.3454 6.53464 22.3454V23.0061C7.2594 22.867 7.98416 22.7279 7.98416 22.7279L8.07768 22.3338L8.06599 22.3454Z" fill="white"/>
<path d="M21.8482 20.1895C21.0416 20.7111 19.5921 21.4181 17.675 21.5456C16.5878 21.6268 15.2669 21.4761 14.3083 21.2211C14.2966 21.5341 14.2616 21.8586 14.2031 22.1948C14.7409 22.3339 15.6994 22.5077 17.0788 22.5541C17.0203 22.925 16.6463 24.1653 15.676 24.9767C17.4295 25.0463 19.0193 24.3739 19.4869 23.4814C18.9959 23.6321 18.1659 23.7944 17.3126 23.7828C17.3593 23.7016 17.4061 23.6089 17.4412 23.5162C18.9141 23.4466 20.5506 22.9598 20.8779 21.7659C20.3051 22.16 19.0427 22.5889 17.71 22.6584C17.7217 22.5773 17.7451 22.4846 17.7451 22.4034C19.5219 22.1832 21.3455 21.4297 21.8365 20.2126L21.8482 20.1895Z" fill="black"/>
<path d="M14.3786 11.3684C14.6358 11.2872 14.9982 11.5306 15.1969 11.9248C15.3956 12.3189 15.3489 12.7014 15.0917 12.7825C14.8345 12.8752 14.4721 12.6202 14.2734 12.2261C14.25 12.1682 14.2267 12.1218 14.2033 12.0638H14.25C14.3319 12.1334 14.4254 12.145 14.4955 12.1102C14.589 12.0523 14.5773 11.9016 14.4955 11.7625C14.4371 11.6581 14.3202 11.5422 14.215 11.5422L14.1916 11.5191C14.2267 11.4379 14.2851 11.38 14.3669 11.3568M16.1555 15.2747C15.0216 15.0312 13.7708 14.6951 13.1044 13.733C13.0928 13.7098 13.0694 13.7098 13.046 13.7098C13.0226 13.7098 13.0109 13.733 13.0109 13.7562C13.0109 13.8141 13.0109 13.8721 13.0226 13.9301L12.9291 13.9648C12.7538 13.7214 12.7187 13.42 12.894 13.2114C13.1395 12.8984 13.6539 12.9332 13.9578 13.1303L13.9227 13.2114C13.7591 13.1882 13.6071 13.1882 13.4785 13.2578C13.3733 13.3157 13.3616 13.4085 13.4201 13.5244C13.9695 14.5444 15.5827 14.7646 17.4881 14.614C17.6868 14.6024 17.7336 14.5096 17.7569 14.4169C17.9206 13.7562 18.2245 13.1766 18.6687 12.7362C18.318 12.7825 18.0024 12.7941 17.7102 12.8057C16.7283 12.8637 16.1671 12.7361 15.9801 12.5971L16.0152 12.5159C16.1204 12.5507 16.2256 12.5623 16.249 12.5275C16.284 12.4811 16.249 12.458 16.2139 12.4232C16.0269 12.2493 15.1852 11.3915 15.1852 11.4031C15.0917 10.6845 14.0279 10.6497 13.6071 11.3684L13.4668 11.3336C13.5136 11.1829 13.572 11.0554 13.6305 10.9627C12.7421 11.1597 12.2394 11.9479 12.1459 12.713C11.7484 15.9817 16.7633 15.2283 18.1895 16.5381C18.2128 16.5613 18.283 16.654 18.3297 16.5961C18.3882 16.4222 17.7569 15.6572 16.1321 15.2979" fill="black"/>
</g>
<defs>
<clipPath id="clip0_3790_7103">
<rect width="33" height="48" fill="white" transform="translate(0 0.7854)"/>
</clipPath>
</defs>
</svg>
