<svg width="118" height="21" viewBox="0 0 118 21" fill="none" xmlns="http://www.w3.org/2000/svg">
<g clip-path="url(#clip0_3790_7145)">
<path d="M52.0848 21H1.02393L2.14906 15.1936H53.2099L52.0848 21Z" fill="black"/>
<path d="M6.38426 16.7229H8.58396V19.682H7.88866V17.2575H6.97844C6.97844 17.6305 6.92787 18.1527 6.92787 18.5257C6.82673 19.3215 6.66239 19.7939 6.06822 19.7939C5.90387 19.7939 5.80273 19.7442 5.80273 19.7442V19.1598H5.96708C6.18199 19.1598 6.28313 18.849 6.34634 18.4263C6.34634 17.9041 6.39691 16.7353 6.39691 16.7353L6.38426 16.7229ZM13.4132 18.1527C13.4132 19.0977 12.7685 19.7318 11.9088 19.7318C11.0997 19.7318 10.5688 19.2593 10.455 18.5133V18.4138H10.0757V19.682H9.38041V16.7229H10.0757V17.9414H10.455C10.5561 17.1456 11.1503 16.6731 11.9088 16.6731C12.7685 16.6731 13.4132 17.2575 13.4132 18.1527ZM12.7179 18.2025C12.7179 17.5684 12.4524 17.1953 11.9088 17.1953C11.4284 17.1953 11.1629 17.5684 11.1629 18.2025V18.2522C11.1629 18.8863 11.4284 19.2593 11.9088 19.2593C12.3892 19.2593 12.7179 18.8366 12.7179 18.2025ZM16.5231 19.2096H16.9529V20.428H16.3588V19.6945H14.3234V20.428H13.7292V19.2096H13.9442C14.1591 19.1598 14.2096 18.8366 14.2602 18.4138C14.3108 17.8916 14.3613 17.1456 14.3613 16.7229H16.561V19.1971H16.5105L16.5231 19.2096ZM15.8278 17.2078H14.9176C14.9176 17.5808 14.867 18.0533 14.867 18.4263C14.8164 18.7371 14.7659 19.0106 14.7027 19.1598H15.8784V17.2078H15.8278ZM18.6217 16.7353H19.8606V19.6945H19.1653V18.5879H18.7355L18.0401 19.6945H17.2943L18.1034 18.476C17.7241 18.3765 17.4586 18.1652 17.4586 17.6803C17.5092 17.0461 17.939 16.7353 18.6343 16.7353H18.6217ZM18.7228 17.2078C18.3436 17.2078 18.1918 17.3694 18.1918 17.6803C18.1918 17.9911 18.3562 18.103 18.7228 18.103H19.1526V17.2078H18.7228ZM22.3763 18.5755L21.5673 16.7353H20.6065V19.6945H21.2006V17.4316L22.1109 19.6945H22.3258L23.2866 17.4316V19.6945H23.9819V16.7353H23.0716L22.3763 18.5755ZM28.71 18.7868C28.71 19.3712 28.2801 19.682 27.5848 19.682H26.2448V16.7229H27.4837C28.1284 16.7229 28.6088 16.9342 28.6088 17.4565C28.6088 17.7673 28.4445 18.0408 28.0779 18.0906C28.4571 18.19 28.7226 18.4014 28.7226 18.7744L28.71 18.7868ZM26.9401 17.9414H27.3699C27.686 17.9414 27.8503 17.8419 27.8503 17.5684C27.8503 17.3073 27.686 17.1953 27.3193 17.1953H26.9401V17.9289V17.9414ZM27.9641 18.8366C27.9641 18.5755 27.7997 18.4138 27.4331 18.4138H26.9022V19.2593H27.3825C27.8124 19.2593 27.9767 19.0977 27.9767 18.8366H27.9641ZM32.0348 19.682H32.7301V16.7229H32.0348V19.682ZM31.6555 18.6749C31.6555 19.3588 31.1751 19.682 30.4798 19.682H29.3041V16.7229H29.9994V17.73H30.5304C31.1751 17.6803 31.6555 17.9911 31.6555 18.6749ZM30.9602 18.6749C30.9602 18.3641 30.7959 18.2025 30.4293 18.2025H29.9994V19.2096H30.4293C30.8085 19.2096 30.9602 19.0479 30.9602 18.6874V18.6749ZM33.476 19.682H34.1713V17.2575H35.5113V16.7353H33.476V19.6945V19.682ZM38.8994 18.1527C38.8994 19.0977 38.2546 19.7318 37.3444 19.7318C36.4342 19.7318 35.7894 19.0977 35.7894 18.2025V18.1527C35.7894 17.2575 36.4342 16.6234 37.3444 16.6234C38.2041 16.6731 38.8994 17.2575 38.8994 18.1527ZM38.1535 18.2025C38.1535 17.5684 37.8374 17.1953 37.2938 17.1953C36.7502 17.1953 36.4342 17.5684 36.4342 18.2025V18.2522C36.4342 18.8863 36.7502 19.2593 37.2938 19.2593C37.888 19.2096 38.1535 18.8366 38.1535 18.2025ZM41.9587 19.2096H42.3885V20.428H41.7944V19.6945H39.759V20.428H39.1649V19.2096H39.3798C39.5947 19.1598 39.6452 18.8366 39.6958 18.4138C39.7464 17.8916 39.7969 17.1456 39.7969 16.7229H41.9967V19.1971H41.9461L41.9587 19.2096ZM41.2634 17.2078H40.3532C40.3532 17.5808 40.3026 18.0533 40.3026 18.4263C40.2521 18.7371 40.2015 19.0106 40.1383 19.1598H41.314V17.2078H41.2634ZM44.8537 17.9414H43.6148V16.7229H42.9195V19.682H43.6148V18.4138H44.8537V19.682H45.549V16.7229H44.8537V17.9414ZM49.2531 18.1527C49.2531 19.0977 48.6084 19.7318 47.6982 19.7318C46.7879 19.7318 46.1432 19.1474 46.1432 18.2522V18.2025C46.1432 17.3073 46.7879 16.6731 47.6982 16.6731C48.6084 16.6731 49.2531 17.2575 49.2531 18.1527ZM48.5578 18.2025C48.5578 17.5684 48.2418 17.1953 47.6982 17.1953C47.1546 17.1953 46.8385 17.5684 46.8385 18.2025V18.2522C46.8385 18.8863 47.1546 19.2593 47.6982 19.2593C48.2291 19.2096 48.5578 18.8366 48.5578 18.2025Z" fill="white"/>
<path d="M12.288 2.42449C12.5535 0.994654 12.1236 0.0497158 10.417 0.0497158H5.09471L4.61431 2.47423H9.11485C9.38033 2.47423 9.49411 2.63586 9.4309 2.9467L8.83673 5.90584H6.04285L6.47268 3.85433L0 6.91295H4.82923L4.3994 8.96446L8.63445 6.96268L8.10349 9.85966C8.05293 10.1705 7.88858 10.2824 7.57253 10.2824H3.05935L2.57896 12.7566H7.88858C9.60789 12.7566 10.4043 11.7495 10.6825 10.3819L12.288 2.41206V2.42449ZM21.0362 12.7691L23.552 -1.77789e-05H17.6482C15.9289 -1.77789e-05 15.0692 1.00709 14.8037 2.37476L11.7949 12.7691H14.69L17.4206 2.95913C17.4712 2.6483 17.6355 2.48666 17.901 2.48666H20.2651L18.2297 12.7691H21.0236H21.0362ZM30.4165 6.86322L29.8224 9.97156C29.7718 10.2824 29.5569 10.444 29.2914 10.444H26.9274L27.7364 6.37831H30.1005C30.4165 6.42805 30.5303 6.53995 30.4165 6.85078M33.261 6.53995C33.5265 5.11011 33.0966 4.11544 31.39 4.11544H28.2295L29.0133 0.0497158H26.2194L23.7037 12.8188H29.658C31.4279 12.8188 32.1738 11.8117 32.5025 10.444L33.2483 6.53995H33.261ZM42.439 2.47423L40.8841 10.2824H37.9385L39.9739 2.9467C40.0244 2.63586 40.1888 2.47423 40.4543 2.47423H42.439ZM43.678 10.2824L45.7133 -1.77789e-05H40.1382C38.4189 -1.77789e-05 37.5592 1.00709 37.2938 2.37476L35.0435 10.2327H33.8678L33.3368 12.7069H44.0066L44.487 10.2327H43.678V10.2824ZM53.3364 2.9467L51.9964 9.85966C51.8952 10.1705 51.7309 10.2824 51.4654 10.2824H49.4806C49.2151 10.2824 49.1013 10.1829 49.1646 9.85966L50.5552 2.9467C50.6057 2.63586 50.7195 2.47423 51.0356 2.47423H53.0204C53.2858 2.47423 53.3996 2.63586 53.3364 2.9467ZM56.1808 2.42449C56.4463 0.994654 56.0165 0.0497158 54.3098 0.0497158H50.7701C49.0508 0.0497158 48.1911 1.05682 47.8751 2.42449L46.3201 10.3943C46.0546 11.8241 46.4845 12.7691 48.1911 12.7691H51.7814C53.5513 12.7691 54.3604 11.762 54.6259 10.3943L56.1808 2.42449ZM64.0694 2.9467L63.4247 6.11721C63.3741 6.49021 63.2098 6.58968 62.8937 6.58968H60.5297L61.3893 2.47423H63.7534C64.0189 2.47423 64.1326 2.63586 64.0694 2.9467ZM66.9139 2.42449C67.2299 0.994654 66.7495 0.0497158 65.0429 0.0497158H59.1391L56.6233 12.8188H59.3034L60.0493 9.12609H63.273C64.9923 9.12609 65.6876 8.11899 66.0036 6.70158L66.9139 2.42449ZM72.6027 3.36943L72.1729 8.33036H70.2387L72.4384 3.36943H72.6027ZM74.9036 12.7566L75.2196 -0.0124512H71.465L65.2451 12.7566H68.2539L69.2779 10.3819H71.958L71.7431 12.7566H74.9036ZM85.1183 2.47423L83.5633 10.2824H80.6177L82.6531 2.9467C82.7037 2.63586 82.868 2.47423 83.1335 2.47423H85.1183ZM86.3572 10.2824L88.3925 -1.77789e-05H82.8174C81.0981 -1.77789e-05 80.2385 1.00709 79.973 2.37476L77.7227 10.2327H76.547L76.0161 12.7069H86.6859L87.1663 10.2327H86.3572V10.2824ZM96.3317 2.9467L94.9411 9.85966C94.8905 10.1705 94.7262 10.2824 94.4607 10.2824H92.4759C92.2104 10.2824 92.0966 10.1829 92.1599 9.85966L93.4999 2.9467C93.601 2.63586 93.7654 2.47423 93.9803 2.47423H95.9651C96.2306 2.47423 96.3949 2.63586 96.3443 2.9467M97.2546 0.0497158H93.6642C91.9449 0.0497158 91.1485 1.05682 90.8704 2.42449L89.3154 10.3943C89.0499 11.8241 89.4798 12.7691 91.1864 12.7691H94.7767C96.496 12.7691 97.2925 11.762 97.5706 10.3943L99.1761 2.42449C99.391 0.994654 98.9612 0.0497158 97.2419 0.0497158M101.856 9.85966L101.262 12.8188H98.5314L99.1256 9.85966H101.856ZM116.609 10.9662C116.394 12.0231 115.8 12.7566 114.523 12.7566H112.223C110.933 12.7566 110.617 12.0231 110.832 10.9662L112.223 3.8419H114.207L112.867 10.643C112.817 10.8046 112.867 10.9041 112.969 10.9041H114.422C114.587 10.9041 114.637 10.8543 114.688 10.643L116.028 3.8419H118.013L116.622 10.9662H116.609ZM108.139 5.90584L107.659 8.11899C107.608 8.38009 107.495 8.42982 107.28 8.42982H105.674L106.268 5.58258H107.937C108.101 5.58258 108.202 5.68204 108.152 5.89341M108.797 3.8419H104.663L102.893 12.7566H104.764L105.295 10.1705H106.205L106.635 12.7566H108.721L108.19 10.1208C108.936 9.9094 109.315 9.27529 109.479 8.47956L110.073 5.52041C110.339 4.5133 110.023 3.82947 108.784 3.82947" fill="black"/>
</g>
<defs>
<clipPath id="clip0_3790_7145">
<rect width="118" height="21" fill="white"/>
</clipPath>
</defs>
</svg>
