<svg width="25" height="7" viewBox="0 0 25 7" fill="none" xmlns="http://www.w3.org/2000/svg">
<g clip-path="url(#clip0_3799_6094)">
<path d="M10.8474 0.148529H10.314V6.57147V6.57654H16.1847V5.99185H10.8474V0.148529Z" fill="#191919"/>
<path d="M17.2615 0.7296H18.5369V5.99185H17.2615V6.57654H20.3458V5.99185H19.0704V0.7296H20.3458V0.14563H17.2615V0.7296Z" fill="#191919"/>
<path d="M0.794922 6.57727H9.07357V5.99257H1.32773V3.65597H9.07357V3.072H1.32773V0.7296H9.07357V0.14563H0.794922V6.57727Z" fill="#191919"/>
<path d="M23.1231 3.08577C21.9536 2.61845 21.8093 2.10476 21.802 1.75843C21.7881 1.06578 22.2038 0.604984 22.861 0.584697C23.37 0.569482 23.6764 0.77887 23.8439 0.957829C24.0398 1.16649 24.157 1.44978 24.157 1.71641H24.6904C24.6904 1.29546 24.513 0.854946 24.2159 0.539052C23.9743 0.281844 23.5388 -0.0231824 22.8458 0.000727015C21.896 0.0297081 21.2474 0.757859 21.2686 1.77147C21.2904 2.85102 22.2329 3.35167 22.9398 3.63424C24.1093 4.10156 24.2536 4.61525 24.2609 4.96157C24.2748 5.65422 23.8591 6.11502 23.2019 6.13531C22.6942 6.1498 22.3865 5.94113 22.219 5.76218C22.0231 5.55351 21.9059 5.27022 21.9059 5.00359H21.3725C21.3725 5.42455 21.5499 5.86506 21.847 6.18095C22.0807 6.42947 22.4937 6.72 23.1476 6.72C23.1701 6.72 23.1933 6.72 23.2171 6.71928C24.1669 6.6903 24.8155 5.96215 24.7943 4.94853C24.7725 3.86898 23.83 3.36833 23.1231 3.08577Z" fill="#191919"/>
</g>
<defs>
<clipPath id="clip0_3799_6094">
<rect width="24" height="6.72" fill="white" transform="translate(0.794922)"/>
</clipPath>
</defs>
</svg>
