<svg width="56" height="21" viewBox="0 0 56 21" fill="none" xmlns="http://www.w3.org/2000/svg">
<g clip-path="url(#clip0_3790_6823)">
<path d="M2.15999 0C1.85999 0.01 1.57999 0.08 1.31999 0.2C1.06999 0.32 0.82999 0.48 0.62999 0.68C0.42999 0.88 0.26999 1.12 0.15999 1.39C0.0499902 1.66 -0.0100098 1.95 -0.0100098 2.25V13.14H1.34999V5.05H3.18999V3.71H1.34999V2.25C1.34999 2.01 1.42999 1.81 1.58999 1.63C1.74999 1.46 1.94999 1.37 2.18999 1.36H3.18999V0H2.15999Z" fill="black"/>
<path d="M12.2199 10.89V10.97C12.1899 11.2 12.0999 11.39 11.9299 11.54C11.7599 11.7 11.5699 11.77 11.3399 11.77H6.36988C6.12988 11.77 5.91988 11.68 5.74988 11.52C5.57988 11.35 5.48988 11.14 5.48988 10.89V5.99001C5.48988 5.74001 5.57988 5.53001 5.74988 5.36001C5.91988 5.19001 6.11988 5.11001 6.36988 5.11001H11.3399C11.5799 5.11001 11.7899 5.19001 11.9599 5.36001C12.1299 5.53001 12.2199 5.74001 12.2199 5.99001V10.89ZM13.5899 10.99V5.99001C13.5899 5.69001 13.5299 5.40001 13.4099 5.13001C13.2899 4.85001 13.1299 4.62001 12.9199 4.42001C12.7199 4.22001 12.4799 4.06001 12.2099 3.94001C11.9399 3.82001 11.6499 3.76001 11.3499 3.76001H6.36988C6.06988 3.76001 5.77988 3.82001 5.50988 3.94001C5.23988 4.06001 4.99988 4.22001 4.79988 4.42001C4.59988 4.62001 4.43988 4.86001 4.30988 5.13001C4.18988 5.41001 4.12988 5.69001 4.12988 5.99001V10.89C4.12988 11.19 4.18988 11.48 4.30988 11.74C4.42988 12.01 4.58988 12.24 4.79988 12.45C4.99988 12.65 5.23988 12.81 5.50988 12.93C5.77988 13.05 6.06988 13.11 6.36988 13.11H11.3399C11.6299 13.11 11.9099 13.06 12.1799 12.95C12.4499 12.84 12.6799 12.7 12.8799 12.51C13.0899 12.71 13.3399 12.87 13.5999 12.98C13.8699 13.09 14.1499 13.15 14.4499 13.15V11.82C14.2199 11.81 14.0299 11.72 13.8599 11.57C13.6899 11.41 13.5999 11.22 13.5699 11L13.5899 10.99Z" fill="black"/>
<path d="M32.1999 4.41C31.9999 4.21 31.7599 4.05 31.4799 3.93C31.1999 3.81 30.9099 3.75 30.6099 3.75H25.6899C25.3699 3.75 25.0899 3.81 24.8199 3.92C24.5499 4.03 24.3199 4.19 24.1199 4.39C23.9199 4.19 23.6799 4.03 23.4099 3.92C23.1399 3.81 22.8599 3.75 22.5499 3.75H17.6299C17.3199 3.75 17.0199 3.81 16.7499 3.93C16.4799 4.05 16.2399 4.21 16.0399 4.41C15.8399 4.61 15.6799 4.84 15.5599 5.11C15.4399 5.38 15.3799 5.67 15.3799 5.98V13.13H16.7399V5.99C16.7399 5.74 16.8199 5.53 16.9999 5.36C17.1699 5.19 17.3799 5.11 17.6299 5.11H22.5499C22.7899 5.11 22.9899 5.19 23.1499 5.34C23.3099 5.5 23.4099 5.68 23.4299 5.89V13.14H24.7899V5.9C24.8199 5.69 24.9099 5.5 25.0699 5.35C25.2299 5.19 25.4399 5.12 25.6699 5.12H30.5899C30.8399 5.12 31.0499 5.2 31.2199 5.37C31.3899 5.54 31.4699 5.75 31.4699 6V13.15H32.8299V5.99C32.8299 5.68 32.7699 5.39 32.6499 5.12C32.5299 4.85 32.3699 4.62 32.1699 4.42L32.1999 4.41Z" fill="black"/>
<path d="M35.1199 3.19006C35.3799 3.19006 35.5999 3.10006 35.7799 2.92006C35.9599 2.74006 36.0499 2.52006 36.0499 2.26006C36.0499 2.00006 35.9599 1.78006 35.7799 1.59006C35.5999 1.40006 35.3799 1.31006 35.1199 1.31006C34.8599 1.31006 34.6399 1.40006 34.4499 1.59006C34.2599 1.78006 34.1699 2.00006 34.1699 2.26006C34.1699 2.52006 34.2599 2.74006 34.4499 2.92006C34.6399 3.10006 34.8599 3.19006 35.1199 3.19006Z" fill="black"/>
<path d="M35.21 4.42001C35 4.63001 34.84 4.86001 34.73 5.13001C34.61 5.40001 34.55 5.68001 34.55 5.98001V13.13H35.9501V5.99001C35.9501 5.75001 36.0401 5.55001 36.2001 5.38001C36.3701 5.21001 36.57 5.12001 36.8 5.11001V3.76001C36.49 3.76001 36.2 3.82001 35.93 3.94001C35.66 4.06001 35.42 4.22001 35.21 4.43001V4.42001Z" fill="black"/>
<path d="M42.25 3.19006C42.51 3.19006 42.73 3.10006 42.91 2.92006C43.09 2.74006 43.18 2.52006 43.18 2.26006C43.18 2.00006 43.09 1.78006 42.91 1.59006C42.73 1.40006 42.51 1.31006 42.25 1.31006C41.99 1.31006 41.7701 1.40006 41.5801 1.59006C41.3901 1.78006 41.3 2.00006 41.3 2.26006C41.3 2.52006 41.4001 2.74006 41.5801 2.92006C41.7701 3.10006 41.99 3.19006 42.25 3.19006Z" fill="black"/>
<path d="M42.15 4.42001C41.94 4.63001 41.78 4.86001 41.66 5.13001C41.54 5.40001 41.48 5.68001 41.48 5.98001V13.13H42.88V5.99001C42.88 5.75001 42.96 5.55001 43.13 5.38001C43.3 5.21001 43.5 5.12001 43.73 5.11001V3.76001C43.42 3.76001 43.13 3.82001 42.86 3.94001C42.59 4.06001 42.35 4.22001 42.14 4.43001L42.15 4.42001Z" fill="black"/>
<path d="M52.9599 10.89V10.97C52.9399 11.2 52.8399 11.39 52.6799 11.54C52.5099 11.7 52.3199 11.77 52.0899 11.77H47.1199C46.8799 11.77 46.6699 11.68 46.4999 11.52C46.3299 11.35 46.2399 11.14 46.2399 10.89V5.99001C46.2399 5.74001 46.3299 5.53001 46.4999 5.36001C46.6699 5.19001 46.8799 5.11001 47.1199 5.11001H52.0899C52.3299 5.11001 52.5399 5.19001 52.7099 5.36001C52.8799 5.53001 52.9699 5.74001 52.9699 5.99001V10.89H52.9599ZM54.6099 11.56C54.4399 11.4 54.3499 11.21 54.3199 10.99V5.99001C54.3199 5.69001 54.2599 5.40001 54.1399 5.13001C54.0199 4.85001 53.8599 4.62001 53.6599 4.42001C53.4599 4.22001 53.2199 4.06001 52.9499 3.94001C52.6799 3.82001 52.3899 3.76001 52.0899 3.76001H47.1199C46.8099 3.76001 46.5299 3.82001 46.2599 3.94001C45.9899 4.06001 45.7499 4.22001 45.5499 4.42001C45.3499 4.62001 45.1899 4.86001 45.0599 5.13001C44.9399 5.41001 44.8799 5.69001 44.8799 5.99001V10.89C44.8799 11.19 44.9399 11.48 45.0599 11.74C45.1799 12.01 45.3399 12.24 45.5499 12.45C45.7499 12.65 45.9899 12.81 46.2599 12.93C46.5299 13.05 46.8199 13.11 47.1199 13.11H52.0899C52.3799 13.11 52.6599 13.06 52.9299 12.95C53.1899 12.84 53.4299 12.7 53.6299 12.51C53.8399 12.71 54.0899 12.87 54.3499 12.98C54.6199 13.09 54.8999 13.15 55.1999 13.15V11.82C54.9699 11.81 54.7799 11.72 54.6099 11.57V11.56Z" fill="black"/>
<path d="M38.1101 13.1399H39.4201V0.189941H38.1101V13.1399Z" fill="black"/>
<path d="M0.38 18.7901H1.05C1.24 18.7901 1.39 18.7401 1.51 18.6501C1.62 18.5601 1.68 18.4101 1.68 18.2101C1.68 18.1301 1.68 18.0601 1.65 17.9801C1.63 17.9101 1.6 17.8501 1.56 17.7901C1.52 17.7401 1.46 17.6901 1.38 17.6601C1.3 17.6301 1.21 17.6101 1.09 17.6101H0.38V18.7801V18.7901ZM1.08 19.1501H0.09C0.01 19.1501 0 19.1001 0 19.0601V16.0401C0 15.9701 0.04 15.9601 0.07 15.9501H1.73C1.79 15.9501 1.82 15.9801 1.82 16.0401V16.2201C1.82 16.2801 1.79 16.3101 1.73 16.3101H0.38V17.2601H1.1C1.29 17.2601 1.45 17.2901 1.58 17.3501C1.7 17.4101 1.8 17.4801 1.87 17.5801C1.94 17.6701 1.99 17.7801 2.02 17.8901C2.05 18.0001 2.06 18.1101 2.06 18.2201C2.06 18.3701 2.03 18.5101 1.98 18.6301C1.93 18.7501 1.86 18.8401 1.77 18.9201C1.68 19.0001 1.58 19.0601 1.46 19.0901C1.34 19.1301 1.21 19.1501 1.08 19.1501Z" fill="black"/>
<path d="M2.83993 18.7801C2.96993 18.8201 3.09993 18.8501 3.20993 18.8601C3.31993 18.8801 3.43993 18.8801 3.53993 18.8801C3.63993 18.8801 3.72993 18.8601 3.79993 18.8301C3.86993 18.8001 3.91993 18.7501 3.96993 18.6701C4.00993 18.6001 4.03993 18.5001 4.05993 18.3801C4.07993 18.2601 4.08993 18.1101 4.08993 17.9301C4.08993 17.7401 4.08993 17.5901 4.05993 17.4701C4.03993 17.3601 4.00993 17.2701 3.97993 17.2101C3.93993 17.1501 3.89993 17.1101 3.83993 17.0901C3.78993 17.0701 3.71993 17.0601 3.64993 17.0601C3.58993 17.0601 3.51993 17.0601 3.44993 17.0901C3.36993 17.1101 3.29993 17.1301 3.21993 17.1601C3.14993 17.1901 3.06993 17.2201 3.00993 17.2501C2.94993 17.2801 2.88993 17.3101 2.84993 17.3301V18.7601L2.83993 18.7801ZM2.73993 20.0901H2.52993C2.52993 20.0901 2.45993 20.0901 2.44993 20.0701C2.43993 20.0501 2.42993 20.0301 2.42993 19.9901V16.8601C2.42993 16.8001 2.45993 16.7601 2.52993 16.7601H2.73993C2.79993 16.7601 2.83993 16.7901 2.83993 16.8601V17.0301C2.83993 17.0301 2.91993 16.9801 2.97993 16.9501C3.03993 16.9101 3.10993 16.8801 3.18993 16.8401C3.26993 16.8101 3.34993 16.7801 3.42993 16.7501C3.50993 16.7201 3.59993 16.7101 3.67993 16.7101C3.83993 16.7101 3.96993 16.7401 4.06993 16.7901C4.17993 16.8501 4.25993 16.9301 4.31993 17.0301C4.37993 17.1401 4.42993 17.2701 4.44993 17.4201C4.47993 17.5701 4.48993 17.7501 4.48993 17.9501C4.48993 18.1501 4.46993 18.3401 4.44993 18.5001C4.41993 18.6601 4.36993 18.8001 4.28993 18.9101C4.20993 19.0201 4.10993 19.1001 3.98993 19.1601C3.86993 19.2201 3.69993 19.2501 3.50993 19.2501C3.41993 19.2501 3.30993 19.2401 3.19993 19.2201C3.08993 19.2001 2.95993 19.1601 2.83993 19.1101V19.9801C2.83993 19.9801 2.83993 20.0401 2.81993 20.0601C2.80993 20.0801 2.77993 20.0901 2.73993 20.0901Z" fill="black"/>
<path d="M5.29988 17.7401H6.50988C6.50988 17.6601 6.50988 17.5801 6.48988 17.5001C6.47988 17.4201 6.44988 17.3401 6.39988 17.2801C6.35988 17.2101 6.29988 17.1601 6.21988 17.1201C6.13988 17.0801 6.02988 17.0601 5.89988 17.0601C5.78988 17.0601 5.69988 17.0801 5.61988 17.1101C5.54988 17.1401 5.48988 17.1901 5.43988 17.2501C5.38988 17.3101 5.35988 17.3801 5.33988 17.4701C5.31988 17.5501 5.29988 17.6501 5.29988 17.7501V17.7401ZM5.91988 19.1501C5.68988 19.1501 5.49988 19.1101 5.35988 19.0501C5.21988 18.9801 5.11988 18.8901 5.04988 18.7801C4.97988 18.6701 4.92988 18.5401 4.90988 18.3901C4.88988 18.2501 4.87988 18.0901 4.87988 17.9401C4.87988 17.8301 4.88988 17.7001 4.90988 17.5501C4.92988 17.4101 4.97988 17.2701 5.04988 17.1501C5.11988 17.0301 5.22988 16.9201 5.35988 16.8401C5.49988 16.7601 5.67988 16.7101 5.91988 16.7101C6.13988 16.7101 6.30988 16.7401 6.43988 16.8001C6.56988 16.8601 6.67988 16.9401 6.74988 17.0401C6.81988 17.1401 6.86988 17.2601 6.89988 17.3801C6.92988 17.5101 6.93988 17.6401 6.94988 17.7701C6.94988 17.8501 6.93988 17.9101 6.90988 17.9701C6.87988 18.0301 6.80988 18.0501 6.71988 18.0501H5.30988C5.30988 18.1901 5.32988 18.3001 5.34988 18.4001C5.36988 18.4901 5.40988 18.5701 5.45988 18.6301C5.50988 18.6901 5.57988 18.7301 5.65988 18.7501C5.73988 18.7701 5.83988 18.7901 5.95988 18.7901C6.00988 18.7901 6.06988 18.7901 6.12988 18.7901H6.31988C6.37988 18.7701 6.44988 18.7701 6.49988 18.7601C6.55988 18.7601 6.60988 18.7501 6.64988 18.7401C6.68988 18.7401 6.70988 18.7401 6.72988 18.7401C6.74988 18.7401 6.76988 18.7701 6.76988 18.8101L6.78988 18.9201C6.78988 18.9201 6.77988 19.0101 6.72988 19.0301C6.67988 19.0501 6.61988 19.0701 6.55988 19.0801C6.48988 19.1001 6.41988 19.1101 6.34988 19.1201C6.27988 19.1301 6.19988 19.1401 6.12988 19.1501C6.05988 19.1501 5.98988 19.1501 5.92988 19.1501H5.91988Z" fill="black"/>
<path d="M9.27008 19.1501H9.12008C9.01008 19.1501 8.99008 19.0901 8.99008 19.0401V18.0301H7.73008V19.0401C7.73008 19.1101 7.69008 19.1501 7.61008 19.1501H7.45008C7.37008 19.1501 7.33008 19.1101 7.33008 19.0401V16.8201C7.33008 16.8201 7.34008 16.7501 7.36008 16.7301C7.38008 16.7101 7.41008 16.7101 7.45008 16.7101H7.61008C7.61008 16.7101 7.68008 16.7101 7.70008 16.7301C7.72008 16.7501 7.73008 16.7801 7.73008 16.8201V17.6801H8.99008V16.8201C8.99008 16.8201 9.00008 16.7501 9.03008 16.7301C9.05008 16.7101 9.09008 16.7101 9.12008 16.7101H9.27008C9.27008 16.7101 9.34008 16.7101 9.36008 16.7301C9.38008 16.7501 9.39008 16.7801 9.39008 16.8201V19.0401C9.39008 19.1101 9.35008 19.1501 9.27008 19.1501Z" fill="black"/>
<path d="M10.2999 18.7101H11.5699V17.0701H10.6499L10.5499 17.8201C10.5299 17.9801 10.5099 18.1101 10.4899 18.2201C10.4699 18.3201 10.4499 18.4001 10.4299 18.4701C10.4099 18.5301 10.3899 18.5801 10.3699 18.6201C10.3499 18.6501 10.3299 18.6901 10.3099 18.7201L10.2999 18.7101ZM12.0699 19.7101H11.8899C11.8899 19.7101 11.8399 19.7101 11.8299 19.6901C11.8299 19.6801 11.8099 19.6501 11.8099 19.6001L11.7899 19.0701H9.96989L9.92989 19.6001C9.92989 19.6001 9.91989 19.6701 9.90989 19.6901C9.89989 19.7101 9.87989 19.7101 9.85989 19.7101H9.66989C9.66989 19.7101 9.61989 19.7101 9.60989 19.6901C9.60989 19.6801 9.58989 19.6501 9.58989 19.6001V18.8601C9.58989 18.8601 9.57989 18.8001 9.58989 18.7801C9.60989 18.7701 9.62989 18.7601 9.65989 18.7501L9.78989 18.7301C9.88989 18.6801 9.96989 18.5901 10.0099 18.4901C10.0499 18.3801 10.0899 18.2301 10.1199 18.0501L10.2899 16.9401C10.2999 16.8601 10.3299 16.8001 10.3799 16.7701C10.4299 16.7301 10.4999 16.7201 10.5899 16.7201H11.8199C11.8199 16.7201 11.9099 16.7301 11.9299 16.7601C11.9499 16.7801 11.9599 16.8201 11.9599 16.8501V18.7301L12.1199 18.7501C12.1199 18.7501 12.1799 18.7701 12.1899 18.7901C12.1899 18.8101 12.1999 18.8301 12.1899 18.8601L12.1399 19.6101C12.1399 19.6101 12.1299 19.6801 12.1199 19.7001C12.1099 19.7201 12.0899 19.7201 12.0699 19.7201V19.7101Z" fill="black"/>
<path d="M12.9501 18.7801H13.6101C13.7301 18.7801 13.8201 18.7501 13.9001 18.6901C13.9801 18.6301 14.0101 18.5301 14.0101 18.4001C14.0101 18.2901 13.9801 18.2001 13.9201 18.1301C13.8601 18.0601 13.7701 18.0201 13.6301 18.0201H12.9301V18.7701L12.9501 18.7801ZM13.6101 19.1501H12.7001C12.5901 19.1501 12.5701 19.0901 12.5701 19.0401V16.8201C12.5701 16.7701 12.5901 16.7101 12.7001 16.7101H12.8301C12.9001 16.7101 12.9401 16.7501 12.9401 16.8201V17.6501H13.6501C13.7801 17.6501 13.9001 17.6701 13.9901 17.7101C14.0801 17.7501 14.1601 17.8101 14.2201 17.8801C14.2801 17.9501 14.3201 18.0301 14.3401 18.1201C14.3701 18.2101 14.3801 18.3001 14.3801 18.4001C14.3801 18.5201 14.3601 18.6301 14.3201 18.7201C14.2801 18.8101 14.2201 18.8901 14.1501 18.9601C14.0801 19.0201 13.9901 19.0701 13.9001 19.1001C13.8101 19.1301 13.7101 19.1501 13.6101 19.1501ZM14.9001 19.1501H14.7501C14.6501 19.1501 14.6301 19.0901 14.6301 19.0401V16.8201C14.6301 16.8201 14.6401 16.7501 14.6601 16.7301C14.6801 16.7101 14.7101 16.7101 14.7501 16.7101H14.9001C14.9001 16.7101 14.9701 16.7101 14.9901 16.7301C15.0101 16.7501 15.0201 16.7801 15.0201 16.8201V19.0401C15.0201 19.0401 15.0001 19.1501 14.9001 19.1501Z" fill="black"/>
<path d="M15.51 19.9C15.51 19.9 15.48 19.9 15.47 19.88L15.41 19.83C15.41 19.83 15.39 19.8 15.4 19.78C15.4 19.77 15.42 19.75 15.43 19.74C15.49 19.69 15.53 19.63 15.55 19.58C15.57 19.52 15.59 19.46 15.59 19.4C15.59 19.34 15.58 19.28 15.56 19.22C15.54 19.16 15.51 19.11 15.47 19.07C15.45 19.05 15.45 19.03 15.45 19.01C15.45 18.99 15.47 18.97 15.49 18.95L15.68 18.8C15.68 18.8 15.73 18.77 15.75 18.78C15.77 18.78 15.79 18.79 15.81 18.81C15.86 18.86 15.9 18.91 15.92 18.96C15.94 19.02 15.95 19.07 15.95 19.11C15.95 19.31 15.91 19.47 15.83 19.59C15.75 19.71 15.66 19.81 15.56 19.87C15.55 19.87 15.54 19.88 15.52 19.89C15.52 19.89 15.51 19.89 15.5 19.89L15.51 19.9Z" fill="black"/>
<path d="M18.6899 19.1501C18.4599 19.1501 18.2799 19.1201 18.1499 19.0501C18.0099 18.9901 17.9099 18.9001 17.8299 18.7801C17.7599 18.6701 17.7099 18.5401 17.6899 18.3901C17.6699 18.2401 17.6599 18.0801 17.6599 17.9101C17.6599 17.7601 17.6699 17.6101 17.6899 17.4601C17.7099 17.3201 17.7599 17.1901 17.8299 17.0701C17.8999 16.9601 18.0099 16.8701 18.1499 16.8001C18.2899 16.7301 18.4699 16.7001 18.6899 16.7001C18.7399 16.7001 18.7999 16.7001 18.8699 16.7001C18.9399 16.7001 19.0099 16.7001 19.0799 16.7201C19.1499 16.7201 19.2199 16.7401 19.2899 16.7501C19.3599 16.7601 19.4199 16.7801 19.4799 16.8101C19.5099 16.8201 19.5299 16.8401 19.5299 16.8601C19.5299 16.8801 19.5299 16.9001 19.5299 16.9201L19.5099 17.0301C19.5099 17.0301 19.4799 17.0801 19.4499 17.0901C19.4199 17.0901 19.3899 17.0901 19.3599 17.0901C19.2499 17.0901 19.1399 17.0701 19.0099 17.0601C18.8799 17.0501 18.7699 17.0401 18.6799 17.0401C18.5699 17.0401 18.4699 17.0601 18.3899 17.0801C18.3099 17.1101 18.2499 17.1601 18.2099 17.2201C18.1599 17.2901 18.1299 17.3701 18.1099 17.4801C18.0899 17.5901 18.0799 17.7301 18.0799 17.8901C18.0799 18.0601 18.0899 18.2101 18.1099 18.3201C18.1299 18.4301 18.1599 18.5201 18.2099 18.5901C18.2599 18.6601 18.3199 18.7001 18.3899 18.7301C18.4699 18.7601 18.5599 18.7701 18.6699 18.7701C18.7099 18.7701 18.7599 18.7701 18.8199 18.7701C18.8799 18.7701 18.9399 18.7701 18.9999 18.7601C19.0599 18.7601 19.1299 18.7601 19.1899 18.7501C19.2599 18.7501 19.3099 18.7401 19.3599 18.7301C19.3899 18.7301 19.4199 18.7301 19.4399 18.7301C19.4599 18.7301 19.4799 18.7601 19.4899 18.8001L19.5099 18.9001C19.5099 18.9001 19.5099 18.9901 19.4499 19.0101C19.3499 19.0501 19.2299 19.0801 19.0899 19.1001C18.9399 19.1201 18.8099 19.1201 18.6799 19.1201L18.6899 19.1501Z" fill="black"/>
<path d="M20.2899 17.7001H20.9799C21.0899 17.7001 21.1699 17.6701 21.2399 17.6001C21.2999 17.5401 21.3399 17.4601 21.3399 17.3701C21.3399 17.2901 21.3099 17.2201 21.2599 17.1601C21.1999 17.1001 21.0999 17.0601 20.9399 17.0601H20.2999V17.6901L20.2899 17.7001ZM20.2899 18.7701H20.9399C21.0299 18.7701 21.1099 18.7601 21.1699 18.7301C21.2299 18.7001 21.2799 18.6801 21.3099 18.6401C21.3399 18.6101 21.3699 18.5701 21.3799 18.5301C21.3899 18.4901 21.3999 18.4501 21.3999 18.4201C21.3999 18.3201 21.3699 18.2401 21.3099 18.1601C21.2499 18.0801 21.1499 18.0501 21.0099 18.0501H20.2899V18.7701ZM21.0199 19.1401H20.0399C19.9899 19.1401 19.9599 19.1401 19.9399 19.1101C19.9199 19.0801 19.9099 19.0601 19.9099 19.0301V16.8001C19.9099 16.8001 19.9099 16.7301 19.9399 16.7201C19.9599 16.7101 19.9899 16.7001 20.0299 16.7001H20.9699C21.2399 16.7001 21.4299 16.7601 21.5499 16.8801C21.6699 17.0001 21.7299 17.1501 21.7299 17.3501C21.7299 17.3901 21.7299 17.4301 21.7199 17.4701C21.7199 17.5201 21.6999 17.5601 21.6799 17.6101C21.6599 17.6601 21.6299 17.7001 21.5899 17.7501C21.5599 17.7901 21.5099 17.8301 21.4599 17.8601C21.5199 17.8901 21.5699 17.9301 21.6099 17.9701C21.6499 18.0201 21.6899 18.0701 21.7199 18.1201C21.7499 18.1701 21.7599 18.2301 21.7799 18.2801C21.7899 18.3401 21.7999 18.3901 21.7999 18.4301C21.7999 18.5401 21.7799 18.6401 21.7399 18.7201C21.6999 18.8101 21.6399 18.8801 21.5799 18.9401C21.5199 19.0001 21.4299 19.0501 21.3399 19.0801C21.2499 19.1101 21.1499 19.1301 21.0399 19.1301L21.0199 19.1401Z" fill="black"/>
<path d="M23.1699 17.0601C23.0399 17.0601 22.9399 17.0801 22.8599 17.1101C22.7799 17.1501 22.7199 17.2001 22.6799 17.2701C22.6299 17.3401 22.5999 17.4301 22.5899 17.5401C22.5699 17.6501 22.5699 17.7801 22.5699 17.9201C22.5699 18.0601 22.5699 18.1901 22.5899 18.3001C22.6099 18.4101 22.6399 18.5001 22.6799 18.5701C22.7299 18.6401 22.7899 18.7001 22.8599 18.7301C22.9399 18.7701 23.0399 18.7801 23.1699 18.7801C23.2999 18.7801 23.4099 18.7601 23.4999 18.7301C23.5799 18.7001 23.6499 18.6401 23.6899 18.5701C23.7399 18.5001 23.7699 18.4101 23.7899 18.3001C23.8099 18.1901 23.8099 18.0601 23.8099 17.9101C23.8099 17.7601 23.8099 17.6401 23.7899 17.5301C23.7699 17.4201 23.7399 17.3301 23.6899 17.2601C23.6399 17.1901 23.5799 17.1401 23.4899 17.1001C23.4099 17.0601 23.2999 17.0501 23.1599 17.0501L23.1699 17.0601ZM23.1699 19.1501C22.9299 19.1501 22.7399 19.1101 22.5999 19.0301C22.4599 18.9501 22.3599 18.8501 22.2999 18.7301C22.2299 18.6101 22.1899 18.4701 22.1799 18.3201C22.1699 18.1701 22.1599 18.0301 22.1599 17.8901C22.1599 17.7701 22.1699 17.6501 22.1899 17.5101C22.2099 17.3701 22.2499 17.2401 22.3199 17.1201C22.3899 17.0001 22.4899 16.9001 22.6199 16.8201C22.7499 16.7401 22.9399 16.7001 23.1699 16.7001C23.3999 16.7001 23.5899 16.7401 23.7199 16.8001C23.8599 16.8701 23.9699 16.9601 24.0399 17.0701C24.1099 17.1801 24.1599 17.3101 24.1799 17.4501C24.1999 17.5901 24.2099 17.7301 24.2099 17.8801C24.2099 18.0301 24.2099 18.1701 24.1799 18.3101C24.1599 18.4601 24.1199 18.5901 24.0499 18.7201C23.9799 18.8401 23.8799 18.9401 23.7299 19.0201C23.5899 19.1001 23.3899 19.1401 23.1499 19.1401L23.1699 19.1501Z" fill="black"/>
<path d="M25.6801 17.32C25.5301 17.32 25.4001 17.35 25.3101 17.4C25.2201 17.45 25.1501 17.52 25.1101 17.61C25.0601 17.69 25.0301 17.79 25.0201 17.89C25.0101 17.99 25.0001 18.09 25.0001 18.19C25.0001 18.29 25.0001 18.38 25.0201 18.47C25.0301 18.56 25.0601 18.64 25.1101 18.72C25.1501 18.79 25.2201 18.85 25.3001 18.89C25.3801 18.93 25.4901 18.96 25.6301 18.96C25.7701 18.96 25.8801 18.94 25.9701 18.89C26.0501 18.84 26.1201 18.79 26.1601 18.71C26.2001 18.64 26.2301 18.55 26.2501 18.46C26.2601 18.36 26.2701 18.26 26.2701 18.16C26.2701 18.06 26.2701 17.95 26.2501 17.84C26.2401 17.74 26.2101 17.65 26.1701 17.57C26.1301 17.49 26.0701 17.43 26.0001 17.39C25.9301 17.35 25.8301 17.32 25.7001 17.32H25.6801ZM25.6001 19.34C25.3901 19.34 25.2201 19.31 25.0901 19.24C24.9601 19.17 24.8601 19.08 24.7801 18.98C24.7101 18.87 24.6601 18.75 24.6301 18.61C24.6101 18.47 24.5901 18.34 24.5901 18.2C24.5901 17.91 24.5901 17.64 24.6201 17.4C24.6401 17.16 24.6801 16.94 24.7401 16.75C24.8101 16.56 24.9101 16.4 25.0301 16.27C25.1601 16.14 25.3401 16.04 25.5601 15.97C25.6901 15.93 25.8301 15.9 25.9801 15.87C26.1301 15.84 26.2601 15.81 26.3801 15.79C26.4101 15.79 26.4301 15.79 26.4501 15.79C26.4701 15.79 26.4801 15.81 26.4801 15.84L26.5201 15.99C26.5201 15.99 26.5301 16.06 26.5201 16.08C26.5101 16.1 26.4901 16.11 26.4601 16.12C26.3301 16.15 26.2201 16.17 26.1201 16.19C26.0201 16.21 25.9301 16.23 25.8401 16.25C25.6901 16.29 25.5601 16.34 25.4601 16.39C25.3601 16.44 25.2801 16.51 25.2101 16.59C25.1501 16.67 25.1001 16.76 25.0701 16.87C25.0401 16.98 25.0201 17.1 25.0001 17.25C25.0801 17.15 25.1901 17.08 25.3101 17.04C25.4401 16.99 25.5801 16.97 25.7301 16.97C25.9001 16.97 26.0501 17 26.1601 17.06C26.2801 17.12 26.3701 17.2 26.4401 17.31C26.5101 17.42 26.5601 17.54 26.5901 17.68C26.6201 17.82 26.6301 17.98 26.6301 18.14C26.6301 18.28 26.6201 18.42 26.5901 18.56C26.5601 18.7 26.5101 18.83 26.4401 18.95C26.3601 19.06 26.2601 19.16 26.1201 19.23C25.9801 19.3 25.8001 19.34 25.5701 19.34H25.6001Z" fill="black"/>
<path d="M28.05 17.0601C27.92 17.0601 27.82 17.0801 27.74 17.1101C27.66 17.1501 27.6 17.2001 27.55 17.2701C27.5 17.3401 27.47 17.4301 27.46 17.5401C27.44 17.6501 27.44 17.7801 27.44 17.9201C27.44 18.0601 27.44 18.1901 27.46 18.3001C27.48 18.4101 27.51 18.5001 27.55 18.5701C27.6 18.6401 27.66 18.7001 27.74 18.7301C27.82 18.7701 27.92 18.7801 28.05 18.7801C28.18 18.7801 28.29 18.7601 28.38 18.7301C28.46 18.7001 28.53 18.6401 28.58 18.5701C28.63 18.5001 28.66 18.4101 28.68 18.3001C28.7 18.1901 28.7 18.0601 28.7 17.9101C28.7 17.7601 28.7 17.6401 28.68 17.5301C28.66 17.4201 28.63 17.3301 28.58 17.2601C28.53 17.1901 28.47 17.1401 28.38 17.1001C28.3 17.0601 28.19 17.0501 28.05 17.0501V17.0601ZM28.05 19.1501C27.81 19.1501 27.62 19.1101 27.48 19.0301C27.34 18.9501 27.24 18.8501 27.18 18.7301C27.11 18.6101 27.07 18.4701 27.06 18.3201C27.05 18.1701 27.04 18.0301 27.04 17.8901C27.04 17.7701 27.04 17.6501 27.07 17.5101C27.09 17.3701 27.13 17.2401 27.2 17.1201C27.27 17.0001 27.37 16.9001 27.5 16.8201C27.63 16.7401 27.82 16.7001 28.05 16.7001C28.28 16.7001 28.47 16.7401 28.6 16.8001C28.74 16.8701 28.85 16.9601 28.92 17.0701C28.99 17.1801 29.04 17.3101 29.06 17.4501C29.08 17.5901 29.09 17.7301 29.09 17.8801C29.09 18.0301 29.09 18.1701 29.07 18.3101C29.05 18.4601 29.01 18.5901 28.94 18.7201C28.87 18.8401 28.77 18.9401 28.62 19.0201C28.48 19.1001 28.28 19.1401 28.04 19.1401L28.05 19.1501Z" fill="black"/>
<path d="M30.02 18.7101H31.29V17.0701H30.37L30.27 17.8201C30.25 17.9801 30.23 18.1101 30.21 18.2201C30.19 18.3201 30.17 18.4001 30.15 18.4701C30.13 18.5301 30.11 18.5801 30.09 18.6201C30.07 18.6501 30.05 18.6901 30.03 18.7201L30.02 18.7101ZM31.79 19.7101H31.61C31.61 19.7101 31.56 19.7101 31.55 19.6901C31.55 19.6801 31.53 19.6501 31.53 19.6001L31.51 19.0701H29.69L29.65 19.6001C29.65 19.6001 29.64 19.6701 29.63 19.6901C29.62 19.7101 29.6 19.7101 29.58 19.7101H29.39C29.39 19.7101 29.34 19.7101 29.33 19.6901C29.33 19.6801 29.31 19.6501 29.31 19.6001L29.29 18.8601C29.29 18.8601 29.29 18.8001 29.31 18.7801C29.33 18.7701 29.35 18.7601 29.38 18.7501L29.51 18.7301C29.61 18.6801 29.69 18.5901 29.73 18.4901C29.77 18.3801 29.81 18.2301 29.84 18.0501L30.01 16.9401C30.02 16.8601 30.05 16.8001 30.1 16.7701C30.15 16.7301 30.22 16.7201 30.31 16.7201H31.54C31.54 16.7201 31.63 16.7301 31.65 16.7601C31.67 16.7801 31.68 16.8201 31.68 16.8501V18.7301L31.84 18.7501C31.84 18.7501 31.9 18.7701 31.91 18.7901C31.91 18.8101 31.92 18.8301 31.91 18.8601L31.86 19.6101C31.86 19.6101 31.85 19.6801 31.84 19.7001C31.83 19.7201 31.81 19.7201 31.79 19.7201V19.7101Z" fill="black"/>
<path d="M34.2401 19.1501H34.09C33.98 19.1501 33.96 19.0901 33.96 19.0401V18.0301H32.7001V19.0401C32.7001 19.1101 32.6601 19.1501 32.5801 19.1501H32.42C32.34 19.1501 32.3 19.1101 32.3 19.0401V16.8201C32.3 16.8201 32.3101 16.7501 32.3301 16.7301C32.3501 16.7101 32.38 16.7101 32.42 16.7101H32.5801C32.5801 16.7101 32.65 16.7101 32.67 16.7301C32.69 16.7501 32.7001 16.7801 32.7001 16.8201V17.6801H33.96V16.8201C33.96 16.8201 33.97 16.7501 34 16.7301C34.02 16.7101 34.06 16.7101 34.09 16.7101H34.2401C34.2401 16.7101 34.3101 16.7101 34.3301 16.7301C34.3501 16.7501 34.3601 16.7801 34.3601 16.8201V19.0401C34.3601 19.1101 34.3201 19.1501 34.2401 19.1501Z" fill="black"/>
<path d="M35.11 18.7801H35.78C35.9 18.7801 35.99 18.7501 36.07 18.6901C36.15 18.6301 36.18 18.5301 36.18 18.4001C36.18 18.2901 36.15 18.2001 36.1 18.1301C36.04 18.0601 35.95 18.0201 35.81 18.0201H35.11V18.7701V18.7801ZM35.77 19.1501H34.86C34.75 19.1501 34.73 19.0901 34.73 19.0401V16.8201C34.73 16.7701 34.75 16.7101 34.86 16.7101H34.99C35.06 16.7101 35.1 16.7501 35.1 16.8201V17.6501H35.81C35.94 17.6501 36.06 17.6701 36.15 17.7101C36.24 17.7501 36.32 17.8101 36.38 17.8801C36.44 17.9501 36.48 18.0301 36.5 18.1201C36.53 18.2101 36.54 18.3001 36.54 18.4001C36.54 18.5201 36.52 18.6301 36.48 18.7201C36.44 18.8101 36.38 18.8901 36.31 18.9601C36.24 19.0201 36.15 19.0701 36.06 19.1001C35.97 19.1301 35.87 19.1501 35.77 19.1501ZM37.06 19.1501H36.91C36.81 19.1501 36.79 19.0901 36.79 19.0401V16.8201C36.79 16.8201 36.8 16.7501 36.82 16.7301C36.84 16.7101 36.87 16.7101 36.91 16.7101H37.06C37.06 16.7101 37.13 16.7101 37.14 16.7301C37.16 16.7501 37.17 16.7801 37.17 16.8201V19.0401C37.17 19.0401 37.15 19.1501 37.05 19.1501H37.06Z" fill="black"/>
<path d="M38.16 17.7401H39.37C39.37 17.6601 39.37 17.5801 39.35 17.5001C39.34 17.4201 39.31 17.3401 39.26 17.2801C39.22 17.2101 39.16 17.1601 39.08 17.1201C39 17.0801 38.89 17.0601 38.76 17.0601C38.65 17.0601 38.56 17.0801 38.48 17.1101C38.41 17.1401 38.35 17.1901 38.3 17.2501C38.25 17.3101 38.22 17.3801 38.2 17.4701C38.18 17.5501 38.16 17.6501 38.16 17.7501V17.7401ZM38.78 19.1501C38.55 19.1501 38.36 19.1101 38.22 19.0501C38.08 18.9801 37.98 18.8901 37.91 18.7801C37.84 18.6701 37.79 18.5401 37.77 18.3901C37.75 18.2501 37.74 18.0901 37.74 17.9401C37.74 17.8301 37.75 17.7001 37.77 17.5501C37.79 17.4101 37.84 17.2701 37.91 17.1501C37.98 17.0301 38.09 16.9201 38.22 16.8401C38.36 16.7601 38.54 16.7101 38.78 16.7101C39 16.7101 39.17 16.7401 39.3 16.8001C39.43 16.8601 39.54 16.9401 39.61 17.0401C39.68 17.1401 39.73 17.2601 39.76 17.3801C39.79 17.5101 39.8 17.6401 39.81 17.7701C39.81 17.8501 39.81 17.9101 39.77 17.9701C39.74 18.0301 39.67 18.0501 39.58 18.0501H38.17C38.17 18.1901 38.19 18.3001 38.21 18.4001C38.23 18.4901 38.27 18.5701 38.32 18.6301C38.37 18.6901 38.44 18.7301 38.52 18.7501C38.6 18.7701 38.7 18.7901 38.82 18.7901C38.87 18.7901 38.93 18.7901 38.99 18.7901H39.18C39.24 18.7701 39.31 18.7701 39.36 18.7601C39.42 18.7601 39.47 18.7501 39.51 18.7401C39.55 18.7401 39.57 18.7401 39.59 18.7401C39.61 18.7401 39.63 18.7701 39.63 18.8101L39.65 18.9201C39.65 18.9201 39.64 19.0101 39.59 19.0301C39.54 19.0501 39.48 19.0701 39.42 19.0801C39.35 19.1001 39.28 19.1101 39.21 19.1201C39.14 19.1301 39.06 19.1401 38.99 19.1501C38.92 19.1501 38.85 19.1501 38.79 19.1501H38.78Z" fill="black"/>
<path d="M42.3201 17.0601C42.1901 17.0601 42.0901 17.0801 42.0101 17.1101C41.9301 17.1501 41.8701 17.2001 41.8301 17.2701C41.7801 17.3401 41.7501 17.4301 41.7401 17.5401C41.7201 17.6501 41.7201 17.7801 41.7201 17.9201C41.7201 18.0601 41.7201 18.1901 41.7401 18.3001C41.7601 18.4101 41.7901 18.5001 41.8301 18.5701C41.8801 18.6401 41.9401 18.7001 42.0101 18.7301C42.0901 18.7701 42.1901 18.7801 42.3201 18.7801C42.4501 18.7801 42.5601 18.7601 42.6501 18.7301C42.7301 18.7001 42.8001 18.6401 42.8401 18.5701C42.8901 18.5001 42.9201 18.4101 42.9401 18.3001C42.9601 18.1901 42.9601 18.0601 42.9601 17.9101C42.9601 17.7601 42.9601 17.6401 42.9401 17.5301C42.9201 17.4201 42.8901 17.3301 42.8401 17.2601C42.7901 17.1901 42.7301 17.1401 42.6501 17.1001C42.5701 17.0601 42.4601 17.0501 42.3201 17.0501V17.0601ZM42.3201 19.1501C42.0801 19.1501 41.8901 19.1101 41.7601 19.0301C41.6201 18.9501 41.5201 18.8501 41.4601 18.7301C41.3901 18.6101 41.3501 18.4701 41.3401 18.3201C41.3201 18.1701 41.3201 18.0301 41.3201 17.8901C41.3201 17.7701 41.3301 17.6501 41.3501 17.5101C41.3701 17.3701 41.4101 17.2401 41.4801 17.1201C41.5501 17.0001 41.6501 16.9001 41.7801 16.8201C41.9101 16.7401 42.1001 16.7001 42.3301 16.7001C42.5601 16.7001 42.7501 16.7401 42.8801 16.8001C43.0201 16.8701 43.1301 16.9601 43.2001 17.0701C43.2701 17.1801 43.3201 17.3101 43.3401 17.4501C43.3601 17.5901 43.3701 17.7301 43.3701 17.8801C43.3701 18.0301 43.3701 18.1701 43.3401 18.3101C43.3201 18.4601 43.2801 18.5901 43.2101 18.7201C43.1401 18.8401 43.0401 18.9401 42.8901 19.0201C42.7501 19.1001 42.5501 19.1401 42.3101 19.1401L42.3201 19.1501Z" fill="black"/>
<path d="M44.76 19.1501H44.62C44.52 19.1501 44.5 19.0901 44.5 19.0401V17.0701H43.86C43.86 17.0701 43.78 17.0701 43.76 17.0401C43.74 17.0201 43.73 16.9901 43.73 16.9501V16.8101C43.73 16.7601 43.75 16.7001 43.85 16.7001H45.5C45.5 16.7001 45.57 16.7001 45.59 16.7301C45.61 16.7501 45.61 16.7801 45.61 16.8101V16.9501C45.61 16.9501 45.61 17.0201 45.59 17.0401C45.57 17.0601 45.54 17.0701 45.5 17.0701H44.87V19.0401C44.87 19.1101 44.83 19.1501 44.76 19.1501Z" fill="black"/>
<path d="M49.2601 19.7101H49.0801C49.0801 19.7101 49.0301 19.7101 49.0201 19.6901C49.0201 19.6801 49.0101 19.6501 49.0001 19.6001V19.1001H47.4201C47.4201 19.1001 47.3601 19.1001 47.3401 19.0801C47.3201 19.0601 47.3101 19.0301 47.3101 18.9901V16.8201C47.3101 16.7501 47.3501 16.7101 47.4201 16.7101H47.5701C47.6401 16.7101 47.6801 16.7501 47.6801 16.8201V18.7501H48.7701V16.8201C48.7701 16.8201 48.7901 16.7101 48.8901 16.7101H49.0301C49.1301 16.7101 49.1501 16.7701 49.1501 16.8201V18.7401L49.3101 18.7501C49.3501 18.7501 49.3701 18.7701 49.3801 18.7901C49.3801 18.8101 49.3801 18.8401 49.3801 18.8601L49.3301 19.6001C49.3301 19.6001 49.3201 19.6701 49.3101 19.6901C49.3001 19.7101 49.2801 19.7101 49.2601 19.7101Z" fill="black"/>
<path d="M50.18 17.7401H51.39C51.39 17.6601 51.39 17.5801 51.37 17.5001C51.36 17.4201 51.33 17.3401 51.28 17.2801C51.24 17.2101 51.18 17.1601 51.1 17.1201C51.02 17.0801 50.91 17.0601 50.78 17.0601C50.67 17.0601 50.58 17.0801 50.5 17.1101C50.43 17.1401 50.37 17.1901 50.32 17.2501C50.27 17.3101 50.24 17.3801 50.22 17.4701C50.2 17.5501 50.18 17.6501 50.18 17.7501V17.7401ZM50.8 19.1501C50.57 19.1501 50.38 19.1101 50.24 19.0501C50.1 18.9801 50 18.8901 49.93 18.7801C49.86 18.6701 49.81 18.5401 49.79 18.3901C49.77 18.2501 49.76 18.0901 49.76 17.9401C49.76 17.8301 49.77 17.7001 49.79 17.5501C49.81 17.4101 49.86 17.2701 49.93 17.1501C50 17.0301 50.11 16.9201 50.24 16.8401C50.38 16.7601 50.56 16.7101 50.8 16.7101C51.02 16.7101 51.19 16.7401 51.32 16.8001C51.45 16.8601 51.56 16.9401 51.63 17.0401C51.7 17.1401 51.75 17.2601 51.78 17.3801C51.81 17.5101 51.82 17.6401 51.83 17.7701C51.83 17.8501 51.83 17.9101 51.79 17.9701C51.76 18.0301 51.69 18.0501 51.6 18.0501H50.19C50.19 18.1901 50.21 18.3001 50.23 18.4001C50.25 18.4901 50.29 18.5701 50.34 18.6301C50.39 18.6901 50.46 18.7301 50.54 18.7501C50.62 18.7701 50.72 18.7901 50.84 18.7901C50.89 18.7901 50.95 18.7901 51.01 18.7901H51.2C51.26 18.7701 51.33 18.7701 51.38 18.7601C51.44 18.7601 51.49 18.7501 51.53 18.7401C51.57 18.7401 51.59 18.7401 51.61 18.7401C51.63 18.7401 51.65 18.7701 51.65 18.8101L51.67 18.9201C51.67 18.9201 51.66 19.0101 51.61 19.0301C51.56 19.0501 51.5 19.0701 51.44 19.0801C51.37 19.1001 51.3 19.1101 51.23 19.1201C51.16 19.1301 51.08 19.1401 51.01 19.1501C50.94 19.1501 50.87 19.1501 50.81 19.1501H50.8Z" fill="black"/>
<path d="M54.1399 19.1501H53.99C53.88 19.1501 53.86 19.0901 53.86 19.0401V18.0301H52.5999V19.0401C52.5999 19.1101 52.5599 19.1501 52.4799 19.1501H52.32C52.24 19.1501 52.2 19.1101 52.2 19.0401V16.8201C52.2 16.8201 52.2099 16.7501 52.2299 16.7301C52.2499 16.7101 52.28 16.7101 52.32 16.7101H52.4799C52.4799 16.7101 52.55 16.7101 52.57 16.7301C52.59 16.7501 52.5999 16.7801 52.5999 16.8201V17.6801H53.86V16.8201C53.86 16.8201 53.87 16.7501 53.9 16.7301C53.92 16.7101 53.96 16.7101 53.99 16.7101H54.1399C54.1399 16.7101 54.2099 16.7101 54.2299 16.7301C54.2499 16.7501 54.2599 16.7801 54.2599 16.8201V19.0401C54.2599 19.1101 54.2199 19.1501 54.1399 19.1501Z" fill="black"/>
<path d="M55.0701 18.4601H54.9701C54.9701 18.4601 54.9101 18.4401 54.9101 18.3701L54.8701 16.0601C54.8701 16.0001 54.8901 15.9601 54.9401 15.9601H55.1101C55.1101 15.9601 55.1701 15.9801 55.1701 16.0601L55.1201 18.3701C55.1201 18.4401 55.0901 18.4601 55.0601 18.4601H55.0701ZM55.0101 19.3401C54.9301 19.3401 54.8801 19.3101 54.8501 19.2601C54.8301 19.2101 54.8201 19.1501 54.8201 19.0901C54.8201 19.0301 54.8301 18.9701 54.8601 18.9201C54.8801 18.8801 54.9301 18.8501 55.0101 18.8501C55.0901 18.8501 55.1401 18.8701 55.1601 18.9201C55.1801 18.9601 55.2001 19.0201 55.2001 19.0901C55.2001 19.1601 55.1901 19.2201 55.1701 19.2601C55.1501 19.3101 55.0901 19.3301 55.0101 19.3301V19.3401Z" fill="black"/>
</g>
<defs>
<clipPath id="clip0_3790_6823">
<rect width="55.2" height="20.09" fill="white"/>
</clipPath>
</defs>
</svg>
