<svg width="4" height="14" viewBox="0 0 4 14" fill="none" xmlns="http://www.w3.org/2000/svg">
<g clip-path="url(#clip0_3789_5683)">
<path d="M-4.80825e-08 12.34C-8.30516e-09 13.25 0.49 13.44 0.9 13.44L3.21 13.44C3.21 13.44 3.58 12.98 3.63 12.91L1.4 12.91L1.4 11.92L0.9 11.92L0.9 12.91L0.87 12.91C0.74 12.91 0.65 12.86 0.59 12.81C0.5 12.72 0.5 12.56 0.5 12.42L0.5 11.93L-6.60042e-08 11.93L-4.80825e-08 12.34Z" fill="black"/>
<path d="M3.0399 11.22L0.899902 11.22L0.899902 11.72L3.0399 11.72L3.0399 11.22Z" fill="black"/>
<path d="M0.910106 5.51C0.940106 5.62 1.01011 5.72 1.11011 5.82L1.13011 5.84L1.11011 5.86C1.01011 5.95 0.950106 6.06 0.910106 6.17C0.880106 6.25 0.880106 6.32 0.880106 6.42C0.880106 6.56 0.920106 6.71 1.00011 6.83C1.21011 7.17 1.51011 7.19 1.83011 7.19L3.05011 7.19L3.05011 6.69L1.79011 6.69C1.62011 6.69 1.48011 6.69 1.39011 6.53C1.36011 6.49 1.36011 6.44 1.36011 6.38C1.36011 6.33 1.38011 6.28 1.40011 6.24C1.48011 6.11 1.61011 6.09 1.81011 6.09L3.05011 6.09L3.05011 5.59L1.81011 5.59C1.61011 5.59 1.49011 5.57 1.40011 5.44C1.35011 5.35 1.35011 5.23 1.40011 5.14C1.48011 5.01 1.60011 4.99 1.80011 4.99L3.05011 4.99L3.05011 4.49L1.83011 4.49C1.50011 4.49 1.20011 4.52 1.00011 4.86C0.870106 5.04 0.840106 5.28 0.920106 5.5L0.910106 5.51Z" fill="black"/>
<path d="M1.1901 3.93C1.4001 4.15 1.6901 4.27 2.0101 4.27C2.6401 4.27 3.0801 3.82 3.0801 3.2C3.0801 3.03 3.0501 2.88 2.9801 2.74L2.4501 2.74C2.5501 2.87 2.5901 2.99 2.5901 3.15C2.5901 3.38 2.4601 3.77 1.9701 3.77C1.6101 3.77 1.3401 3.52 1.3401 3.16C1.3401 2.88 1.4701 2.55 2.0601 2.55L3.0201 2.55L3.0201 2.05L2.0701 2.05C1.6701 2.05 1.3401 2.17 1.1301 2.4C0.940098 2.6 0.850098 2.86 0.850098 3.15C0.870098 3.45 0.980098 3.74 1.1701 3.94L1.1901 3.93Z" fill="black"/>
<path d="M0.920156 1.82L3.05016 1.82L3.05016 1.32L1.40016 1.32L1.40016 0.91C1.40016 0.84 1.42016 0.779999 1.44016 0.719999C1.55016 0.519999 1.74016 0.49 1.95016 0.49L3.04016 0.49L3.04016 -0.0100003L1.95016 -0.0100003C1.68016 -0.0100003 1.28016 0.0299998 1.04016 0.41C0.960156 0.55 0.910156 0.71 0.910156 0.9L0.910156 1.81L0.920156 1.82Z" fill="black"/>
<path d="M0.509766 11.46C0.509766 11.6 0.399766 11.71 0.259766 11.71C0.119766 11.71 0.00976562 11.6 0.00976561 11.46C0.00976561 11.32 0.119766 11.21 0.259766 11.21C0.399766 11.21 0.509766 11.32 0.509766 11.46ZM0.0497656 11.46C0.0497656 11.57 0.129766 11.66 0.249766 11.66C0.359766 11.66 0.449766 11.57 0.449766 11.46C0.449766 11.34 0.369766 11.26 0.249766 11.26C0.139766 11.26 0.0497656 11.35 0.0497656 11.46Z" fill="black"/>
<path d="M0.149609 11.52L0.149609 11.46C0.149609 11.46 0.149609 11.4 0.189609 11.4C0.229609 11.4 0.229609 11.43 0.229609 11.47L0.229609 11.52L0.259609 11.52L0.259609 11.47L0.379609 11.4L0.379609 11.36L0.259609 11.44C0.259609 11.44 0.229609 11.37 0.179609 11.37C0.129609 11.37 0.0996094 11.4 0.0996094 11.46L0.0996094 11.56L0.389609 11.56L0.389609 11.52L0.149609 11.52Z" fill="black"/>
<path d="M2.56016 8.39001C2.56016 8.47001 2.56016 8.55001 2.52016 8.59001L2.46016 8.61001C2.37016 8.61001 2.34016 8.56001 2.30016 8.43001L2.22016 8.17001C2.14016 7.88001 2.06016 7.60001 1.86016 7.46001C1.76016 7.38001 1.64016 7.34001 1.52016 7.34001C1.43016 7.34001 1.28016 7.36001 1.17016 7.44001C0.910156 7.64001 0.910156 7.97001 0.910156 8.12001L0.910156 8.90001L1.40016 9.17001L1.40016 8.02001C1.40016 7.92001 1.43016 7.86001 1.48016 7.86001C1.55016 7.86001 1.59016 7.90001 1.63016 8.03001L1.70016 8.27001C1.78016 8.57001 1.87016 8.86001 2.06016 9.01001C2.16016 9.09001 2.28016 9.13001 2.41016 9.13001C2.55016 9.13001 2.68016 9.10001 2.77016 9.03001C3.03016 8.84001 3.03016 8.55001 3.03016 8.40001L3.03016 7.44001L2.54016 7.44001L2.54016 8.41001L2.56016 8.39001Z" fill="black"/>
<path d="M1.70016 10.13L1.63016 10.37C1.59016 10.5 1.55016 10.54 1.48016 10.54C1.43016 10.54 1.40016 10.48 1.40016 10.38L1.40016 9.37L0.910156 9.1L0.910156 10.27C0.910156 10.41 0.910156 10.75 1.17016 10.95C1.29016 11.03 1.42016 11.05 1.52016 11.05C1.64016 11.05 1.76016 11.01 1.86016 10.94C2.06016 10.79 2.14016 10.52 2.22016 10.23L2.30016 9.97C2.34016 9.84 2.38016 9.79 2.46016 9.79L2.52016 9.81C2.52016 9.81 2.56016 9.93 2.56016 10.01L2.56016 10.97L3.05016 10.97L3.05016 10.01C3.05016 9.87 3.05016 9.57 2.79016 9.38C2.70016 9.31 2.57016 9.28 2.43016 9.28C2.30016 9.28 2.18016 9.32 2.08016 9.4C1.88016 9.55 1.79016 9.84 1.71016 10.14L1.70016 10.13Z" fill="black"/>
</g>
<defs>
<clipPath id="clip0_3789_5683">
<rect width="13.44" height="3.63" fill="white" transform="translate(0 13.44) rotate(-90)"/>
</clipPath>
</defs>
</svg>
