<svg width="19" height="5" viewBox="0 0 19 5" fill="none" xmlns="http://www.w3.org/2000/svg">
<g clip-path="url(#clip0_3790_6569)">
<path d="M13.1713 3.48067C13.2277 3.41621 13.2935 3.36096 13.3781 3.33334C13.4628 3.30572 13.5474 3.2873 13.632 3.29651C13.773 3.29651 13.914 3.29651 14.055 3.30572C14.3183 3.33334 14.4405 3.49909 14.3935 3.7477C14.3183 4.14365 14.2431 4.53039 14.1773 4.91713C14.1773 4.96317 14.1585 4.98159 14.102 4.98159C13.9422 4.98159 13.7824 4.98159 13.6226 4.98159C13.5662 4.98159 13.5474 4.96317 13.5662 4.90793C13.632 4.54881 13.6978 4.18969 13.773 3.83058C13.7824 3.77533 13.773 3.75691 13.7166 3.75691C13.6508 3.75691 13.585 3.75691 13.5098 3.75691C13.444 3.75691 13.4252 3.77533 13.4158 3.83058C13.3499 4.17128 13.2841 4.52119 13.2277 4.86189C13.2089 4.94476 13.1807 4.97238 13.0961 4.96317C12.9551 4.96317 12.8141 4.96317 12.673 4.96317C12.5978 4.96317 12.5884 4.93555 12.5978 4.87109C12.673 4.50277 12.7389 4.12524 12.8141 3.7477H12.4944C12.438 3.7477 12.4474 3.79375 12.4474 3.82137C12.3816 4.16207 12.3158 4.50277 12.2594 4.84347C12.2406 4.96317 12.2406 4.96317 12.1184 4.96317H11.6953C11.6389 4.96317 11.6201 4.96317 11.6295 4.89872C11.7047 4.50277 11.7705 4.10682 11.8551 3.71087C11.9115 3.43463 12.1278 3.2873 12.4662 3.27809H12.8611C12.9269 3.27809 12.9927 3.29651 13.0397 3.32413C13.0961 3.36096 13.1431 3.407 13.1713 3.46225V3.48067Z" fill="black"/>
<path d="M8.132 3.20442H7.76535C7.70895 3.20442 7.69014 3.21362 7.68074 3.26887C7.68074 3.33333 7.66194 3.39779 7.64314 3.45304C7.62433 3.51749 7.64314 3.5267 7.70895 3.5267H8.41404C8.47985 3.5267 8.49865 3.54512 8.47985 3.60957C8.45165 3.74769 8.42344 3.89502 8.39524 4.03315C8.39524 4.08839 8.36704 4.10681 8.30123 4.10681C8.0662 4.10681 7.83116 4.10681 7.59613 4.10681C7.52092 4.10681 7.50212 4.13444 7.49272 4.18968C7.45511 4.4383 7.3987 4.66851 7.3611 4.91712C7.3611 4.96316 7.3423 4.99079 7.28589 4.99079C7.09786 4.99079 6.90984 4.99079 6.73121 4.99079C6.68421 4.99079 6.6748 4.98158 6.6748 4.92633C6.78762 4.33701 6.90044 3.74769 7.00385 3.15838C7.03205 3.01105 7.10726 2.87293 7.22008 2.78084C7.33289 2.68876 7.48332 2.63351 7.63374 2.63351C7.95338 2.63351 8.26362 2.63351 8.58327 2.63351C8.63967 2.63351 8.64907 2.65193 8.63967 2.69797C8.61147 2.8453 8.58327 3.00184 8.55506 3.15838C8.55506 3.20442 8.52686 3.22283 8.47985 3.22283H8.1132" fill="black"/>
<path d="M15.2207 4.98158C15.0796 4.98158 14.9292 4.98158 14.7882 4.96316C14.5626 4.92633 14.4497 4.78821 14.4874 4.56721C14.5438 4.2081 14.619 3.84898 14.6848 3.48987C14.7224 3.28729 14.7224 3.2965 14.9386 3.2965H15.2771C15.3335 3.2965 15.3429 3.3057 15.3335 3.36095C15.2677 3.72007 15.2018 4.06998 15.1266 4.41989C15.1172 4.48434 15.1266 4.50276 15.1924 4.50276C15.2771 4.50276 15.3711 4.50276 15.4557 4.50276C15.5215 4.50276 15.5403 4.48434 15.5497 4.42909C15.6061 4.08839 15.6813 3.74769 15.7377 3.40699C15.7565 3.32412 15.7847 3.2965 15.8693 3.2965C16.0104 3.2965 16.1608 3.2965 16.3018 3.2965C16.3676 3.2965 16.3676 3.31491 16.3582 3.37016C16.283 3.74769 16.2172 4.13443 16.142 4.51197C16.0856 4.79742 15.8787 4.96316 15.5497 4.97237C15.4369 4.97237 15.3335 4.97237 15.2113 4.97237" fill="black"/>
<path d="M16.6026 4.98159H16.3581C16.3581 4.98159 16.3017 4.98159 16.3111 4.92634C16.3863 4.54881 16.4521 4.16207 16.5273 3.78453C16.5932 3.43463 16.659 3.09393 16.7248 2.74402C16.7436 2.66115 16.7624 2.62431 16.8564 2.62431C16.988 2.63352 17.1196 2.62431 17.2512 2.62431C17.3641 2.62431 17.3641 2.62431 17.3359 2.7256C17.2794 3.03868 17.2136 3.36096 17.1572 3.67404C17.082 4.07919 16.9974 4.49356 16.9222 4.90792C16.9128 4.96317 16.894 4.98159 16.8376 4.97238H16.5932" fill="black"/>
<path d="M11.4414 3.29649H11.7234C11.7234 3.29649 11.7798 3.31491 11.7704 3.35174C11.7422 3.47145 11.7234 3.59115 11.7046 3.71086C11.7046 3.7569 11.6764 3.77531 11.6294 3.77531C11.5072 3.77531 11.385 3.77531 11.2628 3.77531C11.2063 3.77531 11.1875 3.78452 11.1781 3.83977C11.1123 4.18968 11.0465 4.53959 10.9807 4.8895C10.9713 4.96316 10.9431 4.99078 10.8679 4.98158C10.7175 4.98158 10.5671 4.98158 10.4072 4.98158C10.3508 4.98158 10.3414 4.96316 10.3508 4.91712C10.426 4.52117 10.4919 4.13443 10.5765 3.73848C10.6329 3.45303 10.8491 3.29649 11.1875 3.29649H11.432" fill="black"/>
<path d="M9.98406 3.30571C9.72083 3.2873 9.44819 3.2873 9.18496 3.30571C9.05334 3.30571 8.93112 3.36096 8.83711 3.45304C8.74309 3.53592 8.67729 3.65562 8.65848 3.77533C8.61148 4.01474 8.56447 4.26336 8.51746 4.51197C8.47046 4.76059 8.59267 4.92634 8.84651 4.97238C8.98753 4.9908 9.12855 4.9908 9.27897 4.98159C9.39178 4.98159 9.5046 4.98159 9.61741 4.98159C9.93706 4.96317 10.1533 4.79743 10.2097 4.52118C10.2661 4.27256 10.3037 4.02394 10.3507 3.77533C10.3977 3.50829 10.2661 3.33334 9.98406 3.31492V3.30571ZM9.72083 3.82137C9.68322 4.03315 9.63622 4.24494 9.59861 4.46593C9.59861 4.49356 9.57981 4.50277 9.55161 4.50277H9.12855C9.17555 4.27256 9.21316 4.04236 9.26017 3.82137C9.26017 3.78453 9.27897 3.77533 9.31657 3.77533H9.67382C9.67382 3.77533 9.73023 3.78453 9.72083 3.83057V3.82137Z" fill="black"/>
<path d="M18.6333 3.3057C18.4453 3.28729 18.2667 3.3057 18.1068 3.29649H17.5992C17.5428 3.29649 17.5146 3.31491 17.5146 3.37016C17.4958 3.48066 17.477 3.59115 17.4581 3.69244C17.4487 3.74769 17.4581 3.77531 17.524 3.77531C17.7872 3.77531 18.041 3.77531 18.3043 3.77531C18.3701 3.77531 18.3795 3.79373 18.3701 3.84898C18.3513 3.96868 18.3513 3.96869 18.2197 3.96869H17.7496C17.6368 3.96869 17.524 3.99631 17.4299 4.06077C17.3359 4.12522 17.2701 4.2173 17.2325 4.3278C17.2137 4.40147 17.2043 4.47513 17.1949 4.5488C17.1667 4.779 17.2795 4.93554 17.524 4.96316C17.806 4.99999 18.088 4.99999 18.3795 4.96316C18.4923 4.95395 18.6051 4.8987 18.6897 4.82504C18.7743 4.75137 18.8307 4.64088 18.8495 4.53038C18.9059 4.27255 18.953 4.01473 18.9906 3.7569C19.0376 3.49907 18.9059 3.33333 18.6333 3.3057ZM18.2667 4.36463C18.2667 4.36463 18.2667 4.4383 18.2573 4.45671C18.2385 4.56721 18.2009 4.56721 18.0222 4.56721H17.853C17.853 4.56721 17.806 4.558 17.806 4.52117C17.8154 4.46592 17.8248 4.41067 17.8342 4.34622C17.8342 4.30938 17.8624 4.30018 17.8906 4.30018H18.2103C18.2103 4.30018 18.2573 4.31859 18.2573 4.35543" fill="black"/>
<path d="M5.73471 2.51381C5.73471 2.42173 5.70651 2.33886 5.6595 2.2652C5.41507 1.85083 5.17064 1.44567 4.9262 1.03131C4.77578 0.773483 4.61596 0.515656 4.46554 0.257829C4.42794 0.184164 4.37153 0.119707 4.29632 0.0736669C4.22111 0.0276264 4.1365 0.00921015 4.05188 0.00921015C3.67583 2.05124e-06 3.29978 2.05124e-06 2.92373 0.00921015C2.83598 0.101291 2.82658 0.20258 2.89553 0.313078C2.89553 0.313078 2.93313 0.368326 2.95193 0.405159C3.13056 0.681402 3.29978 0.948437 3.47841 1.22468L3.85446 1.80479C3.85446 1.80479 3.80745 1.82321 3.77925 1.82321H3.28098C3.28098 1.82321 3.24337 1.82321 3.21517 1.82321C3.19637 1.82321 3.17756 1.84162 3.15876 1.86004C3.13996 1.87846 3.13056 1.88766 3.12116 1.91529C3.12116 1.9337 3.11176 1.95212 3.11176 1.97974V2.89135C3.11176 2.89135 3.11176 2.93739 3.11176 2.96501C3.11176 2.98343 3.13056 3.01105 3.14936 3.02947C3.16816 3.04788 3.18697 3.05709 3.20577 3.0663C3.22457 3.0663 3.25278 3.07551 3.28098 3.0663H3.81685C3.88266 3.0663 3.91087 3.0663 3.86386 3.14917C3.76044 3.30571 3.65703 3.46225 3.56302 3.60958C3.54422 3.6372 3.52541 3.65562 3.49721 3.67404C3.469 3.69245 3.4408 3.69245 3.4126 3.69245H2.19043C2.24684 3.81216 2.32205 3.93186 2.39726 4.04236C2.54768 4.26335 2.6887 4.48435 2.82972 4.71455C2.89553 4.83426 2.87672 4.8803 2.75451 4.94475C2.75451 4.94475 2.77331 4.94475 2.78271 4.94475H4.07069C4.1365 4.94475 4.20231 4.92634 4.26811 4.88951C4.32452 4.85267 4.38093 4.80663 4.41853 4.75138C4.45614 4.70534 4.49375 4.65009 4.52195 4.59485C4.898 3.96869 5.27405 3.34254 5.6501 2.71639C5.69711 2.65194 5.71591 2.56906 5.70651 2.48619" fill="black"/>
<path d="M7.9536 1.4825C7.84079 1.4825 7.71857 1.4825 7.60575 1.4825C7.53054 1.4825 7.52114 1.51013 7.50234 1.56538C7.45533 1.814 7.40833 2.0442 7.37072 2.29282C7.37072 2.34807 7.34252 2.35727 7.28611 2.35727C7.10749 2.35727 6.91946 2.35727 6.73143 2.35727C6.68443 2.35727 6.67503 2.34807 6.68443 2.29282C6.79724 1.7035 6.90066 1.11418 7.01347 0.524861C7.03228 0.38674 7.10749 0.257826 7.2203 0.156537C7.33312 0.0644559 7.47414 0.00920732 7.61516 0.00920732C7.9442 -0.00920889 8.28265 0.00920732 8.61169 0.00920732C8.6493 0.00920732 8.6587 0.0276235 8.6493 0.0552478C8.62109 0.220994 8.58349 0.377531 8.56469 0.534069C8.56469 0.589318 8.51768 0.58011 8.48007 0.58011H7.76558C7.70917 0.58011 7.68096 0.598526 7.68096 0.653775C7.68096 0.718231 7.66216 0.782688 7.64336 0.837937C7.62456 0.893185 7.64336 0.911602 7.70917 0.911602H8.42367C8.48948 0.911602 8.49888 0.930018 8.48948 0.985266C8.46127 1.1326 8.43307 1.27072 8.40486 1.41805C8.40486 1.4733 8.37666 1.49171 8.32025 1.49171C8.19804 1.49171 8.07582 1.49171 7.9536 1.49171" fill="black"/>
<path d="M13.4439 2.35728C13.2841 2.35728 13.0866 2.37569 12.8892 2.34807C12.626 2.31124 12.4944 2.13628 12.5414 1.87846C12.5884 1.62984 12.6354 1.39043 12.6824 1.14181C12.7012 1.0221 12.7576 0.911605 12.8422 0.828732C12.9268 0.745859 13.0396 0.69061 13.1619 0.681402C13.4439 0.64457 13.7259 0.64457 14.008 0.681402C14.2524 0.709027 14.3746 0.893189 14.337 1.12339C14.337 1.16022 14.3182 1.20626 14.3182 1.2431C14.2806 1.51934 14.055 1.65746 13.8199 1.66667C13.6507 1.66667 13.4721 1.66667 13.3029 1.66667C13.2183 1.66667 13.1901 1.68509 13.1807 1.76796C13.1713 1.86925 13.1619 1.86925 13.2747 1.86925H14.0644C14.1208 1.86925 14.1396 1.87846 14.1208 1.94291C14.0926 2.05341 14.0832 2.16391 14.0644 2.2652C14.0644 2.32044 14.0362 2.34807 13.9704 2.34807C13.8105 2.34807 13.6507 2.34807 13.4533 2.34807L13.4439 2.35728ZM13.7259 1.07735C13.6131 1.07735 13.5097 1.07735 13.3969 1.07735C13.3217 1.07735 13.2935 1.09577 13.2841 1.16943C13.2559 1.34439 13.2559 1.34439 13.4345 1.34439C13.5191 1.34439 13.6225 1.38122 13.6695 1.32597C13.7165 1.27993 13.7071 1.16022 13.7259 1.07735Z" fill="black"/>
<path d="M11.7328 0.672194C11.8644 0.672194 11.996 0.672194 12.1182 0.681402C12.3909 0.718235 12.5131 0.865564 12.4661 1.12339C12.4003 1.51934 12.3156 1.90608 12.2498 2.29282C12.2498 2.33886 12.231 2.34807 12.1746 2.34807C12.0054 2.34807 11.8456 2.34807 11.6764 2.34807C11.6293 2.34807 11.6199 2.32965 11.6293 2.29282C11.6952 1.9337 11.761 1.57459 11.8362 1.21547C11.8456 1.16022 11.8362 1.14181 11.7798 1.14181C11.6858 1.14181 11.5917 1.14181 11.4977 1.14181C11.4319 1.14181 11.4131 1.16022 11.4037 1.21547C11.3379 1.55617 11.2721 1.89687 11.2157 2.23757C11.1969 2.32044 11.1781 2.35728 11.0841 2.34807C10.9431 2.33886 10.7926 2.34807 10.6516 2.34807C10.5952 2.34807 10.5764 2.34807 10.5858 2.28361C10.661 1.89687 10.7362 1.50092 10.8114 1.11418C10.8302 0.994478 10.8866 0.893189 10.9807 0.810316C11.0747 0.727443 11.1781 0.681402 11.3003 0.672194C11.4413 0.662986 11.5823 0.653778 11.7328 0.653778" fill="black"/>
<path d="M17.0726 0.672195H17.5239C17.5239 0.672195 17.5803 0.672195 17.5709 0.727444C17.5427 0.847149 17.5239 0.957647 17.5051 1.07735C17.5051 1.14181 17.4675 1.15102 17.4111 1.15102H16.7718C16.7718 1.15102 16.7436 1.15102 16.7248 1.16943C16.706 1.16943 16.6966 1.18785 16.6872 1.20627C16.6872 1.21547 16.6684 1.23389 16.6684 1.25231C16.6684 1.27072 16.6684 1.28914 16.6684 1.29835C16.6778 1.31676 16.706 1.30755 16.7248 1.31676H17.0632C17.2795 1.32597 17.4769 1.45488 17.4205 1.74034C17.3829 1.88767 17.3735 2.03499 17.2607 2.14549C17.1948 2.21916 17.1102 2.27441 17.0256 2.31124C16.9316 2.34807 16.8376 2.36649 16.7436 2.36649C16.4709 2.36649 16.1983 2.36649 15.9351 2.36649C15.8787 2.36649 15.8693 2.35728 15.8787 2.30203C15.9069 2.18232 15.9257 2.07183 15.9445 1.95212C15.9445 1.89687 15.9821 1.88767 16.0291 1.88767H16.7154C16.7718 1.88767 16.8376 1.77717 16.8094 1.73113C16.8 1.71271 16.7718 1.72192 16.753 1.72192H16.4145C16.1325 1.7035 16.0103 1.55617 16.0667 1.28914C16.0761 1.23389 16.0855 1.17864 16.0949 1.12339C16.1513 0.828733 16.3299 0.681404 16.6402 0.681404H17.082" fill="black"/>
<path d="M15.9728 0.672194C15.9446 0.828732 15.9164 0.966854 15.8882 1.11418C15.8882 1.16943 15.8412 1.15102 15.8129 1.15102H15.1643C15.1079 1.15102 15.042 1.2523 15.0702 1.29835C15.0797 1.31676 15.1079 1.30755 15.1267 1.30755H15.4557C15.7283 1.32597 15.86 1.4733 15.8129 1.74033C15.8129 1.75875 15.8035 1.77717 15.8035 1.79558C15.7565 2.17312 15.5027 2.32965 15.1643 2.34807C14.8822 2.34807 14.6096 2.34807 14.3275 2.34807C14.2711 2.34807 14.2711 2.32965 14.2805 2.28361C14.3087 2.16391 14.3275 2.05341 14.3463 1.9337C14.3463 1.87846 14.3746 1.86925 14.431 1.86925H15.1173C15.1173 1.86925 15.1455 1.86004 15.1643 1.85083C15.1831 1.84162 15.1925 1.83242 15.2019 1.814C15.2019 1.79558 15.2207 1.78637 15.2207 1.76796C15.2207 1.74954 15.2207 1.73113 15.2207 1.72192C15.2113 1.7035 15.1831 1.7035 15.1643 1.7035H14.8352C14.572 1.68509 14.4216 1.52855 14.4874 1.27993C14.5062 1.18785 14.5156 1.08656 14.5532 0.994478C14.5814 0.911605 14.6284 0.83794 14.6942 0.773483C14.76 0.718235 14.8446 0.681402 14.9386 0.672194C15.2959 0.635362 15.6437 0.672194 16.0104 0.653778" fill="black"/>
<path d="M10.0877 2.35728C9.97485 2.35728 9.85264 2.35728 9.73982 2.34807C9.48598 2.31124 9.36377 2.1547 9.41078 1.90608C9.50479 1.38122 9.6082 0.856356 9.70221 0.331494C9.70221 0.294661 9.72102 0.276245 9.76802 0.276245H10.2757C10.3321 0.276245 10.3321 0.294661 10.3227 0.331494C10.3039 0.423575 10.2851 0.524864 10.2663 0.616945C10.2569 0.662985 10.2663 0.681402 10.3227 0.681402H10.7082C10.7552 0.681402 10.7646 0.699818 10.7552 0.73665C10.727 0.856356 10.7082 0.985269 10.6893 1.10497C10.6893 1.15101 10.6611 1.16022 10.6141 1.16022H10.2287C10.2287 1.16022 10.1723 1.16022 10.1629 1.20626C10.1253 1.41805 10.0877 1.62063 10.0407 1.83241C10.0313 1.88766 10.0407 1.89687 10.0971 1.89687H10.4449C10.5013 1.89687 10.5389 1.89687 10.5201 1.97974C10.4919 2.09945 10.4731 2.20995 10.4543 2.32965C10.4543 2.36648 10.4355 2.37569 10.3979 2.37569H10.1065" fill="black"/>
<path d="M9.39193 0.672195C9.31672 1.04973 9.25091 1.41805 9.1851 1.79558C9.1569 1.96133 9.11929 2.11787 9.09109 2.29282C9.09109 2.33886 9.07228 2.36649 9.01588 2.36649C8.84665 2.36649 8.68683 2.36649 8.52701 2.36649C8.4706 2.36649 8.4706 2.35728 8.48 2.30203C8.58342 1.77717 8.67743 1.25231 8.78084 0.736652C8.78084 0.709028 8.79024 0.681404 8.83725 0.681404H9.41073" fill="black"/>
<path d="M9.10034 0.543283C8.96872 0.543283 8.8653 0.488034 8.8371 0.405161C8.8183 0.349912 8.8183 0.285456 8.8371 0.230207C8.8559 0.174958 8.89351 0.11971 8.94051 0.0828775C8.99692 0.036837 9.07213 0.00921266 9.13794 4.55207e-06C9.21315 -0.00920355 9.28836 4.55067e-06 9.35417 0.0276289C9.40118 0.0460451 9.43878 0.0736694 9.45759 0.110502C9.47639 0.147334 9.48579 0.202583 9.47639 0.239415C9.44818 0.423577 9.29776 0.534075 9.09094 0.534075L9.10034 0.543283Z" fill="black"/>
<path d="M2.435 4.05157C2.35039 3.94107 2.28458 3.83057 2.22818 3.70166C2.10596 3.49908 1.97434 3.2965 1.82392 3.07551H2.54782C2.54782 3.07551 2.59483 3.07551 2.61363 3.07551C2.63243 3.07551 2.65123 3.05709 2.67004 3.03868C2.68884 3.02026 2.69824 3.00184 2.70764 2.98343C2.70764 2.96501 2.71704 2.94659 2.70764 2.91897V2.51381C2.70764 2.33886 2.70764 2.16391 2.70764 1.98895C2.70764 1.87846 2.64183 1.83241 2.51962 1.83241H1.85212C1.85212 1.83241 1.85212 1.79558 1.86153 1.77717C1.95554 1.62984 2.06835 1.48251 2.16237 1.32597C2.18117 1.28914 2.20937 1.26151 2.23758 1.2431C2.27518 1.22468 2.31279 1.21547 2.35039 1.22468C2.72644 1.22468 3.1119 1.22468 3.48795 1.22468L2.96148 0.405159C2.96148 0.405159 2.92387 0.34991 2.90507 0.313078C2.83613 0.20258 2.84553 0.101291 2.93327 0.00921015C2.51962 2.05147e-06 2.10596 2.05147e-06 1.6923 0.00921015C1.59829 0.00921015 1.49488 0.0368345 1.41967 0.082875C1.33505 0.128916 1.26924 0.20258 1.22224 0.285453C1.01541 0.635361 0.808582 0.976061 0.611155 1.31676C0.441932 1.61142 0.263307 1.88766 0.103485 2.17311C0.0470775 2.2744 -0.0187315 2.37569 0.0188737 2.4954C0.0376762 2.59669 0.0752814 2.68877 0.131689 2.77164C0.498339 3.38858 0.874391 4.00553 1.23164 4.63168C1.36326 4.85267 1.52308 4.96317 1.78632 4.94475C2.12476 4.92634 2.46321 4.94475 2.79225 4.94475C2.91447 4.8803 2.93327 4.83426 2.86746 4.71455C2.73585 4.48435 2.58542 4.26335 2.435 4.04236" fill="black"/>
<path d="M17.853 0.543273C17.853 0.377527 17.8718 0.285446 18.0881 0.285446C18.3043 0.285446 18.3419 0.377527 18.3419 0.543273C18.3419 0.709019 18.3231 0.8011 18.1069 0.8011C17.8906 0.8011 17.853 0.709019 17.853 0.543273ZM18.2949 0.543273C18.2949 0.386735 18.2573 0.331487 18.0881 0.331487C17.9188 0.331487 17.9 0.386735 17.9 0.543273C17.9 0.699811 17.9376 0.755059 18.1069 0.755059C18.2761 0.755059 18.3043 0.699811 18.2949 0.534065V0.543273ZM18.0034 0.672187V0.423568V0.405152C18.0317 0.405152 18.0599 0.405152 18.0881 0.405152C18.1727 0.405152 18.2009 0.41436 18.2009 0.497233C18.2009 0.543273 18.1915 0.570897 18.1539 0.580105L18.2103 0.672187C18.2103 0.672187 18.2103 0.681395 18.2103 0.690603C18.2103 0.690603 18.2103 0.699811 18.1821 0.699811C18.1539 0.699811 18.1539 0.699811 18.1445 0.681395L18.0975 0.580105H18.0317V0.672187C18.0317 0.672187 18.0317 0.690603 18.0128 0.690603C17.994 0.690603 17.9846 0.690603 17.9846 0.672187H18.0034ZM18.0505 0.534065H18.0975C18.1445 0.534065 18.1539 0.534065 18.1539 0.488024C18.1539 0.441984 18.1445 0.451192 18.0975 0.451192H18.0505V0.543273V0.534065Z" fill="black"/>
</g>
<defs>
<clipPath id="clip0_3790_6569">
<rect width="19" height="5" fill="white"/>
</clipPath>
</defs>
</svg>
