<svg width="29" height="8" viewBox="0 0 29 8" fill="none" xmlns="http://www.w3.org/2000/svg">
<g clip-path="url(#clip0_3790_6309)">
<path d="M16.5259 2.48664H14.0889C14.0728 2.72967 14.3108 3.03122 14.6106 3.16174C15.0202 3.33952 15.4024 3.23825 15.8028 2.83544L16.2673 3.17074C16.0339 3.47229 15.741 3.67032 15.3749 3.75133C14.3612 3.97637 13.3955 3.31701 13.4275 2.14233C13.4458 1.46723 13.8326 0.91589 14.4275 0.704357C15.217 0.425313 16.3841 0.742613 16.5236 2.00056C16.5419 2.15808 16.5259 2.31786 16.5259 2.48664ZM15.8966 1.9308C15.8532 1.50098 15.4367 1.16793 14.963 1.17468C14.5328 1.18143 14.098 1.55049 14.0774 1.9308H15.8989H15.8966Z" fill="#020406"/>
<path d="M28.9886 2.48663H26.5332C26.5973 2.82869 26.7895 3.05147 27.1007 3.17074C27.5652 3.34402 27.9451 3.19999 28.2586 2.83319L28.73 3.17299C28.3753 3.60731 27.9268 3.81434 27.3661 3.79409C26.9931 3.78058 26.6384 3.63656 26.3684 3.38452C26.0984 3.13248 25.9313 2.79268 25.897 2.42812C25.8535 1.9623 25.9359 1.53023 26.2449 1.15892C26.5812 0.756111 27.0229 0.589585 27.5469 0.62334C28.0458 0.654845 28.4554 0.857377 28.7323 1.27594C28.9748 1.64275 29.0252 2.05231 28.9863 2.49113L28.9886 2.48663ZM26.5355 1.92854H28.357C28.3112 1.49198 27.8787 1.15667 27.3982 1.17468C26.9771 1.19268 26.5446 1.56849 26.5355 1.92854Z" fill="#020406"/>
<path d="M23.2308 0.670601H24.4734C25.1049 0.670601 25.5992 1.11842 25.6587 1.74627C25.7114 2.30661 25.2903 2.84669 24.6999 2.94796C24.4871 2.98396 23.9013 2.97271 23.8189 2.97271V3.73108H23.2285V0.670601H23.2308ZM23.8258 2.41237C24.0615 2.41237 24.2926 2.42588 24.5214 2.41012C24.8098 2.38762 25.0317 2.13558 25.0477 1.84753C25.0615 1.56624 24.867 1.2827 24.5878 1.24444C24.3406 1.21294 24.0866 1.23769 23.8281 1.23769V2.41237H23.8258Z" fill="#020406"/>
<path d="M19.3291 3.73558V0.677353H19.9172V1.66751C19.9698 1.66751 20.5556 1.65176 20.7982 1.69001C21.1987 1.75527 21.4641 2.00956 21.5808 2.38762C21.6975 2.76793 21.6197 3.11898 21.3451 3.41603C21.1437 3.63657 20.8875 3.74008 20.5831 3.73783C20.201 3.73333 19.368 3.73783 19.3291 3.73783V3.73558ZM19.9264 3.18424C19.9653 3.18424 20.4 3.19325 20.5831 3.17749C20.828 3.15499 21.0087 2.95021 21.0156 2.71167C21.0225 2.48213 20.86 2.25485 20.6289 2.2301C20.3978 2.20534 20.1643 2.22559 19.9264 2.22559V3.18649V3.18424Z" fill="#020406"/>
<path d="M12.9563 3.73333H12.3705V2.51364C12.1714 2.62391 11.9517 2.68692 11.7229 2.70042C11.3796 2.71842 11.0661 2.65316 10.8098 2.41012C10.6176 2.22785 10.5284 2.00506 10.5215 1.75077C10.5123 1.40647 10.5215 0.695356 10.5261 0.679604H11.1119C11.1119 0.78312 11.105 1.46948 11.1279 1.71026C11.1508 1.97356 11.3041 2.11308 11.5673 2.14233C11.8213 2.16934 12.0776 2.11533 12.2972 1.98706C12.3522 1.95555 12.3682 1.9173 12.3682 1.85654C12.3659 1.50098 12.3682 0.72011 12.3682 0.679604H12.9563V3.73558V3.73333Z" fill="#020406"/>
<path d="M17.4323 1.21969H16.501V0.675102H18.9701V1.21744H18.0433V3.72883H17.43V1.21969H17.4323Z" fill="#020406"/>
<path d="M21.938 0.675102H22.5307V3.73108H21.938V0.675102Z" fill="#020406"/>
<path d="M15.73 5.83291C15.7529 5.4256 15.5538 5.16906 15.1831 5.1263C14.7689 5.07905 14.5355 5.24782 14.4691 5.65063H13.8902C13.8787 5.43685 13.9382 5.22532 14.0641 5.04979C14.2242 4.82251 14.4508 4.69424 14.7185 4.63573C14.9634 4.58172 15.2174 4.58397 15.4622 4.64248C15.9359 4.75274 16.2426 5.0858 16.3089 5.55837C16.3226 5.64838 16.3295 5.74065 16.3318 5.83066C16.3318 6.43826 16.3318 7.0481 16.3318 7.6557C16.3318 7.68045 16.3295 7.70521 16.3272 7.73671H15.8261C15.8078 7.62869 15.7872 7.52068 15.7643 7.39691C15.6041 7.55893 15.4279 7.68045 15.222 7.74346C14.9657 7.82672 14.6888 7.83798 14.4256 7.77047C14.0755 7.68045 13.8421 7.46667 13.7734 7.11111C13.7025 6.73305 13.8032 6.41125 14.135 6.18172C14.4165 5.98819 14.7391 5.91393 15.0755 5.88017C15.2906 5.85767 15.508 5.84867 15.7323 5.83291H15.73ZM15.7277 6.31224C15.6316 6.31224 15.5446 6.30774 15.4554 6.31224C15.1625 6.33024 14.8741 6.36175 14.6178 6.51702C14.4256 6.63404 14.3455 6.80732 14.3913 6.99635C14.4325 7.16062 14.5744 7.26414 14.7963 7.29114C14.8123 7.29114 14.8284 7.29114 14.8444 7.29114C15.3821 7.30464 15.7826 6.86582 15.73 6.31224H15.7277Z" fill="#020406"/>
<path d="M17.5354 5.22082V7.72771H16.9473V4.67398H19.4713V7.72546H18.8832V5.21857H17.5331L17.5354 5.22082Z" fill="#020406"/>
<path d="M12.6912 5.22532H11.785C11.7712 5.44585 11.769 5.66414 11.7438 5.87792C11.7003 6.25598 11.6683 6.63854 11.5859 7.00985C11.4783 7.50492 11.1351 7.75246 10.6225 7.76821H10.5195V7.23263C10.5516 7.23038 10.5836 7.22813 10.6179 7.22363C10.7987 7.20113 10.9429 7.12011 10.9932 6.94459C11.0527 6.73755 11.1076 6.52377 11.1259 6.30774C11.1694 5.79241 11.1877 5.27708 11.2175 4.76174C11.2175 4.73474 11.222 4.70774 11.2243 4.67623H13.2838V7.73671H12.6912V5.22532Z" fill="#020406"/>
<path d="M20.1899 7.73671V4.67848H20.7803V5.66864C21.0023 5.66864 21.2128 5.66864 21.4256 5.66864C21.5149 5.66864 21.6041 5.67539 21.6934 5.69114C22.2037 5.79916 22.5401 6.28298 22.4851 6.81857C22.4325 7.3339 21.9931 7.73221 21.4714 7.73446C21.0481 7.73446 20.6247 7.73446 20.1922 7.73446L20.1899 7.73671ZM20.7872 7.17637C21.0183 7.17637 21.2471 7.19663 21.4691 7.17187C21.7254 7.14487 21.8993 6.90183 21.8764 6.65879C21.8536 6.4045 21.6453 6.21997 21.3776 6.21772H20.7849V7.17637H20.7872Z" fill="#020406"/>
<path d="M23.3938 7.72996H22.7988V4.67623H23.3938V7.72996Z" fill="#020406"/>
<path d="M8.1786 0H4.08936V8H8.1786V0Z" fill="black"/>
<path d="M4.08924 0H0V8H4.08924V0Z" fill="black"/>
<path d="M5.77793 3.90211C5.63147 3.82785 5.6063 3.68608 5.75962 3.60506C5.842 3.57581 6.07083 3.5353 6.29967 3.48804C6.77106 3.39578 6.9198 3.04473 6.91065 2.59916C6.91065 2.5474 6.82369 2.50014 6.77106 2.50464C6.20356 2.52264 5.80081 2.66892 5.64292 2.12433C5.53994 1.81828 5.37747 1.66526 5.29051 1.67876C5.1761 1.67876 5.24475 2.00281 5.21271 2.12658C5.19898 2.12658 5.03422 1.65626 4.87632 1.67876C4.75275 1.70127 4.80539 1.87454 4.79166 2.34487C4.78479 2.5744 4.7642 3.25176 4.30195 3.41378C3.99074 3.5263 3.45985 3.47454 3.02735 3.41153C2.79394 3.36653 2.42781 3.11674 2.24703 2.74768C2.21729 2.68692 2.16008 2.69367 2.14177 2.75893C2.06854 3.01547 2.15779 3.40253 2.38205 3.67032C2.07541 3.89986 1.34543 4.4602 1.11202 5.05429C1.08227 5.14655 1.36832 5.34684 1.4507 5.29283C1.82827 4.97553 2.41179 4.48495 2.63376 4.4872C2.66809 4.52996 1.97701 4.85176 1.51935 5.72264C1.49189 5.81716 1.82369 6.06695 1.90607 6.00844C2.2928 5.63713 2.49189 5.40084 3.03651 5.1488C3.42095 4.98453 4.09829 4.88551 4.72301 5.03404C5.26076 5.16231 5.64063 5.37834 6.2333 5.80816C6.44383 5.96793 6.62461 5.67539 6.57198 5.53361C6.29967 4.96653 5.33399 4.53221 5.36832 4.44444C5.39578 4.37693 6.02049 4.70549 6.56054 5.02504C6.7047 5.07904 6.93582 4.82475 6.86717 4.70999C6.54452 4.29142 6.13033 4.08889 5.78479 3.89986L5.77793 3.90211Z" fill="white"/>
</g>
<defs>
<clipPath id="clip0_3790_6309">
<rect width="29" height="8" fill="white"/>
</clipPath>
</defs>
</svg>
