<svg width="23" height="6" viewBox="0 0 23 6" fill="none" xmlns="http://www.w3.org/2000/svg">
<g clip-path="url(#clip0_3790_7038)">
<path d="M19.8537 2.66839C19.7137 3.11839 19.4237 3.84839 19.1637 4.21839C19.1537 4.23839 19.1337 4.24839 19.1137 4.24839L18.9137 4.24839C18.7137 4.24839 18.6037 4.17839 18.5437 4.08839C18.3937 3.86839 18.2237 3.41839 18.1237 3.10839C18.0337 3.44839 17.8137 3.95839 17.6137 4.22839C17.6037 4.24839 17.5837 4.24839 17.5637 4.24839L17.3937 4.24839C17.2037 4.24839 17.1037 4.21839 17.0137 4.08839C16.6937 3.59839 16.3737 2.72839 16.2437 1.93839C16.2437 1.88839 16.2737 1.84839 16.3237 1.84839L16.6637 1.84839C16.9337 1.84839 17.0837 2.03839 17.1137 2.18839C17.1737 2.48839 17.2537 2.79839 17.3837 3.11839C17.3937 3.14839 17.4337 3.14839 17.4537 3.11839C17.6037 2.75839 17.7137 2.38839 17.8037 2.00839C17.8037 1.96839 17.8437 1.94839 17.8837 1.94839L18.1437 1.94839C18.3537 1.94839 18.5537 2.11839 18.5937 2.29839C18.6337 2.49839 18.7537 2.84839 18.8737 3.11839C18.8837 3.14839 18.9237 3.14839 18.9437 3.11839C19.0637 2.82839 19.1837 2.37839 19.2537 1.91839C19.2537 1.87839 19.2937 1.84839 19.3337 1.84839L19.6537 1.84839C19.9037 1.84839 20.0137 2.00839 20.0137 2.14839C20.0137 2.24839 19.9337 2.52839 19.8837 2.68839L19.8537 2.66839Z" fill="black"/>
<path d="M10.2337 3.27841C10.2337 3.27841 10.2137 3.22841 10.1837 3.22841L10.0637 3.22841C9.75365 3.22841 9.62365 3.30841 9.62365 3.46841C9.62365 3.61841 9.72365 3.69841 9.94365 3.69841C10.0937 3.69841 10.2237 3.62841 10.2237 3.40841L10.2237 3.27841L10.2337 3.27841ZM9.87365 4.26841C9.41365 4.26841 8.85365 4.04841 8.85365 3.50841C8.85365 2.96841 9.23365 2.70841 10.0937 2.70841L10.1637 2.70841C10.1637 2.70841 10.2137 2.68841 10.2137 2.65841L10.2137 2.60841C10.2137 2.41841 10.0637 2.37841 9.73365 2.38841C9.36365 2.39841 9.10365 2.57841 9.01365 2.64841C9.00365 2.65841 8.97365 2.64841 8.97365 2.62841L8.97365 2.38841C8.97365 2.09841 9.23365 1.74841 9.91365 1.74841C10.5937 1.74841 10.9937 2.07841 10.9937 2.77841L10.9937 3.14841C10.9937 4.00841 10.7137 4.25841 9.85365 4.25841" fill="black"/>
<path d="M15.3435 3.27841C15.3435 3.27841 15.3235 3.22841 15.2935 3.22841L15.1735 3.22841C14.8635 3.22841 14.7335 3.30841 14.7335 3.46841C14.7335 3.61841 14.8335 3.69841 15.0535 3.69841C15.2035 3.69841 15.3335 3.62841 15.3335 3.40841L15.3335 3.27841L15.3435 3.27841ZM14.9835 4.26841C14.5235 4.26841 13.9635 4.04841 13.9635 3.50841C13.9635 2.96841 14.3435 2.70841 15.2035 2.70841L15.2735 2.70841C15.2735 2.70841 15.3235 2.68841 15.3235 2.65841L15.3235 2.60841C15.3235 2.41841 15.1735 2.37841 14.8435 2.38841C14.4735 2.39841 14.2135 2.57841 14.1235 2.64841C14.1135 2.65841 14.0835 2.64841 14.0835 2.62841L14.0835 2.38841C14.0835 2.09841 14.3435 1.74841 15.0235 1.74841C15.7035 1.74841 16.1035 2.07841 16.1035 2.77841L16.1035 3.14841C16.1035 4.00841 15.8235 4.25841 14.9635 4.25841" fill="black"/>
<path d="M21.5235 3.27841C21.5235 3.27841 21.5035 3.22841 21.4735 3.22841L21.3535 3.22841C21.0435 3.22841 20.9135 3.30841 20.9135 3.46841C20.9135 3.61841 21.0135 3.69841 21.2335 3.69841C21.3835 3.69841 21.5135 3.62841 21.5135 3.40841L21.5135 3.27841L21.5235 3.27841ZM21.1635 4.26841C20.7035 4.26841 20.1435 4.04841 20.1435 3.50841C20.1435 2.96841 20.5235 2.70841 21.3835 2.70841L21.4535 2.70841C21.4535 2.70841 21.5035 2.68841 21.5035 2.65841L21.5035 2.60841C21.5035 2.41841 21.3535 2.37841 21.0235 2.38841C20.6535 2.39841 20.3935 2.57841 20.3035 2.64841C20.2935 2.65841 20.2635 2.64841 20.2635 2.62841L20.2635 2.38841C20.2635 2.09841 20.5235 1.74841 21.2035 1.74841C21.8835 1.74841 22.2935 2.08841 22.2935 2.78841L22.2935 3.15841C22.2935 4.01841 22.0235 4.26841 21.1535 4.26841" fill="black"/>
<path d="M8.19326 2.67845L7.81326 2.67845C7.81326 2.67845 7.78326 2.69845 7.78326 2.70845C7.81326 2.80845 7.83326 2.97845 7.83326 3.08845L7.83326 3.41845C7.83326 3.52845 7.81326 3.60845 7.58326 3.60845C7.13326 3.60845 6.78326 3.32845 6.78326 2.68845C6.78326 2.12845 7.13326 1.82845 7.57326 1.82845C8.10326 1.82845 8.35326 1.97845 8.44326 2.05845C8.46326 2.06845 8.48326 2.05845 8.48326 2.03845L8.48326 1.79845C8.48326 1.46845 8.18326 1.15845 7.59326 1.15845C6.54326 1.15845 5.95326 1.86845 5.95326 2.74845C5.95326 3.62845 6.66326 4.27845 7.50326 4.27845C8.28326 4.27845 8.59326 3.96845 8.59326 3.47845L8.59326 3.07845C8.59326 2.85845 8.45326 2.67845 8.19326 2.67845Z" fill="black"/>
<path d="M13.6636 3.70842C13.6636 3.59842 13.6636 3.50842 13.6636 3.45842L13.6636 2.82842C13.6636 2.17842 13.3236 1.75842 12.6036 1.75842C11.7936 1.75842 11.2836 2.27842 11.2836 2.93842C11.2836 3.67842 11.7636 3.97842 12.3636 3.97842C12.5836 3.97842 12.7536 3.85842 12.8236 3.71842C12.8236 3.71842 12.8236 3.71842 12.8336 3.71842C12.8336 3.71842 12.8336 3.71842 12.8336 3.73842L12.8336 3.76842C12.8336 3.76842 12.8336 3.86842 12.8336 3.90842C12.8336 4.15842 12.6436 4.35842 12.3036 4.35842C12.2836 4.35842 12.2636 4.35842 12.2436 4.35842C12.2436 4.35842 12.2336 4.35842 12.2236 4.35842C12.2136 4.35842 12.1936 4.35842 12.1836 4.35842L12.1636 4.35842C12.1536 4.35842 12.1336 4.35842 12.1236 4.35842C12.1236 4.35842 12.1136 4.35842 12.1036 4.35842C11.7836 4.32842 11.6136 4.24842 11.5336 4.19842C11.5136 4.18842 11.4836 4.19842 11.4836 4.22842L11.4836 4.40842C11.4836 4.70842 11.7436 5.00842 12.4236 5.00842C13.1736 5.00842 13.6636 4.54842 13.6636 3.96842C13.6636 3.87842 13.6636 3.79842 13.6636 3.72842L13.6636 3.70842ZM12.5036 3.33842C12.2536 3.33842 12.0936 3.20842 12.0936 2.85842C12.0936 2.57842 12.2336 2.41842 12.4836 2.41842C12.7336 2.41842 12.8636 2.54842 12.8636 2.89842C12.8636 3.16842 12.7336 3.34842 12.5136 3.34842L12.5036 3.33842Z" fill="black"/>
<path d="M4.81342 1.84851C4.69342 1.55851 4.51342 1.28851 4.28342 1.06851C4.05342 0.838511 3.79342 0.668511 3.50342 0.538511C3.20342 0.408511 2.87342 0.348511 2.54342 0.348511C2.21342 0.348511 1.88342 0.418511 1.58342 0.538511C1.29342 0.658511 1.02342 0.838511 0.803417 1.06851C0.573417 1.29851 0.403418 1.55851 0.273418 1.84851C0.143418 2.14851 0.0834178 2.47851 0.0834178 2.80851C0.0834178 3.13851 0.153418 3.46851 0.273418 3.76851C0.393418 4.05851 0.573417 4.32851 0.803417 4.54851C1.03342 4.77851 1.29342 4.94851 1.58342 5.07851C1.88342 5.20851 2.21342 5.26851 2.54342 5.26851C2.87342 5.26851 3.20342 5.19851 3.50342 5.07851C3.79342 4.95851 4.06342 4.77851 4.28342 4.54851C4.51342 4.31851 4.68342 4.05851 4.81342 3.76851C4.94342 3.46851 5.00342 3.13851 5.00342 2.80851C5.00342 2.47851 4.93342 2.14851 4.81342 1.84851ZM4.05342 4.32851C3.64342 4.73851 3.11342 4.95851 2.53342 4.95851C1.95342 4.95851 1.42342 4.73851 1.01342 4.32851C0.603418 3.91851 0.383417 3.38851 0.383417 2.80851C0.383417 2.22851 0.603418 1.69851 1.01342 1.28851C1.42342 0.878511 1.95342 0.658511 2.53342 0.658511C3.11342 0.658511 3.64342 0.878511 4.05342 1.28851C4.46342 1.69851 4.68342 2.22851 4.68342 2.80851C4.68342 3.38851 4.46342 3.91851 4.05342 4.32851Z" fill="black"/>
<path d="M2.5535 2.55851C2.2535 2.59851 1.9635 2.94851 2.0035 3.53851C2.0035 3.53851 2.0035 3.54851 1.9935 3.54851C1.9235 3.53851 1.5335 3.43851 1.6035 2.84851C1.6835 2.18851 2.2435 2.01851 2.6535 2.18851C2.7835 2.23851 2.9735 2.28851 3.1435 2.12851C3.3135 1.96851 3.1635 1.66851 3.1635 1.66851C3.0035 1.29851 2.9035 1.16851 2.8935 0.988507C2.8935 0.978507 2.8835 0.968507 2.8735 0.978507C2.8135 1.00851 2.6335 1.10851 2.5735 1.29851C2.5435 1.38851 2.5535 1.45851 2.5635 1.49851C2.5235 1.45851 2.4535 1.42851 2.3835 1.39851C2.0235 1.25851 1.8635 1.22851 1.7335 1.10851C1.7335 1.10851 1.7135 1.10851 1.7035 1.10851C1.6835 1.17851 1.6235 1.36851 1.7035 1.54851C1.7335 1.60851 1.7735 1.64851 1.8035 1.66851C1.8035 1.66851 1.8035 1.66851 1.7935 1.66851C1.7335 1.66851 1.6635 1.66851 1.6235 1.68851C1.3335 1.75851 1.1935 1.80851 1.0335 1.77851C1.0235 1.77851 1.0135 1.77851 1.0135 1.79851C1.0335 1.86851 1.0835 2.04851 1.2335 2.14851C1.2535 2.16851 1.3035 2.18851 1.3535 2.18851C1.3535 2.18851 1.3535 2.18851 1.3535 2.19851C1.3235 2.21851 1.2635 2.24851 1.2135 2.28851C1.1035 2.36851 1.0235 2.41851 0.923496 2.43851C0.913496 2.43851 0.903496 2.45851 0.923496 2.46851C0.963496 2.52851 1.1035 2.69851 1.3135 2.71851C1.3135 2.71851 1.3235 2.71851 1.3235 2.72851C1.2935 3.17851 1.4035 3.59851 1.9735 3.66851C1.9735 3.73851 2.0035 4.24851 2.4635 4.40851C2.4735 4.40851 2.4935 4.39851 2.4835 4.38851C2.4135 4.29851 2.2835 4.06851 2.3035 3.67851C2.3735 3.67851 2.8635 3.61851 3.0035 3.18851C3.1635 2.71851 2.8335 2.50851 2.5235 2.55851M2.6135 3.23851C2.6135 3.23851 2.6135 3.25851 2.6035 3.26851C2.5135 3.44851 2.3635 3.51851 2.3135 3.53851C2.3135 3.53851 2.2935 3.53851 2.2935 3.52851C2.2935 3.46851 2.2935 3.24851 2.4035 3.02851C2.5235 2.78851 2.7335 2.95851 2.6135 3.23851Z" fill="black"/>
<path d="M3.25355 2.70846C3.29355 2.80846 3.35355 3.01846 3.16355 3.38846C2.89355 3.91846 3.10355 4.44846 3.42355 4.41846C3.74355 4.39846 3.72355 3.87846 3.43355 3.61846C3.20355 3.41846 3.55355 3.49846 3.88355 3.38846C3.90355 3.38846 3.91355 3.35846 3.88355 3.33846L3.55355 3.16846L3.55355 3.14846C3.66355 3.14846 3.91355 3.07846 4.00355 3.00846C4.02355 2.99846 4.02355 2.97846 4.00355 2.96846L3.27356 2.66846C3.27356 2.66846 3.23355 2.66846 3.24355 2.69846" fill="black"/>
<path d="M14.1135 5.52854C14.0535 5.48854 14.0335 5.42854 14.0335 5.34854C14.0335 5.12854 14.2735 4.85854 14.5635 4.67854C14.7035 4.58854 14.8335 4.54854 14.9235 4.54854C14.9735 4.54854 15.0035 4.55854 15.0435 4.60854C15.0935 4.66854 15.0935 4.68854 15.0735 4.69854C14.5835 4.84854 14.2035 5.18854 14.1835 5.43854C14.1835 5.43854 14.2035 5.43854 14.2235 5.43854C14.3435 5.43854 14.5635 5.34854 14.7035 5.24854C14.7135 5.23854 14.7235 5.24854 14.7235 5.24854C14.7235 5.27854 14.7035 5.33854 14.6835 5.36854C14.5535 5.51854 14.3935 5.60854 14.2635 5.60854C14.1935 5.60854 14.1535 5.58854 14.1235 5.53854L14.1135 5.52854ZM14.8135 5.58854C14.8135 5.58854 14.7835 5.57854 14.7635 5.55854C14.7135 5.52854 14.6935 5.50854 14.6935 5.46854C14.6935 5.43854 14.7035 5.40854 14.8035 5.26854C15.0635 4.86854 15.2135 4.63854 15.2435 4.55854C15.2435 4.53854 15.2635 4.53854 15.2735 4.54854C15.3035 4.56854 15.3435 4.57854 15.3635 4.59854C15.3935 4.62854 15.3935 4.67854 15.3635 4.74854C15.3035 4.86854 15.2135 4.98854 15.0535 5.23854C15.1135 5.18854 15.1535 5.14854 15.1835 5.11854C15.2535 5.05854 15.2835 5.04854 15.3135 5.04854C15.3335 5.04854 15.3735 5.05854 15.3935 5.07854C15.4235 5.10854 15.4235 5.16854 15.3935 5.21854C15.3635 5.30854 15.2935 5.36854 15.2635 5.47854C15.3135 5.46854 15.3535 5.43854 15.3935 5.39854L15.3935 5.41854C15.3935 5.41854 15.3935 5.42854 15.3835 5.44854C15.3435 5.49854 15.2635 5.56854 15.1835 5.56854C15.1535 5.56854 15.1235 5.54854 15.1035 5.52854C15.0635 5.48854 15.0635 5.43854 15.0735 5.39854C15.1035 5.30854 15.1335 5.25854 15.1435 5.21854C15.0535 5.28854 14.9535 5.37854 14.8735 5.49854C14.8235 5.56854 14.8035 5.58854 14.7935 5.58854L14.8135 5.58854ZM15.5135 5.55854C15.5135 5.55854 15.4735 5.51854 15.4635 5.49854C15.4335 5.43854 15.4635 5.37854 15.5435 5.26854C15.6235 5.15854 15.6735 5.07854 15.6935 5.03854C15.7135 5.00854 15.7135 4.99854 15.7335 5.00854C15.7735 5.02854 15.8135 5.02854 15.8335 5.03854C15.8735 5.05854 15.8735 5.09854 15.8335 5.16854C15.7635 5.25854 15.6535 5.40854 15.6435 5.48854C15.7035 5.47854 15.7535 5.43854 15.8135 5.37854L15.8135 5.39854C15.8135 5.39854 15.8135 5.40854 15.8035 5.42854C15.7635 5.48854 15.6835 5.57854 15.6035 5.57854C15.5735 5.57854 15.5435 5.56854 15.5135 5.54854L15.5135 5.55854ZM15.8235 4.88854C15.8235 4.88854 15.9135 4.76854 15.9335 4.72854C15.9335 4.72854 15.9335 4.72854 15.9435 4.72854C15.9835 4.74854 16.0135 4.76854 16.0235 4.78854C16.0335 4.80854 16.0235 4.81854 16.0235 4.83854C15.9935 4.87854 15.9635 4.89854 15.9535 4.90854C15.9335 4.92854 15.9035 4.92854 15.8735 4.92854C15.8535 4.92854 15.8335 4.92854 15.8235 4.91854C15.8235 4.91854 15.8235 4.90854 15.8235 4.89854L15.8235 4.88854ZM15.9135 5.51854C15.8435 5.43854 15.8335 5.33854 15.9135 5.21854C16.0035 5.10854 16.1535 5.00854 16.2535 5.00854C16.2835 5.00854 16.3135 5.01854 16.3435 5.04854C16.4035 5.09854 16.3935 5.11854 16.3635 5.12854C16.1735 5.17854 16.0035 5.34854 15.9935 5.45854C16.0035 5.45854 16.0235 5.46854 16.0435 5.46854C16.1135 5.46854 16.2435 5.41854 16.3035 5.36854C16.3135 5.36854 16.3135 5.36854 16.3135 5.36854C16.3135 5.36854 16.3135 5.38854 16.2935 5.40854C16.2935 5.42854 16.2735 5.44854 16.2635 5.45854C16.2035 5.51854 16.0935 5.56854 16.0335 5.56854C15.9735 5.56854 15.9435 5.54854 15.8935 5.49854L15.9135 5.51854ZM16.4335 5.56854C16.4335 5.56854 16.3935 5.56854 16.3735 5.54854C16.3335 5.52854 16.3235 5.49854 16.3235 5.47854C16.3235 5.44854 16.3335 5.41854 16.4235 5.26854C16.6635 4.89854 16.7735 4.71854 16.8735 4.56854C16.8935 4.53854 16.9035 4.52854 16.9135 4.53854C16.9335 4.55854 16.9635 4.56854 16.9835 4.58854C17.0135 4.61854 17.0135 4.67854 16.9735 4.73854C16.9035 4.84854 16.7835 5.01854 16.6635 5.20854C16.7635 5.12854 16.8735 5.04854 17.0535 4.94854L17.0635 4.94854C17.0635 4.94854 17.0635 4.96854 17.0535 4.97854C17.0435 5.00854 17.0335 5.01854 16.9835 5.05854C16.9435 5.08854 16.9035 5.11854 16.8635 5.14854C16.8335 5.21854 16.8235 5.30854 16.8235 5.36854C16.8235 5.38854 16.8235 5.39854 16.8235 5.40854C16.8835 5.38854 16.9535 5.32854 17.0135 5.24854L17.0335 5.23854C17.0335 5.23854 17.0435 5.25854 17.0335 5.26854C16.9535 5.39854 16.8235 5.52854 16.7435 5.52854C16.7035 5.52854 16.6935 5.52854 16.6835 5.51854C16.6335 5.48854 16.6335 5.43854 16.6435 5.33854C16.5935 5.38854 16.5435 5.43854 16.5035 5.49854C16.4735 5.52854 16.4535 5.55854 16.4235 5.55854L16.4335 5.56854ZM16.9935 5.49854C16.9435 5.43854 16.9235 5.34854 17.0335 5.20854C17.1135 5.10854 17.2435 5.02854 17.3335 5.02854C17.3635 5.02854 17.3835 5.02854 17.4035 5.04854C17.4235 5.06854 17.4335 5.06854 17.4535 5.08854C17.4835 5.10854 17.5035 5.14854 17.5035 5.17854C17.5035 5.22854 17.4835 5.26854 17.3835 5.32854C17.3335 5.35854 17.2535 5.39854 17.1535 5.42854C17.1535 5.45854 17.1535 5.47854 17.1535 5.48854C17.1635 5.48854 17.1835 5.49854 17.2035 5.49854C17.3135 5.49854 17.4735 5.40854 17.5735 5.27854L17.5935 5.26854C17.5935 5.26854 17.6035 5.28854 17.5935 5.29854C17.4835 5.46854 17.3035 5.59854 17.1535 5.59854C17.0935 5.59854 17.0535 5.57854 16.9935 5.50854L16.9935 5.49854ZM17.4135 5.12854C17.3335 5.13854 17.2235 5.25854 17.1735 5.35854C17.2435 5.32854 17.2935 5.29854 17.3335 5.26854C17.3835 5.22854 17.4235 5.17854 17.4035 5.12854L17.4135 5.12854ZM17.5835 5.57854C17.5835 5.57854 17.5335 5.56854 17.5135 5.54854C17.4835 5.52854 17.4635 5.49854 17.4635 5.46854C17.4635 5.42854 17.5035 5.35854 17.5635 5.27854C17.6535 5.15854 17.7235 5.06854 17.7435 5.02854C17.7435 5.02854 17.7535 5.01854 17.7635 5.01854C17.7935 5.01854 17.8435 5.03854 17.8835 5.07854C17.9035 5.09854 17.9135 5.11854 17.9035 5.15854C17.9835 5.11854 18.0435 5.08854 18.0735 5.08854C18.0935 5.08854 18.1235 5.09854 18.1435 5.11854C18.1735 5.14854 18.1735 5.17854 18.1535 5.22854C18.1235 5.30854 18.0235 5.42854 18.0035 5.48854C18.0535 5.47854 18.1035 5.44854 18.1535 5.39854L18.1535 5.41854C18.1535 5.41854 18.1535 5.42854 18.1435 5.44854C18.1035 5.49854 18.0235 5.57854 17.9535 5.57854C17.9135 5.57854 17.8735 5.55854 17.8535 5.52854C17.8235 5.48854 17.8035 5.44854 17.8235 5.39854C17.8635 5.31854 17.9335 5.25854 17.9735 5.18854C17.9135 5.22854 17.8335 5.28854 17.7535 5.35854C17.6835 5.46854 17.6335 5.53854 17.5935 5.57854C17.5735 5.59854 17.5635 5.59854 17.5535 5.59854L17.5835 5.57854ZM18.3135 5.63854C18.3135 5.63854 18.3135 5.62854 18.3135 5.60854C18.5235 5.26854 18.8035 4.88854 19.0235 4.64854C19.0735 4.58854 19.1135 4.54854 19.1535 4.54854C19.1635 4.54854 19.2135 4.54854 19.2535 4.55854C19.2835 4.55854 19.3135 4.58854 19.2835 4.64854C19.2235 4.77854 19.1435 4.95854 19.0835 5.12854C19.2635 4.90854 19.4435 4.69854 19.5935 4.56854C19.6235 4.53854 19.6335 4.53854 19.6535 4.54854C19.7035 4.56854 19.7435 4.56854 19.7735 4.58854C19.8235 4.61854 19.8035 4.65854 19.7435 4.73854C19.5835 4.96854 19.3935 5.28854 19.2935 5.48854C19.2835 5.50854 19.2535 5.53854 19.2335 5.54854C19.2135 5.55854 19.1635 5.56854 19.1335 5.57854C19.1135 5.58854 19.1035 5.57854 19.1135 5.56854C19.2035 5.35854 19.3235 5.12854 19.4535 4.88854C19.2435 5.08854 19.0435 5.32854 18.9635 5.44854C18.9435 5.46854 18.9435 5.47854 18.9235 5.47854C18.9035 5.47854 18.8835 5.46854 18.8535 5.44854C18.8135 5.41854 18.7935 5.37854 18.8335 5.28854C18.8735 5.18854 18.9335 5.04854 19.0035 4.87854C18.8235 5.06854 18.6635 5.27854 18.4735 5.52854C18.4435 5.57854 18.4135 5.59854 18.3635 5.61854C18.3335 5.63854 18.3135 5.63854 18.3035 5.63854L18.3135 5.63854ZM19.6035 5.52854C19.6035 5.52854 19.5535 5.49854 19.5435 5.46854C19.5135 5.40854 19.5235 5.32854 19.6035 5.22854C19.6735 5.13854 19.7735 5.07854 19.8735 5.03854C19.9035 5.02854 19.9335 5.02854 19.9635 5.03854C19.9935 5.04854 20.0335 5.07854 20.0635 5.10854C20.0735 5.10854 20.0935 5.10854 20.1035 5.10854C20.1335 5.12854 20.1835 5.16854 20.2035 5.18854C20.2035 5.18854 20.2035 5.20854 20.2035 5.21854C20.1435 5.28854 20.1035 5.37854 20.0735 5.45854C20.1235 5.45854 20.1635 5.43854 20.2235 5.41854C20.2235 5.41854 20.2335 5.41854 20.2335 5.43854C20.2335 5.45854 20.2335 5.45854 20.2235 5.46854C20.1535 5.51854 20.0535 5.56854 19.9735 5.56854C19.9035 5.56854 19.8735 5.51854 19.8935 5.42854C19.8335 5.49854 19.7835 5.53854 19.7435 5.55854C19.7035 5.57854 19.6735 5.57854 19.6235 5.52854L19.6035 5.52854ZM19.9335 5.27854C19.9635 5.22854 19.9935 5.17854 20.0135 5.13854C19.8535 5.18854 19.7035 5.35854 19.7035 5.46854C19.7735 5.43854 19.8535 5.37854 19.9235 5.27854L19.9335 5.27854ZM20.2335 5.60854C20.2335 5.60854 20.2035 5.57854 20.2035 5.55854C20.2035 5.54854 20.2035 5.53854 20.2035 5.52854C20.3535 5.47854 20.4235 5.40854 20.4235 5.36854C20.4235 5.30854 20.3335 5.27854 20.3335 5.19854C20.3335 5.13854 20.3735 5.08854 20.4435 5.04854C20.4835 5.02854 20.5235 5.01854 20.5535 5.01854C20.5935 5.01854 20.6235 5.02854 20.6535 5.07854C20.6835 5.13854 20.6835 5.14854 20.6735 5.15854C20.5735 5.18854 20.4635 5.25854 20.4635 5.30854C20.4635 5.34854 20.5535 5.37854 20.5535 5.46854C20.5535 5.51854 20.5335 5.55854 20.4635 5.60854C20.4335 5.62854 20.3735 5.65854 20.3235 5.65854C20.2835 5.65854 20.2635 5.64854 20.2435 5.61854L20.2335 5.60854ZM20.6735 5.52854C20.6135 5.46854 20.6035 5.40854 20.6935 5.26854C20.7335 5.20854 20.7635 5.15854 20.7935 5.10854C20.7835 5.10854 20.7635 5.10854 20.7535 5.09854C20.7335 5.07854 20.7235 5.04854 20.7235 5.03854C20.7235 5.03854 20.7235 5.03854 20.7535 5.02854C20.7835 5.02854 20.8235 5.01854 20.8635 5.01854C20.9135 4.93854 20.9635 4.86854 21.0235 4.79854C21.0735 4.73854 21.0835 4.72854 21.0935 4.72854C21.1135 4.72854 21.1235 4.74854 21.1435 4.77854C21.2035 4.82854 21.1935 4.86854 21.1035 4.99854C21.1835 4.98854 21.2435 4.97854 21.2835 4.96854C21.3035 4.96854 21.3035 4.96854 21.3035 4.96854C21.3035 4.97854 21.2835 4.99854 21.2735 5.00854C21.2535 5.02854 21.2335 5.03854 21.1635 5.05854L21.0535 5.08854C20.8935 5.32854 20.8335 5.42854 20.8235 5.48854C20.9235 5.48854 21.0235 5.42854 21.0935 5.35854C21.0935 5.34854 21.1035 5.35854 21.1035 5.35854C21.1035 5.35854 21.1035 5.37854 21.0935 5.39854C21.0935 5.41854 21.0735 5.42854 21.0635 5.44854C21.0035 5.51854 20.8935 5.59854 20.7935 5.59854C20.7635 5.59854 20.7235 5.58854 20.6835 5.54854L20.6735 5.52854ZM21.1735 5.49854C21.1235 5.43854 21.1035 5.34854 21.2135 5.20854C21.2935 5.10854 21.4235 5.02854 21.5135 5.02854C21.5435 5.02854 21.5635 5.02854 21.5835 5.04854C21.6035 5.06854 21.6135 5.06854 21.6335 5.08854C21.6635 5.10854 21.6835 5.14854 21.6835 5.17854C21.6835 5.22854 21.6635 5.26854 21.5635 5.32854C21.5135 5.35854 21.4335 5.39854 21.3335 5.42854C21.3335 5.46854 21.3335 5.48854 21.3435 5.49854C21.3435 5.49854 21.3535 5.49854 21.3635 5.49854C21.4035 5.49854 21.5035 5.45854 21.5735 5.40854C21.5835 5.39854 21.5935 5.39854 21.5935 5.40854C21.5935 5.42854 21.5835 5.45854 21.5735 5.47854C21.5235 5.53854 21.4335 5.58854 21.3535 5.58854C21.2935 5.58854 21.2535 5.56854 21.1935 5.49854L21.1735 5.49854ZM21.5935 5.12854C21.5135 5.13854 21.4035 5.25854 21.3535 5.35854C21.4235 5.32854 21.4735 5.29854 21.5135 5.26854C21.5635 5.22854 21.6035 5.17854 21.5835 5.12854L21.5935 5.12854ZM21.6835 5.53854C21.6835 5.53854 21.6335 5.49854 21.6335 5.46854C21.6335 5.41854 21.6635 5.36854 21.7335 5.26854C21.8235 5.14854 21.8835 5.05854 21.9035 5.01854C21.9035 5.01854 21.9135 5.00854 21.9335 5.00854C21.9635 5.00854 21.9935 5.01854 22.0135 5.02854C22.0335 5.03854 22.0435 5.05854 22.0335 5.12854C22.1135 5.05854 22.1835 5.01854 22.2635 4.96854C22.2935 4.95854 22.3035 4.94854 22.3135 4.94854C22.3235 4.94854 22.3335 4.96854 22.3335 4.98854C22.3335 5.00854 22.3235 5.00854 22.3035 5.02854C22.1635 5.12854 22.0235 5.25854 21.8635 5.48854C21.8035 5.57854 21.7935 5.57854 21.7735 5.57854C21.7535 5.57854 21.7235 5.56854 21.6935 5.54854L21.6835 5.53854Z" fill="black"/>
</g>
<defs>
<clipPath id="clip0_3790_7038">
<rect width="5.31" height="22.26" fill="white" transform="translate(22.3335 0.338501) rotate(90)"/>
</clipPath>
</defs>
</svg>
