<svg width="8" height="25" viewBox="0 0 8 25" fill="none" xmlns="http://www.w3.org/2000/svg">
<path d="M1.39304 16.3775C1.31544 16.4028 1.24592 16.4362 1.18445 16.4777C1.12222 16.5184 1.06921 16.5672 1.02542 16.6241C0.981631 16.6802 0.948211 16.7439 0.925163 16.8154C0.902115 16.8868 0.890591 16.9652 0.890591 17.0505C0.890591 17.1903 0.9267 17.3174 0.998917 17.4319C1.07113 17.5464 1.17754 17.6374 1.31813 17.705C1.45873 17.7726 1.6312 17.8064 1.83556 17.8064C2.03992 17.8064 2.2124 17.7723 2.35299 17.7039C2.49359 17.6355 2.59999 17.5429 2.67221 17.4262C2.74443 17.3094 2.78053 17.178 2.78053 17.032C2.78053 16.8968 2.75172 16.7777 2.6941 16.6748C2.63572 16.5711 2.55351 16.4904 2.44749 16.4328C2.3407 16.3744 2.21509 16.3452 2.07065 16.3452L2.08909 16.2576L2.08909 16.9675L1.83556 16.9675L1.83556 16.0686L2.08909 16.0686C2.28346 16.0686 2.45248 16.1101 2.59615 16.1931C2.73982 16.2753 2.85121 16.389 2.93035 16.5342C3.00871 16.6786 3.04789 16.8446 3.04789 17.032C3.04789 17.241 2.99872 17.4246 2.90038 17.5829C2.80205 17.7404 2.66222 17.8633 2.48091 17.9516C2.2996 18.0392 2.08448 18.083 1.83556 18.083C1.64887 18.083 1.48101 18.0581 1.33196 18.0081C1.18215 17.9574 1.05462 17.886 0.949364 17.7938C0.844111 17.7016 0.763442 17.5925 0.707359 17.4665C0.651275 17.3405 0.623233 17.2018 0.623233 17.0505C0.623233 16.926 0.642056 16.81 0.679701 16.7024C0.716578 16.5941 0.769204 16.4977 0.83758 16.4132C0.905188 16.3279 0.98624 16.2568 1.08074 16.2C1.17447 16.1431 1.27857 16.104 1.39304 16.0824L1.39304 16.3775ZM0.6555 15.3907L3.01562 15.3907L3.01562 15.6765L0.6555 15.6765L0.6555 15.3907ZM3.01562 14.915L0.6555 14.915L0.6555 14.1176C0.6555 13.9324 0.68892 13.7811 0.755759 13.6635C0.821831 13.5452 0.911334 13.4576 1.02427 13.4008C1.13721 13.3439 1.2632 13.3155 1.40226 13.3155C1.54132 13.3155 1.6677 13.3439 1.7814 13.4008C1.8951 13.4568 1.98576 13.5437 2.05337 13.6612C2.12021 13.7787 2.15363 13.9293 2.15363 14.1129L2.15363 14.6845L1.9001 14.6845L1.9001 14.1222C1.9001 13.9954 1.8782 13.8936 1.83441 13.8168C1.79062 13.7399 1.73146 13.6842 1.65694 13.6497C1.58165 13.6143 1.49676 13.5967 1.40226 13.5967C1.30776 13.5967 1.22325 13.6143 1.14873 13.6497C1.07421 13.6842 1.01582 13.7403 0.973564 13.8179C0.930541 13.8955 0.909029 13.9985 0.909029 14.1268L0.909029 14.6292L3.01562 14.6292L3.01562 14.915ZM3.01562 12.9524L0.6555 12.9524L0.6555 11.5373L0.909029 11.5373L0.909029 12.6667L1.70649 12.6667L1.70649 11.6433L1.96002 11.6433L1.96002 12.6667L3.01562 12.6667L3.01562 12.9524ZM3.01562 11.1452L0.6555 11.1452L0.6555 9.7208L0.909029 9.7208L0.909029 10.8594L1.70649 10.8594L1.70649 9.79455L1.96002 9.79455L1.96002 10.8594L2.7621 10.8594L2.7621 9.70236L3.01562 9.70236L3.01562 11.1452ZM3.01562 9.30302L0.6555 9.30303L0.6555 9.01723L2.7621 9.01723L2.7621 7.92014L3.01562 7.92014L3.01562 9.30302ZM4.6555 24.6818L7.01562 24.6818L7.01562 24.9676L4.6555 24.9676L4.6555 24.6818ZM4.6555 22.3346L7.01562 22.3346L7.01562 22.6112L5.16256 23.8972L5.16256 23.9203L7.01562 23.9203L7.01562 24.2061L4.6555 24.2061L4.6555 23.9295L6.51318 22.6388L6.51318 22.6158L4.6555 22.6158L4.6555 22.3346ZM4.90903 21.9891L4.6555 21.9891L4.6555 20.219L4.90903 20.219L4.90903 20.9612L7.01562 20.9612L7.01562 21.247L4.90903 21.247L4.90903 21.9891ZM7.01562 19.8753L4.6555 19.8753L4.6555 18.4509L4.90903 18.4509L4.90903 19.5895L5.70649 19.5895L5.70649 18.5247L5.96002 18.5247L5.96002 19.5895L6.7621 19.5895L6.7621 18.4325L7.01562 18.4325L7.01562 19.8753ZM7.01562 18.0332L4.6555 18.0332L4.6555 17.2357C4.6555 17.0513 4.687 16.9 4.75 16.7817C4.81223 16.6633 4.89789 16.5758 5.00698 16.5189C5.11608 16.4621 5.24015 16.4336 5.37921 16.4336C5.51827 16.4336 5.64157 16.4621 5.74913 16.5189C5.85669 16.5758 5.9412 16.663 6.00266 16.7805C6.06335 16.898 6.0937 17.0482 6.0937 17.2311L6.0937 17.8764L5.83556 17.8764L5.83556 17.2403C5.83556 17.1143 5.81712 17.0129 5.78025 16.9361C5.74337 16.8585 5.69113 16.8024 5.62352 16.7678C5.55514 16.7325 5.47371 16.7148 5.37921 16.7148C5.28471 16.7148 5.20212 16.7325 5.13144 16.7678C5.06076 16.8032 5.00622 16.8596 4.9678 16.9372C4.92862 17.0148 4.90903 17.1174 4.90903 17.2449L4.90903 17.7474L7.01562 17.7474L7.01562 18.0332ZM5.95541 16.9223L7.01562 16.3414L7.01562 16.6733L5.95541 17.2449L5.95541 16.9223ZM4.6555 14.1833L7.01562 14.1832L7.01562 14.4598L5.16256 15.7459L5.16256 15.769L7.01562 15.769L7.01562 16.0548L4.6555 16.0548L4.6555 15.7782L6.51318 14.4875L6.51318 14.4644L4.6555 14.4644L4.6555 14.1833ZM7.01562 13.6119L7.01562 13.9115L4.6555 13.0449L4.6555 12.7499L7.01562 11.8833L7.01562 12.1829L5.02888 12.8882L5.02888 12.9067L7.01562 13.6119ZM6.0937 13.5013L6.0937 12.2936L6.34723 12.2936L6.34723 13.5013L6.0937 13.5013ZM4.90903 12.0178L4.6555 12.0178L4.6555 10.2477L4.90903 10.2477L4.90903 10.9899L7.01562 10.9899L7.01562 11.2757L4.90903 11.2757L4.90903 12.0178ZM4.6555 9.61822L7.01562 9.61822L7.01562 9.90402L4.6555 9.90402L4.6555 9.61822ZM5.83556 7.15119C6.08448 7.15119 6.2996 7.19613 6.48091 7.28602C6.66222 7.3759 6.80205 7.49921 6.90038 7.65594C6.99872 7.81267 7.04789 7.99167 7.04789 8.19296C7.04789 8.39425 6.99872 8.57325 6.90038 8.72998C6.80205 8.88671 6.66222 9.01001 6.48091 9.0999C6.2996 9.18979 6.08448 9.23473 5.83556 9.23473C5.58664 9.23473 5.37153 9.18979 5.19022 9.0999C5.0089 9.01001 4.86908 8.88671 4.77074 8.72998C4.6724 8.57325 4.62323 8.39425 4.62323 8.19296C4.62323 7.99167 4.6724 7.81267 4.77074 7.65594C4.86908 7.49921 5.0089 7.3759 5.19022 7.28602C5.37153 7.19613 5.58664 7.15119 5.83556 7.15119ZM5.83556 7.42776C5.6312 7.42776 5.45873 7.46195 5.31813 7.53033C5.17754 7.59793 5.07113 7.68974 4.99892 7.80575C4.9267 7.92099 4.89059 8.05006 4.89059 8.19296C4.89059 8.33586 4.9267 8.46531 4.99892 8.58132C5.07113 8.69656 5.17754 8.78837 5.31813 8.85674C5.45873 8.92435 5.6312 8.95816 5.83556 8.95816C6.03992 8.95816 6.2124 8.92435 6.35299 8.85674C6.49359 8.78837 6.59999 8.69656 6.67221 8.58132C6.74443 8.46531 6.78053 8.33586 6.78053 8.19296C6.78053 8.05006 6.74443 7.92099 6.67221 7.80575C6.59999 7.68974 6.49359 7.59793 6.35299 7.53033C6.2124 7.46195 6.03992 7.42776 5.83556 7.42776ZM4.6555 4.89648L7.01562 4.89648L7.01562 5.17306L5.16256 6.45914L5.16256 6.48219L7.01562 6.48219L7.01562 6.76799L4.6555 6.76799L4.6555 6.49141L6.51318 5.20072L6.51318 5.17767L4.6555 5.17767L4.6555 4.89648ZM7.01562 4.32516L7.01562 4.62478L4.6555 3.75817L4.6555 3.46316L7.01562 2.59655L7.01562 2.89618L5.02888 3.60145L5.02888 3.61989L7.01562 4.32516ZM6.0937 4.21453L6.0937 3.00681L6.34723 3.00681L6.34723 4.21453L6.0937 4.21453ZM7.01562 2.32629L4.6555 2.32629L4.6555 2.04049L6.7621 2.04049L6.76209 0.943403L7.01562 0.943403L7.01562 2.32629Z" fill="black"/>
</svg>
