<svg width="36" height="24" viewBox="0 0 36 24" fill="none" xmlns="http://www.w3.org/2000/svg">
<g clip-path="url(#clip0_3790_6286)">
<path d="M22.6279 11.3615C22.6101 11.1715 22.4495 11.0349 22.2591 11.0349H12.9498C12.7476 11.0349 12.581 11.2012 12.581 11.4091V14.5865C12.581 14.7884 12.7476 14.9547 12.9498 14.9547H17.9703C17.9703 17.0809 15.0377 19.5991 12.01 19.5991C7.74492 19.5991 4.28293 16.0713 4.40784 11.7832C4.52086 7.81588 7.82225 4.53155 11.7958 4.4187C14.1811 4.35337 16.388 5.4046 17.8811 7.29918C18.006 7.4536 18.2261 7.49517 18.3867 7.37639L21.2895 5.31551C21.4561 5.19673 21.4977 4.95322 21.3728 4.79287C18.809 1.43132 14.9247 -0.403866 10.6597 0.0772028C5.1395 0.694872 0.67222 5.14328 0.071427 10.6607C-0.713768 17.8768 4.94915 24 12.0159 24C14.8652 24 17.3457 23.0022 19.2016 21.3155C20.3616 20.0802 21.2895 18.6667 22.0034 17.069C22.8599 14.729 22.7172 12.2346 22.6279 11.3615Z" fill="#000002"/>
<path d="M35.7385 0.391983H31.8363C31.6935 0.391983 31.5805 0.504826 31.5805 0.647365V15.418C31.5805 18.4172 29.6175 19.4803 27.7854 19.4803C26.7444 19.4803 25.7391 19.029 25.0431 18.3281C24.9301 18.2153 24.7457 18.2153 24.6327 18.3281L21.9202 21.0364C21.8072 21.1492 21.8072 21.3393 21.9202 21.4521C23.4252 22.9547 25.5369 23.8872 27.7854 23.8872C31.866 23.8872 35.9942 21.3274 35.9942 15.418V0.653304C35.9942 0.510766 35.8812 0.397922 35.7385 0.397922V0.391983Z" fill="#000002"/>
</g>
<defs>
<clipPath id="clip0_3790_6286">
<rect width="36" height="24" fill="white"/>
</clipPath>
</defs>
</svg>
