<?xml version="1.0" encoding="UTF-8"?>
<!DOCTYPE svg PUBLIC "-//W3C//DTD SVG 1.1//EN" "http://www.w3.org/Graphics/SVG/1.1/DTD/svg11.dtd">
<!-- Creator: CorelDRAW X6 -->
<svg xmlns="http://www.w3.org/2000/svg" xml:space="preserve" width="1080px" height="1080px" version="1.1"
    style="shape-rendering:geometricPrecision; text-rendering:geometricPrecision; image-rendering:optimizeQuality; fill-rule:evenodd; clip-rule:evenodd"
    viewBox="0 0 1096 1096" xmlns:xlink="http://www.w3.org/1999/xlink">
    <defs>
        <style type="text/css">
            <![CDATA[
            .fil0 {
                fill: none
            }

            .fil1 {
                fill: black;
                fill-rule: nonzero
            }
            ]]>
        </style>
    </defs>
    <g id="Слой_x0020_1">
        <metadata id="CorelCorpID_0Corel-Layer" />
        <rect class="fil0" width="1096" height="1096" rx="2" ry="2" />
        <g id="_714844480">
            <path class="fil1"
                d="M1008 495l-3 0 0 -4 3 0c1,0 1,0 2,0 0,0 1,1 1,1 0,0 0,1 0,1 0,0 0,1 -1,1 0,0 -1,0 -2,0zm2 2c0,0 -1,0 -1,0l0 0c1,0 2,0 3,-1 1,-1 1,-2 1,-2 0,-1 0,-1 0,-2 0,-1 -1,-1 -2,-1 -1,0 -1,0 -2,0l-5 0 0 13 2 0 0 -5 1 0c0,0 1,0 1,0 0,0 0,0 1,0 0,0 0,0 1,1 0,0 1,1 1,2l1 2 2 0 -2 -3c0,-1 -1,-1 -1,-2z" />
            <path class="fil1"
                d="M1008 505c-5,0 -10,-4 -10,-10 0,-5 4,-10 10,-10 5,0 10,4 10,10 0,5 -4,10 -10,10zm0 -22c-6,0 -12,5 -12,12 0,6 5,12 12,12 6,0 12,-5 12,-12 0,-6 -5,-12 -12,-12z" />
            <path class="fil1"
                d="M502 486c0,1 0,2 0,4l0 96 -88 -100 0 123c0,1 0,1 0,1l-1 2 10 0 -1 -2c0,0 0,-1 0,-1l0 -95 88 99 0 -123c0,-1 0,-3 0,-4l1 -2 -10 0 0 2z" />
            <path class="fil1"
                d="M543 612l12 0 0 -78 58 0c1,0 5,0 7,0l2 0 0 -8 -2 0c-2,0 -4,0 -6,0l-59 0 0 -35c16,0 58,0 64,1l2 0 0 -9 -78 0 0 127z" />
            <path class="fil1"
                d="M258 606c-9,0 -18,0 -22,0l0 -122 -13 0 0 130 65 0c3,0 5,0 7,0l2 0 0 -8 -2 0c-4,0 -22,0 -37,0z" />
            <path class="fil1"
                d="M838 604c-9,0 -17,0 -22,0l0 -122 -13 0 0 130 64 0c3,0 5,0 7,0l2 0 0 -8 -2 0c-4,0 -22,0 -37,0z" />
            <path class="fil1"
                d="M316 612l2 0c0,0 32,0 54,0 16,0 20,0 21,0l2 0 0 -8 -6 0 0 0c-6,1 -37,1 -53,1 -3,0 -6,0 -8,0l0 -67 62 0c1,0 1,0 2,0l2 0 0 -7 -2 0c-1,0 -2,0 -2,0l-62 0 0 -38c2,0 4,0 6,0 17,0 52,0 58,2l2 0 0 -9 -78 0 0 127z" />
            <path class="fil1"
                d="M693 612l2 0c0,0 32,0 54,0 16,0 20,0 21,0l2 0 0 -8 -6 0 0 0c-6,1 -37,1 -53,1 -3,0 -6,0 -8,0l0 -69 63 0c1,0 1,0 2,0l2 0 0 -7 -67 0 0 -37c2,0 4,0 6,0 17,0 52,0 58,2l2 0 0 -9 -78 0 0 127z" />
            <path class="fil1"
                d="M929 604l-21 0 0 -112 14 0c52,0 66,34 66,54 0,36 -22,58 -58,58zm0 -119l-32 0 0 127 31 0c54,0 73,-34 73,-66 0,-29 -23,-61 -73,-61z" />
            <polygon class="fil1" points="644,612 655,612 655,485 644,485 " />
            <path class="fil1"
                d="M180 556c0,1 0,2 0,4l0 24c0,4 0,8 -3,11 -2,3 -11,12 -30,12 -15,0 -31,-7 -42,-18 -8,-8 -17,-22 -16,-43 1,-22 27,-54 68,-54 6,0 13,1 19,3l2 1 0 -9 -3 -1c-4,-1 -10,-2 -21,-2 -17,0 -37,6 -51,17 -17,12 -27,29 -27,47 0,18 6,34 17,46 13,13 31,20 54,20 19,0 31,-8 39,-14l6 0 0 -11c0,-1 0,-1 0,-2l0 -32 -13 0 0 2z" />
        </g>
    </g>
</svg>