<svg width="15" height="43" viewBox="0 0 15 43" fill="none" xmlns="http://www.w3.org/2000/svg">
<g clip-path="url(#clip0_3790_7178)">
<path fill-rule="evenodd" clip-rule="evenodd" d="M12.53 32.51C12.53 32.51 12.51 32.4 12.43 32.46C12.36 32.52 12.24 32.64 12.24 32.64L12.36 32.76C12.36 32.76 12.48 32.64 12.52 32.51" fill="white"/>
<path d="M12.1766 32.6868L12.1265 32.7197L12.1758 32.795L12.226 32.7621L12.1766 32.6868Z" fill="white"/>
<path d="M12.0214 32.7587L11.9661 32.7819L12.0009 32.8649L12.0562 32.8417L12.0214 32.7587Z" fill="white"/>
<path d="M11.8793 32.8274L11.824 32.8506L11.8588 32.9336L11.9141 32.9104L11.8793 32.8274Z" fill="white"/>
<path d="M11.6967 32.9038L11.6414 32.927L11.6761 33.01L11.7315 32.9869L11.6967 32.9038Z" fill="white"/>
<path fill-rule="evenodd" clip-rule="evenodd" d="M11.9 29.7C11.9 29.7 11.81 29.64 11.8 29.73C11.8 29.82 11.8 29.99 11.8 29.99H11.97C11.97 29.99 11.97 29.81 11.9 29.69" fill="white"/>
<path d="M11.7866 30.0743L11.7751 30.1332L11.8635 30.1503L11.8749 30.0914L11.7866 30.0743Z" fill="white"/>
<path d="M11.7277 30.2287L11.7058 30.2845L11.7896 30.3174L11.8115 30.2615L11.7277 30.2287Z" fill="white"/>
<path d="M11.6791 30.3857L11.6572 30.4415L11.741 30.4744L11.7629 30.4185L11.6791 30.3857Z" fill="white"/>
<path d="M11.5974 30.5617L11.5754 30.6176L11.6592 30.6504L11.6811 30.5946L11.5974 30.5617Z" fill="white"/>
<path fill-rule="evenodd" clip-rule="evenodd" d="M5.38989 40.08L9.22989 36.74L9.25989 36.78C9.06989 36.9 6.36989 38.34 6.25989 38.4L6.23989 38.35C6.23989 38.35 9.04989 36.85 9.23989 36.73L9.26989 36.77L5.42989 40.11L5.39989 40.07L5.38989 40.08Z" fill="black"/>
<path d="M9.22108 36.7524L6.79883 40.2324L6.83987 40.261L9.26212 36.781L9.22108 36.7524Z" fill="black"/>
<path fill-rule="evenodd" clip-rule="evenodd" d="M6.43 38.19C6.22 37.67 5.47 37.48 4.74 37.77C4.02 38.06 3.6 38.72 3.81 39.24C4.02 39.76 4.77 39.95 5.5 39.66C6.22 39.37 6.64 38.71 6.43 38.19ZM3.93 39.12C3.8 38.8 4 38.41 4.38 38.17C4.13 38.42 4.03 38.74 4.14 39.01C4.27 39.34 4.66 39.5 5.11 39.45C4.6 39.63 4.08 39.49 3.94 39.12H3.93Z" fill="black"/>
<path fill-rule="evenodd" clip-rule="evenodd" d="M6.85998 40.13C6.40998 39.86 5.73998 40.13 5.35998 40.76C4.97998 41.38 5.02998 42.11 5.47998 42.38C5.92998 42.65 6.59998 42.38 6.97998 41.75C7.35998 41.12 7.30998 40.4 6.85998 40.13ZM5.50998 42.22C5.23998 42.05 5.15998 41.65 5.30998 41.26C5.26998 41.59 5.36998 41.88 5.59998 42.03C5.87998 42.2 6.26998 42.1 6.56998 41.82C6.28998 42.24 5.81998 42.42 5.50998 42.23V42.22Z" fill="black"/>
<path fill-rule="evenodd" clip-rule="evenodd" d="M5.49012 39.98C5.16012 39.65 4.53012 39.75 4.07012 40.2C3.61012 40.65 3.51012 41.29 3.83012 41.62C4.16012 41.95 4.79012 41.85 5.25012 41.4C5.71012 40.95 5.81012 40.31 5.49012 39.98ZM3.89012 41.49C3.69012 41.29 3.71012 40.93 3.93012 40.62C3.82012 40.89 3.85012 41.17 4.02012 41.34C4.22012 41.55 4.58012 41.54 4.89012 41.36C4.56012 41.66 4.12012 41.72 3.89012 41.49Z" fill="black"/>
<path d="M14.31 0H14.03V41.39H14.31V0Z" fill="black"/>
<path fill-rule="evenodd" clip-rule="evenodd" d="M12.0999 16.09V14.38C13.5399 15.01 14.2599 16.06 14.2599 17.54C14.2599 18.56 13.9499 19.38 13.3199 19.99C12.6899 20.61 11.9099 20.92 10.9799 20.92C10.2899 20.92 9.66994 20.73 9.11994 20.36C8.56994 19.99 8.16994 19.48 7.91994 18.84C7.75994 18.43 7.68994 18.01 7.68994 17.57C7.68994 16.57 8.02994 15.76 8.69994 15.12C9.35994 14.51 10.1699 14.21 11.1399 14.21H11.4899V19.29C12.4399 19.12 12.9099 18.53 12.9099 17.53C12.9099 17.13 12.8599 16.84 12.7699 16.64C12.6499 16.4 12.4299 16.22 12.0999 16.09ZM9.03994 17.54C9.03994 18.44 9.45994 19.01 10.3099 19.26V15.86C9.45994 16.07 9.03994 16.63 9.03994 17.54Z" fill="black"/>
<path fill-rule="evenodd" clip-rule="evenodd" d="M7.87988 4.70005L10.8799 7.06005L14.0799 4.68005V6.59005L11.0399 8.68005H14.0799V10.2301H11.0399L14.0799 12.3101V14.2301L10.8799 11.8501L7.87988 14.2001V12.4101L10.8199 10.2301H7.87988V8.68005H10.8299L7.87988 6.48005V4.70005Z" fill="black"/>
<path d="M7.38006 18.37H6.31006V19.4H7.38006V18.37Z" fill="black"/>
<path d="M7.38006 18.37H6.31006V19.4H7.38006V18.37Z" stroke="black" stroke-width="0.57" stroke-miterlimit="22.93"/>
<path d="M7.38006 15.74H6.31006V16.77H7.38006V15.74Z" fill="black"/>
<path d="M7.38006 15.74H6.31006V16.77H7.38006V15.74Z" stroke="black" stroke-width="0.57" stroke-miterlimit="22.93"/>
<path fill-rule="evenodd" clip-rule="evenodd" d="M3.36011 32.59C3.36011 32.59 2.87011 33.65 2.76011 33.92C2.65011 34.19 2.63011 35.17 3.26011 35.19C3.89011 35.2 4.21011 35.11 4.28011 34.97C4.36011 34.83 4.36011 34.78 4.36011 34.78C4.36011 34.78 4.65011 34.98 5.25011 35.04C5.85011 35.1 6.92011 35.13 7.15011 35.03C7.38011 34.93 7.74011 34.67 7.74011 34.67C7.74011 34.67 8.06011 34.71 8.19011 34.57C8.32011 34.43 8.42011 34.17 8.42011 34.03C8.42011 33.89 8.39011 33.68 8.39011 33.68L8.97011 32.72L10.4901 33.65L10.7701 33.8C10.7701 33.8 11.0101 33.81 11.1901 33.63C11.3701 33.45 11.5001 33.11 11.5001 33.11L9.66011 31.88H11.8301C11.8301 31.88 11.8901 31.62 11.7101 31.29C11.5301 30.96 11.4201 30.84 11.4201 30.84C11.4201 30.84 9.26011 30.8 8.81011 30.81C8.36011 30.82 8.23011 30.93 7.94011 31.32C7.65011 31.72 7.39011 32.34 7.39011 32.34L6.85011 32.48L6.01011 32.51C6.01011 32.51 6.10011 32.47 6.18011 32.13C6.26011 31.78 6.21011 30.37 6.21011 30.37V30.18C6.21011 30.18 6.31011 30.09 6.33011 29.85C6.34011 29.61 5.97011 29.43 5.75011 29.5C5.53011 29.58 5.47011 30.06 5.39011 30.57C5.31011 31.08 5.17011 32.05 5.17011 32.05C5.17011 32.05 4.66011 32.36 4.25011 32.45C3.84011 32.54 3.36011 32.58 3.36011 32.58" fill="black"/>
<path fill-rule="evenodd" clip-rule="evenodd" d="M11.4 32.95C11.4 32.95 11.57 32.97 11.82 32.85C12.06 32.73 12.25 32.64 12.25 32.64L12.37 32.76C12.37 32.76 12.2 33.05 11.78 33.46C11.35 33.86 11.05 34.13 11.05 34.13C11.05 34.13 10.94 34.11 10.87 34.03C10.8 33.96 10.73 33.79 10.73 33.79C10.73 33.79 10.93 33.75 11.22 33.48C11.42 33.29 11.41 32.94 11.41 32.94" fill="black"/>
<path fill-rule="evenodd" clip-rule="evenodd" d="M12.5101 32.4301L12.6901 32.5701C12.6901 32.5701 12.8301 32.7301 12.3201 33.2701C11.8201 33.8001 11.1901 34.3201 11.1901 34.3201C11.1901 34.3201 10.9801 34.1801 11.0401 34.1301C11.1101 34.0801 11.4901 33.7101 11.8501 33.3801C12.2001 33.0501 12.3901 32.7901 12.4601 32.6701C12.5301 32.5501 12.5101 32.4401 12.5101 32.4401" fill="black"/>
<path fill-rule="evenodd" clip-rule="evenodd" d="M10.6299 38.14H10.7199L10.8099 37.9C10.8099 37.9 10.7299 37.87 10.6099 37.75C10.5299 37.67 10.4499 37.56 10.3999 37.49C10.7699 37.75 11.2299 37.9 11.7099 37.9C12.9999 37.9 14.0399 36.86 14.0399 35.57C14.0399 34.55 13.3799 33.68 12.4699 33.37L12.5899 32.31C12.6599 32.21 12.6999 32.08 12.6999 31.94C12.6999 31.66 12.5199 31.42 12.2799 31.33L12.2999 31.04C12.2999 31.04 12.4299 30.95 12.4199 30.89C12.4199 30.82 12.3399 30.82 12.3499 30.76C12.3499 30.7 12.4499 30.69 12.4499 30.61C12.4499 30.53 12.2999 30.47 12.2999 30.47L12.2199 29.85C12.3499 29.85 12.4299 29.85 12.4299 29.85L12.3399 29.59C12.3399 29.59 12.0999 29.65 11.7499 29.56C13.0099 29.53 14.0199 28.5 14.0199 27.23C14.0199 25.94 12.9699 24.89 11.6799 24.89C10.4899 24.89 9.50994 25.78 9.35994 26.92L9.22994 26.85C9.22994 26.85 9.19994 27.17 9.25994 27.59C9.30994 28.01 9.41994 28.3 9.41994 28.3C9.41994 28.3 9.39994 28.3 9.35994 28.32C9.32994 28.29 9.28994 28.26 9.21994 28.21C9.09994 28.12 8.94994 28.03 8.85994 27.97C8.86994 27.91 8.87994 27.87 8.87994 27.85C8.87994 27.76 8.73994 27.68 8.52994 27.68C8.31994 27.68 8.20994 27.79 8.20994 27.79C8.13994 27.89 8.34994 28.35 8.50994 28.47C8.40994 28.45 8.25994 28.41 8.09994 28.37L7.92994 28.32C7.70994 28.26 7.53994 28.21 7.21994 28.19C6.80994 28.16 6.37994 28.32 6.17994 28.57C5.97994 28.81 5.72994 29.45 5.94994 29.88C6.15994 30.3 6.40994 30.31 6.41994 30.31V30.26C6.41994 30.26 6.18994 30.24 5.98994 29.86C5.78994 29.45 6.02994 28.84 6.21994 28.61C6.41994 28.37 6.82994 28.22 7.21994 28.24C7.53994 28.26 7.70994 28.31 7.91994 28.37L8.01994 28.4C7.76994 28.35 7.50994 28.31 7.37994 28.31C7.09994 28.31 6.84994 28.33 6.51994 28.63C6.36994 28.77 6.29994 28.98 6.26994 29.19C6.04994 29.37 5.92994 29.53 5.92994 29.53L6.06994 29.58C6.06994 29.58 6.15994 29.5 6.25994 29.41C6.25994 29.6 6.26994 29.75 6.27994 29.76H6.32994C6.32994 29.76 6.30994 29.58 6.31994 29.36C6.36994 29.32 6.42994 29.28 6.47994 29.26C6.63994 29.18 7.15994 28.8 7.27994 28.84C7.39994 28.88 7.57994 29.21 7.65994 29.21C7.73994 29.21 7.91994 29.12 7.97994 29.08C8.04994 29.05 8.26994 29.06 8.26994 29.06L8.46994 31.01L8.95994 31.09L9.09994 30.79L9.07994 29.16C9.07994 29.16 9.45994 29.45 10.1699 30C10.8799 30.55 11.3799 31.01 11.3799 31.01H11.4699C11.4699 31.01 11.7299 30.97 11.5899 30.81C11.4499 30.65 10.8499 30.14 10.4099 29.8C9.96994 29.47 9.04994 28.73 9.04994 28.73L9.56994 28.55H9.58994C9.67994 28.71 9.95994 29.13 10.5999 29.45C11.0699 29.69 11.6199 29.78 11.9799 29.81L12.0499 29.92L12.0999 31.1L12.2099 31.3C12.1499 31.28 12.0799 31.27 12.0099 31.27C11.6799 31.27 11.4099 31.51 11.3599 31.83L11.2199 31.86C11.2199 31.86 11.1999 31.99 11.1899 32.19L9.38994 32.98C9.27994 32.8 9.20994 32.66 9.20994 32.66L8.94994 32.69C8.94994 32.69 9.04994 32.86 9.18994 33.08L8.52994 33.37L8.17994 33.4L8.31994 33.72L9.30994 33.29C9.34994 33.35 9.38994 33.42 9.42994 33.48C9.34994 33.67 9.00994 34.51 8.95994 34.69C8.89994 34.9 8.82994 36.28 8.85994 36.52C8.86994 36.64 8.91994 36.74 8.97994 36.82C8.97994 36.87 8.97994 36.91 8.97994 36.92C8.99994 37.05 9.12994 37.15 9.27994 37.16C9.37994 37.16 9.49994 37.11 9.55994 37.07C9.62994 37.17 9.71994 37.27 9.81994 37.37C10.2799 37.8 10.4799 37.88 10.5099 37.96C10.5399 38.04 10.5999 38.16 10.5999 38.16M11.1299 29.17C11.1299 29.17 11.1299 29.11 11.1399 29.07C11.2199 29.09 11.2999 29.11 11.3799 29.12V29.22C11.2999 29.21 11.2099 29.19 11.1299 29.17ZM13.1199 28.38C13.0699 28.45 13.0099 28.51 12.9399 28.57L12.5199 27.9L12.6999 27.96L13.1199 28.37V28.38ZM12.8199 28.01L13.2599 28.17C13.2299 28.23 13.1899 28.28 13.1499 28.34L12.8199 28.01ZM12.9099 28.61C12.8299 28.68 12.7499 28.74 12.6599 28.8L11.9799 28.07L11.9399 27.7L12.4499 27.88L12.9099 28.61ZM10.5299 27.65H10.6499L10.3099 27.97C10.1899 28.02 10.0899 28.05 10.0099 28.08C9.97994 28.03 9.95994 27.98 9.93994 27.93L10.5299 27.65ZM9.91994 27.89C9.88994 27.81 9.85994 27.73 9.84994 27.65H10.4199L9.92994 27.89H9.91994ZM11.3499 28.15L11.3799 29.07C11.2999 29.06 11.2199 29.04 11.1499 29.02C11.1699 28.84 11.2099 28.56 11.2399 28.31L11.3499 28.15ZM11.2499 28.2C11.2499 28.14 11.2699 28.08 11.2699 28.02L11.3399 27.95V28.07L11.2499 28.2ZM11.0999 29.01C10.9999 28.98 10.9099 28.94 10.8199 28.89L11.1799 28.39L11.0999 29V29.01ZM10.7699 28.87C10.6999 28.83 10.6399 28.79 10.5799 28.75L11.2199 28.09L11.1899 28.29L10.7699 28.87ZM10.5299 28.72C10.4599 28.67 10.3899 28.61 10.3299 28.54L10.7599 28.03C10.9399 27.94 11.1199 27.84 11.2599 27.76L11.2299 28.01L10.5399 28.72H10.5299ZM10.7199 27.67H10.9999C10.8999 27.73 10.7799 27.79 10.6299 27.86C10.5599 27.89 10.4999 27.92 10.4399 27.94L10.7199 27.67ZM11.3399 27.71V27.89L11.2899 27.95C11.2999 27.86 11.3099 27.79 11.3199 27.73C11.3199 27.73 11.3399 27.72 11.3499 27.71H11.3399ZM11.5799 27.71V27.73H11.5899L11.3999 28V27.9L11.5799 27.71ZM11.7099 27.69C11.7099 27.69 11.7499 27.69 11.7599 27.69V27.85L11.7099 27.76V27.7V27.69ZM11.8699 27.67H11.8999L11.9299 28.01L11.8599 27.94V27.68L11.8699 27.67ZM11.7399 28.83L11.7199 27.87L11.7599 27.95L11.7399 28.83ZM11.8599 28.01L11.9399 28.09V28.2L11.8599 28.03V28.01ZM12.0299 27.68L12.3499 27.72L12.4099 27.82L12.0299 27.68ZM12.4099 27.72H12.4499L12.6199 27.89L12.4899 27.84L12.4099 27.72ZM12.6199 28.83C12.5299 28.88 12.4399 28.93 12.3499 28.96L12.0099 28.32L11.9899 28.15L12.6099 28.83H12.6199ZM12.2999 28.98C12.2299 29.01 12.1599 29.03 12.0799 29.04L12.0199 28.45L12.2999 28.98ZM12.0299 29.05C11.9599 29.06 11.8899 29.07 11.8199 29.08L11.8499 28.13L11.9599 28.33L12.0299 29.05ZM11.6199 29.09C11.5599 29.09 11.4999 29.09 11.4399 29.08L11.4099 28.08L11.5999 27.81L11.6199 29.09ZM10.7299 29.01L10.7899 28.93C10.8899 28.98 10.9899 29.02 11.0999 29.06V29.16C10.9599 29.12 10.8399 29.07 10.7299 29.02V29.01ZM10.4699 28.85L10.5399 28.78C10.5999 28.83 10.6699 28.87 10.7399 28.91L10.6799 28.99C10.6099 28.95 10.5399 28.9 10.4699 28.85ZM10.2399 28.65L10.3099 28.57C10.3699 28.63 10.4399 28.69 10.5099 28.74L10.4399 28.81C10.3699 28.76 10.3099 28.7 10.2499 28.64L10.2399 28.65ZM10.0099 28.37C10.0099 28.37 10.0699 28.34 10.1099 28.33C10.1599 28.4 10.2199 28.47 10.2799 28.53L10.2099 28.61C10.1399 28.53 10.0699 28.45 10.0099 28.37ZM7.36994 28.35C7.64994 28.35 8.61994 28.57 8.62994 28.57H8.64994C8.38994 28.67 8.14994 28.75 8.11994 28.76C8.04994 28.76 7.99994 28.87 7.84994 28.95C7.69994 29.03 7.65994 28.95 7.52994 28.83C7.51994 28.82 7.50994 28.81 7.49994 28.8C7.51994 28.78 7.52994 28.75 7.52994 28.72C7.52994 28.64 7.46994 28.58 7.38994 28.58C7.31994 28.58 7.25994 28.63 7.24994 28.7C7.21994 28.7 7.20994 28.7 7.20994 28.7C7.20994 28.7 7.11994 28.72 6.65994 28.96C6.53994 29.02 6.43994 29.09 6.34994 29.15C6.37994 28.97 6.43994 28.78 6.56994 28.67C6.88994 28.38 7.12994 28.36 7.39994 28.36L7.36994 28.35ZM9.31994 28.32C9.19994 28.37 8.96994 28.45 8.73994 28.54L8.65994 28.5C8.65994 28.5 8.63994 28.5 8.61994 28.49C8.69994 28.45 8.76994 28.28 8.81994 28.12C8.86994 28.13 8.92994 28.15 9.01994 28.18C9.13994 28.22 9.24994 28.29 9.32994 28.33L9.31994 28.32ZM10.6499 28.07L10.2999 28.49C10.2499 28.43 10.1899 28.37 10.1499 28.3C10.2899 28.24 10.4699 28.15 10.6499 28.07ZM9.88994 27.95C9.88994 27.95 9.92994 28.05 9.95994 28.09C9.91994 28.1 9.88994 28.11 9.85994 28.12C9.83994 28.08 9.81994 28.03 9.79994 27.99L9.88994 27.95ZM9.68994 27.64H9.78994C9.80994 27.73 9.83994 27.82 9.86994 27.9L9.77994 27.94C9.73994 27.84 9.70994 27.74 9.68994 27.63V27.64ZM11.4499 27.62C11.4499 27.62 11.5099 27.65 11.5499 27.66L11.3999 27.81V27.65C11.3999 27.65 11.4299 27.63 11.4499 27.62ZM12.3799 27.64L12.3599 27.61L12.3899 27.64H12.3799ZM11.9499 27.59C11.9499 27.59 12.0299 27.52 12.0599 27.48L12.1799 27.43L12.1999 27.45L12.3099 27.63L11.9399 27.59H11.9499ZM11.1799 27.53C11.1799 27.53 11.1599 27.54 11.1499 27.55L11.2199 27.47L11.1799 27.53ZM10.6499 27.58L10.7799 27.52L10.7099 27.58H10.6499ZM9.75994 27.34C9.75994 27.42 9.77994 27.5 9.78994 27.58H9.68994C9.67994 27.51 9.66994 27.44 9.65994 27.37C9.69994 27.36 9.73994 27.35 9.75994 27.34ZM10.9699 27.34L10.8999 27.41L10.5299 27.59H9.84994C9.82994 27.51 9.81994 27.43 9.81994 27.35H10.9799L10.9699 27.34ZM11.2299 27.34C11.2299 27.34 11.2299 27.36 11.2399 27.37L11.0599 27.59H10.7899L10.9299 27.45L11.1599 27.34H11.2299ZM12.1299 27.37L12.1499 27.39H12.1099C12.1099 27.39 12.1199 27.39 12.1299 27.37ZM12.1899 27.32L12.4199 27.17L12.5799 27.22L12.2299 27.36L12.1999 27.31L12.1899 27.32ZM11.0899 27.23H11.0799L11.0599 27.26H11.0399L10.7699 27.11L10.9999 27.06L11.2099 27.22L11.1399 27.24H11.1099L11.0999 27.23H11.0899ZM12.1399 26.62L11.8799 26.72V26.7L12.1699 26.51L12.1299 26.62H12.1399ZM12.2399 26.46L12.4899 26.3L12.3699 26.52L12.1999 26.59L12.2399 26.46ZM12.1199 26.68L12.0499 26.9C12.0099 26.85 11.9499 26.8 11.8899 26.77L12.1199 26.68ZM11.8299 26.74H11.8199C11.8199 26.74 11.8199 26.74 11.8099 26.74H11.8299ZM11.4299 26.8C11.4299 26.8 11.3599 26.85 11.3299 26.89L11.2799 26.72L11.4299 26.81V26.8ZM11.2899 26.94C11.2699 26.94 11.2499 26.94 11.2299 26.95L11.0899 26.59L11.2299 26.67L11.2999 26.93L11.2899 26.94ZM11.0499 26.53L10.9699 26.33L11.1599 26.49L11.1999 26.62L11.0499 26.54V26.53ZM11.2299 26.53L11.4699 26.72V26.75L11.2599 26.64L11.2299 26.53ZM11.5299 26.7L11.5899 26.49L11.6399 26.62L11.5899 26.74L11.5499 26.7H11.5299ZM11.6599 26.68V26.72C11.6599 26.72 11.6599 26.72 11.6399 26.72L11.6599 26.68ZM11.6099 26.4L11.7099 26.03L11.7699 26.32L11.6699 26.54L11.6199 26.4H11.6099ZM11.7799 26.4L11.8299 26.65L11.7399 26.7C11.7399 26.7 11.7399 26.7 11.7299 26.7L11.6899 26.6L11.7799 26.4ZM12.3499 26.58L12.1299 26.99C12.1299 26.99 12.1099 26.95 12.0999 26.93L12.1899 26.63L12.3499 26.57V26.58ZM10.8899 27.02C10.8299 27.03 10.7699 27.05 10.7099 27.06L10.5899 26.99L10.8899 27.01V27.02ZM11.0799 27.04H11.2199L11.2299 27.08C11.2299 27.1 11.2299 27.12 11.2199 27.14L11.0799 27.04ZM10.9399 27.25H10.1499L10.7099 27.12L10.9499 27.25H10.9399ZM9.91994 27.25H9.81994C9.81994 27.25 9.81994 27.22 9.81994 27.2C9.81994 27.11 9.81994 27.02 9.83994 26.94L10.4699 26.99L10.6399 27.08C10.3699 27.14 10.0899 27.21 9.91994 27.25ZM9.91994 26.62C9.94994 26.52 9.99994 26.41 10.0499 26.32L10.9199 26.97L10.4899 26.94L9.91994 26.62ZM10.0699 26.27C10.1099 26.2 10.1499 26.13 10.1999 26.07L11.0199 26.54L11.1799 26.95C11.1799 26.95 11.0999 26.97 11.0499 26.98H10.9999L10.0599 26.27H10.0699ZM10.2299 26.03C10.2899 25.96 10.3499 25.89 10.4099 25.83L10.8999 26.23L10.9899 26.46L10.2299 26.03ZM10.4499 25.8C10.5199 25.74 10.5899 25.68 10.6699 25.63L10.8699 26.13L10.4599 25.79L10.4499 25.8ZM10.7099 25.61C10.7699 25.57 10.8399 25.54 10.8999 25.51L11.1499 26.38L10.9499 26.21L10.7099 25.61ZM10.9499 25.48C11.0299 25.45 11.1099 25.42 11.1899 25.4L11.5699 26.4L11.4999 26.66L11.2199 26.44L10.9499 25.49V25.48ZM11.2399 25.38C11.3499 25.35 11.4699 25.33 11.5899 25.33L11.6999 25.91L11.5899 26.31L11.2399 25.38ZM11.6399 25.33C11.6399 25.33 11.6799 25.33 11.6899 25.33C11.7399 25.33 11.7999 25.33 11.8499 25.33L11.7299 25.79L11.6399 25.32V25.33ZM11.9099 25.34C12.0099 25.35 12.0999 25.37 12.1999 25.4L11.8199 26.24L11.7599 25.92L11.9099 25.35V25.34ZM12.2499 25.41C12.3399 25.44 12.4299 25.47 12.5099 25.51L12.2299 26.41L11.8999 26.62L11.8399 26.32L12.2499 25.41ZM12.5599 25.54C12.6599 25.59 12.7499 25.65 12.8299 25.71L12.5699 26.2L12.2899 26.38L12.5499 25.54H12.5599ZM12.8799 25.75C12.9399 25.8 12.9999 25.85 13.0499 25.91L12.6699 26.15L12.8799 25.75ZM13.0899 25.94C13.1599 26.01 13.2199 26.1 13.2799 26.18L12.4899 26.49L12.6199 26.24L13.0899 25.94ZM13.2999 26.22C13.3499 26.3 13.3899 26.38 13.4299 26.46L12.5599 27.03L12.2199 27L12.4599 26.55L13.3099 26.22H13.2999ZM13.4399 26.51C13.4799 26.61 13.5099 26.72 13.5399 26.83L12.9699 27.06L12.6399 27.03L13.4499 26.5L13.4399 26.51ZM12.4799 27.07L12.4299 27.1L12.2999 27.06H12.4799V27.07ZM13.5499 26.9C13.5599 26.97 13.5699 27.05 13.5699 27.13L13.0799 27.09L13.5399 26.9H13.5499ZM12.6699 27.2L12.4999 27.14L12.5699 27.1L12.8699 27.12L12.6799 27.2H12.6699ZM12.1899 27.28C12.1899 27.28 12.1899 27.23 12.1899 27.2C12.1899 27.16 12.1899 27.12 12.1799 27.08L12.3799 27.15L12.1899 27.28ZM9.70994 26.94H9.80994C9.79994 27.03 9.78994 27.12 9.78994 27.21C9.78994 27.23 9.78994 27.24 9.78994 27.26H9.68994C9.68994 27.26 9.68994 27.23 9.68994 27.21C9.68994 27.12 9.68994 27.03 9.70994 26.94ZM9.86994 26.9C9.87994 26.83 9.89994 26.76 9.91994 26.69L10.3799 26.95L9.86994 26.91V26.9ZM9.77994 26.61L9.86994 26.66C9.84994 26.74 9.82994 26.82 9.81994 26.9H9.71994C9.73994 26.8 9.75994 26.7 9.77994 26.61ZM9.93994 26.24L10.0199 26.3C9.96994 26.4 9.91994 26.5 9.88994 26.61L9.79994 26.56C9.83994 26.45 9.87994 26.34 9.93994 26.24ZM10.0899 26.01L10.1799 26.06C10.1299 26.12 10.0899 26.19 10.0499 26.25L9.96994 26.19C10.0099 26.13 10.0499 26.07 10.0899 26.01ZM10.3199 25.75L10.3999 25.82C10.3299 25.88 10.2699 25.95 10.2099 26.02L10.1199 25.97C10.1799 25.89 10.2499 25.82 10.3199 25.75ZM10.6399 25.5L10.6799 25.6C10.5999 25.65 10.5199 25.72 10.4399 25.78L10.3599 25.71C10.4499 25.63 10.5399 25.56 10.6399 25.5ZM10.8899 25.36L10.9199 25.46C10.8499 25.49 10.7799 25.53 10.7199 25.57L10.6799 25.47C10.7499 25.43 10.8199 25.39 10.8899 25.36ZM11.1599 25.26L11.1999 25.36C11.1199 25.38 11.0399 25.41 10.9699 25.44L10.9399 25.34C11.0099 25.31 11.0899 25.28 11.1599 25.26ZM11.5799 25.19L11.5999 25.29C11.4799 25.29 11.3599 25.32 11.2399 25.34L11.1999 25.24C11.3199 25.21 11.4399 25.19 11.5699 25.18L11.5799 25.19ZM11.9099 25.19L11.8799 25.29C11.8199 25.29 11.7699 25.29 11.7099 25.29C11.6899 25.29 11.6699 25.29 11.6499 25.29L11.6299 25.19C11.6299 25.19 11.6899 25.19 11.7099 25.19C11.7799 25.19 11.8399 25.19 11.9099 25.19ZM12.2699 25.26L12.2299 25.35C12.1299 25.32 12.0399 25.3 11.9399 25.29L11.9699 25.19C12.0799 25.2 12.1799 25.22 12.2799 25.25L12.2699 25.26ZM12.5599 25.37L12.5299 25.47C12.4499 25.43 12.3599 25.4 12.2699 25.37L12.3099 25.28C12.3899 25.31 12.4799 25.34 12.5499 25.38L12.5599 25.37ZM12.9099 25.58L12.8599 25.67C12.7699 25.6 12.6799 25.54 12.5799 25.49L12.6099 25.39C12.7199 25.44 12.8199 25.5 12.9099 25.58ZM13.1799 25.82L13.0899 25.88C13.0299 25.82 12.9699 25.76 12.8999 25.71L12.9499 25.62C13.0299 25.68 13.1099 25.75 13.1799 25.83V25.82ZM13.3199 26.16C13.2599 26.07 13.1999 25.99 13.1299 25.91L13.2199 25.85C13.2899 25.93 13.3599 26.02 13.4199 26.12L13.3199 26.16ZM13.5599 26.38L13.4699 26.44C13.4399 26.36 13.3999 26.28 13.3499 26.21L13.4499 26.17C13.4899 26.24 13.5299 26.31 13.5599 26.38ZM13.5899 26.82C13.5699 26.7 13.5299 26.59 13.4899 26.49L13.5799 26.43C13.6299 26.54 13.6599 26.66 13.6899 26.78L13.5899 26.82ZM13.7299 27.13H13.6299C13.6299 27.04 13.6199 26.95 13.5999 26.87L13.6999 26.83C13.7199 26.93 13.7299 27.03 13.7299 27.13ZM13.5799 27.17C13.5799 27.17 13.5799 27.19 13.5799 27.2C13.5799 27.3 13.5799 27.4 13.5599 27.49L12.7499 27.22L12.9799 27.13L13.5699 27.18L13.5799 27.17ZM13.7099 27.54L13.6099 27.51C13.6299 27.41 13.6399 27.31 13.6399 27.2C13.6399 27.2 13.6399 27.18 13.6399 27.17H13.7399C13.7399 27.17 13.7399 27.19 13.7399 27.2C13.7399 27.32 13.7299 27.43 13.7099 27.54ZM13.5499 27.54C13.5399 27.61 13.5199 27.68 13.4999 27.75L12.5199 27.64L12.2899 27.41L12.6899 27.24L13.5599 27.54H13.5499ZM13.6499 27.77H13.5499C13.5699 27.69 13.5899 27.62 13.5999 27.56L13.6999 27.59C13.6899 27.65 13.6699 27.71 13.6599 27.77H13.6499ZM13.4799 27.8C13.4399 27.91 13.3999 28.01 13.3399 28.1L12.7799 27.9L12.5699 27.7L13.4699 27.8H13.4799ZM13.4899 28.16L13.3899 28.12C13.4499 28.02 13.4899 27.91 13.5299 27.8H13.6299C13.5899 27.93 13.5399 28.04 13.4799 28.15L13.4899 28.16ZM13.3199 28.43L13.2499 28.36C13.2899 28.3 13.3399 28.24 13.3699 28.18L13.4699 28.22C13.4299 28.3 13.3799 28.37 13.3199 28.44V28.43ZM13.0899 28.69L13.0299 28.6C13.0999 28.54 13.1599 28.47 13.2099 28.4L13.2799 28.47C13.2199 28.55 13.1499 28.62 13.0799 28.69H13.0899ZM12.8199 28.9L12.7499 28.82C12.8399 28.76 12.9199 28.7 12.9899 28.64L13.0499 28.73C12.9799 28.79 12.8999 28.85 12.8199 28.9ZM12.4699 29.08L12.4199 28.99C12.5199 28.95 12.6099 28.9 12.6999 28.85L12.7699 28.93C12.6699 28.99 12.5699 29.04 12.4699 29.08ZM12.1499 29.18V29.08C12.2199 29.06 12.2999 29.04 12.3799 29.01L12.4299 29.1C12.3399 29.13 12.2499 29.16 12.1599 29.18H12.1499ZM11.8699 29.22V29.12C11.9499 29.12 12.0199 29.1 12.0899 29.09V29.19C12.0299 29.2 11.9499 29.21 11.8699 29.22ZM11.6699 29.22C11.6099 29.22 11.5499 29.22 11.4899 29.21V29.11C11.5499 29.11 11.6099 29.12 11.6699 29.12V29.22ZM12.3199 31.89C12.2199 31.89 12.1299 31.81 12.1299 31.7C12.1299 31.59 12.2099 31.51 12.3199 31.51C12.4299 31.51 12.5099 31.59 12.5099 31.7C12.5099 31.81 12.4299 31.89 12.3199 31.89ZM10.7899 37.33L10.8299 37.24C10.9099 37.29 10.9899 37.33 11.0799 37.36L11.0399 37.44C10.9499 37.41 10.8699 37.37 10.7899 37.32V37.33ZM13.5299 36.22C13.4999 36.3 13.4699 36.37 13.4299 36.45L12.4499 35.85H12.7999L13.5399 36.22H13.5299ZM12.9099 35.85H13.6299C13.6099 35.97 13.5899 36.07 13.5499 36.17L12.9099 35.85ZM13.3999 36.49C13.3599 36.56 13.3099 36.63 13.2599 36.7C12.9299 36.49 12.3099 36.11 12.0399 35.94L11.9899 35.85H12.3299L13.3899 36.5L13.3999 36.49ZM11.2799 35.52L10.8899 35.55L9.92994 35.26C9.92994 35.19 9.94994 35.13 9.96994 35.07L10.9799 35.2C11.1499 35.35 11.2699 35.43 11.3399 35.47L11.2899 35.51L11.2799 35.52ZM12.0699 35.44C12.0699 35.44 12.0699 35.4 12.0699 35.39L12.0999 35.36L12.3499 35.33L12.1699 35.49L12.0799 35.45L12.0699 35.44ZM12.7399 34.98L12.3299 35.1L13.1199 34.24C13.1899 34.32 13.2599 34.4 13.3199 34.48L12.7399 34.98ZM13.3499 34.52C13.3999 34.6 13.4499 34.68 13.4799 34.76L12.8599 34.94L13.3499 34.52ZM9.98994 35.03C10.0199 34.92 10.0599 34.82 10.1099 34.72L10.7799 35.01C10.8299 35.05 10.8699 35.09 10.9099 35.13L9.97994 35.01L9.98994 35.03ZM9.91994 35.07C9.89994 35.13 9.88994 35.19 9.87994 35.25L9.72994 35.21C9.72994 35.16 9.74994 35.1 9.75994 35.05L9.90994 35.07H9.91994ZM12.2799 34.74L12.2399 35.12L12.0599 35.18C12.0599 35.18 12.0599 35.17 12.0599 35.16C12.0599 35.11 12.0599 35.05 12.0599 34.98L12.2799 34.74ZM12.0599 34.9C12.0599 34.81 12.0599 34.7 12.0699 34.59L12.3299 34.25L12.2799 34.65L12.0499 34.9H12.0599ZM11.6999 35.25C11.6999 35.25 11.6299 35.25 11.5999 35.27C11.5999 35.27 11.5999 35.27 11.5999 35.26C11.5999 35.21 11.5999 35.09 11.5999 34.94L11.7499 35.1C11.7399 35.16 11.7299 35.21 11.7199 35.24L11.6999 35.25ZM11.3699 35.28C11.3699 35.28 11.2699 35.21 11.2099 35.17L10.5199 34.16C10.5899 34.1 10.6599 34.04 10.7399 33.98L11.3399 34.65C11.3599 34.9 11.3699 35.13 11.3799 35.27L11.3699 35.28ZM11.2599 33.74C11.2799 34.02 11.2999 34.31 11.3199 34.58L10.7699 33.96C10.9199 33.86 11.0799 33.79 11.2599 33.74ZM10.4799 34.12L10.4399 34.06L10.6299 33.87L10.6999 33.95C10.6199 34 10.5499 34.06 10.4899 34.12H10.4799ZM10.1199 34.68C10.1599 34.6 10.1999 34.53 10.2499 34.46C10.3599 34.59 10.4999 34.75 10.6599 34.92L10.1199 34.68ZM9.92994 35.03L9.76994 35.01C9.79994 34.88 9.84994 34.76 9.89994 34.64L10.0499 34.7C9.99994 34.8 9.95994 34.91 9.92994 35.02V35.03ZM9.92994 34.6C9.97994 34.49 10.0499 34.39 10.1199 34.29C10.1499 34.33 10.1899 34.37 10.2299 34.42C10.1799 34.5 10.1299 34.57 10.0799 34.66L9.92994 34.6ZM10.4799 34.2L11.0899 35.08C10.9599 34.98 10.8199 34.87 10.7199 34.76C10.5999 34.62 10.4799 34.45 10.3899 34.3C10.4199 34.27 10.4499 34.23 10.4899 34.2H10.4799ZM10.3599 34.26C10.3199 34.2 10.2899 34.15 10.2699 34.11C10.5299 33.83 10.8699 33.62 11.2599 33.51C11.2599 33.57 11.2599 33.62 11.2699 33.68C11.0799 33.73 10.9099 33.81 10.7499 33.92L10.6599 33.82L10.6399 33.8L10.6199 33.82L10.3999 34.04L10.3799 34.06V34.08L10.4499 34.17C10.4199 34.2 10.3899 34.24 10.3599 34.27V34.26ZM11.7799 33.67C11.7799 33.67 11.7999 33.67 11.8099 33.67C11.7899 33.93 11.7699 34.2 11.7799 34.44C11.7799 34.63 11.7799 34.78 11.7599 34.91V34.93C11.7599 34.97 11.7599 35.01 11.7499 35.04L11.5899 34.86C11.5899 34.54 11.5899 34.08 11.5799 33.67C11.6499 33.67 11.7199 33.66 11.7899 33.66L11.7799 33.67ZM12.1199 33.7C12.2199 33.72 12.3099 33.74 12.3999 33.77L12.3499 34.16L12.0799 34.5C12.0899 34.2 12.1099 33.88 12.1199 33.69V33.7ZM12.4499 33.79C12.4999 33.81 12.5499 33.83 12.5999 33.85L12.4199 34.08L12.4499 33.78V33.79ZM12.6399 33.88C12.7199 33.92 12.8099 33.97 12.8799 34.03L12.3499 34.6L12.3999 34.19L12.6399 33.88ZM12.9199 34.06C12.9799 34.1 13.0299 34.15 13.0799 34.2L12.2899 35.06L12.3299 34.68L12.9099 34.06H12.9199ZM12.6499 35.06L12.4099 35.27L12.1499 35.3L12.2599 35.18L12.6499 35.07V35.06ZM12.0699 35.3H12.0599C12.0599 35.3 12.0599 35.25 12.0599 35.23L12.1799 35.2L12.0799 35.31L12.0699 35.3ZM9.92994 35.82L10.4499 35.79L9.95994 35.95C9.95994 35.95 9.93994 35.86 9.93994 35.82H9.92994ZM9.89994 35.97L9.76994 36.01C9.74994 35.95 9.73994 35.89 9.72994 35.83H9.86994C9.86994 35.83 9.88994 35.92 9.89994 35.97ZM10.6399 35.78L10.9699 35.76L10.9199 35.8L10.0199 36.19C9.99994 36.13 9.97994 36.07 9.95994 36L10.6399 35.78ZM10.0399 36.38L9.93994 36.45C9.93994 36.45 9.88994 36.35 9.86994 36.3L9.98994 36.25C9.98994 36.25 10.0299 36.34 10.0499 36.38H10.0399ZM10.0399 36.23L10.6899 35.95L10.0899 36.35C10.0899 36.35 10.0499 36.27 10.0399 36.23ZM9.85994 36.25C9.82994 36.18 9.80994 36.12 9.78994 36.05L9.91994 36.01C9.93994 36.07 9.95994 36.14 9.97994 36.2L9.85994 36.25ZM9.73994 35.77C9.73994 35.77 9.73994 35.72 9.73994 35.7H9.87994C9.87994 35.7 9.87994 35.74 9.87994 35.77H9.73994ZM9.91994 35.69L10.8899 35.61L10.9599 35.63L10.6399 35.74L9.92994 35.78C9.92994 35.78 9.92994 35.73 9.92994 35.7L9.91994 35.69ZM12.2599 35.79H12.0399C12.0399 35.79 12.0699 35.72 12.0799 35.68L12.2599 35.79ZM12.1099 35.64L12.3299 35.62L12.6899 35.8H12.3599L12.1099 35.64ZM11.3699 35.73H11.3299V35.69H11.2599L11.2999 35.56H11.3399V35.53L11.3499 35.52C11.3499 35.55 11.3499 35.58 11.3499 35.6C11.3499 35.64 11.3499 35.69 11.3699 35.72V35.73ZM9.90994 35.63C9.90994 35.63 9.90994 35.57 9.90994 35.54C9.90994 35.46 9.90994 35.38 9.91994 35.31L10.7499 35.56L9.90994 35.63ZM11.0199 35.59H11.0699H11.0399H11.0199ZM11.1599 35.68H11.1699L11.2299 35.62V35.67L11.1399 35.7L10.8299 35.72L11.0399 35.65L11.1399 35.68H11.1499H11.1599ZM11.1499 35.63H11.1299L11.1699 35.61L11.1499 35.63ZM9.71994 35.65C9.71994 35.65 9.71994 35.55 9.71994 35.5C9.71994 35.42 9.71994 35.33 9.73994 35.25L9.88994 35.29C9.87994 35.37 9.86994 35.45 9.86994 35.54C9.86994 35.57 9.86994 35.6 9.86994 35.63H9.72994L9.71994 35.65ZM12.0799 35.5L12.1199 35.52L12.0799 35.55C12.0799 35.55 12.0799 35.52 12.0799 35.5ZM12.1699 35.54L12.2499 35.58H12.1199L12.1799 35.54H12.1699ZM13.6499 35.49C13.6499 35.49 13.6499 35.53 13.6499 35.55C13.6499 35.64 13.6499 35.73 13.6299 35.81H12.7999L12.4199 35.61L13.6499 35.49ZM11.0699 36.05L10.1999 36.54C10.1999 36.54 10.1599 36.47 10.1399 36.43L10.9999 35.82L11.1699 35.75H11.2999C11.2999 35.75 11.1899 35.88 11.0799 36.04L11.0699 36.05ZM10.1099 36.72L10.2099 36.66C10.2099 36.66 10.2799 36.75 10.3099 36.8L10.2299 36.87C10.2299 36.87 10.1499 36.77 10.1099 36.72ZM11.7199 35.98C11.7199 35.98 11.7299 35.98 11.7399 35.98L11.6799 36.1V35.97C11.6799 35.97 11.6999 35.97 11.7199 35.97V35.98ZM11.9199 35.92L12.0099 35.98L12.0999 36.17L11.9599 36.04L11.9199 35.93V35.92ZM11.8699 35.96C11.8699 35.96 11.8699 35.95 11.8699 35.94V35.96ZM11.6199 35.96V36.07L11.5899 35.96C11.5899 35.96 11.6099 35.96 11.6199 35.96ZM11.6199 36.22L11.1099 37.31C11.0199 37.28 10.9399 37.24 10.8599 37.19L11.2699 36.32C11.3799 36.16 11.4699 36.02 11.5299 35.93L11.6199 36.22ZM10.8099 37.16C10.8099 37.16 10.7599 37.13 10.7299 37.11C10.8099 36.96 10.9399 36.75 11.0899 36.56C11.0899 36.56 11.0899 36.56 11.0899 36.55L10.7999 37.17L10.8099 37.16ZM10.6399 37.04C10.6399 37.04 10.6099 37.02 10.5899 37C10.6499 36.89 10.7499 36.74 10.8699 36.55C10.9699 36.41 11.0699 36.26 11.1599 36.13L11.2699 36.04C11.1899 36.19 11.0899 36.36 10.9999 36.48C10.8899 36.64 10.7299 36.88 10.6199 37.03L10.6399 37.04ZM10.5099 36.92C10.5099 36.92 10.4199 36.84 10.3899 36.79L10.8199 36.43C10.7099 36.61 10.5899 36.79 10.5199 36.91L10.5099 36.92ZM10.2499 36.62L10.9599 36.19C10.9599 36.19 10.9199 36.26 10.8999 36.29L10.3499 36.75C10.3499 36.75 10.2799 36.66 10.2499 36.62ZM10.0399 36.62C10.0399 36.62 9.99994 36.56 9.98994 36.53L10.0899 36.46C10.0899 36.46 10.1299 36.53 10.1499 36.56L10.0499 36.62H10.0399ZM11.4099 35.81C11.3899 35.84 11.3699 35.88 11.3499 35.92L11.2799 35.98C11.3299 35.91 11.3799 35.85 11.3999 35.8L11.4099 35.81ZM13.2299 36.74C13.1599 36.83 13.0899 36.91 12.9999 36.98L12.1999 36.26L12.0899 36.03L13.2299 36.74ZM12.9699 37.01C12.8799 37.08 12.7899 37.15 12.6899 37.21L12.2699 36.38L12.9699 37.01ZM12.6399 37.23C12.5699 37.27 12.4899 37.3 12.4199 37.33L11.9999 36.13L12.1699 36.28L12.6499 37.23H12.6399ZM12.3699 37.35C12.2699 37.38 12.1599 37.41 12.0499 37.43L11.6999 36.32L11.7999 35.97C11.7999 35.97 11.7999 35.97 11.8099 35.97L11.9099 36.06L12.3599 37.35H12.3699ZM12.3899 37.4V37.43L12.0799 37.53L12.0599 37.48C12.1699 37.46 12.2799 37.44 12.3799 37.4H12.3899ZM11.7799 37.45L11.7099 36.5L11.9999 37.43C11.9299 37.43 11.8499 37.44 11.7799 37.44V37.45ZM11.7199 37.45C11.6099 37.45 11.5099 37.43 11.3999 37.41L11.6499 36.5L11.7199 37.45ZM11.3499 37.4C11.2799 37.38 11.2099 37.36 11.1499 37.34L11.6399 36.31V36.35L11.3499 37.41V37.4ZM10.6599 37.26C10.6599 37.26 10.6899 37.21 10.7099 37.17C10.7399 37.19 10.7599 37.21 10.7899 37.22L10.7499 37.31C10.7499 37.31 10.6899 37.28 10.6699 37.26H10.6599ZM10.5199 37.16C10.5199 37.16 10.5499 37.11 10.5699 37.07C10.5799 37.08 10.5999 37.09 10.6099 37.1C10.5899 37.13 10.5699 37.16 10.5499 37.18C10.5399 37.18 10.5299 37.16 10.5199 37.15V37.16ZM10.4299 37.09C10.3699 37.04 10.3099 36.98 10.2499 36.92L10.3299 36.85C10.3299 36.85 10.4199 36.94 10.4699 36.99C10.4399 37.04 10.4199 37.07 10.4199 37.07V37.09H10.4299ZM9.09994 36.87C9.15994 36.93 9.21994 36.97 9.26994 36.97C9.34994 36.97 9.46994 36.92 9.51994 36.89C9.53994 36.94 9.56994 36.98 9.59994 37.02C9.53994 37.06 9.42994 37.11 9.34994 37.1C9.22994 37.1 9.11994 37 9.09994 36.9C9.09994 36.9 9.09994 36.88 9.09994 36.87ZM9.09994 36.79C9.08994 36.45 9.07994 35.5 9.07994 35.47C9.07994 35.45 9.11994 35.07 9.18994 34.83C9.24994 34.62 9.54994 33.86 9.62994 33.67C9.71994 33.82 9.79994 33.93 9.81994 33.98C9.72994 34.07 9.64994 34.17 9.59994 34.26C9.40994 34.62 9.22994 35.11 9.23994 35.73C9.24994 36.13 9.31994 36.5 9.48994 36.83C9.43994 36.86 9.33994 36.91 9.26994 36.91C9.22994 36.91 9.14994 36.86 9.08994 36.79H9.09994ZM9.53994 33.52C9.53994 33.52 9.57994 33.59 9.59994 33.62C9.54994 33.74 9.20994 34.59 9.13994 34.82C9.06994 35.07 9.02994 35.47 9.02994 35.47C9.02994 35.47 9.02994 36.32 9.04994 36.71C9.01994 36.65 8.98994 36.58 8.97994 36.5C8.94994 36.26 9.01994 34.89 9.07994 34.69C9.12994 34.52 9.43994 33.76 9.53994 33.52ZM11.7499 33.24C11.6899 33.24 11.6399 33.24 11.5799 33.24C11.5799 33.08 11.5799 32.95 11.5799 32.87C11.5799 32.63 11.5799 32.45 11.5799 32.34C11.6799 32.46 11.8099 32.55 11.9699 32.58C11.9499 32.71 11.9099 32.96 11.8699 33.24C11.8299 33.24 11.7899 33.24 11.7499 33.24ZM11.8199 32.06C11.9199 32.06 12.0099 32.14 12.0099 32.25C12.0099 32.36 11.9299 32.44 11.8199 32.44C11.7099 32.44 11.6299 32.36 11.6299 32.25C11.6299 32.14 11.7099 32.06 11.8199 32.06ZM12.3599 32.41C12.2599 32.41 12.1699 32.33 12.1699 32.22C12.1699 32.11 12.2499 32.03 12.3599 32.03C12.4599 32.03 12.5499 32.11 12.5499 32.22C12.5499 32.33 12.4699 32.41 12.3599 32.41ZM12.4599 33.36C12.3699 33.33 12.2699 33.31 12.1699 33.29L12.2599 32.58C12.3799 32.55 12.4899 32.48 12.5699 32.39L12.4599 33.36ZM10.6799 33.51L10.4599 33.46C10.4599 33.46 10.2299 33.62 10.0099 33.82C9.92994 33.71 9.72994 33.41 9.58994 33.2L11.2499 32.47C11.2499 32.66 11.2299 32.87 11.2499 33.09C11.2499 33.16 11.2499 33.23 11.2499 33.31C11.0499 33.35 10.8599 33.42 10.6799 33.52V33.51ZM11.8399 33.46C11.8399 33.52 11.8299 33.57 11.8199 33.63C11.8099 33.63 11.7999 33.63 11.7899 33.63C11.7199 33.63 11.6499 33.63 11.5799 33.64C11.5799 33.58 11.5799 33.52 11.5799 33.47C11.6499 33.47 11.7199 33.46 11.7899 33.46C11.8099 33.46 11.8199 33.46 11.8399 33.46ZM12.4299 33.56L12.4099 33.73C12.3199 33.7 12.2299 33.67 12.1299 33.66C12.1299 33.58 12.1299 33.54 12.1299 33.54V33.49C12.2399 33.51 12.3299 33.53 12.4299 33.56ZM12.9799 33.83L12.7499 33.71H12.7299H12.7199L12.6299 33.82C12.5699 33.79 12.5199 33.77 12.4599 33.75L12.4799 33.57C12.6599 33.63 12.8299 33.72 12.9799 33.83ZM13.0199 33.91L12.9299 34.01C12.8499 33.95 12.7699 33.9 12.6899 33.86L12.7599 33.77L13.0299 33.91H13.0199ZM13.2399 34.06L13.1299 34.18C13.0799 34.13 13.0199 34.08 12.9699 34.04L13.0799 33.92C13.1399 33.95 13.1899 34 13.2399 34.05H13.2299L13.2399 34.06ZM13.4699 34.38L13.3699 34.47C13.3099 34.38 13.2399 34.3 13.1699 34.22L13.2599 34.12L13.4699 34.38ZM13.8099 35.05L13.6999 34.75V34.73H13.6699L13.5399 34.77C13.4999 34.68 13.4499 34.59 13.3999 34.51L13.5199 34.4C13.6499 34.59 13.7499 34.81 13.7999 35.04L13.8099 35.05ZM13.6699 35.16C13.6399 35.04 13.6099 34.93 13.5599 34.82L13.6599 34.79L13.7899 35.15H13.6699V35.16ZM13.6199 35.18L12.5099 35.3L12.7799 35.07L13.5199 34.86C13.5599 34.97 13.5999 35.08 13.6199 35.19V35.18ZM13.7099 35.48C13.7099 35.39 13.6899 35.31 13.6799 35.23L13.8299 35.21H13.8399C13.8499 35.29 13.8599 35.38 13.8699 35.46L13.7199 35.48H13.7099ZM13.6599 35.48L12.3499 35.61L12.2199 35.55L12.4399 35.36L13.6299 35.23C13.6499 35.31 13.6599 35.4 13.6599 35.48ZM13.7299 36.29L13.6099 36.23C13.6499 36.12 13.6699 36.01 13.6899 35.9H13.8099V35.85H13.6999C13.7099 35.76 13.7199 35.67 13.7199 35.59C13.7199 35.57 13.7199 35.55 13.7199 35.53L13.8699 35.51C13.8699 35.51 13.8699 35.53 13.8699 35.54C13.8699 35.8 13.8199 36.05 13.7299 36.29ZM13.5899 36.57L13.4799 36.5C13.5199 36.43 13.5499 36.35 13.5799 36.27L13.6999 36.33C13.6699 36.41 13.6299 36.49 13.5799 36.57H13.5899ZM13.4199 36.82C13.4199 36.82 13.3599 36.78 13.3199 36.76C13.3699 36.69 13.4099 36.62 13.4599 36.55L13.5699 36.62C13.5299 36.69 13.4799 36.76 13.4299 36.82H13.4199ZM13.1399 37.12L13.0599 37.05C13.1399 36.98 13.2199 36.89 13.2899 36.81L13.3899 36.87C13.3099 36.96 13.2299 37.05 13.1399 37.12ZM12.7599 37.38L12.7199 37.29C12.8299 37.23 12.9299 37.16 13.0199 37.08L13.0999 37.15L12.8399 37.33C12.8399 37.33 12.7899 37.36 12.7699 37.37L12.7599 37.38ZM12.2399 37.57L12.4499 37.51H12.4799V37.48L12.4599 37.42C12.5399 37.39 12.6099 37.36 12.6899 37.32L12.7299 37.41C12.5799 37.48 12.4199 37.54 12.2499 37.58L12.2399 37.57ZM11.7899 37.62V37.53C11.8699 37.53 11.9499 37.53 12.0299 37.51L12.0599 37.59C11.9799 37.6 11.8899 37.61 11.7999 37.61L11.7899 37.62ZM11.3799 37.58L11.3999 37.5C11.5099 37.52 11.6199 37.54 11.7299 37.54V37.62L11.4899 37.6C11.4499 37.6 11.4099 37.59 11.3799 37.58ZM11.1099 37.5L11.1499 37.42C11.2199 37.44 11.2899 37.47 11.3599 37.48L11.3399 37.56C11.2599 37.54 11.1899 37.52 11.1199 37.5H11.1099Z" fill="black"/>
<path fill-rule="evenodd" clip-rule="evenodd" d="M11.4299 30.81C11.4299 30.81 11.5699 30.7 11.6499 30.44C11.7399 30.18 11.7899 29.99 11.7899 29.99H11.9599C11.9599 29.99 12.0499 30.31 12.0499 30.89C12.0499 31.48 12.0199 31.88 12.0199 31.88H11.8499C11.8499 31.88 11.9099 31.56 11.7599 31.33C11.6099 31.1 11.4299 30.8 11.4299 30.8" fill="black"/>
<path fill-rule="evenodd" clip-rule="evenodd" d="M11.8301 29.65L12.0501 29.62C12.0501 29.62 12.2601 29.64 12.3001 30.37C12.3301 31.1 12.2701 31.91 12.2701 31.91C12.2701 31.91 12.0201 31.97 12.0301 31.88C12.0301 31.79 12.0501 31.27 12.0601 30.78C12.0601 30.29 12.0101 29.98 11.9701 29.84C11.9401 29.7 11.8301 29.64 11.8301 29.64" fill="black"/>
<path fill-rule="evenodd" clip-rule="evenodd" d="M1.3101 33.39C1.2401 32.91 1.3901 32.78 1.6601 32.6C1.9201 32.43 2.1201 32.2 2.0101 32.01C2.0001 31.99 1.9801 31.96 1.9701 31.94C1.9601 31.94 1.9401 31.94 1.9201 31.94C1.8201 31.94 1.7401 31.86 1.7401 31.76C1.7401 31.66 1.8201 31.58 1.9201 31.58C2.0201 31.58 2.1001 31.66 2.1001 31.76C2.1001 31.77 2.1001 31.78 2.1001 31.79C2.3101 31.91 2.3801 32.09 2.4101 32.26C2.4501 32.44 2.4801 32.48 2.5901 32.48C2.7001 32.48 2.7101 32.57 2.7101 32.57C2.7101 32.57 2.7401 32.54 2.8501 32.54C2.9601 32.54 3.0201 32.61 3.1501 32.61C3.2901 32.61 3.3701 32.57 3.3701 32.57C3.3701 32.57 3.0001 33.42 2.9501 33.56C2.8901 33.7 2.7101 34.07 2.7101 34.07C2.7101 34.07 1.3901 33.96 1.3101 33.36" fill="black"/>
<path fill-rule="evenodd" clip-rule="evenodd" d="M1.36 32.99L0.32 32.7L0.84 33.02L0 33.09L0.86 33.1899L0.05 33.47L0.92 33.4199L0.03 33.91L0.98 33.7099L0.16 34.5299L1.06 33.9399L0.55 34.75L1.26 34.0299L0.78 35.08L1.4 34.2599L1.13 35.4399L1.64 34.49L1.61 35.38L1.91 34.43L1.86 35.5499L2.12 34.6199L2.15 36.11L2.41 34.5099L2.45 36L2.65 34.56L2.9 35.75L2.98 34.74L2.89 34.07L2.83 33.81C2.83 33.81 2.56 33.63 2.51 33.63C2.46 33.63 2.28 33.59 2.28 33.59L2.08 33.6199H2.02L1.66 33.25L1.33 32.99H1.36Z" fill="black"/>
</g>
<defs>
<clipPath id="clip0_3790_7178">
<rect width="14.31" height="42.49" fill="white"/>
</clipPath>
</defs>
</svg>
