<svg width="13" height="14" viewBox="0 0 13 14" fill="none" xmlns="http://www.w3.org/2000/svg">
<g clip-path="url(#clip0_3790_7007)">
<path fill-rule="evenodd" clip-rule="evenodd" d="M9.59977 6.03003C10.4098 6.12003 11.1698 6.26003 11.7298 6.47003C11.9198 6.54003 12.1398 6.65003 12.2098 6.85003C11.9398 7.01003 11.6798 7.14003 11.4298 7.24003C11.3698 7.10003 10.7098 6.98003 10.5798 6.96003C10.1798 6.89003 9.63977 6.82003 9.00977 6.76003C9.06977 6.71003 9.13976 6.65003 9.18976 6.60003C9.35976 6.43003 9.49977 6.24003 9.59977 6.03003Z" fill="black"/>
<path fill-rule="evenodd" clip-rule="evenodd" d="M3.85986 5.94C4.70986 5.89 5.52986 5.87 6.15986 5.87C6.77986 5.87 7.59986 5.89 8.44986 5.94C8.40986 6.17 8.33986 6.38 8.23986 6.65C8.23986 6.67 8.22986 6.69 8.21986 6.71C7.58986 6.67 6.89986 6.65 6.15986 6.64C5.41986 6.64 4.71986 6.67 4.08986 6.71C4.08986 6.69 4.07986 6.67 4.06986 6.65C3.96986 6.38 3.89986 6.17 3.85986 5.94Z" fill="black"/>
<path fill-rule="evenodd" clip-rule="evenodd" d="M0.570098 6.47003C1.1301 6.26003 1.8901 6.12003 2.7001 6.03003C2.8001 6.24003 2.9401 6.43003 3.1101 6.60003C3.1601 6.65003 3.2301 6.71003 3.2901 6.76003C2.6601 6.82003 2.1301 6.88003 1.7301 6.96003C1.6001 6.98003 0.940098 7.10003 0.880098 7.24003C0.630098 7.13003 0.360098 7.01003 0.100098 6.85003C0.170098 6.65003 0.400098 6.54003 0.580098 6.47003" fill="black"/>
<path fill-rule="evenodd" clip-rule="evenodd" d="M9.94 10.23C9.83 10.23 9.73 10.21 9.64 10.17C9.55 10.13 9.48 10.07 9.43 9.99C9.38 9.91 9.35 9.82 9.35 9.71C9.35 9.55 9.4 9.42 9.51 9.33C9.62 9.24 9.76 9.19 9.93 9.19C10.1 9.19 10.24 9.24 10.35 9.33C10.46 9.42 10.51 9.55 10.51 9.71C10.51 9.87 10.45 9.99 10.34 10.09C10.23 10.18 10.09 10.23 9.92 10.23M10.03 9.72C10.03 9.65 10.03 9.58 10 9.53C9.98 9.47 9.95 9.45 9.92 9.45C9.9 9.45 9.87 9.46 9.86 9.49C9.84 9.52 9.83 9.55 9.82 9.59C9.82 9.63 9.81 9.67 9.81 9.72C9.81 9.79 9.81 9.85 9.84 9.91C9.86 9.96 9.89 9.99 9.92 9.99C9.95 9.99 9.98 9.96 10 9.91C10.02 9.86 10.03 9.79 10.03 9.72ZM8.69 9.65C8.69 9.57 8.66 9.53 8.6 9.53C8.59 9.53 8.58 9.53 8.57 9.53C8.57 9.53 8.55 9.53 8.54 9.54C8.54 9.54 8.53 9.55 8.52 9.56C8.52 9.56 8.51 9.58 8.5 9.59C8.5 9.59 8.5 9.61 8.49 9.62C8.49 9.63 8.49 9.65 8.49 9.66V9.89C8.49 10.01 8.47 10.09 8.43 10.14C8.39 10.19 8.34 10.21 8.26 10.21C8.18 10.21 8.12 10.19 8.09 10.14C8.05 10.1 8.04 10.02 8.04 9.9V9C8.04 8.91 8.06 8.85 8.1 8.81C8.14 8.77 8.2 8.75 8.27 8.75C8.34 8.75 8.4 8.77 8.44 8.8C8.48 8.83 8.5 8.89 8.5 8.99V9.3C8.6 9.24 8.73 9.21 8.88 9.21C8.95 9.21 9 9.23 9.04 9.26C9.08 9.29 9.11 9.35 9.13 9.42C9.15 9.49 9.16 9.59 9.16 9.71C9.16 9.77 9.16 9.83 9.16 9.87C9.16 9.92 9.16 9.96 9.16 9.99C9.16 10.03 9.15 10.06 9.14 10.08C9.14 10.1 9.12 10.12 9.11 10.14C9.1 10.16 9.08 10.17 9.07 10.18C9.05 10.18 9.03 10.2 9.01 10.2C8.99 10.2 8.96 10.2 8.93 10.2C8.85 10.2 8.79 10.19 8.76 10.16C8.73 10.13 8.71 10.09 8.71 10.03V9.64L8.69 9.65ZM7.09 9.9C7.09 10.01 7.07 10.1 7.03 10.14C6.99 10.19 6.92 10.21 6.84 10.21C6.76 10.21 6.69 10.19 6.65 10.14C6.61 10.1 6.59 10.02 6.59 9.9V9.01C6.59 8.92 6.61 8.86 6.66 8.82C6.71 8.78 6.77 8.76 6.84 8.76H7.22C7.31 8.76 7.4 8.77 7.47 8.8C7.55 8.82 7.61 8.86 7.67 8.9C7.73 8.94 7.77 9 7.8 9.07C7.83 9.14 7.85 9.21 7.85 9.29C7.85 9.39 7.82 9.48 7.76 9.55C7.7 9.62 7.63 9.68 7.53 9.72C7.44 9.76 7.33 9.77 7.21 9.77H7.09V9.89V9.9ZM7.36 9.27C7.36 9.22 7.36 9.18 7.35 9.15C7.35 9.12 7.32 9.1 7.3 9.08C7.28 9.06 7.25 9.05 7.22 9.05C7.19 9.05 7.15 9.05 7.1 9.05V9.51C7.1 9.51 7.17 9.51 7.2 9.5C7.23 9.5 7.26 9.48 7.28 9.46C7.31 9.44 7.32 9.42 7.34 9.39C7.35 9.36 7.36 9.32 7.36 9.27ZM5.03 9.76V9.51C5.03 9.51 4.97 9.51 4.95 9.49C4.93 9.48 4.91 9.47 4.9 9.45C4.9 9.43 4.89 9.41 4.89 9.39C4.89 9.31 4.94 9.27 5.04 9.26V9.06C5.04 9.01 5.08 8.96 5.16 8.92C5.24 8.88 5.31 8.86 5.39 8.86C5.44 8.86 5.47 8.87 5.48 8.9C5.49 8.93 5.5 8.97 5.5 9.02V9.26H5.56C5.64 9.26 5.69 9.27 5.72 9.29C5.75 9.31 5.76 9.35 5.76 9.4C5.76 9.42 5.76 9.44 5.75 9.46C5.75 9.48 5.73 9.49 5.71 9.5C5.69 9.5 5.67 9.51 5.64 9.52C5.61 9.52 5.58 9.52 5.54 9.52H5.5V9.75C5.5 9.75 5.5 9.79 5.5 9.81C5.5 9.82 5.5 9.84 5.5 9.84C5.5 9.84 5.51 9.85 5.52 9.86C5.52 9.86 5.54 9.86 5.55 9.86C5.57 9.86 5.58 9.86 5.59 9.84C5.6 9.83 5.61 9.81 5.62 9.8C5.62 9.79 5.63 9.77 5.65 9.76C5.66 9.75 5.67 9.74 5.69 9.74C5.72 9.74 5.75 9.74 5.76 9.76C5.78 9.78 5.79 9.79 5.79 9.82C5.79 9.86 5.79 9.9 5.77 9.94C5.76 9.98 5.73 10.03 5.71 10.07C5.68 10.11 5.64 10.14 5.59 10.17C5.54 10.2 5.48 10.21 5.42 10.21C5.28 10.21 5.18 10.17 5.12 10.1C5.06 10.03 5.03 9.91 5.03 9.75V9.76ZM4.16 10.23C4.05 10.23 3.95 10.21 3.86 10.17C3.77 10.13 3.7 10.07 3.65 9.99C3.6 9.91 3.57 9.82 3.57 9.71C3.57 9.55 3.62 9.42 3.73 9.33C3.84 9.24 3.98 9.19 4.15 9.19C4.32 9.19 4.46 9.24 4.57 9.33C4.68 9.42 4.73 9.55 4.73 9.71C4.73 9.87 4.67 9.99 4.56 10.09C4.45 10.18 4.31 10.23 4.14 10.23H4.16ZM4.27 9.72C4.27 9.65 4.27 9.58 4.24 9.53C4.22 9.47 4.19 9.45 4.16 9.45C4.14 9.45 4.11 9.46 4.1 9.49C4.08 9.52 4.07 9.55 4.06 9.59C4.06 9.63 4.05 9.67 4.05 9.72C4.05 9.79 4.05 9.85 4.08 9.91C4.1 9.96 4.13 9.99 4.16 9.99C4.19 9.99 4.22 9.96 4.24 9.91C4.26 9.86 4.27 9.79 4.27 9.72ZM3.37 9.9C3.37 10.01 3.35 10.1 3.31 10.14C3.27 10.19 3.21 10.21 3.12 10.21C3.03 10.21 2.98 10.19 2.94 10.14C2.9 10.1 2.88 10.02 2.88 9.9V9.66H2.45V9.88C2.45 10 2.43 10.08 2.39 10.12C2.35 10.17 2.29 10.19 2.2 10.19C2.11 10.19 2.06 10.17 2.02 10.12C1.98 10.08 1.96 10 1.96 9.88V8.99C1.96 8.9 1.98 8.84 2.02 8.8C2.06 8.76 2.12 8.74 2.2 8.74C2.28 8.74 2.35 8.76 2.39 8.79C2.43 8.82 2.45 8.88 2.45 8.98V9.33H2.88V8.99C2.88 8.93 2.89 8.88 2.91 8.84C2.93 8.8 2.96 8.77 2.99 8.76C3.02 8.74 3.07 8.74 3.11 8.74C3.19 8.74 3.25 8.76 3.29 8.79C3.33 8.82 3.35 8.88 3.35 8.98V9.87L3.37 9.9ZM11.47 7.4C11.47 7.4 11.47 7.41 11.47 7.42C11.47 7.51 11.02 7.67 10.44 7.79C9.48 7.99 7.97 8.16 6.12 8.18C4.26 8.17 2.75 8 1.8 7.79C1.72 7.77 0.71 7.55 0.78 7.4C0.53 7.29 0.26 7.17 0 7.01C0 7.09 0 7.18 0 7.27C0.03 8.56 0.44 9.4 1.04 10.13C1.71 10.95 2.37 11.38 3.3 11.85C4.05 12.24 5.31 12.46 6.15 12.48C6.99 12.45 8.25 12.23 9 11.85C9.93 11.37 10.59 10.95 11.26 10.13C11.86 9.4 12.27 8.56 12.3 7.27C12.3 7.18 12.3 7.09 12.27 7C12 7.16 11.74 7.29 11.49 7.39L11.47 7.4Z" fill="black"/>
<path fill-rule="evenodd" clip-rule="evenodd" d="M8.58996 5.45996C8.58996 5.95996 8.49996 6.20996 8.32996 6.67996C8.22996 6.95996 8.40996 7.00996 8.66996 6.86996C8.81996 6.78996 8.98996 6.64996 9.10996 6.52996C9.35996 6.27996 9.54996 5.97996 9.60996 5.60996C9.73996 4.73996 9.02996 4.47996 9.13996 3.42996C9.15996 3.27996 9.29996 2.95996 8.99996 2.96996C8.82996 2.96996 8.63996 3.20996 8.56996 3.31996C7.92996 4.22996 8.57996 4.89996 8.57996 5.46996" fill="black"/>
<path fill-rule="evenodd" clip-rule="evenodd" d="M3.70979 5.45996C3.70979 5.95996 3.79979 6.20996 3.96979 6.67996C4.06979 6.95996 3.88979 7.00996 3.62979 6.86996C3.47979 6.78996 3.30979 6.64996 3.18979 6.52996C2.93979 6.27996 2.74979 5.97996 2.68979 5.60996C2.55979 4.73996 3.26979 4.47996 3.15979 3.42996C3.13979 3.27996 2.99979 2.95996 3.29979 2.96996C3.46979 2.96996 3.65979 3.20996 3.72979 3.31996C4.36979 4.22996 3.71979 4.89996 3.71979 5.46996" fill="black"/>
<path fill-rule="evenodd" clip-rule="evenodd" d="M6.15996 13.17C5.75996 13.17 1.95996 13.09 1.95996 12.48C1.95996 12.31 2.33996 12.15 2.96996 12.03C3.93996 12.53 5.07996 12.78 6.15996 12.79C7.23996 12.77 8.38996 12.52 9.34996 12.03C9.97996 12.15 10.36 12.31 10.36 12.48C10.36 13.09 6.55996 13.17 6.15996 13.17Z" fill="black"/>
<path fill-rule="evenodd" clip-rule="evenodd" d="M6.44024 10.72H7.12024C7.12024 10.72 7.19024 10.74 7.20024 10.78C7.21024 10.82 7.20024 10.85 7.17024 10.87L6.62024 11.25L6.83024 11.87C6.83024 11.87 6.83024 11.94 6.80024 11.96C6.77024 11.98 6.73024 11.98 6.70024 11.96L6.15024 11.57L5.60024 11.96C5.60024 11.96 5.53024 11.98 5.50024 11.96C5.47024 11.94 5.46024 11.9 5.47024 11.87L5.68024 11.25L5.13024 10.87C5.13024 10.87 5.09024 10.81 5.10024 10.78C5.11024 10.74 5.14024 10.72 5.18024 10.72H5.86024L6.07024 10.1C6.08024 10.07 6.11024 10.04 6.15024 10.04C6.19024 10.04 6.22024 10.06 6.23024 10.1L6.44024 10.72Z" fill="white"/>
<path fill-rule="evenodd" clip-rule="evenodd" d="M5.79011 3.50004C5.79011 4.20004 5.70011 4.55004 5.54011 5.21004C5.44011 5.60004 5.62011 5.67004 5.88011 5.47004C6.03011 5.36004 6.20011 5.16004 6.32011 4.99004C6.56011 4.64004 6.76011 4.21004 6.81011 3.70004C6.94011 2.48004 6.24011 2.12004 6.34011 0.650042C6.35011 0.440042 6.50011 -0.00995812 6.20011 4.18835e-05C6.03011 4.18835e-05 5.85011 0.340042 5.77011 0.490042C5.14011 1.77004 5.78011 2.70004 5.78011 3.50004" fill="black"/>
</g>
<defs>
<clipPath id="clip0_3790_7007">
<rect width="12.31" height="13.17" fill="white"/>
</clipPath>
</defs>
</svg>
