<svg width="15" height="32" viewBox="0 0 15 32" fill="none" xmlns="http://www.w3.org/2000/svg">
<g clip-path="url(#clip0_3789_5726)">
<path fill-rule="evenodd" clip-rule="evenodd" d="M11.4407 9.62667L11.8147 9.90667C11.8424 9.82667 11.8563 9.74667 11.8147 9.66667C11.8009 9.64 11.7732 9.6 11.7455 9.58667C11.7178 9.56 11.6901 9.56 11.6485 9.54667C11.5654 9.54667 11.4961 9.57333 11.4407 9.61333M12.8396 12.8667C13.1166 12.76 13.366 12.56 13.4491 12.2667C13.4906 12.16 13.4906 12.04 13.4629 11.92C13.4352 11.8 13.3798 11.7067 13.2967 11.6133C13.0889 11.4 12.7842 11.3333 12.4934 11.3467C12.7011 11.5467 12.8535 11.8 12.9089 12.0933C12.9643 12.3467 12.9366 12.6133 12.8396 12.8667ZM11.8978 14.7733H12.0225V14.2933H11.8978V14.7733ZM14.2801 18.1467C14.2801 18.1467 14.3078 18.1467 14.3216 18.16C14.3493 18.1733 14.3909 18.1867 14.4324 18.1867H14.4601C14.6125 18.1333 14.7371 18.0267 14.7925 17.88C14.8618 17.72 14.8479 17.5467 14.7925 17.3867C14.7925 17.3733 14.7925 17.36 14.7787 17.3333C14.7648 17.28 14.6817 17.2667 14.6402 17.2667C14.6263 17.2667 14.5986 17.2667 14.5848 17.2667C14.5709 17.3733 14.5432 17.4667 14.5155 17.56L14.4186 17.84C14.377 17.9467 14.3355 18.0533 14.2801 18.16V18.1467ZM13.4491 15.3067L13.643 15.36C13.7676 15.4 13.8784 15.4533 13.9892 15.5333C14.2385 15.4933 14.474 15.4133 14.6402 15.24C14.7233 15.16 14.7787 15.0533 14.7787 14.9333C14.7787 14.8133 14.751 14.7067 14.6956 14.6133C14.474 14.28 13.9615 14.1733 13.5876 14.1467L13.4629 15.2933L13.4491 15.3067ZM12.0779 14.8933L13.2967 15.2667L13.5183 13.2133L12.4934 13.4C12.3272 13.56 12.1194 13.6667 11.884 13.7333V14.1867H12.1333V14.2667V14.9067H12.064L12.0779 14.8933ZM12.2579 18.9333L12.438 18.9867C12.438 18.9867 12.5765 19.0267 12.6457 19.0267C12.5626 18.88 12.438 18.7467 12.2718 18.6533C12.2718 18.7467 12.2718 18.84 12.2718 18.92L12.2579 18.9333ZM12.1887 19.1867C12.1887 19.1867 12.2579 19.3067 12.2718 19.36L12.4657 19.8933C12.5349 19.84 12.5903 19.7733 12.6319 19.68C12.7288 19.5067 12.7427 19.3467 12.7011 19.1867C12.5903 19.1867 12.4934 19.16 12.3826 19.1333L12.2164 19.08C12.2164 19.08 12.2025 19.1467 12.1887 19.1867ZM12.3272 19.9733L12.1194 19.4133C12.1194 19.4133 12.1056 19.3867 12.0917 19.36C12.0917 19.36 12.0917 19.36 12.0917 19.3733C11.9532 19.6 11.7593 19.7867 11.51 19.9067C11.7732 20.0267 12.0917 20.0667 12.3272 19.96V19.9733ZM10.8036 22.5733C10.8036 22.5733 10.8036 22.64 10.8175 22.68C10.8175 22.64 10.8175 22.6133 10.8036 22.5733ZM10.6651 21.4267C10.7067 21.7867 10.7482 22.1467 10.7898 22.52C10.9006 22.56 11.0114 22.6 11.1222 22.6133C11.3576 22.64 11.5931 22.6133 11.8009 22.52C12.0086 22.44 12.2025 22.3067 12.3549 22.1333C12.6873 21.7333 12.6734 21.2267 12.438 20.7867L10.6651 21.44V21.4267ZM10.5405 20.0133C10.582 20.48 10.6236 20.9467 10.6651 21.4133C10.6651 21.36 10.6651 21.3067 10.6513 21.2533L12.5488 20.5467L12.3826 20.08C12.064 20.2133 11.6762 20.1333 11.3438 19.9733C11.3161 19.9733 11.2884 19.9867 11.2607 20C11.0252 20.0667 10.7759 20.0667 10.5405 20V20.0133ZM10.4435 18.3733C10.4435 18.3733 10.4435 18.4267 10.4435 18.4533C10.4435 18.4267 10.4435 18.4 10.4435 18.3733ZM10.4158 17.6533C10.4158 17.8933 10.4297 18.1333 10.4435 18.3733C10.4435 18.3733 10.4435 18.48 10.4435 18.5333C10.4574 18.88 10.4851 19.2133 10.4989 19.56C10.4989 19.5333 10.4989 19.5067 10.4989 19.4667C10.4989 19.4933 10.4989 19.52 10.4989 19.56C10.4989 19.68 10.5128 19.8 10.5266 19.92C10.5266 19.8933 10.5266 19.88 10.5266 19.8533C10.5543 19.8533 10.582 19.84 10.6236 19.8267C10.9006 19.7333 11.1222 19.5467 11.2607 19.3067C11.2607 19.3067 11.2607 19.2933 11.2745 19.28C11.3299 19.1733 11.3576 19.0533 11.3715 18.9333C11.3715 18.9333 11.3715 18.9333 11.3715 18.92C11.3715 18.92 11.3715 18.92 11.3715 18.9067C11.3715 18.9067 11.3715 18.9067 11.3715 18.8933C11.3715 18.8933 11.3715 18.8933 11.3715 18.88C11.3715 18.88 11.3715 18.88 11.3715 18.8667C11.3715 18.8667 11.3715 18.8667 11.3715 18.8533C11.3715 18.8533 11.3715 18.8533 11.3715 18.84C11.3715 18.84 11.3715 18.8267 11.3715 18.8133C11.3715 18.8133 11.3715 18.8133 11.3715 18.8C11.3715 18.8 11.3715 18.8 11.3715 18.7867C11.3715 18.7867 11.3715 18.7867 11.3715 18.7733C11.3715 18.7733 11.3715 18.7733 11.3715 18.76C11.3715 18.76 11.3715 18.76 11.3715 18.7467C11.3715 18.7467 11.3715 18.7467 11.3715 18.7333C11.3715 18.7333 11.3715 18.7333 11.3715 18.72C11.3715 18.72 11.3715 18.72 11.3715 18.7067C11.3715 18.7067 11.3715 18.7067 11.3715 18.6933C11.3715 18.6933 11.3715 18.6933 11.3715 18.68C11.3715 18.68 11.3715 18.68 11.3715 18.6667C11.3715 18.6667 11.3715 18.6667 11.3715 18.6533C11.3715 18.6533 11.3715 18.6533 11.3715 18.64C11.3715 18.64 11.3715 18.64 11.3715 18.6267C11.3715 18.6267 11.3715 18.6267 11.3715 18.6133C11.3715 18.6133 11.3715 18.6133 11.3715 18.6C11.3715 18.6 11.3715 18.6 11.3715 18.5867C11.3715 18.5867 11.3715 18.5867 11.3715 18.5733C11.3715 18.5733 11.3715 18.56 11.3715 18.5467C11.2884 18.24 11.0806 18 10.7898 17.84C10.5128 17.6933 10.1804 17.6533 9.8618 17.7333L10.4158 17.6533ZM10.4158 15.7733C10.4158 16.3467 10.4158 16.92 10.4158 17.4933C10.4574 17.4933 10.4851 17.4667 10.5266 17.4533C10.8729 17.36 11.2468 17.4 11.5654 17.5733H11.5792C11.8978 17.76 12.1333 18.04 12.2302 18.3867C12.2302 18.4267 12.2441 18.4667 12.2579 18.5067C12.5072 18.6267 12.7011 18.8133 12.7981 19.04C13.0474 19.04 13.2828 18.9467 13.5045 18.8133C13.8646 18.5733 14.1277 18.2 14.2662 17.8L14.3632 17.52C14.5017 17.12 14.5017 16.6667 14.3632 16.2667C14.2801 16.0667 14.1693 15.8933 14.0031 15.7467C13.9892 15.7333 13.9754 15.72 13.9477 15.7067L13.7122 15.56C13.7122 15.56 13.643 15.5333 13.6014 15.52L13.4906 15.4933H13.4352L11.9117 15.0133L11.9394 15.8933H11.1776V15.9067H10.4158C10.4158 15.9067 10.4158 15.88 10.4158 15.8667V15.7733ZM10.5266 13.2133C10.5266 13.2133 10.5266 13.3467 10.5128 13.4133C10.4712 13.9067 10.4574 14.3867 10.4297 14.88C10.4297 15.1733 10.4158 15.4667 10.402 15.76L11.787 15.7333V14.9467L11.7455 13.5867V13.5067V13.28H10.6236L10.5128 13.3067C10.5128 13.28 10.5128 13.2533 10.5128 13.2267L10.5266 13.2133ZM10.5266 13.1333C10.5266 13.1333 10.5266 13.1733 10.5266 13.2C10.5266 13.2 10.5266 13.16 10.5266 13.1333ZM10.6513 11.3867C10.6236 11.8133 10.5959 12.24 10.5682 12.68C10.5682 12.84 10.5405 12.9867 10.5266 13.1467L11.8701 13.12V13.1867V13.5467C12.0779 13.48 12.2441 13.3733 12.3964 13.2267C12.3964 13.2267 12.4241 13.2 12.438 13.1867C12.438 13.1867 12.5072 13.1067 12.5488 13.0533C12.7427 12.7733 12.8119 12.44 12.7565 12.12C12.6873 11.7867 12.4934 11.5067 12.2164 11.32C12.1194 11.2533 12.0086 11.2 11.8978 11.1733L11.5792 11.8667L11.4961 11.8L10.8036 11.2933C10.8036 11.2933 10.7067 11.36 10.6513 11.4V11.3867ZM10.8452 9.33333C10.7759 9.89333 10.7344 10.44 10.679 11L10.8036 11.0933L10.9421 11.2L11.4961 11.6133L11.7178 11.12L11.787 10.9733L12.0917 10.2933L10.8452 9.34667H10.8313L10.8452 9.33333ZM4.9726 15.28L4.29393 13.24C3.83686 13.3467 3.44905 13.6267 3.3521 14.0933C3.31055 14.28 3.3244 14.48 3.39365 14.6667C3.4629 14.8533 3.57371 15.0133 3.72606 15.1467C4.08617 15.4533 4.54324 15.4533 4.9726 15.2933V15.28ZM4.58479 10.2133C4.11387 10.0933 3.57371 10.0267 3.2413 10.5333C3.00584 10.9867 3.2413 11.3733 3.55986 11.6533C3.55986 11.3867 3.62911 11.08 3.78146 10.8667C3.97537 10.5733 4.23853 10.3467 4.58479 10.2133ZM1.30224 13.6C1.20529 13.6 1.10833 13.5733 1.01138 13.6C0.859026 13.64 0.748222 13.76 0.706671 13.9067C0.609718 14.2267 0.817474 14.4133 1.09448 14.4933C1.09448 14.2133 1.16373 13.88 1.28839 13.6H1.30224ZM2.61803 19.7467C2.53493 19.8133 2.45182 19.8933 2.43797 20C2.43797 20.04 2.43797 20.0933 2.43797 20.1333C2.45182 20.1733 2.47952 20.2 2.52108 20.2267C2.60418 20.28 2.71498 20.2933 2.81193 20.28L2.61803 19.7467ZM3.80916 20.84H4.01692C4.01692 20.7467 4.03077 20.6667 4.04462 20.5733C3.96152 20.6533 3.87842 20.7333 3.80916 20.84ZM4.01692 20.9867L3.69836 21.0133C3.61526 21.16 3.57371 21.32 3.57371 21.4933C3.57371 21.64 3.61526 21.7867 3.69836 21.92C3.78146 22.0533 3.89227 22.1467 4.01692 22.2267C4.32163 22.3867 4.68174 22.36 5.0003 22.2533C4.61249 22.1067 4.30778 21.84 4.14157 21.48C4.07232 21.32 4.03077 21.16 4.01692 21V20.9867ZM3.96152 18.32L3.85072 18.3867L3.87842 18.5467L4.00307 18.52L3.96152 18.3067V18.32ZM3.82301 18.2267L3.93382 18.16L3.90612 18.0267L3.78146 18.0533L3.80916 18.24L3.82301 18.2267ZM1.77315 17.96L1.92551 16.7067C1.46844 16.6533 0.720522 16.64 0.33271 16.9467C0.249607 17.0133 0.194206 17.0933 0.180355 17.2C0.180355 17.3067 0.208056 17.4 0.277308 17.48C0.582017 17.8267 1.31609 17.9333 1.7593 17.96H1.77315ZM3.67066 18.32L3.60141 17.9067H3.68451L3.89227 17.8533L3.67066 16.64H3.75376L3.97537 16.5867L2.34102 16.3067C2.34102 16.3067 2.21637 16.28 2.16096 16.2667L1.82855 18.9867L2.90889 18.8L3.68451 18.3067L3.67066 18.32ZM5.44351 16.4933L3.85072 16.7733L4.39088 19.7467L5.27731 19.5867C5.27731 19.4933 5.27731 19.4 5.29116 19.3067C5.37426 18.36 5.41581 17.4267 5.44351 16.4933ZM5.44351 15.48L5.06955 15.5733L5.028 15.44C4.54324 15.6267 4.03077 15.6 3.62911 15.2667C3.4629 15.12 3.3244 14.9333 3.25515 14.72C3.1859 14.5067 3.15819 14.28 3.2136 14.0667C3.3244 13.5467 3.75376 13.2267 4.26623 13.0933L4.23853 13L4.32163 12.9733L4.40473 12.9467C4.28008 12.88 4.16928 12.8 4.07232 12.7067L3.13049 12.5467C2.74268 12.48 2.35487 12.6133 2.05016 12.8533C1.69005 13.1467 1.45459 13.5867 1.35764 14.0267C1.24684 14.4933 1.26069 15.0667 1.49615 15.5067C1.6762 15.84 1.98091 16.0933 2.36872 16.16L4.41858 16.52L5.45736 16.3333C5.45736 16.0533 5.45736 15.76 5.45736 15.48H5.44351ZM5.37426 13.16C5.09725 13.1867 4.8341 13.16 4.58479 13.0533L4.41858 13.1067L5.18036 15.3867L5.44351 15.32C5.44351 14.6 5.41581 13.88 5.37426 13.16ZM5.1388 10.2667C5.0003 10.2667 4.87565 10.2933 4.75099 10.3333C4.40473 10.44 4.10002 10.6533 3.90612 10.96C3.71221 11.28 3.68451 11.6533 3.78146 12.0133C3.97537 12.68 4.66789 13.08 5.36041 13.0133C5.30501 12.0933 5.23576 11.1867 5.12495 10.28L5.1388 10.2667ZM5.04185 22.4C4.68174 22.52 4.28008 22.5333 3.93382 22.36C3.76761 22.28 3.64296 22.1467 3.54601 22C3.44905 21.8533 3.4075 21.68 3.4075 21.4933C3.4075 21.3333 3.44905 21.1733 3.50446 21.0267L3.10279 21.0533L3.07509 21L2.86734 20.44C2.71498 20.4667 2.54878 20.4533 2.42412 20.36C2.36872 20.32 2.32717 20.2533 2.29947 20.2C2.27177 20.1333 2.27177 20.0667 2.27177 20C2.29947 19.84 2.41027 19.7067 2.56263 19.6133L2.38257 19.1333L2.43797 19.0933L2.54878 19.0267L1.6208 19.1867L1.74545 18.12C1.24684 18.0933 0.485064 17.9733 0.152655 17.5867C0.0557016 17.48 -0.0135505 17.3467 0.000299935 17.2C0.0141504 17.0533 0.0972528 16.9333 0.221907 16.84C0.637419 16.5067 1.42689 16.5067 1.93936 16.5733V16.4933L1.98091 16.2267C1.98091 16.2267 1.48229 15.8667 1.32994 15.6C1.17759 15.32 1.10833 15 1.10833 14.6933C0.706671 14.5867 0.443513 14.3067 0.568167 13.88C0.720522 13.4667 0.983679 13.44 1.37149 13.48C1.49614 13.2 1.6762 12.96 1.92551 12.76C2.25792 12.4933 2.70113 12.3333 3.13049 12.4133L3.87842 12.5467C3.76761 12.4 3.68451 12.24 3.62911 12.0667C3.62911 12.0267 3.60141 11.9733 3.60141 11.9333C3.15819 11.5867 2.78423 11.0533 3.10279 10.5067C3.4629 9.88 4.28008 9.96 4.8895 10.1733C4.9726 10.16 5.0557 10.1467 5.1388 10.1467C5.04185 9.28 4.9172 8.42667 4.77869 7.56C4.77869 7.46667 4.90335 7.42667 4.9449 7.54667C6.08063 12.9333 5.96983 19.16 4.9172 24.5333C4.87565 24.64 4.77869 24.6133 4.77869 24.5333C4.8895 23.84 4.9726 23.1333 5.0557 22.44L5.04185 22.4ZM8.25515 8.94667C8.25515 8.94667 8.36595 9 8.42135 9.04C8.54601 9.16 8.53216 9.4 8.50445 9.54667C8.50445 9.6 8.50445 9.64 8.50445 9.69333C8.50445 9.72 8.50445 9.74667 8.53216 9.76C8.54601 9.77333 8.57371 9.78667 8.60141 9.78667H8.80917C8.80917 9.78667 8.85072 9.78667 8.87842 9.76C8.89227 9.74667 8.90612 9.72 8.91997 9.69333C8.91997 9.64 8.93382 9.6 8.94767 9.54667C8.97537 9.32 9.00307 8.94667 8.87842 8.73333C8.80916 8.62667 8.71221 8.53333 8.60141 8.46667C8.44905 8.37333 8.269 8.32 8.10279 8.26667L6.95321 7.96C6.95321 7.96 6.91166 7.96 6.88396 7.96C6.87011 7.97333 6.85626 8 6.85626 8.01333V8.4C6.85626 8.4 6.85626 8.45333 6.88396 8.48C6.91166 8.50667 6.93936 8.52 6.96706 8.53333L7.65958 8.72L7.86734 8.77333C7.86734 8.77333 7.86734 8.98667 7.83963 9.02667C7.79808 9.13333 7.64573 9.21333 7.54878 9.25333C7.43797 9.30667 7.28562 9.36 7.17482 9.38667L6.98091 9.44C6.98091 9.44 6.93936 9.45333 6.92551 9.48C6.91166 9.49333 6.89781 9.52 6.88396 9.53333C6.88396 9.54667 6.87011 9.57333 6.87011 9.6V9.98667C6.87011 9.98667 6.87011 10.0267 6.89781 10.04C6.91166 10.0533 6.93936 10.0533 6.95321 10.04L7.25792 9.94667C7.42412 9.89333 7.65958 9.81333 7.81193 9.73333C7.90889 9.68 8.00584 9.61333 8.08894 9.53333C8.14434 9.46667 8.19975 9.38667 8.22745 9.30667C8.25515 9.22667 8.269 9 8.269 8.90667V8.88H8.2967L8.25515 8.94667ZM8.269 31.4133H6.92551C6.92551 31.4133 6.87011 31.4133 6.85626 31.44C6.8424 31.4533 6.82855 31.48 6.82855 31.5067V31.8933C6.82855 31.8933 6.82855 31.9467 6.85626 31.96C6.87011 31.9733 6.89781 31.9867 6.92551 31.9867H8.79531C8.79531 31.9867 8.85072 31.9867 8.86457 31.96C8.87842 31.9467 8.89227 31.92 8.89227 31.8933V31.3733C8.89227 31.3733 8.89227 31.32 8.87842 31.3067C8.87842 31.28 8.85072 31.2533 8.83687 31.24C8.82302 31.2133 8.79531 31.2 8.76761 31.1867L7.45182 30.4933H8.79531C8.79531 30.4933 8.85072 30.4933 8.86457 30.4667C8.87842 30.4533 8.89227 30.4267 8.89227 30.4V30.0133C8.89227 30.0133 8.89227 29.96 8.86457 29.9467C8.85072 29.9333 8.82301 29.92 8.79531 29.92H6.92551C6.92551 29.92 6.87011 29.92 6.85626 29.9467C6.8424 29.96 6.82855 29.9867 6.82855 30.0133V30.5333C6.82855 30.5333 6.82856 30.5867 6.84241 30.6C6.84241 30.6267 6.87011 30.6533 6.88396 30.6667C6.89781 30.6933 6.92551 30.7067 6.95321 30.72L8.269 31.4133ZM8.90612 27.9467C8.90612 27.9467 8.90612 27.88 8.87842 27.8533C8.85072 27.8267 8.82301 27.8 8.79531 27.7867L7.52108 27.28H8.82301C8.82301 27.28 8.87842 27.28 8.89227 27.2533C8.90612 27.24 8.91997 27.2133 8.91997 27.1867V26.7867C8.91997 26.7867 8.91997 26.7333 8.89227 26.72C8.87842 26.7067 8.85072 26.6933 8.82301 26.6933H6.95321C6.95321 26.6933 6.89781 26.6933 6.88396 26.72C6.87011 26.7333 6.85626 26.76 6.85626 26.7867V27.4267C6.85626 27.4267 6.85626 27.4933 6.89781 27.52C6.92551 27.5467 6.95321 27.5733 6.99476 27.5867L8.1859 28.0533L6.99476 28.52C6.99476 28.52 6.92551 28.56 6.89781 28.5867C6.87011 28.6133 6.87011 28.64 6.85626 28.68V29.32C6.85626 29.32 6.85626 29.3733 6.88396 29.3867C6.89781 29.4 6.92551 29.4133 6.95321 29.4133H8.82301C8.82301 29.4133 8.87842 29.4133 8.89227 29.3867C8.90612 29.3733 8.91997 29.3467 8.91997 29.32V28.92C8.91997 28.92 8.91997 28.8667 8.89227 28.8533C8.87842 28.84 8.85072 28.8267 8.82301 28.8267H7.52108L8.79531 28.32C8.79531 28.32 8.86457 28.28 8.87842 28.2533C8.90612 28.2267 8.90612 28.2 8.90612 28.16V27.9733V27.9467ZM6.92551 24.1333C6.92551 24.1333 6.87011 24.1333 6.85626 24.16C6.8424 24.1733 6.82855 24.2 6.82855 24.2267V26.0933C6.82855 26.0933 6.82855 26.1467 6.85626 26.16C6.87011 26.1733 6.89781 26.1867 6.92551 26.1867H8.79531C8.79531 26.1867 8.85072 26.1867 8.86457 26.16C8.87842 26.1467 8.89227 26.12 8.89227 26.0933V25.68C8.89227 25.68 8.89227 25.6267 8.86457 25.6133C8.85072 25.6 8.82301 25.5867 8.79531 25.5867H7.24407V24.7333H8.79531C8.79531 24.7333 8.85072 24.7333 8.86457 24.7067C8.87842 24.6933 8.89227 24.6667 8.89227 24.64V24.2267C8.89227 24.2267 8.89227 24.1733 8.86457 24.16C8.85072 24.1467 8.82301 24.1333 8.79531 24.1333H6.92551ZM8.269 18.32H6.92551C6.92551 18.32 6.87011 18.32 6.85626 18.3467C6.8424 18.36 6.82855 18.3867 6.82855 18.4133V18.8C6.82855 18.8 6.82855 18.8533 6.85626 18.8667C6.87011 18.88 6.89781 18.8933 6.92551 18.8933H8.79531C8.79531 18.8933 8.85072 18.8933 8.86457 18.8667C8.87842 18.8533 8.89227 18.8267 8.89227 18.8V18.28C8.89227 18.28 8.89227 18.2267 8.87842 18.2133C8.87842 18.1867 8.85072 18.16 8.83687 18.1467C8.82302 18.12 8.79531 18.1067 8.76761 18.0933L7.45182 17.4H8.79531C8.79531 17.4 8.85072 17.4 8.86457 17.3733C8.87842 17.36 8.89227 17.3333 8.89227 17.3067V16.92C8.89227 16.92 8.89227 16.8667 8.86457 16.8533C8.85072 16.84 8.82301 16.8267 8.79531 16.8267H6.92551C6.92551 16.8267 6.87011 16.8267 6.85626 16.8533C6.8424 16.8667 6.82855 16.8933 6.82855 16.92V17.44C6.82855 17.44 6.82856 17.4933 6.84241 17.5067C6.84241 17.5333 6.87011 17.56 6.88396 17.5733C6.89781 17.6 6.92551 17.6133 6.95321 17.6267L8.269 18.32ZM7.74268 15.5467C7.74268 15.6133 7.72883 15.68 7.67343 15.7333C7.61803 15.7867 7.54878 15.8 7.47952 15.8C7.41027 15.8 7.34102 15.7733 7.28562 15.7333C7.23022 15.68 7.21637 15.6133 7.21637 15.5467V15.0133H7.74268V15.5467ZM8.14434 15.0133H8.79531C8.79531 15.0133 8.85072 15.0133 8.86457 14.9867C8.87842 14.9733 8.89227 14.9467 8.89227 14.92V14.5067C8.89227 14.5067 8.89227 14.4533 8.86457 14.44C8.85072 14.4267 8.82301 14.4133 8.79531 14.4133H6.92551C6.92551 14.4133 6.87011 14.4133 6.85626 14.44C6.8424 14.4533 6.82855 14.48 6.82855 14.5067V15.6C6.82855 15.7067 6.82855 15.8267 6.85626 15.9333C6.88396 16.0267 6.91166 16.1067 6.96706 16.1867C7.02246 16.2533 7.09171 16.3067 7.17482 16.3467C7.27177 16.3867 7.38257 16.4 7.49337 16.4C7.59033 16.4 7.68728 16.4 7.77038 16.36C7.83964 16.3333 7.90889 16.2933 7.96429 16.2267C8.01969 16.16 8.06124 16.0933 8.08894 16.0133V15.9867L8.76761 16.3733C8.79531 16.3733 8.80917 16.4 8.83687 16.4C8.85072 16.4 8.86457 16.4 8.87842 16.3867C8.89227 16.3733 8.89227 16.3467 8.89227 16.3333V16C8.89227 16 8.89227 15.88 8.85072 15.8267C8.82301 15.7867 8.78146 15.7467 8.73991 15.72L8.14434 15.4V15V15.0133ZM7.21637 11.24C7.21637 11.1467 7.23022 11.0667 7.27177 10.9867C7.29947 10.92 7.34102 10.8667 7.41027 10.8267C7.45182 10.8 7.47952 10.7733 7.50723 10.7467C7.53493 10.72 7.53493 10.68 7.54878 10.64V10.36C7.54878 10.36 7.54878 10.3067 7.52108 10.2933C7.50723 10.28 7.47952 10.2667 7.45182 10.2667C7.31332 10.2667 7.18867 10.3067 7.09171 10.3867C6.98091 10.48 6.91166 10.6 6.87011 10.7333C6.8147 10.9067 6.80085 11.1067 6.80085 11.2933C6.80085 11.4933 6.82856 11.7067 6.92551 11.88C7.00861 12.04 7.11941 12.16 7.28562 12.2533C7.46567 12.3467 7.67343 12.3867 7.88119 12.3867C8.08894 12.3867 8.2967 12.36 8.47675 12.2533C8.64296 12.1733 8.75376 12.04 8.83687 11.88C8.93382 11.6933 8.96152 11.48 8.96152 11.28C8.96152 11.0933 8.94767 10.9067 8.89227 10.72C8.85072 10.5867 8.78146 10.4667 8.67066 10.3733C8.57371 10.2933 8.44905 10.2533 8.31055 10.2533C8.28285 10.2533 8.25515 10.2533 8.2413 10.28C8.22745 10.2933 8.2136 10.32 8.2136 10.3467V10.6267C8.2136 10.6267 8.2136 10.7067 8.25515 10.7333C8.28285 10.7733 8.31055 10.8 8.3521 10.8133C8.42135 10.8533 8.4629 10.9067 8.49061 10.9733C8.53216 11.0533 8.54601 11.1467 8.54601 11.2267C8.54601 11.3333 8.53216 11.44 8.47675 11.5333C8.42135 11.6133 8.3521 11.6667 8.25515 11.7067C8.14434 11.7467 8.00584 11.76 7.89504 11.76C7.77038 11.76 7.64573 11.76 7.53493 11.72C7.43797 11.6933 7.36872 11.64 7.31332 11.56C7.25792 11.4667 7.24407 11.36 7.24407 11.2667L7.21637 11.24ZM8.90612 6.24C8.90612 6.24 8.90612 6.17333 8.87842 6.14667C8.85072 6.12 8.82301 6.09333 8.79531 6.08L7.52108 5.57333H8.82301C8.82301 5.57333 8.87842 5.57333 8.89227 5.54667C8.90612 5.53333 8.91997 5.50667 8.91997 5.48V5.08C8.91997 5.08 8.91997 5.02667 8.89227 5.01333C8.87842 5 8.85072 4.98667 8.82301 4.98667H6.95321C6.95321 4.98667 6.89781 4.98667 6.88396 5.01333C6.87011 5.02667 6.85626 5.05333 6.85626 5.08V5.72C6.85626 5.72 6.85626 5.78667 6.89781 5.81333C6.92551 5.84 6.95321 5.86667 6.99476 5.88L8.1859 6.34667L6.99476 6.81333C6.99476 6.81333 6.92551 6.85333 6.89781 6.88C6.87011 6.90667 6.87011 6.93333 6.85626 6.97333V7.61333C6.85626 7.61333 6.85626 7.66667 6.88396 7.68C6.89781 7.69333 6.92551 7.70667 6.95321 7.70667H8.82301C8.82301 7.70667 8.87842 7.70667 8.89227 7.68C8.90612 7.66667 8.91997 7.64 8.91997 7.61333V7.21333C8.91997 7.21333 8.91997 7.16 8.89227 7.14667C8.87842 7.13333 8.85072 7.12 8.82301 7.12H7.52108L8.79531 6.61333C8.79531 6.61333 8.86457 6.57333 8.87842 6.54667C8.90612 6.52 8.90612 6.49333 8.90612 6.45333V6.26667V6.24ZM8.54601 3.49333C8.54601 3.58667 8.53216 3.69333 8.47675 3.77333C8.42135 3.85333 8.33825 3.90667 8.25515 3.93333C8.13049 3.97333 7.99199 3.98667 7.86734 3.98667C7.74268 3.98667 7.60418 3.98667 7.47952 3.93333C7.38257 3.90667 7.31332 3.85333 7.25792 3.77333C7.20252 3.69333 7.18867 3.58667 7.18867 3.49333C7.18867 3.4 7.20252 3.29333 7.25792 3.21333C7.31332 3.13333 7.38257 3.08 7.47952 3.05333C7.60418 3.01333 7.74268 3 7.86734 3C7.99199 3 8.13049 3 8.25515 3.05333C8.3521 3.08 8.42135 3.13333 8.47675 3.21333C8.53216 3.29333 8.54601 3.4 8.54601 3.49333ZM6.787 3.49333C6.787 3.69333 6.8147 3.90667 6.91166 4.09333C6.99476 4.25333 7.10556 4.37333 7.27177 4.46667C7.45182 4.56 7.65958 4.6 7.86734 4.6C8.07509 4.6 8.28285 4.57333 8.4629 4.46667C8.62911 4.38667 8.73991 4.25333 8.82301 4.09333C8.91997 3.90667 8.94767 3.69333 8.94767 3.49333C8.94767 3.29333 8.91997 3.08 8.82301 2.89333C8.73991 2.73333 8.62911 2.61333 8.4629 2.52C8.28285 2.42667 8.07509 2.38667 7.86734 2.38667C7.65958 2.38667 7.45182 2.41333 7.27177 2.52C7.10556 2.6 6.99476 2.73333 6.91166 2.89333C6.8147 3.08 6.787 3.29333 6.787 3.49333ZM6.99476 0.106667C6.99476 0.106667 6.93936 0.08 6.91166 0.08C6.89781 0.08 6.87011 0.08 6.85626 0.0933333C6.8424 0.106667 6.84241 0.133333 6.84241 0.146667V0.506667C6.84241 0.506667 6.84241 0.573333 6.87011 0.6C6.88396 0.626667 6.89781 0.666667 6.92551 0.693333C6.95321 0.72 6.98091 0.746667 7.02246 0.76L7.42412 0.933333C7.50723 0.973333 7.57648 1.02667 7.63188 1.10667C7.68728 1.18667 7.70113 1.29333 7.70113 1.38667L6.96706 1.4C6.93936 1.4 6.91166 1.4 6.89781 1.42667C6.88396 1.44 6.87011 1.46667 6.87011 1.49333V1.90667C6.87011 1.90667 6.87011 1.96 6.89781 1.97333C6.91166 1.98667 6.93936 2 6.96706 2H8.83687C8.83687 2 8.89227 2 8.90612 1.97333C8.91997 1.96 8.93382 1.93333 8.93382 1.90667V1.49333C8.93382 1.49333 8.93382 1.44 8.90612 1.42667C8.89227 1.41333 8.86457 1.4 8.83687 1.4H8.10279C8.10279 1.32 8.10279 1.26667 8.13049 1.21333C8.14434 1.16 8.18589 1.10667 8.2136 1.05333C8.25515 1 8.31055 0.96 8.36595 0.933333L8.76761 0.693333C8.76761 0.693333 8.83687 0.653333 8.85072 0.626667C8.87842 0.6 8.89227 0.573333 8.90612 0.533333C8.91997 0.493333 8.93382 0.466667 8.93382 0.426667V0.08C8.93382 0.08 8.93382 0.04 8.91997 0.0133333C8.91997 0 8.89227 0 8.86457 0C8.83687 0 8.80917 0.0133333 8.78146 0.0266667L8.25515 0.346667C8.17205 0.4 8.08894 0.453333 8.03354 0.52C7.97814 0.586667 7.93659 0.653333 7.92274 0.72L7.89504 0.786667V0.706667C7.89504 0.706667 7.83963 0.6 7.81193 0.56C7.78423 0.506667 7.74268 0.466667 7.70113 0.426667C7.65958 0.386667 7.60418 0.36 7.54878 0.333333L7.02246 0.0933333L6.99476 0.106667ZM7.75653 20.12V20.6533H7.23022V20.12C7.23022 20.0533 7.24407 19.9733 7.29947 19.9333C7.39642 19.84 7.57648 19.84 7.67343 19.9333C7.72883 19.9867 7.74268 20.0533 7.74268 20.12H7.75653ZM8.15819 20.6533V20.2667C8.15819 19.9333 8.15819 19.4533 7.78423 19.3067C7.60418 19.24 7.35487 19.24 7.18867 19.32C6.89781 19.4533 6.84241 19.7867 6.84241 20.0667V21.16C6.84241 21.16 6.84241 21.2133 6.87011 21.2267C6.88396 21.24 6.91166 21.2533 6.93936 21.2533H8.80917C8.80917 21.2533 8.86457 21.2533 8.87842 21.2267C8.89227 21.2133 8.90612 21.1867 8.90612 21.16V20.7467C8.90612 20.7467 8.90612 20.6933 8.87842 20.68C8.86457 20.6667 8.83687 20.6533 8.80917 20.6533H8.15819ZM6.84241 21.72V23.5867C6.84241 23.5867 6.84241 23.64 6.87011 23.6533C6.88396 23.6667 6.91166 23.68 6.93936 23.68H8.80917C8.80917 23.68 8.86457 23.68 8.87842 23.6533C8.89227 23.64 8.90612 23.6133 8.90612 23.5867V23.1733V21.72C8.90612 21.72 8.90612 21.6667 8.87842 21.6533C8.86457 21.64 8.83687 21.6267 8.80917 21.6267H8.57371C8.57371 21.6267 8.51831 21.6267 8.50445 21.6533C8.4906 21.6667 8.47675 21.6933 8.47675 21.72V23.08H8.08894V21.9867C8.08894 21.9867 8.08894 21.9333 8.06124 21.92C8.04739 21.9067 8.01969 21.8933 7.99199 21.8933H7.75653C7.75653 21.8933 7.70113 21.8933 7.68728 21.92C7.67343 21.9333 7.65958 21.96 7.65958 21.9867V23.08H7.25792V21.72C7.25792 21.72 7.25792 21.6667 7.23022 21.6533C7.21637 21.64 7.18867 21.6267 7.16096 21.6267H6.92551C6.92551 21.6267 6.87011 21.6267 6.85626 21.6533C6.8424 21.6667 6.82855 21.6933 6.82855 21.72H6.84241ZM11.0945 24.48C11.0945 24.5733 10.9698 24.6133 10.9283 24.4933C9.79254 19.1067 9.90335 12.88 10.956 7.50667C10.9975 7.4 11.0945 7.42667 11.0945 7.50667C11.0114 8.06667 10.9283 8.62667 10.8729 9.18667L10.9144 9.22667L11.3161 9.53333C11.413 9.45333 11.5377 9.38667 11.6762 9.4C11.7455 9.4 11.8009 9.42667 11.8563 9.46667C11.9117 9.50667 11.9532 9.56 11.9671 9.61333C12.0225 9.74667 12.0086 9.88 11.9532 10.0133L12.3133 10.28L12.2856 10.3333L11.9671 11.04C12.0917 11.08 12.2025 11.1333 12.3133 11.2133H12.341C12.7288 11.1867 13.1582 11.24 13.4352 11.5333C13.5322 11.64 13.6014 11.7733 13.643 11.9067C13.6707 12.0533 13.6707 12.2 13.6291 12.3333C13.5045 12.72 13.1582 12.9733 12.7704 13.08C12.7565 13.1067 12.7288 13.1333 12.715 13.16C12.715 13.16 12.7011 13.1867 12.6873 13.2L13.7261 13.0133V13.12L13.6153 14C14.0585 14.0267 14.5986 14.16 14.8479 14.5333C14.931 14.6533 14.9726 14.8 14.9587 14.9467C14.9587 15.0933 14.8756 15.2267 14.7787 15.3467C14.6263 15.52 14.4047 15.6133 14.1693 15.6667C14.3216 15.8133 14.4463 16 14.5155 16.2C14.6263 16.48 14.654 16.8 14.6263 17.1067C14.654 17.1067 14.6679 17.1067 14.6956 17.12C14.8202 17.1467 14.9172 17.16 14.9587 17.2933C14.9587 17.3067 14.9587 17.3333 14.9726 17.3467C15.028 17.5467 15.0419 17.76 14.9726 17.9467C14.8895 18.1333 14.7371 18.2667 14.5432 18.3333C14.5432 18.3333 14.5155 18.3333 14.5017 18.3333C14.4186 18.36 14.3632 18.3333 14.2801 18.3067C14.2662 18.3067 14.2385 18.2933 14.2247 18.28C14.0723 18.5333 13.8646 18.76 13.6153 18.92C13.3937 19.0667 13.1443 19.16 12.8812 19.1733C12.9227 19.3467 12.9089 19.5467 12.7981 19.7333C12.7288 19.8533 12.6457 19.9467 12.5488 20.0133L12.7842 20.6533L12.6319 20.7067C12.8812 21.2133 12.895 21.76 12.5211 22.2133C12.3549 22.4133 12.1471 22.56 11.9117 22.6533C11.6762 22.7467 11.413 22.7867 11.1499 22.76C11.0529 22.76 10.956 22.72 10.859 22.6933C10.9421 23.2933 11.0252 23.88 11.1222 24.48H11.0945ZM4.72329 19.8533C4.52939 20 4.37703 20.1867 4.28008 20.4C4.14157 20.72 4.14157 21.0933 4.29393 21.4133C4.44628 21.7333 4.72329 21.9867 5.06955 22.1067C5.15265 21.32 5.20806 20.5333 5.26346 19.7467L4.70944 19.84L4.39088 19.8933L4.23853 19.92L4.01692 18.6667L3.73991 18.72V18.64L3.69836 18.4667L2.59033 19.1733L3.22745 20.8667L3.60141 20.84C3.73991 20.6267 3.91997 20.44 4.14157 20.2933C4.21083 20.1467 4.29393 20 4.40473 19.88" fill="black"/>
</g>
<defs>
<clipPath id="clip0_3789_5726">
<rect width="15" height="32" fill="white"/>
</clipPath>
</defs>
</svg>
