<svg width="29" height="6" viewBox="0 0 29 6" fill="none" xmlns="http://www.w3.org/2000/svg">
<g clip-path="url(#clip0_3789_5500)">
<path d="M0 3V0H29V6H0V3ZM28.9186 3.00711V0.0781991H14.4972H0.0739749L0.0776736 3.00711L0.0813724 5.93602H28.9186V3.00533V3.00711ZM16.1506 4.17299C16.1321 4.16943 16.0803 4.16055 16.0359 4.15344C15.9231 4.13389 15.7992 4.09656 15.6993 4.05036C15.6142 4.01126 15.4182 3.87796 15.4182 3.85841C15.4182 3.85308 15.4829 3.79621 15.5643 3.73045L15.7104 3.61315L15.7844 3.67002C15.9083 3.76777 16.0137 3.80687 16.2116 3.83175C16.3429 3.84775 16.5371 3.83886 16.6425 3.8122C16.796 3.7731 16.8626 3.7109 16.8626 3.60604C16.8626 3.55273 16.857 3.53318 16.833 3.51007C16.772 3.45498 16.7054 3.44076 16.3947 3.41588C16.2282 3.40166 16.0525 3.38211 16.0045 3.36967C15.6845 3.29502 15.5162 3.08175 15.5625 2.81161C15.5902 2.64988 15.7067 2.51126 15.888 2.4295C16.0341 2.36197 16.1524 2.34064 16.3817 2.34242C16.6037 2.34242 16.7572 2.3673 16.9255 2.42773C17.0346 2.46682 17.2269 2.57168 17.2269 2.59123C17.2269 2.60012 17.066 2.73697 16.968 2.80983C16.9476 2.82583 16.931 2.8205 16.833 2.77429C16.6832 2.7032 16.5685 2.67832 16.3799 2.67832C16.1839 2.67832 16.0877 2.7032 16.0156 2.77251C15.9712 2.81517 15.9638 2.82938 15.9638 2.88448C15.9638 3.016 16.0359 3.04799 16.4113 3.07642C16.5537 3.08709 16.7109 3.10308 16.7627 3.11019C17.1048 3.16351 17.2694 3.32168 17.2713 3.59893C17.2713 3.74645 17.238 3.83175 17.1326 3.93839C16.9791 4.09656 16.7664 4.16588 16.4076 4.17299C16.2856 4.17476 16.1709 4.17476 16.1524 4.17299H16.1506ZM18.6935 4.16232C18.5529 4.141 18.4086 4.09834 18.3051 4.04858C18.22 4.0077 18.0295 3.87796 18.0295 3.86019C18.0295 3.85486 18.0758 3.8122 18.1331 3.766C18.1904 3.71979 18.2551 3.66647 18.2792 3.6487L18.3199 3.61493L18.3865 3.66647C18.5437 3.79088 18.7008 3.83709 18.9764 3.83709C19.3204 3.83709 19.4794 3.76244 19.4794 3.60249C19.4794 3.55806 19.472 3.53851 19.4406 3.51007C19.3814 3.4532 19.3333 3.44431 18.8636 3.40521C18.4993 3.375 18.3106 3.28791 18.2163 3.10308C18.1035 2.88448 18.1793 2.62855 18.3994 2.4846C18.7212 2.2731 19.3648 2.29621 19.7531 2.53258C19.8031 2.5628 19.8438 2.59123 19.8438 2.59479C19.8438 2.60545 19.5645 2.82761 19.5516 2.82761C19.546 2.82761 19.5072 2.80983 19.4646 2.78851C19.2316 2.66588 18.895 2.641 18.6935 2.72986C18.6065 2.76718 18.5732 2.81339 18.5732 2.89337C18.5732 3.01955 18.6509 3.05154 19.03 3.07998C19.3333 3.10308 19.448 3.11908 19.546 3.15462C19.6958 3.20794 19.7809 3.27725 19.8401 3.39633C19.8715 3.45853 19.8752 3.48341 19.8752 3.60249C19.8752 3.73045 19.8734 3.74289 19.8308 3.82464C19.7531 3.97571 19.5885 4.0859 19.3518 4.14633C19.2131 4.18009 18.8562 4.19076 18.6935 4.16588V4.16232ZM1.92889 4.15877C1.92889 4.15877 1.91965 3.74822 1.91965 3.25592V2.36197H2.33576V4.16765H2.13602C2.02691 4.16765 1.93259 4.1641 1.92705 4.15877H1.92889ZM3.50456 3.26481V2.36197H3.92067V2.45261L3.978 2.42417C4.16664 2.33175 4.51987 2.3122 4.73809 2.38329C4.93228 2.4455 5.10242 2.57879 5.17454 2.72453C5.24112 2.86137 5.24482 2.89159 5.24482 3.54739V4.16054L5.03954 4.1641L4.83426 4.16765V3.58294C4.83426 2.94313 4.83056 2.90047 4.75658 2.81339C4.73624 2.78851 4.68261 2.74941 4.63822 2.72808C4.56795 2.69431 4.54206 2.68898 4.42 2.68543C4.18513 2.67654 4.04458 2.73164 3.96505 2.8596L3.92807 2.9218L3.92067 3.54028L3.91327 4.15877L3.70799 4.16232L3.50271 4.16588V3.26303L3.50456 3.26481ZM6.90371 4.15344C6.80014 4.141 6.66884 4.08235 6.59486 4.01836C6.52458 3.95794 6.46171 3.83353 6.44506 3.7269C6.43766 3.68069 6.43212 3.42476 6.43212 3.1564V2.66943H6.16396V2.36019H6.43212V1.84479H6.84822V2.36019H7.30502V2.66943H6.84822V3.18661C6.84822 3.76066 6.84822 3.76422 6.93514 3.79976C6.96658 3.8122 7.03316 3.81754 7.14227 3.81754H7.30502L7.30132 3.98815L7.29762 4.15877H7.14412C7.05905 4.16232 6.95179 4.15877 6.90371 4.15166V4.15344ZM8.29813 3.26481V2.36197H8.71424L8.71054 3.26126L8.70684 4.16054L8.50156 4.1641L8.29628 4.16765V3.26481H8.29813ZM9.88304 3.26481V2.36197H10.2862V2.45083L10.3565 2.42062C10.5877 2.32287 10.8965 2.31398 11.1369 2.39573C11.2386 2.43128 11.3514 2.49348 11.394 2.53969C11.4273 2.57524 11.4347 2.57524 11.5012 2.5237C11.5808 2.46149 11.701 2.40462 11.8249 2.37263C11.9617 2.33531 12.2299 2.33175 12.3741 2.36552C12.646 2.4295 12.8346 2.58946 12.9086 2.81694C12.9382 2.90758 12.9382 2.9218 12.9382 3.53495V4.16054L12.7403 4.1641L12.5424 4.16765L12.5369 3.56339C12.5313 2.88981 12.5313 2.88448 12.437 2.79206C12.3501 2.70675 12.2909 2.68898 12.0838 2.68898C11.9229 2.68898 11.8952 2.69254 11.836 2.71919C11.7565 2.75474 11.6899 2.81339 11.651 2.8827C11.6233 2.93246 11.6215 2.94668 11.6178 3.55095L11.6141 4.16765H11.2146L11.209 3.56517C11.2053 3.11137 11.1696 2.85249 11.1018 2.78851C11.0204 2.71031 10.9057 2.68009 10.719 2.6872C10.5507 2.69431 10.4674 2.72097 10.3898 2.79917C10.2918 2.89692 10.2936 2.87915 10.2899 3.55983L10.2862 4.16943H9.88489V3.26659L9.88304 3.26481ZM14.0848 3.26481V2.36197H14.488V4.16765H14.0848V3.26481ZM20.8924 3.26481V2.36197H21.2955V4.16765H20.8924V3.26481ZM22.4625 3.26481V2.36197H22.8786V2.45261L22.9322 2.42595C23.1116 2.33886 23.4371 2.31398 23.6516 2.37263C23.77 2.40462 23.8754 2.45616 23.9642 2.52547L24.0215 2.56991L24.1103 2.50948C24.2083 2.44194 24.3396 2.38685 24.4598 2.36019C24.5892 2.33175 24.8556 2.33886 24.9795 2.37263C25.2624 2.44905 25.4418 2.61078 25.5047 2.84716C25.5213 2.90936 25.525 3.02844 25.525 3.54562V4.16943H25.1219V3.57761C25.1219 2.91825 25.1182 2.89337 25.0331 2.80273C24.961 2.72453 24.8722 2.69431 24.7039 2.68898C24.4783 2.68009 24.3303 2.73697 24.2545 2.86315L24.2157 2.92536L24.2083 3.54384L24.2009 4.16232L23.9956 4.16588L23.7903 4.16943V3.57761C23.7903 2.91647 23.7866 2.89159 23.7016 2.80095C23.6294 2.72275 23.5407 2.69254 23.3724 2.6872C23.1227 2.67832 22.9766 2.74408 22.8989 2.90403C22.8878 2.92713 22.8804 3.12263 22.8767 3.54917L22.8693 4.16232L22.6641 4.16588L22.4588 4.16943V3.26659L22.4625 3.26481ZM26.679 3.26481V2.36197H27.0822V4.16765H26.679V3.26481Z" fill="#010101"/>
</g>
<defs>
<clipPath id="clip0_3789_5500">
<rect width="29" height="6" fill="white"/>
</clipPath>
</defs>
</svg>
