<svg width="36" height="17" viewBox="0 0 36 17" fill="none" xmlns="http://www.w3.org/2000/svg">
<path d="M18.4613 5.64875C17.7641 5.08897 16.8351 4.73768 15.6585 4.73768C13.1731 4.73768 11.1572 6.89065 11.1572 9.54564C11.1572 12.2006 13.1731 14.3562 15.6585 14.3562C16.8372 14.3562 17.7641 14.0055 18.4613 13.4452V14.1804H20.878V4.9078H18.4613V5.64875ZM16.0226 12.1287C14.6697 12.1287 13.5744 10.9734 13.5744 9.54618C13.5744 8.11889 14.6697 6.96573 16.0226 6.96573C16.7065 6.96573 17.3624 7.23773 17.846 7.72182C18.3297 8.20597 18.6013 8.86256 18.6013 9.54723C18.6013 10.2319 18.3297 10.8885 17.846 11.3726C17.3624 11.8567 16.7065 12.1287 16.0226 12.1287ZM30.5301 14.1824H32.9465V6.74205H30.5301V14.1824ZM30.0578 4.34646C30.0578 4.79255 30.2347 5.22037 30.55 5.53576C30.8649 5.85121 31.2924 6.02841 31.7379 6.02841C32.1837 6.02841 32.611 5.85121 32.9262 5.53576C33.2411 5.22037 33.4183 4.79255 33.4183 4.34646C33.4183 3.0594 32.3735 2.16197 30.8609 2.13152C29.1039 2.09844 26.8868 3.05363 25.8943 5.99114V4.9078H23.4793V14.1824H25.8949V8.79105C25.8949 5.31844 27.8741 2.4991 30.8461 2.52903C31.122 2.53362 31.3954 2.5791 31.6575 2.66399C31.2265 2.68516 30.8196 2.87169 30.5218 3.18492C30.224 3.49817 30.0581 3.91407 30.0584 4.34646H30.0578ZM11.4027 4.9078H7.98941L4.20572 8.50067V2.23549H1.78906V14.1824H4.20572V10.8049L7.98941 14.1824H11.3839L6.41202 9.55511L11.4027 4.9078Z" fill="black"/>
<path d="M6.70282 3.17051H7.28665V2.90427H6.70282V2.50046H7.35484V2.23423H6.41797V3.85684H7.3795V3.5906H6.70282V3.17051ZM8.52831 3.6158C8.1973 3.6158 7.96807 3.38423 7.96807 3.04552C7.96807 2.69318 8.19467 2.47525 8.49579 2.47525C8.6266 2.47151 8.75523 2.50958 8.86299 2.58395L8.99044 2.37391C8.85125 2.26101 8.67584 2.2026 8.49684 2.20955C7.96177 2.20955 7.66748 2.58028 7.66748 3.04657C7.66748 3.55226 8.00846 3.88361 8.50365 3.88361C8.71347 3.88361 8.9233 3.80958 9.02296 3.70035L8.91386 3.48716C8.80308 3.57152 8.6675 3.61676 8.52831 3.6158ZM9.62989 2.55875C9.55803 3.53704 9.39331 3.5906 9.26846 3.57431L9.26165 3.85684C9.58111 3.90358 9.79198 3.75181 9.88692 2.8066L9.91946 2.50046H10.3916V3.85684H10.6743V2.23423H9.65192L9.62989 2.55875ZM11.4465 3.38949V2.23423H11.1611V3.85684H11.4113L12.26 2.70683V3.85684H12.5449V2.23423H12.2947L11.4465 3.38949ZM14.5823 2.20955C14.0845 2.20955 13.7393 2.57713 13.7393 3.04657C13.7393 3.55226 14.1007 3.88361 14.5823 3.88361C15.0638 3.88361 15.4279 3.53337 15.4279 3.04657C15.4263 2.53985 15.0628 2.2085 14.5807 2.2085L14.5823 2.20955ZM14.5823 3.61687C14.2791 3.61687 14.0404 3.37111 14.0404 3.04657C14.0404 2.71051 14.2723 2.47631 14.5823 2.47631C14.8923 2.47631 15.1268 2.71051 15.1268 3.04657C15.1252 3.36531 14.9212 3.6158 14.5807 3.6158L14.5823 3.61687ZM16.295 2.84861C16.2222 2.84886 16.1495 2.85342 16.0773 2.86226V2.50046H16.7398V2.23423H15.7924V3.85684C15.8874 3.85684 16.0264 3.86628 16.2121 3.86628C16.6102 3.86628 16.8374 3.6741 16.8374 3.33749C16.8395 3.03871 16.6333 2.84861 16.295 2.84861ZM16.2577 3.59954C16.198 3.59954 16.1423 3.59532 16.0773 3.5906V3.12693C16.1418 3.11829 16.2068 3.11373 16.2719 3.11327C16.4712 3.11327 16.5567 3.2183 16.5567 3.3564C16.5567 3.49451 16.4686 3.59954 16.2577 3.59954ZM17.8954 3.17944L17.3488 2.23423H17.0068L17.7439 3.4651L17.5461 3.86209H17.8493L18.6602 2.23423H18.3565L17.8954 3.17944ZM19.6721 3.0009V2.99618C19.7436 2.96591 19.8042 2.91447 19.8456 2.84876C19.8871 2.78305 19.9075 2.70622 19.904 2.62859C19.904 2.40384 19.7582 2.2274 19.371 2.2274C19.2089 2.2274 18.9939 2.23475 18.9031 2.23895V3.85474C18.9981 3.86156 19.2068 3.86628 19.3548 3.86628C19.6979 3.86628 19.9575 3.71347 19.9575 3.37951C19.9632 3.29268 19.9375 3.20671 19.8851 3.13729C19.8327 3.06787 19.7571 3.01965 19.6721 3.00141V3.0009ZM19.188 2.49994C19.2404 2.49521 19.3018 2.49311 19.3668 2.49311C19.5195 2.49311 19.6213 2.56295 19.6213 2.69475C19.6213 2.84336 19.5127 2.91058 19.3805 2.91058H19.188V2.49994ZM19.3757 3.59954C19.313 3.59938 19.2503 3.59554 19.188 3.58797V3.15894H19.3899C19.5682 3.15894 19.6721 3.22879 19.6721 3.36531C19.6721 3.51866 19.5683 3.59954 19.3757 3.59954ZM20.8398 2.77877C20.7779 2.77899 20.7161 2.78285 20.6547 2.79032V2.23423H20.3693V3.85684C20.4648 3.85684 20.6242 3.86156 20.7795 3.86156C21.2107 3.86156 21.4515 3.64625 21.4515 3.30285C21.4515 2.98515 21.2589 2.77877 20.8398 2.77877ZM20.812 3.59532C20.7564 3.59532 20.7071 3.5906 20.6547 3.58797V3.05709C20.7192 3.05027 20.7748 3.04552 20.8167 3.04552C21.0161 3.04552 21.1504 3.12693 21.1504 3.30808C21.1509 3.50922 21.0202 3.59532 20.812 3.59532ZM21.8328 3.53967C21.8096 3.53728 21.7862 3.53997 21.7641 3.54751C21.742 3.55502 21.7218 3.56723 21.7049 3.58328C21.688 3.59932 21.6747 3.61886 21.666 3.64051C21.6573 3.66216 21.6533 3.68543 21.6544 3.70875C21.6513 3.7439 21.6618 3.77891 21.6838 3.8065C21.7058 3.83408 21.7376 3.85211 21.7725 3.85684C21.7914 3.85684 21.8192 3.85683 21.8328 3.83845C21.8387 3.87479 21.8315 3.91203 21.8123 3.94348C21.7992 3.97307 21.7796 3.99942 21.7552 4.02068C21.7307 4.0419 21.7019 4.05749 21.6707 4.06634L21.7426 4.19187C21.8294 4.16989 21.906 4.1187 21.9596 4.04692C22.0132 3.97511 22.0404 3.88705 22.0369 3.79751C22.0374 3.64837 21.9587 3.53967 21.8328 3.53967ZM22.7361 2.50046H23.2607V3.85684H23.5455V2.50046H24.0701V2.23423H22.7366L22.7361 2.50046ZM25.0064 2.2085C24.5086 2.2085 24.1635 2.57608 24.1635 3.04552C24.1635 3.55121 24.5249 3.88257 25.0064 3.88257C25.488 3.88257 25.852 3.53232 25.852 3.04552C25.8526 2.53985 25.4885 2.2085 25.007 2.2085H25.0064ZM25.0064 3.6158C24.7027 3.6158 24.4645 3.37006 24.4645 3.04552C24.4645 2.70946 24.6959 2.47525 25.0064 2.47525C25.317 2.47525 25.5509 2.70946 25.5509 3.04552C25.5515 3.36531 25.3474 3.6158 25.007 3.6158H25.0064Z" fill="black"/>
</svg>
