<svg width="61" height="25" viewBox="0 0 61 25" fill="none" xmlns="http://www.w3.org/2000/svg">
<g clip-path="url(#clip0_3790_6887)">
<path d="M31.69 8.12002C30.36 7.06002 28.6 6.39002 26.36 6.39002C21.64 6.39002 17.8 10.48 17.8 15.52C17.8 20.56 21.63 24.65 26.36 24.65C28.6 24.65 30.36 23.98 31.69 22.92V24.32H36.28V6.71002H31.69V8.12002ZM27.05 20.42C24.48 20.42 22.4 18.23 22.4 15.52C22.4 12.81 24.48 10.62 27.05 10.62C29.77 10.62 31.97 12.82 31.97 15.52C31.97 18.22 29.77 20.42 27.05 20.42ZM54.63 24.32H59.22V10.19H54.63V24.32ZM53.73 5.64002C53.73 7.40002 55.16 8.83002 56.92 8.83002C58.68 8.83002 60.11 7.40002 60.11 5.64002C60.11 3.20002 58.12 1.49002 55.25 1.43002C51.91 1.37002 47.7 3.18003 45.81 8.76003V6.70002H41.22V24.32H45.81V14.08C45.81 7.49002 49.57 2.13003 55.22 2.19003C55.75 2.19003 56.26 2.29003 56.76 2.45003C55.07 2.53003 53.72 3.93002 53.72 5.64002M18.26 6.71002H11.77L4.58 13.53V1.63003H0V24.32H4.59V17.91L11.78 24.32H18.23L8.78 15.54L18.28 6.71002H18.26Z" fill="black"/>
<path d="M12.5199 0.0999756L10.7899 1.85998V0.0999756H9.42993V5.49998H10.7899V3.77998L12.4599 5.49998H14.2999L11.6599 2.79998L14.2999 0.0999756H12.5199Z" fill="black"/>
<path d="M20.26 1.35998H21.31V4.23998H20.26V5.49998H23.73V4.23998H22.68V1.35998H23.73V0.0999756H20.26V1.35998Z" fill="black"/>
<path d="M45.25 2.72C44.95 2.44 44.53 2.26 44 2.21L43.08 2.12C42.89 2.1 42.7399 2.05 42.6399 1.98C42.5599 1.92 42.5299 1.84 42.5299 1.74C42.5299 1.67 42.5499 1.55 42.7099 1.43C42.8399 1.33 43.05 1.27 43.34 1.27C43.58 1.27 43.8099 1.32 44.0099 1.41C44.1999 1.5 44.3199 1.61 44.3899 1.76L44.4399 1.87H45.83L45.75 1.62C45.68 1.42 45.59 1.22 45.45 1.02C45.32 0.82 45.15 0.65 44.95 0.5C44.75 0.35 44.51 0.22 44.25 0.13C43.98 0.04 43.6799 0 43.3499 0C43.0199 0 42.7299 0.04 42.4599 0.13C42.1899 0.21 41.96 0.33 41.77 0.49C41.57 0.65 41.42 0.83 41.32 1.05C41.21 1.27 41.16 1.51 41.16 1.77C41.16 1.98 41.19 2.17 41.25 2.35C41.31 2.54 41.42 2.7 41.56 2.85C41.7 2.99 41.87 3.11 42.08 3.2C42.28 3.29 42.53 3.35 42.81 3.37L43.6699 3.45C43.9999 3.48 44.15 3.55 44.2299 3.6C44.3099 3.66 44.3499 3.74 44.3499 3.86C44.3499 3.94 44.33 4.06 44.15 4.17C43.99 4.27 43.7599 4.32 43.4799 4.32C43.2199 4.32 42.99 4.28 42.79 4.19C42.61 4.11 42.4699 3.99 42.3699 3.81L42.32 3.71H40.95L41.0299 3.95C41.0999 4.18 41.2 4.39 41.33 4.59C41.46 4.79 41.63 4.97 41.83 5.11C42.03 5.26 42.2699 5.37 42.5499 5.45C42.8199 5.53 43.14 5.57 43.4799 5.57C43.8199 5.57 44.16 5.52 44.43 5.43C44.71 5.33 44.94 5.21 45.13 5.05C45.32 4.89 45.47 4.7 45.57 4.48C45.67 4.27 45.72 4.04 45.72 3.81C45.72 3.36 45.56 2.99 45.25 2.7V2.72Z" fill="black"/>
<path d="M34.0299 0.889976C33.7799 0.649976 33.47 0.449976 33.11 0.309976C32.75 0.169976 32.3399 0.0999756 31.8799 0.0999756H29.95V5.49998H31.8799C32.3399 5.49998 32.76 5.42998 33.11 5.28998C33.47 5.14998 33.7799 4.94998 34.0299 4.70998C34.2799 4.46998 34.48 4.16998 34.61 3.84998C34.74 3.51998 34.7999 3.16998 34.7999 2.80998C34.7999 2.44998 34.73 2.08998 34.61 1.76998C34.48 1.43998 34.2899 1.14998 34.0299 0.909976M33.43 2.81998C33.43 3.02998 33.39 3.22998 33.32 3.39998C33.25 3.56998 33.1399 3.71998 33.0099 3.84998C32.8799 3.97998 32.7099 4.07998 32.5099 4.14998C32.3099 4.21998 32.09 4.25998 31.84 4.25998H31.3099V1.35998H31.84C32.09 1.35998 32.3099 1.39998 32.5099 1.46998C32.6999 1.53998 32.8699 1.63998 33.0099 1.76998C33.1399 1.88998 33.25 2.04998 33.32 2.21998C33.39 2.38998 33.43 2.58998 33.43 2.79998" fill="black"/>
<path d="M15.9152 2.40507L16.8557 1.46462C17.082 1.23835 17.4567 1.23128 17.6901 1.46462L18.6305 2.40507C18.8568 2.63135 18.8639 3.00611 18.6305 3.23946L17.6901 4.17991C17.4638 4.40618 17.089 4.41326 16.8557 4.17991L15.9152 3.23946C15.689 3.01318 15.6819 2.63842 15.9152 2.40507Z" fill="black"/>
<path d="M27.9601 2.80003C28.2201 2.64003 28.3101 2.30003 28.1601 2.04003C28.0101 1.77003 27.6701 1.68003 27.4001 1.83003C27.4001 1.52003 27.1501 1.28003 26.8401 1.28003C26.5301 1.28003 26.2801 1.53003 26.2801 1.83003C26.0101 1.68003 25.6701 1.77003 25.5201 2.04003C25.3701 2.31003 25.4601 2.64003 25.7201 2.80003C25.4601 2.96003 25.3701 3.30003 25.5201 3.56003C25.6701 3.83003 26.0101 3.92003 26.2801 3.77003C26.2801 4.08003 26.5301 4.32003 26.8401 4.32003C27.1501 4.32003 27.4001 4.07003 27.4001 3.77003C27.6701 3.92003 28.0101 3.83003 28.1601 3.56003C28.3101 3.29003 28.2201 2.96003 27.9601 2.80003Z" fill="black"/>
<path d="M37.8799 4.15997C37.2499 4.15997 36.2199 3.38997 36.3299 2.22997C36.3699 1.79997 36.7299 1.46997 37.1699 1.46997C37.4499 1.46997 37.7199 1.59997 37.8699 1.80997C38.0299 1.60997 38.2999 1.46997 38.5699 1.46997C39.0099 1.46997 39.3699 1.79997 39.4099 2.22997C39.5299 3.38997 38.4899 4.15997 37.8599 4.15997" fill="black"/>
</g>
<defs>
<clipPath id="clip0_3790_6887">
<rect width="60.13" height="24.65" fill="white"/>
</clipPath>
</defs>
</svg>
