<svg width="160" height="42" viewBox="0 0 160 42" fill="none" xmlns="http://www.w3.org/2000/svg">
<g clip-path="url(#clip0_3790_8028)">
<path fill-rule="evenodd" clip-rule="evenodd" d="M3.36532 37.7987C3.30986 37.2583 2.85237 36.9257 2.18692 36.9257C0.966938 36.9257 0.523307 38.0204 0.523307 39.0873C0.523307 40.1542 0.966938 41.2765 2.21465 41.2765C2.85237 41.2765 3.33759 40.9163 3.42077 40.3898H3.90599C3.76736 41.1796 3.08805 41.6784 2.13147 41.6784C0.620351 41.6784 0.0380859 40.459 0.0380859 39.115C0.0380859 37.48 0.842167 36.5239 2.21465 36.5239C2.71373 36.5239 3.10191 36.6486 3.39304 36.8703C3.68418 37.1059 3.8644 37.4523 3.8644 37.7848H3.37918L3.36532 37.7987Z" fill="black"/>
<path fill-rule="evenodd" clip-rule="evenodd" d="M10.6021 36.621H13.5688V37.0089H11.0457V38.8379H13.4718V39.212H11.0457V41.2212H13.6797V41.623H10.6021V36.621Z" fill="black"/>
<path fill-rule="evenodd" clip-rule="evenodd" d="M21.665 37.0089H20.043V36.621H23.7029V37.0089H22.1225V41.623H21.665V37.0089Z" fill="black"/>
<path fill-rule="evenodd" clip-rule="evenodd" d="M31.9239 38.8379H30.7039V36.6348H30.2603V41.6368H31.9239C32.9359 41.6368 33.5598 41.1241 33.5598 40.2373C33.5598 39.3505 32.9359 38.8379 31.9239 38.8379ZM31.7991 41.235H30.7039V39.2397H31.7991C32.6448 39.2397 33.0607 39.5722 33.0607 40.2373C33.0607 40.9024 32.6586 41.235 31.7991 41.235Z" fill="black"/>
<path fill-rule="evenodd" clip-rule="evenodd" d="M46.8687 36.621H47.34V38.8379L49.5582 36.621H50.1404L47.8252 38.8795L50.3484 41.623H49.7384L47.34 39.0181V41.623H46.8687V36.621Z" fill="black"/>
<path fill-rule="evenodd" clip-rule="evenodd" d="M60.039 41.623V37.1891H60.0113L57.3633 41.623H56.8643V36.621H57.3079V40.9856H57.3356L59.9142 36.621H60.4965V41.623H60.039Z" fill="black"/>
<path fill-rule="evenodd" clip-rule="evenodd" d="M67.5112 36.621H67.9549V38.8379H70.686V36.621H71.1435V41.623H70.686V39.2398H67.9549V41.623H67.5112V36.621Z" fill="black"/>
<path fill-rule="evenodd" clip-rule="evenodd" d="M80.1547 36.5239C78.7683 36.5239 77.9365 37.48 77.9365 39.1011C77.9365 40.5006 78.5881 41.6922 80.1547 41.6922C81.7213 41.6922 82.4006 40.5422 82.4006 39.1011C82.4006 37.6601 81.7213 36.5239 80.1547 36.5239ZM80.1824 41.2904C79.0872 41.2904 78.4217 40.4452 78.4217 39.0734C78.4217 37.7017 79.1011 36.9257 80.1824 36.9257C81.2638 36.9257 81.8876 37.7571 81.8876 39.115C81.8876 40.4729 81.236 41.2904 80.1824 41.2904Z" fill="black"/>
<path fill-rule="evenodd" clip-rule="evenodd" d="M90.1502 37.0089H88.542V36.621H92.1881V37.0089H90.6076V41.623H90.1502V37.0089Z" fill="black"/>
<path fill-rule="evenodd" clip-rule="evenodd" d="M98.7456 36.621H101.726V37.0089H99.1892V38.8379H101.615V39.212H99.1892V41.2212H101.823V41.623H98.7456V36.621Z" fill="black"/>
<path fill-rule="evenodd" clip-rule="evenodd" d="M110.724 36.621H110.183L108.214 41.623H108.672L109.199 40.2513H111.694L112.235 41.623H112.72L110.724 36.621ZM109.337 39.8771L110.446 37.0505L111.528 39.8771H109.351H109.337Z" fill="black"/>
<path fill-rule="evenodd" clip-rule="evenodd" d="M119.818 37.0089H118.196V36.621H121.856V37.0089H120.276V41.623H119.818V37.0089Z" fill="black"/>
<path fill-rule="evenodd" clip-rule="evenodd" d="M131.061 36.8704C130.701 36.6625 130.493 36.621 129.814 36.621H128.414V41.623H128.843V39.4199H129.814C130.257 39.4199 130.798 39.406 131.186 39.1151C131.519 38.8656 131.713 38.4638 131.713 38.0066C131.713 37.5078 131.477 37.0921 131.061 36.8565V36.8704ZM130.465 38.9765C130.285 39.0181 130.119 39.0181 129.814 39.0181H128.843V37.0089H129.939C130.632 37.0089 131.214 37.2306 131.214 38.0204C131.214 38.547 130.937 38.8934 130.465 38.9765Z" fill="black"/>
<path fill-rule="evenodd" clip-rule="evenodd" d="M140.392 36.5239C139.005 36.5239 138.188 37.48 138.188 39.1011C138.188 40.5006 138.839 41.6922 140.392 41.6922C141.944 41.6922 142.638 40.5422 142.638 39.1011C142.638 37.6601 141.958 36.5239 140.392 36.5239ZM140.42 41.2904C139.338 41.2904 138.687 40.4452 138.687 39.0734C138.687 37.7017 139.352 36.9257 140.42 36.9257C141.487 36.9257 142.139 37.7571 142.139 39.115C142.139 40.4729 141.487 41.2904 140.42 41.2904Z" fill="black"/>
<path fill-rule="evenodd" clip-rule="evenodd" d="M151.718 39.018C152.259 38.8794 152.647 38.4499 152.647 37.8402C152.647 37.3691 152.356 36.9396 151.912 36.7595C151.649 36.6625 151.469 36.6348 150.872 36.6348H149.472V41.6368H150.872C151.455 41.6368 152.023 41.5952 152.467 41.1934C152.73 40.9578 152.869 40.6392 152.869 40.2789C152.869 39.6277 152.411 39.1289 151.732 39.0319L151.718 39.018ZM149.902 37.0227H151.122C151.649 37.0227 152.148 37.2583 152.148 37.8957C152.148 38.3252 151.884 38.6993 151.455 38.7963C151.316 38.8379 151.164 38.8379 150.997 38.8379H149.902V37.0227ZM151.593 41.1657C151.358 41.235 151.274 41.235 150.817 41.235H149.902V39.2397H151.08C151.621 39.2397 151.884 39.3228 152.106 39.5584C152.259 39.7247 152.356 39.9602 152.356 40.1958C152.356 40.6669 152.037 41.0548 151.579 41.1518L151.593 41.1657Z" fill="black"/>
<path fill-rule="evenodd" clip-rule="evenodd" d="M49.9603 11.1951C52.1369 11.3475 54.2718 11.5553 56.3791 11.6939V31.508H49.9603V24.1782L45.7181 24.0396V31.508C43.5277 31.508 41.4204 31.508 39.2993 31.4388V10.0728C41.4204 10.2806 43.5415 10.5716 45.7181 10.7794V17.9707L49.9603 18.1785V11.1951Z" fill="black"/>
<path fill-rule="evenodd" clip-rule="evenodd" d="M12.4735 17.6242C13.3885 15.726 17.1316 8.45155 18.1159 6.69183C15.6482 6.19302 13.1805 5.70806 10.7821 5.20924C10.1444 6.76111 7.45492 13.2457 6.83106 14.95L6.76175 14.8807V4.22546C4.62677 3.72664 2.45021 3.22783 0.329102 2.67358V31.3833H6.74788V19.8828H6.8172C7.45492 21.8503 10.1999 29.5543 10.9069 31.3833C13.5271 31.3833 16.0641 31.4526 18.6011 31.4526C17.5475 29.194 13.4439 20.0213 12.4596 17.6242H12.4735Z" fill="black"/>
<path fill-rule="evenodd" clip-rule="evenodd" d="M24.826 24.5384V7.88344C22.9267 7.60632 21.0829 7.24606 19.2529 6.89966V31.4525H28.6385C29.2069 28.7091 31.328 17.9152 31.8825 15.2271V31.4525H37.4557V9.86485C34.2809 9.36603 31.1062 8.95035 27.8621 8.45153C27.3631 11.0703 25.3944 21.7949 24.826 24.5384Z" fill="black"/>
<path fill-rule="evenodd" clip-rule="evenodd" d="M89.0554 22.6955H88.9723C88.6257 20.9496 87.1423 13.8831 86.7957 12.1926C83.621 12.2758 80.5156 12.345 77.3408 12.345V31.5218H82.8446V16.4326H82.9833C83.4823 18.8989 85.6034 28.9861 86.1718 31.5218H91.537C92.0361 28.9861 94.2265 18.6218 94.781 16.003H94.8504V31.5218H100.645V11.3474C97.5399 11.6245 94.3513 11.8324 91.1765 11.9848C90.83 13.7445 89.4159 20.9496 89.0693 22.6955H89.0554Z" fill="black"/>
<path fill-rule="evenodd" clip-rule="evenodd" d="M149.694 24.0396C148.779 24.1089 148.002 23.8872 147.295 23.4022C146.658 22.9034 146.089 22.1275 145.673 21.1437C145.313 20.1599 145.105 18.8851 145.105 17.4025C145.105 15.92 145.313 14.7283 145.729 13.6614C146.159 12.5391 146.727 11.68 147.434 11.0426C148.141 10.4053 148.987 9.98957 149.902 9.76787C150.747 9.62931 151.815 9.83715 153.076 10.336V2.74286C152.092 2.67358 151.233 2.67358 150.664 2.67358C150.04 2.67358 149.333 2.74286 148.557 2.9507C147.212 3.31096 145.867 3.8652 144.675 4.72428C143.483 5.5695 142.415 6.62255 141.5 7.89731C140.655 9.10278 139.948 10.4468 139.449 12.0541C139.379 12.1373 139.379 12.262 139.31 12.3312C138.825 14.0355 138.534 15.9338 138.534 17.9845C138.534 20.1738 138.811 22.1413 139.31 23.7625C139.31 23.901 139.379 24.0534 139.449 24.192C139.948 25.7577 140.572 27.0186 141.431 28.0024C142.346 29.2079 143.4 30.0531 144.606 30.6073C145.812 31.1754 147.143 31.5357 148.557 31.5357C150.04 31.5357 151.593 31.1062 153.146 30.3302V22.7787C151.954 23.5685 150.747 23.9842 149.694 24.0534V24.0396Z" fill="black"/>
<path fill-rule="evenodd" clip-rule="evenodd" d="M75.5104 17.6935C75.1638 16.4326 74.5261 15.4349 73.7498 14.5204C72.9041 13.6752 71.9059 13.0379 70.783 12.6083C69.6462 12.1788 68.3153 11.9017 66.9012 11.9017H66.8319C65.3485 11.8324 64.0731 11.9709 62.9501 12.3312C61.744 12.7469 60.829 13.315 59.9833 14.1602C59.207 15.0054 58.5693 16.0723 58.2227 17.2639C57.7929 18.5387 57.585 20.0213 57.585 21.6424C57.585 23.3329 57.7929 24.7462 58.2227 26.0902C58.5693 27.3511 59.207 28.418 59.9833 29.2633C60.829 30.1085 61.744 30.7459 62.9501 31.2308C64.0731 31.6465 65.3485 31.8682 66.8319 31.8682H66.9012C68.3153 31.8682 69.5769 31.6465 70.783 31.2308C71.9059 30.8013 72.9041 30.1778 73.7498 29.3187C74.5261 28.4735 75.1638 27.4204 75.5104 26.2149C75.9402 24.9402 76.2036 23.5269 76.2036 21.9057C76.2036 20.2846 75.9263 18.8712 75.5104 17.6796V17.6935ZM69.2996 24.4691C69.2303 25.1757 68.953 25.8131 68.5925 26.3812C68.1628 26.9493 67.6082 27.2403 66.9012 27.2403H66.8319C65.9862 27.2403 65.3485 26.7415 64.9187 25.8962C64.489 24.9679 64.281 23.6377 64.281 21.8087C64.281 19.9797 64.489 18.6911 64.9187 17.8598C65.3485 16.9314 65.9862 16.5157 66.8319 16.5157C66.8319 16.5157 66.855 16.5388 66.9012 16.585C67.8855 16.585 68.5925 17.1531 68.953 18.22C69.2996 19.2731 69.5214 20.4785 69.5214 21.878C69.5214 22.9311 69.4521 23.7901 69.2996 24.4829V24.4691Z" fill="black"/>
<path fill-rule="evenodd" clip-rule="evenodd" d="M115.729 9.79553C114.176 9.94795 112.693 10.1558 111.14 10.2943C109.726 10.5022 108.312 10.6546 106.912 10.7932C105.913 14.3126 101.962 28.1409 100.978 31.5218H107.397C107.743 29.9699 108.395 27.0186 108.395 27.0186L113.829 26.88C113.829 26.88 114.606 29.9145 114.952 31.4664H121.662C120.678 27.7252 116.713 13.2595 115.729 9.79553ZM109.31 21.9334C109.31 21.9334 110.863 16.0723 111.154 14.8807H111.223C111.514 16.003 113.067 21.7256 113.067 21.7256L109.324 21.9334H109.31Z" fill="black"/>
<path fill-rule="evenodd" clip-rule="evenodd" d="M134.167 18.3309C135.082 16.3494 139.657 5.97127 139.796 5.70801C139.657 5.70801 139.518 5.77729 139.449 5.77729C137.12 6.27611 134.791 6.69179 132.531 7.1906C131.824 8.88104 129.148 15.5181 128.511 17.1392H128.441V7.81412C126.32 8.24366 124.199 8.59006 122.009 8.88104V31.4525H128.441V21.4346H128.511C129.218 23.0419 132.67 31.4525 132.67 31.4525H140.35C140.35 31.4525 135.207 20.4508 134.153 18.3309H134.167Z" fill="black"/>
<path fill-rule="evenodd" clip-rule="evenodd" d="M157.569 2.90915C157.569 2.90915 157.444 2.7983 157.361 2.74288C157.527 2.71517 157.666 2.65974 157.749 2.56275C157.832 2.46576 157.874 2.34105 157.874 2.20249C157.874 2.09165 157.846 1.9808 157.79 1.89766C157.735 1.81453 157.652 1.74525 157.569 1.71753C157.472 1.67597 157.319 1.66211 157.111 1.66211H156.279V3.61581H156.667V2.7983H156.751C156.848 2.7983 156.903 2.7983 156.945 2.82602C156.986 2.83987 157.028 2.86758 157.07 2.90915C157.111 2.95072 157.18 3.04771 157.277 3.20013L157.569 3.62967H158.04L157.804 3.2417C157.707 3.08928 157.638 2.97843 157.582 2.92301L157.569 2.90915ZM156.959 2.47962H156.667V1.9808H156.972C157.139 1.9808 157.222 1.9808 157.264 1.9808C157.333 1.9808 157.375 2.02237 157.416 2.06393C157.458 2.1055 157.472 2.16093 157.472 2.21635C157.472 2.27177 157.472 2.3272 157.43 2.36877C157.402 2.41034 157.361 2.43805 157.319 2.4519C157.277 2.46576 157.153 2.47962 156.959 2.47962Z" fill="black"/>
<path fill-rule="evenodd" clip-rule="evenodd" d="M157.083 0.692139C156.002 0.692139 155.115 1.56507 155.115 2.6597C155.115 3.75432 155.988 4.62725 157.083 4.62725C158.179 4.62725 159.052 3.75432 159.052 2.6597C159.052 1.56507 158.179 0.692139 157.083 0.692139ZM157.083 4.21157C156.224 4.21157 155.531 3.51877 155.531 2.6597C155.531 1.80062 156.224 1.10782 157.083 1.10782C157.943 1.10782 158.636 1.80062 158.636 2.6597C158.636 3.51877 157.943 4.21157 157.083 4.21157Z" fill="black"/>
</g>
<defs>
<clipPath id="clip0_3790_8028">
<rect width="159" height="41" fill="white" transform="translate(0.0380859 0.692139)"/>
</clipPath>
</defs>
</svg>
