<svg width="45" height="17" viewBox="0 0 45 17" fill="none" xmlns="http://www.w3.org/2000/svg">
<g clip-path="url(#clip0_3790_7171)">
<path fill-rule="evenodd" clip-rule="evenodd" d="M37.9256 12.6698C37.9256 12.5094 37.8735 12.4292 37.7562 12.4292C37.5608 12.4292 37.3132 12.5495 37.0396 12.8034C36.753 13.0573 36.4403 13.4316 36.0755 13.9394C35.7107 14.4473 35.4502 14.8883 35.2678 15.2625C35.0854 15.6368 35.0072 15.9441 35.0072 16.1847C35.0072 16.2649 35.0202 16.3317 35.0593 16.3718C35.0984 16.4119 35.1375 16.4253 35.2157 16.4253C35.4762 16.4253 36.0104 15.904 36.8182 14.8616C37.0006 14.621 37.1699 14.3805 37.3132 14.1666C37.4565 13.9528 37.5738 13.739 37.665 13.5385C37.8474 13.1509 37.9516 12.8569 37.9516 12.643M39.3587 12.1218C39.3587 12.1218 39.3587 12.1753 39.3326 12.2154C39.3326 12.2154 39.2935 12.2956 39.2545 12.3356C39.2545 12.3356 39.1763 12.5094 39.033 12.8301C38.8897 13.1643 38.6942 13.632 38.4337 14.2468C38.1992 14.7948 38.0298 15.2358 37.9125 15.5699C37.7953 15.8907 37.7432 16.1179 37.7432 16.2248C37.7432 16.2916 37.7432 16.3451 37.7823 16.3718C37.8083 16.3985 37.8344 16.4119 37.8865 16.4119C37.9907 16.4119 38.1471 16.3317 38.3294 16.1713C38.5249 16.011 38.7594 15.757 39.033 15.4363L39.046 15.4229C39.0721 15.4229 39.0981 15.4229 39.1372 15.4229C39.1372 15.4229 39.1893 15.4496 39.2154 15.4764C39.2414 15.5031 39.2675 15.5298 39.2805 15.5566C39.2805 15.5566 39.2935 15.6234 39.2805 15.6501V15.6635C38.9939 16.0778 38.7073 16.3852 38.4206 16.599C38.121 16.8129 37.8213 16.9198 37.5087 16.9198C37.2481 16.9198 37.0657 16.8529 36.9354 16.7193C36.8051 16.5857 36.74 16.3852 36.74 16.1312C36.74 16.0377 36.766 15.9174 36.8051 15.757C36.8312 15.6635 36.8703 15.5432 36.9094 15.4229C36.5446 15.8773 36.2189 16.2248 35.9192 16.4654C35.5674 16.746 35.2678 16.893 35.0072 16.893C34.7336 16.893 34.5252 16.7995 34.3819 16.6257C34.2385 16.452 34.1734 16.1847 34.1734 15.8506C34.1734 15.3695 34.2907 14.9151 34.5121 14.4607C34.7336 14.0062 35.0854 13.5652 35.5414 13.1375C35.9843 12.7232 36.4273 12.4158 36.8833 12.2154C37.3393 12.0015 37.7953 11.908 38.2643 11.908C38.4988 11.908 38.6942 11.908 38.8766 11.9347C39.046 11.9481 39.1893 11.9748 39.2935 12.0015C39.3196 12.0149 39.3457 12.0283 39.3587 12.055C39.3587 12.055 39.3847 12.0951 39.3847 12.1218H39.3587ZM32.0367 14.0998C32.1149 13.9929 32.1931 13.886 32.2713 13.779C32.3494 13.6721 32.4276 13.5652 32.5188 13.4449C32.61 13.338 32.6882 13.2177 32.7533 13.1242C32.8315 13.0173 32.8836 12.9237 32.9487 12.8301C33.0008 12.7366 33.0399 12.6564 33.079 12.5762C33.1051 12.496 33.1181 12.4292 33.1181 12.3757C33.1181 12.3223 33.1051 12.2956 33.066 12.2688C33.0269 12.2421 32.9487 12.2287 32.8575 12.2287C32.6751 12.2287 32.4667 12.3223 32.2322 12.496C32.1149 12.5896 31.9977 12.6965 31.8934 12.8168C31.7892 12.9504 31.6719 13.0974 31.5808 13.2578L31.5677 13.2712C31.5286 13.2712 31.4896 13.2845 31.4635 13.2979C31.4374 13.2979 31.4114 13.2979 31.3984 13.2979C31.3462 13.2979 31.3072 13.2845 31.2811 13.2578C31.255 13.2311 31.229 13.191 31.216 13.1375V13.0974C31.3332 12.9103 31.4635 12.75 31.5938 12.5896C31.7241 12.4426 31.8804 12.2956 32.0367 12.1753C32.1931 12.055 32.3494 11.9614 32.4927 11.8946C32.6361 11.8278 32.7924 11.7877 32.9227 11.7743C33.1572 11.7476 33.3526 11.761 33.5089 11.7743C33.6653 11.8011 33.7825 11.8679 33.8607 11.9481C33.9389 12.0283 33.978 12.1352 34.004 12.2555C34.0301 12.3757 34.0171 12.496 33.991 12.643C33.9649 12.7767 33.9128 12.9237 33.8347 13.0841C33.7695 13.2445 33.6783 13.4048 33.5741 13.5919C33.4699 13.7657 33.3656 13.9394 33.2484 14.1132C33.1311 14.2869 33.0269 14.4607 32.9096 14.6344C32.7924 14.8081 32.6882 14.9819 32.5839 15.1423C32.4797 15.3026 32.3755 15.463 32.2843 15.6234C32.1931 15.7704 32.1149 15.9174 32.0628 16.0377C32.0107 16.158 31.9846 16.2649 31.9716 16.3584C31.9716 16.3584 31.9716 16.4119 31.9716 16.4253C31.9716 16.4253 31.9977 16.452 32.0107 16.4654C32.0628 16.4921 32.1149 16.5055 32.154 16.5055C32.2061 16.5055 32.2973 16.4654 32.4146 16.3985C32.4797 16.3584 32.5449 16.3184 32.61 16.2783C32.6751 16.2382 32.7403 16.1847 32.8184 16.1312C32.8836 16.0778 32.9618 16.0243 33.0269 15.9575C33.092 15.904 33.1572 15.8372 33.2354 15.7704C33.3656 15.6501 33.4829 15.5298 33.5611 15.4363L33.5741 15.4229H33.5871C33.5871 15.4229 33.6913 15.4363 33.7304 15.4764C33.7565 15.5031 33.7695 15.5165 33.7825 15.5432C33.7825 15.5699 33.7956 15.5967 33.7956 15.6368V15.6635C33.7435 15.7437 33.6783 15.8239 33.6132 15.904C33.548 15.9842 33.4699 16.0644 33.3917 16.1446C33.3135 16.2248 33.2354 16.2916 33.1572 16.3718C33.079 16.4386 32.9878 16.5055 32.9096 16.5723C32.8315 16.6391 32.7403 16.6926 32.6621 16.7327C32.5839 16.7861 32.4927 16.8262 32.4146 16.8529C32.2452 16.9198 32.0889 16.9331 31.9586 16.9064C31.5677 16.8262 31.3202 16.6926 31.2029 16.4921C31.1508 16.3852 31.1117 16.2783 31.0987 16.158C31.0987 16.0377 31.0987 15.9174 31.1248 15.7838C31.1508 15.6501 31.2029 15.5165 31.2681 15.3828C31.3332 15.2492 31.3984 15.1022 31.4896 14.9551C31.5808 14.8081 31.6719 14.6611 31.7631 14.5141C31.8543 14.3671 31.9455 14.2334 32.0367 14.0864V14.0998ZM30.3952 12.1619C29.8219 13.2712 29.392 14.18 29.1054 14.8616C28.8187 15.5432 28.6754 16.011 28.6754 16.2515C28.6754 16.3317 28.6754 16.3852 28.7015 16.4253C28.7145 16.452 28.7406 16.4654 28.7797 16.4654C28.8448 16.4654 28.936 16.4253 29.0402 16.3584C29.1444 16.2783 29.2747 16.1713 29.418 16.011C29.5614 15.8506 29.6786 15.7169 29.7698 15.5833C29.861 15.463 29.9261 15.3427 29.9652 15.2492L29.9783 15.2224C30.0695 15.1823 30.1346 15.1823 30.1997 15.1823C30.2649 15.1957 30.317 15.2358 30.3431 15.3026V15.3427C30.2909 15.4764 30.1997 15.6234 30.0955 15.7704C29.9913 15.9174 29.861 16.0778 29.7047 16.2515C29.4962 16.4787 29.3008 16.6391 29.0923 16.746C28.8839 16.8529 28.6885 16.9198 28.493 16.9198C28.4149 16.9198 28.3237 16.9064 28.2585 16.8663C28.1803 16.8262 28.1152 16.7861 28.0501 16.7193C27.9719 16.6525 27.9067 16.5589 27.8677 16.4654C27.8286 16.3718 27.8025 16.2515 27.8025 16.1312C27.8025 15.9308 27.8677 15.6501 27.9849 15.2893C27.5941 15.7971 27.2423 16.1847 26.9427 16.452C26.5909 16.7594 26.2912 16.9198 26.0437 16.9198C25.7962 16.9198 25.6138 16.8529 25.4835 16.7327C25.3532 16.6124 25.3011 16.4253 25.3011 16.1713C25.3011 16.0377 25.3532 15.8105 25.4574 15.5031C25.5616 15.1957 25.718 14.8215 25.9395 14.3537C26.2 13.7657 26.4606 13.191 26.7342 12.6163C26.7342 12.5896 26.7342 12.5762 26.7342 12.5629V12.5361C26.7342 12.5361 26.7212 12.5361 26.7081 12.5228C26.6951 12.5228 26.6691 12.5228 26.643 12.5228C26.3824 12.5228 26.2521 12.4292 26.2521 12.2421C26.2521 12.055 26.3564 11.9614 26.5779 11.9748C26.7993 11.9882 27.0078 11.9882 27.2162 11.9748C27.4247 11.9748 27.6201 11.9347 27.8286 11.908C27.8807 11.908 27.9198 11.8946 27.9589 11.908C27.9979 11.908 28.024 11.9347 28.0501 11.9748C28.0761 12.0015 28.0891 12.0416 28.0891 12.0817C28.0891 12.1218 28.0891 12.1619 28.0501 12.2154C27.7374 12.8569 27.4247 13.4984 27.112 14.1399C26.5388 15.3561 26.2521 16.0511 26.2521 16.2248C26.2521 16.2916 26.2912 16.3184 26.3694 16.3184C26.4867 16.3184 26.7342 16.1045 27.099 15.6768C27.4768 15.2358 27.9849 14.5809 28.6103 13.7122C28.8318 13.2311 29.0793 12.7366 29.3268 12.2287C29.418 12.0283 29.5223 11.9347 29.6395 11.9347C29.6656 11.9347 29.6916 11.9347 29.7307 11.9347C29.7698 11.9347 29.8219 11.9347 29.8871 11.9347C29.9522 11.9347 30.0043 11.9347 30.0434 11.9347C30.0825 11.9347 30.1216 11.9347 30.1476 11.9347C30.3952 11.9347 30.4603 12.0283 30.3691 12.2154L30.3952 12.1619ZM23.7898 12.1218C23.7898 12.1218 23.907 12.055 23.9852 12.0283C24.0504 12.0015 24.1285 11.9748 24.1937 11.9614C24.337 11.9347 24.4803 11.908 24.5975 11.908C24.7409 11.908 24.806 11.9748 24.806 12.1218V12.1619H24.7669C24.7669 12.1619 24.7409 12.2421 24.6627 12.4158C24.6236 12.5094 24.5715 12.6163 24.5063 12.7366C24.4542 12.8569 24.3891 12.9905 24.3239 13.1242C24.2588 13.2578 24.1937 13.4182 24.1155 13.5786C24.0373 13.739 23.9722 13.8993 23.894 14.0731C23.8158 14.2468 23.7507 14.4072 23.6725 14.5676C23.6074 14.7279 23.5292 14.8883 23.4641 15.0487C23.3989 15.2091 23.3468 15.3427 23.2817 15.4764C23.2296 15.61 23.1775 15.7303 23.1384 15.8506C23.0993 15.9575 23.0602 16.0511 23.0472 16.1312C23.0341 16.1981 23.0211 16.2515 23.0211 16.2783C23.0211 16.4119 23.0993 16.4787 23.2556 16.4787C23.6074 16.4787 23.9722 16.1446 24.35 15.4764L24.363 15.4496C24.4021 15.4496 24.4412 15.4363 24.4673 15.4229C24.4933 15.4229 24.5194 15.4229 24.5454 15.4229C24.5975 15.4229 24.6366 15.4363 24.6627 15.463C24.6627 15.463 24.7018 15.5298 24.7018 15.5833V15.61C24.6106 15.7971 24.4933 15.9575 24.3761 16.1179C24.2458 16.2783 24.1025 16.4119 23.9461 16.5456C23.7898 16.6792 23.6334 16.7728 23.4901 16.8262C23.3468 16.893 23.2035 16.9198 23.0602 16.9198C22.7475 16.9198 22.526 16.8529 22.4088 16.7327C22.4088 16.7327 22.3046 16.5857 22.2655 16.4921C22.2394 16.3985 22.2264 16.2916 22.2264 16.158C22.2264 16.0377 22.2394 15.904 22.2655 15.757C22.2915 15.61 22.3306 15.4496 22.3827 15.2759C22.4218 15.1423 22.4609 15.022 22.5 14.8883C22.5391 14.7814 22.5781 14.6611 22.6172 14.5542C22.4218 14.5542 22.2003 14.5542 21.9788 14.5676C21.8876 14.5676 21.7964 14.5676 21.7183 14.5676C21.6401 14.5676 21.575 14.5676 21.4968 14.5676L21.4447 14.6745L20.6239 16.5856C20.5848 16.6525 20.5327 16.6926 20.4676 16.7327C20.4154 16.7728 20.3503 16.7995 20.2852 16.8129C20.22 16.8262 20.1549 16.8396 20.0897 16.8396C20.0246 16.8396 19.9464 16.8396 19.8813 16.8396C19.8161 16.8396 19.751 16.8129 19.7119 16.7728C19.7119 16.7728 19.6468 16.6792 19.6468 16.599C19.6468 16.5723 19.7249 16.3985 19.8682 16.0778C20.0116 15.757 20.22 15.2893 20.5066 14.6745C20.7542 14.1265 20.9366 13.6855 21.0669 13.3647C21.1841 13.044 21.2493 12.8435 21.2493 12.7366C21.2493 12.6297 21.2362 12.5762 21.1971 12.5361C21.1711 12.496 21.132 12.4827 21.0669 12.4827C21.0408 12.4827 20.8454 12.5361 20.4676 12.6564H20.4545H20.4415C20.3894 12.643 20.3503 12.6163 20.3242 12.5762C20.3242 12.5762 20.2852 12.496 20.2852 12.4559C20.2852 12.349 20.3503 12.2555 20.4676 12.1753C20.4676 12.1753 20.5848 12.1084 20.6499 12.0817C20.7151 12.055 20.7802 12.0283 20.8584 12.0015C21.0017 11.9481 21.1581 11.9213 21.3014 11.8946C21.3795 11.8946 21.4316 11.8812 21.4838 11.8679C21.5359 11.8679 21.575 11.8679 21.614 11.8679C21.6922 11.8679 21.7704 11.8812 21.8355 11.908C21.9007 11.9347 21.9788 11.9748 22.031 12.0283C22.0961 12.0817 22.1482 12.1485 22.1743 12.2287C22.2003 12.3089 22.2264 12.3891 22.2264 12.4827C22.2264 12.6297 22.1743 12.8435 22.07 13.1375C21.9788 13.4048 21.8355 13.739 21.6531 14.1399H22.0179C22.1222 14.1399 22.2264 14.1399 22.3436 14.1399C22.4479 14.1399 22.5651 14.1399 22.7084 14.1399V14.0998C22.8778 13.7122 23.0472 13.338 23.2296 12.9772C23.3208 12.7901 23.3989 12.6297 23.4771 12.4693C23.5553 12.3089 23.6334 12.1753 23.7116 12.0416V12.0283L23.7898 12.1218ZM22.5391 5.13203C22.5391 5.13203 22.5391 5.13203 22.5391 5.1454C22.5391 5.18549 22.513 5.22559 22.4739 5.23895C22.4479 5.25232 22.3957 5.26568 22.3436 5.26568C22.3306 5.26568 22.3176 5.26568 22.3046 5.26568C22.2915 5.26568 22.2524 5.26568 22.2134 5.26568C22.1612 5.26568 22.1091 5.26568 22.044 5.25232C21.9788 5.25232 21.9137 5.23895 21.8486 5.23895C21.7964 5.23895 21.7443 5.23895 21.6922 5.23895C21.4316 5.23895 21.1581 5.33251 20.8584 5.50625C20.5588 5.69335 20.2591 5.96065 19.9334 6.33486C19.777 6.52197 19.5556 6.80263 19.282 7.19021C19.0084 7.56442 18.6696 8.04556 18.2788 8.63361C17.94 9.1281 17.6404 9.55578 17.3798 9.87653C17.1193 10.2107 16.8847 10.4512 16.7024 10.6116C16.4157 10.8522 16.1291 11.066 15.8294 11.2665C15.5298 11.4669 15.2301 11.6407 14.9175 11.8011C14.696 11.908 14.5006 11.9882 14.3442 12.055C14.1748 12.1218 14.0315 12.1619 13.9143 12.1886C13.9143 12.1886 13.8361 12.1886 13.797 12.202C13.797 12.202 13.771 12.202 13.7579 12.202C13.7579 12.202 13.771 12.2287 13.797 12.2555C14.1227 12.6831 14.5006 13.1643 14.9175 13.6855C15.3474 14.2067 15.8164 14.7814 16.3245 15.3962C16.6372 15.7169 16.9369 15.9575 17.2495 16.1179C17.5622 16.2783 17.8619 16.3584 18.1746 16.3584C18.396 16.3584 18.6306 16.305 18.852 16.1847C19.0735 16.0644 19.308 15.8907 19.5295 15.6501H19.5425H19.5686C19.6468 15.6501 19.7119 15.6768 19.751 15.7169C19.7901 15.757 19.8161 15.8239 19.8161 15.8907V15.9174C19.751 16.0377 19.6598 16.1446 19.5425 16.2382C19.4253 16.3451 19.295 16.4253 19.1387 16.5188C18.9302 16.6391 18.7087 16.7193 18.4612 16.7728C18.2267 16.8262 17.9661 16.8529 17.7055 16.8529C16.4027 16.8529 15.1259 16.0377 13.9013 14.3938C13.6798 14.0998 13.4974 13.8726 13.3541 13.6855C13.2107 13.4984 13.1065 13.3781 13.0283 13.2979C12.885 13.1375 12.7417 13.0173 12.6114 12.9103C12.4942 12.8168 12.3639 12.75 12.2466 12.7099C11.7646 13.3781 11.2304 13.9662 10.6311 14.4874C10.0318 15.0086 9.36738 15.463 8.65082 15.8372C7.93426 16.2114 7.17861 16.4921 6.40994 16.6792C5.64126 16.8663 4.8335 16.9599 4.01272 16.9599C2.84016 16.9599 1.88909 16.746 1.17253 16.3184C0.416885 15.8372 0.0390625 15.169 0.0390625 14.3136C0.0390625 13.7924 0.182375 13.3113 0.468999 12.8569C0.755623 12.4158 1.17253 12.0015 1.74578 11.6273C2.35811 11.2264 3.04862 10.919 3.84335 10.7185C4.62505 10.518 5.49795 10.4245 6.46205 10.4245C6.91804 10.4245 7.33495 10.4512 7.69975 10.5047C8.06454 10.5581 8.36419 10.6383 8.62476 10.7319C8.65082 10.7586 8.66385 10.7987 8.67687 10.8254C8.67687 10.8655 8.67687 10.9056 8.67687 10.9457C8.66385 11.0259 8.61173 11.0794 8.53356 11.1061H8.52053H8.5075C8.32511 11.0259 8.0906 10.9591 7.80397 10.919C7.51735 10.8789 7.19164 10.8522 6.81382 10.8522C6.0712 10.8522 5.36767 10.9457 4.67716 11.1328C3.99969 11.3199 3.33524 11.6006 2.70988 11.9614C2.05846 12.3624 1.56338 12.7767 1.22464 13.2445C0.898935 13.6989 0.729566 14.18 0.729566 14.7012C0.729566 14.9685 0.794708 15.2091 0.93802 15.4363C1.08133 15.6501 1.28979 15.8506 1.57641 16.0243C1.86303 16.1981 2.17572 16.3317 2.52748 16.4119C2.87925 16.4921 3.25707 16.5456 3.67398 16.5456C5.02893 16.5456 6.27965 16.2916 7.40009 15.7704C8.53356 15.2492 9.54977 14.474 10.4618 13.4316C10.6963 13.1643 10.9829 12.7767 11.3086 12.2555C11.6473 11.7342 12.0382 11.0794 12.4681 10.2908C12.872 9.55578 13.2498 8.941 13.5755 8.4465C13.9013 7.952 14.1879 7.59115 14.4354 7.36395C14.6178 7.17685 14.8263 6.98974 15.0477 6.80263C15.2041 6.66898 15.3735 6.53534 15.5428 6.40169C15.1259 6.5487 14.7481 6.65562 14.3963 6.72244C13.9664 6.816 13.5886 6.86946 13.2629 6.86946C13.0023 6.86946 12.5593 6.816 11.934 6.69571C11.3086 6.57543 10.4878 6.40169 9.48463 6.17449C8.48145 5.94729 7.62157 5.76018 6.91804 5.65326C6.21451 5.53298 5.64126 5.47952 5.22436 5.47952C4.62505 5.47952 4.0518 5.58644 3.50461 5.78691C2.95742 6.00074 2.44931 6.30814 1.96726 6.72244C1.48521 7.13675 1.12042 7.56442 0.872878 8.00546C0.625339 8.4465 0.508084 8.9009 0.508084 9.36867C0.508084 9.48895 0.508084 9.60924 0.534141 9.71615C0.547169 9.82307 0.573226 9.92999 0.599283 10.0369V10.0636C0.599283 10.0904 0.573226 10.1171 0.547169 10.1305C0.521112 10.1438 0.495056 10.1706 0.468999 10.1839C0.429914 10.1839 0.403857 10.1839 0.364772 10.1839C0.338715 10.1839 0.312658 10.1572 0.286602 10.1438C0.22146 10.0235 0.169346 9.86317 0.143289 9.68942C0.117233 9.51568 0.091176 9.30185 0.091176 9.07464C0.091176 8.41977 0.260545 7.81835 0.612311 7.29713C0.964077 6.7759 1.48521 6.30813 2.17572 5.90719C2.77502 5.55971 3.41341 5.30578 4.10391 5.13203C4.79442 4.95829 5.52401 4.8781 6.30571 4.8781C6.64445 4.8781 7.17861 4.9182 7.9082 5.01175C8.62476 5.1053 9.53675 5.22559 10.6311 5.41269C11.7255 5.58644 12.5984 5.72008 13.2368 5.81364C13.8752 5.90719 14.2921 5.94729 14.4745 5.94729C14.9956 5.94729 15.4647 5.89383 15.8946 5.80027C16.3245 5.70672 16.7154 5.55971 17.0541 5.3726H17.0671H17.0802C17.1323 5.38596 17.1844 5.42606 17.2105 5.50625C17.2105 5.54634 17.2235 5.58644 17.2105 5.62653C17.2105 5.66663 17.1974 5.69336 17.1714 5.72008C17.1062 5.77354 16.989 5.827 16.8326 5.90719C16.6893 5.97402 16.4939 6.0542 16.2724 6.14776C16.2724 6.18785 16.2724 6.22795 16.2724 6.26804C16.2594 6.3215 16.2073 6.36159 16.1552 6.41505C16.0118 6.50861 15.8685 6.64225 15.7122 6.816C15.5559 6.97637 15.3865 7.17685 15.2041 7.41741C15.1259 7.51097 15.0087 7.71144 14.8393 8.01883C14.6699 8.33958 14.4615 8.75389 14.2009 9.28848C13.9013 9.87653 13.6277 10.4111 13.3671 10.8923C13.1326 11.3333 12.8981 11.7075 12.6896 12.0416C13.1977 11.9882 13.6798 11.8412 14.1358 11.6006C14.6178 11.36 15.0738 11.0125 15.4907 10.5715C15.608 10.4512 15.7904 10.224 16.0509 9.86317C16.3115 9.50232 16.6502 9.02119 17.0671 8.41977C17.445 7.87181 17.7967 7.39068 18.1355 6.97637C18.4742 6.56207 18.7869 6.22795 19.0735 5.97401C19.5035 5.58644 19.9334 5.29241 20.3764 5.1053C20.8193 4.9182 21.2623 4.81128 21.7052 4.81128C21.9658 4.81128 22.1612 4.83801 22.2915 4.89147C22.4348 4.94493 22.513 5.02512 22.513 5.1454L22.5391 5.13203Z" fill="black"/>
<path fill-rule="evenodd" clip-rule="evenodd" d="M38.7333 5.28526e-05C39.7104 -0.066771 40.5442 0.695021 40.6094 1.69738C40.6745 2.69974 39.9319 3.55508 38.9548 3.62191C37.9776 3.68873 37.1438 2.92694 37.0787 1.92458C37.0135 0.922223 37.7562 0.0668767 38.7333 5.28526e-05Z" fill="black"/>
<path fill-rule="evenodd" clip-rule="evenodd" d="M38.0039 4.50395C39.1243 4.58414 40.7399 3.96936 41.5607 3.08728C41.5607 5.63995 41.3652 7.75159 39.6715 14.434H39.4501C40.0754 8.78068 39.0201 6.46857 38.0039 4.50395Z" fill="black"/>
<path fill-rule="evenodd" clip-rule="evenodd" d="M44.6742 9.07463C44.557 8.67369 44.7133 7.17683 44.9999 6.68233C43.4626 6.34822 40.0101 6.74916 33.0269 9.47557L33.079 9.62259C39.4889 8.19255 42.2379 8.72715 44.6742 9.06127" fill="black"/>
</g>
<defs>
<clipPath id="clip0_3790_7171">
<rect width="45" height="17" fill="white"/>
</clipPath>
</defs>
</svg>
