<svg width="20" height="10" viewBox="0 0 20 10" fill="none" xmlns="http://www.w3.org/2000/svg">
<g clip-path="url(#clip0_3790_6393)">
<path d="M1.53 6.33C0.68 6.33 0 7.02 0 7.86C0 8.7 0.69 9.39 1.53 9.39C2.37 9.39 3.06 8.7 3.06 7.86C3.06 7.02 2.37 6.33 1.53 6.33ZM1.53 8.5C1.18 8.5 0.89 8.21 0.89 7.86C0.89 7.51 1.18 7.22 1.53 7.22C1.88 7.22 2.17 7.51 2.17 7.86C2.17 8.21 1.88 8.5 1.53 8.5Z" fill="black"/>
<path d="M3.43018 9.32H4.39018V7.18H5.27018V9.32H6.23018V6.43H3.43018V9.32Z" fill="black"/>
<path d="M6.68018 7.18H7.53018V9.32H8.49018V7.18H9.34018V6.43H6.68018V7.18Z" fill="black"/>
<path d="M10.8199 7.93V6.43H9.85986V9.32H10.7799L11.7699 7.82V9.32H12.7299V6.43H11.8099L10.8199 7.93Z" fill="black"/>
<path d="M18.4199 6.43H17.4599L16.2499 9.2L15.4599 7.83L16.3199 6.42H15.2999L14.6799 7.5H14.3799V6.42H13.3999V9.32H14.3799V8.27H14.6499L15.1999 9.32H17.1699L17.3599 8.81H18.4599L18.6499 9.32H19.6599L18.3899 6.42L18.4199 6.43ZM17.6499 8.12L17.9299 7.39L18.2099 8.12H17.6499Z" fill="black"/>
<path d="M10.1 4.4H11.75V4.97H12.64V3.65H12.26V1.5H9.80996L9.77996 2.38C9.75996 2.79 9.71996 3.11 9.64996 3.32C9.57996 3.53 9.45996 3.64 9.28996 3.64H9.20996V4.96H10.1V4.39V4.4ZM10.56 3.18C10.59 2.99 10.62 2.75 10.63 2.47V2.26H11.3V3.64H10.41C10.48 3.52 10.53 3.37 10.56 3.17V3.18Z" fill="black"/>
<path d="M5.83977 5.24C6.15977 5.05 6.45977 4.82 6.72977 4.57H6.31977V3.93C6.06977 4.19 5.77977 4.42 5.45977 4.61C4.19977 5.36 2.66977 5.42 1.49977 4.77C1.49977 4.59 1.49977 4.42 1.52977 4.24L1.14977 3.52V4.57H0.759766C0.759766 4.72 0.759766 4.87 0.759766 5.01V5.2L0.929766 5.3C1.60977 5.73 2.41977 5.96 3.27977 5.96C3.27977 5.96 3.28977 5.96 3.29977 5.96C4.17977 5.96 5.04977 5.71 5.82977 5.25L5.83977 5.24Z" fill="black"/>
<path d="M3.21006 1.33L3.06006 1.58L2.95006 1.75C3.12006 1.6 3.31006 1.47 3.51006 1.35C4.77006 0.6 6.30006 0.539999 7.47006 1.18C7.47006 1.23 7.47006 1.27 7.47006 1.32H7.86006C7.98006 1.32 8.11006 1.32 8.21006 1.34C8.21006 0.99 8.16006 0.72 8.16006 0.72L8.03006 0.64C7.35006 0.21 6.54006 -0.0200005 5.69006 -0.0200005C5.69006 -0.0200005 5.67006 -0.0200005 5.66006 -0.0200005C4.78006 -0.0200005 3.91006 0.23 3.13006 0.7C2.83006 0.88 2.56006 1.08 2.31006 1.31H3.21006V1.33Z" fill="black"/>
<path d="M0.98 3.35H1.25L1.8 4.4H2.91L2.05 2.91L2.91 1.5H1.89L1.27 2.58H0.98V1.5H0V4.4H0.98V3.35Z" fill="black"/>
<path d="M4.55002 4.49C5.40002 4.49 6.08002 3.8 6.08002 2.96C6.08002 2.12 5.39002 1.43 4.55002 1.43V2.32C4.90002 2.32 5.19002 2.61 5.19002 2.96C5.19002 3.31 4.90002 3.6 4.55002 3.6C4.20002 3.6 3.91002 3.31 3.91002 2.96C3.91002 2.8 3.97002 2.66 4.07002 2.54L3.41002 1.94C3.17002 2.21 3.02002 2.57 3.02002 2.96C3.02002 3.81 3.71002 4.49 4.55002 4.49Z" fill="black"/>
<path d="M6.47998 1.5V4.4H7.45998V3.69H7.87998C8.14998 3.69 8.37998 3.65 8.57998 3.56C8.77998 3.47 8.92998 3.34 9.03998 3.18C9.14998 3.01 9.19998 2.82 9.19998 2.6C9.19998 2.38 9.14998 2.19 9.03998 2.02C8.92998 1.85 8.77998 1.73 8.57998 1.64C8.37998 1.55 8.14998 1.51 7.87998 1.51H6.47998V1.5ZM8.20998 2.59C8.20998 2.7 8.17998 2.78 8.10998 2.84C8.03998 2.9 7.93998 2.93 7.80998 2.93H7.44998V2.25H7.80998C7.93998 2.25 8.03998 2.28 8.10998 2.34C8.17998 2.4 8.20998 2.48 8.20998 2.59Z" fill="black"/>
</g>
<defs>
<clipPath id="clip0_3790_6393">
<rect width="19.69" height="9.4" fill="white"/>
</clipPath>
</defs>
</svg>
