<svg width="21" height="5" viewBox="0 0 21 5" fill="none" xmlns="http://www.w3.org/2000/svg">
<g clip-path="url(#clip0_3790_6646)">
<path d="M6.2904 2.3054V1.52391C6.2904 1.52391 6.341 1.52391 6.41613 1.52391C6.42226 1.52391 6.70283 1.5286 6.81629 1.61143C6.89754 1.67083 6.94507 1.77555 6.94507 1.92247C6.94507 2.07252 6.91288 2.16317 6.83928 2.21944C6.72276 2.30853 6.53418 2.30696 6.46059 2.30696C6.42379 2.30696 6.2904 2.30696 6.2904 2.30696M7.3897 1.87245C7.3897 1.0722 6.55258 1.14098 6.48512 1.14098H5.85498V3.87464L6.25974 3.87933V2.65395H6.31187L7.20112 3.87308H7.69327L6.77642 2.6305C6.77642 2.6305 7.3897 2.65082 7.3897 1.87089V1.87245Z" fill="black"/>
<path d="M9.98704 3.51516C9.44276 3.51516 9.00274 3.06502 9.00274 2.51172C9.00274 1.95686 9.4443 1.50828 9.98704 1.50828C10.5313 1.50828 10.9713 1.95842 10.9713 2.51172C10.9713 3.06658 10.5298 3.51516 9.98704 3.51516ZM9.98704 1.1441C9.24652 1.1441 8.64551 1.7568 8.64551 2.51172C8.64551 3.26664 9.24652 3.87933 9.98704 3.87933C10.7276 3.87933 11.3286 3.26664 11.3286 2.51172C11.3286 1.7568 10.7276 1.1441 9.98704 1.1441Z" fill="black"/>
<path d="M16.9675 3.51203C16.4232 3.51203 15.9832 3.06189 15.9832 2.50859C15.9832 1.95373 16.4248 1.50515 16.9675 1.50515C17.5118 1.50515 17.9518 1.95529 17.9518 2.50859C17.9518 3.06345 17.5103 3.51203 16.9675 3.51203ZM16.9675 1.14098C16.227 1.14098 15.626 1.75367 15.626 2.50859C15.626 3.26351 16.227 3.87621 16.9675 3.87621C17.708 3.87621 18.309 3.26351 18.309 2.50859C18.309 1.75367 17.708 1.14098 16.9675 1.14098Z" fill="black"/>
<path d="M14.274 3.03532L12.2793 1.13942L12.2808 3.87465H12.681V1.97406L14.6741 3.87309V1.14098H14.2724L14.274 3.03532Z" fill="black"/>
<path d="M20.1658 2.22569C19.2858 1.78493 20.1965 1.08002 20.5721 1.71147L20.9125 1.53173C20.9125 1.53173 20.8051 1.07846 20.1459 1.07846C19.4866 1.07846 19.3394 1.61769 19.3394 1.74429C19.3394 1.87246 19.2398 2.23351 19.9297 2.58518C20.2103 2.73054 20.5506 2.88059 20.5506 3.11972C20.5506 3.46358 20.3007 3.54642 20.1244 3.54642C19.6691 3.54642 19.6108 3.15724 19.6108 3.15724L19.2612 3.32448C19.2612 3.32448 19.3655 3.94967 20.0876 3.94967C20.868 3.94967 20.983 3.37762 20.9968 3.21507C20.9968 2.96499 21.101 2.61644 20.1673 2.22413" fill="black"/>
<path d="M2.45156 0C1.09776 0 0 1.1191 0 2.49922C0 3.87934 1.09776 4.99844 2.45156 4.99844C3.08783 4.99844 3.66737 4.75148 4.1028 4.34667L2.67694 2.48203V3.87152H2.24458V1.13942H2.67694V2.27415L3.64131 1.13942H4.17639L3.11389 2.36168L4.41097 4.00438C4.72067 3.5855 4.90465 3.06502 4.90465 2.50078C4.90465 1.1191 3.80689 0 2.45156 0Z" fill="black"/>
</g>
<defs>
<clipPath id="clip0_3790_6646">
<rect width="21" height="5" fill="white"/>
</clipPath>
</defs>
</svg>
