<svg width="10" height="4" viewBox="0 0 10 4" fill="none" xmlns="http://www.w3.org/2000/svg">
<path d="M0.505001 3V2.73725H0.574145C0.672483 2.73725 0.748926 2.70575 0.803473 2.64275C0.858021 2.57976 0.897202 2.47796 0.921019 2.33737C0.945603 2.19677 0.962121 2.01047 0.970572 1.77845L1.01206 0.639876H2.45026V3H2.16446V0.893405H1.28403L1.24715 1.83377C1.23793 2.08115 1.21527 2.29166 1.17916 2.46528C1.14305 2.63891 1.07967 2.77144 0.989011 2.86286C0.898355 2.95429 0.766212 3 0.592583 3H0.505001ZM3.62919 3.03688C3.45864 3.03688 3.31151 2.99923 3.18782 2.92394C3.0649 2.84788 2.97002 2.74186 2.90318 2.60588C2.83711 2.46913 2.80407 2.31009 2.80407 2.12878C2.80407 1.94747 2.83711 1.78767 2.90318 1.64938C2.97002 1.51033 3.06298 1.402 3.18206 1.3244C3.30191 1.24604 3.44173 1.20686 3.60153 1.20686C3.69373 1.20686 3.78477 1.22222 3.87465 1.25295C3.96454 1.28369 4.04636 1.33362 4.12012 1.40277C4.19387 1.47114 4.25264 1.5618 4.29643 1.67473C4.34023 1.78767 4.36212 1.92673 4.36212 2.09191V2.20715H2.99767V1.97206H4.08554C4.08554 1.87218 4.06557 1.78306 4.02562 1.7047C3.98644 1.62633 3.93035 1.56449 3.85737 1.51916C3.78515 1.47383 3.69987 1.45117 3.60153 1.45117C3.49321 1.45117 3.39948 1.47806 3.32035 1.53184C3.24198 1.58485 3.18167 1.65399 3.13942 1.73927C3.09717 1.82455 3.07604 1.91597 3.07604 2.01354V2.17027C3.07604 2.30395 3.09909 2.41727 3.14518 2.51023C3.19205 2.60242 3.25697 2.67272 3.33994 2.72112C3.42291 2.76875 3.51933 2.79257 3.62919 2.79257C3.70064 2.79257 3.76518 2.78258 3.8228 2.7626C3.88118 2.74186 3.93151 2.71113 3.97376 2.67041C4.01602 2.62893 4.04867 2.57745 4.07172 2.51599L4.33446 2.58974C4.30681 2.67886 4.26033 2.75723 4.19502 2.82483C4.12972 2.89167 4.04905 2.94392 3.95302 2.98156C3.85698 3.01844 3.74904 3.03688 3.62919 3.03688ZM4.51369 1.48344V1.22991H5.95189V1.48344H5.37107V3H5.09911V1.48344H4.51369ZM6.68023 3.04149C6.56806 3.04149 6.46627 3.02036 6.37484 2.9781C6.28342 2.93508 6.21082 2.87324 6.15704 2.79257C6.10326 2.71113 6.07637 2.61279 6.07637 2.49755C6.07637 2.39614 6.09634 2.31394 6.13629 2.25094C6.17624 2.18717 6.22964 2.13723 6.29648 2.10112C6.36332 2.06502 6.43707 2.03813 6.51774 2.02046C6.59918 2.00202 6.681 1.98742 6.7632 1.97666C6.87076 1.96284 6.95796 1.95246 7.0248 1.94555C7.09241 1.93787 7.14157 1.92519 7.17231 1.90752C7.2038 1.88985 7.21955 1.85912 7.21955 1.81533V1.80611C7.21955 1.69241 7.18844 1.60405 7.12621 1.54106C7.06475 1.47806 6.9714 1.44656 6.84618 1.44656C6.71634 1.44656 6.61454 1.47498 6.54079 1.53184C6.46703 1.58869 6.41518 1.64938 6.38521 1.71392L6.12707 1.62172C6.17317 1.51417 6.23463 1.43043 6.31146 1.3705C6.38905 1.30981 6.47356 1.26755 6.56499 1.24374C6.65718 1.21915 6.74784 1.20686 6.83696 1.20686C6.89381 1.20686 6.95911 1.21377 7.03286 1.2276C7.10739 1.24066 7.17922 1.26794 7.24836 1.30942C7.31828 1.35091 7.37628 1.41352 7.42238 1.49726C7.46847 1.58101 7.49152 1.69317 7.49152 1.83377V3H7.21955V2.7603H7.20573C7.18729 2.79871 7.15656 2.83982 7.11353 2.88361C7.07051 2.9274 7.01327 2.96466 6.94182 2.99539C6.87038 3.02612 6.78318 3.04149 6.68023 3.04149ZM6.72172 2.79718C6.82927 2.79718 6.91993 2.77605 6.99368 2.73379C7.06821 2.69154 7.12429 2.63699 7.16193 2.57015C7.20035 2.50331 7.21955 2.43302 7.21955 2.35926V2.11034C7.20803 2.12417 7.18268 2.13685 7.1435 2.14837C7.10508 2.15913 7.06052 2.16873 7.00982 2.17718C6.95988 2.18487 6.91109 2.19178 6.86346 2.19793C6.8166 2.2033 6.77857 2.20791 6.74937 2.21176C6.67869 2.22097 6.61262 2.23596 6.55116 2.2567C6.49047 2.27667 6.4413 2.30702 6.40365 2.34774C6.36677 2.38769 6.34834 2.44224 6.34834 2.51138C6.34834 2.60588 6.38329 2.67733 6.45321 2.72573C6.52389 2.77336 6.61339 2.79718 6.72172 2.79718ZM8.16253 2.59896L9.01531 1.22991H9.32877V3H9.0568V1.63094L8.20863 3H7.89056V1.22991H8.16253V2.59896ZM8.83554 0.639876H9.08907C9.08907 0.764335 9.04604 0.866131 8.96 0.945263C8.87395 1.02439 8.75717 1.06396 8.60967 1.06396C8.46446 1.06396 8.34884 1.02439 8.26279 0.945263C8.17751 0.866131 8.13487 0.764335 8.13487 0.639876H8.3884C8.3884 0.699801 8.40492 0.752427 8.43796 0.797755C8.47176 0.843083 8.529 0.865747 8.60967 0.865747C8.69033 0.865747 8.74795 0.843083 8.78253 0.797755C8.81787 0.752427 8.83554 0.699801 8.83554 0.639876Z" fill="black"/>
</svg>
