<svg width="80" height="10" viewBox="0 0 80 10" fill="none" xmlns="http://www.w3.org/2000/svg">
<g clip-path="url(#clip0_3790_6626)">
<path fill-rule="evenodd" clip-rule="evenodd" d="M13.4073 1.04408L13.3185 1.11368L14.3618 2.5754L14.4506 2.50579C15.0499 1.97215 16.071 1.62412 17.6027 1.62412C19.7114 1.62412 20.8657 2.29698 21.2431 3.15545H17.4917V4.77958H21.0877C20.5993 5.52204 19.4673 6.05568 17.5805 6.05568C16.0488 6.05568 15.0277 5.70765 14.4284 5.17401L14.3396 5.1044L13.2963 6.56612L13.3851 6.63572C14.3396 7.28538 15.7159 7.67981 17.5805 7.67981C19.4451 7.67981 20.9323 7.26217 21.8646 6.56612C22.8191 5.87006 23.263 4.89559 23.263 3.8283C23.263 2.76101 22.7969 1.78654 21.8424 1.09048C20.8879 0.394425 19.4673 -0.0232086 17.5583 -0.0232086C15.6493 -0.0232086 14.2952 0.371223 13.3629 1.02087L13.4073 1.04408ZM0 7.37818V7.23897C0.621532 4.91879 1.39845 3.17865 2.41953 2.01855C3.41842 0.881664 4.66149 0.324819 6.17092 0.324819C7.68036 0.324819 8.92342 0.881664 9.94451 2.04176C10.9656 3.17865 11.7425 4.91879 12.3196 7.26217V7.40139H10.4329V7.33178C9.81132 5.058 9.0788 3.7819 8.32408 3.08584C7.59157 2.38978 6.83685 2.25057 6.17092 2.25057C5.50499 2.25057 4.75028 2.38978 4.01776 3.08584C3.28524 3.7819 2.55272 5.058 1.93119 7.33178V7.40139H0V7.37818ZM56.4928 7.37818V7.23897C57.1143 4.89558 57.8912 3.15545 58.9123 2.01855C59.9334 0.858462 61.1765 0.301617 62.6859 0.301617C64.1953 0.301617 65.4384 0.858462 66.4595 2.01855C67.4806 3.17865 68.2575 4.89558 68.8346 7.23897V7.37818H66.9478V7.30858C66.3263 5.0348 65.5938 3.75869 64.8391 3.06264C64.1065 2.36658 63.3518 2.22737 62.6859 2.22737C62.02 2.22737 61.2653 2.36658 60.5327 3.06264C59.8002 3.75869 59.0677 5.0348 58.4462 7.30858V7.37818H56.515H56.4928ZM23.7958 1.94895V0.324819H33.7847V1.94895H29.7447V7.37818H27.8357V1.94895H23.7958ZM53.4073 3.15545C53.4073 2.85382 53.3407 2.645 53.2741 2.48259C53.1854 2.29698 53.0744 2.18097 52.9412 2.11136C52.7858 2.04176 52.6304 1.99535 52.4306 1.97215C52.2309 1.97215 52.0311 1.97215 51.8091 1.97215H46.1709V0.324819H51.9201C52.3196 0.324819 52.7192 0.324819 53.0744 0.371223C53.4739 0.417627 53.8735 0.510434 54.2064 0.696049C54.5394 0.881664 54.828 1.16009 55.0278 1.57772C55.2275 1.99535 55.3385 2.5522 55.3385 3.27145V7.37818H48.8346C47.9911 7.37818 47.1254 7.37818 46.4595 7.12296C46.1265 6.98375 45.838 6.79814 45.6382 6.49651C45.4384 6.19489 45.3274 5.80046 45.3274 5.29002C45.3274 4.77958 45.4384 4.38514 45.6382 4.08352C45.838 3.7819 46.1265 3.57308 46.4595 3.45707C47.1254 3.20185 47.9911 3.20185 48.8346 3.20185H53.4295L53.4073 3.15545ZM48.8346 5.75405H53.4295V4.80278H48.8346C48.4129 4.80278 47.9911 4.80278 47.6804 4.87238C47.525 4.89558 47.414 4.96519 47.3474 5.01159C47.2808 5.0812 47.2364 5.15081 47.2364 5.26681C47.2364 5.38282 47.2808 5.45243 47.3474 5.52204C47.414 5.59164 47.5472 5.63804 47.6804 5.66125C47.9911 5.73085 48.4129 5.73085 48.8346 5.73085V5.75405ZM76.404 3.15545H71.9201V0.324819H70.0111V7.37818H76.515C77.3585 7.37818 78.2242 7.37818 78.8901 7.12296C79.2231 6.98375 79.5117 6.79814 79.7114 6.49651C79.9112 6.19489 80.0222 5.80046 80.0222 5.29002C80.0222 4.77958 79.9112 4.38514 79.7114 4.08352C79.5117 3.7819 79.2231 3.57308 78.8901 3.45707C78.2242 3.20185 77.3585 3.20185 76.515 3.20185H76.404V3.15545ZM76.515 5.75405H71.9423V4.80278H76.515C76.9367 4.80278 77.3585 4.80278 77.6693 4.87238C77.8246 4.89558 77.9356 4.96519 78.0244 5.01159C78.091 5.0812 78.1354 5.15081 78.1354 5.26681C78.1354 5.38282 78.091 5.45243 78.0244 5.52204C77.9578 5.59164 77.8246 5.63804 77.6693 5.66125C77.3585 5.73085 76.9589 5.73085 76.515 5.73085V5.75405ZM34.8946 0.324819L38.8457 6.54292L36.6482 10.0232H38.9345L45.061 0.324819H42.7747L39.9112 4.84918L37.0477 0.324819H34.8946Z" fill="black"/>
</g>
<defs>
<clipPath id="clip0_3790_6626">
<rect width="80" height="10" fill="white"/>
</clipPath>
</defs>
</svg>
