<svg width="18" height="7" viewBox="0 0 18 7" fill="none" xmlns="http://www.w3.org/2000/svg">
<g clip-path="url(#clip0_3790_6907)">
<path d="M13.52 3.61995C13.57 3.71995 13.64 3.78995 13.71 3.84995C13.79 3.89995 13.87 3.92995 13.96 3.92995C14.08 3.92995 14.18 3.88995 14.26 3.80995C14.34 3.72995 14.38 3.62995 14.38 3.50995C14.38 3.31995 14.21 3.14995 13.86 3.00995C13.67 2.92995 13.54 2.84995 13.47 2.74995C13.39 2.64995 13.35 2.52995 13.35 2.38995C13.35 2.18995 13.42 2.02995 13.55 1.89995C13.68 1.76995 13.86 1.70995 14.07 1.70995C14.23 1.70995 14.37 1.74995 14.49 1.81995C14.61 1.88995 14.7 1.98995 14.75 2.11995L14.6 2.21995C14.56 2.10995 14.51 2.02995 14.43 1.96995C14.35 1.90995 14.26 1.87995 14.16 1.87995C14.05 1.87995 13.96 1.91995 13.89 1.98995C13.82 2.05995 13.78 2.15995 13.78 2.26995C13.78 2.35995 13.81 2.43995 13.87 2.49995C13.93 2.55995 14.04 2.62995 14.2 2.69995C14.45 2.80995 14.62 2.90995 14.7 3.00995C14.78 3.10995 14.82 3.23995 14.82 3.38995C14.82 3.59995 14.75 3.76995 14.61 3.89995C14.47 4.02995 14.29 4.09995 14.07 4.09995C13.91 4.09995 13.77 4.06995 13.66 4.00995C13.54 3.94995 13.44 3.85995 13.36 3.72995L13.53 3.60995L13.52 3.61995ZM12.39 2.71995L12.6 1.99995C12.63 1.87995 12.67 1.80995 12.7 1.75995C12.73 1.71995 12.77 1.69995 12.82 1.69995C12.87 1.69995 12.91 1.71995 12.94 1.74995C12.97 1.77995 12.99 1.81995 12.99 1.86995C12.99 1.89995 12.99 1.93995 12.96 1.97995C12.94 2.01995 12.91 2.06995 12.87 2.11995L12.39 2.72995V2.71995ZM10.06 4.04995V1.75995H10.45L11.64 3.34995V1.75995H11.84V4.05995H11.64L10.26 2.22995V4.05995H10.06V4.04995ZM7.86001 4.04995L8.81001 1.69995L9.79001 4.04995H9.34001L9.10001 3.43995H8.31001L8.07001 4.04995H7.87001H7.86001ZM8.36001 3.28995H9.03001L8.69001 2.44995L8.36001 3.28995ZM7.57001 4.04995H7.15001V1.75995H7.57001V4.05995V4.04995ZM6.89001 3.87995V4.04995H5.47001V1.75995H5.90001V3.88995H6.90001L6.89001 3.87995ZM4.86001 4.04995H4.44001V1.75995H4.86001V4.05995V4.04995ZM4.18001 3.87995V4.04995H2.76001V1.75995H3.19001V3.88995H4.19001L4.18001 3.87995Z" fill="#020203"/>
<path d="M14.2001 6.17C14.2001 6.17 14.2201 6.21 14.2501 6.21C14.2801 6.21 14.3301 6.19 14.3901 6.15C14.4201 6.13 14.4401 6.11 14.4601 6.11C14.4701 6.11 14.4901 6.11 14.5001 6.12C14.5101 6.12 14.5201 6.13 14.5201 6.14C14.5201 6.15 14.5201 6.16 14.5001 6.17C14.4801 6.19 14.4501 6.22 14.4201 6.24C14.3901 6.26 14.3601 6.28 14.3301 6.3C14.3001 6.32 14.2701 6.33 14.2401 6.34C14.2101 6.34 14.1801 6.35 14.1601 6.35C14.1001 6.35 14.0601 6.33 14.0201 6.3C13.9901 6.27 13.9701 6.22 13.9701 6.17C13.9701 6.13 13.9701 6.08 14.0001 6.03C14.0201 5.98 14.0401 5.93 14.0701 5.88C14.1101 5.83 14.1501 5.78 14.2101 5.74C14.2801 5.7 14.3401 5.67 14.4001 5.67C14.4401 5.67 14.4801 5.68 14.5001 5.71C14.5201 5.74 14.5401 5.78 14.5401 5.82C14.5401 5.86 14.5401 5.9 14.5101 5.94C14.4901 5.98 14.4601 6.02 14.4201 6.06C14.3901 6.09 14.3601 6.12 14.3301 6.13C14.3001 6.15 14.2701 6.16 14.2501 6.16C14.2401 6.16 14.2301 6.16 14.2201 6.16M14.2201 6.14C14.2201 6.14 14.2601 6.11 14.2701 6.1C14.2901 6.07 14.3101 6.03 14.3301 6C14.3401 5.97 14.3501 5.95 14.3501 5.91C14.3501 5.88 14.3501 5.85 14.3501 5.82C14.3501 5.79 14.3501 5.78 14.3301 5.78C14.3201 5.78 14.2901 5.81 14.2601 5.88C14.2401 5.92 14.2301 5.96 14.2201 6C14.2101 6.04 14.2001 6.07 14.2001 6.1C14.2001 6.1 14.2001 6.12 14.2001 6.14H14.2201ZM13.4801 6.1L13.2901 6.3C13.2901 6.3 13.2501 6.34 13.2301 6.35C13.2201 6.35 13.2001 6.36 13.1801 6.36C13.1501 6.36 13.1301 6.35 13.1101 6.33C13.0901 6.31 13.0801 6.28 13.0801 6.25C13.0801 6.23 13.0801 6.21 13.0801 6.19C13.0801 6.17 13.1001 6.13 13.1101 6.09V6.07C13.1101 6.07 13.1101 6.06 13.1101 6.05C13.1101 6.05 13.0201 6.14 12.9801 6.2C12.9401 6.24 12.9201 6.28 12.8901 6.3C12.8701 6.32 12.8501 6.34 12.8301 6.35C12.8101 6.36 12.8001 6.37 12.7801 6.37C12.7501 6.37 12.7301 6.36 12.7101 6.33C12.6901 6.31 12.6801 6.27 12.6801 6.23C12.6801 6.18 12.7001 6.1 12.7501 5.98C12.7901 5.88 12.8201 5.81 12.8401 5.77C12.8701 5.72 12.9101 5.7 12.9501 5.7C12.9701 5.7 13.0001 5.7 13.0101 5.72C13.0301 5.73 13.0301 5.75 13.0301 5.77C13.0301 5.8 13.0201 5.86 12.9901 5.93C12.9801 5.96 12.9701 5.99 12.9601 6.02C12.9601 6.02 13.0001 5.97 13.0401 5.92C13.1101 5.84 13.1501 5.78 13.1901 5.75C13.2301 5.71 13.2701 5.69 13.3101 5.69C13.3301 5.69 13.3401 5.69 13.3501 5.71C13.3601 5.72 13.3801 5.73 13.3801 5.75C13.3801 5.77 13.3901 5.79 13.3901 5.81C13.3901 5.83 13.3801 5.88 13.3501 5.96C13.3501 5.98 13.3401 5.99 13.3401 6C13.3401 6 13.3401 6.02 13.3401 6.03C13.3401 6.03 13.3501 6.03 13.3601 6.02C13.3601 6.02 13.3701 6.01 13.3801 6C13.3801 6 13.3901 5.99 13.4001 5.98C13.4101 5.97 13.4401 5.94 13.4901 5.88C13.5201 5.84 13.5501 5.82 13.5701 5.8C13.5901 5.79 13.6101 5.78 13.6201 5.78C13.6501 5.78 13.6701 5.78 13.6901 5.81C13.7001 5.83 13.7101 5.86 13.7101 5.9C13.7101 5.92 13.7101 5.96 13.7001 6.01C13.7001 6.07 13.6901 6.11 13.6901 6.15C13.6901 6.18 13.6901 6.21 13.6901 6.22C13.6901 6.22 13.6901 6.24001 13.6901 6.26C13.6901 6.27 13.6901 6.29 13.6901 6.31C13.6901 6.33 13.6901 6.35 13.7001 6.37C13.7001 6.4 13.7001 6.42 13.7101 6.43C13.7101 6.45 13.6901 6.46 13.6701 6.47C13.6501 6.48 13.6301 6.49 13.6001 6.49C13.5601 6.49 13.5301 6.47 13.4901 6.44C13.4801 6.42 13.4601 6.41 13.4601 6.39C13.4601 6.37 13.4501 6.36 13.4401 6.33C13.4401 6.31 13.4401 6.28 13.4401 6.24C13.4401 6.22 13.4401 6.17 13.4401 6.09L13.4301 6.1H13.4801ZM12.2501 5.65C12.3201 5.65 12.3501 5.65 12.3501 5.67C12.3501 5.69 12.3301 5.7 12.3001 5.7C12.2601 5.7 12.2301 5.71 12.1901 5.73C12.1601 5.75 12.1301 5.78 12.1001 5.81C12.0701 5.84 12.0501 5.88 12.0401 5.92C12.0301 5.96 12.0201 6.01 12.0201 6.05C12.0201 6.1 12.0301 6.14 12.0601 6.17C12.0801 6.2 12.1101 6.22 12.1501 6.22C12.1901 6.22 12.2201 6.2 12.2401 6.17C12.2701 6.13 12.2801 6.09 12.2801 6.04C12.2801 6 12.2801 5.96 12.2601 5.93C12.2401 5.9 12.2201 5.87 12.1901 5.84C12.1801 5.83 12.1701 5.82 12.1701 5.82C12.1701 5.82 12.1701 5.8 12.2001 5.79C12.2201 5.78 12.2501 5.76 12.2701 5.75C12.3001 5.75 12.3201 5.74 12.3401 5.74C12.3601 5.74 12.3801 5.74 12.4001 5.76C12.4201 5.77 12.4401 5.79 12.4501 5.81C12.4601 5.83 12.4801 5.85 12.4801 5.88C12.4801 5.91 12.4901 5.93 12.4901 5.96C12.4901 6.01 12.4901 6.06 12.4601 6.11C12.4401 6.16 12.4201 6.2 12.3901 6.23C12.3501 6.27 12.3001 6.3 12.2501 6.32C12.2001 6.34 12.1401 6.36 12.0901 6.36C12.0401 6.36 11.9901 6.36 11.9501 6.33C11.9001 6.31 11.8601 6.29 11.8401 6.26C11.8001 6.22 11.7801 6.17 11.7801 6.1C11.7801 6.05 11.7901 5.99 11.8201 5.94C11.8501 5.89 11.8801 5.84 11.9301 5.79C11.9801 5.75 12.0301 5.71 12.0801 5.69C12.1301 5.66 12.1901 5.65 12.2501 5.65ZM10.8901 6.04V6.09C10.8901 6.09 10.8701 6.11 10.8601 6.13C10.8301 6.22 10.8101 6.28 10.8001 6.3C10.8001 6.3 10.8001 6.31 10.7801 6.32C10.7501 6.35 10.7101 6.36 10.6701 6.36C10.6401 6.36 10.6101 6.36 10.5901 6.34C10.5701 6.32 10.5601 6.31 10.5601 6.28C10.5601 6.26 10.5601 6.23 10.5801 6.19C10.5901 6.15 10.6101 6.1 10.6201 6.06C10.5801 6.06 10.5701 6.04 10.5701 6.01C10.5701 5.99001 10.5701 5.97 10.5901 5.95C10.6001 5.93 10.6201 5.91 10.6301 5.89C10.6501 5.87 10.6601 5.86 10.6801 5.86C10.6801 5.84 10.7001 5.8 10.7201 5.73C10.7601 5.59 10.8001 5.5 10.8301 5.45C10.8401 5.43 10.8501 5.42 10.8601 5.41C10.8801 5.39 10.9101 5.38 10.9501 5.38C10.9701 5.38 10.9901 5.38 11.0101 5.39C11.0301 5.39 11.0401 5.41 11.0501 5.42C11.0501 5.43 11.0601 5.45 11.0601 5.47C11.0601 5.5 11.0301 5.61 10.9601 5.8C10.9601 5.8 10.9601 5.8 10.9601 5.81C10.9601 5.81 10.9601 5.82 10.9601 5.83H11.2101V5.79C11.2101 5.79 11.2501 5.7 11.2701 5.65C11.2901 5.6 11.3001 5.57 11.3101 5.54C11.3201 5.51 11.3301 5.49 11.3401 5.47C11.3501 5.45 11.3601 5.43 11.3701 5.42C11.3901 5.39 11.4301 5.38 11.4701 5.38C11.5401 5.38 11.5801 5.41 11.5801 5.47C11.5801 5.53 11.5501 5.64 11.4901 5.79C11.4901 5.81 11.4801 5.83 11.4701 5.83C11.4901 5.83 11.5101 5.83 11.5301 5.84C11.5401 5.84 11.5501 5.86 11.5501 5.88C11.5501 5.89 11.5501 5.9 11.5301 5.92C11.5201 5.94 11.5001 5.96 11.4901 5.97C11.4801 5.98 11.4601 5.99 11.4501 6C11.4501 6 11.4201 6.01 11.3901 6.02C11.3901 6.02 11.3901 6.05 11.3801 6.07C11.3801 6.1 11.3601 6.12 11.3501 6.15C11.3401 6.18 11.3301 6.2 11.3201 6.21C11.3201 6.23 11.3101 6.24 11.3001 6.25C11.3001 6.26 11.2801 6.27 11.2701 6.28C11.2501 6.3 11.2201 6.31 11.1901 6.32C11.1601 6.33 11.1401 6.34 11.1201 6.34C11.1001 6.34 11.0801 6.34 11.0701 6.32C11.0601 6.31 11.0501 6.29 11.0501 6.27C11.0501 6.24 11.0701 6.17 11.1001 6.06C11.1001 6.04 11.1101 6.02 11.1201 6.01H10.8701L10.8901 6.04Z" fill="#020203"/>
<path d="M10.39 6.03H0V0H17.57V6.03H14.64V5.91H17.45V0.12H0.12V5.91H10.39V6.03Z" fill="#020203"/>
</g>
<defs>
<clipPath id="clip0_3790_6907">
<rect width="17.57" height="6.49" fill="white"/>
</clipPath>
</defs>
</svg>
