<svg width="5" height="29" viewBox="0 0 5 29" fill="none" xmlns="http://www.w3.org/2000/svg">
<g clip-path="url(#clip0_3790_6484)">
<path d="M0 26.1089H2.58621C2.70936 26.1089 2.79557 26.2103 2.79557 26.3244V26.6415L2.8202 26.6668H4.97537C4.97537 26.5907 5 26.5146 5 26.4259C5 25.0057 3.87931 23.8518 2.5 23.8518C1.23153 23.8518 0.160099 24.8282 0.0123153 26.1089H0ZM3.85468 26.1723C3.85468 26.3498 3.7069 26.4893 3.5468 26.4893C3.37438 26.4893 3.23892 26.3371 3.23892 26.1723C3.23892 25.9948 3.3867 25.8553 3.5468 25.8553C3.71921 25.8299 3.85468 25.9948 3.85468 26.1723ZM3.85468 25.4241C3.85468 25.6017 3.7069 25.7411 3.5468 25.7411C3.37438 25.7411 3.23892 25.589 3.23892 25.4241C3.23892 25.2466 3.3867 25.1071 3.5468 25.1071C3.7069 25.1071 3.85468 25.2339 3.85468 25.4241ZM3.85468 24.6633C3.85468 24.8408 3.7069 24.9803 3.5468 24.9803C3.37438 24.9803 3.23892 24.8282 3.23892 24.6633C3.23892 24.4858 3.3867 24.3463 3.5468 24.3463C3.7069 24.3463 3.85468 24.4858 3.85468 24.6633Z" fill="black"/>
<path d="M0 26.4259C0 27.8461 1.12069 29 2.5 29C3.71921 29 4.70443 28.1377 4.93842 26.9711H2.68473C2.58621 26.9711 2.5 26.8697 2.47537 26.7809V26.4639L2.45074 26.4386H0V26.4259ZM2.05665 26.9077C2.05665 27.0853 1.90887 27.2248 1.74877 27.2248C1.57635 27.2248 1.44089 27.0726 1.44089 26.9077C1.44089 26.7302 1.58867 26.5907 1.74877 26.5907C1.90887 26.5907 2.05665 26.7302 2.05665 26.9077Z" fill="black"/>
<path d="M1.3668 0.634018H2.31507V1.9401H1.3668V2.59948H3.8668V1.9401H2.85695V0.634018H3.8668V0H1.3668V0.634018ZM1.65005 11.3616C1.42837 11.4631 1.30522 11.6786 1.30522 11.8815C1.30522 12.0844 1.42837 12.3126 1.65005 12.4014L3.87911 13.4412V12.7564L3.34956 12.5282V11.1968L3.87911 10.9685V10.2838L1.65005 11.3616ZM2.84463 12.3507L1.9333 11.9576C1.9333 11.9576 1.90867 11.9322 1.90867 11.9069C1.90867 11.8815 1.90867 11.8561 1.9333 11.8561L2.84463 11.4631V12.338V12.3507ZM0.911133 19.0332C0.911133 19.3376 1.07123 19.5278 1.37911 19.6672L3.26335 20.4915L1.37911 21.3284C1.07123 21.4679 0.911133 21.6581 0.911133 21.9624C0.911133 22.254 1.09586 22.533 1.5269 22.533H3.85448V21.899H1.6131L3.47271 21.0494C3.74364 20.948 3.90374 20.7451 3.90374 20.4915C3.90374 20.2125 3.74364 20.035 3.47271 19.9335L1.6131 19.084H3.87911V18.4499H1.55153C1.12049 18.4499 0.911133 18.7416 0.911133 19.0332ZM3.32493 17.3214C3.32493 17.3214 3.3003 17.3848 3.26335 17.3848H2.82V15.7871H2.31507V17.3848H1.9333C1.9333 17.3848 1.87172 17.3594 1.87172 17.3214V15.7237H1.34217V17.6257C1.34217 17.854 1.51458 18.0061 1.71163 18.0061H3.46039C3.64512 18.0061 3.82985 17.8413 3.82985 17.6257V15.7237H3.3003V17.3214H3.32493ZM3.85448 14.6458H1.95793C1.95793 14.6458 1.89635 14.6205 1.89635 14.5824V12.9847H1.3668V14.8868C1.3668 15.115 1.53921 15.2672 1.73626 15.2672H3.85448V14.6331V14.6458ZM2.62296 3.01793C1.74857 3.01793 1.34217 3.41102 1.34217 4.38741V4.61565C1.34217 5.59204 1.76089 5.98513 2.62296 5.98513C3.48502 5.98513 3.90374 5.59204 3.90374 4.61565V4.40009C3.87911 3.41102 3.47271 3.01793 2.62296 3.01793ZM3.37419 4.40009V4.61565C3.37419 5.13555 3.1402 5.3638 2.62296 5.3638C2.10571 5.3638 1.87172 5.18627 1.87172 4.61565V4.40009C1.87172 3.85483 2.11803 3.65195 2.62296 3.65195C3.12788 3.65195 3.37419 3.85483 3.37419 4.40009ZM0.972709 7.76038V9.0411C0.972709 9.99213 1.44069 10.3725 2.2535 10.3725C2.38897 10.3725 2.4998 10.3472 2.61064 10.3472C3.18946 10.2457 3.53429 9.89069 3.53429 9.00306V8.71141H3.85448V8.07739H3.53429V7.79843C3.53429 6.89812 3.17714 6.54307 2.61064 6.45431C2.51212 6.42895 2.38897 6.42895 2.2535 6.42895C1.453 6.42895 0.972709 6.83472 0.972709 7.76038ZM3.01704 8.73677V9.02842C3.01704 9.47223 2.85695 9.6244 2.59832 9.71316C2.4998 9.73852 2.37665 9.73852 2.24118 9.73852C1.71163 9.73852 1.48995 9.48491 1.48995 9.11718V8.72409H3.00473L3.01704 8.73677ZM2.62296 7.10101C2.86926 7.20245 3.04167 7.35461 3.04167 7.78575V8.07739H1.51458V7.6843C1.51458 7.31657 1.73626 7.06296 2.26581 7.06296C2.40128 7.06296 2.51212 7.06296 2.62296 7.10101Z" fill="black"/>
</g>
<defs>
<clipPath id="clip0_3790_6484">
<rect width="5" height="29" fill="white"/>
</clipPath>
</defs>
</svg>
