<svg width="59" height="27" viewBox="0 0 59 27" fill="none" xmlns="http://www.w3.org/2000/svg">
<path fill-rule="evenodd" clip-rule="evenodd" d="M15.539 13.629L13.8581 7.91956L15.7809 8.58258L16.5185 11.3943L17.4013 9.12283L19.0096 9.67535L17.2562 13.4571L19.0459 18.6876H17.1594L16.2525 15.704L15.273 18.6876H13.6768L15.539 13.629Z" fill="black"/>
<path fill-rule="evenodd" clip-rule="evenodd" d="M8.4165 18.6876V6.33557L12.9754 7.82125V9.92084L10.2304 9.2087V11.5907L12.0685 11.9345V14.1077L10.2304 13.8745V16.3178L12.9754 16.502V18.6876H8.4165Z" fill="black"/>
<path fill-rule="evenodd" clip-rule="evenodd" d="M47.2944 7.62479L49.2051 7.02315V13.8008L50.7892 6.4829L52.7482 5.83215V18.6875H50.8376V11.5293L49.2534 18.6875H47.2944V7.62479Z" fill="black"/>
<path fill-rule="evenodd" clip-rule="evenodd" d="M43.1587 9.02451V12.7694L44.6098 12.487V8.57021L46.4841 7.9563V18.6875H44.6098V14.5375L43.1587 14.7339V18.6875H41.2722V9.60159L43.1587 9.02451Z" fill="black"/>
<path fill-rule="evenodd" clip-rule="evenodd" d="M21.549 15.5197L22.7341 15.6671L22.202 12.2905L21.549 15.5197ZM19.4812 18.6875L21.1742 10.2278L23.5685 10.9768L25.1043 18.6875H23.2662L22.9881 17.1036L21.3193 16.9809L20.9928 18.6875H19.4812Z" fill="black"/>
<path fill-rule="evenodd" clip-rule="evenodd" d="M37.2694 15.704L38.4061 15.5812L37.8983 12.352L37.2815 15.704H37.2694ZM35.2983 18.6876L36.9188 10.9645L39.2043 10.2401L40.6675 18.6999H38.914L38.648 17.03L37.0518 17.1282L36.7374 18.6876H35.2983Z" fill="black"/>
<path fill-rule="evenodd" clip-rule="evenodd" d="M0.0120926 18.6876L0 3.73267L3.04735 4.71493L3.84546 12.6467L4.83706 5.25518L7.4007 6.04099V18.6876H5.52634V8.91411L4.20824 18.6876H3.04735L1.87436 7.73539L1.85017 18.6876H0.0120926Z" fill="black"/>
<path fill-rule="evenodd" clip-rule="evenodd" d="M57.1136 7.06002L56.7024 7.1828C56.3397 7.28103 56.0857 7.45292 55.9164 7.69849C55.6987 8.00545 55.5778 8.50886 55.5778 9.17189C55.5778 10.3015 55.9406 10.8172 56.6299 10.6698L57.1015 10.5716V7.04774L57.1136 7.06002ZM59 18.6876H57.1136V12.8799L56.4727 12.9659L55.4448 18.6999H53.5583L54.9006 12.4256C54.5379 12.1923 54.2597 11.7749 54.0421 11.1978C53.8244 10.6207 53.7276 9.99453 53.7276 9.30695C53.7276 8.07912 53.9695 7.06002 54.4411 6.26193C54.8764 5.51295 55.4448 5.00954 56.2066 4.73942L59 3.74487V18.6876Z" fill="black"/>
<path fill-rule="evenodd" clip-rule="evenodd" d="M28.3209 6.06548C29.3125 8.79126 29.9534 10.2155 30.2678 10.2769C30.3282 10.2892 30.3887 10.2769 30.4371 10.2524C30.7757 10.0559 31.3924 8.63165 32.3356 6.06548C36.169 5.43928 35.9755 12.7817 35.3346 16.4161C35.0081 18.2087 34.0165 18.9577 32.0575 18.6999C32.6379 16.4038 33.0128 14.12 32.7347 11.8117C32.6863 11.8117 32.65 11.7872 32.6379 11.824C31.7673 14.3902 31.0901 15.704 30.4008 15.7776C30.3645 15.7776 30.3162 15.7776 30.2678 15.7776C29.5785 15.704 28.9013 14.3902 28.0306 11.824C28.0185 11.7872 27.9823 11.824 27.9339 11.8117C27.6558 14.1078 28.0306 16.3915 28.6111 18.6999C26.6521 18.9577 25.6605 18.2087 25.334 16.4161C24.681 12.7817 24.4996 5.43928 28.333 6.06548" fill="black"/>
</svg>
