<svg width="7" height="28" viewBox="0 0 7 28" fill="none" xmlns="http://www.w3.org/2000/svg">
<g clip-path="url(#clip0_3790_6674)">
<path fill-rule="evenodd" clip-rule="evenodd" d="M6.77589 23.2458C6.57815 22.6942 6.2354 22.2082 5.81356 21.8274C5.81356 21.8274 5.7081 21.7617 5.64219 21.7617C5.49718 21.7617 5.37853 21.8799 5.37853 22.0375C5.37853 22.1163 5.41808 22.1951 5.47081 22.2345C5.78719 22.5103 6.03766 22.8649 6.22222 23.2589H6.80226L6.77589 23.2458ZM5.04896 23.2458H4.42938C4.21846 22.9306 3.91525 22.681 3.5725 22.5103V23.2458H3.21657V22.379C3.0452 22.3264 2.84746 22.3002 2.6629 22.3002C1.93785 22.3002 1.2919 22.6679 0.896422 23.2326H0.290019C0.73823 22.3527 1.63465 21.7617 2.67608 21.7617C2.86064 21.7617 3.05838 21.788 3.22976 21.8274V21.2101C3.22976 21.0657 3.30885 20.9343 3.40113 20.9343C3.49341 20.9343 3.5725 21.0525 3.5725 21.2101V21.9325C4.20527 22.1688 4.73258 22.6416 5.03578 23.2458H5.04896ZM7 24.4672C7 24.0338 6.9209 23.6266 6.78908 23.2458H6.20904C6.38041 23.6135 6.47269 24.0338 6.47269 24.4672C6.47269 24.6116 6.59134 24.743 6.73635 24.743C6.88136 24.743 7 24.6248 7 24.4672ZM0.290019 23.2458H0.909605C0.672316 23.5872 0.527307 24.0206 0.527307 24.4672H0.54049C0.54049 24.6116 0.421846 24.743 0.276836 24.743C0.131827 24.743 0.0131827 24.6248 0.0131827 24.4672H0C0 24.0206 0.105461 23.6135 0.290019 23.2458ZM3.22976 23.2458H3.58569V26.1876H3.22976V23.2458ZM4.42938 23.2458H5.04896C5.23352 23.6135 5.35217 24.0338 5.35217 24.4672C5.35217 24.6116 5.23352 24.743 5.08851 24.743C4.9435 24.743 4.82486 24.6248 4.82486 24.4672C4.82486 24.0075 4.67985 23.5872 4.44256 23.2458H4.42938ZM6.53861 26.1876H5.90584C6.06403 25.9643 6.19586 25.7148 6.28814 25.439C6.32768 25.334 6.41996 25.2552 6.53861 25.2552C6.68362 25.2552 6.80226 25.3734 6.80226 25.531C6.80226 25.5704 6.80226 25.5966 6.78908 25.6229C6.72316 25.8199 6.63089 26.0037 6.53861 26.1876ZM2.54426 26.1876H1.41055C1.41055 25.8724 1.66102 25.6097 1.9774 25.6097C2.29379 25.6097 2.54426 25.8724 2.54426 26.1876ZM1.41055 26.1876H2.54426C2.54426 26.5028 2.29379 26.7655 1.9774 26.7655C1.66102 26.7655 1.41055 26.5028 1.41055 26.1876ZM3.21657 26.1876H3.5725V27.4484C4.53484 27.4221 5.39171 26.9231 5.90584 26.1876H6.53861C5.94539 27.2645 4.79849 27.9869 3.49341 27.9869C3.48023 27.9869 3.45386 27.9869 3.44068 27.9869C3.44068 27.9869 3.41431 27.9869 3.40113 27.9869C3.30885 27.9869 3.22976 27.8687 3.22976 27.7111V26.1745L3.21657 26.1876Z" fill="black"/>
<path d="M3.53318 18.4128H3.62546C3.62546 18.4128 3.50682 18.3077 3.45408 18.2683C3.40135 18.2158 3.36181 18.1632 3.32226 18.1107C3.28271 18.045 3.25634 17.9794 3.24316 17.9006C3.2168 17.8218 3.2168 17.7298 3.2168 17.6379C3.2168 17.4934 3.25634 17.349 3.32226 17.2176C3.38817 17.0863 3.49363 16.9944 3.62546 16.9418C3.49363 16.8499 3.40135 16.7448 3.32226 16.6266C3.24316 16.5084 3.2168 16.3508 3.2168 16.167C3.2168 15.9043 3.28271 15.7073 3.40135 15.5497C3.53318 15.4052 3.7441 15.3264 4.03412 15.3264H5.45785C5.60286 15.3264 5.73469 15.4446 5.73469 15.6022C5.73469 15.7598 5.61604 15.878 5.45785 15.878H4.29778C4.2055 15.878 4.11322 15.878 4.03412 15.878C3.95503 15.878 3.88911 15.9043 3.8232 15.9306C3.77047 15.9568 3.71774 16.0094 3.69137 16.0619C3.66501 16.1276 3.63864 16.2064 3.63864 16.3114C3.63864 16.4953 3.69137 16.6266 3.81002 16.7186C3.92866 16.7974 4.08685 16.8368 4.29778 16.8368H5.47103C5.61604 16.8368 5.74787 16.955 5.74787 17.1126C5.74787 17.2702 5.62923 17.3884 5.47103 17.3884H4.16595C3.99457 17.3884 3.86275 17.4146 3.78365 17.4803C3.69137 17.546 3.65183 17.651 3.65183 17.8218C3.65183 17.8874 3.66501 17.9662 3.69137 18.0319C3.71774 18.0976 3.75729 18.1501 3.81002 18.2026C3.86275 18.2552 3.92866 18.2946 4.00776 18.3208C4.08685 18.3471 4.17913 18.3602 4.28459 18.3602H5.47103C5.61604 18.3602 5.74787 18.4784 5.74787 18.636C5.74787 18.7936 5.62923 18.9118 5.47103 18.9118H3.54636C3.40135 18.9118 3.29589 18.7936 3.29589 18.6491C3.29589 18.5047 3.41454 18.3865 3.54636 18.3865L3.53318 18.4128Z" fill="black"/>
<path d="M3.53318 1.65478H3.65183C3.52 1.56285 3.41454 1.45778 3.33544 1.31332C3.25634 1.18198 3.2168 1.02439 3.2168 0.866787C3.2168 0.59099 3.28271 0.380858 3.42772 0.22326C3.57273 0.0656614 3.77047 -0.0131378 4.06049 -0.0131378H5.47103C5.61604 -0.0131378 5.74787 0.105061 5.74787 0.26266C5.74787 0.420258 5.62923 0.538457 5.47103 0.538457H4.19231C3.99457 0.538457 3.86275 0.59099 3.77047 0.656656C3.67819 0.735455 3.63864 0.853654 3.63864 1.01125C3.63864 1.10318 3.65183 1.18198 3.69137 1.26078C3.73092 1.33958 3.77047 1.39212 3.8232 1.44465C3.87593 1.49718 3.95503 1.53658 4.03412 1.56285C4.11322 1.58911 4.19231 1.60225 4.28459 1.60225H5.45785C5.60286 1.60225 5.73469 1.72045 5.73469 1.87804C5.73469 2.03564 5.61604 2.15384 5.45785 2.15384H3.53318C3.38817 2.15384 3.28271 2.03564 3.28271 1.89118C3.28271 1.74671 3.40135 1.62851 3.53318 1.62851V1.65478Z" fill="black"/>
<path d="M4.28459 12.621C4.2055 12.621 4.11322 12.6473 4.03412 12.6735C3.95503 12.6998 3.88911 12.7392 3.8232 12.7917C3.77047 12.8443 3.71774 12.9099 3.67819 12.9887C3.63864 13.0675 3.62546 13.1463 3.62546 13.2383C3.62546 13.2383 3.62546 13.2383 3.62546 13.2514H3.20361C3.20361 13.2514 3.20361 13.2514 3.20361 13.2383C3.20361 13.0413 3.24316 12.8705 3.32226 12.7129C3.40135 12.5553 3.50681 12.424 3.63864 12.3321C3.77047 12.227 3.92866 12.1613 4.10003 12.1088C4.27141 12.0563 4.45597 12.0563 4.64052 12.0694V13.2514H4.28459V12.6079V12.621ZM5.8006 13.2645H5.37875C5.37875 13.2645 5.37875 13.2514 5.37875 13.2383C5.37875 13.0807 5.33921 12.9493 5.27329 12.8574C5.23374 12.7917 5.16783 12.7392 5.10192 12.6998C5.00964 12.6341 4.98327 12.5028 5.036 12.3977C5.10192 12.2795 5.24693 12.227 5.36557 12.2927C5.45785 12.3583 5.53695 12.4371 5.58968 12.5291C5.65559 12.6341 5.70832 12.7392 5.74787 12.8574C5.78742 12.9756 5.8006 13.1069 5.8006 13.2383C5.8006 13.2383 5.8006 13.2514 5.8006 13.2645ZM5.35239 12.2927L3.63864 13.2645C3.63864 13.3565 3.65182 13.4353 3.69137 13.5141C3.73092 13.5929 3.77047 13.6585 3.8232 13.7111C3.87593 13.7636 3.95503 13.8161 4.03412 13.8424C4.11322 13.8818 4.2055 13.8949 4.28459 13.8949V13.2514H4.64052V13.8949C4.7328 13.8949 4.82508 13.8818 4.91736 13.8555C5.00964 13.8293 5.08874 13.7899 5.15465 13.7373C5.22056 13.6848 5.27329 13.6191 5.31284 13.5272C5.35239 13.4484 5.36557 13.3565 5.36557 13.2645H5.78742C5.78742 13.4484 5.74787 13.606 5.69514 13.7505C5.62923 13.8949 5.53695 14.0263 5.43148 14.1313C5.31284 14.2364 5.18101 14.3152 5.02282 14.3677C4.86463 14.4203 4.69326 14.4465 4.49552 14.4465C4.32414 14.4465 4.15277 14.4203 3.99457 14.3677C3.83638 14.3152 3.70455 14.2364 3.58591 14.1313C3.46727 14.0263 3.37499 13.9081 3.30907 13.7505C3.24316 13.606 3.20361 13.4484 3.20361 13.2645H3.62546L5.35239 12.2927Z" fill="black"/>
<path fill-rule="evenodd" clip-rule="evenodd" d="M3.2036 9.91557C3.2036 9.91557 3.30906 9.86304 3.36179 9.86304C3.41452 9.86304 3.48043 9.8893 3.51998 9.91557V9.94184C3.51998 10.0338 3.53316 10.1257 3.57271 10.2045C3.61226 10.2833 3.66499 10.3621 3.7309 10.4146C3.79682 10.4803 3.8891 10.5197 3.99456 10.5591C4.10002 10.5985 4.21866 10.6116 4.35049 10.6116H5.24691C5.39192 10.6116 5.52375 10.7298 5.52375 10.8874C5.52375 11.045 5.4051 11.1632 5.24691 11.1632H3.30906C3.17723 11.1632 3.05859 11.0582 3.05859 10.9137C3.05859 10.7561 3.17723 10.651 3.30906 10.651H3.53316C3.46725 10.6248 3.40134 10.5985 3.33542 10.546C3.26951 10.4934 3.21678 10.4409 3.16405 10.3752C3.11132 10.3096 3.07177 10.2308 3.03222 10.152C3.00586 10.0732 2.97949 9.99437 2.97949 9.90244L3.2036 9.91557Z" fill="black"/>
<path d="M5.29966 7.5516C5.29966 7.4334 5.27329 7.32833 5.22056 7.24953C5.16783 7.17073 5.10192 7.09194 5.02282 7.0394C4.94373 6.98687 4.85145 6.94747 4.74599 6.9212C4.64052 6.89494 4.53506 6.8818 4.4296 6.8818C4.32414 6.8818 4.21868 6.8818 4.1264 6.9212C4.03412 6.94747 3.94184 6.98687 3.86275 7.0394C3.78365 7.09194 3.73092 7.1576 3.67819 7.24953C3.63864 7.32833 3.61228 7.4334 3.61228 7.5516H3.19043C3.19043 7.4334 3.22998 7.3152 3.28271 7.21013C3.34862 7.0788 3.45408 6.97374 3.58591 6.90807H3.52C3.37499 6.90807 3.24316 6.78987 3.24316 6.63227C3.24316 6.47467 3.3618 6.35648 3.52 6.35648H5.57649C5.94561 6.35648 6.22245 6.46154 6.407 6.67167C6.59156 6.8818 6.68384 7.17073 6.68384 7.56473H6.27518C6.27518 7.56473 6.27518 7.5516 6.27518 7.53846C6.27518 7.3152 6.22244 7.1576 6.11698 7.05254C6.01152 6.94747 5.85333 6.89494 5.65559 6.89494H5.28648C5.4183 6.98687 5.52376 7.09194 5.60286 7.22327C5.66877 7.32833 5.69514 7.44653 5.70832 7.56473H5.28648L5.29966 7.5516ZM5.29966 7.5516H5.7215C5.7215 7.5516 5.7215 7.61726 5.7215 7.64353C5.7215 7.84053 5.68196 8.01126 5.61604 8.15573C5.55013 8.30019 5.45785 8.40526 5.33921 8.49719C5.22056 8.58912 5.08873 8.65479 4.93054 8.69419C4.77235 8.73359 4.61416 8.75985 4.4296 8.75985C4.27141 8.75985 4.11322 8.73359 3.95502 8.68105C3.81002 8.62852 3.67819 8.56285 3.55954 8.45779C3.4409 8.36586 3.3618 8.24766 3.29589 8.10319C3.22998 7.95873 3.19043 7.80113 3.19043 7.6304C3.19043 7.60413 3.19043 7.57786 3.19043 7.5516H3.61228C3.61228 7.6698 3.63864 7.77486 3.69137 7.85366C3.7441 7.93246 3.81002 7.99813 3.88911 8.05066C3.96821 8.10319 4.06049 8.14259 4.16595 8.15573C4.27141 8.18199 4.37687 8.19512 4.46915 8.19512C4.56143 8.19512 4.66689 8.19512 4.77235 8.15573C4.86463 8.12946 4.95691 8.09006 5.036 8.03753C5.1151 7.98499 5.16783 7.91933 5.22056 7.84053C5.27329 7.76173 5.28648 7.65666 5.28648 7.5516H5.29966ZM6.30154 7.5516H6.7102C6.7102 7.6698 6.7102 7.80113 6.67066 7.93246C6.64429 8.06379 6.60474 8.16886 6.53883 8.27392C6.47292 8.37899 6.39382 8.47092 6.30154 8.53659C6.1829 8.60225 6.03789 8.56285 5.97197 8.44466C5.91924 8.33959 5.93243 8.20826 6.0247 8.14259C6.09062 8.10319 6.14335 8.03753 6.1829 7.98499C6.1829 7.97186 6.19608 7.95873 6.20926 7.93246C6.20926 7.93246 6.22244 7.90619 6.22244 7.89306C6.24881 7.84053 6.26199 7.788 6.27518 7.72233C6.27518 7.6698 6.27518 7.60413 6.27518 7.53846L6.30154 7.5516Z" fill="black"/>
<path d="M4.28459 3.62476C4.2055 3.62476 4.11322 3.65103 4.03412 3.6773C3.95503 3.70356 3.88911 3.74296 3.8232 3.7955C3.77047 3.84803 3.71774 3.91369 3.67819 3.99249C3.63864 4.07129 3.62546 4.15009 3.62546 4.24202C3.62546 4.24202 3.62546 4.24202 3.62546 4.25516H3.20361C3.20361 4.25516 3.20361 4.25516 3.20361 4.24202C3.20361 4.04503 3.24316 3.87429 3.32226 3.7167C3.40135 3.5591 3.50681 3.42777 3.63864 3.33583C3.77047 3.23077 3.92866 3.1651 4.10003 3.11257C4.27141 3.06004 4.45597 3.06004 4.64052 3.07317V4.25516H4.28459V3.61163V3.62476ZM5.8006 4.26829H5.37875C5.37875 4.26829 5.37875 4.25516 5.37875 4.24202C5.37875 4.08443 5.33921 3.95309 5.27329 3.86116C5.23374 3.7955 5.16783 3.74296 5.10192 3.70356C5.00964 3.6379 4.98327 3.50656 5.036 3.4015C5.10192 3.2833 5.24693 3.23077 5.36557 3.29643C5.45785 3.3621 5.53695 3.4409 5.58968 3.53283C5.65559 3.6379 5.70832 3.74296 5.74787 3.86116C5.78742 3.97936 5.8006 4.11069 5.8006 4.24202C5.8006 4.24202 5.8006 4.25516 5.8006 4.26829ZM5.35239 3.29643L3.63864 4.26829C3.63864 4.36022 3.65182 4.43902 3.69137 4.51782C3.73092 4.59662 3.77047 4.66229 3.8232 4.71482C3.87593 4.76735 3.95503 4.81989 4.03412 4.84615C4.11322 4.88555 4.2055 4.89868 4.28459 4.89868V4.25516H4.64052V4.89868C4.7328 4.89868 4.82508 4.88555 4.91736 4.85928C5.00964 4.83302 5.08874 4.79362 5.15465 4.74109C5.22056 4.68855 5.27329 4.62289 5.31284 4.53095C5.35239 4.45216 5.36557 4.36022 5.36557 4.26829H5.78742C5.78742 4.45216 5.74787 4.60975 5.69514 4.75422C5.62923 4.89868 5.53695 5.03002 5.43148 5.13508C5.31284 5.24015 5.18101 5.31895 5.02282 5.37148C4.86463 5.42401 4.69326 5.45028 4.49552 5.45028C4.32414 5.45028 4.15277 5.42401 3.99457 5.37148C3.83638 5.31895 3.70455 5.24015 3.58591 5.13508C3.46727 5.03002 3.37499 4.91182 3.30907 4.75422C3.24316 4.60975 3.20361 4.45216 3.20361 4.26829H3.62546L5.35239 3.29643Z" fill="black"/>
</g>
<defs>
<clipPath id="clip0_3790_6674">
<rect width="7" height="28" fill="white"/>
</clipPath>
</defs>
</svg>
