<svg width="4" height="27" viewBox="0 0 4 27" fill="none" xmlns="http://www.w3.org/2000/svg">
<path d="M3.14713 0.946274C3.14713 1.05844 3.126 1.16024 3.08375 1.25166C3.04072 1.34309 2.97888 1.41569 2.89821 1.46947C2.81677 1.52324 2.71843 1.55013 2.60319 1.55013C2.50178 1.55013 2.41958 1.53016 2.35658 1.49021C2.29281 1.45026 2.24287 1.39686 2.20677 1.33002C2.17066 1.26319 2.14377 1.18943 2.1261 1.10876C2.10766 1.02733 2.09306 0.945505 2.08231 0.8633C2.06848 0.755743 2.05811 0.668543 2.05119 0.601704C2.04351 0.534096 2.03083 0.484928 2.01316 0.454197C1.99549 0.422698 1.96476 0.406948 1.92097 0.406948L1.91175 0.406948C1.79805 0.406948 1.7097 0.438064 1.6467 0.500294C1.5837 0.561755 1.5522 0.655099 1.5522 0.780327C1.5522 0.910164 1.58063 1.01196 1.63748 1.08571C1.69433 1.15947 1.75502 1.21133 1.81956 1.24129L1.72737 1.49943C1.61981 1.45333 1.53607 1.39187 1.47614 1.31504C1.41545 1.23745 1.37319 1.15294 1.34938 1.06151C1.32479 0.969322 1.3125 0.878666 1.3125 0.789547C1.3125 0.732695 1.31941 0.667391 1.33324 0.593637C1.3463 0.519115 1.37358 0.447282 1.41506 0.378138C1.45655 0.308225 1.51916 0.250221 1.60291 0.204124C1.68665 0.158028 1.79881 0.134981 1.93941 0.134981L3.10564 0.134981L3.10564 0.406948L2.86594 0.406948L2.86594 0.420776C2.90435 0.439215 2.94546 0.469947 2.98925 0.51297C3.03304 0.555993 3.0703 0.613228 3.10103 0.684677C3.13176 0.756126 3.14713 0.843326 3.14713 0.946274ZM2.90282 0.904787C2.90282 0.797229 2.88169 0.706574 2.83944 0.63282C2.79718 0.558298 2.74263 0.502214 2.67579 0.464569C2.60895 0.426156 2.53866 0.406948 2.4649 0.406948L2.21598 0.406948C2.22981 0.418472 2.24249 0.443826 2.25401 0.483007C2.26477 0.521421 2.27437 0.56598 2.28282 0.616686C2.29051 0.666623 2.29742 0.715408 2.30357 0.76304C2.30895 0.809905 2.31356 0.847934 2.3174 0.877129C2.32662 0.947809 2.3416 1.01388 2.36234 1.07534C2.38232 1.13604 2.41266 1.18521 2.45338 1.22285C2.49333 1.25973 2.54788 1.27817 2.61702 1.27817C2.71152 1.27817 2.78297 1.24321 2.83137 1.1733C2.879 1.10262 2.90282 1.01311 2.90282 0.904787Z" fill="black"/>
<path d="M3.10554 3.11282L1.33545 3.11282L1.33545 2.84085L2.10526 2.84085L2.10526 2.66107L1.33545 2.02495L1.33545 1.67462L2.18823 2.38911L3.10554 1.6654L3.10554 2.01573L2.35878 2.59654L2.35878 2.84085L3.10554 2.84085L3.10554 3.11282Z" fill="black"/>
<path d="M1.58898 4.85038L1.33545 4.85038L1.33545 3.41218L1.58898 3.41218L1.58898 3.99299L3.10554 3.99299L3.10554 4.26496L1.58898 4.26496L1.58898 4.85038Z" fill="black"/>
<path d="M3.76933 6.28284C3.76933 6.32893 3.76549 6.37004 3.7578 6.40615C3.75089 6.44226 3.74397 6.46722 3.73706 6.48105L3.49736 6.41191C3.51426 6.34584 3.52041 6.28745 3.5158 6.23674C3.51119 6.18604 3.48852 6.14109 3.44781 6.10191C3.40786 6.06196 3.34294 6.02547 3.25305 5.99243L3.11476 5.94173L1.33545 6.59629L1.33545 6.30128L2.74599 5.81266L2.74599 5.79422L1.33545 5.3056L1.33545 5.01059L3.36368 5.76195C3.45511 5.79576 3.53078 5.83763 3.5907 5.88757C3.6514 5.9375 3.69634 5.99551 3.72554 6.06158C3.75473 6.12688 3.76933 6.20063 3.76933 6.28284Z" fill="black"/>
<path d="M2.09604 7.00139L2.34956 7.00139L2.34957 7.97863L2.09604 7.97863L2.09604 7.00139ZM1.33545 7.91409L3.10554 7.91409L3.10554 8.18606L1.33545 8.18606L1.33545 7.91409ZM1.33545 6.79395L3.10554 6.79395L3.10554 7.06592L1.33545 7.06592L1.33545 6.79395Z" fill="black"/>
<path d="M2.70451 9.75306L1.33545 8.90028L1.33545 8.58683L3.10554 8.58683L3.10554 8.8588L1.73649 8.8588L3.10554 9.70697L3.10554 10.025L1.33545 10.025L1.33545 9.75306L2.70451 9.75306Z" fill="black"/>
<path d="M0.745605 12.7779L0.745605 12.4367L2.70469 11.6347L2.70469 11.607L0.745605 10.8049L0.745605 10.4638L3.10573 10.4638L3.10573 10.7312L1.31259 10.7312L1.31259 10.7542L3.10573 11.4918L3.10573 11.7499L1.31259 12.4875L1.31259 12.5105L3.10573 12.5105L3.10573 12.7779L0.745605 12.7779Z" fill="black"/>
<path d="M3.76943 15.5103L1.33555 15.5103L1.33555 15.2475L1.61673 15.2475L1.61673 15.2152C1.586 15.1953 1.54682 15.1676 1.49919 15.1323C1.45079 15.0962 1.40777 15.0447 1.37012 14.9778C1.33171 14.9102 1.3125 14.8188 1.3125 14.7036C1.3125 14.5545 1.34976 14.4232 1.42428 14.3095C1.49881 14.1957 1.60444 14.107 1.74119 14.0432C1.87795 13.9795 2.03928 13.9476 2.2252 13.9476C2.41266 13.9476 2.57515 13.9795 2.71267 14.0432C2.84942 14.107 2.95544 14.1954 3.03073 14.3083C3.10526 14.4212 3.14252 14.5515 3.14252 14.699C3.14252 14.8127 3.1237 14.9037 3.08605 14.9721C3.04764 15.0405 3.00423 15.0931 2.95583 15.13C2.90666 15.1668 2.86594 15.1953 2.83367 15.2152L2.83367 15.2383L3.76943 15.2383L3.76943 15.5103ZM2.22059 15.2429C2.35427 15.2429 2.4722 15.2233 2.57438 15.1841C2.67579 15.1449 2.75531 15.0877 2.81293 15.0124C2.86978 14.9371 2.89821 14.8449 2.89821 14.7358C2.89821 14.6221 2.86825 14.5273 2.80832 14.4512C2.74763 14.3744 2.66619 14.3167 2.56401 14.2783C2.46106 14.2392 2.34659 14.2196 2.22059 14.2196C2.09613 14.2196 1.98397 14.2388 1.88409 14.2772C1.78345 14.3148 1.70393 14.3721 1.64554 14.4489C1.58639 14.525 1.55681 14.6206 1.55681 14.7358C1.55681 14.8465 1.58485 14.9394 1.64094 15.0147C1.69625 15.09 1.77385 15.1469 1.87372 15.1853C1.97283 15.2237 2.08845 15.2429 2.22059 15.2429Z" fill="black"/>
<path d="M3.14252 16.5595C3.14252 16.7301 3.10487 16.8772 3.02958 17.0009C2.95352 17.1238 2.8475 17.2187 2.71152 17.2856C2.57477 17.3516 2.41574 17.3847 2.23442 17.3847C2.05311 17.3847 1.89331 17.3516 1.75502 17.2856C1.61597 17.2187 1.50764 17.1258 1.43005 17.0067C1.35168 16.8868 1.3125 16.747 1.3125 16.5872C1.3125 16.495 1.32787 16.404 1.3586 16.3141C1.38933 16.2242 1.43926 16.1424 1.50841 16.0686C1.57678 15.9949 1.66744 15.9361 1.78038 15.8923C1.89331 15.8485 2.03237 15.8266 2.19755 15.8266L2.31279 15.8266L2.31279 17.1911L2.0777 17.1911L2.0777 16.1032C1.97782 16.1032 1.8887 16.1232 1.81034 16.1631C1.73198 16.2023 1.67013 16.2584 1.6248 16.3314C1.57947 16.4036 1.55681 16.4889 1.55681 16.5872C1.55681 16.6955 1.5837 16.7893 1.63748 16.8684C1.69049 16.9468 1.75963 17.0071 1.84491 17.0493C1.93019 17.0916 2.02161 17.1127 2.11918 17.1127L2.27591 17.1127C2.40959 17.1127 2.52291 17.0896 2.61587 17.0436C2.70806 16.9967 2.77836 16.9318 2.82676 16.8488C2.87439 16.7658 2.89821 16.6694 2.89821 16.5595C2.89821 16.4881 2.88822 16.4236 2.86825 16.3659C2.8475 16.3076 2.81677 16.2572 2.77605 16.215C2.73457 16.1727 2.68309 16.1401 2.62163 16.117L2.69539 15.8543C2.7845 15.8819 2.86287 15.9284 2.93048 15.9937C2.99732 16.059 3.04956 16.1397 3.0872 16.2357C3.12408 16.3318 3.14252 16.4397 3.14252 16.5595Z" fill="black"/>
<path d="M1.58898 18.9473L1.33545 18.9473L1.33545 17.5091L1.58898 17.5091L1.58898 18.09L3.10554 18.09L3.10554 18.3619L1.58898 18.3619L1.58898 18.9473Z" fill="black"/>
<path d="M3.14252 19.8042C3.14252 19.9701 3.10334 20.113 3.02497 20.2329C2.94661 20.3527 2.83867 20.4449 2.70115 20.5095C2.56363 20.574 2.40652 20.6063 2.22981 20.6063C2.05004 20.6063 1.89139 20.5732 1.75387 20.5072C1.61558 20.4403 1.50764 20.3473 1.43005 20.2283C1.35168 20.1084 1.3125 19.9686 1.3125 19.8088C1.3125 19.6843 1.33555 19.5722 1.38164 19.4723C1.42774 19.3724 1.49227 19.2906 1.57525 19.2268C1.65822 19.1631 1.75502 19.1235 1.86565 19.1081L1.86565 19.3801C1.78499 19.4008 1.71354 19.4469 1.65131 19.5184C1.58831 19.5891 1.55681 19.6843 1.55681 19.8042C1.55681 19.9102 1.58447 20.0032 1.63978 20.0831C1.69433 20.1622 1.77154 20.224 1.87142 20.2686C1.97052 20.3124 2.08692 20.3343 2.22059 20.3343C2.35735 20.3343 2.47643 20.3128 2.57784 20.2698C2.67925 20.226 2.758 20.1645 2.81408 20.0854C2.87017 20.0055 2.89821 19.9117 2.89821 19.8042C2.89821 19.7335 2.88592 19.6694 2.86133 19.6117C2.83675 19.5541 2.80141 19.5053 2.75531 19.4654C2.70921 19.4254 2.6539 19.397 2.58936 19.3801L2.58936 19.1081C2.69385 19.1235 2.78796 19.1615 2.8717 19.2222C2.95468 19.2821 3.02075 19.3617 3.06992 19.4608C3.11832 19.5591 3.14252 19.6736 3.14252 19.8042Z" fill="black"/>
<path d="M3.14713 21.7336C3.14713 21.8458 3.126 21.9476 3.08375 22.039C3.04072 22.1304 2.97888 22.203 2.89821 22.2568C2.81677 22.3106 2.71843 22.3375 2.60319 22.3375C2.50178 22.3375 2.41958 22.3175 2.35658 22.2776C2.29281 22.2376 2.24287 22.1842 2.20677 22.1174C2.17066 22.0505 2.14377 21.9768 2.1261 21.8961C2.10766 21.8147 2.09306 21.7329 2.08231 21.6506C2.06848 21.5431 2.05811 21.4559 2.05119 21.3891C2.04351 21.3214 2.03083 21.2723 2.01316 21.2415C1.99549 21.21 1.96476 21.1943 1.92097 21.1943L1.91175 21.1943C1.79805 21.1943 1.7097 21.2254 1.6467 21.2876C1.5837 21.3491 1.5522 21.4424 1.5522 21.5677C1.5522 21.6975 1.58063 21.7993 1.63748 21.8731C1.69433 21.9468 1.75502 21.9987 1.81956 22.0286L1.72737 22.2868C1.61981 22.2407 1.53607 22.1792 1.47614 22.1024C1.41545 22.0248 1.37319 21.9403 1.34938 21.8489C1.32479 21.7567 1.3125 21.666 1.3125 21.5769C1.3125 21.52 1.31941 21.4547 1.33324 21.381C1.3463 21.3065 1.37358 21.2346 1.41506 21.1655C1.45655 21.0956 1.51916 21.0376 1.60291 20.9915C1.68665 20.9454 1.79881 20.9223 1.93941 20.9223L3.10564 20.9223L3.10564 21.1943L2.86594 21.1943L2.86594 21.2081C2.90435 21.2266 2.94546 21.2573 2.98925 21.3003C3.03304 21.3433 3.0703 21.4006 3.10103 21.472C3.13176 21.5435 3.14713 21.6307 3.14713 21.7336ZM2.90282 21.6921C2.90282 21.5846 2.88169 21.4939 2.83944 21.4202C2.79718 21.3456 2.74263 21.2896 2.67579 21.2519C2.60895 21.2135 2.53866 21.1943 2.4649 21.1943L2.21598 21.1943C2.22981 21.2058 2.24249 21.2312 2.25401 21.2704C2.26477 21.3088 2.27437 21.3533 2.28282 21.404C2.29051 21.454 2.29742 21.5028 2.30357 21.5504C2.30895 21.5973 2.31356 21.6353 2.3174 21.6645C2.32662 21.7352 2.3416 21.8012 2.36234 21.8627C2.38232 21.9234 2.41266 21.9726 2.45338 22.0102C2.49333 22.0471 2.54788 22.0655 2.61702 22.0655C2.71152 22.0655 2.78297 22.0306 2.83137 21.9606C2.879 21.89 2.90282 21.8005 2.90282 21.6921Z" fill="black"/>
<path d="M3.14252 23.2508C3.14252 23.4167 3.10334 23.5596 3.02497 23.6795C2.94661 23.7993 2.83867 23.8915 2.70115 23.9561C2.56363 24.0206 2.40652 24.0529 2.22981 24.0529C2.05004 24.0529 1.89139 24.0198 1.75387 23.9537C1.61558 23.8869 1.50764 23.7939 1.43005 23.6749C1.35168 23.555 1.3125 23.4152 1.3125 23.2554C1.3125 23.1309 1.33555 23.0188 1.38164 22.9189C1.42774 22.819 1.49227 22.7372 1.57525 22.6734C1.65822 22.6097 1.75502 22.5701 1.86565 22.5547L1.86565 22.8267C1.78499 22.8474 1.71354 22.8935 1.65131 22.965C1.58831 23.0357 1.55681 23.1309 1.55681 23.2508C1.55681 23.3568 1.58447 23.4498 1.63978 23.5297C1.69433 23.6088 1.77154 23.6706 1.87142 23.7152C1.97052 23.759 2.08692 23.7809 2.22059 23.7809C2.35735 23.7809 2.47643 23.7594 2.57784 23.7164C2.67925 23.6726 2.758 23.6111 2.81408 23.532C2.87017 23.4521 2.89821 23.3583 2.89821 23.2508C2.89821 23.1801 2.88592 23.116 2.86133 23.0583C2.83675 23.0007 2.80141 22.9519 2.75531 22.912C2.70921 22.872 2.6539 22.8436 2.58936 22.8267L2.58936 22.5547C2.69385 22.5701 2.78796 22.6081 2.8717 22.6688C2.95468 22.7287 3.02075 22.8083 3.06992 22.9074C3.11832 23.0057 3.14252 23.1202 3.14252 23.2508Z" fill="black"/>
<path d="M0.745605 26.7227L0.745605 26.3816L2.70469 25.5795L2.70469 25.5519L0.745605 24.7498L0.745605 24.4087L3.10573 24.4087L3.10573 24.676L1.31259 24.676L1.31259 24.6991L3.10573 25.4366L3.10573 25.6948L1.31259 26.4323L1.31259 26.4554L3.10573 26.4554L3.10573 26.7227L0.745605 26.7227Z" fill="black"/>
</svg>
