<svg width="11" height="11" viewBox="0 0 11 11" fill="none" xmlns="http://www.w3.org/2000/svg">
<g clip-path="url(#clip0_3790_6470)">
<mask id="mask0_3790_6470" style="mask-type:luminance" maskUnits="userSpaceOnUse" x="0" y="0" width="11" height="11">
<path d="M10.64 0H0V10.64H10.64V0Z" fill="white"/>
</mask>
<g mask="url(#mask0_3790_6470)">
<path d="M10.64 0H0V10.64H10.64V0Z" fill="black"/>
<path d="M3.23982 0.82L2.45982 2.44L1.66982 0.82H0.819824V3.27H1.41982V1.52L2.17982 3H2.72982L3.49982 1.52V3.28H4.09982V0.82H3.24982H3.23982Z" fill="white"/>
<path d="M7.08984 0.82V1.31H8.15984V3.28H8.75984V1.31H9.82984V0.82H7.08984Z" fill="white"/>
<path d="M9.22984 9.01C9.20984 9.11 9.17984 9.19 9.10984 9.25C9.04984 9.31 8.96984 9.35 8.86984 9.37C8.76984 9.39 8.62984 9.41 8.46984 9.41C8.30984 9.41 8.16984 9.39 8.04984 9.35C7.93984 9.31 7.83984 9.24 7.77984 9.15C7.71984 9.05 7.67984 8.91 7.67984 8.74V8.49C7.67984 8.31 7.70984 8.17 7.77984 8.08C7.83984 7.98 7.93984 7.92 8.04984 7.88C8.16984 7.84 8.30984 7.82 8.46984 7.82C8.62984 7.82 8.76984 7.83 8.86984 7.86C8.96984 7.88 9.04984 7.92 9.10984 7.98C9.16984 8.04 9.20984 8.12 9.22984 8.22H9.82984C9.80984 8.02 9.73984 7.84 9.61984 7.71C9.50984 7.58 9.35984 7.49 9.16984 7.44C8.98984 7.39 8.74984 7.36 8.46984 7.36C8.17984 7.36 7.92984 7.4 7.72984 7.48C7.51984 7.56 7.35984 7.7 7.24984 7.89C7.13984 8.07 7.08984 8.31 7.08984 8.61V8.64V8.67C7.08984 8.97 7.14984 9.21 7.24984 9.39C7.35984 9.58 7.51984 9.72 7.72984 9.8C7.92984 9.88 8.17984 9.92 8.46984 9.92C8.75984 9.92 8.97984 9.89 9.16984 9.84C9.35984 9.78 9.50984 9.69 9.61984 9.57C9.73984 9.43 9.80984 9.26 9.82984 9.06H9.22984V9.01Z" fill="white"/>
</g>
</g>
<defs>
<clipPath id="clip0_3790_6470">
<rect width="10.64" height="10.64" fill="white"/>
</clipPath>
</defs>
</svg>
