<svg width="10" height="31" viewBox="0 0 10 31" fill="none" xmlns="http://www.w3.org/2000/svg">
<g clip-path="url(#clip0_3790_6503)">
<path fill-rule="evenodd" clip-rule="evenodd" d="M0 27.86C0 27.12 0.3 26.44 0.79 25.95C1.52 25.97 2.11 25.66 2.45 25.17C2.52 25.17 2.62 25.16 2.69 25.16C4.17 25.16 5.38 26.37 5.38 27.86C5.38 29.35 4.17 30.56 2.69 30.56C1.21 30.56 0 29.35 0 27.86ZM1.43 27.86C1.43 28.55 1.99 29.12 2.68 29.12C3.37 29.12 3.93 28.55 3.93 27.86C3.93 27.17 3.37 26.6 2.68 26.6C1.99 26.6 1.43 27.17 1.43 27.86Z" fill="black"/>
<path fill-rule="evenodd" clip-rule="evenodd" d="M0.159902 24.42C0.159902 23.88 0.599902 23.44 1.1299 23.44C1.2399 23.44 1.3499 23.46 1.4499 23.5C1.9999 23.64 2.4799 24.3 2.4599 24.35C2.0899 24.24 2.1099 24.59 2.0399 24.74C1.9099 25.12 1.5499 25.4 1.1199 25.4C0.589902 25.4 0.149902 24.96 0.149902 24.42H0.159902Z" fill="black"/>
<path fill-rule="evenodd" clip-rule="evenodd" d="M0.0900879 22.67C0.0900879 22.26 0.400088 21.93 0.770088 21.93H4.61009C4.98009 21.93 5.29009 22.26 5.29009 22.67C5.29009 23.08 4.98009 23.41 4.61009 23.41H2.43009C1.86009 22.83 1.32009 22.48 0.170088 23.02C0.120088 22.91 0.0900879 22.79 0.0900879 22.67Z" fill="black"/>
<path fill-rule="evenodd" clip-rule="evenodd" d="M0.0900879 19.24C0.0900879 18.83 0.400088 18.5 0.770088 18.5H4.61009C4.98009 18.5 5.29009 18.83 5.29009 19.24C5.29009 19.65 4.98009 19.98 4.61009 19.98H0.770088C0.400088 19.98 0.0900879 19.65 0.0900879 19.24Z" fill="black"/>
<path fill-rule="evenodd" clip-rule="evenodd" d="M1.81006 20.96C1.81006 20.52 2.17006 20.16 2.61006 20.16C3.05006 20.16 3.41006 20.52 3.41006 20.96C3.41006 21.4 3.05006 21.76 2.61006 21.76C2.17006 21.76 1.81006 21.4 1.81006 20.96Z" fill="black"/>
<path fill-rule="evenodd" clip-rule="evenodd" d="M2.65991 15.07C2.65991 14.63 3.01991 14.27 3.45991 14.27C3.89991 14.27 4.25991 14.63 4.25991 15.07C4.25991 15.51 3.89991 15.87 3.45991 15.87C3.01991 15.87 2.65991 15.51 2.65991 15.07Z" fill="black"/>
<path fill-rule="evenodd" clip-rule="evenodd" d="M2.5701 12.38H4.6101C4.9801 12.38 5.2901 12.71 5.2901 13.12C5.2901 13.53 4.9801 13.86 4.6101 13.86H2.2901C1.8401 13.86 1.4401 14.29 1.4401 15.06C1.4401 15.85 1.8701 16.26 2.2901 16.26H4.6101C4.9801 16.26 5.2901 16.59 5.2901 17C5.2901 17.41 4.9801 17.74 4.6101 17.74H2.5801C1.1901 17.78 0.100098 16.82 0.100098 15.03C0.110098 12.87 1.6801 12.33 2.5801 12.37L2.5701 12.38Z" fill="black"/>
<path fill-rule="evenodd" clip-rule="evenodd" d="M0.0900879 8.95C0.100088 7.72 0.850088 6.57 2.42009 6.42C2.93009 6.37 3.42009 6.55 3.95009 6.94C3.97009 6.95 4.01009 6.99 4.06009 6.96L4.54009 6.62C5.02009 6.28 5.54009 7.07 5.24009 7.52L3.45009 10.19C3.41009 10.28 3.43009 10.32 3.53009 10.32H4.62009C4.99009 10.32 5.30009 10.65 5.30009 11.06C5.30009 11.47 4.99009 11.8 4.62009 11.8H2.29009C1.50009 11.79 0.0800879 11.12 0.100088 8.95H0.0900879ZM1.62009 9.2C1.62009 9.72 2.04009 10.14 2.56009 10.14C3.08009 10.14 3.50009 9.72 3.50009 9.2C3.50009 8.68 3.08009 8.26 2.56009 8.26C2.04009 8.26 1.62009 8.68 1.62009 9.2Z" fill="black"/>
<path fill-rule="evenodd" clip-rule="evenodd" d="M2.65991 2.69C2.65991 2.25 3.01991 1.89 3.45991 1.89C3.89991 1.89 4.25991 2.25 4.25991 2.69C4.25991 3.13 3.89991 3.49 3.45991 3.49C3.01991 3.49 2.65991 3.13 2.65991 2.69Z" fill="black"/>
<path fill-rule="evenodd" clip-rule="evenodd" d="M2.57009 -2.72598e-06H4.61009C4.98009 -2.72598e-06 5.29009 0.329997 5.29009 0.739997C5.29009 1.15 4.98009 1.48 4.61009 1.48H2.29009C1.84009 1.48 1.44009 1.91 1.44009 2.68C1.44009 3.47 1.87009 3.88 2.29009 3.88H4.61009C4.98009 3.88 5.29009 4.21 5.29009 4.62C5.29009 5.03 4.98009 5.36 4.61009 5.36H2.58009C1.18009 5.42 0.100088 4.46 0.0900879 2.66C0.100088 0.509997 1.67009 -0.0400027 2.57009 -2.72598e-06Z" fill="black"/>
<path fill-rule="evenodd" clip-rule="evenodd" d="M7.61011 17.27C7.61011 16.98 7.84011 16.75 8.13011 16.75C8.42011 16.75 8.65011 16.98 8.65011 17.27C8.65011 17.56 8.42011 17.79 8.13011 17.79C7.84011 17.79 7.61011 17.56 7.61011 17.27Z" fill="black"/>
<path fill-rule="evenodd" clip-rule="evenodd" d="M8.98999 14.34C8.98999 14.34 9.00999 14.34 9.01999 14.34C9.01999 14.34 9.02999 14.35 9.03999 14.36C9.03999 14.37 9.03999 14.39 9.04999 14.41C9.04999 14.43 9.04999 14.45 9.04999 14.48C9.04999 14.51 9.04999 14.54 9.04999 14.56C9.04999 14.58 9.04999 14.6 9.03999 14.61C9.03999 14.62 9.02999 14.63 9.01999 14.63C9.01999 14.63 8.99999 14.63 8.98999 14.63H7.52999V15.42H8.98999C8.98999 15.42 9.00999 15.42 9.01999 15.42C9.01999 15.42 9.02999 15.43 9.03999 15.45C9.03999 15.46 9.03999 15.48 9.04999 15.5C9.04999 15.52 9.04999 15.54 9.04999 15.57C9.04999 15.6 9.04999 15.63 9.04999 15.64C9.04999 15.66 9.04999 15.68 9.03999 15.69C9.03999 15.7 9.02999 15.71 9.01999 15.71C9.01999 15.71 8.99999 15.71 8.98999 15.71H7.37999C7.37999 15.71 7.31999 15.71 7.29999 15.68C7.27999 15.66 7.26999 15.64 7.26999 15.61V14.39C7.26999 14.39 7.26999 14.34 7.29999 14.32C7.31999 14.3 7.34999 14.3 7.37999 14.3H8.98999V14.34ZM9.03999 13.01L9.64999 13.23C9.64999 13.23 9.67999 13.26 9.69999 13.29C9.70999 13.32 9.71999 13.37 9.71999 13.43C9.71999 13.46 9.71999 13.49 9.71999 13.51C9.71999 13.53 9.71999 13.54 9.69999 13.56C9.69999 13.57 9.67999 13.58 9.66999 13.58C9.65999 13.58 9.63999 13.58 9.62999 13.58L9.04999 13.35C9.04999 13.35 9.03999 13.37 9.02999 13.38C9.01999 13.39 9.00999 13.4 8.98999 13.4L7.38999 14C7.38999 14 7.33999 14.01 7.32999 14.01C7.31999 14.01 7.29999 14.01 7.28999 14C7.28999 13.99 7.27999 13.97 7.26999 13.95C7.26999 13.93 7.26999 13.9 7.26999 13.86C7.26999 13.82 7.26999 13.79 7.26999 13.77C7.26999 13.75 7.26999 13.73 7.27999 13.72C7.27999 13.71 7.28999 13.7 7.29999 13.69C7.29999 13.69 7.31999 13.68 7.33999 13.67L8.67999 13.19L7.32999 12.72C7.30999 12.72 7.28999 12.7 7.27999 12.69C7.27999 12.68 7.26999 12.66 7.25999 12.64C7.25999 12.62 7.25999 12.59 7.25999 12.55C7.25999 12.52 7.25999 12.49 7.25999 12.46C7.25999 12.44 7.25999 12.42 7.27999 12.41C7.27999 12.4 7.29999 12.39 7.31999 12.39C7.33999 12.39 7.34999 12.39 7.37999 12.4L9.03999 13V13.01ZM8.95999 10.79C8.95999 10.79 8.98999 10.77 8.99999 10.77C9.00999 10.77 9.01999 10.77 9.02999 10.79C9.02999 10.8 9.03999 10.82 9.04999 10.84C9.04999 10.86 9.04999 10.9 9.04999 10.93C9.04999 10.96 9.04999 11 9.04999 11.02C9.04999 11.04 9.04999 11.06 9.04999 11.07C9.04999 11.08 9.03999 11.09 9.02999 11.1C9.02999 11.1 9.01999 11.11 9.00999 11.12L8.34999 11.52L9.00999 11.92C9.00999 11.92 9.02999 11.93 9.02999 11.94C9.02999 11.94 9.03999 11.96 9.04999 11.97C9.04999 11.98 9.04999 12 9.04999 12.02C9.04999 12.04 9.04999 12.07 9.04999 12.1C9.04999 12.13 9.04999 12.17 9.04999 12.19C9.04999 12.21 9.04999 12.23 9.02999 12.24C9.02999 12.25 9.00999 12.26 8.99999 12.26C8.98999 12.26 8.96999 12.26 8.95999 12.24L8.14999 11.72L7.36999 12.21C7.36999 12.21 7.33999 12.23 7.32999 12.23C7.31999 12.23 7.30999 12.23 7.29999 12.21C7.29999 12.2 7.28999 12.18 7.27999 12.16C7.27999 12.14 7.27999 12.1 7.27999 12.07C7.27999 12.03 7.27999 12.01 7.27999 11.98C7.27999 11.96 7.27999 11.94 7.27999 11.93C7.27999 11.92 7.27999 11.91 7.28999 11.9C7.29999 11.89 7.29999 11.89 7.30999 11.88L7.92999 11.5L7.30999 11.11C7.30999 11.11 7.29999 11.1 7.28999 11.09C7.27999 11.08 7.27999 11.08 7.26999 11.07C7.26999 11.06 7.26999 11.04 7.26999 11.03C7.26999 11.01 7.26999 10.98 7.26999 10.95C7.26999 10.91 7.26999 10.88 7.26999 10.86C7.26999 10.84 7.26999 10.82 7.27999 10.81C7.27999 10.8 7.29999 10.79 7.30999 10.8C7.31999 10.8 7.33999 10.8 7.35999 10.82L8.13999 11.31L8.95999 10.79ZM8.13999 8.92C8.27999 8.92 8.39999 8.94 8.51999 8.97C8.62999 9.01 8.72999 9.06 8.81999 9.13C8.89999 9.2 8.96999 9.29 9.00999 9.4C9.05999 9.51 9.07999 9.63 9.07999 9.77C9.07999 9.91 9.05999 10.03 9.01999 10.13C8.97999 10.23 8.91999 10.32 8.83999 10.38C8.75999 10.45 8.66999 10.5 8.55999 10.53C8.44999 10.56 8.31999 10.58 8.17999 10.58C8.03999 10.58 7.91999 10.56 7.79999 10.53C7.68999 10.49 7.58999 10.44 7.49999 10.37C7.41999 10.3 7.34999 10.21 7.30999 10.1C7.25999 9.99 7.23999 9.87 7.23999 9.73C7.23999 9.59 7.25999 9.47 7.29999 9.37C7.33999 9.27 7.39999 9.18 7.47999 9.12C7.55999 9.05 7.64999 9 7.75999 8.97C7.86999 8.94 7.99999 8.92 8.13999 8.92ZM8.15999 9.24C8.06999 9.24 7.97999 9.24 7.89999 9.27C7.81999 9.29 7.74999 9.31 7.68999 9.35C7.62999 9.39 7.57999 9.44 7.54999 9.51C7.50999 9.58 7.49999 9.66 7.49999 9.76C7.49999 9.85 7.51999 9.93 7.54999 9.99C7.57999 10.05 7.62999 10.11 7.68999 10.15C7.74999 10.19 7.81999 10.22 7.89999 10.24C7.97999 10.26 8.06999 10.27 8.15999 10.27C8.24999 10.27 8.33999 10.27 8.41999 10.24C8.49999 10.22 8.56999 10.2 8.62999 10.16C8.68999 10.12 8.73999 10.07 8.76999 10C8.80999 9.93 8.81999 9.85 8.81999 9.75C8.81999 9.66 8.79999 9.58 8.76999 9.52C8.73999 9.46 8.68999 9.4 8.62999 9.36C8.56999 9.32 8.49999 9.29 8.41999 9.27C8.33999 9.25 8.24999 9.24 8.14999 9.24H8.15999ZM8.50999 7.1C8.59999 7.1 8.67999 7.12 8.73999 7.15C8.80999 7.18 8.86999 7.23 8.90999 7.3C8.95999 7.37 8.98999 7.45 9.01999 7.54C9.03999 7.64 9.05999 7.75 9.05999 7.88C9.05999 7.92 9.05999 7.96 9.05999 8C9.05999 8.04 9.05999 8.08 9.05999 8.11C9.05999 8.15 9.05999 8.18 9.05999 8.22C9.05999 8.25 9.05999 8.29 9.05999 8.32C9.05999 8.37 9.03999 8.41 9.00999 8.43C8.97999 8.45 8.93999 8.47 8.88999 8.47H7.44999C7.39999 8.47 7.35999 8.46 7.32999 8.44C7.29999 8.42 7.28999 8.38 7.27999 8.33C7.27999 8.3 7.27999 8.26 7.27999 8.23C7.27999 8.19 7.27999 8.16 7.27999 8.12C7.27999 8.08 7.27999 8.04 7.27999 8C7.27999 7.96 7.27999 7.92 7.27999 7.88C7.27999 7.76 7.28999 7.66 7.30999 7.57C7.32999 7.48 7.35999 7.41 7.39999 7.35C7.43999 7.29 7.48999 7.25 7.53999 7.22C7.59999 7.19 7.65999 7.18 7.72999 7.18C7.81999 7.18 7.89999 7.21 7.96999 7.26C8.03999 7.31 8.07999 7.38 8.10999 7.48C8.13999 7.36 8.18999 7.27 8.25999 7.2C8.32999 7.14 8.42999 7.11 8.53999 7.11L8.50999 7.1ZM7.73999 7.47C7.73999 7.47 7.65999 7.47 7.62999 7.49C7.59999 7.51 7.56999 7.53 7.54999 7.56C7.52999 7.59 7.50999 7.64 7.49999 7.69C7.48999 7.74 7.47999 7.81 7.47999 7.89C7.47999 7.95 7.47999 8 7.47999 8.05C7.47999 8.1 7.47999 8.14 7.48999 8.17H8.00999V7.86C8.00999 7.73 7.98999 7.63 7.93999 7.57C7.88999 7.5 7.81999 7.47 7.73999 7.47ZM8.51999 7.42C8.51999 7.42 8.42999 7.42 8.38999 7.45C8.34999 7.47 8.31999 7.49 8.29999 7.53C8.27999 7.57 8.25999 7.62 8.23999 7.67C8.22999 7.73 8.21999 7.8 8.21999 7.88V8.18H8.80999C8.80999 8.18 8.80999 8.13 8.80999 8.11C8.80999 8.08 8.80999 8.06 8.80999 8.03C8.80999 8 8.80999 7.98 8.80999 7.95C8.80999 7.92 8.80999 7.9 8.80999 7.88C8.80999 7.8 8.80999 7.73 8.78999 7.67C8.77999 7.61 8.75999 7.57 8.72999 7.53C8.69999 7.49 8.66999 7.46 8.62999 7.45C8.58999 7.43 8.54999 7.42 8.49999 7.42H8.51999ZM8.99999 5.17H9.01999C9.01999 5.17 9.02999 5.18 9.03999 5.19C9.03999 5.2 9.03999 5.22 9.04999 5.24C9.04999 5.26 9.04999 5.28 9.04999 5.31C9.04999 5.34 9.04999 5.36 9.04999 5.38C9.04999 5.4 9.04999 5.42 9.03999 5.43C9.03999 5.44 9.02999 5.45 9.01999 5.46H8.99999H8.03999C8.03999 5.46 7.93999 5.46 7.88999 5.46C7.83999 5.46 7.78999 5.46 7.73999 5.46C7.78999 5.49 7.83999 5.52 7.88999 5.55C7.93999 5.58 7.97999 5.62 8.02999 5.65L8.99999 6.36C8.99999 6.36 9.01999 6.38 9.02999 6.38C9.02999 6.38 9.03999 6.4 9.04999 6.41C9.04999 6.42 9.04999 6.43 9.04999 6.45C9.04999 6.47 9.04999 6.49 9.04999 6.51C9.04999 6.54 9.04999 6.56 9.04999 6.58C9.04999 6.6 9.04999 6.61 9.03999 6.62C9.03999 6.63 9.02999 6.64 9.01999 6.64H8.99999H7.32999H7.30999C7.30999 6.64 7.29999 6.63 7.28999 6.62C7.28999 6.61 7.28999 6.59 7.27999 6.57C7.27999 6.55 7.27999 6.53 7.27999 6.5C7.27999 6.44 7.27999 6.4 7.28999 6.38C7.28999 6.36 7.30999 6.35 7.32999 6.35H8.29999C8.29999 6.35 8.39999 6.35 8.43999 6.35C8.48999 6.35 8.52999 6.35 8.57999 6.35C8.52999 6.32 8.48999 6.29 8.43999 6.26C8.39999 6.23 8.34999 6.2 8.30999 6.17L7.32999 5.45C7.32999 5.45 7.30999 5.44 7.29999 5.43C7.29999 5.43 7.28999 5.41 7.27999 5.4C7.27999 5.39 7.27999 5.37 7.27999 5.36C7.27999 5.34 7.27999 5.32 7.27999 5.3C7.27999 5.28 7.27999 5.25 7.27999 5.23C7.27999 5.21 7.27999 5.2 7.28999 5.19C7.28999 5.18 7.29999 5.17 7.30999 5.17C7.30999 5.17 7.32999 5.17 7.33999 5.17H9.00999H8.99999ZM9.00999 3.24C9.00999 3.24 9.01999 3.24 9.02999 3.24C9.02999 3.24 9.03999 3.25 9.03999 3.26C9.03999 3.27 9.03999 3.29 9.03999 3.31C9.03999 3.33 9.03999 3.35 9.03999 3.38C9.03999 3.41 9.03999 3.44 9.03999 3.46C9.03999 3.48 9.03999 3.5 9.02999 3.51C9.02999 3.52 9.01999 3.53 9.00999 3.54C9.00999 3.54 8.99999 3.55 8.98999 3.55L8.55999 3.73C8.49999 3.75 8.45999 3.78 8.41999 3.8C8.37999 3.83 8.34999 3.85 8.31999 3.89C8.29999 3.92 8.27999 3.96 8.26999 4C8.25999 4.04 8.24999 4.09 8.24999 4.14V4.27H8.99999C8.99999 4.27 9.00999 4.27 9.01999 4.27C9.01999 4.27 9.02999 4.29 9.02999 4.3C9.02999 4.31 9.02999 4.33 9.02999 4.35C9.02999 4.37 9.02999 4.39 9.02999 4.42C9.02999 4.45 9.02999 4.47 9.02999 4.49C9.02999 4.51 9.02999 4.53 9.02999 4.54C9.02999 4.55 9.02999 4.56 9.01999 4.57C9.01999 4.57 9.00999 4.57 8.99999 4.57H7.29999C7.29999 4.57 7.28999 4.57 7.27999 4.57C7.27999 4.57 7.26999 4.56 7.26999 4.54C7.26999 4.53 7.26999 4.51 7.26999 4.49C7.26999 4.47 7.26999 4.45 7.26999 4.42C7.26999 4.39 7.26999 4.37 7.26999 4.35C7.26999 4.33 7.26999 4.31 7.26999 4.3C7.26999 4.29 7.26999 4.28 7.27999 4.27C7.27999 4.27 7.28999 4.27 7.29999 4.27H7.99999V4.14C7.99999 4.14 7.99999 4.05 7.97999 4.01C7.96999 3.97 7.94999 3.94 7.92999 3.9C7.90999 3.87 7.86999 3.84 7.83999 3.81C7.79999 3.78 7.75999 3.76 7.69999 3.74L7.30999 3.59C7.30999 3.59 7.28999 3.59 7.27999 3.58C7.27999 3.58 7.26999 3.56 7.25999 3.55C7.25999 3.54 7.25999 3.52 7.24999 3.5C7.24999 3.48 7.24999 3.45 7.24999 3.42C7.24999 3.39 7.24999 3.37 7.24999 3.35C7.24999 3.33 7.24999 3.32 7.24999 3.31C7.24999 3.3 7.24999 3.29 7.25999 3.29C7.25999 3.29 7.26999 3.29 7.27999 3.29C7.28999 3.29 7.29999 3.29 7.31999 3.29C7.32999 3.29 7.34999 3.29 7.35999 3.3L7.72999 3.46C7.78999 3.48 7.83999 3.51 7.88999 3.54C7.92999 3.57 7.96999 3.6 7.99999 3.63C8.02999 3.66 8.04999 3.69 8.06999 3.72C8.08999 3.75 8.09999 3.78 8.10999 3.81C8.10999 3.81 8.13999 3.73 8.15999 3.69C8.17999 3.65 8.20999 3.62 8.23999 3.59C8.26999 3.56 8.30999 3.53 8.34999 3.5C8.38999 3.47 8.43999 3.45 8.49999 3.42L8.91999 3.24C8.91999 3.24 8.93999 3.24 8.93999 3.23C8.93999 3.23 8.94999 3.23 8.95999 3.23C8.95999 3.23 8.96999 3.23 8.97999 3.23C8.98999 3.23 8.97999 3.23 8.98999 3.23L9.00999 3.24ZM8.99999 1.35H9.01999C9.01999 1.35 9.02999 1.36 9.03999 1.37C9.03999 1.38 9.03999 1.4 9.04999 1.42C9.04999 1.44 9.04999 1.46 9.04999 1.49C9.04999 1.52 9.04999 1.54 9.04999 1.56C9.04999 1.58 9.04999 1.6 9.03999 1.61C9.03999 1.62 9.02999 1.63 9.01999 1.64H8.99999H8.03999C8.03999 1.64 7.93999 1.64 7.88999 1.64C7.83999 1.64 7.78999 1.64 7.73999 1.64C7.78999 1.67 7.83999 1.7 7.88999 1.73C7.93999 1.76 7.97999 1.8 8.02999 1.83L8.99999 2.54C8.99999 2.54 9.01999 2.56 9.02999 2.56C9.02999 2.56 9.03999 2.58 9.04999 2.59C9.04999 2.6 9.04999 2.61 9.04999 2.63C9.04999 2.65 9.04999 2.67 9.04999 2.69C9.04999 2.72 9.04999 2.74 9.04999 2.76C9.04999 2.78 9.04999 2.79 9.03999 2.8C9.03999 2.81 9.02999 2.82 9.01999 2.82H8.99999H7.32999H7.30999C7.30999 2.82 7.29999 2.81 7.28999 2.8C7.28999 2.79 7.28999 2.77 7.27999 2.75C7.27999 2.73 7.27999 2.71 7.27999 2.68C7.27999 2.62 7.27999 2.58 7.28999 2.56C7.28999 2.54 7.30999 2.53 7.32999 2.53H8.29999C8.29999 2.53 8.39999 2.53 8.43999 2.53C8.48999 2.53 8.52999 2.53 8.57999 2.53C8.52999 2.5 8.48999 2.47 8.43999 2.44C8.39999 2.41 8.34999 2.38 8.30999 2.35L7.32999 1.63C7.32999 1.63 7.30999 1.62 7.29999 1.61C7.29999 1.61 7.28999 1.59 7.27999 1.58C7.27999 1.57 7.27999 1.55 7.27999 1.54C7.27999 1.52 7.27999 1.5 7.27999 1.48C7.27999 1.46 7.27999 1.43 7.27999 1.41C7.27999 1.39 7.27999 1.38 7.28999 1.37C7.28999 1.36 7.29999 1.35 7.30999 1.35C7.30999 1.35 7.32999 1.35 7.33999 1.35H9.00999H8.99999Z" fill="black"/>
<path fill-rule="evenodd" clip-rule="evenodd" d="M9.01005 27.68C9.01005 27.68 9.02005 27.68 9.03005 27.68C9.03005 27.68 9.04005 27.69 9.04005 27.7C9.04005 27.71 9.04005 27.73 9.04005 27.75C9.04005 27.77 9.04005 27.79 9.04005 27.82C9.04005 27.85 9.04005 27.88 9.04005 27.9C9.04005 27.92 9.04005 27.94 9.03005 27.95C9.03005 27.96 9.02005 27.97 9.01005 27.98C9.01005 27.98 9.00005 27.99 8.99005 27.99L8.56005 28.17C8.50005 28.19 8.46005 28.22 8.42005 28.24C8.38005 28.27 8.35005 28.29 8.32005 28.33C8.30005 28.36 8.28005 28.4 8.27005 28.44C8.26005 28.48 8.25005 28.53 8.25005 28.58V28.71H9.00005C9.00005 28.71 9.01005 28.71 9.02005 28.71C9.02005 28.71 9.03005 28.73 9.03005 28.74C9.03005 28.75 9.03005 28.77 9.03005 28.79C9.03005 28.81 9.03005 28.83 9.03005 28.86C9.03005 28.89 9.03005 28.91 9.03005 28.93C9.03005 28.95 9.03005 28.97 9.03005 28.98C9.03005 28.99 9.03005 29 9.02005 29.01C9.02005 29.01 9.01005 29.01 9.00005 29.01H7.30005C7.30005 29.01 7.29005 29.01 7.28005 29.01C7.28005 29.01 7.27005 29 7.27005 28.98C7.27005 28.97 7.27005 28.95 7.27005 28.93C7.27005 28.91 7.27005 28.89 7.27005 28.86C7.27005 28.83 7.27005 28.81 7.27005 28.79C7.27005 28.77 7.27005 28.75 7.27005 28.74C7.27005 28.73 7.27005 28.72 7.28005 28.71C7.28005 28.71 7.29005 28.71 7.30005 28.71H8.00005V28.58C8.00005 28.58 8.00005 28.49 7.98005 28.45C7.97005 28.41 7.95005 28.38 7.93005 28.34C7.91005 28.31 7.87005 28.28 7.84005 28.25C7.80005 28.22 7.76005 28.2 7.70005 28.18L7.31005 28.03C7.31005 28.03 7.29005 28.03 7.28005 28.02C7.28005 28.02 7.27005 28 7.26005 27.99C7.26005 27.98 7.26005 27.96 7.25005 27.94C7.24005 27.92 7.25005 27.89 7.25005 27.86C7.25005 27.83 7.25005 27.81 7.25005 27.79C7.25005 27.77 7.25005 27.76 7.25005 27.75C7.25005 27.74 7.25005 27.73 7.26005 27.73C7.26005 27.73 7.27005 27.73 7.28005 27.73C7.29005 27.73 7.30005 27.73 7.32005 27.73C7.33005 27.73 7.35005 27.73 7.36005 27.74L7.73005 27.9C7.79005 27.92 7.84005 27.95 7.89005 27.98C7.93005 28.01 7.97005 28.04 8.00005 28.07C8.03005 28.1 8.05005 28.13 8.07005 28.16C8.09005 28.19 8.10005 28.22 8.11005 28.25C8.11005 28.25 8.14005 28.17 8.16005 28.13C8.18005 28.09 8.21005 28.06 8.24005 28.03C8.27005 28 8.31005 27.97 8.35005 27.94C8.39005 27.91 8.44005 27.89 8.50005 27.86L8.92005 27.68C8.92005 27.68 8.94005 27.68 8.94005 27.67C8.94005 27.67 8.95005 27.67 8.96005 27.67C8.96005 27.67 8.97005 27.67 8.98005 27.67C8.98005 27.67 8.98005 27.67 8.99005 27.67L9.01005 27.68ZM9.04005 26.52L9.65005 26.74C9.65005 26.74 9.68005 26.77 9.70005 26.8C9.71005 26.83 9.72005 26.88 9.72005 26.94C9.72005 26.97 9.72005 27 9.72005 27.02C9.72005 27.04 9.72005 27.05 9.70005 27.07C9.70005 27.08 9.68005 27.09 9.67005 27.09C9.66005 27.09 9.64005 27.09 9.63005 27.09L9.05005 26.86C9.05005 26.86 9.04005 26.88 9.03005 26.89C9.02005 26.9 9.01005 26.91 8.99005 26.91L7.39005 27.51C7.39005 27.51 7.34005 27.52 7.33005 27.52C7.32005 27.52 7.30005 27.52 7.29005 27.51C7.29005 27.5 7.28005 27.48 7.27005 27.46C7.27005 27.44 7.27005 27.41 7.27005 27.37C7.27005 27.33 7.27005 27.3 7.27005 27.28C7.27005 27.26 7.27005 27.24 7.28005 27.23C7.28005 27.22 7.29005 27.21 7.30005 27.2C7.30005 27.2 7.32005 27.19 7.34005 27.18L8.68005 26.7L7.33005 26.23C7.31005 26.23 7.29005 26.21 7.28005 26.2C7.28005 26.19 7.27005 26.17 7.26005 26.15C7.26005 26.13 7.26005 26.1 7.26005 26.06C7.26005 26.03 7.26005 26 7.26005 25.97C7.26005 25.95 7.26005 25.93 7.28005 25.92C7.28005 25.91 7.30005 25.9 7.32005 25.9C7.34005 25.9 7.35005 25.9 7.38005 25.91L9.04005 26.51V26.52ZM8.13005 24.03C8.28005 24.03 8.41005 24.05 8.52005 24.08C8.64005 24.11 8.73005 24.16 8.82005 24.22C8.90005 24.28 8.96005 24.36 9.01005 24.45C9.06005 24.54 9.08005 24.64 9.08005 24.76C9.08005 24.81 9.08005 24.85 9.07005 24.9C9.06005 24.94 9.04005 24.98 9.02005 25.02C9.00005 25.06 8.97005 25.1 8.94005 25.14C8.91005 25.18 8.87005 25.22 8.83005 25.27H9.67005C9.67005 25.27 9.69005 25.27 9.70005 25.27C9.70005 25.27 9.71005 25.28 9.72005 25.29C9.72005 25.3 9.72005 25.32 9.73005 25.34C9.73005 25.36 9.73005 25.38 9.73005 25.42C9.73005 25.46 9.73005 25.48 9.73005 25.49C9.73005 25.51 9.73005 25.53 9.72005 25.54C9.72005 25.55 9.71005 25.56 9.70005 25.56C9.70005 25.56 9.68005 25.56 9.67005 25.56H7.34005C7.34005 25.56 7.32005 25.56 7.31005 25.56C7.31005 25.56 7.30005 25.55 7.29005 25.54C7.29005 25.53 7.29005 25.51 7.28005 25.5C7.28005 25.48 7.28005 25.46 7.28005 25.44C7.28005 25.41 7.28005 25.39 7.28005 25.38C7.28005 25.36 7.28005 25.35 7.29005 25.34C7.29005 25.33 7.30005 25.32 7.31005 25.32C7.31005 25.32 7.33005 25.32 7.34005 25.32H7.56005C7.51005 25.27 7.46005 25.22 7.42005 25.17C7.38005 25.12 7.35005 25.08 7.33005 25.03C7.30005 24.98 7.29005 24.93 7.27005 24.88C7.26005 24.83 7.25005 24.78 7.25005 24.72C7.25005 24.6 7.27005 24.5 7.32005 24.41C7.37005 24.33 7.43005 24.26 7.51005 24.2C7.59005 24.15 7.69005 24.11 7.79005 24.08C7.90005 24.06 8.01005 24.04 8.13005 24.04V24.03ZM8.17005 24.35C8.08005 24.35 8.00005 24.35 7.92005 24.37C7.84005 24.38 7.77005 24.41 7.71005 24.44C7.65005 24.47 7.60005 24.51 7.56005 24.57C7.52005 24.62 7.50005 24.69 7.50005 24.77C7.50005 24.81 7.50005 24.85 7.52005 24.89C7.53005 24.93 7.55005 24.97 7.58005 25.01C7.61005 25.05 7.64005 25.09 7.68005 25.13C7.72005 25.17 7.77005 25.22 7.83005 25.27H8.49005C8.59005 25.19 8.67005 25.11 8.73005 25.03C8.78005 24.95 8.81005 24.87 8.81005 24.79C8.81005 24.71 8.79005 24.65 8.75005 24.59C8.71005 24.53 8.66005 24.49 8.60005 24.46C8.54005 24.43 8.47005 24.4 8.39005 24.38C8.31005 24.36 8.24005 24.36 8.16005 24.36L8.17005 24.35ZM7.42005 22.4C7.42005 22.4 7.47005 22.4 7.48005 22.4C7.50005 22.4 7.51005 22.4 7.52005 22.41C7.53005 22.41 7.54005 22.42 7.55005 22.43C7.55005 22.43 7.55005 22.45 7.55005 22.46V22.96H8.99005C8.99005 22.96 9.01005 22.96 9.02005 22.96C9.02005 22.96 9.03005 22.97 9.04005 22.98C9.04005 22.99 9.04005 23.01 9.05005 23.03C9.05005 23.05 9.05005 23.07 9.05005 23.11C9.05005 23.15 9.05005 23.17 9.05005 23.18C9.05005 23.2 9.05005 23.22 9.04005 23.23C9.04005 23.24 9.03005 23.25 9.02005 23.25C9.02005 23.25 9.00005 23.25 8.99005 23.25H7.55005V23.75C7.55005 23.75 7.55005 23.77 7.55005 23.78C7.55005 23.78 7.54005 23.79 7.52005 23.8C7.51005 23.8 7.49005 23.8 7.48005 23.81C7.46005 23.81 7.44005 23.81 7.42005 23.81C7.40005 23.81 7.38005 23.81 7.36005 23.81C7.34005 23.81 7.33005 23.81 7.32005 23.8C7.31005 23.8 7.30005 23.79 7.29005 23.78C7.29005 23.78 7.29005 23.76 7.29005 23.75V22.44C7.29005 22.44 7.29005 22.42 7.29005 22.41C7.29005 22.41 7.30005 22.4 7.32005 22.39C7.33005 22.39 7.35005 22.39 7.36005 22.38C7.38005 22.38 7.40005 22.38 7.42005 22.38V22.4ZM9.01005 20.74C9.01005 20.74 9.02005 20.74 9.03005 20.74C9.03005 20.74 9.04005 20.75 9.04005 20.76C9.04005 20.77 9.04005 20.79 9.04005 20.81C9.04005 20.83 9.04005 20.85 9.04005 20.88C9.04005 20.91 9.04005 20.94 9.04005 20.96C9.04005 20.98 9.04005 21 9.03005 21.01C9.03005 21.02 9.02005 21.03 9.01005 21.04C9.01005 21.04 9.00005 21.05 8.99005 21.05L8.56005 21.23C8.50005 21.25 8.46005 21.28 8.42005 21.3C8.38005 21.33 8.35005 21.35 8.32005 21.39C8.30005 21.42 8.28005 21.46 8.27005 21.5C8.26005 21.54 8.25005 21.59 8.25005 21.64V21.77H9.00005C9.00005 21.77 9.01005 21.77 9.02005 21.77C9.02005 21.77 9.03005 21.79 9.03005 21.8C9.03005 21.81 9.03005 21.83 9.03005 21.85C9.03005 21.87 9.03005 21.89 9.03005 21.92C9.03005 21.95 9.03005 21.97 9.03005 21.99C9.03005 22.01 9.03005 22.03 9.03005 22.04C9.03005 22.05 9.03005 22.06 9.02005 22.07C9.02005 22.07 9.01005 22.07 9.00005 22.07H7.30005C7.30005 22.07 7.29005 22.07 7.28005 22.07C7.28005 22.07 7.27005 22.06 7.27005 22.04C7.27005 22.03 7.27005 22.01 7.27005 21.99C7.27005 21.97 7.27005 21.95 7.27005 21.92C7.27005 21.89 7.27005 21.87 7.27005 21.85C7.27005 21.83 7.27005 21.81 7.27005 21.8C7.27005 21.79 7.27005 21.78 7.28005 21.77C7.28005 21.77 7.29005 21.77 7.30005 21.77H8.00005V21.64C8.00005 21.64 8.00005 21.55 7.98005 21.51C7.97005 21.47 7.95005 21.44 7.93005 21.4C7.91005 21.37 7.87005 21.34 7.84005 21.31C7.80005 21.28 7.76005 21.26 7.70005 21.24L7.31005 21.09C7.31005 21.09 7.29005 21.09 7.28005 21.08C7.28005 21.08 7.27005 21.06 7.26005 21.05C7.26005 21.04 7.26005 21.02 7.25005 21C7.25005 20.98 7.25005 20.95 7.25005 20.92C7.25005 20.89 7.25005 20.87 7.25005 20.85C7.25005 20.83 7.25005 20.82 7.25005 20.81C7.25005 20.8 7.25005 20.79 7.26005 20.79C7.26005 20.79 7.27005 20.79 7.28005 20.79C7.29005 20.79 7.30005 20.79 7.32005 20.79C7.33005 20.79 7.35005 20.79 7.36005 20.8L7.73005 20.96C7.79005 20.98 7.84005 21.01 7.89005 21.04C7.93005 21.07 7.97005 21.1 8.00005 21.13C8.03005 21.16 8.05005 21.19 8.07005 21.22C8.09005 21.25 8.10005 21.28 8.11005 21.31C8.11005 21.31 8.14005 21.23 8.16005 21.19C8.18005 21.15 8.21005 21.12 8.24005 21.09C8.27005 21.06 8.31005 21.03 8.35005 21C8.39005 20.97 8.44005 20.95 8.50005 20.92L8.92005 20.74C8.92005 20.74 8.94005 20.74 8.94005 20.73C8.94005 20.73 8.95005 20.73 8.96005 20.73C8.96005 20.73 8.97005 20.73 8.98005 20.73C8.98005 20.73 8.98005 20.73 8.99005 20.73L9.01005 20.74ZM9.00005 18.85H9.02005C9.02005 18.85 9.03005 18.86 9.04005 18.87C9.04005 18.88 9.04005 18.9 9.05005 18.92C9.05005 18.94 9.05005 18.96 9.05005 18.99C9.05005 19.02 9.05005 19.04 9.05005 19.06C9.05005 19.08 9.05005 19.1 9.04005 19.11C9.04005 19.12 9.03005 19.13 9.02005 19.14H9.00005H8.04005C8.04005 19.14 7.94005 19.14 7.89005 19.14C7.84005 19.14 7.79005 19.14 7.74005 19.14C7.79005 19.17 7.84005 19.2 7.89005 19.23C7.94005 19.26 7.98005 19.3 8.03005 19.33L9.00005 20.04C9.00005 20.04 9.02005 20.06 9.03005 20.06C9.03005 20.06 9.04005 20.08 9.05005 20.09C9.05005 20.1 9.05005 20.11 9.05005 20.13C9.05005 20.15 9.05005 20.17 9.05005 20.19C9.05005 20.22 9.05005 20.24 9.05005 20.26C9.05005 20.28 9.05005 20.29 9.04005 20.3C9.04005 20.31 9.03005 20.32 9.02005 20.32H9.00005H7.33005H7.31005C7.31005 20.32 7.30005 20.31 7.29005 20.3C7.29005 20.29 7.29005 20.27 7.28005 20.25C7.28005 20.23 7.28005 20.21 7.28005 20.18C7.28005 20.12 7.28005 20.08 7.29005 20.06C7.29005 20.04 7.31005 20.03 7.33005 20.03H8.30005C8.30005 20.03 8.40005 20.03 8.44005 20.03C8.49005 20.03 8.53005 20.03 8.58005 20.03C8.53005 20 8.49005 19.97 8.44005 19.94C8.40005 19.91 8.35005 19.88 8.31005 19.85L7.33005 19.13C7.33005 19.13 7.31005 19.12 7.30005 19.11C7.30005 19.11 7.29005 19.09 7.28005 19.08C7.28005 19.07 7.28005 19.05 7.28005 19.04C7.28005 19.02 7.28005 19 7.28005 18.98C7.28005 18.96 7.28005 18.93 7.28005 18.91C7.28005 18.89 7.28005 18.88 7.29005 18.87C7.29005 18.86 7.30005 18.85 7.31005 18.85C7.31005 18.85 7.33005 18.85 7.34005 18.85H9.01005H9.00005Z" fill="black"/>
</g>
<defs>
<clipPath id="clip0_3790_6503">
<rect width="9.72" height="30.56" fill="white"/>
</clipPath>
</defs>
</svg>
