<svg width="34" height="7" viewBox="0 0 34 7" fill="none" xmlns="http://www.w3.org/2000/svg">
<g clip-path="url(#clip0_3790_6992)">
<path fill-rule="evenodd" clip-rule="evenodd" d="M15.0801 2.26001C13.7701 2.26001 13.1001 3.20001 13.1001 4.16001C13.1001 5.41001 13.8901 6.18001 15.0901 6.18001C16.4401 6.18001 17.0701 5.23001 17.0701 4.28001C17.0701 3.03001 16.2701 2.26001 15.0701 2.26001H15.0801ZM15.0901 5.06001C14.6101 5.06001 14.2901 4.73001 14.2901 4.19001C14.2901 3.78001 14.5601 3.37001 15.0801 3.37001C15.5601 3.37001 15.8801 3.70001 15.8801 4.24001C15.8801 4.65001 15.6301 5.06001 15.0801 5.06001H15.0901Z" fill="black"/>
<path fill-rule="evenodd" clip-rule="evenodd" d="M9.52979 2.42996C9.65979 2.38996 9.76979 2.35996 9.89979 2.34996C10.1698 2.31996 10.4998 2.33996 10.7798 2.32996C12.0198 2.33996 12.8298 2.93996 12.8298 4.21996C12.8298 5.49996 12.0298 6.09996 10.7798 6.11996C10.5398 6.11996 10.1598 6.11996 9.89979 6.09996C9.78979 6.08996 9.66979 6.06996 9.52979 6.01996V2.42996ZM10.6898 5.04996C10.7498 5.04996 10.8198 5.04996 10.8998 5.04996C11.8898 5.04996 11.8898 3.37996 10.8998 3.37996C10.8198 3.37996 10.7498 3.37996 10.6898 3.37996V5.03996V5.04996Z" fill="black"/>
<path fill-rule="evenodd" clip-rule="evenodd" d="M18.6698 4.75001C18.7998 4.80001 18.9898 4.89001 18.8998 5.07001C18.8198 5.23001 18.6398 5.18001 18.4598 5.14001C18.2698 5.10001 17.8698 4.87001 17.5798 4.73001C17.4298 4.87001 17.3398 5.01001 17.2498 5.15001C17.1698 5.29001 17.0898 5.44001 17.0498 5.64001C17.5798 5.94001 18.0298 6.18001 18.5898 6.18001C18.9898 6.18001 19.3398 6.11001 19.6098 5.93001C19.5698 5.84001 19.5398 5.73001 19.5398 5.63001C19.5398 5.61001 19.5398 5.60001 19.5398 5.58001C19.5198 5.18001 19.7598 4.84001 20.1098 4.69001C20.0398 4.33001 19.8198 4.11001 19.5498 3.96001C19.4098 3.88001 18.9698 3.73001 18.6398 3.60001C18.5298 3.55001 18.4098 3.43001 18.4798 3.30001C18.5298 3.20001 18.6798 3.19001 18.7898 3.20001C19.0098 3.24001 19.2698 3.38001 19.4598 3.50001C19.6098 3.36001 19.6798 3.26001 19.7598 3.12001C19.8398 2.98001 19.9198 2.83001 19.9598 2.63001C19.4998 2.36001 19.2098 2.26001 18.6698 2.26001C18.0098 2.26001 17.5498 2.54001 17.3898 2.93001C17.2398 3.29001 17.2598 3.57001 17.3398 3.80001C17.5398 4.37001 18.1498 4.53001 18.6598 4.74001L18.6698 4.75001Z" fill="black"/>
<path fill-rule="evenodd" clip-rule="evenodd" d="M21.0999 5.52C21.1099 5.87 20.8399 6.16 20.4899 6.18C20.1399 6.19 19.8499 5.92 19.8299 5.57C19.8199 5.22 20.0899 4.93 20.4399 4.91C20.7899 4.9 21.0799 5.17 21.0999 5.52ZM20.3899 4.43C20.3899 4.43 20.4199 1.61 20.6799 0.219998C21.1099 -0.160002 21.8099 -0.0400023 22.0999 0.469998C21.8799 1.86 20.9799 4.5 20.9399 4.53C20.9199 4.54 20.7899 4.53 20.6499 4.51C20.5199 4.49 20.3999 4.46 20.3899 4.44V4.43Z" fill="black"/>
<path fill-rule="evenodd" clip-rule="evenodd" d="M25.8497 0.630005C26.1997 0.630005 26.4797 0.910005 26.4797 1.26C26.4797 1.61 26.1997 1.89 25.8497 1.89C25.4997 1.89 25.2197 1.61 25.2197 1.26C25.2197 0.910005 25.4997 0.630005 25.8497 0.630005Z" fill="black"/>
<path fill-rule="evenodd" clip-rule="evenodd" d="M22.3198 0.810059V3.60006L23.3598 2.70006C23.6298 2.45006 23.7798 2.33006 24.1598 2.33006C24.4398 2.33006 24.7698 2.51006 24.8998 2.74006C24.4898 3.18006 23.8298 3.68006 23.3698 4.08006C23.9898 4.66006 24.6198 5.42006 25.0998 6.14006H23.6698C23.2398 5.54006 22.8198 5.14006 22.3298 4.63006V6.14006H21.1798C21.3198 5.97006 21.3998 5.75006 21.3898 5.51006C21.3798 5.22006 21.2298 4.96006 21.0098 4.80006C21.0498 4.79006 21.0798 4.77006 21.1198 4.75006C21.2198 4.68006 21.2598 4.52006 21.2998 4.41006C21.3598 4.23006 21.4198 4.05006 21.4798 3.86006C21.6598 3.31006 21.8298 2.76006 21.9798 2.21006C22.1098 1.75006 22.2298 1.28006 22.3298 0.810059H22.3198Z" fill="black"/>
<path fill-rule="evenodd" clip-rule="evenodd" d="M26.4295 6.13996V2.41996C26.2095 2.33996 26.0295 2.32996 25.8495 2.32996C25.6695 2.32996 25.4895 2.33996 25.2695 2.41996V6.13996H26.4295Z" fill="black"/>
<path fill-rule="evenodd" clip-rule="evenodd" d="M26.9897 2.42996C27.1197 2.38996 27.2297 2.35996 27.3597 2.34996C27.6297 2.31996 27.9597 2.33996 28.2397 2.32996C29.4797 2.33996 30.2897 2.93996 30.2897 4.21996C30.2897 5.49996 29.4897 6.09996 28.2397 6.11996C27.9997 6.11996 27.6197 6.11996 27.3597 6.09996C27.2497 6.08996 27.1297 6.06996 26.9897 6.01996V2.42996ZM28.1497 5.04996C28.2097 5.04996 28.2797 5.04996 28.3597 5.04996C29.3497 5.04996 29.3497 3.37996 28.3597 3.37996C28.2797 3.37996 28.2097 3.37996 28.1497 3.37996V5.03996V5.04996Z" fill="black"/>
<path fill-rule="evenodd" clip-rule="evenodd" d="M31.8798 4.75002C32.0098 4.80002 32.1998 4.89002 32.1098 5.07002C32.0298 5.23002 31.8498 5.18002 31.6698 5.14002C31.4798 5.10002 31.0798 4.87002 30.7898 4.73002C30.6398 4.87002 30.5498 5.01002 30.4598 5.15002C30.3798 5.29002 30.2998 5.44002 30.2598 5.64002C30.7898 5.94002 31.2398 6.18002 31.7998 6.18002C32.6298 6.18002 33.2798 5.85002 33.3298 4.99002C33.3598 4.45002 33.0898 4.16002 32.7498 3.97002C32.6098 3.89002 32.1698 3.74002 31.8398 3.61002C31.7298 3.56002 31.6098 3.44002 31.6798 3.31002C31.7298 3.21002 31.8798 3.20002 31.9898 3.21002C32.2098 3.25002 32.4698 3.39002 32.6598 3.51002C32.8098 3.37002 32.8798 3.27002 32.9598 3.13002C33.0398 2.99002 33.1198 2.84002 33.1598 2.64002C32.6998 2.37002 32.4098 2.27002 31.8698 2.27002C31.2098 2.27002 30.7498 2.55002 30.5898 2.94002C30.4398 3.30002 30.4598 3.58002 30.5398 3.81002C30.7398 4.38002 31.3498 4.54002 31.8598 4.75002H31.8798Z" fill="black"/>
<path fill-rule="evenodd" clip-rule="evenodd" d="M7.93002 6.12006H9.13002C9.19002 5.92006 9.20002 5.76006 9.20002 5.59006C9.20002 5.42006 9.19002 5.26006 9.13002 5.06006H7.93002C7.93002 4.17006 7.93002 3.29006 7.93002 2.40006C7.71002 2.32006 7.53002 2.31006 7.35002 2.31006C7.24002 2.31006 7.12002 2.31006 7.00002 2.34006C7.09002 2.68006 7.13002 3.04006 7.14002 3.43006C7.14002 4.07006 7.01002 4.65006 6.77002 5.15006V5.99006V6.12006H7.93002Z" fill="black"/>
<path fill-rule="evenodd" clip-rule="evenodd" d="M3.41 0C1.15 0 0 1.62 0 3.28C0 5.44 1.35 6.76 3.44 6.76C5.53 6.76 6.88 5.46 6.86 3.43C6.83 1.31 5.46 0 3.41 0ZM3.43 5.12C2.43 5.12 1.78 4.44 1.78 3.33C1.78 2.47 2.33 1.64 3.42 1.64C4.38 1.64 5.03 2.28 5.07 3.33C5.11 4.4 4.43 5.12 3.43 5.12Z" fill="black"/>
</g>
<defs>
<clipPath id="clip0_3790_6992">
<rect width="33.35" height="6.76" fill="white"/>
</clipPath>
</defs>
</svg>
