<svg width="32" height="5" viewBox="0 0 32 5" fill="none" xmlns="http://www.w3.org/2000/svg">
<g clip-path="url(#clip0_3790_6876)">
<path d="M4.04 2.13C4.04 3.51 3.21 4.34 1.97 4.34C0.73 4.34 0 3.41 0 2.2C0 0.99 0.81 0 2.05 0C3.29 0 4.05 0.97 4.05 2.13H4.04ZM1 2.18C1 3.01 1.39 3.59 2.02 3.59C2.65 3.59 3.03 2.98 3.03 2.16C3.03 1.4 2.67 0.75 2.02 0.75C1.37 0.75 1 1.36 1 2.18Z" fill="black"/>
<path d="M4.66991 4.27996V0.0799561H5.77991L6.64991 1.61996C6.89991 2.05996 7.13991 2.58996 7.33991 3.05996H7.34991C7.28991 2.50996 7.27991 1.93996 7.27991 1.29996V0.0799561H8.14991V4.27996H7.14991L6.24991 2.65996C5.99991 2.20996 5.71991 1.66996 5.51991 1.16996H5.48991C5.51991 1.72996 5.52991 2.32996 5.52991 3.00996V4.27996H4.65991H4.66991Z" fill="black"/>
<path d="M11.47 2.49996H9.91997V3.49996H11.65V4.27996H8.96997V0.0799561H11.56V0.859956H9.91997V1.72996H11.47V2.49996Z" fill="black"/>
<path d="M13.5899 3.30001C13.8399 3.43001 14.2399 3.56001 14.6499 3.56001C15.0899 3.56001 15.3199 3.38001 15.3199 3.10001C15.3199 2.82001 15.1199 2.69001 14.6099 2.51001C13.9099 2.26001 13.4499 1.87001 13.4499 1.26001C13.4499 0.56001 14.0599 0.0100098 15.0399 0.0100098C15.5199 0.0100098 15.8599 0.10001 16.1099 0.22001L15.8999 0.98001C15.7399 0.90001 15.4299 0.78001 15.0299 0.78001C14.6299 0.78001 14.4199 0.97001 14.4199 1.19001C14.4199 1.46001 14.6499 1.58001 15.1999 1.78001C15.9399 2.05001 16.2899 2.44001 16.2899 3.03001C16.2899 3.74001 15.7499 4.33001 14.5999 4.33001C14.1199 4.33001 13.6499 4.20001 13.4099 4.07001L13.5999 3.29001L13.5899 3.30001Z" fill="black"/>
<path d="M17.7501 0.869956H16.6101V0.0799561H19.8401V0.869956H18.6901V4.27996H17.7401V0.869956H17.7501Z" fill="black"/>
<path d="M24.02 2.12999C24.02 3.50999 23.19 4.33999 21.95 4.33999C20.71 4.33999 19.97 3.39999 19.97 2.18999C19.97 0.97999 20.78 -0.0100098 22.02 -0.0100098C23.26 -0.0100098 24.02 0.95999 24.02 2.11999V2.12999ZM20.98 2.17999C20.98 3.00999 21.37 3.58999 22 3.58999C22.63 3.58999 23.01 2.97999 23.01 2.15999C23.01 1.39999 22.65 0.74999 22 0.74999C21.35 0.74999 20.98 1.35999 20.98 2.17999Z" fill="black"/>
<path d="M24.6399 0.130039C24.9499 0.0800391 25.3899 0.0400391 25.9099 0.0400391C26.5299 0.0400391 26.9699 0.130039 27.2699 0.370039C27.5299 0.570039 27.6599 0.870039 27.6599 1.26004C27.6599 1.79004 27.2799 2.16004 26.9199 2.29004V2.31004C27.2099 2.43004 27.3799 2.70004 27.4799 3.09004C27.6099 3.57004 27.7399 4.12004 27.8199 4.28004H26.8499C26.7899 4.16004 26.6799 3.82004 26.5599 3.30004C26.4399 2.77004 26.2599 2.63004 25.8699 2.63004H25.5899V4.28004H24.6499V0.130039H24.6399ZM25.5799 1.94004H25.9499C26.4199 1.94004 26.7099 1.70004 26.7099 1.33004C26.7099 0.960039 26.4499 0.750039 26.0099 0.750039C25.7799 0.750039 25.6499 0.760039 25.5799 0.780039V1.94004Z" fill="black"/>
<path d="M30.8401 2.49996H29.2901V3.49996H31.0201V4.27996H28.3401V0.0799561H30.9301V0.859956H29.2901V1.72996H30.8401V2.49996Z" fill="black"/>
</g>
<defs>
<clipPath id="clip0_3790_6876">
<rect width="31.02" height="4.35" fill="white"/>
</clipPath>
</defs>
</svg>
