<svg width="59" height="38" viewBox="0 0 59 38" fill="none" xmlns="http://www.w3.org/2000/svg">
<g clip-path="url(#clip0_3790_6859)">
<path fill-rule="evenodd" clip-rule="evenodd" d="M38.9202 23.0914C39.0912 23.0057 39.2194 22.845 39.2194 22.6201C39.2194 22.3416 39.0591 22.1596 38.8561 22.0739C38.7706 22.0418 38.6744 22.0203 38.5889 22.0203C38.5034 22.0203 38.4179 22.0418 38.3431 22.0846C38.1828 22.1703 38.076 22.3631 38.108 22.6629C38.1294 22.9093 38.2683 23.0485 38.4286 23.1128C38.5034 23.1449 38.5889 23.1556 38.6744 23.1449C38.7599 23.1449 38.8454 23.1128 38.9202 23.0806M39.7538 30.2565C40.085 30.1173 40.3522 29.8067 40.3522 29.3783C40.3522 28.9927 40.1385 28.7357 39.8606 28.6286C39.7431 28.5857 39.6255 28.5643 39.508 28.5643C39.3904 28.5643 39.2622 28.5857 39.1446 28.6393C38.8561 28.7571 38.621 29.0463 38.621 29.5068C38.621 29.9352 38.8027 30.1815 39.0484 30.2886C39.1553 30.3315 39.2729 30.3529 39.3904 30.3529C39.508 30.3529 39.6362 30.3208 39.7538 30.2672V30.2565ZM36.302 22.0096L36.2593 21.6026V21.5277L36.3234 21.4955C37.36 21.0136 38.2042 20.7994 38.8668 20.7886C39.369 20.7779 39.7751 20.8743 40.085 21.0457C40.4056 21.2171 40.63 21.4634 40.7583 21.7526C40.8545 21.9561 40.9079 22.1917 40.9079 22.4166C40.9079 22.5558 40.9079 22.7058 40.8758 22.8557C40.801 23.252 40.6194 23.6269 40.3095 23.9053C39.9995 24.1838 39.5614 24.3766 38.995 24.3873C38.824 24.3873 38.653 24.3873 38.4607 24.3552C38.5034 24.9014 38.5141 25.3084 38.5355 25.7047C38.5462 26.0045 38.5569 26.3044 38.5782 26.6686C40.0316 26.1224 41.1216 26.3901 41.8269 27.0327C42.4147 27.579 42.7139 28.3929 42.6925 29.2176C42.6712 30.0423 42.3399 30.867 41.6666 31.4561C40.7155 32.2808 39.1019 32.6021 36.7402 31.681L36.6654 31.6489V31.5632C36.8577 28.0074 36.6119 25.4369 36.2913 22.0203L36.302 22.0096Z" fill="black"/>
<path fill-rule="evenodd" clip-rule="evenodd" d="M13.0482 26.797V26.5507V26.4329H13.1658C13.2726 26.4329 15.8801 25.9402 15.8908 25.9402L16.0511 25.9081L16.0297 26.0687C16.0297 26.0687 15.8481 27.3754 15.7626 28.0501C15.9763 27.8038 16.2969 27.5146 16.6602 27.2362C17.1091 26.8934 17.622 26.5721 18.0815 26.3472C18.3166 26.2294 18.5411 26.1758 18.7227 26.1544C18.9471 26.1223 19.1395 26.1544 19.225 26.2508C19.3425 26.3579 19.6418 26.8827 19.7593 27.0969L19.8021 27.1719L19.8662 27.2897L19.7379 27.3325C17.6648 28.0501 16.6709 28.6713 16.3076 29.0248C16.2435 29.089 16.2007 29.1319 16.1794 29.1747C16.2648 29.1533 16.3931 29.0997 16.5534 29.0462C16.8953 28.9177 17.3762 28.7356 17.793 28.6606C18.306 28.5642 18.7334 28.6285 18.8082 29.0676C18.8937 29.571 19.0647 30.0422 19.2677 30.4814C19.5456 31.049 19.8769 31.531 20.1654 31.8737L20.2509 31.9701L20.144 32.0451C19.8662 32.2271 19.5135 32.4092 19.1716 32.5806C18.6479 32.8376 18.1457 33.0518 17.964 33.1161L17.8892 33.1375L17.8358 33.084C16.9915 32.1843 16.7671 31.6059 16.6175 31.0383C16.532 30.7277 16.4786 30.5028 16.3503 30.4064C16.2969 30.3635 16.2221 30.3528 16.1473 30.3743C16.0618 30.3957 15.9656 30.4278 15.8481 30.4921C15.8481 30.792 15.8801 30.8455 15.8801 31.1026C15.9015 31.7238 15.9122 32.27 15.8801 32.9126V33.0304L15.7519 33.0197C15.271 32.9661 14.6405 32.8912 14.0955 32.8269C13.6894 32.7841 13.3154 32.7412 13.0482 32.7198H12.9307V32.5913C13.123 30.4599 13.0803 28.8427 13.0375 26.797" fill="black"/>
<path fill-rule="evenodd" clip-rule="evenodd" d="M9.97055 29.6353C10.0454 29.3033 9.95986 28.9498 9.64995 28.7035C9.30798 28.425 8.94465 28.4465 8.65611 28.6285C8.52787 28.7035 8.41032 28.8213 8.31414 28.9498C8.21796 29.0784 8.15385 29.2283 8.12179 29.3783C8.04698 29.7103 8.14316 30.0637 8.49581 30.2993C8.85915 30.535 9.21181 30.5135 9.47897 30.3529C9.60721 30.2779 9.71407 30.1708 9.79956 30.053C9.88505 29.9352 9.94917 29.7852 9.98123 29.646M9.77819 26.5293C10.5369 26.7757 11.1995 27.3754 11.5735 28.4465C12.0972 29.978 11.6911 31.1669 10.8896 31.9273C10.5583 32.2379 10.1629 32.4735 9.72476 32.6342C9.2973 32.7841 8.83778 32.8591 8.37826 32.8484C7.2455 32.8055 6.15548 32.2058 5.6639 30.942C5.59978 30.7599 5.54635 30.5885 5.5036 30.4172C5.47154 30.2351 5.45017 30.0637 5.43948 29.8924C5.40742 28.7785 5.99518 27.7931 6.82872 27.1612C7.25618 26.8399 7.74776 26.6043 8.25002 26.4865C8.76297 26.3687 9.28661 26.3794 9.7675 26.5293H9.77819Z" fill="black"/>
<path fill-rule="evenodd" clip-rule="evenodd" d="M33.4594 30.7063C33.78 30.3743 33.812 29.978 33.6838 29.6674C33.6304 29.5389 33.5449 29.4318 33.4487 29.3354C33.3525 29.239 33.235 29.1748 33.1067 29.1319C32.7968 29.0248 32.4335 29.0891 32.1129 29.4425C31.7923 29.796 31.7602 30.1708 31.8778 30.46C31.9312 30.5778 32.006 30.6849 32.1022 30.7813C32.1984 30.867 32.3159 30.942 32.4442 30.9848C32.7541 31.0919 33.1388 31.0384 33.4594 30.7063ZM32.1877 32.8163C31.4183 32.8055 30.8091 32.5913 30.3496 32.2379C29.9756 31.9487 29.6977 31.5846 29.5161 31.1669C29.3344 30.7492 29.2596 30.2886 29.2703 29.8281C29.281 29.0677 29.5374 28.2965 29.997 27.6753C30.6061 26.8721 31.258 26.4329 31.8992 26.2723C32.3159 26.1652 32.722 26.1759 33.1067 26.2723C33.4914 26.3687 33.8548 26.5508 34.1754 26.7971C34.8593 27.3112 35.3936 28.1252 35.6074 28.9927C35.6822 29.3033 35.7249 29.6139 35.7142 29.9352C35.7142 30.535 35.5326 31.124 35.1692 31.6167C34.8059 32.1094 34.2609 32.4949 33.4808 32.6984C33.096 32.7948 32.6579 32.8484 32.1663 32.8377L32.1877 32.8163Z" fill="black"/>
<path fill-rule="evenodd" clip-rule="evenodd" d="M25.466 30.3636C25.7118 30.2458 25.8934 29.9994 25.8934 29.6353C25.8934 29.1855 25.6797 28.907 25.4019 28.7892C25.2843 28.7356 25.1561 28.7142 25.0171 28.7142C24.8889 28.7142 24.7607 28.757 24.6538 28.8213C24.3973 28.9605 24.2157 29.2604 24.2584 29.7103C24.2905 30.0744 24.5042 30.2993 24.7607 30.3957C24.8782 30.4386 24.9958 30.46 25.124 30.4493C25.2522 30.4493 25.3698 30.4171 25.4767 30.3636M21.2555 33.5231C21.2341 30.6099 21.2128 28.2215 21.2769 26.7971V26.69H23.6279V26.8078L23.5958 27.4076C24.2584 26.8828 24.9423 26.6578 25.5728 26.6578C25.9682 26.6578 26.3423 26.7435 26.6842 26.9042C27.0262 27.0648 27.3254 27.2897 27.5819 27.5682C28.0521 28.093 28.3406 28.8106 28.3406 29.5924C28.3406 30.5885 28.0521 31.3596 27.5926 31.9059C27.3254 32.2272 26.9941 32.4735 26.6201 32.6342C26.2568 32.7948 25.8614 32.8805 25.4446 32.8805C24.7607 32.8805 24.0447 32.6556 23.4249 32.195C23.4569 33.8444 23.4997 34.9797 23.5317 35.858C23.5638 36.5648 23.5852 37.1111 23.5852 37.6359V37.743L23.489 37.7537L21.3944 38H21.2662V37.8822C21.2662 36.3506 21.2555 34.8833 21.2341 33.5338L21.2555 33.5231Z" fill="black"/>
<path fill-rule="evenodd" clip-rule="evenodd" d="M43.5688 32.6127L44.0069 26.6899L44.0176 26.5614L44.1352 26.5828L45.7595 26.8506L45.8664 26.872L45.8557 26.9791L45.7061 29.3782L47.8754 26.8934L47.9182 26.8506H47.9823L48.9975 27.0112L49.0937 27.0219V27.1183L49.2647 32.5806V32.677L49.1792 32.6984L47.3304 33.1589L47.1808 33.2018V33.0518V30.5563L44.9153 32.8912L44.8725 32.934L44.8191 32.9233L43.665 32.7305L43.5581 32.7198L43.5688 32.6127Z" fill="black"/>
<path fill-rule="evenodd" clip-rule="evenodd" d="M51.092 32.7841L50.5149 26.8935V26.7864L50.6111 26.7756L52.2568 26.5614H52.3743V26.6685L52.6201 30.8562L53.3896 30.7277L53.3147 26.4865V26.3687H53.4323H55.0566C55.2276 26.3687 55.078 29.9673 55.0566 30.6528L55.8047 30.7063L56.339 26.5721V26.4543L56.4779 26.4758L58.2626 26.8185L58.3801 26.8399L58.3481 26.9577C58.3481 26.9577 57.3756 30.9205 57.4397 30.9419C57.4718 30.9419 57.5252 30.9634 57.5786 30.9741C57.8672 31.049 58.4443 31.1883 58.9038 31.4132L58.9893 31.456L58.9572 31.5524L57.6962 35.1939L57.6641 35.2903L57.568 35.2689C57.4077 35.2367 57.2581 35.1832 57.1191 35.1404C56.8306 35.0547 56.5527 34.9583 56.2215 34.9476H56.0825L56.1146 34.8083C56.1894 34.4549 56.2856 34.0907 56.3818 33.7266C56.4673 33.3946 56.5527 33.0733 56.6169 32.7734C55.7085 32.6449 54.7574 32.6127 53.8491 32.6556C52.898 32.6877 51.9896 32.7948 51.2202 32.9019L51.1026 32.9233V32.8055L51.092 32.7841Z" fill="black"/>
<path fill-rule="evenodd" clip-rule="evenodd" d="M6.4012 36.4791C6.4012 36.4791 5.53559 37.4216 5.31118 37.7001L5.24706 37.7751L5.16156 37.7215C3.38761 36.6933 2.04112 35.2796 1.16483 33.673C0.416772 32.3021 0 30.7706 0 29.2497C0 27.7288 0.374026 26.1973 1.17551 24.8157C2.01974 23.3591 3.34487 22.0417 5.17225 21.0456L5.24706 21.0028L5.31118 21.0671L6.45463 22.2773L6.52943 22.3523L6.45463 22.4273C6.36914 22.5237 6.29433 22.6093 6.21953 22.695C4.63793 24.5479 3.64409 27.022 3.53722 29.4746C3.43036 31.9166 4.21047 34.3478 6.16609 36.1257C6.2409 36.19 6.3157 36.2542 6.37982 36.3078L6.476 36.3827L6.39051 36.4684L6.4012 36.4791Z" fill="black"/>
<path fill-rule="evenodd" clip-rule="evenodd" d="M34.0151 13.2486C34.3464 13.0879 34.6029 12.7452 34.6029 12.2525C34.6029 11.642 34.3037 11.2565 33.919 11.0851C33.7587 11.0101 33.577 10.978 33.3953 10.9887C33.2137 10.9887 33.0427 11.0423 32.8931 11.1279C32.5404 11.3207 32.2946 11.7277 32.3481 12.3382C32.3908 12.8309 32.6793 13.1522 33.032 13.2807C33.1923 13.345 33.3633 13.3664 33.5343 13.3557C33.7052 13.3557 33.8655 13.3021 34.0151 13.2379M28.7788 13.9447C28.9391 11.6099 29.0459 9.79987 29.1101 8.37541V8.22546H32.2519V8.38612L32.2091 9.2001C32.7755 8.75027 33.3526 8.4718 33.919 8.34328C34.6456 8.17191 35.351 8.24688 35.9921 8.49322C36.9753 8.87879 37.702 9.55354 38.1401 10.3568C38.4287 10.8923 38.5996 11.4707 38.6424 12.0704C38.6851 12.6595 38.5996 13.2593 38.3752 13.8269C38.0546 14.6516 37.4455 15.3906 36.5371 15.894C35.7998 16.301 34.9556 16.4509 34.1006 16.3438C33.374 16.2474 32.6473 15.9583 31.974 15.4656C31.8672 16.8579 31.7924 17.9611 31.7282 18.9786C31.6321 20.3923 31.5573 21.624 31.4076 23.177L31.3863 23.3483L31.2153 23.3162L28.2551 22.7914L28.1162 22.77V22.6308C28.4154 19.1285 28.6292 16.2796 28.7895 13.9662L28.7788 13.9447Z" fill="black"/>
<path fill-rule="evenodd" clip-rule="evenodd" d="M55.3453 12.2847C55.185 11.8991 54.7896 11.6099 54.1377 11.6099C53.5713 11.6099 53.1866 11.9741 53.0156 12.4239C52.9515 12.5953 52.9194 12.7773 52.9088 12.9594C52.9088 13.1415 52.9301 13.3236 52.9942 13.4842C53.1439 13.8698 53.4751 14.159 54.0201 14.159C54.672 14.159 55.1208 13.7841 55.3132 13.3236C55.388 13.1522 55.4308 12.9701 55.4308 12.788C55.4308 12.606 55.3987 12.4346 55.3346 12.2739M54.3087 2.89176C54.1698 2.60258 53.8598 2.37767 53.4003 2.37767C53.1011 2.37767 52.8981 2.59187 52.8019 2.87034C52.7591 2.97744 52.7378 3.09526 52.7378 3.21307C52.7378 3.33088 52.7591 3.43798 52.7912 3.54509C52.8767 3.79142 53.0904 3.9735 53.4431 3.9735C53.9133 3.9735 54.2018 3.78071 54.3194 3.53438C54.3621 3.43798 54.3835 3.33088 54.3835 3.21307C54.3835 3.10597 54.3514 2.98815 54.3087 2.88105V2.89176ZM50.002 15.4335C50.0662 11.8991 50.1623 5.50506 49.97 0.728288V0.621185L50.0661 0.578344C52.4706 -0.407 54.2232 -0.0321404 55.2705 0.856811C55.901 1.39232 56.275 2.10991 56.3819 2.84892C56.4887 3.58793 56.3284 4.34836 55.901 4.93742C55.3025 5.7514 54.1911 6.25478 52.5454 6.00845L52.6095 9.37147C54.5438 8.4611 56.0078 8.63246 56.9696 9.35005C57.878 10.0248 58.3375 11.2029 58.3161 12.4346C58.3054 13.6556 57.8138 14.9515 56.8521 15.8726C55.5269 17.1471 53.2828 17.7469 50.0875 16.5366L49.9807 16.4938V16.3867L50.002 15.4228V15.4335Z" fill="black"/>
<path fill-rule="evenodd" clip-rule="evenodd" d="M5.70656 10.6889C5.28979 10.6889 4.93713 10.8067 4.70203 11.0209C4.47762 11.2244 4.34938 11.5243 4.34938 11.9098C4.34938 12.2954 4.50967 12.6596 4.77684 12.9166C5.044 13.1736 5.40734 13.3343 5.81342 13.3343C6.21951 13.3343 6.48667 13.2272 6.66834 13.0344C6.8607 12.8202 6.95688 12.4989 6.95688 12.0919C6.95688 11.6849 6.83932 11.3101 6.60422 11.0637C6.39049 10.8281 6.09127 10.6889 5.70656 10.6889ZM5.89892 7.37939C7.17061 7.37939 8.13239 7.87207 8.78426 8.67534C9.50026 9.55358 9.84222 10.796 9.84222 12.1883C9.84222 13.5806 9.37202 14.7909 8.57053 15.6798C7.79042 16.5367 6.68971 17.0722 5.38596 17.0722C4.08222 17.0722 2.74641 16.5152 1.79531 15.6049C0.876274 14.7266 0.277832 13.5271 0.277832 12.199C0.277832 10.8709 0.961766 9.74636 1.96629 8.88954C3.05631 7.95775 4.52036 7.39011 5.88823 7.39011L5.89892 7.37939Z" fill="black"/>
<path fill-rule="evenodd" clip-rule="evenodd" d="M44.4665 12.7345C44.8191 12.3918 45.0222 12.0812 45.0649 11.7813C45.1077 11.4921 44.9794 11.1922 44.6588 10.8602C44.2741 10.4639 43.7718 10.4104 43.3337 10.5496C43.1413 10.6139 42.9597 10.721 42.7994 10.8495C42.6498 10.978 42.5215 11.1494 42.436 11.3207C42.2544 11.7063 42.2757 12.1883 42.6498 12.6595C42.6711 12.6917 42.7032 12.7238 42.7353 12.7559C42.9169 12.9487 43.1734 13.0879 43.4513 13.1201C43.7291 13.1522 44.039 13.0772 44.3382 12.8416C44.381 12.8095 44.4237 12.7666 44.4665 12.7238M40.1171 10.646C40.459 9.53212 41.1323 8.78241 42.0086 8.36471C42.949 7.91488 44.1245 7.85061 45.3321 8.12908C45.4496 8.1505 45.5565 8.18263 45.674 8.21476C46.6893 8.52536 47.5014 9.12513 47.993 9.91769C48.4953 10.7103 48.6769 11.6849 48.4311 12.7345C48.4098 12.8309 48.3777 12.9273 48.3457 13.0344C47.9823 14.2125 47.1595 15.2407 46.1229 15.894C45.1183 16.5259 43.9215 16.8151 42.778 16.5473C42.7139 16.5366 42.6391 16.5152 42.5643 16.4938C41.517 16.1725 40.7476 15.3371 40.3201 14.3089C39.8927 13.2914 39.7751 12.0705 40.0316 10.978C40.053 10.8709 40.085 10.7638 40.1171 10.6567V10.646Z" fill="black"/>
<path fill-rule="evenodd" clip-rule="evenodd" d="M22.0997 16.8579C21.918 16.8579 21.7577 16.8686 21.6508 16.8686C21.6722 16.89 21.8432 16.8686 22.0997 16.8579ZM18.7334 8.75024L27.6032 9.09297H27.7635L27.7528 9.26434C27.6994 9.91766 27.6032 10.4746 27.507 10.9887C27.4536 11.2779 27.4002 11.5456 27.3681 11.8241L27.336 12.0276L27.1544 11.9526C26.9299 11.8562 25.6048 11.5563 24.782 11.3743L24.5041 11.31C24.4293 13.0558 24.5789 16.6865 24.5789 16.6973V16.8472L24.44 16.8579C24.44 16.8579 21.3302 17.1042 21.3409 16.8579C21.4157 15.487 21.4798 14.2018 21.5226 13.1736C21.5547 12.3489 21.576 11.6956 21.576 11.31C21.2554 11.3743 20.7318 11.4707 20.2082 11.567C19.6204 11.6741 19.0326 11.7812 18.7441 11.8455L18.5518 11.8884V11.6956L18.5624 8.9109V8.75024H18.7227H18.7334Z" fill="black"/>
<path fill-rule="evenodd" clip-rule="evenodd" d="M19.4174 0.631883C19.7059 1.03887 20.8921 2.37766 20.8921 2.38837L20.9883 2.49547L20.8921 2.60257C17.964 5.90133 16.5855 9.45714 16.4465 12.8523C16.2969 16.5795 17.6541 20.1353 20.0906 22.9414L20.1975 23.0592L20.0693 23.1556L18.3808 24.4943L18.2846 24.5693L18.1884 24.5051C16.1794 23.0699 14.6405 21.3455 13.5826 19.4819C12.2574 17.1578 11.659 14.6088 11.7872 12.0919C11.9048 9.58566 12.749 7.11159 14.2879 4.95883C15.4954 3.26661 17.1412 1.76717 19.2143 0.589042L19.3319 0.52478L19.4174 0.642593V0.631883Z" fill="black"/>
</g>
<defs>
<clipPath id="clip0_3790_6859">
<rect width="59" height="38" fill="white"/>
</clipPath>
</defs>
</svg>
