<svg width="6" height="32" viewBox="0 0 6 32" fill="none" xmlns="http://www.w3.org/2000/svg">
<g clip-path="url(#clip0_3790_6717)">
<path d="M2.02246 23.289H3.82134V23.6137H2.30179V24.4759H3.82134V24.7894H2.02246V23.289Z" fill="black"/>
<path d="M3.11743 22.5164V21.9902L2.40235 22.2701L3.11743 22.5164ZM2.02246 22.1022L3.82134 21.3744V21.7103L3.38559 21.8782V22.606L3.82134 22.7628V23.0987L2.02246 22.4269V22.1022Z" fill="black"/>
<path d="M2.79341 20.6354C2.79341 20.5458 2.77106 20.4899 2.72637 20.4339C2.68168 20.3891 2.62581 20.3667 2.53643 20.3667C2.36883 20.3667 2.29062 20.4675 2.29062 20.6578V20.8705H2.79341V20.6354ZM2.02246 20.557C2.02246 20.4003 2.06715 20.2771 2.16771 20.1875C2.26827 20.0868 2.39118 20.042 2.5476 20.042C2.70403 20.042 2.82693 20.0868 2.92749 20.1875C3.02805 20.2883 3.07274 20.4115 3.07274 20.5682V20.8705H3.83252V21.1841H2.02246V20.557Z" fill="black"/>
<path d="M2.02246 19.4822H3.28503L2.02246 18.4633V18.2953H3.82134V18.6088H2.60347L3.83252 19.6277V19.7845H2.02246V19.4822Z" fill="black"/>
<path d="M2.02246 17.6235H2.74872C2.74872 17.5339 2.73754 17.478 2.7152 17.4444C2.69285 17.4108 2.65933 17.3772 2.60347 17.3436C2.55877 17.31 2.49173 17.2764 2.40235 17.2428C2.29062 17.198 2.21241 17.1533 2.16771 17.1197C2.12302 17.0861 2.07833 17.0301 2.05598 16.9853C2.03363 16.9293 2.02246 16.8621 2.02246 16.7838C2.02246 16.7502 2.02246 16.7278 2.02246 16.7054H2.30179C2.30179 16.7726 2.30179 16.8174 2.32414 16.8509C2.33531 16.8845 2.35766 16.9069 2.39118 16.9293C2.4247 16.9517 2.48056 16.9741 2.55877 17.0077C2.72637 17.0749 2.82693 17.1533 2.87162 17.254C2.90514 17.1756 2.96101 17.1085 3.03922 17.0413C3.11743 16.9741 3.22916 16.9181 3.37442 16.8397L3.83252 16.6158V16.9629L3.40794 17.1644C3.30738 17.2092 3.22916 17.254 3.1733 17.2988C3.11743 17.3436 3.07274 17.3884 3.05039 17.4332C3.02805 17.478 3.01687 17.5451 3.01687 17.6123H3.83252V17.9258H2.02246V17.6123V17.6235Z" fill="black"/>
<path d="M2.02246 16.112L2.73754 15.5745L2.02246 15.0371V14.7572H3.82134V15.0707H2.55877V15.0819L3.19565 15.5521V15.5969L2.55877 16.0784H3.82134V16.4031H2.02246V16.112Z" fill="black"/>
<path d="M3.11743 13.9846V13.4584L2.40235 13.7383L3.11743 13.9846ZM2.02246 13.5703L3.82134 12.8425V13.1784L3.38559 13.3464V14.0742L3.82134 14.2309V14.5668L2.02246 13.895V13.5703Z" fill="black"/>
<path d="M1.99994 11.8684C1.99994 11.7789 2.01112 11.6893 2.03346 11.5997C2.05581 11.5101 2.1005 11.4094 2.15637 11.3086H2.48039C2.41335 11.4094 2.36866 11.4989 2.34631 11.5885C2.31279 11.6781 2.30162 11.7677 2.30162 11.8572C2.30162 11.9692 2.32397 12.0812 2.37983 12.1707C2.4357 12.2603 2.50274 12.3387 2.60329 12.3947C2.70385 12.4507 2.80441 12.4731 2.92732 12.4731C3.05022 12.4731 3.15078 12.4507 3.25134 12.3947C3.3519 12.3387 3.41894 12.2715 3.4748 12.1819C3.53067 12.0924 3.55302 11.9804 3.55302 11.8684C3.55302 11.7789 3.54184 11.6893 3.50832 11.6109C3.4748 11.5325 3.43011 11.4318 3.3519 11.2974H3.67592C3.73179 11.3982 3.77648 11.4989 3.81 11.5885C3.83235 11.6781 3.84352 11.7789 3.84352 11.902C3.84352 12.07 3.81 12.2267 3.73179 12.3611C3.65357 12.4954 3.54184 12.6074 3.40776 12.6858C3.26251 12.7642 3.10609 12.7978 2.93849 12.7978C2.75972 12.7978 2.59212 12.753 2.44687 12.6746C2.30162 12.5962 2.18989 12.4843 2.11167 12.3499C2.03346 12.2043 1.98877 12.0476 1.98877 11.8796L1.99994 11.8684Z" fill="black"/>
<path d="M2.02246 9.6291H2.29062V10.2113H3.82134V10.5248H2.29062V11.1071H2.02246V9.6291Z" fill="black"/>
<path d="M2.02246 8.3303H2.29062V9.06928H2.77106V8.36389H3.03922V9.06928H3.55319V8.30791H3.82134V9.38278H2.02246V8.3303Z" fill="black"/>
<path d="M2.79341 7.46816C2.79341 7.37859 2.77106 7.32261 2.72637 7.26662C2.68168 7.22184 2.62581 7.19944 2.53643 7.19944C2.36883 7.19944 2.29062 7.30021 2.29062 7.49056V7.70329H2.79341V7.46816ZM2.02246 7.38979C2.02246 7.23303 2.06715 7.10987 2.16771 7.0203C2.26827 6.91953 2.39118 6.87474 2.5476 6.87474C2.70403 6.87474 2.82693 6.91953 2.92749 7.0203C3.02805 7.12107 3.07274 7.24423 3.07274 7.40098V7.70329H3.83252V8.0168H2.02246V7.38979Z" fill="black"/>
<path d="M1.99994 5.75508C1.99994 5.66551 2.01112 5.57593 2.03346 5.48636C2.05581 5.39679 2.1005 5.29602 2.15637 5.19525H2.48039C2.41335 5.29602 2.36866 5.38559 2.34631 5.47516C2.31279 5.56474 2.30162 5.65431 2.30162 5.74388C2.30162 5.85585 2.32397 5.96782 2.37983 6.05739C2.4357 6.14696 2.50274 6.22534 2.60329 6.28132C2.70385 6.33731 2.80441 6.3597 2.92732 6.3597C3.05022 6.3597 3.15078 6.33731 3.25134 6.28132C3.3519 6.22534 3.41894 6.15816 3.4748 6.06859C3.53067 5.97901 3.55302 5.86705 3.55302 5.75508C3.55302 5.66551 3.54184 5.57593 3.50832 5.49756C3.4748 5.41918 3.43011 5.31841 3.3519 5.18405H3.67592C3.73179 5.28482 3.77648 5.38559 3.81 5.47516C3.83235 5.56474 3.84352 5.66551 3.84352 5.78867C3.84352 5.95662 3.81 6.11337 3.73179 6.24773C3.65357 6.38209 3.54184 6.49406 3.40776 6.57243C3.26251 6.65081 3.10609 6.6844 2.93849 6.6844C2.75972 6.6844 2.59212 6.63961 2.44687 6.56124C2.30162 6.48286 2.18989 6.3709 2.11167 6.23654C2.03346 6.09098 1.98877 5.93423 1.98877 5.76628L1.99994 5.75508Z" fill="black"/>
<path d="M2.02246 4.56823H2.74872C2.74872 4.47866 2.73754 4.42267 2.7152 4.38908C2.69285 4.35549 2.65933 4.3219 2.60347 4.28831C2.55877 4.25472 2.49173 4.22113 2.40235 4.18754C2.29062 4.14276 2.21241 4.09797 2.16771 4.06438C2.12302 4.03079 2.07833 3.97481 2.05598 3.93002C2.03363 3.87404 2.02246 3.80686 2.02246 3.72848C2.02246 3.69489 2.02246 3.6725 2.02246 3.6501H2.30179C2.30179 3.71728 2.30179 3.76207 2.32414 3.79566C2.33531 3.82925 2.35766 3.85164 2.39118 3.87404C2.4247 3.89643 2.48056 3.91882 2.55877 3.95241C2.72637 4.01959 2.82693 4.09797 2.87162 4.19874C2.90514 4.12036 2.96101 4.05318 3.03922 3.986C3.11743 3.91882 3.22916 3.86284 3.37442 3.78446L3.83252 3.56053V3.90763L3.40794 4.10917C3.30738 4.15395 3.22916 4.19874 3.1733 4.24353C3.11743 4.28831 3.07274 4.3331 3.05039 4.37789C3.02805 4.42267 3.01687 4.48985 3.01687 4.55703H3.83252V4.87054H2.02246V4.55703V4.56823Z" fill="black"/>
<path d="M2.02246 3.03429H3.28503L2.02246 2.01539V1.84744H3.82134V2.16095H2.60347L3.83252 3.17984V3.34779H2.02246V3.03429Z" fill="black"/>
<path d="M1.47504 0.974108C1.59795 0.940518 1.65381 0.873338 1.65381 0.750175C1.65381 0.638209 1.59795 0.559832 1.47504 0.526242V0.302309C1.59795 0.324703 1.6985 0.369489 1.77672 0.459062C1.85493 0.537439 1.88845 0.638209 1.88845 0.761372C1.88845 0.884535 1.84376 0.974108 1.76554 1.06368C1.68733 1.15325 1.58677 1.19804 1.46387 1.20924V0.985304L1.47504 0.974108ZM2.02253 1.18684H3.2851L2.02253 0.16795V0H3.82141V0.313506H2.60353L3.83258 1.3324V1.50035H2.02253V1.18684Z" fill="black"/>
<path d="M4.14502 25.8418L4.8601 25.3044L4.14502 24.7558V24.4647H5.96625V24.7894H4.69251V24.8006L5.32938 25.282V25.3268L4.69251 25.7971V25.8083H5.96625V26.133H4.14502V25.8418Z" fill="black"/>
<path d="M5.26234 23.6809V23.1435L4.53608 23.4234L5.26234 23.6809ZM4.14502 23.2666L5.96625 22.5388V22.8747L5.51932 23.0427V23.7817L5.96625 23.9384V24.2743L4.14502 23.5913V23.2666Z" fill="black"/>
<path d="M4.14502 21.296H4.43552V22.0126H5.96625V22.3373H4.14502V21.296Z" fill="black"/>
<path d="M5.26234 20.8593V20.3219L4.53608 20.6018L5.26234 20.8593ZM4.14502 20.4451L5.96625 19.7173V20.0532L5.51932 20.2211V20.9601L5.96625 21.1169V21.4528L4.14502 20.7698V20.4451Z" fill="black"/>
<path d="M4.12305 18.9895C4.12305 18.8216 4.16774 18.6872 4.25712 18.5864C4.34651 18.4857 4.45824 18.4409 4.61467 18.4409C4.70405 18.4409 4.79344 18.4633 4.86048 18.5192C4.93869 18.564 4.98338 18.6312 5.0169 18.7208C5.10629 18.5192 5.25154 18.4297 5.45266 18.4297C5.62025 18.4297 5.75433 18.4857 5.84372 18.5976C5.94428 18.7096 5.98897 18.8663 5.98897 19.0567C5.98897 19.2358 5.95545 19.4038 5.88841 19.5493H5.55321C5.6426 19.4038 5.68729 19.247 5.68729 19.0791C5.68729 18.9783 5.66495 18.8999 5.63143 18.8328C5.58673 18.7768 5.53087 18.7432 5.44148 18.7432C5.27388 18.7432 5.19567 18.8775 5.19567 19.1351V19.3254H4.91634V19.1015C4.91634 19.0007 4.894 18.9111 4.83813 18.8551C4.79344 18.788 4.7264 18.7656 4.64819 18.7656C4.50293 18.7656 4.42472 18.8775 4.42472 19.0903C4.42472 19.1575 4.42472 19.2358 4.45824 19.3142C4.48059 19.3926 4.50293 19.471 4.53645 19.5381H4.23478C4.15657 19.3702 4.12305 19.1798 4.12305 18.9895Z" fill="black"/>
<path d="M4.14502 17.8139H5.41876L4.14502 16.795V16.6158H5.96625V16.9405H4.7372L5.9886 17.9594V18.1274H4.14502V17.8139Z" fill="black"/>
<path d="M4.14502 15.9328H4.91597V15.0707H4.14502V14.7572H5.96625V15.0707H5.1953V15.9328H5.96625V16.2575H4.14502V15.9328Z" fill="black"/>
<path d="M5.94396 30.7572C5.8881 30.69 5.85458 30.6228 5.82106 30.5556L5.49704 30.2309L4.90486 29.5815L4.61435 29.3128L4.21212 28.8985L4.62553 29.2344L5.43 30.0406L5.80988 30.4213L5.94396 30.5444V30.4437L5.65346 30.063H5.67581L5.64229 29.9958H5.59759L5.21771 29.5367V29.4136L5.94396 30.1526V28.3499L5.46352 28.0252L5.35178 27.9468L5.01659 27.6893L2.25681 25.9202L2.20095 26.648V26.7376H2.14508C2.12273 26.7936 2.12273 26.8607 2.12273 26.9279V26.9503C2.12273 26.9503 2.12273 26.9503 2.12273 26.9615C2.12273 26.9615 2.12273 26.9727 2.12273 26.9839C2.12273 26.9839 2.12273 26.9839 2.12273 27.0063V27.0175L2.05569 27.0623C2.05569 27.0623 2.12273 27.1631 2.13391 27.1854L2.16743 27.2526L2.24564 27.387H2.18977L1.96631 26.9615V27.1071C1.96631 27.1071 2.03335 27.1966 2.05569 27.2638L2.10039 27.331L2.14508 27.443L2.23447 27.6893L2.65905 28.5514L3.16184 29.6375L3.21771 29.7607L3.36296 30.0966H3.3853C3.34061 30.007 3.32944 29.9398 3.31826 29.8614L3.19536 29.5927L2.98307 29.0665L2.86016 28.8426L2.70374 28.4955L2.88251 28.7978L3.19536 29.4696L3.34061 29.7831L3.49704 30.1078V30.1414L3.54173 30.1861L3.51938 30.119L3.45234 29.9846L3.30709 29.5479H3.31826V29.5032H3.29592L3.16184 29.1337L3.24005 29.0105L3.37413 29.2904L3.43 29.4136L3.57525 29.7495H3.59759C3.5529 29.6599 3.54173 29.5927 3.53055 29.5143L3.40765 29.2456L3.19536 28.7194L3.07245 28.4955L2.94955 28.2267L3.0948 28.4507L3.40765 29.1225L3.5529 29.436L3.70933 29.7607V29.7943L3.75402 29.8391L3.73167 29.7719L3.66463 29.6375L3.51938 29.2008H3.53055V29.1561H3.50821L3.37413 28.7866L3.46352 28.641L3.36296 28.4171L3.21771 28.1372V28.1148L3.47469 28.3611L3.49704 28.3947C3.49704 28.3947 3.51938 28.4283 3.54173 28.4283V28.4059L4.12273 28.9657L5.43 30.2645L5.58642 30.4213L5.92162 30.7684V30.7124L5.94396 30.7572Z" fill="black"/>
<path d="M1.11732 25.0133L1.00559 24.8118H0.77095L0.715084 24.8901H0.681564L0.368715 24.7334L0.402235 25.0133L0.357542 24.9013L0.212291 25.2148L0.0558659 24.9573C0.0558659 24.9573 0.145251 25.8083 0.145251 25.7971C0.134078 25.7523 0 25.4836 0 25.4836L0.0335196 25.7635C0.0335196 25.7635 0.0335196 26.6368 0.27933 27.1183C0.513967 27.5773 0.715084 27.8684 1.18436 28.0924C1.40782 28.2043 1.56425 28.3723 1.79888 28.2715C2.17877 28.1148 1.92179 27.6669 1.92179 27.6669L2.37989 28.0252L2.24581 27.7005L2.78212 27.9804L2.98324 28.0812L2.48045 27.6445L2.81564 27.8125L2.50279 27.443L2.68156 27.5213L2.17877 27.0063L2.44693 27.1519L2.27933 26.6032L2.22346 26.2673V26.2897L2.34637 26.3457L2.26816 26.2561L2.23464 26.2113V26.0546C2.23464 26.0546 2.46927 26.077 2.4581 26.0098C2.4581 26.0098 2.41341 25.5283 2.32402 25.338C2.21229 25.1029 1.84358 24.8789 1.84358 24.8789L1.82123 25.0021L1.7095 24.9461L1.02793 24.7334L1.09497 25.0357L1.11732 25.0133Z" fill="black"/>
<path d="M2.33513 26.0434L2.41335 25.9762V25.8866H2.35748L2.391 25.7299L2.27927 25.7859L2.32396 25.7523H2.17871L2.26809 25.6403L1.97759 25.45H1.9329L1.96642 25.282L1.85469 25.338L1.89938 25.3044H1.75413L1.84351 25.1924C1.84351 25.1924 1.49714 25.3492 1.50832 25.3492C1.53066 25.338 1.62005 25.2484 1.62005 25.2484L1.50832 25.3044C1.50832 25.3044 1.15078 25.4276 0.972005 25.5955C0.804407 25.7523 0.703848 25.8642 0.647982 26.0882C0.625636 26.1889 0.56977 26.2785 0.625636 26.3569C0.726195 26.4801 0.871446 26.3009 0.871446 26.3009H0.882619L0.826753 26.4017H0.8491L0.983178 26.3905V26.4129L0.882619 26.592L0.837927 26.704L0.871446 26.6368V26.7152L0.949659 26.592H0.994351L1.05022 26.5248L1.07256 26.5472C1.07256 26.5472 1.10608 26.5248 1.09491 26.5472C1.07256 26.648 1.0167 26.7264 1.07256 26.8048C1.17312 26.9279 1.32955 26.7712 1.32955 26.7712L1.27368 26.8607H1.29603L1.43011 26.8495V26.8719L1.32955 27.0399L1.28485 27.1519L1.31837 27.0847V27.1519L1.38541 27.0287H1.40776L1.38541 27.0511L1.43011 27.0287L1.4748 26.9503H1.48597L1.53066 26.8943H1.57536L1.78765 26.76L1.92173 26.6928L1.89938 26.7376L1.94407 26.7152L2.01111 26.6592L1.98876 26.76C1.98876 26.76 2.0558 26.7152 2.07815 26.704C2.07815 26.704 2.2234 26.6592 2.29044 26.592C2.37983 26.5136 2.43569 26.3457 2.43569 26.3457H2.37983L2.41335 26.3009H2.391H2.36865L2.34631 26.3233V26.2785H2.30161L2.32396 26.2225L2.34631 26.1777L2.29044 26.0994L2.33513 26.0434Z" fill="black"/>
<path d="M3.76543 28.5514C3.76543 28.5514 3.76543 28.5178 3.76543 28.4955C3.79895 28.4283 3.83247 28.3611 3.86598 28.2827C3.8995 28.3163 3.92185 28.3499 3.9442 28.3947C3.9442 28.3947 3.95537 28.4171 3.96654 28.4171C3.96654 28.4171 3.96654 28.4171 3.96654 28.4283C3.96654 28.4283 3.96654 28.4395 3.97772 28.4507C3.97772 28.4507 3.97772 28.4507 3.97772 28.4619C3.97772 28.4619 3.97772 28.4731 3.98889 28.4731H4.03358H4.12297V28.3835L4.17883 28.4731H4.24587C4.24587 28.4731 4.34643 28.5738 4.37995 28.641C4.37995 28.641 4.39112 28.6634 4.4023 28.6634C4.4023 28.6634 4.4023 28.6634 4.4023 28.6746C4.4023 28.6746 4.4023 28.6858 4.41347 28.697C4.41347 28.697 4.41347 28.697 4.41347 28.7082C4.41347 28.7082 4.41347 28.7194 4.42464 28.7194L4.51403 28.7418C4.51403 28.7978 4.51403 28.8425 4.51403 28.8761V28.9433V29.0889L4.5699 29.0665V28.6298L4.64811 28.7754C4.64811 28.8202 4.64811 28.8761 4.64811 28.9433V29.0105L4.67045 29.1225L4.72632 29.38L4.77101 30.2645L4.87157 31.373V31.5073L4.92744 31.8544H4.90509C4.90509 31.7761 4.88274 31.6977 4.83805 31.6305L4.81571 31.3618L4.73749 30.8244V30.5892L4.6928 30.2421V30.5556L4.73749 31.2386L4.75984 31.5633L4.78219 31.8992V31.9328V31.9888L4.75984 31.9216V31.7761L4.63693 31.3394L4.60341 31.3058H4.62576L4.55872 30.9251L4.4023 30.8244L4.42464 31.1155V31.2498L4.48051 31.5969H4.45816C4.45816 31.5185 4.43582 31.4402 4.39112 31.373L4.36878 31.1043L4.29057 30.5668V30.3317L4.25705 30.063L4.2347 30.2981L4.29057 30.9811L4.31291 31.3058L4.33526 31.6417V31.6753V31.7313L4.31291 31.6641V31.5185L4.19001 31.0819L4.15649 31.0483H4.17883L4.11179 30.6676L3.93302 30.5444L3.91068 30.3205V30.0294L3.8995 29.8838L3.87716 29.7943H3.76543L3.75425 29.8614H3.7766V30.0518V30.3093C3.7766 30.3093 3.76543 30.3429 3.74308 30.3541V30.2309L3.67604 30.0742V29.9846L3.63135 29.9622C3.67604 29.6375 3.68721 29.3016 3.66487 28.9657C3.69839 28.8202 3.70956 28.6746 3.73191 28.5178L3.76543 28.5514Z" fill="black"/>
<path d="M1.07267 13.0217L1.75424 12.4395L1.8548 12.3611V11.4094C1.70955 11.5101 1.56429 11.6109 1.40787 11.6893V11.7229L1.352 11.7565L1.27379 11.8684L1.19558 11.9244C1.19558 11.9244 1.21793 11.9244 1.2291 11.9244L1.3967 11.8013L1.5196 11.7117L1.58664 11.6669L1.63133 11.7341L1.58664 11.7901L1.49726 11.8572L1.31848 12.0028L1.17323 12.126V12.2827L0.972116 12.4955H0.94977L0.927423 12.529H0.938597L0.70396 12.7866L0.614574 12.8649L0.581055 12.9097L0.614574 12.8873V12.8649L0.838038 12.697L1.03916 12.529L1.46374 12.1708L1.63133 12.07L1.46374 12.2155L1.30731 12.3275L0.994463 12.6186L0.826865 12.7642C0.826865 12.7642 0.759826 12.8649 0.70396 12.9097H0.715133L0.927423 12.7418L1.00564 12.6746L1.18441 12.5178V12.6522L0.983289 12.8649H0.960943L0.938597 12.8985H0.94977L0.715133 13.1561L0.625747 13.2344L0.592228 13.2792L0.625747 13.2568V13.2344L0.849211 13.0665L1.05033 12.8985L1.47491 12.5402L1.6872 12.3947L1.47491 12.585L1.31848 12.697L1.00564 12.9881L0.838038 13.1337C0.838038 13.1337 0.770999 13.2344 0.715133 13.2792H0.726306L0.938597 13.1113L1.01681 13.0441L1.07267 13.0217Z" fill="black"/>
<path d="M4.7374 9.14766L4.05584 9.72989L3.89941 9.86425V10.816C4.05584 10.6928 4.22344 10.5808 4.40221 10.4913V10.4577L4.45807 10.4241L4.53629 10.3121L4.6145 10.2561C4.6145 10.2561 4.59215 10.2561 4.56981 10.2561L4.40221 10.3793L4.2793 10.4689L4.21226 10.5137L4.16757 10.4465L4.21226 10.3905L4.30165 10.3233L4.48042 10.1778L4.62567 10.0546V9.89784L4.82679 9.6851H4.84913L4.87148 9.65151H4.86031L5.09494 9.39399L5.18433 9.31561L5.21785 9.27083L5.18433 9.29322V9.31561L4.96087 9.48356L4.75975 9.65151L4.33517 10.0098L4.16757 10.1106L4.33517 9.96502L4.49159 9.85305L4.80444 9.56194L4.97204 9.41638C4.97204 9.41638 5.03908 9.31561 5.09494 9.27083H5.08377L4.87148 9.43878L4.79327 9.50596L4.6145 9.66271V9.52835L4.81562 9.31561H4.83796L4.86031 9.28202H4.84913L5.08377 9.0245L5.17316 8.94612L5.20668 8.90134L5.17316 8.92373V8.94612L4.94969 9.11407L4.74858 9.28202L4.32399 9.64031L4.1117 9.78587L4.32399 9.59553L4.48042 9.48356L4.79327 9.19245L4.96087 9.04689C4.96087 9.04689 5.02791 8.94612 5.08377 8.90134H5.0726L4.86031 9.06929L4.7821 9.13647L4.7374 9.14766Z" fill="black"/>
<path d="M1.86577 11.0511V9.56194L1.60878 9.30441L1.31828 9.0133L1.00543 8.72219L0.983085 8.6886C0.983085 8.6886 0.983085 8.71099 0.983085 8.72219L1.10599 8.84535L1.44119 9.28202H1.41884L1.44119 9.338H1.4747L1.76521 9.6851V9.77467L1.03895 9.03569L1.09482 9.97621L0.927219 9.88664L1.8099 10.7152L0.82666 9.92023L1.84342 11.0399L1.86577 11.0511Z" fill="black"/>
<path d="M3.88807 12.6634C4.07801 12.8649 4.22326 13.0217 4.24561 13.0553L4.55846 13.3464L5.55287 14.3429L5.66461 14.4549L5.94394 14.7572V14.7124C5.88807 14.6564 5.84338 14.5892 5.82103 14.522L5.57522 14.2757L5.11712 13.7719L4.89366 13.5703L4.58081 13.2568L4.89366 13.5143L5.50818 14.1302L5.79868 14.4213L5.92159 14.5444V14.4773L5.66461 14.1414H5.68695L5.66461 14.0854H5.63109L5.34058 13.7383V13.6487L5.92159 14.2421V12.585C5.86572 12.5402 4.61433 11.5437 4.54729 11.5213L4.335 11.3422L4.25678 11.2862L4.03332 11.1183L3.9998 11.0959L3.86572 10.9839V12.6634H3.88807Z" fill="black"/>
</g>
<defs>
<clipPath id="clip0_3790_6717">
<rect width="6" height="32" fill="white"/>
</clipPath>
</defs>
</svg>
