<svg width="16" height="48" viewBox="0 0 16 48" fill="none" xmlns="http://www.w3.org/2000/svg">
<g clip-path="url(#clip0_3790_8059)">
<path d="M9.54017 2.2673V5.27241C9.54017 5.95357 9.67568 6.54458 9.9467 7.03541C10.2177 7.52625 10.5826 7.9069 11.0516 8.15732C11.5207 8.41777 12.0523 8.54799 12.6569 8.54799C13.2615 8.54799 13.7931 8.41777 14.2622 8.15732C14.7313 7.89688 15.1065 7.52625 15.3671 7.03541C15.6277 6.54458 15.7737 5.95357 15.7737 5.27241V0.80481H14.3456V5.23235C14.3456 5.82335 14.1997 6.2641 13.9182 6.56461C13.6368 6.86513 13.2094 7.01538 12.6569 7.01538C12.1045 7.01538 11.6771 6.86513 11.3852 6.56461C11.0933 6.2641 10.9474 5.82335 10.9474 5.23235V0.80481H5.13086V2.2673H9.54017Z" fill="black"/>
<path d="M12.7299 14.9789V12.4246C12.7299 11.5831 12.5631 10.8619 12.24 10.2609C11.9064 9.65985 11.4582 9.19906 10.8849 8.87852C10.3115 8.55797 9.66526 8.40771 8.93559 8.40771C8.20591 8.40771 7.57005 8.56799 6.98631 8.87852C6.413 9.19906 5.95435 9.65985 5.62078 10.2609C5.28722 10.8619 5.13086 11.5831 5.13086 12.4246V14.9789H12.7299ZM6.46512 13.5865V12.4145C6.46512 11.5931 6.68402 10.9621 7.1114 10.5113C7.53878 10.0605 8.14337 9.83014 8.92516 9.83014C9.70695 9.83014 10.3115 10.0605 10.7389 10.5113C11.1663 10.9621 11.3852 11.6032 11.3852 12.4145V13.5865H6.46512Z" fill="black"/>
<path d="M11.3644 26.719V28.9027H12.7299V25.8876C12.7299 25.1062 12.4276 24.4551 11.9064 23.9443H15.7737V22.5519H5.13086V23.9443H9.27957C10.2386 23.9443 11.0516 24.5653 11.2914 25.4168L5.13086 27.9411V29.3334L11.3644 26.719Z" fill="black"/>
<path d="M12.7299 21.6402V19.0258C12.7299 17.3429 11.3122 15.9806 9.56102 15.9806H5.13086V17.373H9.27957C10.4262 17.373 11.3644 18.2745 11.3644 19.3764V21.6402H12.7299Z" fill="black"/>
<path d="M9.58155 44.399C9.70664 45.2304 10.0402 45.8715 10.6031 46.3323C11.166 46.7931 11.8435 47.0235 12.6462 47.0235C13.2403 47.0235 13.7824 46.8933 14.2515 46.6328C14.7205 46.3724 15.0958 46.0018 15.3564 45.5109C15.6274 45.0201 15.7629 44.4291 15.7629 43.7479V37.6776L6.70455 33.9112L15.7629 30.1448V28.4819L5.12012 32.9395V34.8227L14.3765 38.7093V43.6678C14.3765 44.2488 14.2306 44.6995 13.9283 45.0201C13.626 45.3406 13.1986 45.4909 12.6462 45.4909C12.0937 45.4909 11.6559 45.3306 11.364 45.0201C11.0617 44.6995 10.9158 44.2488 10.9158 43.6678V38.5891H5.13054V40.0516H9.53985V42.6661L5.13054 45.9817V47.8249L9.58155 44.4191V44.399Z" fill="black"/>
<path d="M3.11896 3.37921C3.11896 3.29907 3.10854 3.21894 3.07727 3.1388C3.05642 3.05866 3.01473 2.97853 2.97303 2.90841C2.93133 2.83829 2.87921 2.7882 2.8271 2.73812L3.07727 2.70807V2.45764H0.794434V2.76817H1.25309C1.31563 2.76817 1.37817 2.76817 1.44072 2.76817C1.49284 2.76817 1.53453 2.76817 1.58665 2.75815C1.53453 2.83829 1.49284 2.92844 1.46156 3.02861C1.43029 3.12878 1.41987 3.22895 1.41987 3.33914C1.41987 3.46936 1.45114 3.57955 1.50326 3.6697C1.55538 3.75986 1.63877 3.81996 1.76386 3.87005C1.88894 3.91011 2.05573 3.93015 2.2642 3.93015C2.54565 3.93015 2.76455 3.89008 2.91049 3.80994C3.05642 3.72981 3.12939 3.58957 3.12939 3.38923L3.11896 3.37921ZM1.89937 3.56953C1.81598 3.5495 1.75343 3.50943 1.72216 3.45935C1.69089 3.40926 1.68047 3.33914 1.68047 3.24899C1.68047 3.15884 1.68047 3.08872 1.71174 3.0186C1.73259 2.94848 1.75343 2.86834 1.77428 2.77819H2.61862C2.69158 2.87836 2.75413 2.96851 2.79582 3.03863C2.83752 3.11877 2.85837 3.1989 2.85837 3.27904C2.85837 3.35918 2.83752 3.41928 2.80625 3.46936C2.76455 3.51945 2.71243 3.5495 2.61862 3.56953C2.53523 3.58957 2.41014 3.59959 2.2642 3.59959C2.11827 3.59959 1.99318 3.58957 1.90979 3.55952L1.89937 3.56953Z" fill="black"/>
<path d="M2.25366 5.57287C2.33706 5.63297 2.45172 5.66302 2.59765 5.66302C2.77486 5.66302 2.91037 5.60292 2.99376 5.50275C3.08758 5.39256 3.12927 5.22227 3.12927 4.98186C3.12927 4.81157 3.098 4.67133 3.04588 4.56115C2.99376 4.45096 2.91037 4.37082 2.78528 4.32074C2.6602 4.27065 2.49341 4.2406 2.27451 4.2406C2.05561 4.2406 1.90968 4.27065 1.78459 4.32074C1.6595 4.37082 1.56569 4.45096 1.51357 4.56115C1.45102 4.67133 1.43018 4.82159 1.43018 5.0019C1.43018 5.062 1.43018 5.13212 1.43018 5.21225C1.43018 5.29239 1.45102 5.36251 1.46145 5.44265C1.47187 5.51277 1.49272 5.57287 1.51357 5.62295L1.72205 5.5929C1.71162 5.51277 1.7012 5.4126 1.69077 5.31243C1.69077 5.21225 1.68035 5.1221 1.68035 5.03195C1.68035 4.91174 1.7012 4.82159 1.73247 4.75147C1.76374 4.68135 1.82628 4.63127 1.90968 4.60121C1.9618 4.58118 2.03476 4.57116 2.12858 4.56115V5.26234C2.12858 5.40258 2.17027 5.50275 2.25366 5.56285V5.57287ZM2.36833 4.56115C2.48299 4.56115 2.57681 4.58118 2.64977 4.60121C2.73316 4.63127 2.78528 4.67133 2.82698 4.73144C2.85825 4.79154 2.8791 4.88169 2.8791 4.99188C2.8791 5.1221 2.85825 5.22227 2.81656 5.27236C2.77486 5.32244 2.70189 5.35249 2.60808 5.35249C2.54553 5.35249 2.49341 5.35249 2.45172 5.32244C2.41002 5.30241 2.37875 5.25232 2.37875 5.1822V4.56115H2.36833Z" fill="black"/>
<path d="M2.44127 7.09551V6.31418H3.08755V6.01367H1.46143V6.31418H2.20152V7.09551H1.46143V7.40604H3.08755V7.09551H2.44127Z" fill="black"/>
<path d="M3.07698 8.89853C3.10825 8.81839 3.1291 8.71822 3.1291 8.59802C3.1291 8.51788 3.1291 8.43774 3.1291 8.34759C3.1291 8.25744 3.11868 8.16728 3.09783 8.07713C3.08741 7.98698 3.07698 7.90684 3.05614 7.83672L2.82681 7.86677C2.82681 7.98698 2.84766 8.10718 2.85808 8.22739C2.85808 8.34759 2.8685 8.45778 2.8685 8.53791C2.8685 8.65812 2.84766 8.73826 2.80596 8.77832C2.76427 8.81839 2.6913 8.83843 2.59748 8.84844H2.4724V8.20735C2.4724 8.06711 2.44112 7.95693 2.36816 7.88681C2.29519 7.80667 2.20137 7.7666 2.07629 7.7666H1.89908C1.80527 7.7666 1.72188 7.78664 1.64891 7.8267C1.57594 7.86677 1.53424 7.91686 1.49255 7.99699C1.46128 8.06711 1.44043 8.14725 1.44043 8.24742C1.44043 8.33757 1.45085 8.41771 1.48213 8.48783C1.5134 8.55795 1.54467 8.62807 1.58636 8.68817C1.62806 8.74827 1.66976 8.79836 1.71145 8.84844C1.72188 8.85846 1.7323 8.86848 1.74272 8.87849L1.4717 8.91856V9.15897H2.58706C2.72257 9.15897 2.82681 9.13894 2.9102 9.09887C2.98317 9.0588 3.04571 8.9987 3.07698 8.91856V8.89853ZM1.91993 8.83843C1.91993 8.83843 1.85739 8.76831 1.83654 8.72824C1.78442 8.65812 1.75315 8.57798 1.7323 8.50786C1.71145 8.43774 1.70103 8.36762 1.70103 8.30752C1.70103 8.22739 1.72188 8.16728 1.75315 8.12722C1.79484 8.08715 1.84696 8.06711 1.93035 8.06711H2.03459C2.09714 8.06711 2.14926 8.07713 2.19095 8.10718C2.23265 8.13723 2.24307 8.18732 2.25349 8.25744V8.82841H1.94078L1.91993 8.83843Z" fill="black"/>
<path d="M3.07698 1.94675C3.10825 1.86662 3.1291 1.76645 3.1291 1.64624C3.1291 1.56611 3.1291 1.48597 3.1291 1.39582C3.1291 1.30566 3.11868 1.21551 3.09783 1.12536C3.08741 1.0352 3.07698 0.955065 3.05614 0.884946L2.82681 0.914997C2.82681 1.0352 2.84766 1.15541 2.85808 1.27561C2.85808 1.39582 2.8685 1.506 2.8685 1.58614C2.8685 1.70634 2.84766 1.78648 2.80596 1.82655C2.76427 1.86662 2.6913 1.88665 2.59748 1.89667H2.4724V1.24556C2.4724 1.10532 2.44112 0.995134 2.36816 0.925014C2.29519 0.844878 2.20137 0.80481 2.07629 0.80481H1.89908C1.80527 0.80481 1.72188 0.824844 1.64891 0.864912C1.57594 0.90498 1.53424 0.955065 1.49255 1.0352C1.46128 1.10532 1.44043 1.18546 1.44043 1.28563C1.44043 1.37578 1.45085 1.45592 1.48213 1.52604C1.5134 1.59616 1.54467 1.66628 1.58636 1.72638C1.62806 1.78648 1.66976 1.83657 1.71145 1.88665C1.72188 1.89667 1.7323 1.90669 1.74272 1.9167L1.4717 1.95677V2.19718H2.58706C2.72257 2.19718 2.82681 2.17715 2.9102 2.13708C2.98317 2.09701 3.04571 2.03691 3.07698 1.95677V1.94675ZM1.91993 1.88665C1.91993 1.88665 1.85739 1.81653 1.83654 1.77646C1.78442 1.70634 1.75315 1.62621 1.7323 1.55609C1.71145 1.48597 1.70103 1.41585 1.70103 1.35575C1.70103 1.27561 1.72188 1.21551 1.75315 1.17544C1.79484 1.13537 1.84696 1.11534 1.93035 1.11534H2.03459C2.09714 1.11534 2.14926 1.12536 2.19095 1.15541C2.23265 1.18546 2.24307 1.23554 2.25349 1.30566V1.87663H1.94078L1.91993 1.88665Z" fill="black"/>
<path d="M2.28477 11.3328C2.29519 11.453 2.32646 11.5431 2.38901 11.5932C2.45155 11.6433 2.53494 11.6733 2.6496 11.6733C2.76427 11.6733 2.85808 11.6533 2.92062 11.6032C2.98317 11.5631 3.02486 11.493 3.04571 11.3929C3.06656 11.2927 3.08741 11.1625 3.08741 11.0022C3.08741 10.902 3.08741 10.8219 3.08741 10.7417C3.08741 10.6716 3.08741 10.6015 3.08741 10.5414C3.08741 10.4813 3.08741 10.4112 3.07698 10.3411H1.45085C1.45085 10.4212 1.45085 10.4913 1.44043 10.5614C1.44043 10.6316 1.44043 10.7117 1.44043 10.7918C1.44043 10.872 1.44043 10.9721 1.44043 11.0923C1.44043 11.2426 1.45085 11.3628 1.48213 11.453C1.50297 11.5431 1.54467 11.6132 1.60721 11.6533C1.66976 11.6934 1.75315 11.7134 1.86781 11.7134C2.00332 11.7134 2.09714 11.6833 2.1701 11.6232C2.24307 11.5631 2.28477 11.463 2.29519 11.3127L2.28477 11.3328ZM2.85808 10.6416C2.85808 10.6416 2.85808 10.7017 2.85808 10.7417C2.85808 10.8119 2.85808 10.902 2.85808 11.0022C2.85808 11.0923 2.85808 11.1725 2.83723 11.2226C2.82681 11.2827 2.80596 11.3227 2.77469 11.3428C2.74342 11.3628 2.70172 11.3828 2.63918 11.3828C2.57664 11.3828 2.52452 11.3728 2.49324 11.3528C2.46197 11.3328 2.4307 11.2927 2.42028 11.2426C2.40985 11.1925 2.39943 11.1224 2.39943 11.0423V10.6516H2.85808V10.6416ZM1.76357 11.3828C1.76357 11.3828 1.70103 11.3227 1.6906 11.2626C1.68018 11.2125 1.66976 11.1324 1.66976 11.0423C1.66976 10.882 1.66976 10.7518 1.66976 10.6316H2.18053V11.0222C2.18053 11.1625 2.15968 11.2626 2.12841 11.3227C2.08671 11.3828 2.02417 11.4029 1.91993 11.4029C1.85739 11.4029 1.80527 11.3929 1.76357 11.3728V11.3828Z" fill="black"/>
<path d="M2.01389 12.4847C2.01389 12.4847 1.96177 12.4446 1.9305 12.4246C1.89923 12.4045 1.85753 12.3845 1.82626 12.3745C1.82626 12.3745 1.90965 12.3745 1.94093 12.3745C1.9722 12.3745 2.01389 12.3745 2.04516 12.3745H3.08755V12.094H1.46143V12.3544L2.52466 13.1157C2.52466 13.1157 2.58721 13.1558 2.61848 13.1758C2.66017 13.1959 2.69145 13.2159 2.72272 13.2259C2.72272 13.2259 2.63933 13.2259 2.60806 13.2259C2.57678 13.2259 2.53509 13.2259 2.49339 13.2259H1.46143V13.5064H3.08755V13.246L2.01389 12.4847Z" fill="black"/>
<path d="M3.11896 14.8487C3.11896 14.7686 3.10854 14.6884 3.07727 14.6083C3.05642 14.5281 3.01473 14.448 2.97303 14.3779C2.93133 14.3078 2.87921 14.2577 2.8271 14.2076L3.07727 14.1776V13.9271H0.794434V14.2377H1.25309C1.31563 14.2377 1.37817 14.2377 1.44072 14.2377C1.49284 14.2377 1.53453 14.2377 1.58665 14.2276C1.53453 14.3078 1.49284 14.3979 1.46156 14.4981C1.43029 14.5983 1.41987 14.6984 1.41987 14.8086C1.41987 14.9388 1.45114 15.049 1.50326 15.1392C1.55538 15.2293 1.63877 15.2894 1.76386 15.3395C1.88894 15.3796 2.05573 15.3996 2.2642 15.3996C2.54565 15.3996 2.76455 15.3596 2.91049 15.2794C3.05642 15.1993 3.12939 15.0591 3.12939 14.8587L3.11896 14.8487ZM1.89937 15.039C1.81598 15.019 1.75343 14.9789 1.72216 14.9288C1.69089 14.8787 1.68047 14.8086 1.68047 14.7185C1.68047 14.6283 1.68047 14.5582 1.71174 14.4881C1.73259 14.418 1.75343 14.3378 1.77428 14.2477H2.61862C2.69158 14.3478 2.75413 14.438 2.79582 14.5081C2.83752 14.5882 2.85837 14.6684 2.85837 14.7485C2.85837 14.8287 2.83752 14.8888 2.80625 14.9388C2.76455 14.9889 2.71243 15.019 2.61862 15.039C2.53523 15.0591 2.41014 15.0691 2.2642 15.0691C2.11827 15.0691 1.99318 15.0591 1.90979 15.029L1.89937 15.039Z" fill="black"/>
<path d="M3.08755 16.191V15.63H2.82696V16.191H1.46143V16.5015H2.82696V17.0624H3.08755V16.5015V16.191Z" fill="black"/>
<path d="M1.89903 18.1643C1.89903 18.1643 1.80521 18.1343 1.75309 18.1143C1.73224 18.1143 1.7114 18.1042 1.69055 18.0942V18.0542C1.69055 18.0542 1.76352 18.0341 1.79479 18.0241C1.82606 18.0241 1.86776 18.0041 1.89903 17.9941L3.08735 17.6034V17.2728L1.54461 17.8238C1.54461 17.8238 1.49249 17.8538 1.48207 17.8638C1.47165 17.8839 1.46122 17.9039 1.46122 17.934V17.9941L1.4091 17.974C1.34656 17.944 1.28402 17.9139 1.22147 17.8839C1.16935 17.8438 1.11723 17.8037 1.08596 17.7637C1.05469 17.7136 1.03384 17.6535 1.02342 17.5834C1.02342 17.5132 1.013 17.4431 1.02342 17.373L0.804517 17.3429C0.794093 17.4531 0.783669 17.5633 0.804517 17.6535C0.814941 17.7536 0.846213 17.8438 0.908756 17.9239C0.950452 17.984 0.992147 18.0241 1.05469 18.0742C1.10681 18.1143 1.16935 18.1543 1.2319 18.1844C1.29444 18.2144 1.35698 18.2345 1.4091 18.2545L3.1082 18.8655V18.535L1.91987 18.1443L1.89903 18.1643Z" fill="black"/>
<path d="M3.07698 20.2579C3.10825 20.1778 3.1291 20.0776 3.1291 19.9574C3.1291 19.8773 3.1291 19.7971 3.1291 19.707C3.1291 19.6168 3.11868 19.5267 3.09783 19.4365C3.08741 19.3464 3.07698 19.2662 3.05614 19.1961L2.82681 19.2261C2.82681 19.3464 2.84766 19.4666 2.85808 19.5868C2.85808 19.707 2.8685 19.8172 2.8685 19.8973C2.8685 20.0175 2.84766 20.0976 2.80596 20.1377C2.76427 20.1778 2.6913 20.1978 2.59748 20.2078H2.4724V19.5667C2.4724 19.4265 2.44112 19.3163 2.36816 19.2462C2.29519 19.166 2.20137 19.126 2.07629 19.126H1.89908C1.80527 19.126 1.72188 19.146 1.64891 19.1861C1.57594 19.2261 1.53424 19.2762 1.49255 19.3564C1.46128 19.4265 1.44043 19.5066 1.44043 19.6068C1.44043 19.6969 1.45085 19.7771 1.48213 19.8472C1.5134 19.9173 1.54467 19.9874 1.58636 20.0475C1.62806 20.1076 1.66976 20.1577 1.71145 20.2078C1.72188 20.2178 1.7323 20.2279 1.74272 20.2379L1.4717 20.2779V20.5183H2.58706C2.72257 20.5183 2.82681 20.4983 2.9102 20.4582C2.98317 20.4182 3.04571 20.3581 3.07698 20.2779V20.2579ZM1.91993 20.1978C1.91993 20.1978 1.85739 20.1277 1.83654 20.0876C1.78442 20.0175 1.75315 19.9374 1.7323 19.8672C1.71145 19.7971 1.70103 19.727 1.70103 19.6669C1.70103 19.5868 1.72188 19.5267 1.75315 19.4866C1.79484 19.4465 1.84696 19.4265 1.93035 19.4265H2.03459C2.09714 19.4265 2.14926 19.4365 2.19095 19.4666C2.23265 19.4966 2.24307 19.5467 2.25349 19.6168V20.1878H1.94078L1.91993 20.1978Z" fill="black"/>
<path d="M3.08741 22.0009V21.6102C3.08741 21.48 3.05614 21.3798 2.99359 21.3197C2.93105 21.2596 2.83723 21.2196 2.71215 21.1995C2.6496 21.1995 2.58706 21.1895 2.51409 21.1795C2.44112 21.1795 2.36816 21.1594 2.29519 21.1494C2.22222 21.1494 2.14926 21.1294 2.08671 21.1094C2.02417 21.0993 1.96162 21.0793 1.90951 21.0593C1.86781 21.0493 1.83654 21.0292 1.80527 21.0092C1.77399 20.9892 1.75315 20.9591 1.7323 20.9291C1.71145 20.889 1.70103 20.8489 1.68018 20.7888L1.44043 20.8189C1.44043 20.909 1.45085 20.9892 1.48213 21.0493C1.50297 21.1194 1.54467 21.1795 1.60721 21.2195C1.65933 21.2696 1.7323 21.2997 1.81569 21.3297C1.88866 21.3598 1.97205 21.3798 2.06586 21.3898C2.15968 21.4099 2.25349 21.4199 2.35773 21.4299C2.46197 21.4399 2.55579 21.46 2.6496 21.47C2.72257 21.47 2.77469 21.5 2.80596 21.5301C2.83723 21.5601 2.84766 21.6102 2.84766 21.6703V21.9808H1.46128V22.2914H3.08741V21.9808V22.0009Z" fill="black"/>
<path d="M2.42035 23.774C2.45162 23.6838 2.46204 23.5536 2.46204 23.3833V23.0327H3.07705V22.7322H1.46135C1.46135 22.8123 1.46135 22.8824 1.45092 22.9425C1.4405 23.0026 1.45092 23.0728 1.45092 23.1529C1.45092 23.233 1.45092 23.3232 1.45092 23.4234C1.45092 23.5636 1.46135 23.6838 1.49262 23.7639C1.52389 23.8541 1.57601 23.9142 1.64898 23.9543C1.72194 23.9943 1.82618 24.0144 1.96169 24.0144C2.0972 24.0144 2.19102 23.9943 2.26399 23.9543C2.33695 23.9142 2.38907 23.8441 2.42035 23.7539V23.774ZM1.79491 23.6838C1.79491 23.6838 1.72194 23.6337 1.71152 23.5836C1.7011 23.5335 1.69067 23.4734 1.69067 23.3833C1.69067 23.2531 1.69067 23.1329 1.69067 23.0327H2.24314V23.3833C2.24314 23.4734 2.24314 23.5335 2.22229 23.5836C2.20144 23.6337 2.1806 23.6638 2.1389 23.6838C2.0972 23.7038 2.04508 23.7139 1.97212 23.7139C1.89915 23.7139 1.83661 23.7038 1.79491 23.6838Z" fill="black"/>
<path d="M2.44127 25.4567V24.6754H3.08755V24.3649H1.46143V24.6754H2.20152V25.4567H1.46143V25.7572H3.08755V25.4567H2.44127Z" fill="black"/>
<path d="M3.03531 27.33C3.08743 27.2198 3.1187 27.0795 3.1187 26.8892C3.1187 26.6989 3.08743 26.5587 3.03531 26.4485C2.98319 26.3383 2.88937 26.2581 2.76429 26.2081C2.6392 26.158 2.47242 26.1379 2.26394 26.1379C2.05546 26.1379 1.88868 26.158 1.76359 26.2081C1.63851 26.2581 1.54469 26.3383 1.49257 26.4485C1.44045 26.5587 1.40918 26.7089 1.40918 26.8892C1.40918 27.0695 1.44045 27.2198 1.49257 27.33C1.54469 27.4402 1.63851 27.5203 1.76359 27.5704C1.88868 27.6205 2.05546 27.6405 2.26394 27.6405C2.47242 27.6405 2.6392 27.6205 2.76429 27.5704C2.88937 27.5203 2.98319 27.4402 3.03531 27.33ZM1.90953 27.2799C1.82614 27.2498 1.76359 27.2098 1.73232 27.1497C1.70105 27.0896 1.6802 26.9994 1.6802 26.8992C1.6802 26.7991 1.70105 26.7089 1.73232 26.6488C1.76359 26.5887 1.82614 26.5386 1.90953 26.5186C1.99292 26.4885 2.11801 26.4785 2.27436 26.4785C2.43072 26.4785 2.54539 26.4885 2.62878 26.5186C2.71217 26.5486 2.77471 26.5887 2.80598 26.6488C2.83725 26.7089 2.8581 26.7991 2.8581 26.8992C2.8581 26.9994 2.83725 27.0896 2.80598 27.1497C2.77471 27.2098 2.71217 27.2598 2.62878 27.2799C2.54539 27.2999 2.4203 27.3199 2.27436 27.3199C2.12843 27.3199 2.00334 27.3099 1.90953 27.2799Z" fill="black"/>
<path d="M3.4941 28.8926C3.4941 28.8124 3.51495 28.7423 3.56707 28.6922C3.61919 28.6421 3.69216 28.6221 3.78597 28.6221V28.4017C3.70258 28.4017 3.61919 28.4017 3.54622 28.4518C3.47325 28.4919 3.42113 28.542 3.37944 28.6221C3.33774 28.6922 3.31689 28.7924 3.31689 28.8926C3.31689 28.9927 3.33774 29.0829 3.37944 29.163C3.42113 29.2331 3.47325 29.2933 3.54622 29.3333C3.61919 29.3734 3.69216 29.3834 3.78597 29.3734V29.153C3.69216 29.153 3.61919 29.133 3.56707 29.0829C3.51495 29.0428 3.4941 28.9727 3.4941 28.8926Z" fill="black"/>
<path d="M2.01389 28.3918C2.01389 28.3918 1.96177 28.3517 1.9305 28.3317C1.89923 28.3116 1.85753 28.2916 1.82626 28.2816C1.82626 28.2816 1.90965 28.2816 1.94093 28.2816C1.9722 28.2816 2.01389 28.2816 2.04516 28.2816H3.08755V28.0011H1.46143V28.2615L2.52466 29.0228C2.52466 29.0228 2.58721 29.0629 2.61848 29.0829C2.66017 29.103 2.69145 29.123 2.72272 29.133C2.72272 29.133 2.63933 29.133 2.60806 29.133C2.57678 29.133 2.53509 29.133 2.49339 29.133H1.46143V29.4135H3.08755V29.1531L2.01389 28.3918Z" fill="black"/>
<path d="M3.11896 31.5472C3.11896 31.467 3.10854 31.3869 3.07727 31.3068C3.05642 31.2266 3.01473 31.1465 2.97303 31.0764C2.93133 31.0063 2.87921 30.9562 2.8271 30.9061L3.07727 30.876V30.6256H0.794434V30.9361H1.25309C1.31563 30.9361 1.37817 30.9361 1.44072 30.9361C1.49284 30.9361 1.53453 30.9361 1.58665 30.9261C1.53453 31.0063 1.49284 31.0964 1.46156 31.1966C1.43029 31.2968 1.41987 31.3969 1.41987 31.5071C1.41987 31.6373 1.45114 31.7475 1.50326 31.8377C1.55538 31.9278 1.63877 31.9879 1.76386 32.038C1.88894 32.0881 2.05573 32.0981 2.2642 32.0981C2.54565 32.0981 2.76455 32.058 2.91049 31.9779C3.05642 31.8978 3.12939 31.7575 3.12939 31.5572L3.11896 31.5472ZM1.89937 31.7375C1.81598 31.7175 1.75343 31.6774 1.72216 31.6273C1.69089 31.5772 1.68047 31.5071 1.68047 31.417C1.68047 31.3268 1.68047 31.2567 1.71174 31.1866C1.73259 31.1164 1.75343 31.0363 1.77428 30.9462H2.61862C2.69158 31.0463 2.75413 31.1365 2.79582 31.2066C2.83752 31.2867 2.85837 31.3669 2.85837 31.447C2.85837 31.5271 2.83752 31.5872 2.80625 31.6373C2.76455 31.6874 2.71243 31.7175 2.61862 31.7375C2.53523 31.7575 2.41014 31.7676 2.2642 31.7676C2.11827 31.7676 1.99318 31.7575 1.90979 31.7275L1.89937 31.7375Z" fill="black"/>
<path d="M2.25366 33.7408C2.33706 33.8009 2.45172 33.831 2.59765 33.831C2.77486 33.831 2.91037 33.7709 2.99376 33.6707C3.08758 33.5605 3.12927 33.3902 3.12927 33.1498C3.12927 32.9795 3.098 32.8393 3.04588 32.7291C2.99376 32.6189 2.91037 32.5388 2.78528 32.4887C2.6602 32.4386 2.49341 32.4086 2.27451 32.4086C2.05561 32.4086 1.90968 32.4386 1.78459 32.4887C1.6595 32.5388 1.56569 32.6189 1.51357 32.7291C1.45102 32.8393 1.43018 32.9896 1.43018 33.1699C1.43018 33.23 1.43018 33.3001 1.43018 33.3802C1.43018 33.4604 1.45102 33.5305 1.46145 33.6106C1.47187 33.6807 1.49272 33.7408 1.51357 33.7909L1.72205 33.7609C1.71162 33.6807 1.7012 33.5806 1.69077 33.4804C1.69077 33.3802 1.68035 33.2901 1.68035 33.1999C1.68035 33.0797 1.7012 32.9896 1.73247 32.9194C1.76374 32.8493 1.82628 32.7992 1.90968 32.7692C1.9618 32.7491 2.03476 32.7391 2.12858 32.7291V33.4303C2.12858 33.5705 2.17027 33.6707 2.25366 33.7308V33.7408ZM2.36833 32.7291C2.48299 32.7291 2.57681 32.7491 2.64977 32.7692C2.73316 32.7992 2.78528 32.8393 2.82698 32.8994C2.85825 32.9595 2.8791 33.0497 2.8791 33.1598C2.8791 33.2901 2.85825 33.3902 2.81656 33.4403C2.77486 33.4904 2.70189 33.5205 2.60808 33.5205C2.54553 33.5205 2.49341 33.5205 2.45172 33.4904C2.41002 33.4704 2.37875 33.4203 2.37875 33.3502V32.7291H2.36833Z" fill="black"/>
<path d="M3.07698 35.2334C3.10825 35.1532 3.1291 35.0531 3.1291 34.9329C3.1291 34.8527 3.1291 34.7726 3.1291 34.6824C3.1291 34.5923 3.11868 34.5021 3.09783 34.412C3.08741 34.3218 3.07698 34.2417 3.05614 34.1716L2.82681 34.2016C2.82681 34.3218 2.84766 34.442 2.85808 34.5622C2.85808 34.6824 2.8685 34.7926 2.8685 34.8728C2.8685 34.993 2.84766 35.0731 2.80596 35.1132C2.76427 35.1532 2.6913 35.1733 2.59748 35.1833H2.4724V34.5422C2.4724 34.402 2.44112 34.2918 2.36816 34.2216C2.29519 34.1415 2.20137 34.1014 2.07629 34.1014H1.89908C1.80527 34.1014 1.72188 34.1215 1.64891 34.1615C1.57594 34.2016 1.53424 34.2517 1.49255 34.3318C1.46128 34.402 1.44043 34.4821 1.44043 34.5823C1.44043 34.6724 1.45085 34.7525 1.48213 34.8227C1.5134 34.8928 1.54467 34.9629 1.58636 35.023C1.62806 35.0831 1.66976 35.1332 1.71145 35.1833C1.72188 35.1933 1.7323 35.2033 1.74272 35.2133L1.4717 35.2534V35.4938H2.58706C2.72257 35.4938 2.82681 35.4738 2.9102 35.4337C2.98317 35.3936 3.04571 35.3335 3.07698 35.2534V35.2334ZM1.91993 35.1733C1.91993 35.1733 1.85739 35.1031 1.83654 35.0631C1.78442 34.993 1.75315 34.9128 1.7323 34.8427C1.71145 34.7726 1.70103 34.7025 1.70103 34.6424C1.70103 34.5622 1.72188 34.5021 1.75315 34.4621C1.79484 34.422 1.84696 34.402 1.93035 34.402H2.03459C2.09714 34.402 2.14926 34.412 2.19095 34.442C2.23265 34.4721 2.24307 34.5222 2.25349 34.5923V35.1632H1.94078L1.91993 35.1733Z" fill="black"/>
<path d="M3.08741 36.9763V36.5857C3.08741 36.4555 3.05614 36.3553 2.99359 36.2952C2.93105 36.2351 2.83723 36.195 2.71215 36.175C2.6496 36.175 2.58706 36.165 2.51409 36.1549C2.44112 36.1549 2.36816 36.1349 2.29519 36.1249C2.22222 36.1249 2.14926 36.1049 2.08671 36.0848C2.02417 36.0748 1.96162 36.0548 1.90951 36.0347C1.86781 36.0247 1.83654 36.0047 1.80527 35.9847C1.77399 35.9646 1.75315 35.9346 1.7323 35.9045C1.71145 35.8645 1.70103 35.8244 1.68018 35.7643L1.44043 35.7943C1.44043 35.8845 1.45085 35.9646 1.48213 36.0247C1.50297 36.0948 1.54467 36.1549 1.60721 36.195C1.65933 36.2451 1.7323 36.2751 1.81569 36.3052C1.88866 36.3353 1.97205 36.3553 2.06586 36.3653C2.15968 36.3853 2.25349 36.3954 2.35773 36.4054C2.46197 36.4154 2.55579 36.4354 2.6496 36.4454C2.72257 36.4454 2.77469 36.4755 2.80596 36.5055C2.83723 36.5356 2.84766 36.5857 2.84766 36.6458V36.9563H1.46128V37.2668H3.08741V36.9563V36.9763Z" fill="black"/>
<path d="M2.4206 38.7594C2.45187 38.6693 2.46229 38.5391 2.46229 38.3688V38.0182H3.0773V37.7177H1.4616C1.4616 37.7978 1.4616 37.8679 1.45117 37.928C1.45117 37.9881 1.45117 38.0582 1.45117 38.1384C1.45117 38.2185 1.45117 38.3087 1.45117 38.4088C1.45117 38.5491 1.4616 38.6693 1.49287 38.7494C1.52414 38.8396 1.57626 38.8997 1.64923 38.9397C1.72219 38.9798 1.82643 38.9998 1.96194 38.9998C2.09745 38.9998 2.19127 38.9798 2.26424 38.9397C2.3372 38.8997 2.38932 38.8295 2.4206 38.7394V38.7594ZM1.79516 38.6693C1.79516 38.6693 1.72219 38.6192 1.71177 38.5691C1.70135 38.519 1.69092 38.4589 1.69092 38.3688C1.69092 38.2385 1.69092 38.1183 1.69092 38.0182H2.24339V38.3688C2.24339 38.4589 2.24339 38.519 2.22254 38.5691C2.20169 38.6192 2.18085 38.6492 2.13915 38.6693C2.09745 38.6893 2.04533 38.6993 1.97237 38.6993C1.8994 38.6993 1.83686 38.6893 1.79516 38.6693Z" fill="black"/>
<path d="M2.44127 40.4323V39.651H3.08755V39.3505H1.46143V39.651H2.20152V40.4323H1.46143V40.7428H3.08755V40.4323H2.44127Z" fill="black"/>
<path d="M3.03531 42.3054C3.08743 42.1952 3.1187 42.055 3.1187 41.8647C3.1187 41.6744 3.08743 41.5341 3.03531 41.4239C2.98319 41.3137 2.88937 41.2336 2.76429 41.1835C2.6392 41.1334 2.47242 41.1134 2.26394 41.1134C2.05546 41.1134 1.88868 41.1334 1.76359 41.1835C1.63851 41.2336 1.54469 41.3137 1.49257 41.4239C1.44045 41.5341 1.40918 41.6844 1.40918 41.8647C1.40918 42.045 1.44045 42.1952 1.49257 42.3054C1.54469 42.4156 1.63851 42.4958 1.76359 42.5458C1.88868 42.5959 2.05546 42.616 2.26394 42.616C2.47242 42.616 2.6392 42.5959 2.76429 42.5458C2.88937 42.4958 2.98319 42.4156 3.03531 42.3054ZM1.90953 42.2553C1.82614 42.2253 1.76359 42.1852 1.73232 42.1251C1.70105 42.065 1.6802 41.9749 1.6802 41.8747C1.6802 41.7745 1.70105 41.6844 1.73232 41.6243C1.76359 41.5642 1.82614 41.5141 1.90953 41.494C1.99292 41.464 2.11801 41.454 2.27436 41.454C2.43072 41.454 2.54539 41.464 2.62878 41.494C2.71217 41.5241 2.77471 41.5642 2.80598 41.6243C2.83725 41.6844 2.8581 41.7745 2.8581 41.8747C2.8581 41.9749 2.83725 42.065 2.80598 42.1251C2.77471 42.1852 2.71217 42.2353 2.62878 42.2553C2.54539 42.2854 2.4203 42.2954 2.27436 42.2954C2.12843 42.2954 2.00334 42.2854 1.90953 42.2553Z" fill="black"/>
<path d="M1.7012 44.0284C1.7012 43.9683 1.7012 43.9082 1.7012 43.8581C1.7012 43.808 1.7012 43.7679 1.7012 43.7279C1.7012 43.6077 1.72205 43.5175 1.75332 43.4474C1.78459 43.3773 1.84713 43.3272 1.93052 43.2971C2.01391 43.2671 2.139 43.247 2.28494 43.247C2.43087 43.247 2.55596 43.2671 2.63935 43.2971C2.72274 43.3272 2.78528 43.3773 2.81656 43.4474C2.84783 43.5175 2.86867 43.6077 2.86867 43.7279C2.86867 43.788 2.86867 43.8481 2.86867 43.9282C2.86867 44.0083 2.86867 44.0785 2.85825 44.1586L3.06673 44.1987C3.08758 44.1486 3.10842 44.0885 3.11885 44.0284C3.12927 43.9683 3.1397 43.9082 3.1397 43.8481C3.1397 43.788 3.1397 43.7379 3.1397 43.6878C3.1397 43.5075 3.10842 43.3572 3.05631 43.247C3.00419 43.1369 2.91037 43.0567 2.78528 43.0066C2.6602 42.9566 2.49341 42.9365 2.28494 42.9365C2.07646 42.9365 1.90968 42.9566 1.78459 43.0066C1.6595 43.0567 1.56569 43.1369 1.51357 43.247C1.46145 43.3572 1.43018 43.5075 1.43018 43.6878C1.43018 43.788 1.43018 43.8781 1.45102 43.9783C1.46145 44.0785 1.49272 44.1586 1.52399 44.2387L1.73247 44.2087C1.73247 44.1586 1.72205 44.0985 1.71162 44.0384L1.7012 44.0284Z" fill="black"/>
<path d="M3.08755 45.0201V44.4691H2.82696V45.0201H1.46143V45.3306H2.82696V45.8915H3.08755V45.3306V45.0201Z" fill="black"/>
<path d="M2.01389 46.5827C2.01389 46.5827 1.96177 46.5426 1.9305 46.5226C1.89923 46.5025 1.85753 46.4825 1.82626 46.4725C1.82626 46.4725 1.90965 46.4725 1.94093 46.4725C1.9722 46.4725 2.01389 46.4725 2.04516 46.4725H3.08755V46.192H1.46143V46.4525L2.52466 47.2138C2.52466 47.2138 2.58721 47.2538 2.61848 47.2739C2.66017 47.2939 2.69145 47.3139 2.72272 47.3239C2.72272 47.3239 2.63933 47.3239 2.60806 47.3239C2.57678 47.3239 2.53509 47.3239 2.49339 47.3239H1.46143V47.6044H3.08755V47.344L2.01389 46.5827Z" fill="black"/>
</g>
<defs>
<clipPath id="clip0_3790_8059">
<rect width="15" height="47" fill="white" transform="translate(0.773438 0.80481)"/>
</clipPath>
</defs>
</svg>
