<svg width="27" height="7" viewBox="0 0 27 7" fill="none" xmlns="http://www.w3.org/2000/svg">
<path fill-rule="evenodd" clip-rule="evenodd" d="M4.94058 3.56076C5.05642 4.2362 5.23484 4.73483 5.48105 5.07506V0.818748H1.92163V1.47031C2.72879 1.49461 3.36238 2.10888 3.5747 3.56034C3.77397 4.74027 4.1729 5.38094 4.78451 5.57955V6.99078H0V1.46863H0.489812C1.57857 1.46863 2.04939 2.47887 2.20881 3.56076C2.40771 4.74446 2.8085 5.38513 3.42347 5.58123L3.41937 5.65162H2.85469C2.02369 5.65162 1.36887 5.04196 1.15245 3.56076C1.03699 2.88531 0.85894 2.38627 0.611986 2.04645V6.30235H4.17141V5.65078C3.36462 5.6269 2.73103 5.01221 2.51834 3.56076C2.31981 2.38082 1.92088 1.74057 1.30927 1.54196V0.130732H1.30964H6.09341V5.65288H5.6036C4.51484 5.65288 4.04402 4.64306 3.88423 3.56076C3.6857 2.37705 3.28453 1.73638 2.66994 1.54028L2.67367 1.46947H3.23872C4.06972 1.46947 4.72492 2.07955 4.94058 3.56076Z" fill="black"/>
<path fill-rule="evenodd" clip-rule="evenodd" d="M27.0001 0.325153H25.7772C25.3969 0.764696 25.1049 1.2696 24.9011 1.83988C24.6974 2.41057 24.5957 2.99258 24.5957 3.58799C24.5957 4.15198 24.684 4.70005 24.8602 5.23345C25.0583 5.82803 25.3585 6.36101 25.7605 6.83198H27.0001C26.5486 6.43559 26.1933 5.99563 25.934 5.51251C25.6148 4.9171 25.4546 4.27224 25.4546 3.57877C25.4546 2.88531 25.617 2.2371 25.9422 1.63582C26.2015 1.15228 26.5535 0.715672 26.9997 0.325153H27.0001Z" fill="black"/>
<path fill-rule="evenodd" clip-rule="evenodd" d="M21.0068 6.8324L19.6267 0L18.2471 6.8324H19.1228L19.6267 3.97851L20.1307 6.8324H21.0068Z" fill="black"/>
<path fill-rule="evenodd" clip-rule="evenodd" d="M14.2886 0.325153H13.2394C12.5343 0.325153 12.2426 0.788161 12.2426 1.54238V1.88387H11.8295L11.355 2.81366H12.2307V6.8324H14.2886V5.90303H13.0904V2.81366H14.3009V1.88387H13.1023V1.41291C13.1023 1.29558 13.1261 1.25452 13.2345 1.25452H14.289V0.325153H14.2886Z" fill="black"/>
<path fill-rule="evenodd" clip-rule="evenodd" d="M10.2452 1.25787V6.83617H11.1138V0.315516H8.68115V0.316773V6.83617H9.5494V1.25787H10.2452Z" fill="black"/>
<path fill-rule="evenodd" clip-rule="evenodd" d="M16.8751 1.25787V6.83617H17.7433V0.315516H15.311V0.316773V6.83617H16.1793V1.25787H16.8751Z" fill="black"/>
<path fill-rule="evenodd" clip-rule="evenodd" d="M23.0574 1.54238V5.62355C23.0574 5.74758 23.035 5.84646 22.9911 5.92147C22.9307 6.02035 22.8398 6.0698 22.7184 6.0698C22.6245 6.0698 22.5448 6.03753 22.4789 5.97217C22.4126 5.90764 22.3794 5.79115 22.3794 5.62355V1.54238C22.3794 1.37561 22.4126 1.25745 22.4789 1.18957C22.5448 1.12127 22.6245 1.08692 22.7184 1.08692C22.8175 1.08692 22.8991 1.1196 22.9624 1.18496C23.0261 1.24949 23.0574 1.36933 23.0574 1.54238ZM23.917 1.67269C23.917 1.12127 23.7926 0.718185 23.5449 0.464264C23.3464 0.259787 23.0823 0.157129 22.7519 0.157129C22.3496 0.157129 22.0438 0.290794 21.8345 0.557285C21.6252 0.823776 21.5205 1.19586 21.5205 1.67269V5.49324C21.5205 6.03879 21.6471 6.43894 21.9008 6.69245C22.1049 6.89692 22.372 6.99958 22.7024 6.99958C23.0328 6.99958 23.2697 6.91829 23.4626 6.75781C23.7654 6.50976 23.9174 6.08823 23.9174 5.49324V1.67269H23.917Z" fill="black"/>
</svg>
