<svg width="47" height="23" viewBox="0 0 47 23" fill="none" xmlns="http://www.w3.org/2000/svg">
<g clip-path="url(#clip0_3790_7064)">
<path d="M34.9419 6.57094V1.73796H35.9484V3.64541H37.9015V1.90179C37.9015 1.21137 39.1477 1.17626 39.4472 1.90179C39.579 2.22945 39.4832 2.13584 39.2435 2.03052C39.0398 1.9603 38.908 2.12413 38.908 2.28796V6.52413H37.9015V4.41775H35.9484V6.52413H34.9419V6.55924V6.57094Z" fill="black"/>
<path d="M28.0161 4.17195C28.0161 3.68046 28.088 3.24748 28.2558 2.91982C28.3516 2.68578 28.5194 2.46344 28.7231 2.2645C28.9268 2.06556 29.1305 1.93684 29.3581 1.84322C29.6577 1.7145 30.0291 1.64429 30.4365 1.64429C31.1794 1.64429 31.7426 1.87833 32.1859 2.29961C32.6173 2.72088 32.821 3.3528 32.821 4.13684C32.821 4.92088 32.6173 5.51769 32.1859 5.97407C31.7546 6.39535 31.1794 6.62939 30.4365 6.62939C29.6936 6.62939 29.1305 6.39535 28.6871 5.97407C28.2198 5.5528 28.0161 4.95599 28.0161 4.17195ZM29.0226 4.13684C29.0226 4.69854 29.1544 5.08471 29.43 5.38897C29.6936 5.68152 30.0052 5.81025 30.4006 5.81025C30.796 5.81025 31.1435 5.68152 31.3712 5.38897C31.6348 5.09642 31.7426 4.69854 31.7426 4.13684C31.7426 3.57514 31.6108 3.18897 31.3712 2.88471C31.1315 2.62727 30.796 2.48684 30.4006 2.48684C30.0052 2.48684 29.6577 2.61556 29.3941 2.90812C29.1544 3.16556 29.0226 3.59854 29.0226 4.12514V4.13684Z" fill="black"/>
<path d="M21.7614 5.84537L23.0075 4.04324L21.4618 1.74962H22.6361L23.6066 3.18898C23.9062 2.76771 24.3495 1.97196 24.685 1.60919C25.0205 1.28154 25.6556 1.37515 25.8952 2.00707C26.0271 2.33473 25.9312 2.24111 25.6915 2.1709C25.5597 2.10068 25.5238 2.1709 25.4519 2.26451L24.1698 4.04324L25.8833 6.53579H24.6731L23.5946 4.89749L23.1273 5.58792C22.9955 5.82196 22.7199 6.24324 22.5162 6.44217C22.1807 6.76983 21.5457 6.67622 21.306 6.0443C21.1742 5.71664 21.2701 5.81026 21.5097 5.88047C21.6415 5.97409 21.6775 5.95068 21.7494 5.84537H21.7614Z" fill="black"/>
<path d="M15.7823 4.95603L17.7714 1.73794H18.7419V5.21348C18.7419 5.44752 18.8138 5.9039 19.1493 5.81028C19.389 5.71667 19.4848 5.64645 19.353 5.97411C19.0175 6.73475 17.8073 6.62943 17.8073 6.00922L17.8432 3.44645L15.8542 6.59433H14.8836V2.55709C14.8836 2.35816 14.7878 2.0305 14.5122 2.13582C14.2725 2.22943 14.1767 2.29965 14.3085 1.97199C14.644 1.21135 15.8542 1.31667 15.8542 1.93688L15.7823 4.95603Z" fill="black"/>
<path d="M12.6191 6.57089H11.5407L11.1093 5.4826H9.12023L8.91653 6.0794C8.91653 6.0794 8.88058 6.14962 8.84464 6.20813C8.60499 6.73472 7.73029 6.66451 7.46667 5.97409C7.33487 5.64643 7.43073 5.74004 7.67037 5.81026C7.80218 5.88047 7.91002 5.81026 7.96993 5.71664L8.06579 5.5177L9.57556 1.73792H10.618L12.6071 6.57089H12.6191ZM10.7738 4.66345L10.1028 2.88472L9.43177 4.66345H10.7738Z" fill="black"/>
<path d="M1.95475 2.42836V2.91985C1.95475 3.28262 1.95475 3.54007 1.9907 3.68049C2.02665 3.82092 2.08656 3.91453 2.23035 4.00815C2.36215 4.10177 2.56585 4.13687 2.84144 4.13687C3.04514 4.13687 3.24884 4.10177 3.41659 4.06666C3.58435 4.03155 3.71615 3.97304 3.84796 3.86773V2.0656C3.84796 1.28155 5.09411 1.34007 5.39367 2.03049C5.52548 2.35815 5.42962 2.26453 5.18997 2.19432C4.95033 2.1007 4.85447 2.35815 4.85447 2.52198V6.59432H3.84796V4.65177C3.64426 4.68687 3.44056 4.74538 3.27281 4.8156C3.06911 4.8507 2.86541 4.88581 2.69766 4.88581C2.1944 4.88581 1.787 4.79219 1.4515 4.55815C1.11599 4.32411 0.948242 3.93794 0.948242 3.37624V2.04219C0.948242 1.25815 2.1944 1.31666 2.49396 2.00709C2.62576 2.33475 2.5299 2.24113 2.29026 2.17092C2.08656 2.0773 1.95475 2.24113 1.95475 2.42836Z" fill="black"/>
<path d="M46.5768 6.66454H45.4984L45.067 5.57624H43.078C43.0061 5.81028 42.9102 6.17305 42.7784 6.33688C42.4429 6.86347 41.6641 6.62943 41.4364 6.04433C41.3046 5.71667 41.4005 5.81028 41.6401 5.9156C41.8797 6.00922 41.9397 5.75177 42.0475 5.58794L43.5213 1.84326H44.5638L46.5768 6.67624V6.66454ZM44.7555 4.72199L44.0845 2.94326L43.4135 4.72199H44.7555Z" fill="black"/>
<path d="M17.9271 0.661352C17.4238 1.64433 16.6809 0.825181 16.1417 0.825181C15.974 0.825181 15.7703 0.860288 15.4707 0.953905C16.1417 -0.0641804 16.4772 0.825181 17.2201 0.790075C17.3879 0.790075 17.6275 0.754969 17.9271 0.661352Z" fill="black"/>
<path fill-rule="evenodd" clip-rule="evenodd" d="M24.1221 19.5719C21.1625 17.2783 20.0242 12.1177 22.4087 12.6794C23.2474 12.8783 23.6908 14.189 24.1581 14.8443C24.5894 14.2241 25.0328 13.007 25.7397 12.7379C27.0458 12.1762 27.4532 13.5922 27.2136 14.8443C26.9499 16.0964 24.865 19.1741 24.1221 19.5719ZM24.2539 22.2985C25.6678 20.8592 28.2201 17.2432 28.8911 15.5347C29.634 13.5922 29.7298 10.0815 26.902 9.84748C25.0208 9.68365 24.889 11.0294 24.1101 11.9773C23.2714 11.0294 22.6603 8.8879 20.3477 10.1049C18.7301 10.9592 18.5983 12.9953 19.0416 14.54C19.5808 16.3773 22.6004 21.339 24.2539 22.2868V22.2985Z" fill="black" stroke="black" stroke-width="0.22" stroke-miterlimit="22.93"/>
<path d="M39.9268 21.5145H46.6489C46.7448 20.8241 46.8526 20.1336 46.9485 19.4783C45.1032 19.7124 44.0607 19.7358 42.8745 19.6773C42.8385 18.7879 42.7786 17.8985 42.7427 17.0209C43.881 16.9273 44.4202 16.8922 46.4452 17.1496V14.9847C45.235 15.0198 43.9289 15.2773 42.7427 15.0549C42.7786 14.2709 42.8146 13.44 42.8385 12.656C44.0847 12.6911 44.8875 12.5858 46.8047 12.8549C46.8406 11.9656 46.6729 11.6028 46.565 10.7485H39.8789C40.3462 14.2592 40.2863 16.9858 39.9149 21.5145H39.9268Z" fill="black"/>
<path d="M4.48294 12.5741C5.69315 12.5741 6.73561 12.5741 6.73561 13.9198C6.73561 15.2656 5.7291 15.2305 4.55483 15.2305L4.48294 12.5741ZM1.75098 21.4794H4.85439L4.81844 20.8826L4.55483 17.1379C6.20839 16.9741 7.07111 17.3017 8.22141 16.2486C9.09612 15.4645 9.59937 14.3411 9.09612 12.8315C8.22141 10.3741 4.83042 10.5028 1.76296 10.7603C2.02657 14.9262 2.13441 17.4656 1.76296 21.4677L1.75098 21.4794Z" fill="black"/>
<path d="M34.1753 21.6081H35.9606C36.8353 17.6294 38.0096 14.6102 39.3516 10.7719L36.2961 10.7368C36.2003 12.0826 35.6251 15.0081 35.05 16.4241C34.2471 14.6219 33.6361 12.6794 33.6361 10.7719H30.5806C31.7908 14.423 33.3005 17.7347 34.1753 21.6081Z" fill="black"/>
<path d="M15.1713 13.1358V10.7719L13.0145 10.7368L12.1398 10.807C12.4034 14.7858 12.3435 17.5709 12.0679 21.5145H18.6941L18.9577 19.3847L14.7519 19.6421L15.1593 13.1358H15.1713Z" fill="black"/>
<path d="M9.32373 21.4795C10.1026 21.4795 10.7017 20.8592 10.7017 20.1337C10.7017 19.4082 10.0666 18.788 9.32373 18.788C8.58083 18.788 7.94577 19.4082 7.94577 20.1337C7.90982 20.8943 8.55686 21.4795 9.32373 21.4795Z" fill="black"/>
</g>
<defs>
<clipPath id="clip0_3790_7064">
<rect width="46" height="22" fill="white" transform="translate(0.948242 0.462402)"/>
</clipPath>
</defs>
</svg>
