<svg width="9" height="3" viewBox="0 0 9 3" fill="none" xmlns="http://www.w3.org/2000/svg">
<path d="M0.702359 2.84863V0.488509H1.49982C1.68498 0.488509 1.83633 0.521928 1.95387 0.588768C2.07218 0.654839 2.15977 0.744342 2.21662 0.857278C2.27347 0.970214 2.3019 1.09621 2.3019 1.23527C2.3019 1.37432 2.27347 1.5007 2.21662 1.61441C2.16054 1.72811 2.07372 1.81877 1.95618 1.88638C1.83863 1.95321 1.68805 1.98663 1.50443 1.98663H0.93284V1.73311H1.49521C1.62198 1.73311 1.72377 1.71121 1.8006 1.66742C1.87743 1.62363 1.93313 1.56447 1.9677 1.48995C2.00304 1.41466 2.02071 1.32976 2.02071 1.23527C2.02071 1.14077 2.00304 1.05626 1.9677 0.981738C1.93313 0.907215 1.87704 0.848827 1.79945 0.806572C1.72185 0.763549 1.61891 0.742037 1.4906 0.742037H0.988156V2.84863H0.702359ZM3.32814 2.88551C3.16834 2.88551 3.02813 2.84748 2.90751 2.77142C2.78766 2.69536 2.69393 2.58896 2.62632 2.45221C2.55948 2.31545 2.52606 2.15565 2.52606 1.97281C2.52606 1.78842 2.55948 1.62747 2.62632 1.48995C2.69393 1.35243 2.78766 1.24564 2.90751 1.16958C3.02813 1.09352 3.16834 1.05549 3.32814 1.05549C3.48794 1.05549 3.62776 1.09352 3.74761 1.16958C3.86823 1.24564 3.96196 1.35243 4.0288 1.48995C4.09641 1.62747 4.13021 1.78842 4.13021 1.97281C4.13021 2.15565 4.09641 2.31545 4.0288 2.45221C3.96196 2.58896 3.86823 2.69536 3.74761 2.77142C3.62776 2.84748 3.48794 2.88551 3.32814 2.88551ZM3.32814 2.6412C3.44952 2.6412 3.5494 2.61009 3.62776 2.54786C3.70612 2.48563 3.76413 2.4038 3.80177 2.30239C3.83942 2.20098 3.85824 2.09112 3.85824 1.97281C3.85824 1.85449 3.83942 1.74425 3.80177 1.64207C3.76413 1.53989 3.70612 1.4573 3.62776 1.3943C3.5494 1.3313 3.44952 1.2998 3.32814 1.2998C3.20675 1.2998 3.10687 1.3313 3.02851 1.3943C2.95015 1.4573 2.89214 1.53989 2.8545 1.64207C2.81685 1.74425 2.79803 1.85449 2.79803 1.97281C2.79803 2.09112 2.81685 2.20098 2.8545 2.30239C2.89214 2.4038 2.95015 2.48563 3.02851 2.54786C3.10687 2.61009 3.20675 2.6412 3.32814 2.6412ZM4.71998 0.488509V2.84863H4.44801V0.488509H4.71998ZM5.12075 2.84863V1.07854H5.39271V2.84863H5.12075ZM5.25904 0.783524C5.20603 0.783524 5.16031 0.76547 5.1219 0.729361C5.08425 0.693252 5.06543 0.649845 5.06543 0.599139C5.06543 0.548434 5.08425 0.505026 5.1219 0.468918C5.16031 0.432809 5.20603 0.414755 5.25904 0.414755C5.31205 0.414755 5.35737 0.432809 5.39502 0.468918C5.43343 0.505026 5.45264 0.548434 5.45264 0.599139C5.45264 0.649845 5.43343 0.693252 5.39502 0.729361C5.35737 0.76547 5.31205 0.783524 5.25904 0.783524ZM7.0473 1.47497L6.80299 1.54411C6.78763 1.50339 6.76496 1.46383 6.735 1.42541C6.70581 1.38623 6.66586 1.35396 6.61515 1.32861C6.56445 1.30326 6.49953 1.29058 6.42039 1.29058C6.31207 1.29058 6.2218 1.31555 6.14958 1.36549C6.07813 1.41466 6.04241 1.47727 6.04241 1.55333C6.04241 1.62094 6.06699 1.67433 6.11616 1.71351C6.16533 1.7527 6.24216 1.78535 6.34664 1.81147L6.60939 1.876C6.76765 1.91442 6.88558 1.97319 6.96318 2.05232C7.04077 2.13068 7.07957 2.23171 7.07957 2.3554C7.07957 2.45682 7.05038 2.54747 6.99199 2.62737C6.93437 2.70727 6.8537 2.77027 6.74998 2.81637C6.64627 2.86246 6.52565 2.88551 6.38813 2.88551C6.20758 2.88551 6.05816 2.84633 5.93984 2.76796C5.82153 2.6896 5.74662 2.57513 5.71512 2.42455L5.97326 2.36001C5.99785 2.45528 6.04433 2.52673 6.1127 2.57436C6.18185 2.62199 6.27212 2.64581 6.38352 2.64581C6.51028 2.64581 6.61093 2.61892 6.68545 2.56514C6.76074 2.51059 6.79838 2.44529 6.79838 2.36923C6.79838 2.30777 6.77687 2.2563 6.73385 2.21481C6.69083 2.17256 6.62475 2.14106 6.53563 2.12031L6.24062 2.05117C6.07851 2.01276 5.95943 1.95321 5.88337 1.87255C5.80808 1.79111 5.77044 1.68931 5.77044 1.56716C5.77044 1.46728 5.79848 1.37893 5.85456 1.30211C5.91142 1.22528 5.98863 1.16497 6.0862 1.12118C6.18454 1.07739 6.29593 1.05549 6.42039 1.05549C6.59556 1.05549 6.73308 1.0939 6.83296 1.17073C6.9336 1.24756 7.00505 1.34897 7.0473 1.47497ZM7.66357 1.78381V2.84863H7.39161V0.488509H7.66357V1.35512H7.68662C7.72811 1.26369 7.79034 1.19109 7.87331 1.13731C7.95705 1.08277 8.06845 1.05549 8.20751 1.05549C8.32813 1.05549 8.43376 1.07969 8.52442 1.12809C8.61508 1.17573 8.68537 1.2491 8.73531 1.3482C8.78602 1.44654 8.81137 1.57177 8.81137 1.72389V2.84863H8.5394V1.74232C8.5394 1.60173 8.50291 1.49302 8.42992 1.41619C8.35771 1.3386 8.25745 1.2998 8.12915 1.2998C8.04003 1.2998 7.96013 1.31862 7.88944 1.35627C7.81953 1.39391 7.76422 1.44885 7.7235 1.52106C7.68355 1.59328 7.66357 1.68086 7.66357 1.78381Z" fill="black"/>
</svg>
