<svg width="27" height="5" viewBox="0 0 27 5" fill="none" xmlns="http://www.w3.org/2000/svg">
<path d="M1.35903 3.26709V0.906966H2.15649C2.34164 0.906966 2.49299 0.940385 2.61054 1.00722C2.72885 1.0733 2.81643 1.1628 2.87328 1.27573C2.93014 1.38867 2.95856 1.51467 2.95856 1.65372C2.95856 1.79278 2.93014 1.91916 2.87328 2.03286C2.8172 2.14657 2.73039 2.23722 2.61284 2.30483C2.4953 2.37167 2.34472 2.40509 2.1611 2.40509H1.58951V2.15156H2.15188C2.27864 2.15156 2.38044 2.12967 2.45727 2.08588C2.53409 2.04208 2.58979 1.98293 2.62437 1.9084C2.65971 1.83311 2.67738 1.74822 2.67738 1.65372C2.67738 1.55923 2.65971 1.47472 2.62437 1.40019C2.58979 1.32567 2.53371 1.26728 2.45611 1.22503C2.37852 1.18201 2.27557 1.16049 2.14727 1.16049H1.64482V3.26709H1.35903ZM3.28472 3.26709V1.497H3.54746V1.76435H3.5659C3.59817 1.67677 3.65656 1.60571 3.74107 1.55116C3.82558 1.49661 3.92084 1.46934 4.02686 1.46934C4.04684 1.46934 4.07181 1.46972 4.10177 1.47049C4.13173 1.47126 4.1544 1.47241 4.16976 1.47395V1.75053C4.16054 1.74822 4.13942 1.74476 4.10638 1.74015C4.07411 1.73478 4.03993 1.73209 4.00382 1.73209C3.91777 1.73209 3.84094 1.75014 3.77334 1.78625C3.7065 1.82159 3.65349 1.87076 3.6143 1.93376C3.57589 1.99599 3.55668 2.06705 3.55668 2.14695V3.26709H3.28472ZM5.08307 3.30397C4.91251 3.30397 4.76539 3.26632 4.6417 3.19103C4.51877 3.11497 4.42389 3.00895 4.35705 2.87297C4.29098 2.73622 4.25794 2.57718 4.25794 2.39587C4.25794 2.21456 4.29098 2.05476 4.35705 1.91647C4.42389 1.77742 4.51685 1.66909 4.63593 1.59149C4.75578 1.51313 4.89561 1.47395 5.05541 1.47395C5.1476 1.47395 5.23864 1.48931 5.32853 1.52004C5.41842 1.55078 5.50024 1.60071 5.57399 1.66986C5.64774 1.73823 5.70652 1.82889 5.75031 1.94182C5.7941 2.05476 5.816 2.19382 5.816 2.359V2.47424H4.45155V2.23915H5.53942C5.53942 2.13927 5.51944 2.05015 5.47949 1.97179C5.44031 1.89342 5.38423 1.83158 5.31124 1.78625C5.23902 1.74092 5.15375 1.71826 5.05541 1.71826C4.94708 1.71826 4.85335 1.74515 4.77422 1.79893C4.69586 1.85194 4.63555 1.92108 4.59329 2.00636C4.55104 2.09164 4.52991 2.18306 4.52991 2.28063V2.43736C4.52991 2.57104 4.55296 2.68436 4.59906 2.77732C4.64592 2.86951 4.71084 2.93981 4.79381 2.98821C4.87679 3.03584 4.9732 3.05966 5.08307 3.05966C5.15452 3.05966 5.21905 3.04967 5.27667 3.02969C5.33506 3.00895 5.38538 2.97822 5.42764 2.9375C5.46989 2.89602 5.50254 2.84454 5.52559 2.78308L5.78834 2.85683C5.76068 2.94595 5.7142 3.02432 5.6489 3.09192C5.58359 3.15876 5.50293 3.21101 5.40689 3.24865C5.31086 3.28553 5.20292 3.30397 5.08307 3.30397ZM6.13235 3.26709V1.497H6.3951V1.77357H6.41815C6.45503 1.67908 6.51457 1.60571 6.59677 1.55346C6.67898 1.50045 6.7777 1.47395 6.89294 1.47395C7.00972 1.47395 7.1069 1.50045 7.1845 1.55346C7.26286 1.60571 7.32394 1.67908 7.36773 1.77357H7.38617C7.4315 1.68215 7.49949 1.60955 7.59015 1.55577C7.6808 1.50122 7.78951 1.47395 7.91628 1.47395C8.07454 1.47395 8.20399 1.5235 8.30464 1.62261C8.40528 1.72095 8.4556 1.87422 8.4556 2.08242V3.26709H8.18363V2.08242C8.18363 1.95181 8.14791 1.85847 8.07646 1.80238C8.00501 1.7463 7.92089 1.71826 7.82408 1.71826C7.69962 1.71826 7.60321 1.7559 7.53483 1.83119C7.46645 1.90572 7.43227 2.00021 7.43227 2.11469V3.26709H7.15569V2.05476C7.15569 1.95412 7.12304 1.87306 7.05773 1.8116C6.99243 1.74937 6.90831 1.71826 6.80536 1.71826C6.73468 1.71826 6.66861 1.73708 6.60714 1.77473C6.54645 1.81237 6.49728 1.86461 6.45964 1.93145C6.42276 1.99752 6.40432 2.07397 6.40432 2.16078V3.26709H6.13235ZM8.85551 3.26709V1.497H9.12748V3.26709H8.85551ZM8.9938 1.20198C8.94079 1.20198 8.89507 1.18393 8.85666 1.14782C8.81901 1.11171 8.80019 1.0683 8.80019 1.0176C8.80019 0.966891 8.81901 0.923483 8.85666 0.887375C8.89507 0.851266 8.94079 0.833212 8.9938 0.833212C9.04681 0.833212 9.09213 0.851266 9.12978 0.887375C9.16819 0.923483 9.1874 0.966891 9.1874 1.0176C9.1874 1.0683 9.16819 1.11171 9.12978 1.14782C9.09213 1.18393 9.04681 1.20198 8.9938 1.20198ZM10.6438 2.54338V1.497H10.9157V3.26709H10.6438V2.96746H10.6253C10.5839 3.05735 10.5193 3.1338 10.4317 3.19679C10.3442 3.25902 10.2335 3.29014 10.0998 3.29014C9.98921 3.29014 9.89087 3.26594 9.80482 3.21754C9.71878 3.16837 9.65117 3.09461 9.602 2.99627C9.55283 2.89717 9.52825 2.77232 9.52825 2.62174V1.497H9.80022V2.6033C9.80022 2.73237 9.83632 2.83532 9.90854 2.91215C9.98153 2.98898 10.0745 3.02739 10.1874 3.02739C10.255 3.02739 10.3238 3.0101 10.3937 2.97553C10.4644 2.94096 10.5235 2.88795 10.5712 2.8165C10.6196 2.74505 10.6438 2.65401 10.6438 2.54338ZM11.3165 3.26709V1.497H11.5793V1.77357H11.6023C11.6392 1.67908 11.6987 1.60571 11.7809 1.55346C11.8631 1.50045 11.9619 1.47395 12.0771 1.47395C12.1939 1.47395 12.2911 1.50045 12.3687 1.55346C12.447 1.60571 12.5081 1.67908 12.5519 1.77357H12.5703C12.6157 1.68215 12.6836 1.60955 12.7743 1.55577C12.865 1.50122 12.9737 1.47395 13.1004 1.47395C13.2587 1.47395 13.3882 1.5235 13.4888 1.62261C13.5894 1.72095 13.6398 1.87422 13.6398 2.08242V3.26709H13.3678V2.08242C13.3678 1.95181 13.3321 1.85847 13.2606 1.80238C13.1892 1.7463 13.105 1.71826 13.0082 1.71826C12.8838 1.71826 12.7874 1.7559 12.719 1.83119C12.6506 1.90572 12.6164 2.00021 12.6164 2.11469V3.26709H12.3398V2.05476C12.3398 1.95412 12.3072 1.87306 12.2419 1.8116C12.1766 1.74937 12.0925 1.71826 11.9895 1.71826C11.9188 1.71826 11.8528 1.73708 11.7913 1.77473C11.7306 1.81237 11.6814 1.86461 11.6438 1.93145C11.6069 1.99752 11.5885 2.07397 11.5885 2.16078V3.26709H11.3165ZM14.8919 3.26709V0.906966H15.6894C15.8737 0.906966 16.0251 0.938465 16.1434 1.00146C16.2617 1.06369 16.3493 1.14935 16.4062 1.25845C16.463 1.36754 16.4914 1.49162 16.4914 1.63068C16.4914 1.76973 16.463 1.89304 16.4062 2.0006C16.3493 2.10816 16.2621 2.19266 16.1446 2.25413C16.027 2.31482 15.8768 2.34517 15.694 2.34517H15.0486V2.08703H15.6847C15.8107 2.08703 15.9122 2.06859 15.989 2.03171C16.0666 1.99484 16.1227 1.94259 16.1572 1.87499C16.1926 1.80661 16.2102 1.72517 16.2102 1.63068C16.2102 1.53618 16.1926 1.45359 16.1572 1.38291C16.1219 1.31223 16.0654 1.25768 15.9878 1.21927C15.9102 1.18009 15.8077 1.16049 15.6801 1.16049H15.1777V3.26709H14.8919ZM16.0028 2.20688L16.5836 3.26709H16.2517L15.6801 2.20688H16.0028ZM17.5566 3.30397C17.386 3.30397 17.2389 3.26632 17.1152 3.19103C16.9923 3.11497 16.8974 3.00895 16.8306 2.87297C16.7645 2.73622 16.7314 2.57718 16.7314 2.39587C16.7314 2.21456 16.7645 2.05476 16.8306 1.91647C16.8974 1.77742 16.9904 1.66909 17.1094 1.59149C17.2293 1.51313 17.3691 1.47395 17.5289 1.47395C17.6211 1.47395 17.7121 1.48931 17.802 1.52004C17.8919 1.55078 17.9737 1.60071 18.0475 1.66986C18.1212 1.73823 18.18 1.82889 18.2238 1.94182C18.2676 2.05476 18.2895 2.19382 18.2895 2.359V2.47424H16.925V2.23915H18.0129C18.0129 2.13927 17.9929 2.05015 17.953 1.97179C17.9138 1.89342 17.8577 1.83158 17.7847 1.78625C17.7125 1.74092 17.6272 1.71826 17.5289 1.71826C17.4206 1.71826 17.3269 1.74515 17.2477 1.79893C17.1694 1.85194 17.109 1.92108 17.0668 2.00636C17.0245 2.09164 17.0034 2.18306 17.0034 2.28063V2.43736C17.0034 2.57104 17.0265 2.68436 17.0726 2.77732C17.1194 2.86951 17.1843 2.93981 17.2673 2.98821C17.3503 3.03584 17.4467 3.05966 17.5566 3.05966C17.628 3.05966 17.6925 3.04967 17.7502 3.02969C17.8086 3.00895 17.8589 2.97822 17.9011 2.9375C17.9434 2.89602 17.976 2.84454 17.9991 2.78308L18.2618 2.85683C18.2342 2.94595 18.1877 3.02432 18.1224 3.09192C18.0571 3.15876 17.9764 3.21101 17.8804 3.24865C17.7844 3.28553 17.6764 3.30397 17.5566 3.30397ZM19.8597 1.89342L19.6154 1.96257C19.6 1.92185 19.5773 1.88228 19.5474 1.84387C19.5182 1.80469 19.4782 1.77242 19.4275 1.74707C19.3768 1.72172 19.3119 1.70904 19.2328 1.70904C19.1244 1.70904 19.0342 1.73401 18.9619 1.78395C18.8905 1.83311 18.8548 1.89573 18.8548 1.97179C18.8548 2.03939 18.8794 2.09279 18.9285 2.13197C18.9777 2.17115 19.0545 2.2038 19.159 2.22993L19.4218 2.29446C19.58 2.33287 19.6979 2.39165 19.7755 2.47078C19.8531 2.54914 19.8919 2.65017 19.8919 2.77386C19.8919 2.87527 19.8627 2.96593 19.8044 3.04583C19.7467 3.12573 19.6661 3.18873 19.5623 3.23482C19.4586 3.28092 19.338 3.30397 19.2005 3.30397C19.02 3.30397 18.8705 3.26479 18.7522 3.18642C18.6339 3.10806 18.559 2.99359 18.5275 2.843L18.7856 2.77847C18.8102 2.87374 18.8567 2.94518 18.9251 2.99282C18.9942 3.04045 19.0845 3.06427 19.1959 3.06427C19.3226 3.06427 19.4233 3.03738 19.4978 2.9836C19.5731 2.92905 19.6107 2.86375 19.6107 2.78769C19.6107 2.72623 19.5892 2.67475 19.5462 2.63327C19.5032 2.59101 19.4371 2.55951 19.348 2.53877L19.053 2.46963C18.8909 2.43121 18.7718 2.37167 18.6957 2.291C18.6205 2.20957 18.5828 2.10777 18.5828 1.98562C18.5828 1.88574 18.6108 1.79739 18.6669 1.72056C18.7238 1.64374 18.801 1.58343 18.8986 1.53964C18.9969 1.49584 19.1083 1.47395 19.2328 1.47395C19.4079 1.47395 19.5454 1.51236 19.6453 1.58919C19.746 1.66602 19.8174 1.76743 19.8597 1.89342ZM20.9461 3.30397C20.7756 3.30397 20.6284 3.26632 20.5048 3.19103C20.3818 3.11497 20.2869 3.00895 20.2201 2.87297C20.154 2.73622 20.121 2.57718 20.121 2.39587C20.121 2.21456 20.154 2.05476 20.2201 1.91647C20.2869 1.77742 20.3799 1.66909 20.499 1.59149C20.6188 1.51313 20.7587 1.47395 20.9185 1.47395C21.0107 1.47395 21.1017 1.48931 21.1916 1.52004C21.2815 1.55078 21.3633 1.60071 21.437 1.66986C21.5108 1.73823 21.5696 1.82889 21.6134 1.94182C21.6572 2.05476 21.6791 2.19382 21.6791 2.359V2.47424H20.3146V2.23915H21.4025C21.4025 2.13927 21.3825 2.05015 21.3425 1.97179C21.3034 1.89342 21.2473 1.83158 21.1743 1.78625C21.1021 1.74092 21.0168 1.71826 20.9185 1.71826C20.8101 1.71826 20.7164 1.74515 20.6373 1.79893C20.5589 1.85194 20.4986 1.92108 20.4563 2.00636C20.4141 2.09164 20.393 2.18306 20.393 2.28063V2.43736C20.393 2.57104 20.416 2.68436 20.4621 2.77732C20.509 2.86951 20.5739 2.93981 20.6569 2.98821C20.7398 3.03584 20.8363 3.05966 20.9461 3.05966C21.0176 3.05966 21.0821 3.04967 21.1397 3.02969C21.1981 3.00895 21.2484 2.97822 21.2907 2.9375C21.3329 2.89602 21.3656 2.84454 21.3886 2.78308L21.6514 2.85683C21.6237 2.94595 21.5773 3.02432 21.512 3.09192C21.4466 3.15876 21.366 3.21101 21.2699 3.24865C21.1739 3.28553 21.066 3.30397 20.9461 3.30397ZM22.2674 0.906966V3.26709H21.9954V0.906966H22.2674ZM22.9401 0.906966V3.26709H22.6681V0.906966H22.9401ZM24.083 3.30397C23.9125 3.30397 23.7654 3.26632 23.6417 3.19103C23.5187 3.11497 23.4239 3.00895 23.357 2.87297C23.2909 2.73622 23.2579 2.57718 23.2579 2.39587C23.2579 2.21456 23.2909 2.05476 23.357 1.91647C23.4239 1.77742 23.5168 1.66909 23.6359 1.59149C23.7558 1.51313 23.8956 1.47395 24.0554 1.47395C24.1476 1.47395 24.2386 1.48931 24.3285 1.52004C24.4184 1.55078 24.5002 1.60071 24.574 1.66986C24.6477 1.73823 24.7065 1.82889 24.7503 1.94182C24.7941 2.05476 24.816 2.19382 24.816 2.359V2.47424H23.4515V2.23915H24.5394C24.5394 2.13927 24.5194 2.05015 24.4795 1.97179C24.4403 1.89342 24.3842 1.83158 24.3112 1.78625C24.239 1.74092 24.1537 1.71826 24.0554 1.71826C23.9471 1.71826 23.8533 1.74515 23.7742 1.79893C23.6958 1.85194 23.6355 1.92108 23.5933 2.00636C23.551 2.09164 23.5299 2.18306 23.5299 2.28063V2.43736C23.5299 2.57104 23.5529 2.68436 23.599 2.77732C23.6459 2.86951 23.7108 2.93981 23.7938 2.98821C23.8768 3.03584 23.9732 3.05966 24.083 3.05966C24.1545 3.05966 24.219 3.04967 24.2766 3.02969C24.335 3.00895 24.3853 2.97822 24.4276 2.9375C24.4699 2.89602 24.5025 2.84454 24.5256 2.78308L24.7883 2.85683C24.7606 2.94595 24.7142 3.02432 24.6489 3.09192C24.5836 3.15876 24.5029 3.21101 24.4069 3.24865C24.3108 3.28553 24.2029 3.30397 24.083 3.30397ZM25.1323 3.26709V1.497H25.3951V1.76435H25.4135C25.4458 1.67677 25.5042 1.60571 25.5887 1.55116C25.6732 1.49661 25.7684 1.46934 25.8745 1.46934C25.8944 1.46934 25.9194 1.46972 25.9494 1.47049C25.9793 1.47126 26.002 1.47241 26.0174 1.47395V1.75053C26.0081 1.74822 25.987 1.74476 25.954 1.74015C25.9217 1.73478 25.8875 1.73209 25.8514 1.73209C25.7654 1.73209 25.6885 1.75014 25.6209 1.78625C25.5541 1.82159 25.5011 1.87076 25.4619 1.93376C25.4235 1.99599 25.4043 2.06705 25.4043 2.14695V3.26709H25.1323Z" fill="black"/>
</svg>
