<svg width="14" height="9" viewBox="0 0 14 9" fill="none" xmlns="http://www.w3.org/2000/svg">
<g clip-path="url(#clip0_3790_6655)">
<path fill-rule="evenodd" clip-rule="evenodd" d="M13.1019 3.98885C13.1865 3.98885 13.2711 4.01115 13.3434 4.05909C13.4202 4.10368 13.4792 4.16611 13.5226 4.24303C13.5671 4.31996 13.5882 4.40468 13.5882 4.48941C13.5882 4.58528 13.566 4.6767 13.5226 4.75362C13.4781 4.83501 13.4202 4.89744 13.3434 4.94426C13.2666 4.98885 13.182 5.01449 13.0908 5.01449C12.9995 5.01449 12.9149 4.9922 12.8382 4.94872C12.7614 4.90412 12.699 4.84169 12.6545 4.76477C12.61 4.68785 12.5889 4.60312 12.5889 4.51171C12.5889 4.42029 12.6111 4.33222 12.6545 4.25418C12.699 4.17726 12.7569 4.11483 12.8337 4.06689C12.9105 4.01895 12.9951 3.99666 13.0908 3.99331H13.1019V3.98997V3.98885ZM13.3512 4.9476C13.428 4.89967 13.487 4.83723 13.5304 4.75697C13.5749 4.67558 13.596 4.58751 13.596 4.48829C13.596 4.40022 13.5738 4.3155 13.5304 4.23857C13.4859 4.16165 13.4235 4.09922 13.3467 4.05128C13.27 4.00334 13.1887 3.98105 13.1008 3.98105H13.0897C12.994 3.98439 12.906 4.01003 12.8293 4.05797C12.7525 4.10591 12.6901 4.16834 12.6456 4.24526C12.6011 4.32219 12.58 4.41026 12.58 4.50613C12.58 4.59755 12.6022 4.68562 12.6501 4.76366C12.6979 4.84058 12.7603 4.90747 12.837 4.95095C12.9138 4.99554 13.0017 5.02118 13.0941 5.02118C13.1854 5.01784 13.2733 4.99554 13.3512 4.9476ZM13.4246 3.91193C13.5315 3.97436 13.6149 4.05574 13.6739 4.15831C13.7362 4.26087 13.7652 4.37458 13.7652 4.4961C13.7652 4.61761 13.7362 4.73133 13.6739 4.83723C13.6116 4.94426 13.5304 5.02453 13.428 5.08696C13.3256 5.14939 13.2121 5.17837 13.0908 5.17837C12.9695 5.17837 12.856 5.14939 12.7536 5.08696C12.6467 5.02787 12.5666 4.94314 12.5043 4.84058C12.442 4.73802 12.413 4.6243 12.413 4.50279C12.413 4.38127 12.442 4.26756 12.5043 4.16165C12.5633 4.05463 12.6479 3.97101 12.7502 3.90858C12.8526 3.84615 12.9628 3.81717 13.0841 3.81717C13.201 3.82051 13.3189 3.85061 13.4246 3.91304V3.91193ZM13.4324 5.09476C13.5348 5.03233 13.6194 4.9476 13.6817 4.84169C13.744 4.73467 13.773 4.62096 13.773 4.4961C13.773 4.37458 13.7396 4.26087 13.6773 4.15496C13.6149 4.0524 13.5304 3.96767 13.4246 3.90524C13.3178 3.84281 13.201 3.81382 13.0763 3.81382C12.9517 3.81382 12.8448 3.84727 12.7391 3.9097C12.6367 3.97213 12.5521 4.05686 12.4932 4.16276C12.4308 4.26979 12.4019 4.3835 12.4019 4.50836C12.4019 4.62988 12.4353 4.74359 12.4932 4.8495C12.5555 4.95206 12.6401 5.03679 12.7458 5.09587C12.8526 5.15831 12.9661 5.18729 13.0863 5.18729C13.2143 5.18729 13.3278 5.15385 13.4313 5.09587L13.4324 5.09476ZM13.1019 3.98551C13.1898 3.98551 13.2711 4.0078 13.3479 4.05574C13.4246 4.10033 13.4836 4.16277 13.527 4.24303C13.5715 4.32441 13.5927 4.40468 13.5927 4.49275C13.5927 4.59197 13.5704 4.68004 13.527 4.76143C13.4825 4.84281 13.4246 4.90524 13.3479 4.95206C13.2711 4.99665 13.1865 5.0223 13.0952 5.0223C13.004 5.0223 12.9194 5 12.8382 4.95652C12.7614 4.91193 12.699 4.8495 12.6512 4.76923C12.6067 4.69231 12.5855 4.60758 12.5855 4.51171C12.5855 4.41583 12.6078 4.33222 12.6512 4.25084C12.6957 4.17391 12.758 4.11148 12.8348 4.06355C12.9116 4.01561 12.9995 3.98997 13.0952 3.98997H13.103V3.98662L13.1019 3.98551ZM12.7458 3.91193C12.6434 3.97436 12.5622 4.05909 12.4998 4.16499C12.4375 4.27202 12.4086 4.38573 12.4086 4.50613C12.4086 4.62765 12.4375 4.74136 12.4998 4.84392C12.5622 4.94649 12.6467 5.03122 12.7491 5.0903C12.856 5.15273 12.9695 5.18172 13.0897 5.18172C13.211 5.18172 13.3245 5.15273 13.4269 5.0903C13.5293 5.02787 13.6138 4.94314 13.6762 4.84058C13.7385 4.73356 13.7674 4.61984 13.7674 4.49944C13.7674 4.37793 13.7385 4.26421 13.6762 4.16165C13.6138 4.05909 13.5293 3.97436 13.4235 3.91193C13.3167 3.8495 13.2032 3.82051 13.0785 3.82051C12.9572 3.81717 12.8471 3.84615 12.7447 3.91193H12.7458ZM11.7631 4.42252C11.7631 4.1282 11.6418 3.98216 11.407 3.98216C11.2712 3.98216 11.1722 4.03344 11.1065 4.13266C11.0843 4.16945 11.0698 4.20624 11.062 4.24303C11.0542 4.27982 11.0509 4.34225 11.0509 4.42252V5.14939H10.8784V4.40357C10.8784 4.32999 10.8706 4.27536 10.8606 4.23411C10.8461 4.18618 10.8205 4.13824 10.7871 4.10145C10.7537 4.06132 10.7103 4.03122 10.6658 4.01003C10.618 3.98774 10.5701 3.97659 10.5189 3.97659C10.4644 3.97659 10.4087 3.99108 10.3576 4.01338C10.3064 4.03902 10.2618 4.07581 10.2362 4.11594C10.2107 4.14939 10.1962 4.18952 10.1851 4.22631C10.1773 4.26644 10.1706 4.32219 10.1706 4.39576V5.14158H10.0014V3.83723H10.1595V4.03233L10.1672 4.02118C10.2151 3.9476 10.2663 3.89298 10.3253 3.85953C10.3843 3.82609 10.461 3.81159 10.5568 3.81159C10.6591 3.81159 10.7437 3.83389 10.8094 3.87402C10.875 3.91862 10.9262 3.98439 10.9674 4.07581L10.9707 4.08361L10.9741 4.07581C11.0219 3.97993 11.0809 3.91416 11.1499 3.86957C11.22 3.82943 11.3035 3.80713 11.4103 3.80713C11.5238 3.80713 11.6196 3.82943 11.6997 3.87291C11.7765 3.9175 11.8388 3.98328 11.8755 4.07135C11.9156 4.15942 11.9345 4.26644 11.9345 4.3913V5.13378H11.7653V4.4214H11.762L11.7631 4.42252ZM11.939 4.40803C11.939 4.27982 11.9167 4.1728 11.88 4.08473C11.8399 3.99666 11.7776 3.93088 11.7008 3.88629C11.6196 3.84169 11.5216 3.82051 11.407 3.82051C11.3002 3.82051 11.2122 3.84281 11.1432 3.88629C11.0776 3.92642 11.0186 3.99331 10.9707 4.08473C10.934 3.99331 10.8795 3.92642 10.8127 3.88629C10.7471 3.84169 10.6591 3.82051 10.5556 3.82051C10.4599 3.82051 10.3831 3.83501 10.3208 3.86845C10.2618 3.89744 10.2107 3.94983 10.1672 4.01895V3.83946H9.99475V5.15831H10.1784V4.4058C10.1784 4.33222 10.1817 4.27759 10.1928 4.23634C10.2006 4.19955 10.2184 4.16276 10.244 4.12598C10.2696 4.08584 10.3097 4.04905 10.3609 4.02341C10.4121 3.99777 10.4633 3.98662 10.5189 3.98662C10.5701 3.98662 10.618 3.99777 10.6658 4.02007C10.7103 4.04236 10.7504 4.07135 10.7871 4.10814C10.8205 4.14493 10.8461 4.18952 10.8606 4.23634C10.8717 4.27648 10.8784 4.33222 10.8784 4.4058V5.15831H11.0653V4.42363C11.0653 4.34225 11.0687 4.27982 11.0765 4.24415C11.0843 4.20736 11.0987 4.17057 11.1165 4.13378C11.1822 4.03456 11.2812 3.98662 11.4137 3.98662C11.6452 3.98662 11.762 4.13378 11.762 4.42363V5.15831H11.9456V4.40914H11.9378L11.939 4.40803ZM10.1717 5.15385V4.40468C10.1717 4.3311 10.175 4.27648 10.1862 4.23523C10.194 4.1951 10.2118 4.15831 10.2374 4.12486C10.2663 4.08473 10.3075 4.04794 10.3587 4.0223C10.4099 3.99666 10.4655 3.98551 10.52 3.98551C10.5712 3.98551 10.6191 3.99666 10.6669 4.01895C10.7148 4.04125 10.7548 4.07023 10.7882 4.10702C10.8216 4.14381 10.8472 4.18841 10.8617 4.23523C10.8728 4.27536 10.8795 4.3311 10.8795 4.40468V5.15385H11.0587V4.42252C11.0587 4.34114 11.062 4.27871 11.0698 4.24303C11.0776 4.20624 11.0921 4.16945 11.1143 4.13266C11.18 4.03344 11.279 3.98551 11.4148 3.98551C11.6496 3.98551 11.7665 4.13266 11.7665 4.42252V5.15385H11.9423V4.40803C11.9423 4.27982 11.9245 4.1728 11.8833 4.08473C11.8432 3.99666 11.7843 3.93088 11.7041 3.88629C11.6229 3.84169 11.5283 3.82051 11.4148 3.82051C11.3079 3.82051 11.22 3.84281 11.1544 3.88294C11.0843 3.92308 11.0264 3.99331 10.9785 4.08919C10.9418 3.99777 10.8873 3.92754 10.8205 3.88294C10.7548 3.83835 10.6669 3.81717 10.5634 3.81717C10.4677 3.81717 10.3909 3.83166 10.332 3.86511C10.273 3.89855 10.2184 3.94983 10.1739 4.02676V3.83946H10.0092V5.1505H10.1706V5.15385H10.1717ZM8.91415 4.77146C8.91749 4.84504 8.94308 4.90412 8.98426 4.9476C9.02878 4.99554 9.08665 5.01784 9.15676 5.01784C9.22242 5.01784 9.27806 4.99554 9.32146 4.95541C9.36598 4.91527 9.38712 4.85953 9.38712 4.7971C9.38712 4.72687 9.36153 4.67224 9.31033 4.62765C9.27361 4.5942 9.21129 4.56856 9.13116 4.54292C9.04992 4.51728 8.99205 4.49498 8.95199 4.47269C8.84515 4.40691 8.79062 4.30769 8.79062 4.17837C8.79062 4.07915 8.82734 3.99108 8.90079 3.92085C8.97091 3.85061 9.05882 3.81382 9.16455 3.81382C9.26693 3.81382 9.35151 3.84727 9.41717 3.91304C9.48283 3.97547 9.51956 4.0602 9.52734 4.16276H9.35485C9.35151 4.10368 9.33259 4.0602 9.29587 4.02676C9.25914 3.99331 9.21129 3.97547 9.1523 3.97547C9.09777 3.97547 9.05326 3.99331 9.01653 4.0301C8.97981 4.06689 8.962 4.11148 8.962 4.16611C8.962 4.22074 8.97981 4.26867 9.02099 4.30546C9.04658 4.3233 9.0655 4.33445 9.08331 4.34225C9.10111 4.35006 9.13784 4.36455 9.19682 4.38239C9.28474 4.41137 9.35485 4.44147 9.40938 4.47826C9.46057 4.51171 9.50064 4.55184 9.52289 4.59978C9.54515 4.64437 9.55962 4.699 9.55962 4.76477C9.55962 4.88183 9.51956 4.98105 9.44277 5.05909C9.36598 5.13601 9.26693 5.17614 9.14897 5.17614C9.07218 5.17614 9.00207 5.15831 8.94308 5.12486C8.88076 5.09142 8.83291 5.04013 8.79952 4.9777C8.76614 4.91527 8.74833 4.84504 8.74833 4.76812H8.91304L8.91415 4.77146ZM9.44611 5.06912C9.52289 4.98774 9.56296 4.88963 9.56296 4.76812C9.56296 4.70234 9.55183 4.6466 9.52623 4.59866C9.50064 4.55072 9.46391 4.51059 9.40938 4.4738C9.35485 4.44036 9.2814 4.40803 9.19682 4.37793C9.13784 4.36009 9.10111 4.34448 9.08331 4.33779C9.0655 4.32999 9.04658 4.31996 9.02099 4.301C8.98426 4.26421 8.96645 4.21962 8.96645 4.16834C8.96645 4.11706 8.98426 4.07246 9.01765 4.04013C9.05103 4.00334 9.09444 3.98885 9.15008 3.98885C9.20906 3.98885 9.25692 4.00334 9.28919 4.03679C9.32258 4.07023 9.34372 4.11371 9.34372 4.1728V4.17614H9.53068V4.1728C9.52289 4.06577 9.48617 3.9777 9.41717 3.91193C9.35151 3.84615 9.26359 3.81271 9.1601 3.81271C9.0566 3.81271 8.96534 3.8495 8.89189 3.91973C8.81844 3.99331 8.78172 4.07804 8.78172 4.1806C8.78172 4.31327 8.83625 4.41249 8.94642 4.47826C8.98315 4.50056 9.04547 4.5262 9.1256 4.54849C9.20684 4.57079 9.26471 4.59978 9.30143 4.63322C9.34929 4.67336 9.37488 4.7291 9.37488 4.79487C9.37488 4.8573 9.35262 4.90858 9.31256 4.94872C9.26804 4.98885 9.21685 5.01115 9.15119 5.01115C9.08553 5.01115 9.02655 4.98885 8.98649 4.94537C8.94197 4.90078 8.92083 4.84281 8.91638 4.76923V4.76589H8.73275V4.76923C8.73275 4.85061 8.75056 4.92308 8.78394 4.98551C8.81733 5.04794 8.86852 5.09922 8.93084 5.13601C8.99316 5.1728 9.06327 5.19064 9.14006 5.19064C9.26471 5.18729 9.36709 5.14604 9.44388 5.06912H9.44611ZM8.79396 4.98439C8.82734 5.04682 8.87854 5.0981 8.93752 5.13155C8.99984 5.16834 9.06995 5.18283 9.14674 5.18283C9.26804 5.18283 9.36709 5.1427 9.44388 5.06577C9.52067 4.98439 9.56073 4.88629 9.56073 4.76812C9.56073 4.70234 9.5496 4.6466 9.52401 4.60312C9.50175 4.55518 9.46169 4.51505 9.41049 4.48161C9.35596 4.44816 9.28585 4.41583 9.19793 4.38573C9.13895 4.36789 9.10223 4.35229 9.08442 4.3456C9.06661 4.33779 9.04769 4.32776 9.0221 4.30881C8.98537 4.27202 8.96312 4.22742 8.96312 4.1728C8.96312 4.12152 8.98092 4.07692 9.01765 4.04013C9.05437 4.00334 9.09889 3.98551 9.15008 3.98551C9.20906 3.98551 9.25692 4.00334 9.29364 4.03679C9.33037 4.07023 9.34817 4.11371 9.35262 4.1728H9.53291C9.52512 4.06577 9.48839 3.98216 9.42273 3.91527C9.35707 3.8495 9.2725 3.81605 9.17011 3.81605C9.06773 3.81605 8.97536 3.85284 8.90636 3.92308C8.83291 3.99331 8.79618 4.08138 8.79618 4.18395C8.79618 4.31215 8.85071 4.41137 8.96089 4.47826C8.99761 4.50056 9.05994 4.52285 9.14006 4.54849C9.2213 4.57079 9.27917 4.59978 9.31924 4.63322C9.37043 4.67781 9.39269 4.73244 9.39269 4.79822C9.39269 4.86065 9.37043 4.91193 9.32703 4.95652C9.28251 4.99666 9.22798 5.01895 9.16232 5.01895C9.09221 5.01895 9.03768 4.99666 8.99316 4.94872C8.94865 4.90412 8.9275 4.84169 8.92305 4.76923H8.74722C8.74388 4.85061 8.76169 4.91973 8.79507 4.98551L8.79396 4.98439ZM7.7089 3.98885C7.79348 3.98885 7.87806 4.01115 7.9504 4.05909C8.02719 4.10368 8.08617 4.16611 8.12957 4.24303C8.17409 4.31996 8.19523 4.40468 8.19523 4.48941C8.19523 4.58528 8.17297 4.6767 8.12957 4.75362C8.08506 4.83501 8.02719 4.89744 7.9504 4.94426C7.87361 4.98885 7.78903 5.01449 7.69777 5.01449C7.60652 5.01449 7.52194 4.9922 7.44515 4.94872C7.36836 4.90412 7.30604 4.84169 7.26153 4.76477C7.21701 4.68785 7.19587 4.60312 7.19587 4.51171C7.19587 4.42029 7.21812 4.33222 7.26153 4.25418C7.30604 4.17726 7.36391 4.11483 7.4407 4.06689C7.51749 4.01895 7.60207 3.99666 7.69777 3.99331H7.7089V3.98997V3.98885ZM7.95819 4.9476C8.03498 4.89967 8.09396 4.83723 8.13736 4.75697C8.18188 4.67558 8.20302 4.58751 8.20302 4.48829C8.20302 4.40022 8.18076 4.3155 8.13736 4.23857C8.09285 4.16165 8.03053 4.09922 7.95374 4.05128C7.87695 4.00334 7.79571 3.98105 7.70779 3.98105H7.69666C7.60095 3.98439 7.51304 4.01003 7.43625 4.05797C7.35946 4.10591 7.29714 4.16834 7.25262 4.24526C7.20811 4.32219 7.18696 4.41026 7.18696 4.50613C7.18696 4.60201 7.20922 4.68562 7.25707 4.76366C7.30493 4.84058 7.36725 4.90747 7.44404 4.95095C7.52083 4.99554 7.60874 5.02118 7.70111 5.02118C7.79237 5.02118 7.88029 4.99554 7.95819 4.9476ZM8.03164 3.91193C8.13847 3.97436 8.22194 4.05574 8.28092 4.15831C8.34324 4.26087 8.37218 4.37458 8.37218 4.4961C8.37218 4.61761 8.34324 4.73133 8.28092 4.83723C8.2186 4.94426 8.13736 5.02453 8.03498 5.08696C7.93259 5.14939 7.81908 5.17837 7.69777 5.17837C7.57647 5.17837 7.46296 5.14939 7.36057 5.08696C7.25374 5.02787 7.17361 4.94314 7.11129 4.84058C7.04897 4.73802 7.02003 4.6243 7.02003 4.50279C7.02003 4.38127 7.04897 4.26756 7.11129 4.16165C7.17027 4.05463 7.25485 3.97101 7.35723 3.90858C7.45962 3.84615 7.56979 3.81717 7.6911 3.81717C7.8124 3.82051 7.92925 3.85061 8.03164 3.91304V3.91193ZM8.04277 5.09476C8.14515 5.03233 8.22973 4.9476 8.29205 4.84169C8.35437 4.73467 8.38331 4.62096 8.38331 4.4961C8.38331 4.37458 8.34992 4.26087 8.2876 4.15496C8.22528 4.0524 8.1407 3.96767 8.03498 3.90524C7.92814 3.84281 7.81129 3.81382 7.68665 3.81382C7.56534 3.81382 7.45517 3.84727 7.35278 3.9097C7.2504 3.97213 7.16582 4.05686 7.10684 4.16276C7.04452 4.26979 7.01558 4.3835 7.01558 4.50836C7.01558 4.62988 7.04897 4.74359 7.10684 4.8495C7.16916 4.95206 7.25374 5.03679 7.35946 5.09587C7.4663 5.15831 7.57981 5.18729 7.7 5.18729C7.8213 5.18729 7.93482 5.15385 8.04054 5.09587L8.04277 5.09476ZM7.7089 3.98551C7.79682 3.98551 7.87806 4.0078 7.95485 4.05574C8.03164 4.10033 8.09062 4.16277 8.13402 4.24303C8.17854 4.32441 8.19968 4.40468 8.19968 4.49275C8.19968 4.59197 8.17742 4.68004 8.13402 4.76143C8.08951 4.84281 8.03164 4.90524 7.95485 4.95206C7.87806 4.99665 7.79348 5.0223 7.70223 5.0223C7.61097 5.0223 7.52639 5 7.44515 4.95652C7.36836 4.91193 7.30604 4.8495 7.25819 4.76923C7.21367 4.69231 7.19253 4.60758 7.19253 4.51171C7.19253 4.41583 7.21479 4.33222 7.25819 4.25084C7.3027 4.17391 7.36057 4.11148 7.44181 4.06355C7.5186 4.01561 7.60652 3.98997 7.70223 3.98997H7.71002V3.98662L7.7089 3.98551ZM7.35278 3.91193C7.2504 3.97436 7.16916 4.05909 7.10684 4.16499C7.04452 4.27202 7.01558 4.38573 7.01558 4.50613C7.01558 4.62765 7.04452 4.74136 7.10684 4.84392C7.16916 4.94649 7.25374 5.03122 7.35612 5.0903C7.46296 5.15273 7.57647 5.18172 7.69666 5.18172C7.81797 5.18172 7.93148 5.15273 8.03386 5.0903C8.13625 5.02787 8.22083 4.94314 8.28315 4.84058C8.34547 4.73356 8.3744 4.61984 8.3744 4.49944C8.3744 4.37793 8.34547 4.26421 8.28315 4.16165C8.22083 4.05909 8.13625 3.97436 8.03053 3.91193C7.92369 3.8495 7.81017 3.82051 7.68553 3.82051C7.56868 3.81717 7.45851 3.84615 7.35167 3.91193H7.35278ZM6.46137 4.03344C6.50922 4.08138 6.55262 4.1505 6.5938 4.23969H6.4035C6.36677 4.18506 6.32671 4.14047 6.28998 4.10702C6.19094 4.0223 6.08076 3.98216 5.95278 3.98216C5.85707 3.98216 5.76582 4.00446 5.68458 4.0524C5.60334 4.09699 5.53768 4.15942 5.48983 4.23969C5.44197 4.31661 5.41971 4.40468 5.41971 4.49721C5.41971 4.59309 5.44197 4.6845 5.48983 4.76143C5.53768 4.83835 5.6 4.90524 5.68013 4.94872C5.76137 4.99331 5.84928 5.01895 5.94833 5.01895C6.03625 5.01895 6.11749 5.00111 6.19428 4.96433C6.23434 4.94203 6.27107 4.91973 6.30111 4.89409C6.33005 4.86845 6.36343 4.82832 6.4035 4.77703H6.5938C6.56486 4.83612 6.53927 4.8796 6.51701 4.9097C6.49475 4.93868 6.46916 4.97213 6.43577 4.99777C6.30334 5.11929 6.14642 5.18172 5.95946 5.18172C5.83148 5.18172 5.71018 5.15273 5.6 5.09365C5.49316 5.03456 5.40525 4.94983 5.34293 4.84727C5.2806 4.7447 5.24722 4.62653 5.24722 4.50167C5.24722 4.37681 5.2806 4.2631 5.34293 4.16053C5.40525 4.05797 5.49316 3.97324 5.6 3.91416C5.70684 3.85173 5.82703 3.82274 5.95167 3.82274C6.1531 3.82274 6.3256 3.89298 6.46137 4.03567V4.03344ZM6.43911 5C6.4725 4.97101 6.49809 4.94091 6.52035 4.90858C6.54261 4.8796 6.5682 4.83166 6.60159 4.77258L6.60493 4.76923H6.39905C6.35898 4.82051 6.3256 4.86065 6.29666 4.88629C6.26773 4.91193 6.23434 4.93423 6.18983 4.95652C6.11637 4.99331 6.03625 5.01115 5.94833 5.01115C5.85262 5.01115 5.76137 4.98885 5.68458 4.94537C5.60334 4.90078 5.54102 4.83835 5.49428 4.75808C5.44976 4.68116 5.42417 4.59309 5.42417 4.49721C5.42417 4.4058 5.44642 4.32107 5.49428 4.24415C5.54213 4.16722 5.60445 4.10479 5.68458 4.0602C5.76582 4.01561 5.85374 3.98997 5.94833 3.98997C6.07297 3.98997 6.18315 4.0301 6.27886 4.11483C6.31558 4.14827 6.35564 4.19175 6.39237 4.24749H6.59825L6.59491 4.24415C6.55485 4.15273 6.507 4.0825 6.45914 4.03122C6.32003 3.8874 6.14754 3.81494 5.94611 3.81494C5.81812 3.81494 5.69682 3.84392 5.58998 3.90635C5.47981 3.96878 5.39523 4.05017 5.32957 4.15608C5.26725 4.2631 5.23386 4.37681 5.23386 4.50167C5.23386 4.62653 5.26725 4.74359 5.32957 4.85061C5.39189 4.95318 5.47981 5.0379 5.58998 5.10033C5.70016 5.15942 5.82146 5.19175 5.94944 5.19175C6.14754 5.18841 6.3089 5.12598 6.44134 5.00111L6.43911 5ZM6.3 4.88963C6.27107 4.91527 6.23768 4.93757 6.19316 4.95987C6.11971 4.99666 6.03959 5.01449 5.95167 5.01449C5.85262 5.01449 5.76471 4.9922 5.68347 4.94872C5.60223 4.90412 5.5399 4.84169 5.49316 4.76143C5.44865 4.68004 5.42305 4.59197 5.42305 4.49721C5.42305 4.4058 5.44531 4.31773 5.49316 4.23969C5.54102 4.16276 5.60334 4.10033 5.68347 4.0524C5.76471 4.0078 5.85262 3.98216 5.95167 3.98216C6.07631 3.98216 6.18649 4.0223 6.28553 4.10702C6.32226 4.14047 6.36232 4.18395 6.39905 4.23969H6.59714C6.55707 4.14827 6.50922 4.07804 6.46137 4.02676C6.32226 3.88294 6.1531 3.81382 5.95167 3.81382C5.82369 3.81382 5.70572 3.84281 5.59555 3.90524C5.48537 3.96767 5.40079 4.04905 5.33847 4.15496C5.27615 4.26198 5.24277 4.3757 5.24277 4.50056C5.24277 4.62542 5.27615 4.73913 5.33847 4.84615C5.40079 4.94872 5.48871 5.03344 5.59555 5.09253C5.70572 5.15162 5.82258 5.1806 5.95501 5.1806C6.14197 5.1806 6.3 5.11817 6.43132 4.99331C6.46471 4.96433 6.4903 4.93423 6.51256 4.9019C6.53482 4.87291 6.56041 4.82497 6.5938 4.76589H6.39571C6.36232 4.82497 6.33005 4.86511 6.3 4.89075V4.88963ZM4.59507 5.15385V4.00446H4.91781V3.84281H4.59507V3.82051C4.59507 3.64103 4.69078 3.54849 4.88442 3.54849H4.91781V3.38684H4.88442C4.81431 3.38684 4.74865 3.39799 4.68967 3.41583C4.63068 3.43813 4.58283 3.46711 4.53943 3.5039C4.49936 3.54404 4.46598 3.58863 4.44817 3.64326C4.42591 3.69454 4.41924 3.76031 4.41924 3.84169H4.21781V4.00334H4.41924V5.15273H4.59507V5.15385ZM3.18728 3.98551C3.2752 3.98551 3.35644 4.0078 3.43323 4.05574C3.51002 4.10368 3.569 4.16277 3.6124 4.24303C3.65692 4.31996 3.67806 4.40468 3.67806 4.49275C3.67806 4.59197 3.6558 4.68004 3.6124 4.76143C3.56789 4.84281 3.51002 4.90524 3.43323 4.95206C3.35644 4.99665 3.27186 5.0223 3.1806 5.0223C3.08935 5.0223 3.00477 5 2.92353 4.95652C2.84674 4.91193 2.78442 4.8495 2.73657 4.76923C2.69205 4.69231 2.67091 4.60758 2.67091 4.51171C2.67091 4.41583 2.69316 4.33222 2.73657 4.25084C2.78108 4.17057 2.83895 4.11148 2.92019 4.06355C2.99698 4.01561 3.0849 3.98997 3.1806 3.98997H3.18839V3.98662L3.18728 3.98551ZM2.83116 3.91193C2.72878 3.97436 2.64754 4.05909 2.58521 4.16499C2.52289 4.27202 2.49396 4.38573 2.49396 4.50613C2.49396 4.62765 2.52289 4.74136 2.58521 4.84392C2.64754 4.94649 2.73211 5.03122 2.8345 5.0903C2.94134 5.15273 3.05485 5.18172 3.17504 5.18172C3.29634 5.18172 3.40986 5.15273 3.51224 5.0903C3.61463 5.02787 3.6992 4.94314 3.76153 4.84058C3.82385 4.73356 3.85278 4.61984 3.85278 4.49944C3.85278 4.37793 3.82385 4.26421 3.76153 4.16165C3.6992 4.05909 3.61463 3.97436 3.5089 3.91193C3.40207 3.8495 3.28855 3.82051 3.16391 3.82051C3.04261 3.81717 2.93243 3.84615 2.83005 3.91193H2.83116ZM1.77838 5.15385V4.42252C1.77838 4.3233 1.78951 4.24972 1.81176 4.20959C1.84515 4.14381 1.89634 4.09253 1.96534 4.04459C2.0132 4.01895 2.07552 4 2.14897 3.99331V3.81717C2.06439 3.82497 1.99873 3.83501 1.95087 3.8573C1.91081 3.87514 1.87409 3.89744 1.84404 3.93088C1.81844 3.95318 1.79618 3.98997 1.77059 4.03344V3.84615H1.60588V5.15385H1.77838ZM0.175835 3.54849H0.402862H0.431797L0.460731 3.54515H0.494118C0.61097 3.54515 0.703339 3.55964 0.768998 3.58528C0.83911 3.61427 0.893641 3.65886 0.930366 3.71349C0.967091 3.77258 0.989348 3.83835 0.989348 3.91193C0.989348 3.97436 0.974881 4.03344 0.949285 4.08473C0.923688 4.13601 0.886963 4.17614 0.835771 4.20959C0.795707 4.23523 0.747854 4.25418 0.69221 4.26421C0.637679 4.27536 0.567568 4.27871 0.476312 4.27871H0.175835V3.54738V3.54849ZM0.175835 5.15385V4.44147H0.506359C0.579809 4.44147 0.64213 4.43813 0.696661 4.43032C0.751192 4.42252 0.799046 4.41249 0.843561 4.39353C0.888076 4.3757 0.92814 4.3534 0.964865 4.32776C1.03052 4.27982 1.07838 4.22074 1.1151 4.15162C1.14849 4.08138 1.1663 4.00446 1.1663 3.91639C1.1663 3.85396 1.15517 3.79933 1.13736 3.74359C1.11955 3.68896 1.09285 3.64103 1.05612 3.59643C1.0194 3.55184 0.979332 3.51505 0.931479 3.48272C0.876948 3.44593 0.814626 3.42363 0.741176 3.40914C0.671065 3.39465 0.576471 3.38684 0.458506 3.38684H0V5.15385H0.175835ZM14 4.53289V4.55518C14 6.16388 13.1386 7.57079 11.851 8.33891C11.1688 8.75808 10.3665 9 9.50843 9C7.03339 9 5.01685 6.98328 5.01685 4.50056C5.01685 2.01672 7.03339 0 9.50843 0C11.9835 0 14 2.02007 14 4.49944V4.53289Z" fill="black"/>
</g>
<defs>
<clipPath id="clip0_3790_6655">
<rect width="14" height="9" fill="white"/>
</clipPath>
</defs>
</svg>
