<svg width="14" height="10" viewBox="0 0 14 10" fill="none" xmlns="http://www.w3.org/2000/svg">
<g clip-path="url(#clip0_3790_6533)">
<path d="M7.30006 0.759996C7.38006 0.759996 7.47006 0.759996 7.55006 0.759996C7.64006 0.759996 7.71006 0.829996 7.72006 0.919996C7.72006 1.06 7.61006 1.01 7.54006 0.999996C7.33006 0.979996 7.20006 1.09 7.11006 1.27C7.08006 1.32 7.02006 1.42 7.16006 1.37C7.33006 1.31 7.42006 1.41 7.52006 1.51C7.60006 1.59 7.61006 1.69 7.49006 1.74C7.37006 1.79 7.28006 1.82 7.29006 1.97C7.29006 2.1 7.39006 2.21 7.51006 2.25C7.73006 2.32 7.96006 2.39 8.19006 2.43C8.29006 2.45 8.34006 2.38 8.37006 2.29C8.41006 2.14 8.50006 2.01 8.61006 1.9C8.69006 1.83 8.76006 1.84 8.81006 1.94C8.86006 2.01 8.88006 2.09 8.88006 2.18C8.88006 2.32 8.89006 2.36 9.02006 2.24C9.13006 2.14 9.22006 2.19 9.27006 2.32C9.33006 2.5 9.27006 2.65 9.20006 2.8C9.14006 2.92 9.17006 2.95 9.29006 2.9C9.36006 2.87 9.42006 2.83 9.46006 2.93C9.48006 2.99 9.42006 3.03 9.39006 3.07C9.33006 3.15 9.13006 3.15 9.23006 3.35C9.25006 3.39 9.08006 3.53 9.00006 3.62C8.91006 3.73 8.82006 3.84 8.75006 3.96C8.70006 4.04 8.66006 4.13 8.65006 4.23C8.63006 4.34 8.59006 4.47 8.67006 4.55C8.75006 4.63 8.85006 4.52 8.92006 4.49C9.11006 4.41 9.28006 4.49 9.44006 4.56C9.58006 4.63 9.64006 4.56 9.71006 4.47C9.80006 4.34 9.83006 4.18 9.79006 4.03C9.77006 3.9 9.67006 3.8 9.54006 3.78C9.39006 3.75 9.29006 3.83 9.30006 3.98C9.30006 4.05 9.34006 4.11 9.36006 4.18C9.36006 4.24 9.33006 4.29 9.28006 4.31C9.23006 4.33 9.17006 4.31 9.13006 4.26C9.03006 4.15 9.03006 3.94 9.13006 3.8C9.27006 3.6 9.54006 3.54 9.75006 3.68C9.79006 3.71 9.82006 3.74 9.85006 3.77C9.91006 3.85 9.95006 3.93 9.99006 4.02C10.0301 4.11 10.0701 4.06 10.1001 4.02C10.1201 3.97 10.1401 3.92 10.1601 3.87C10.4901 3.1 11.3401 2.94 11.8801 3.56C12.0701 3.78 12.2701 3.8 12.5001 3.77C12.7301 3.74 12.8201 3.55 12.7401 3.33C12.7001 3.22 12.6101 3.19 12.5001 3.28C12.3901 3.37 12.3101 3.4 12.2101 3.31C12.1501 3.25 12.1301 3.15 12.1801 3.08C12.2301 2.97 12.3501 2.92 12.4601 2.95C12.7101 3.01 12.9501 3.28 12.9101 3.48C12.8601 3.75 12.6001 3.93 12.3301 3.89C12.2901 3.89 12.2601 3.85 12.2201 3.89C12.2201 3.89 12.2201 3.94 12.2401 3.95C12.4901 4.22 12.7601 4.45 13.1201 4.57C13.3101 4.63 13.5201 4.53 13.5801 4.33C13.6501 4.15 13.5601 3.95 13.3801 3.89C13.3001 3.85 13.2101 3.86 13.2101 3.99C13.2101 4.02 13.2101 4.05 13.2101 4.07C13.1901 4.18 13.1701 4.31 13.0101 4.28C12.8901 4.25 12.8501 4.14 12.8501 4.02C12.8501 3.8 13.0301 3.62 13.2501 3.62C13.3001 3.62 13.3601 3.63 13.4101 3.65C13.6401 3.73 13.7401 3.93 13.8601 4.11V4.36C13.8001 4.39 13.8001 4.44 13.7801 4.5C13.5901 4.86 13.3001 4.95 12.9401 4.79C12.7901 4.72 12.6501 4.62 12.5401 4.5C12.4601 4.42 12.3701 4.33 12.2901 4.25C12.2901 4.36 12.2901 4.47 12.2701 4.59C12.2501 4.81 12.0901 5.01 11.9001 5.05C11.7101 5.09 11.4601 4.95 11.3701 4.78C11.3201 4.71 11.3301 4.61 11.3701 4.54C11.4001 4.49 11.4501 4.46 11.5101 4.46C11.6101 4.47 11.6401 4.55 11.6601 4.64V4.72C11.6601 4.8 11.7201 4.87 11.8001 4.87C11.8001 4.87 11.8101 4.87 11.8201 4.87C11.9301 4.87 12.0301 4.84 12.0501 4.74C12.0801 4.63 12.0801 4.52 12.0801 4.41C12.0601 3.94 11.6901 3.46 11.3001 3.38C11.2601 3.38 11.2201 3.38 11.1801 3.4C11.2001 3.42 11.2201 3.44 11.2401 3.46C11.5001 3.82 11.4501 4 11.0501 4.12C10.9401 4.15 10.9201 4.18 10.9501 4.28C11.0001 4.5 10.8901 4.66 10.7201 4.78C10.5901 4.86 10.4101 4.86 10.3801 4.78C10.3401 4.64 10.4801 4.65 10.5501 4.61C10.5601 4.61 10.5701 4.6 10.5901 4.59C10.7301 4.48 10.7801 4.34 10.7101 4.23C10.6201 4.1 10.4501 4.05 10.3101 4.11C10.0901 4.19 9.98006 4.39 9.83006 4.56C9.66006 4.75 9.78006 4.9 9.82006 5.06C9.83006 5.11 9.87006 5.12 9.89006 5.07C9.93006 5.01 9.95006 4.95 9.97006 4.88C9.99006 4.81 10.0101 4.73 10.1001 4.76C10.1501 4.79 10.1701 4.85 10.1501 4.9C10.0301 5.08 10.1301 5.1 10.2801 5.16C10.4501 5.23 10.5701 5.21 10.6801 5.08C10.7601 4.99 10.8501 4.93 10.9701 5.03C11.0701 5.11 11.1101 5.2 11.0201 5.32C10.9801 5.36 10.9801 5.43 11.0201 5.47C11.0801 5.57 11.0301 5.63 10.9401 5.66C10.8501 5.69 10.8301 5.61 10.8301 5.53C10.8301 5.47 10.8001 5.41 10.7401 5.41C10.5101 5.42 10.3001 5.34 10.0801 5.3C9.94006 5.27 9.80006 5.33 9.71006 5.44C9.47006 5.69 9.16006 5.76 8.82006 5.71C8.63006 5.68 8.46006 5.57 8.28006 5.49C8.20006 5.66 8.06006 5.81 7.88006 5.89H7.63006C7.58006 5.83 7.53006 5.76 7.49006 5.69C7.45006 5.62 7.49006 5.55 7.54006 5.51C7.59006 5.47 7.63006 5.51 7.68006 5.53C7.81006 5.6 7.87006 5.57 7.89006 5.44C7.92006 5.34 7.89006 5.24 7.81006 5.18C7.68006 5.1 7.52006 5.07 7.37006 5.1C7.26006 5.12 7.43006 5.25 7.41006 5.34C7.41006 5.39 7.39006 5.45 7.37006 5.5C7.34006 5.55 7.28006 5.57 7.22006 5.56C7.16006 5.55 7.12006 5.51 7.15006 5.44C7.24006 5.22 7.04006 5.25 6.95006 5.24C6.86006 5.23 6.70006 5.26 6.79006 5.44C6.82006 5.5 6.79006 5.55 6.72006 5.56C6.65006 5.58 6.58006 5.54 6.55006 5.48C6.52006 5.39 6.53006 5.28 6.59006 5.2C6.62006 5.15 6.63006 5.09 6.53006 5.1C6.43006 5.11 6.34006 5.12 6.24006 5.14C6.05006 5.19 5.98006 5.33 6.07006 5.53C6.10006 5.59 6.15006 5.66 6.22006 5.57C6.28006 5.5 6.34006 5.44 6.42006 5.54C6.49006 5.62 6.45006 5.69 6.39006 5.76C6.35006 5.8 6.29006 5.82 6.29006 5.89H6.04006C5.94006 5.79 5.77006 5.77 5.73006 5.63C5.68006 5.46 5.62006 5.49 5.49006 5.56C5.03006 5.82 4.58006 5.8 4.19006 5.41C4.08006 5.3 3.92006 5.26 3.77006 5.32C3.60006 5.38 3.42006 5.41 3.24006 5.41C3.18006 5.41 3.13006 5.42 3.11006 5.49C3.09006 5.56 3.11006 5.68 2.98006 5.65C2.85006 5.62 2.85006 5.53 2.92006 5.43C2.95006 5.38 2.90006 5.33 2.88006 5.28C2.82006 5.17 2.88006 5.1 2.96006 5.03C3.03006 4.96 3.13006 4.97 3.20006 5.03C3.20006 5.03 3.21006 5.05 3.22006 5.05C3.37006 5.25 3.53006 5.21 3.73006 5.14C3.89006 5.09 3.85006 5.04 3.80006 4.94C3.76006 4.87 3.76006 4.79 3.83006 4.76C3.91006 4.72 3.94006 4.81 3.96006 4.88C3.98006 4.93 4.00006 4.98 4.02006 5.03C4.03006 5.05 4.05006 5.09 4.07006 5.09C4.12006 5.09 4.12006 5.04 4.12006 5.01C4.14006 4.92 4.22006 4.84 4.20006 4.73C4.17006 4.52 3.76006 4.1 3.54006 4.07C3.41006 4.05 3.28006 4.11 3.22006 4.22C3.15006 4.33 3.18006 4.47 3.29006 4.54C3.29006 4.54 3.29006 4.54 3.30006 4.54C3.37006 4.59 3.45006 4.62 3.52006 4.66C3.54006 4.67 3.57006 4.71 3.56006 4.73C3.54006 4.76 3.51006 4.79 3.48006 4.81C3.41006 4.86 3.35006 4.83 3.28006 4.81C3.05006 4.7 2.92006 4.54 2.97006 4.28C2.99006 4.17 2.97006 4.15 2.87006 4.12C2.46006 4 2.42006 3.82 2.68006 3.46C2.70006 3.44 2.72006 3.42 2.74006 3.4C2.70006 3.39 2.66006 3.38 2.62006 3.38C2.25006 3.46 1.88006 3.92 1.84006 4.37C1.84006 4.47 1.84006 4.57 1.84006 4.66C1.84006 4.78 1.94006 4.87 2.05006 4.87C2.19006 4.88 2.26006 4.82 2.26006 4.68C2.26006 4.64 2.26006 4.6 2.28006 4.56C2.30006 4.51 2.35006 4.47 2.40006 4.46C2.47006 4.46 2.54006 4.51 2.56006 4.58C2.59006 4.64 2.58006 4.72 2.55006 4.78C2.46006 4.95 2.19006 5.08 2.02006 5.05C1.83006 4.99 1.69006 4.83 1.66006 4.63C1.65006 4.53 1.66006 4.43 1.66006 4.34C1.66006 4.31 1.66006 4.28 1.64006 4.26C1.61006 4.28 1.58006 4.3 1.56006 4.33C1.41006 4.55 1.20006 4.72 0.950059 4.83C0.640059 4.95 0.360059 4.87 0.180059 4.6C0.130059 4.53 0.150059 4.43 0.0600586 4.39V4.14C0.150059 3.92 0.330059 3.75 0.550059 3.66C0.700059 3.6 0.870059 3.64 0.960059 3.77C1.06006 3.89 1.11006 4.04 1.03006 4.2C1.00006 4.27 0.940059 4.31 0.870059 4.31C0.800059 4.31 0.740059 4.25 0.730059 4.18C0.730059 4.17 0.730059 4.16 0.720059 4.14C0.690059 4.06 0.770059 3.92 0.620059 3.91C0.480059 3.89 0.330059 4.05 0.320059 4.2C0.290059 4.41 0.440059 4.6 0.640059 4.62C0.690059 4.62 0.750059 4.62 0.800059 4.61C1.16006 4.5 1.43006 4.25 1.68006 3.99C1.71006 3.96 1.71006 3.94 1.69006 3.93C1.67006 3.92 1.64006 3.92 1.62006 3.93C1.52006 3.99 1.43006 3.95 1.34006 3.91C1.12006 3.82 0.970059 3.62 1.00006 3.44C1.03006 3.25 1.30006 3.01 1.50006 2.99C1.57006 2.99 1.64006 3.01 1.69006 3.06C1.77006 3.13 1.78006 3.24 1.73006 3.33C1.68006 3.41 1.58006 3.44 1.50006 3.39C1.49006 3.39 1.48006 3.38 1.47006 3.37C1.39006 3.32 1.34006 3.15 1.22006 3.3C1.12006 3.43 1.13006 3.6 1.24006 3.72C1.41006 3.87 1.81006 3.85 1.96006 3.68C1.96006 3.67 1.98006 3.66 1.99006 3.65C2.61006 2.96 3.41006 3.1 3.77006 3.95C3.78006 3.99 3.80006 4.03 3.82006 4.06C3.86006 4.11 3.90006 4.14 3.93006 4.06C3.96006 3.95 4.02006 3.86 4.10006 3.78C4.28006 3.61 4.56006 3.61 4.73006 3.78C4.83006 3.88 4.87006 4.02 4.85006 4.16C4.84006 4.21 4.81006 4.26 4.77006 4.3C4.74006 4.35 4.67006 4.36 4.62006 4.34C4.57006 4.32 4.53006 4.26 4.54006 4.21C4.54006 4.17 4.57006 4.13 4.58006 4.09C4.61006 3.99 4.62006 3.88 4.50006 3.84C4.39006 3.79 4.27006 3.82 4.19006 3.9C4.02006 4.07 4.05006 4.47 4.26006 4.61C4.33006 4.66 4.39006 4.61 4.45006 4.59C4.63006 4.52 4.81006 4.47 5.02006 4.55C5.26006 4.64 5.26006 4.62 5.26006 4.38C5.26006 4.06 5.03006 3.85 4.86006 3.62C4.78006 3.52 4.55006 3.48 4.69006 3.27C4.69006 3.27 4.56006 3.16 4.49006 3.1C4.45006 3.06 4.41006 3.02 4.43006 2.96C4.45006 2.9 4.51006 2.9 4.57006 2.93C4.67006 2.97 4.78006 3.04 4.68006 2.83C4.62006 2.72 4.59006 2.6 4.59006 2.47C4.61006 2.25 4.69006 2.2 4.90006 2.31C4.96006 2.34 4.98006 2.37 5.00006 2.28V2.24C5.01006 2.1 5.03006 1.92 5.18006 1.9C5.33006 1.88 5.39006 2.06 5.46006 2.18C5.49006 2.24 5.51006 2.31 5.54006 2.37C5.57006 2.44 5.64006 2.47 5.71006 2.45C5.95006 2.37 6.21006 2.38 6.43006 2.24C6.53006 2.19 6.60006 2.09 6.60006 1.97C6.60006 1.85 6.53006 1.81 6.43006 1.77C6.28006 1.71 6.31006 1.6 6.40006 1.51C6.47006 1.44 6.55006 1.35 6.65006 1.38C6.91006 1.46 6.82006 1.34 6.75006 1.22C6.66006 1.07 6.49006 0.989996 6.33006 1.03C6.27006 1.03 6.21006 1.03 6.19006 0.979996C6.17006 0.909996 6.21006 0.839996 6.27006 0.809996C6.38006 0.749996 6.49006 0.779996 6.60006 0.779996C6.60006 0.789996 6.61006 0.799996 6.62006 0.809996H6.64006L6.59006 0.789996C6.58006 0.519996 6.59006 0.269996 6.83006 0.0799963C6.91006 0.00999634 6.95006 0.00999634 7.03006 0.0799963C7.26006 0.269996 7.28006 0.529996 7.27006 0.789996C7.26006 0.789996 7.25006 0.789996 7.23006 0.789996C7.23006 0.789996 7.22006 0.809996 7.21006 0.809996L7.25006 0.779996L7.30006 0.759996ZM9.23006 5.3C9.02006 5.35 8.83006 5.37 8.65006 5.22C8.59006 5.16 8.51006 5.13 8.43006 5.14C8.38006 5.14 8.28006 5.14 8.28006 5.16C8.26006 5.24 8.36006 5.25 8.41006 5.27C8.56006 5.34 8.71006 5.4 8.87006 5.45C9.02006 5.49 9.17006 5.48 9.24006 5.3C9.37006 5.33 9.40006 5.23 9.45006 5.15C9.48006 5.11 9.51006 5.05 9.45006 5C9.39006 4.95 9.36006 5.02 9.31006 5.04C9.21006 5.1 9.26006 5.21 9.23006 5.3ZM4.69006 5.3C4.69006 5.16 4.69006 5.02 4.51006 4.99C4.49006 4.99 4.45006 5.02 4.46006 5.03C4.49006 5.16 4.51006 5.3 4.70006 5.29C4.77006 5.47 4.92006 5.48 5.07006 5.44C5.21006 5.4 5.35006 5.35 5.49006 5.28C5.55006 5.25 5.68006 5.23 5.65006 5.15C5.63006 5.09 5.50006 5.12 5.42006 5.14C5.37006 5.16 5.32006 5.18 5.28006 5.22C5.10006 5.37 4.90006 5.35 4.70006 5.3H4.69006ZM7.38006 4.87C7.71006 4.92 8.04006 4.95 8.37006 5.01C8.53006 5.04 8.55006 4.96 8.52006 4.86C8.44006 4.49 8.44006 4.11 8.53006 3.74C8.58006 3.49 8.59006 3.24 8.55006 2.99C8.55006 2.96 8.54006 2.94 8.52006 2.91C8.50006 2.93 8.47006 2.94 8.47006 2.97C8.33006 3.42 8.02006 3.8 8.05006 4.31C8.07006 4.55 7.99006 4.63 7.74006 4.65C7.58006 4.65 7.44006 4.75 7.38006 4.89H6.53006C6.44006 4.76 6.35006 4.66 6.17006 4.65C5.92006 4.63 5.85006 4.56 5.87006 4.31C5.89006 4.06 5.82006 3.87 5.73006 3.67C5.66006 3.52 5.60006 3.36 5.54006 3.21C5.50006 3.11 5.49006 3 5.39006 2.93C5.38006 3.04 5.35006 3.15 5.35006 3.26C5.35006 3.38 5.35006 3.51 5.37006 3.63C5.45006 4.06 5.51006 4.48 5.40006 4.91C5.38006 4.98 5.42006 5.05 5.52006 5.03C5.86006 4.98 6.21006 4.93 6.55006 4.88C6.83006 5.1 7.11006 5.09 7.39006 4.88L7.38006 4.87ZM6.40006 3.92C6.54006 3.92 6.62006 3.84 6.58006 3.7C6.45006 3.29 6.62006 2.94 6.82006 2.61C6.90006 2.48 7.04006 2.49 7.12006 2.63C7.32006 2.95 7.48006 3.3 7.34006 3.68C7.28006 3.84 7.34006 3.89 7.47006 3.91C7.61006 3.94 7.69006 3.88 7.69006 3.73C7.69006 3.53 7.84006 3.37 7.81006 3.17C8.03006 3.13 8.09006 2.9 8.27006 2.8C8.32006 2.77 8.43006 2.8 8.42006 2.71C8.41006 2.62 8.33006 2.61 8.27006 2.59C8.21006 2.56 8.14006 2.54 8.07006 2.53C7.72006 2.53 7.38006 2.4 7.11006 2.18C6.99006 2.08 6.92006 2.12 6.82006 2.2C6.56006 2.41 6.23006 2.52 5.90006 2.54C5.79006 2.55 5.68006 2.59 5.58006 2.64C5.54006 2.66 5.43006 2.73 5.58006 2.76C5.82006 2.81 5.86006 3.14 6.12006 3.15C6.12006 3.35 6.27006 3.52 6.24006 3.7C6.21006 3.88 6.31006 3.88 6.41006 3.92H6.40006ZM3.09006 3.56C3.03006 3.56 2.99006 3.6 2.96006 3.64C2.94006 3.68 2.98006 3.71 3.00006 3.74C3.13006 3.87 3.38006 3.95 3.53006 3.9C3.58006 3.88 3.59006 3.84 3.55006 3.82C3.41006 3.71 3.27006 3.6 3.09006 3.57V3.56ZM10.5701 3.9C10.7701 4.01 10.7901 3.81 10.8901 3.76C10.9301 3.74 11.0001 3.71 10.9501 3.64C10.9201 3.58 10.8401 3.55 10.7801 3.57C10.6401 3.62 10.5101 3.7 10.3901 3.8C10.3701 3.81 10.3501 3.84 10.3501 3.86C10.3601 3.92 10.4001 3.89 10.4301 3.89C10.4801 3.89 10.5201 3.89 10.5701 3.89V3.9ZM4.72006 4.78L4.57006 4.82C4.57006 4.82 4.65006 4.89 4.69006 4.92C4.74006 4.95 4.79006 4.97 4.84006 4.98C4.90006 5 4.97006 5.07 5.00006 4.96C5.02006 4.89 4.95006 4.84 4.88006 4.81C4.83006 4.79 4.77006 4.78 4.71006 4.77L4.72006 4.78ZM9.21006 4.78H9.16006C9.04006 4.78 8.95006 4.82 8.91006 4.95C8.91006 4.96 8.91006 4.98 8.91006 4.99C9.01006 5.07 9.08006 4.95 9.17006 4.95C9.19006 4.95 9.22006 4.92 9.24006 4.91C9.26006 4.9 9.33006 4.85 9.33006 4.84C9.30006 4.78 9.24006 4.79 9.20006 4.79L9.21006 4.78Z" fill="black"/>
<path d="M0.120117 6.81C0.120117 6.81 0.210117 6.81 0.280117 6.81C0.350117 6.81 0.410117 6.81 0.470117 6.81C0.560117 6.81 0.650117 6.81 0.730117 6.81C0.810117 6.81 0.870117 6.81 0.910117 6.81C1.06012 6.81 1.19012 6.83 1.30012 6.88C1.40012 6.92 1.48012 6.98 1.53012 7.06C1.58012 7.14 1.61012 7.22 1.61012 7.31C1.61012 7.37 1.60012 7.43 1.58012 7.49C1.56012 7.56 1.52012 7.62 1.46012 7.67C1.40012 7.73 1.33012 7.77 1.23012 7.81C1.13012 7.85 1.01012 7.87 0.860117 7.87H0.580117V7.81H0.830117C0.970117 7.81 1.07012 7.79 1.14012 7.75C1.21012 7.71 1.26012 7.65 1.29012 7.58C1.32012 7.51 1.33012 7.43 1.33012 7.34C1.33012 7.19 1.29012 7.07 1.22012 6.99C1.15012 6.91 1.03012 6.87 0.850117 6.87C0.760117 6.87 0.700117 6.89 0.680117 6.92C0.650117 6.95 0.640117 7.02 0.640117 7.12V8.54C0.640117 8.61 0.640117 8.66 0.660117 8.69C0.670117 8.72 0.690117 8.75 0.730117 8.76C0.760117 8.77 0.810117 8.78 0.880117 8.78V8.84C0.880117 8.84 0.780117 8.84 0.710117 8.84C0.640117 8.84 0.580117 8.84 0.510117 8.84C0.440117 8.84 0.370117 8.84 0.300117 8.84C0.230117 8.84 0.180117 8.84 0.140117 8.84V8.78C0.210117 8.78 0.250117 8.77 0.290117 8.76C0.320117 8.75 0.350117 8.73 0.360117 8.69C0.370117 8.66 0.380117 8.6 0.380117 8.54V7.12C0.380117 7.05 0.380117 7 0.360117 6.96C0.350117 6.93 0.330117 6.9 0.290117 6.89C0.260117 6.88 0.210117 6.87 0.140117 6.87V6.81H0.120117ZM0.580117 7.83C0.680117 7.83 0.760117 7.83 0.820117 7.84C0.880117 7.84 0.930117 7.84 0.960117 7.85C1.00012 7.85 1.03012 7.85 1.07012 7.86C1.20012 7.88 1.29012 7.92 1.35012 7.98C1.41012 8.04 1.45012 8.12 1.47012 8.24L1.54012 8.53C1.56012 8.61 1.58012 8.67 1.60012 8.71C1.62012 8.75 1.65012 8.77 1.69012 8.76C1.72012 8.76 1.75012 8.75 1.77012 8.73C1.79012 8.71 1.82012 8.69 1.84012 8.65L1.88012 8.68C1.84012 8.74 1.80012 8.78 1.76012 8.82C1.72012 8.85 1.66012 8.87 1.58012 8.87C1.51012 8.87 1.45012 8.85 1.39012 8.81C1.34012 8.77 1.30012 8.69 1.27012 8.56L1.21012 8.27C1.19012 8.19 1.17012 8.12 1.15012 8.06C1.13012 8 1.10012 7.95 1.06012 7.92C1.02012 7.89 0.960117 7.87 0.890117 7.87H0.580117V7.82V7.83Z" fill="black"/>
<path d="M2.71021 6.81V6.87C2.64021 6.87 2.60021 6.87 2.56021 6.89C2.53021 6.9 2.50021 6.93 2.49021 6.96C2.48021 6.99 2.47021 7.05 2.47021 7.12V8.54C2.47021 8.61 2.47021 8.66 2.49021 8.69C2.50021 8.72 2.52021 8.75 2.56021 8.76C2.59021 8.77 2.64021 8.78 2.71021 8.78V8.84C2.71021 8.84 2.61021 8.84 2.54021 8.84C2.47021 8.84 2.41021 8.84 2.34021 8.84C2.27021 8.84 2.20021 8.84 2.13021 8.84C2.06021 8.84 2.01021 8.84 1.97021 8.84V8.78C2.04021 8.78 2.08021 8.77 2.12021 8.76C2.15021 8.75 2.18021 8.73 2.19021 8.69C2.20021 8.66 2.21021 8.6 2.21021 8.54V7.12C2.21021 7.05 2.21021 7 2.19021 6.96C2.18021 6.93 2.16021 6.9 2.12021 6.89C2.09021 6.88 2.04021 6.87 1.97021 6.87V6.81C1.97021 6.81 2.06021 6.81 2.13021 6.81C2.20021 6.81 2.26021 6.81 2.34021 6.81C2.41021 6.81 2.47021 6.81 2.54021 6.81C2.61021 6.81 2.66021 6.81 2.71021 6.81Z" fill="black"/>
<path d="M3.9 6.77C4.03 6.77 4.13 6.79 4.21 6.83C4.29 6.87 4.36 6.91 4.43 6.96C4.47 6.99 4.5 6.99 4.52 6.97C4.54 6.95 4.55 6.9 4.56 6.81H4.63C4.63 6.88 4.63 6.97 4.63 7.07C4.63 7.17 4.63 7.31 4.63 7.47H4.56C4.55 7.39 4.53 7.32 4.52 7.27C4.51 7.22 4.49 7.18 4.48 7.15C4.46 7.12 4.44 7.08 4.42 7.05C4.36 6.97 4.29 6.91 4.2 6.88C4.11 6.84 4.02 6.83 3.92 6.83C3.83 6.83 3.74 6.85 3.67 6.9C3.59 6.95 3.53 7.01 3.47 7.1C3.42 7.19 3.37 7.29 3.34 7.42C3.31 7.54 3.3 7.68 3.3 7.84C3.3 8 3.32 8.14 3.35 8.27C3.38 8.39 3.43 8.5 3.49 8.58C3.55 8.66 3.62 8.73 3.7 8.77C3.78 8.81 3.87 8.83 3.96 8.83C4.05 8.83 4.14 8.81 4.23 8.78C4.32 8.75 4.4 8.69 4.45 8.61C4.49 8.55 4.52 8.49 4.54 8.43C4.56 8.36 4.57 8.27 4.58 8.16H4.65C4.65 8.33 4.65 8.47 4.65 8.58C4.65 8.69 4.65 8.78 4.65 8.85H4.58C4.58 8.77 4.56 8.72 4.54 8.7C4.52 8.68 4.49 8.68 4.45 8.7C4.38 8.75 4.3 8.79 4.22 8.83C4.14 8.87 4.04 8.89 3.91 8.89C3.73 8.89 3.57 8.85 3.43 8.77C3.29 8.69 3.19 8.57 3.11 8.41C3.03 8.26 3 8.07 3 7.85C3 7.63 3.04 7.45 3.12 7.29C3.2 7.13 3.31 7 3.44 6.91C3.58 6.82 3.73 6.78 3.91 6.78L3.9 6.77Z" fill="black"/>
<path d="M4.93018 8.84V8.78C5.00018 8.78 5.04018 8.77 5.08018 8.76C5.11018 8.75 5.14018 8.73 5.15018 8.69C5.16018 8.66 5.17018 8.6 5.17018 8.54V7.12C5.17018 7.05 5.17018 7 5.15018 6.96C5.14018 6.93 5.12018 6.9 5.08018 6.89C5.05018 6.88 5.00018 6.87 4.93018 6.87V6.81C4.93018 6.81 5.02018 6.81 5.09018 6.81C5.16018 6.81 5.22018 6.81 5.30018 6.81C5.37018 6.81 5.43018 6.81 5.50018 6.81C5.57018 6.81 5.62018 6.81 5.67018 6.81V6.87C5.60018 6.87 5.56018 6.87 5.52018 6.89C5.49018 6.9 5.46018 6.93 5.45018 6.96C5.44018 6.99 5.43018 7.05 5.43018 7.12V8.54C5.43018 8.61 5.43018 8.66 5.45018 8.69C5.46018 8.72 5.48018 8.75 5.52018 8.76C5.55018 8.77 5.60018 8.78 5.67018 8.78V8.84C5.67018 8.84 5.57018 8.84 5.50018 8.84C5.43018 8.84 5.37018 8.84 5.30018 8.84C5.23018 8.84 5.16018 8.84 5.09018 8.84C5.02018 8.84 4.97018 8.84 4.93018 8.84ZM5.33018 7.85V7.79H6.46018V7.85H5.33018ZM6.13018 8.84V8.78C6.20018 8.78 6.24018 8.77 6.28018 8.76C6.31018 8.75 6.34018 8.73 6.35018 8.69C6.36018 8.66 6.37018 8.6 6.37018 8.54V7.12C6.37018 7.05 6.37018 7 6.35018 6.96C6.34018 6.93 6.32018 6.9 6.28018 6.89C6.25018 6.88 6.20018 6.87 6.13018 6.87V6.81C6.13018 6.81 6.23018 6.81 6.30018 6.81C6.37018 6.81 6.43018 6.81 6.50018 6.81C6.57018 6.81 6.64018 6.81 6.71018 6.81C6.78018 6.81 6.83018 6.81 6.87018 6.81V6.87C6.80018 6.87 6.76018 6.87 6.72018 6.89C6.69018 6.9 6.66018 6.93 6.65018 6.96C6.64018 6.99 6.63018 7.05 6.63018 7.12V8.54C6.63018 8.61 6.63018 8.66 6.65018 8.69C6.66018 8.72 6.68018 8.75 6.72018 8.76C6.75018 8.77 6.80018 8.78 6.87018 8.78V8.84C6.87018 8.84 6.78018 8.84 6.71018 8.84C6.64018 8.84 6.58018 8.84 6.50018 8.84C6.43018 8.84 6.37018 8.84 6.30018 8.84C6.23018 8.84 6.18018 8.84 6.13018 8.84Z" fill="black"/>
<path d="M8.53009 6.81C8.53009 6.88 8.52009 6.94 8.51009 7.01C8.51009 7.07 8.51009 7.12 8.51009 7.15C8.51009 7.18 8.51009 7.22 8.51009 7.25C8.51009 7.28 8.51009 7.31 8.51009 7.33H8.44009C8.43009 7.22 8.41009 7.13 8.39009 7.06C8.37009 6.99 8.33009 6.95 8.28009 6.92C8.23009 6.89 8.15009 6.88 8.05009 6.88H7.81009C7.74009 6.88 7.70009 6.88 7.66009 6.9C7.63009 6.91 7.60009 6.93 7.59009 6.97C7.58009 7 7.57009 7.06 7.57009 7.13V8.55C7.57009 8.62 7.57009 8.67 7.59009 8.7C7.60009 8.73 7.62009 8.76 7.66009 8.77C7.69009 8.78 7.74009 8.79 7.81009 8.79H8.02009C8.14009 8.79 8.23009 8.77 8.29009 8.74C8.35009 8.71 8.40009 8.65 8.42009 8.58C8.45009 8.51 8.47009 8.41 8.48009 8.28H8.55009C8.55009 8.33 8.55009 8.4 8.55009 8.49C8.55009 8.53 8.55009 8.58 8.55009 8.65C8.55009 8.72 8.55009 8.79 8.57009 8.86C8.47009 8.86 8.36009 8.86 8.24009 8.86C8.12009 8.86 8.01009 8.86 7.91009 8.86H7.75009C7.68009 8.86 7.61009 8.86 7.54009 8.86C7.46009 8.86 7.39009 8.86 7.31009 8.86C7.23009 8.86 7.16009 8.86 7.09009 8.86V8.8C7.16009 8.8 7.20009 8.79 7.24009 8.78C7.27009 8.77 7.30009 8.75 7.31009 8.71C7.32009 8.68 7.33009 8.62 7.33009 8.56V7.14C7.33009 7.07 7.33009 7.02 7.31009 6.98C7.30009 6.95 7.28009 6.92 7.24009 6.91C7.21009 6.9 7.16009 6.89 7.09009 6.89V6.83C7.16009 6.83 7.24009 6.83 7.31009 6.83C7.39009 6.83 7.47009 6.83 7.54009 6.83C7.62009 6.83 7.69009 6.83 7.75009 6.83H7.91009C8.00009 6.83 8.10009 6.83 8.21009 6.83C8.32009 6.83 8.42009 6.83 8.51009 6.83L8.53009 6.81ZM8.04009 7.79V7.85H7.51009V7.79H8.04009ZM8.12009 7.41C8.12009 7.52 8.11009 7.6 8.11009 7.66C8.11009 7.72 8.11009 7.77 8.11009 7.82C8.11009 7.87 8.11009 7.92 8.11009 7.98C8.11009 8.04 8.11009 8.12 8.12009 8.23H8.05009C8.05009 8.17 8.03009 8.11 8.02009 8.05C8.01009 7.99 7.99009 7.94 7.95009 7.91C7.91009 7.87 7.85009 7.85 7.77009 7.85V7.79C7.83009 7.79 7.88009 7.78 7.91009 7.75C7.94009 7.72 7.97009 7.69 7.98009 7.65C8.00009 7.61 8.01009 7.57 8.01009 7.53C8.01009 7.49 8.02009 7.45 8.03009 7.41H8.10009H8.12009Z" fill="black"/>
<path d="M10.3101 6.81V6.87L9.16011 8.78H9.72011C9.81011 8.78 9.88011 8.78 9.94011 8.75C10.0001 8.73 10.0401 8.7 10.0701 8.66C10.1001 8.62 10.1301 8.56 10.1501 8.49C10.1701 8.42 10.1801 8.34 10.1901 8.24H10.2601C10.2601 8.3 10.2601 8.38 10.2601 8.48C10.2601 8.52 10.2601 8.57 10.2601 8.64C10.2601 8.71 10.2601 8.78 10.2801 8.85C10.2101 8.85 10.1301 8.85 10.0501 8.85C9.97011 8.85 9.88011 8.85 9.80011 8.85H9.57011C9.46011 8.85 9.34011 8.85 9.21011 8.85C9.08011 8.85 8.97011 8.85 8.86011 8.85V8.79L10.0101 6.88H9.45011C9.36011 6.88 9.29011 6.88 9.23011 6.91C9.17011 6.93 9.13011 6.96 9.10011 7C9.07011 7.04 9.04011 7.1 9.02011 7.17C9.00011 7.24 8.99011 7.32 8.98011 7.42H8.91011C8.91011 7.42 8.91011 7.35 8.91011 7.31C8.91011 7.27 8.91011 7.23 8.91011 7.18C8.91011 7.14 8.91011 7.09 8.91011 7.02C8.91011 6.95 8.91011 6.88 8.89011 6.81C8.96011 6.81 9.04011 6.81 9.12011 6.81C9.20011 6.81 9.29011 6.81 9.37011 6.81H9.60011C9.71011 6.81 9.83011 6.81 9.95011 6.81C10.0801 6.81 10.1901 6.81 10.3001 6.81H10.3101Z" fill="black"/>
<path d="M12.0101 6.81V6.87L10.8601 8.78H11.4201C11.5101 8.78 11.5801 8.78 11.6401 8.75C11.7001 8.73 11.7401 8.7 11.7701 8.66C11.8001 8.62 11.8301 8.56 11.8501 8.49C11.8701 8.42 11.8801 8.34 11.8901 8.24H11.9601C11.9601 8.3 11.9601 8.38 11.9601 8.48C11.9601 8.52 11.9601 8.57 11.9601 8.64C11.9601 8.71 11.9601 8.78 11.9801 8.85C11.9101 8.85 11.8301 8.85 11.7501 8.85C11.6701 8.85 11.5801 8.85 11.5001 8.85H11.2701C11.1601 8.85 11.0401 8.85 10.9101 8.85C10.7801 8.85 10.6701 8.85 10.5601 8.85V8.79L11.7101 6.88H11.1501C11.0601 6.88 10.9901 6.88 10.9301 6.91C10.8701 6.93 10.8301 6.96 10.8001 7C10.7701 7.04 10.7401 7.1 10.7201 7.17C10.7001 7.24 10.6901 7.32 10.6801 7.42H10.6101C10.6101 7.42 10.6101 7.35 10.6101 7.31C10.6101 7.27 10.6101 7.23 10.6101 7.18C10.6101 7.14 10.6101 7.09 10.6101 7.02C10.6101 6.95 10.6101 6.88 10.5901 6.81C10.6601 6.81 10.7401 6.81 10.8201 6.81C10.9001 6.81 10.9901 6.81 11.0701 6.81H11.3001C11.4101 6.81 11.5301 6.81 11.6501 6.81C11.7801 6.81 11.8901 6.81 12.0001 6.81H12.0101Z" fill="black"/>
<path d="M13.0601 6.79L13.7601 8.6C13.7901 8.67 13.8201 8.72 13.8601 8.74C13.9001 8.76 13.9301 8.78 13.9601 8.78V8.84C13.9601 8.84 13.8701 8.84 13.8201 8.84C13.7601 8.84 13.7101 8.84 13.6501 8.84C13.5801 8.84 13.5101 8.84 13.4401 8.84C13.3701 8.84 13.3201 8.84 13.2801 8.84V8.78C13.3801 8.78 13.4401 8.76 13.4701 8.73C13.5001 8.7 13.4901 8.64 13.4501 8.54L12.9201 7.11L12.9701 7.07L12.4701 8.37C12.4401 8.45 12.4201 8.51 12.4201 8.56C12.4201 8.61 12.4201 8.65 12.4401 8.68C12.4601 8.71 12.4801 8.73 12.5201 8.75C12.5601 8.76 12.6101 8.77 12.6701 8.77V8.83C12.6201 8.83 12.5601 8.83 12.5001 8.83C12.4401 8.83 12.3901 8.83 12.3401 8.83C12.2901 8.83 12.2501 8.83 12.2201 8.83C12.1901 8.83 12.1601 8.83 12.1301 8.83V8.77C12.1301 8.77 12.2101 8.74 12.2501 8.7C12.2901 8.66 12.3301 8.6 12.3601 8.52L13.0301 6.78H13.0801L13.0601 6.79ZM13.4101 8.01V8.07H12.5501L12.5801 8.01H13.4101Z" fill="black"/>
<path d="M13.94 6.34H0V6.43H13.94V6.34Z" fill="black"/>
<path d="M13.9401 9.28999H0.0800781V9.37999H13.9401V9.28999Z" fill="black"/>
</g>
<defs>
<clipPath id="clip0_3790_6533">
<rect width="13.96" height="9.37" fill="white"/>
</clipPath>
</defs>
</svg>
