<svg width="13" height="3" viewBox="0 0 13 3" fill="none" xmlns="http://www.w3.org/2000/svg">
<path d="M9.07701 2.16989L8.85525 1.15433C8.80434 0.915275 8.69894 0.854459 8.53531 0.854459C8.37224 0.854459 8.26629 0.91525 8.2154 1.15433L7.99416 2.16989C7.87107 2.73537 7.66021 2.93337 7.23438 2.93337V2.87154C7.30914 2.85126 7.38083 2.71821 7.5247 2.15276L7.77553 1.14394C7.8742 0.752074 8.10014 0.5 8.53534 0.5C8.9716 0.5 9.19592 0.752074 9.29409 1.14394L9.5465 2.15276C9.68931 2.71821 9.76152 2.85126 9.83628 2.87154V2.93337C9.41042 2.93337 9.19907 2.73537 9.07701 2.16989Z" fill="black"/>
<path d="M1.90781 0.902056H1.49207V1.70662H1.90781C2.12229 1.70662 2.30976 1.55329 2.30976 1.30434C2.30979 1.05588 2.12229 0.902056 1.90781 0.902056ZM1.49339 2.14476C1.49339 2.78141 1.33472 2.90253 0.910156 2.90095V2.83962C0.987526 2.82146 1.04985 2.78557 1.04985 2.12083L1.04959 1.17493C1.04959 0.708215 1.01894 0.629236 0.913254 0.608955V0.548656H2.00648C2.43569 0.548656 2.76265 0.867799 2.76265 1.30434C2.76265 1.74038 2.43572 2.06157 2.00648 2.06157H1.49207L1.49339 2.14476Z" fill="black"/>
<path d="M11.7818 2.16989L11.7408 1.9963H10.685L10.6445 2.16989C10.5115 2.73537 10.3282 2.93337 9.90234 2.93337V2.87154C9.97711 2.85126 10.0524 2.71821 10.1911 2.15276L10.4435 1.14394C10.5453 0.731277 10.7847 0.5 11.2132 0.5C11.6421 0.5 11.881 0.731277 11.9828 1.14394L12.2352 2.15276C12.3739 2.71821 12.4492 2.85126 12.5245 2.87154V2.93337C12.0986 2.93337 11.9143 2.73537 11.7818 2.16989ZM11.5606 1.18135C11.4993 0.915275 11.397 0.854459 11.2132 0.854459C11.0293 0.854459 10.9275 0.915249 10.8657 1.18135L10.7598 1.64807H11.6655L11.5606 1.18135Z" fill="black"/>
<path d="M3.17435 1.16098C3.17435 0.694268 3.16239 0.626683 3.04297 0.594983V0.53471H3.59995V2.04865L3.62695 2.06633L5.20365 0.478027H5.2652V2.11934C5.2652 2.78405 5.32726 2.81994 5.40463 2.83813V2.89946C4.9972 2.90468 4.83934 2.78876 4.83934 2.14691C4.83934 1.97384 4.83934 1.39536 4.83934 1.39536L4.81205 1.37769L3.23535 2.96601H3.17432L3.17435 1.16098Z" fill="black"/>
<path d="M5.82422 0.544922H7.55231V1.03556H7.49105C7.47026 0.919636 7.34772 0.899381 6.92547 0.899381H6.40691V2.1358C6.40691 2.77355 6.24982 2.90241 5.82473 2.90084V2.8395C5.9021 2.82134 5.96236 2.78546 5.96236 2.12072V1.17481C5.96236 0.708098 5.92965 0.629119 5.82422 0.608838V0.544922Z" fill="black"/>
</svg>
