<svg width="39" height="15" viewBox="0 0 39 15" fill="none" xmlns="http://www.w3.org/2000/svg">
<g clip-path="url(#clip0_3790_7265)">
<path d="M1.40338 2.41837C1.16331 2.47379 0.9804 2.49596 0.854648 2.47379C0.728896 2.46271 0.660304 2.42945 0.648872 2.38511C0.63744 2.34077 0.671736 2.28535 0.75176 2.22993C0.843216 2.1745 0.968968 2.13016 1.16331 2.08583C1.72348 1.96389 2.32938 1.85305 2.99243 1.73111C3.64406 1.60918 4.31855 1.49834 5.00447 1.38749C5.69039 1.27664 6.37631 1.17688 7.07366 1.0882C7.77101 0.999523 8.43407 0.933014 9.09713 0.888676C9.73732 0.844337 10.3546 0.833252 10.9377 0.833252C11.5207 0.833252 12.0466 0.877591 12.5039 0.955184C12.9726 1.03278 13.3613 1.14362 13.6814 1.29881C14.0015 1.454 14.2187 1.66461 14.3444 1.91955C14.4702 2.1745 14.4473 2.45162 14.2987 2.77308C14.1501 3.08345 13.8986 3.41599 13.567 3.75962C13.2241 4.10324 12.824 4.44687 12.3324 4.80158C11.8522 5.15629 11.3378 5.49992 10.8119 5.83246C10.2746 6.165 9.73732 6.48646 9.20001 6.78575C8.66271 7.08503 8.14827 7.36215 7.69099 7.59493C7.22228 7.82771 6.82216 8.02723 6.4792 8.18242C6.13624 8.33761 5.89616 8.43737 5.77041 8.48171C5.89616 8.59256 6.07908 8.74774 6.33058 8.95835C6.58208 9.16896 6.85645 9.41282 7.18798 9.68994C7.50808 9.96706 7.86247 10.2663 8.23973 10.5878C8.61698 10.9093 8.99424 11.2307 9.37149 11.5522C9.74875 11.8736 10.1146 12.184 10.469 12.4944C10.8234 12.8047 11.1435 13.0708 11.4293 13.3146C11.7151 13.5585 11.9551 13.758 12.1495 13.9132C12.3438 14.0684 12.4581 14.1682 12.5039 14.2125C12.641 14.3123 12.6982 14.4231 12.6753 14.5229C12.6525 14.6226 12.5839 14.7002 12.481 14.7446C12.3667 14.8 12.2409 14.8111 12.0809 14.8C11.9208 14.7889 11.7722 14.7224 11.6236 14.6005C11.5664 14.5561 11.4407 14.4342 11.2463 14.2458C11.052 14.0573 10.8005 13.8245 10.5147 13.5474C10.2289 13.2703 9.9088 12.9599 9.55441 12.6163C9.20002 12.2727 8.84562 11.918 8.4798 11.5743C8.11397 11.2196 7.75958 10.876 7.40519 10.5324C7.0508 10.1888 6.7307 9.87838 6.4449 9.60126C6.1591 9.32415 5.91903 9.09137 5.72468 8.91401C5.53034 8.72557 5.41602 8.61472 5.35886 8.57039C5.21024 8.59256 5.09592 8.60364 5.0159 8.59256C4.93587 8.58147 4.89015 8.54822 4.90158 8.51496C4.90158 8.47062 4.95874 8.4152 5.06163 8.34869C5.16452 8.28218 5.32456 8.20459 5.5532 8.11591C5.69039 8.06049 5.9076 7.96073 6.21626 7.81663C6.52492 7.67252 6.87932 7.48408 7.27944 7.27347C7.67956 7.06286 8.12541 6.819 8.59412 6.54188C9.06283 6.27585 9.53154 5.98765 9.98882 5.68836C10.4461 5.38907 10.8805 5.08978 11.2921 4.77941C11.7036 4.46904 12.058 4.15867 12.3552 3.85938C12.6525 3.56009 12.8697 3.27189 13.0069 2.99477C13.1441 2.71765 13.1784 2.47379 13.0869 2.2521C12.9954 2.0304 12.8011 1.85305 12.5039 1.72003C12.2066 1.58701 11.8408 1.49834 11.395 1.43183C10.9491 1.36532 10.4461 1.34315 9.88593 1.34315C9.32577 1.34315 8.74273 1.36532 8.13684 1.40966C7.53094 1.454 6.90218 1.50942 6.27342 1.58701C5.63323 1.66461 5.02733 1.75328 4.4443 1.84196C3.86127 1.93064 3.3011 2.0304 2.78666 2.13016C2.27222 2.22993 1.82637 2.3186 1.44911 2.3962L1.40338 2.41837ZM1.44911 13.226C1.64346 12.7493 1.82637 12.2727 2.02071 11.796C2.20363 11.3194 2.4094 10.8095 2.62661 10.2996C2.84382 9.77862 3.08389 9.23547 3.34683 8.65906C3.60976 8.08266 3.90699 7.46191 4.23852 6.80792C4.57005 6.14283 4.95874 5.43341 5.38172 4.66856C5.80471 3.90372 6.29628 3.07237 6.85645 2.16342C6.9822 1.96389 7.10796 1.8863 7.24514 1.89738C7.38233 1.91955 7.49665 1.99715 7.5881 2.15233C7.67956 2.29643 7.72529 2.48488 7.73672 2.71765C7.73672 2.93935 7.67956 3.16104 7.54237 3.37165C6.9822 4.21409 6.49063 4.95677 6.06764 5.59968C5.64466 6.24259 5.2674 6.84117 4.93588 7.37324C4.60435 7.9053 4.30711 8.40411 4.03275 8.85859C3.75838 9.32415 3.50687 9.78971 3.25537 10.2663C3.0153 10.743 2.76379 11.2418 2.51229 11.7628C2.26079 12.2838 1.98642 12.8713 1.68918 13.5253C1.63202 13.6583 1.56343 13.7359 1.5177 13.7802C1.46054 13.8245 1.41482 13.8245 1.39195 13.7913C1.35766 13.758 1.34622 13.6915 1.35766 13.6028C1.35766 13.5031 1.39195 13.3812 1.44911 13.2371V13.226Z" fill="#010101"/>
<path d="M13.3842 5.98764C13.5786 5.91005 13.7386 5.92113 13.8644 6.03198C13.9901 6.13174 14.0702 6.27585 14.1045 6.43103C14.6189 6.39778 15.0076 6.36452 15.2705 6.3091C15.5449 6.25368 15.7507 6.19825 15.9107 6.12066C15.9907 6.08741 16.0593 6.06524 16.1165 6.05415C16.1851 6.04307 16.2194 6.05415 16.2422 6.06524C16.2651 6.08741 16.2422 6.12066 16.2194 6.18717C16.1851 6.24259 16.0936 6.32018 15.9564 6.41995C15.8536 6.49754 15.7392 6.56405 15.5906 6.61947C15.442 6.68598 15.282 6.73032 15.1219 6.78574C14.9504 6.83008 14.7789 6.87442 14.596 6.90767C14.4131 6.94093 14.2416 6.95201 14.0702 6.9631C14.0244 7.19588 13.9558 7.42866 13.8415 7.6836C13.7272 7.93855 13.59 8.18242 13.43 8.42628C13.2699 8.67014 13.0984 8.91401 12.9155 9.1357C12.7326 9.36848 12.5383 9.56801 12.3439 9.73428C12.1496 9.91163 11.9552 10.0446 11.7723 10.1444C11.5894 10.2442 11.4179 10.2996 11.2579 10.2996C11.0635 10.2996 10.9035 10.2553 10.7549 10.1555C10.6177 10.0557 10.5034 9.9338 10.4234 9.77862C10.3433 9.62343 10.2862 9.45716 10.2519 9.26872C10.2176 9.08028 10.229 8.90292 10.2519 8.72557C10.2976 8.4817 10.4005 8.20459 10.572 7.89421C10.7434 7.58384 10.9492 7.28456 11.1664 6.99635C11.3951 6.70815 11.6237 6.4532 11.8524 6.23151C12.0924 6.00981 12.2982 5.86571 12.4697 5.81029C12.5611 5.77703 12.6412 5.75486 12.7212 5.73269C12.8012 5.71053 12.8812 5.69944 12.9498 5.71053C13.0298 5.71053 13.0984 5.74378 13.167 5.78812C13.2356 5.83246 13.2928 5.89897 13.3614 5.99873L13.3842 5.98764ZM10.7434 9.60126C10.8006 9.71211 10.9035 9.74536 11.0407 9.71211C11.1779 9.66777 11.3265 9.59018 11.5094 9.45716C11.6809 9.32414 11.8638 9.15787 12.0696 8.94726C12.2639 8.73665 12.4582 8.52604 12.6412 8.28218C12.8241 8.0494 12.9956 7.80554 13.1442 7.57276C13.2928 7.33998 13.4071 7.11828 13.4986 6.91876C13.2585 6.87442 13.0984 6.78574 13.0298 6.66381C12.9613 6.54188 12.9613 6.43103 13.0298 6.33127C12.8698 6.41995 12.6983 6.55296 12.504 6.71923C12.3096 6.88551 12.1267 7.07395 11.9324 7.28456C11.738 7.49517 11.5666 7.70577 11.3951 7.93855C11.2236 8.17133 11.0864 8.38194 10.9721 8.59255C10.8578 8.80316 10.7777 9.00269 10.732 9.18004C10.6863 9.3574 10.6977 9.5015 10.7663 9.61235L10.7434 9.60126Z" fill="#010101"/>
<path d="M15.8078 5.77704C15.8078 5.77704 15.9335 5.71053 16.0364 5.69945C16.1393 5.69945 16.2307 5.69945 16.3108 5.72162C16.4022 5.74379 16.4708 5.77704 16.5165 5.83246C16.5623 5.8768 16.5623 5.93223 16.5165 5.99874C16.4594 6.07633 16.3565 6.19826 16.2307 6.36453C16.105 6.51972 15.9564 6.70816 15.8078 6.91877C15.6591 7.12938 15.4991 7.36216 15.339 7.60602C15.179 7.84988 15.0418 8.09375 14.9161 8.32653C15.0075 8.20459 15.1333 8.06049 15.2705 7.89422C15.4076 7.72795 15.5563 7.5506 15.7049 7.37324C15.8535 7.19588 16.0135 7.01853 16.1736 6.84117C16.3336 6.66382 16.4822 6.50863 16.6194 6.36453C16.7566 6.22043 16.8938 6.0985 16.9967 6.00982C17.111 5.91006 17.191 5.85463 17.2596 5.84355C17.3511 5.82138 17.4311 5.84355 17.5111 5.89897C17.5912 5.9544 17.6483 6.03199 17.694 6.13175C17.7398 6.23151 17.7741 6.32019 17.7969 6.41995C17.8198 6.51972 17.8198 6.58623 17.7969 6.64165C17.7741 6.69707 17.7055 6.80792 17.5912 6.99636C17.4768 7.1848 17.3396 7.38433 17.2025 7.58385C17.0424 7.82771 16.8595 8.09375 16.6652 8.38195C17.0996 7.89422 17.4997 7.43975 17.8541 7.05178C18.0027 6.88551 18.1513 6.71924 18.3114 6.55297C18.46 6.3867 18.6086 6.2426 18.7344 6.10958C18.8601 5.97657 18.9744 5.86572 19.0659 5.77704C19.1573 5.68836 19.2259 5.64402 19.2602 5.62185C19.3403 5.5886 19.4088 5.59969 19.4889 5.65511C19.5689 5.71053 19.6261 5.77704 19.6832 5.8768C19.7404 5.96548 19.7747 6.06524 19.7747 6.17609C19.7747 6.28694 19.7632 6.37562 19.7061 6.45321C19.6489 6.51972 19.5689 6.63056 19.466 6.79684C19.3517 6.96311 19.2374 7.15155 19.1002 7.36216C18.963 7.57277 18.8258 7.79446 18.7001 8.02724C18.5629 8.26002 18.4486 8.47063 18.3342 8.67015C18.2313 8.86968 18.1513 9.04703 18.0942 9.18005C18.037 9.32415 18.0256 9.40174 18.0599 9.435C18.0827 9.45717 18.1399 9.435 18.2428 9.36849C18.3457 9.30198 18.4714 9.2133 18.62 9.11354C18.7687 9.00269 18.9287 8.88076 19.1002 8.73666C19.2717 8.59256 19.4431 8.44846 19.6032 8.31544C19.7632 8.17134 19.9233 8.03832 20.0605 7.91639C20.1977 7.79446 20.3005 7.68361 20.3806 7.6171C20.4949 7.50626 20.5978 7.41758 20.7121 7.36216C20.815 7.30673 20.895 7.27348 20.9522 7.28456C21.0093 7.28456 21.0322 7.31782 21.0322 7.37324C21.0322 7.42866 20.975 7.50626 20.8607 7.6171C20.7921 7.68361 20.6892 7.79446 20.552 7.94965C20.4149 8.10483 20.2548 8.2711 20.0833 8.47063C19.9119 8.67015 19.7289 8.86968 19.5346 9.0692C19.3403 9.27981 19.1573 9.46825 18.9859 9.63452C18.8144 9.81188 18.6543 9.94489 18.5171 10.0557C18.38 10.1666 18.2771 10.222 18.2199 10.222C18.117 10.222 18.0256 10.1998 17.9112 10.1333C17.8084 10.0779 17.7169 10.0003 17.6369 9.90056C17.5569 9.80079 17.4997 9.70103 17.454 9.56801C17.4082 9.44608 17.4082 9.31307 17.4197 9.19113C17.454 9.00269 17.534 8.80317 17.6712 8.57039C17.7969 8.33761 17.9341 8.127 18.0942 7.93856C18.2542 7.70578 18.4371 7.473 18.6429 7.24022C18.5743 7.27348 18.4714 7.35107 18.3114 7.46192C18.1628 7.58385 17.9913 7.72795 17.7969 7.90531C17.6026 8.08266 17.4082 8.2711 17.191 8.47063C16.9853 8.67015 16.7795 8.86968 16.5966 9.05812C16.4137 9.24656 16.2422 9.42391 16.105 9.5791C15.9678 9.73429 15.8649 9.85622 15.8192 9.92273C15.7277 10.0447 15.6477 10.089 15.5906 10.0668C15.522 10.0447 15.4762 10.0003 15.4419 9.91164C15.4076 9.83405 15.3848 9.73429 15.3733 9.63452C15.3733 9.52368 15.3733 9.44608 15.4191 9.37957C15.4419 9.34632 15.4877 9.26873 15.5677 9.16896C15.6363 9.0692 15.7277 8.93619 15.8306 8.79208C15.9335 8.64798 16.0364 8.4928 16.1622 8.31544C16.2765 8.14917 16.3908 7.9829 16.5051 7.81663C16.608 7.66144 16.7109 7.50626 16.8023 7.37324C16.8938 7.24022 16.9624 7.12938 17.0081 7.0407C16.7109 7.28456 16.4022 7.56168 16.0821 7.87205C15.7506 8.18242 15.4419 8.48171 15.1561 8.781C14.8589 9.08029 14.6074 9.34632 14.3902 9.60127C14.173 9.85622 14.0129 10.0557 13.9215 10.1998C13.8872 10.2553 13.83 10.2774 13.7729 10.2664C13.7043 10.2442 13.6471 10.2109 13.59 10.1555C13.5328 10.1001 13.4985 10.0336 13.4642 9.9449C13.4299 9.8673 13.4299 9.78971 13.4642 9.71212C13.4871 9.66778 13.5442 9.54585 13.6471 9.3574C13.75 9.16896 13.8643 8.93619 14.0015 8.67015C14.1387 8.40412 14.2987 8.11592 14.4702 7.81663C14.6417 7.50626 14.8132 7.21805 14.9847 6.94094C15.1561 6.66382 15.3048 6.41995 15.4534 6.20934C15.602 5.99874 15.7277 5.85463 15.8192 5.76596L15.8078 5.77704Z" fill="#010101"/>
<path d="M23.8673 7.15151C23.6616 7.46188 23.4901 7.75008 23.3186 7.99395C23.1585 8.24889 23.0214 8.4595 22.9185 8.62577C22.8156 8.80313 22.747 8.93615 22.7127 9.04699C22.6784 9.14676 22.6784 9.21326 22.7241 9.23543C22.7813 9.26869 22.8842 9.21326 23.0442 9.08025C23.2043 8.94723 23.3872 8.79205 23.593 8.59252C23.7987 8.40408 23.9931 8.20456 24.1874 8.00503C24.3818 7.80551 24.5418 7.63924 24.6561 7.5173C24.759 7.41754 24.8505 7.33995 24.9648 7.28452C25.0677 7.2291 25.1591 7.19585 25.2163 7.18476C25.2849 7.18476 25.3078 7.20693 25.3078 7.25127C25.3078 7.30669 25.2506 7.38429 25.1363 7.50622C24.9762 7.67249 24.7705 7.89418 24.5418 8.1713C24.3132 8.44842 24.0845 8.72554 23.8559 8.99157C23.6273 9.26869 23.4215 9.50147 23.2386 9.71208C23.0557 9.92269 22.9185 10.0335 22.8384 10.0557C22.7241 10.089 22.6212 10.1 22.5298 10.0557C22.4383 10.0224 22.3469 9.96703 22.2783 9.88943C22.2097 9.81184 22.1525 9.72316 22.1297 9.61231C22.0954 9.50147 22.0839 9.40171 22.1068 9.29086C22.1068 9.20218 22.1411 9.09133 22.1983 8.9694C22.244 8.84747 22.3126 8.72554 22.3697 8.60361C22.4383 8.48167 22.4955 8.37083 22.5526 8.25998C22.6098 8.14913 22.6555 8.07154 22.7013 8.00503C22.667 8.06045 22.6098 8.14913 22.5069 8.27106C22.4155 8.393 22.2897 8.5371 22.1525 8.69228C22.0153 8.84747 21.8667 9.01374 21.6952 9.1911C21.5352 9.36845 21.3637 9.52364 21.2037 9.65665C21.0436 9.80076 20.8836 9.9116 20.735 10.0114C20.5863 10.1111 20.4606 10.1555 20.3463 10.1555C20.2205 10.1555 20.1062 10.1111 19.9919 10.0224C19.8776 9.93377 19.7861 9.82292 19.7175 9.67882C19.6489 9.54581 19.5918 9.40171 19.5575 9.24652C19.5232 9.09133 19.5232 8.95832 19.5575 8.83638C19.5918 8.70337 19.6946 8.52601 19.8547 8.29323C20.0147 8.06045 20.2091 7.81659 20.4263 7.55056C20.6549 7.28452 20.895 7.01849 21.1579 6.75246C21.4209 6.48642 21.6838 6.24256 21.9353 6.03195C22.1868 5.82134 22.4269 5.65507 22.6555 5.53314C22.8727 5.41121 23.0557 5.36687 23.1928 5.38904C23.25 5.40012 23.3072 5.44446 23.3758 5.52205C23.4443 5.59965 23.5015 5.68832 23.5587 5.79917C23.6044 5.91002 23.6387 6.03195 23.6616 6.17605C23.6844 6.32015 23.6616 6.45317 23.6158 6.58619C23.7187 6.64161 23.8102 6.73029 23.8673 6.85222C23.9245 6.97415 23.9359 7.07391 23.8673 7.16259V7.15151ZM23.2271 6.18714C23.1357 6.1428 22.9871 6.18714 22.7927 6.29798C22.5984 6.41992 22.3812 6.58619 22.1411 6.7968C21.901 7.00741 21.6495 7.25127 21.398 7.5173C21.1465 7.78334 20.9179 8.03828 20.735 8.28215C20.5406 8.52601 20.4034 8.74771 20.3005 8.93615C20.1977 9.12459 20.1748 9.2576 20.2434 9.32411C20.3005 9.39062 20.4263 9.36845 20.6092 9.2576C20.8035 9.14676 21.0322 8.98049 21.2951 8.74771C21.5581 8.51493 21.8439 8.23781 22.1411 7.92744C22.4498 7.60598 22.7356 7.27344 23.0214 6.92981C23.1128 6.74137 23.1928 6.58619 23.2386 6.44209C23.2843 6.30907 23.2843 6.22039 23.2386 6.19822L23.2271 6.18714Z" fill="#010101"/>
<path d="M26.0623 5.43338C26.0623 5.43338 26.1881 5.37795 26.2681 5.38904C26.3595 5.38904 26.4396 5.42229 26.5196 5.46663C26.5996 5.51097 26.6568 5.55531 26.7025 5.59965C26.7482 5.65507 26.7482 5.69941 26.7025 5.75483C26.6225 5.83243 26.531 5.95436 26.4053 6.12063C26.2795 6.27582 26.1309 6.46426 25.9708 6.68595C25.8108 6.90765 25.6393 7.14042 25.4678 7.39537C25.2964 7.65032 25.1249 7.91635 24.9648 8.18239C25.022 8.10479 25.1134 7.99395 25.2392 7.84985C25.3649 7.70574 25.5021 7.53947 25.6507 7.3732C25.7994 7.19585 25.9708 7.01849 26.1423 6.83005C26.3138 6.64161 26.4853 6.47534 26.6568 6.32016C26.8168 6.16497 26.9769 6.03195 27.114 5.93219C27.2512 5.83243 27.3655 5.76592 27.4456 5.76592C27.5713 5.75483 27.6856 5.78809 27.7771 5.87677C27.8686 5.96544 27.9371 6.06521 27.9829 6.19822C28.0286 6.32016 28.0515 6.45317 28.0515 6.58619C28.0515 6.71921 28.0172 6.81897 27.9486 6.88548C27.88 6.96307 27.7771 7.07392 27.6513 7.2291C27.5256 7.38429 27.377 7.56164 27.2284 7.75008C27.0797 7.93852 26.9311 8.13805 26.7825 8.34866C26.6339 8.55927 26.5081 8.74771 26.4053 8.91398C26.3024 9.08025 26.2338 9.22435 26.1995 9.34628C26.1652 9.45713 26.188 9.52364 26.2566 9.53472C26.3595 9.54581 26.6453 9.37954 27.1026 9.01374C27.5599 8.65903 28.1201 8.14913 28.7945 7.48405C28.886 7.38429 28.9889 7.31778 29.0803 7.26236C29.1718 7.21802 29.2518 7.18476 29.309 7.19585C29.3661 7.19585 29.4004 7.2291 29.4004 7.27344C29.4004 7.31778 29.3661 7.39537 29.2747 7.48405C29.0803 7.67249 28.8746 7.87202 28.6688 8.10479C28.463 8.32649 28.2572 8.54818 28.04 8.76988C27.8228 8.99157 27.6171 9.1911 27.3998 9.37954C27.1941 9.56798 26.9883 9.73425 26.7939 9.86726C26.5996 10.0003 26.4167 10.089 26.2338 10.1444C26.0509 10.1998 25.8908 10.1887 25.7536 10.1222C25.5936 10.0557 25.5136 9.92269 25.5021 9.72316C25.5021 9.53472 25.5479 9.30194 25.6507 9.02483C25.7651 8.74771 25.9137 8.44842 26.1309 8.12696C26.3367 7.79442 26.5767 7.46188 26.8397 7.11826C26.7025 7.18476 26.5424 7.28453 26.3595 7.4508C26.1766 7.60598 25.9823 7.79442 25.7879 8.00503C25.5936 8.21564 25.3992 8.43734 25.2049 8.65903C25.0106 8.89181 24.8391 9.10242 24.6676 9.30194C24.5075 9.50147 24.3704 9.66774 24.2675 9.80076C24.1646 9.93377 24.096 10.0225 24.0731 10.0446C24.0388 10.0779 23.9931 10.1111 23.9359 10.1222C23.8788 10.1333 23.8216 10.1333 23.7645 10.1222C23.7073 10.1222 23.6501 10.089 23.593 10.0446C23.5473 10.0003 23.5015 9.94486 23.4787 9.87835C23.4672 9.83401 23.5015 9.70099 23.6044 9.4793C23.7073 9.25761 23.8445 8.99157 24.0045 8.6812C24.176 8.37083 24.3589 8.03829 24.5647 7.68358C24.7705 7.32886 24.9763 6.99632 25.1706 6.68595C25.3649 6.37558 25.5479 6.10955 25.6965 5.88785C25.8565 5.66616 25.9594 5.52206 26.028 5.47772L26.0623 5.43338Z" fill="#010101"/>
<path d="M28.9773 4.84595C28.9773 4.84595 28.9087 4.80161 28.8973 4.76835C28.8973 4.7351 28.8973 4.69076 28.9202 4.64642C28.943 4.60208 28.9888 4.56883 29.0459 4.54666C29.1031 4.52449 29.1717 4.52449 29.2403 4.54666C29.3775 4.57991 29.5604 4.60208 29.8004 4.62425C30.0405 4.63534 30.3035 4.64642 30.5893 4.64642C30.8179 4.35822 31.0465 4.11435 31.2637 3.89266C31.481 3.67097 31.6753 3.51578 31.8353 3.41602C31.9154 3.37168 32.0183 3.36059 32.1211 3.39385C32.2355 3.4271 32.3269 3.49361 32.4184 3.58229C32.5098 3.68205 32.567 3.80398 32.6127 3.95917C32.6584 4.11435 32.647 4.29171 32.5899 4.49123C32.5899 4.49123 33.4587 4.31388 33.7216 4.21412C33.8702 4.15869 33.9503 4.15869 33.9846 4.20303C34.0189 4.24737 34.0074 4.31388 33.9503 4.41364C33.8931 4.5134 33.8017 4.61317 33.6759 4.72401C33.5501 4.83486 32.9671 5.05655 32.5899 5.07872C32.2469 5.10089 32.3841 5.08981 31.9954 5.10089H31.9725C31.9725 5.10089 31.8811 5.17849 31.7439 5.30042C31.6067 5.42235 31.4352 5.56645 31.2294 5.74381C31.0237 5.92116 30.795 6.12069 30.555 6.3313C30.3149 6.54191 30.0862 6.75252 29.8576 6.95204C29.6976 7.21808 29.5489 7.48411 29.4232 7.72797C29.2974 7.98292 29.1946 8.2157 29.126 8.42631C29.0574 8.63692 29.0231 8.82536 29.0116 8.98055C29.0116 9.13573 29.0459 9.24658 29.126 9.32417C29.1831 9.37959 29.2974 9.34634 29.4918 9.24658C29.6861 9.14682 29.9148 9.00271 30.1663 8.81427C30.4292 8.62583 30.7036 8.40414 30.9894 8.16028C31.2752 7.91641 31.5381 7.67255 31.7782 7.42868C31.8925 7.30675 32.0068 7.21808 32.1211 7.16265C32.224 7.10723 32.3041 7.08506 32.3612 7.08506C32.4184 7.08506 32.4412 7.1294 32.4298 7.18482C32.4298 7.24024 32.3612 7.31784 32.2698 7.4176C32.2012 7.48411 32.0983 7.59496 31.9611 7.75014C31.8239 7.90533 31.6639 8.08268 31.481 8.28221C31.298 8.48173 31.1037 8.68126 30.8979 8.89187C30.6921 9.10248 30.4864 9.29092 30.292 9.46827C30.0977 9.64563 29.9148 9.77865 29.7433 9.90058C29.5718 10.0114 29.4232 10.0668 29.3089 10.0779C29.1946 10.0779 29.0802 10.0336 28.9545 9.93383C28.8287 9.83407 28.7258 9.70105 28.6344 9.5237C28.5429 9.34634 28.4858 9.13573 28.4629 8.90295C28.4286 8.65909 28.4629 8.40414 28.5201 8.12702C28.5658 7.93858 28.6458 7.72797 28.7601 7.48411C28.8745 7.24024 29.0116 6.9853 29.1603 6.71926C29.3203 6.45323 29.4918 6.17611 29.6747 5.88791C29.869 5.59971 30.0634 5.33367 30.2577 5.06764C30.0177 5.04547 29.789 5.01222 29.5718 4.97896C29.3546 4.94571 29.1488 4.91245 28.9545 4.85703L28.9773 4.84595ZM31.1494 5.11198C30.8979 5.42235 30.6693 5.74381 30.4406 6.09852L31.4124 5.12306C31.4124 5.12306 31.3323 5.12306 31.2866 5.12306C31.2409 5.12306 31.1952 5.12306 31.1494 5.12306V5.11198ZM31.9268 4.57991C32.0868 4.40256 32.2012 4.26954 32.2469 4.18086C32.2926 4.09218 32.3041 4.03676 32.2812 3.99242C32.2469 3.94808 32.1669 3.99242 32.0411 4.10327C31.9154 4.21412 31.7553 4.39147 31.561 4.60208C31.6181 4.60208 31.6867 4.60208 31.7439 4.60208C31.801 4.60208 31.8696 4.60208 31.9268 4.57991Z" fill="#010101"/>
<path d="M34.4304 7.38434C34.5104 7.30675 34.6019 7.24024 34.6933 7.20699C34.7848 7.17373 34.8534 7.15156 34.9105 7.15156C34.9677 7.15156 35.002 7.17373 35.0134 7.20699C35.0134 7.25132 34.9906 7.30675 34.9105 7.38434C34.8762 7.41759 34.7962 7.50627 34.659 7.65037C34.5333 7.79448 34.3732 7.96075 34.2018 8.14919C34.0188 8.33763 33.8245 8.54824 33.6073 8.75885C33.3901 8.98054 33.1843 9.16898 32.9785 9.35742C32.7727 9.53478 32.5898 9.68996 32.4184 9.81189C32.2469 9.93383 32.1097 9.98925 32.0068 10.0003C31.9039 10.0003 31.7896 9.97816 31.6867 9.92274C31.5838 9.8784 31.4809 9.80081 31.3895 9.71213C31.298 9.62345 31.2294 9.52369 31.1723 9.40176C31.1151 9.27983 31.0808 9.1579 31.0808 9.01379C31.0808 8.86969 31.1265 8.69234 31.218 8.48173C31.3095 8.27112 31.4238 8.03834 31.5724 7.80556C31.721 7.57278 31.8811 7.32892 32.0525 7.08505C32.224 6.84119 32.3955 6.6195 32.5555 6.40889C32.7156 6.20936 32.8528 6.03201 32.9785 5.89899C33.1043 5.76597 33.1843 5.67729 33.2186 5.64404C33.2872 5.5997 33.3672 5.58862 33.4701 5.5997C33.573 5.62187 33.6644 5.65512 33.7559 5.71055C33.8474 5.76597 33.9045 5.8214 33.9502 5.89899C33.996 5.9655 33.9845 6.032 33.9388 6.08743C33.9045 6.12068 33.8131 6.22045 33.6644 6.38672C33.5273 6.55299 33.3558 6.74143 33.1729 6.97421C32.99 7.1959 32.7956 7.43976 32.5898 7.69471C32.3841 7.94966 32.2126 8.19353 32.064 8.4263C31.9153 8.65908 31.801 8.85861 31.721 9.02488C31.641 9.19115 31.641 9.302 31.6981 9.34634C31.7324 9.37959 31.8239 9.34634 31.9611 9.27983C32.0983 9.20223 32.2583 9.10247 32.4412 8.98054C32.6241 8.84752 32.8185 8.70342 33.0357 8.53715C33.2415 8.37088 33.4472 8.21569 33.6416 8.06051C33.8359 7.90532 33.996 7.76122 34.1446 7.63929C34.2818 7.51736 34.3847 7.42868 34.4304 7.38434Z" fill="#010101"/>
<path d="M36.8311 6.40885C36.9225 6.28692 36.9683 6.16499 36.9568 6.05414C36.9568 5.94329 36.8882 5.89895 36.7854 5.92112C36.6139 5.95438 36.4424 6.05414 36.2595 6.22041C36.0766 6.38668 35.8937 6.5862 35.7222 6.79681C35.5507 7.01851 35.3907 7.22912 35.2649 7.45081C35.1277 7.67251 35.0248 7.84986 34.9677 7.98288C34.8648 8.21566 34.8076 8.43735 34.7962 8.63688C34.7962 8.8364 34.8305 8.99159 34.9105 9.09135C35.0134 9.21328 35.1849 9.22437 35.425 9.13569C35.665 9.04701 35.9394 8.90291 36.2366 8.71447C36.5339 8.52603 36.8425 8.30434 37.1512 8.04939C37.4598 7.79444 37.7228 7.56166 37.9514 7.33997C38.0772 7.21803 38.1915 7.11827 38.3058 7.06285C38.4201 7.00742 38.5002 6.97417 38.5573 6.97417C38.6145 6.97417 38.6373 7.00742 38.6259 7.06285C38.6145 7.12936 38.5459 7.21803 38.4201 7.33997C38.2029 7.56166 37.9514 7.80552 37.6656 8.09373C37.3798 8.38193 37.0826 8.65905 36.7968 8.914C36.4996 9.18003 36.2252 9.40172 35.9623 9.60125C35.6993 9.80077 35.4821 9.91162 35.3221 9.94487C35.1506 9.97813 34.9905 9.94487 34.8305 9.87837C34.6704 9.80077 34.5218 9.68993 34.3961 9.53474C34.2703 9.39064 34.1789 9.2022 34.1103 8.99159C34.0417 8.78098 34.0188 8.55928 34.0531 8.31542C34.0645 8.14915 34.1217 7.97179 34.2246 7.76118C34.3275 7.56166 34.4532 7.35105 34.6133 7.12936C34.7619 6.91875 34.9334 6.69705 35.1277 6.48644C35.3221 6.27583 35.5164 6.08739 35.7108 5.91004C35.9051 5.73268 36.1109 5.58858 36.3052 5.46665C36.4996 5.34472 36.671 5.26712 36.8311 5.23387C36.8997 5.22278 36.9797 5.2117 37.0712 5.23387C37.1626 5.24495 37.2541 5.27821 37.3341 5.32255C37.4141 5.36689 37.4941 5.42231 37.5513 5.51099C37.6085 5.58858 37.6428 5.68834 37.6428 5.79919C37.6428 5.94329 37.597 6.13173 37.5056 6.35343C37.4141 6.57512 37.3112 6.79681 37.1855 6.99634C37.0597 7.20695 36.9454 7.3843 36.8197 7.53949C36.7053 7.69468 36.6139 7.77227 36.5567 7.78335C36.4996 7.78335 36.4538 7.77227 36.4081 7.71685C36.3624 7.66142 36.3166 7.59491 36.2824 7.51732C36.2481 7.43973 36.2252 7.36213 36.2138 7.27346C36.2138 7.18478 36.2138 7.11827 36.2481 7.06285C36.2824 7.00742 36.3166 6.952 36.3738 6.89658C36.431 6.84115 36.4767 6.77464 36.5453 6.71922C36.6024 6.6638 36.6596 6.60837 36.7168 6.55295C36.7739 6.49753 36.8197 6.45319 36.854 6.40885H36.8311Z" fill="#010101"/>
<path d="M38.1688 3.00581C38.4775 3.13882 38.5575 3.41594 38.4318 3.85933L38.3861 3.95909C38.2489 4.25838 37.6544 4.71285 36.4998 5.02322C34.785 5.4777 34.9565 5.69939 34.2019 5.6218H34.1791C33.9276 5.32251 33.7904 4.9678 33.7447 4.55767C33.7104 4.0256 33.779 3.57113 33.9504 3.20533C34.1676 2.72869 34.5449 2.39615 35.0593 2.20771C35.288 2.15228 35.4595 2.15228 35.5738 2.20771L35.7453 2.27421C35.9053 2.34072 36.0196 2.60676 36.0768 3.05014C36.5569 2.88387 36.9913 2.80628 37.38 2.85062C37.6773 2.88387 37.9402 2.9393 38.1803 3.01689L38.1688 3.00581ZM35.0593 4.30272C34.9222 4.23621 34.8421 4.08102 34.8193 3.83716L34.8421 3.81499C35.2537 3.50462 35.5509 3.16099 35.7224 2.78411L35.7567 2.69543L35.6195 2.64001C35.4366 2.56242 35.1737 2.64001 34.8307 2.87279C34.5335 3.12774 34.3391 3.33835 34.2591 3.52679C33.9847 4.11428 33.9847 4.76828 34.2591 5.48878L34.3163 5.52204C34.8993 5.13407 35.7224 4.74611 36.8084 4.35814C37.5287 4.13645 38.0317 3.8815 38.2832 3.60438C38.2374 3.52679 38.1917 3.47136 38.146 3.44919L38.0431 3.40485C37.5972 3.20533 36.9913 3.18316 36.2483 3.33835C36.0196 3.39377 35.8024 3.58221 35.5852 3.89258C35.4366 4.00343 35.3337 4.11428 35.2537 4.21404C35.2194 4.21404 35.1965 4.22512 35.1622 4.29163H35.0593V4.30272Z" fill="#010101"/>
</g>
<defs>
<clipPath id="clip0_3790_7265">
<rect width="38" height="14" fill="white" transform="translate(0.637451 0.833252)"/>
</clipPath>
</defs>
</svg>
