<svg width="14" height="14" viewBox="0 0 14 14" fill="none" xmlns="http://www.w3.org/2000/svg">
<g clip-path="url(#clip0_3790_7053)">
<path d="M13.2881 4.33777V0.987773C13.2881 0.707773 13.0581 0.467773 12.7681 0.467773H1.11814C0.838145 0.467773 0.598145 0.707773 0.598145 0.987773V12.6378C0.598145 12.9178 0.828145 13.1578 1.11814 13.1578H12.7681C13.0481 13.1578 13.2881 12.9278 13.2881 12.6378V4.33777Z" fill="white"/>
<path d="M12.7481 0.627773C12.9681 0.627773 13.1381 0.807773 13.1381 1.01777V12.6178C13.1381 12.8378 12.9581 13.0078 12.7481 13.0078H1.14814C0.928145 13.0078 0.758145 12.8278 0.758145 12.6178V1.01777C0.758145 0.797773 0.928145 0.627773 1.14814 0.627773H12.7481ZM12.7781 0.467773H1.11814C0.828145 0.467773 0.598145 0.697773 0.598145 0.987773V12.6478C0.598145 12.9378 0.828145 13.1678 1.11814 13.1678H12.7781C13.0681 13.1678 13.2981 12.9378 13.2981 12.6478V0.987773C13.2981 0.697773 13.0681 0.467773 12.7781 0.467773Z" fill="black"/>
<path d="M1.59812 6.81775L3.72813 0.947754H1.26813C1.16813 0.947754 1.07812 1.02775 1.07812 1.13775V12.4978C1.07812 12.5978 1.15813 12.6878 1.26813 12.6878H3.72813L1.59812 6.81775Z" fill="black"/>
<path d="M10.168 0.947754L12.298 6.81775L10.168 12.6778H12.628C12.728 12.6778 12.818 12.5978 12.818 12.4878V1.13775C12.818 1.03775 12.738 0.947754 12.628 0.947754H10.168Z" fill="black"/>
<path d="M5.6383 5.50772C5.5183 6.20772 5.2983 7.41772 5.2283 7.84772C5.1583 8.24772 5.0583 8.56772 4.7583 8.83772H5.8783C5.8783 8.83772 5.5283 8.56772 5.6583 7.77772C5.7983 6.96772 6.0183 5.73772 6.0883 5.32772C6.1883 4.77772 6.5083 4.53772 6.5083 4.53772H5.4083C5.4083 4.53772 5.7683 4.80772 5.6483 5.50772" fill="black"/>
<path d="M9.92811 5.01781C9.92811 4.84781 9.75811 4.50781 9.11811 4.50781C9.61811 5.20781 9.05811 5.83781 9.05811 5.83781C9.54811 5.62781 9.92811 5.30781 9.92811 5.01781Z" fill="black"/>
<path d="M7.79834 7.03775C7.79834 7.03775 8.36834 7.79775 8.69834 8.24775C9.13834 8.83775 9.69834 8.86775 9.69834 8.86775L8.12834 6.81775L7.79834 7.02775V7.03775Z" fill="black"/>
<path d="M10.0584 8.46776L8.79836 6.78776C9.82836 6.38776 10.4284 5.92776 10.5384 5.30776C10.6584 4.60776 10.2284 4.16776 9.61836 4.02776C9.39836 3.97776 9.14836 3.95776 8.91836 3.95776H4.07836L3.90836 4.93776H4.08836C4.45836 4.93776 4.72836 5.23776 4.66836 5.57776L4.22836 8.08776C4.16836 8.42776 3.78836 8.72776 3.41836 8.72776H3.23836L3.06836 9.70776H6.90836L7.07836 8.72776H6.86836C6.49836 8.72776 6.21836 8.42776 6.27836 8.08776L6.38836 7.48776L6.77836 7.38776L7.76836 8.71776C8.22836 9.32776 8.94836 9.75776 9.74836 9.75776C10.1584 9.75776 10.3984 9.65776 10.3984 9.65776L10.5584 8.72776C10.3684 8.72776 10.1784 8.64776 10.0584 8.47776M6.45836 6.98776L6.68836 5.63776C6.77836 5.10776 7.30836 4.82776 7.74836 4.82776C8.12836 4.82776 8.43836 5.02776 8.36836 5.45776C8.24836 6.12776 6.98836 6.74776 6.45836 6.98776ZM10.2684 9.20776C10.2684 9.20776 10.1484 9.27776 9.83836 9.27776C9.05836 9.27776 8.62836 8.85776 8.20836 8.37776L7.17836 6.98776C7.41836 6.86776 7.68836 6.71776 7.94836 6.54776C8.51836 6.15776 8.82836 5.77776 8.89836 5.38776C8.95836 5.03776 8.83836 4.80776 8.72836 4.67776C8.54836 4.46776 8.26836 4.34776 7.93836 4.34776C7.63836 4.34776 7.32836 4.44776 7.07836 4.61776C6.78836 4.81776 6.58836 5.11776 6.52836 5.44776L6.08836 8.04776C6.00836 8.60776 6.35836 8.93776 6.89836 8.93776L6.84836 9.22776H3.65836L3.70836 8.94776C4.20836 8.89776 4.66836 8.49776 4.74836 8.02776L5.18836 5.51776C5.22836 5.26776 5.15836 5.00776 4.99836 4.80776C4.86836 4.65776 4.68836 4.54776 4.49836 4.49776L4.54836 4.19776H9.08836C9.59836 4.19776 10.0384 4.34776 10.2484 4.58776C10.3684 4.72776 10.4084 4.90776 10.3684 5.13776C10.2884 5.59776 9.80836 5.98776 8.84836 6.35776L8.41836 6.52776L9.95836 8.57776C10.0584 8.70776 10.2284 8.79776 10.3484 8.82776L10.2784 9.22776L10.2684 9.20776Z" fill="black"/>
</g>
<defs>
<clipPath id="clip0_3790_7053">
<rect width="12.7" height="12.7" fill="white" transform="translate(0.598145 0.467773)"/>
</clipPath>
</defs>
</svg>
