<svg version="1.0" xmlns="http://www.w3.org/2000/svg"
 width="304.000000pt" height="146.000000pt" viewBox="0 0 304.000000 146.000000"
 preserveAspectRatio="xMidYMid meet">

<g transform="translate(0.000000,146.000000) scale(0.100000,-0.100000)"
fill="#000000" stroke="none">
<path d="M970 1240 c-7 -14 -30 -134 -30 -158 0 -7 13 -12 30 -12 44 0 76 -19
96 -56 18 -33 17 -36 -25 -281 -24 -136 -49 -262 -56 -279 -18 -45 -76 -85
-130 -92 -25 -2 -45 -6 -45 -7 0 -2 -7 -39 -15 -82 -8 -43 -15 -81 -15 -85 0
-5 162 -8 359 -8 l360 0 10 53 c6 28 13 68 16 88 l7 36 -48 6 c-38 4 -55 12
-77 38 -28 30 -29 36 -23 91 11 110 10 108 80 112 8 1 63 -64 123 -144 118
-159 188 -223 281 -260 64 -25 196 -37 252 -23 33 9 35 12 46 74 20 100 19
106 -20 119 -28 9 -59 43 -163 182 -87 117 -123 173 -114 176 55 18 178 90
222 129 62 57 88 110 89 181 0 67 -18 109 -64 149 -68 60 -89 62 -639 65 -435
3 -500 1 -507 -12z m1030 -35 c93 -20 150 -73 150 -137 0 -99 -88 -181 -275
-254 -38 -15 -74 -31 -79 -35 -12 -10 281 -398 316 -418 31 -18 37 -55 15 -85
-12 -16 -25 -18 -94 -14 -145 8 -206 55 -380 288 l-100 134 89 56 c160 99 228
183 228 283 0 102 -62 156 -180 156 -108 1 -206 -60 -244 -151 -9 -20 -36
-157 -61 -304 -38 -221 -43 -273 -35 -305 12 -45 58 -83 111 -93 32 -6 36 -9
31 -31 l-4 -25 -299 0 c-305 0 -314 1 -291 36 4 6 31 22 59 34 63 27 118 84
132 137 5 21 29 147 52 281 36 210 41 247 30 281 -12 43 -64 99 -98 107 -17 5
-23 13 -23 34 0 16 4 30 10 32 21 7 907 1 940 -7z m-271 -130 c33 -17 54 -65
45 -104 -8 -30 -45 -83 -88 -123 -63 -58 -266 -169 -266 -145 0 18 38 236 46
260 12 40 56 89 98 108 49 22 126 24 165 4z"/>
<path d="M1230 1142 c0 -2 6 -15 14 -30 29 -59 27 -96 -19 -362 -47 -269 -68
-346 -106 -386 l-22 -24 101 0 102 0 -15 24 c-33 49 -29 118 19 391 52 292 58
314 93 355 14 17 23 30 21 31 -10 2 -188 3 -188 1z"/>
<path d="M1936 1115 c18 -44 18 -132 -1 -165 -22 -39 -18 -42 24 -21 50 26 97
73 105 106 13 53 -53 115 -124 115 -18 0 -18 -2 -4 -35z"/>
<path d="M1697 694 c-17 -9 -25 -20 -21 -27 22 -36 176 -238 200 -262 28 -26
131 -81 139 -73 2 2 -37 58 -86 123 -50 66 -114 150 -142 188 -28 37 -54 67
-57 67 -3 -1 -18 -8 -33 -16z"/>
<path fill="#E73439" d="M212 1193 c-11 -32 -54 -152 -96 -267 l-75 -209 50 -141 c28 -78 72
-198 97 -268 l47 -128 218 0 c119 0 217 3 217 7 0 4 -43 125 -95 269 l-96 262
92 248 c50 137 93 257 96 267 5 16 -10 17 -215 17 l-220 0 -20 -57z"/>
<path fill="#E73439" d="M2360 1247 c0 -2 21 -59 46 -128 65 -179 135 -372 140 -389 3 -8 -38
-134 -91 -278 -52 -145 -95 -266 -95 -268 0 -2 98 -4 219 -4 l219 0 62 172
c34 95 78 217 98 271 l35 98 -60 162 c-33 89 -77 208 -98 265 l-37 102 -219 0
c-120 0 -219 -1 -219 -3z"/>
</g>
</svg>
