<svg width="3" height="30" viewBox="0 0 3 30" fill="none" xmlns="http://www.w3.org/2000/svg">
<g clip-path="url(#clip0_3789_5558)">
<path fill-rule="evenodd" clip-rule="evenodd" d="M0.516236 15.3026L0.594082 15.3026C0.593677 15.7271 0.612213 15.9574 1.00838 16.2779C1.00838 16.2779 2.82884 17.6158 2.82884 17.6158C2.82882 17.6158 2.82884 18.1141 2.82884 18.1141C2.82882 18.1141 0.594082 19.966 0.594082 19.966L0.594082 20.543L0.516237 20.543L0.516237 18.1172L0.594082 18.1172L0.594082 18.7185L2.2285 17.3671C2.2285 17.3671 0.893263 16.3859 0.88272 16.3769C0.530948 16.1119 0.594568 16.519 0.594082 17.0959L0.516236 17.0959L0.516236 15.3026ZM2.07351 23.6508L1.11539 22.8795C1.11535 22.8795 2.07355 22.1003 2.07355 22.1003C2.07351 22.1003 2.07355 23.6508 2.07351 23.6508ZM2.75247 20.3147L0.466741 22.1287C0.466721 22.1287 0.466741 22.5492 0.466741 22.5492C0.466721 22.5492 2.35424 24.0727 2.35424 24.0727C2.75063 24.3934 2.75326 24.5835 2.75249 25.0082C2.75247 25.0082 2.82884 25.0082 2.82884 25.0082C2.82882 25.0082 2.82884 23.2158 2.82884 23.2158C2.82882 23.2158 2.75249 23.2158 2.75249 23.2158C2.75138 23.7917 2.80092 24.2795 2.47772 23.9782C2.45659 23.959 2.15557 23.7178 2.15557 23.7178C2.15555 23.7178 2.15557 22.0685 2.15557 22.0685C2.15555 22.0685 2.75249 21.5786 2.75249 21.5786C2.75247 21.5786 2.75249 22.2016 2.75249 22.2016C2.75247 22.2016 2.82884 22.2024 2.82884 22.2024C2.82882 22.2024 2.82884 19.8397 2.82884 19.8397C2.82882 19.8397 2.75249 19.8397 2.75249 19.8397C2.75247 19.8397 2.75249 20.3147 2.75247 20.3147ZM2.07351 14.736L1.11539 13.9637C1.11535 13.9637 2.07355 13.1838 2.07355 13.1838C2.07351 13.1838 2.07355 14.736 2.07351 14.736ZM2.75247 11.3976L0.46674 13.2117C0.46672 13.2117 0.466741 13.6331 0.466741 13.6331C0.46672 13.6331 2.35424 15.1568 2.35424 15.1568C2.75063 15.4782 2.75326 15.669 2.75249 16.0933C2.75247 16.0933 2.82884 16.0933 2.82884 16.0933C2.82882 16.0933 2.82884 14.3001 2.82884 14.3001C2.82882 14.3001 2.75249 14.3001 2.75249 14.3001C2.75138 14.8761 2.80092 15.3636 2.47772 15.0628C2.45659 15.0431 2.15557 14.8025 2.15557 14.8025C2.15555 14.8024 2.15557 13.1517 2.15557 13.1517C2.15555 13.1517 2.75249 12.6615 2.75249 12.6615C2.75247 12.6615 2.75249 13.2857 2.75249 13.2857C2.75247 13.2857 2.82884 13.2857 2.82884 13.2857C2.82882 13.2857 2.82884 10.9233 2.82884 10.9233C2.82882 10.9232 2.75249 10.922 2.75249 10.922C2.75247 10.922 2.75249 11.3976 2.75247 11.3976ZM2.87838 26.9841C2.87557 26.6606 2.84683 26.3799 2.79818 26.1419C2.66712 25.5065 2.39414 25.1811 2.11696 25.1811C2.03839 25.1811 1.95024 25.2061 1.86155 25.2803C1.7023 25.4143 1.54148 25.7066 1.43495 26.3042C1.43492 26.3042 1.23718 27.4107 1.23718 27.4107C1.19874 27.6283 1.15282 27.8683 1.06385 28.0238C1.00618 28.1237 0.93169 28.1909 0.827174 28.1909C0.776242 28.1909 0.730166 28.1482 0.691617 28.0693C0.620146 27.9208 0.576134 27.6371 0.576134 27.2164C0.576113 25.6978 1.17152 25.66 1.21357 25.66C1.21355 25.66 1.21357 25.5872 1.21357 25.5872C1.21355 25.5872 0.453143 25.5872 0.453143 25.5872C0.453102 25.5872 0.453143 25.6932 0.453143 25.6932C0.571318 25.6932 0.658593 25.7988 0.579634 26.2409C0.535238 26.4898 0.466741 26.7318 0.466741 27.2388C0.466721 28.3617 0.806049 28.8757 1.13813 28.8757C1.28478 28.8757 1.4019 28.7883 1.49513 28.6561C1.65891 28.4219 1.74791 28.0489 1.79542 27.7857C1.7954 27.7857 1.96096 26.858 1.96096 26.858C2.0277 26.4889 2.10547 26.0592 2.29663 25.9456C2.32717 25.9261 2.36063 25.9136 2.39835 25.9136C2.50769 25.9136 2.7668 26.0544 2.7668 27.0522C2.76678 28.5211 2.02616 28.9088 2.00684 28.9194L2.00684 29.0165L2.78236 28.9855C2.78234 28.9855 2.78236 28.8533 2.78236 28.8533C2.2647 28.666 2.87838 28.5708 2.87838 26.9841ZM1.86936 8.05372L1.94763 8.05375C1.94763 8.05372 1.94763 7.39932 1.94763 7.39932L2.34647 7.39932C2.76678 7.39932 2.80173 7.99991 2.80173 8.29584C2.80169 8.60811 2.7341 8.74847 2.62558 8.90203C2.44864 9.15188 2.16334 9.22471 1.87992 9.22471C1.87992 9.22469 1.39205 9.22471 1.39205 9.22471C1.10155 9.22469 0.810358 9.15891 0.656184 8.78245C0.58617 8.61231 0.544181 8.37731 0.544181 8.05725C0.544161 8.05723 0.546185 8.05725 0.546185 8.05725C0.546164 8.05506 0.546185 8.05283 0.546185 8.05202C0.546164 6.75002 1.22943 6.49584 1.26909 6.49584C1.26909 6.49582 1.26909 6.42207 1.26909 6.42207L0.453142 6.42207C0.453102 6.42207 0.453142 6.52801 0.453142 6.52801C0.561948 6.53656 0.64639 6.72141 0.579634 7.0766C0.532789 7.32336 0.46674 7.73372 0.46674 8.0779C0.46672 9.31007 0.961658 10.5897 1.6578 10.5897C1.88781 10.5897 2.10986 10.4478 2.29809 10.2111C2.60787 9.82597 2.83273 9.26466 2.87198 8.55502C2.87757 8.47975 2.87909 8.40377 2.87909 8.32694C2.87907 8.12314 2.86694 7.85376 2.83356 7.57502C2.75324 6.89566 2.5483 6.15921 2.08426 6.15921C2.08426 6.15918 1.94763 6.15921 1.94763 6.15921C1.94763 6.15918 1.94763 5.61276 1.94763 5.61276L1.8694 5.61276C1.86936 5.61276 1.8694 8.05374 1.86936 8.05372ZM2.82882 0.848375L2.01627 0.787064C2.01625 0.787064 2.01627 0.893856 2.01627 0.893856C2.74814 1.00753 2.75138 1.24567 2.75138 2.76587C2.75138 2.76584 2.75138 3.4987 2.75138 3.4987L1.59764 3.4987C1.5976 3.4987 1.59764 3.06027 1.59764 3.06027C1.5976 2.24233 1.79194 2.14429 2.14128 2.14429C2.14126 2.14429 2.14128 2.0479 2.14128 2.0479C2.14126 2.04788 0.982905 2.0479 0.982905 2.0479C0.982905 2.04788 0.982905 2.1356 0.982905 2.1356C1.48992 2.13558 1.519 2.34508 1.519 3.06027C1.51898 3.06025 1.519 3.4987 1.519 3.4987C1.51898 3.4987 0.593697 3.4987 0.593697 3.4987C0.593677 3.4987 0.593697 2.75714 0.593697 2.75714C0.593677 1.3649 0.696291 1.14361 1.30526 1.02472C1.30523 1.02472 1.30526 0.927771 1.30526 0.927771C1.30523 0.92775 0.516236 0.964991 0.516236 0.964991C0.516236 0.96497 0.516236 5.35519 0.516236 5.35519C0.516236 5.35517 0.593697 5.35519 0.593697 5.35519C0.593677 5.35517 0.593697 4.70017 0.593697 4.70017C0.593677 4.70017 2.75138 4.70017 2.75138 4.70017L2.75138 5.35519C2.75138 5.35517 2.82884 5.35519 2.82884 5.35519C2.82882 5.35517 2.82884 0.848398 2.82882 0.848375Z" fill="black"/>
</g>
<defs>
<clipPath id="clip0_3789_5558">
<rect width="28.2295" height="2.42597" fill="white" transform="translate(0.449219 29.0146) rotate(-90)"/>
</clipPath>
</defs>
</svg>
