<svg width="21" height="8" viewBox="0 0 21 8" fill="none" xmlns="http://www.w3.org/2000/svg">
<path d="M14.0284 6.38014V6.63367H13.0512V6.38014H14.0284ZM13.1157 5.61955V7.38965H12.8438V5.61955H13.1157ZM14.2359 5.61955V7.38965H13.9639V5.61955H14.2359Z" fill="black"/>
<path d="M11.6332 7.43112C11.521 7.43112 11.4192 7.41 11.3278 7.36774C11.2363 7.32472 11.1637 7.26287 11.11 7.18221C11.0562 7.10077 11.0293 7.00243 11.0293 6.88719C11.0293 6.78578 11.0493 6.70357 11.0892 6.64057C11.1292 6.57681 11.1826 6.52687 11.2494 6.49076C11.3162 6.45465 11.39 6.42776 11.4707 6.41009C11.5521 6.39166 11.6339 6.37706 11.7161 6.3663C11.8237 6.35247 11.9109 6.3421 11.9777 6.33519C12.0453 6.32751 12.0945 6.31483 12.1252 6.29716C12.1567 6.27949 12.1725 6.24876 12.1725 6.20497V6.19575C12.1725 6.08204 12.1414 5.99369 12.0791 5.93069C12.0177 5.8677 11.9243 5.8362 11.7991 5.8362C11.6693 5.8362 11.5675 5.86462 11.4937 5.92147C11.42 5.97833 11.3681 6.03902 11.3381 6.10355L11.08 6.01136C11.1261 5.9038 11.1876 5.82006 11.2644 5.76014C11.342 5.69944 11.4265 5.65719 11.5179 5.63337C11.6101 5.60879 11.7008 5.5965 11.7899 5.5965C11.8467 5.5965 11.912 5.60341 11.9858 5.61724C12.0603 5.6303 12.1321 5.65757 12.2013 5.69906C12.2712 5.74055 12.3292 5.80316 12.3753 5.8869C12.4214 5.97064 12.4444 6.08281 12.4444 6.2234V7.38964H12.1725V7.14994H12.1587C12.1402 7.18835 12.1095 7.22945 12.0665 7.27325C12.0234 7.31704 11.9662 7.3543 11.8948 7.38503C11.8233 7.41576 11.7361 7.43112 11.6332 7.43112ZM11.6746 7.18681C11.7822 7.18681 11.8729 7.16569 11.9466 7.12343C12.0211 7.08118 12.0772 7.02663 12.1149 6.95979C12.1533 6.89295 12.1725 6.82265 12.1725 6.7489V6.49998C12.161 6.51381 12.1356 6.52649 12.0964 6.53801C12.058 6.54877 12.0135 6.55837 11.9627 6.56682C11.9128 6.5745 11.864 6.58142 11.8164 6.58756C11.7695 6.59294 11.7315 6.59755 11.7023 6.60139C11.6316 6.61061 11.5655 6.62559 11.5041 6.64634C11.4434 6.66631 11.3942 6.69666 11.3566 6.73738C11.3197 6.77733 11.3013 6.83187 11.3013 6.90102C11.3013 6.99552 11.3362 7.06696 11.4061 7.11537C11.4768 7.163 11.5663 7.18681 11.6746 7.18681Z" fill="black"/>
<path d="M8.56055 5.61955H8.83251V7.13612H9.50091V5.61955H9.77288V7.13612H10.4413V5.61955H10.7132V7.38965H8.56055V5.61955Z" fill="black"/>
<path d="M6.59845 7.38965H6.29883L7.16544 5.02953H7.46045L8.32706 7.38965H8.02743L7.32216 5.4029H7.30372L6.59845 7.38965ZM6.70908 6.46773H7.9168V6.72126H6.70908V6.46773Z" fill="black"/>
<path d="M19.0371 1.87308V1.61955H20.4753V1.87308H19.8945V3.38965H19.6225V1.87308H19.0371Z" fill="black"/>
<path d="M18.6715 2.38014V2.63367H17.6943V2.38014H18.6715ZM17.7588 1.61955V3.38965H17.4868V1.61955H17.7588ZM18.8789 1.61955V3.38965H18.607V1.61955H18.8789Z" fill="black"/>
<path d="M16.4374 3.42651C16.2669 3.42651 16.1197 3.38887 15.9961 3.31358C15.8731 3.23752 15.7782 3.1315 15.7114 2.99552C15.6453 2.85876 15.6123 2.69973 15.6123 2.51842C15.6123 2.33711 15.6453 2.17731 15.7114 2.03902C15.7782 1.89996 15.8712 1.79164 15.9903 1.71404C16.1101 1.63568 16.25 1.5965 16.4098 1.5965C16.502 1.5965 16.593 1.61186 16.6829 1.64259C16.7728 1.67332 16.8546 1.72326 16.9284 1.79241C17.0021 1.86078 17.0609 1.95144 17.1047 2.06437C17.1485 2.17731 17.1704 2.31637 17.1704 2.48154V2.59678H15.8059V2.36169H16.8938C16.8938 2.26182 16.8738 2.1727 16.8339 2.09434C16.7947 2.01597 16.7386 1.95413 16.6656 1.9088C16.5934 1.86347 16.5081 1.84081 16.4098 1.84081C16.3014 1.84081 16.2077 1.8677 16.1286 1.92147C16.0502 1.97449 15.9899 2.04363 15.9477 2.12891C15.9054 2.21419 15.8843 2.30561 15.8843 2.40318V2.55991C15.8843 2.69359 15.9073 2.80691 15.9534 2.89987C16.0003 2.99206 16.0652 3.06236 16.1482 3.11076C16.2311 3.15839 16.3276 3.18221 16.4374 3.18221C16.5089 3.18221 16.5734 3.17222 16.631 3.15224C16.6894 3.1315 16.7397 3.10077 16.782 3.06005C16.8242 3.01856 16.8569 2.96709 16.8799 2.90563L17.1427 2.97938C17.115 3.0685 17.0686 3.14686 17.0033 3.21447C16.938 3.28131 16.8573 3.33355 16.7613 3.3712C16.6652 3.40808 16.5573 3.42651 16.4374 3.42651Z" fill="black"/>
<path d="M14.1226 3.38965V1.61955H14.3945V2.38936H14.5743L15.2104 1.61955H15.5608L14.8463 2.47233L15.57 3.38965H15.2196L14.6388 2.64289H14.3945V3.38965H14.1226Z" fill="black"/>
<path d="M12.2422 4.05342V1.61954H12.5049V1.90073H12.5372C12.5572 1.87 12.5848 1.83082 12.6202 1.78319C12.6563 1.73479 12.7078 1.69176 12.7746 1.65412C12.8422 1.6157 12.9336 1.5965 13.0489 1.5965C13.1979 1.5965 13.3293 1.63376 13.443 1.70828C13.5567 1.7828 13.6454 1.88844 13.7092 2.02519C13.773 2.16194 13.8048 2.32328 13.8048 2.5092C13.8048 2.69666 13.773 2.85915 13.7092 2.99667C13.6454 3.13342 13.5571 3.23944 13.4441 3.31473C13.3312 3.38925 13.201 3.42651 13.0535 3.42651C12.9398 3.42651 12.8487 3.40769 12.7804 3.37005C12.712 3.33163 12.6594 3.28823 12.6225 3.23983C12.5856 3.19066 12.5572 3.14994 12.5372 3.11767H12.5142V4.05342H12.2422ZM12.5095 2.50459C12.5095 2.63827 12.5291 2.7562 12.5683 2.85838C12.6075 2.95979 12.6647 3.03931 12.74 3.09693C12.8153 3.15378 12.9075 3.18221 13.0166 3.18221C13.1303 3.18221 13.2252 3.15224 13.3012 3.09232C13.3781 3.03162 13.4357 2.95019 13.4741 2.84801C13.5133 2.74506 13.5329 2.63059 13.5329 2.50459C13.5329 2.38013 13.5137 2.26796 13.4753 2.16809C13.4376 2.06745 13.3804 1.98793 13.3036 1.92954C13.2275 1.87038 13.1318 1.84081 13.0166 1.84081C12.906 1.84081 12.813 1.86885 12.7377 1.92493C12.6624 1.98025 12.6056 2.05784 12.5672 2.15772C12.5288 2.25682 12.5095 2.37245 12.5095 2.50459Z" fill="black"/>
<path d="M11.0321 3.43112C10.9199 3.43112 10.8181 3.41 10.7267 3.36774C10.6353 3.32472 10.5627 3.26287 10.5089 3.18221C10.4551 3.10077 10.4282 3.00243 10.4282 2.88719C10.4282 2.78578 10.4482 2.70357 10.4881 2.64057C10.5281 2.57681 10.5815 2.52687 10.6483 2.49076C10.7152 2.45465 10.7889 2.42776 10.8696 2.41009C10.951 2.39166 11.0329 2.37706 11.1151 2.3663C11.2226 2.35247 11.3098 2.3421 11.3767 2.33519C11.4443 2.32751 11.4934 2.31483 11.5242 2.29716C11.5557 2.27949 11.5714 2.24876 11.5714 2.20497V2.19575C11.5714 2.08204 11.5403 1.99369 11.4781 1.93069C11.4166 1.8677 11.3233 1.8362 11.198 1.8362C11.0682 1.8362 10.9664 1.86462 10.8926 1.92147C10.8189 1.97833 10.767 2.03902 10.7371 2.10355L10.4789 2.01136C10.525 1.9038 10.5865 1.82006 10.6633 1.76014C10.7409 1.69944 10.8254 1.65719 10.9168 1.63337C11.009 1.60879 11.0997 1.5965 11.1888 1.5965C11.2457 1.5965 11.311 1.60341 11.3847 1.61724C11.4592 1.6303 11.5311 1.65757 11.6002 1.69906C11.6701 1.74055 11.7281 1.80316 11.7742 1.8869C11.8203 1.97064 11.8434 2.08281 11.8434 2.2234V3.38964H11.5714V3.14994H11.5576C11.5391 3.18835 11.5084 3.22945 11.4654 3.27324C11.4224 3.31704 11.3651 3.3543 11.2937 3.38503C11.2222 3.41576 11.135 3.43112 11.0321 3.43112ZM11.0736 3.18681C11.1811 3.18681 11.2718 3.16569 11.3455 3.12343C11.4201 3.08118 11.4761 3.02663 11.5138 2.95979C11.5522 2.89295 11.5714 2.82265 11.5714 2.7489V2.49998C11.5599 2.51381 11.5345 2.52649 11.4953 2.53801C11.4569 2.54877 11.4124 2.55837 11.3617 2.56682C11.3117 2.5745 11.2629 2.58142 11.2153 2.58756C11.1685 2.59294 11.1304 2.59755 11.1012 2.60139C11.0305 2.61061 10.9645 2.62559 10.903 2.64634C10.8423 2.66631 10.7932 2.69666 10.7555 2.73738C10.7186 2.77733 10.7002 2.83187 10.7002 2.90102C10.7002 2.99552 10.7351 3.06696 10.8051 3.11537C10.8757 3.163 10.9652 3.18681 11.0736 3.18681Z" fill="black"/>
<path d="M9.14234 3.02088L9.76003 1.61955H10.0182L9.25297 3.38965H9.0317L8.28034 1.61955H8.53387L9.14234 3.02088ZM8.44628 1.61955V3.38965H8.17432V1.61955H8.44628ZM9.83839 3.38965V1.61955H10.1104V3.38965H9.83839Z" fill="black"/>
<path d="M6.29443 4.05342V1.61954H6.55718V1.90073H6.58945C6.60942 1.87 6.63708 1.83082 6.67242 1.78319C6.70853 1.73479 6.76 1.69176 6.82684 1.65412C6.89445 1.6157 6.98588 1.5965 7.10112 1.5965C7.25016 1.5965 7.38154 1.63376 7.49524 1.70828C7.60894 1.7828 7.69768 1.88844 7.76144 2.02519C7.82521 2.16194 7.85709 2.32328 7.85709 2.5092C7.85709 2.69666 7.82521 2.85915 7.76144 2.99667C7.69768 3.13342 7.60933 3.23944 7.49639 3.31473C7.38346 3.38925 7.25323 3.42651 7.10573 3.42651C6.99202 3.42651 6.90098 3.40769 6.83261 3.37005C6.76423 3.33163 6.7116 3.28823 6.67473 3.23983C6.63785 3.19066 6.60942 3.14994 6.58945 3.11767H6.5664V4.05342H6.29443ZM6.56179 2.50459C6.56179 2.63827 6.58138 2.7562 6.62056 2.85838C6.65975 2.95979 6.71698 3.03931 6.79227 3.09693C6.86756 3.15378 6.95976 3.18221 7.06885 3.18221C7.18255 3.18221 7.27743 3.15224 7.35349 3.09232C7.43032 3.03162 7.48794 2.95019 7.52635 2.84801C7.56554 2.74506 7.58513 2.63059 7.58513 2.50459C7.58513 2.38013 7.56592 2.26796 7.52751 2.16809C7.48986 2.06745 7.43262 1.98793 7.3558 1.92954C7.27974 1.87038 7.18409 1.84081 7.06885 1.84081C6.95822 1.84081 6.86526 1.86885 6.78997 1.92493C6.71468 1.98025 6.65782 2.05784 6.61941 2.15772C6.581 2.25682 6.56179 2.37245 6.56179 2.50459Z" fill="black"/>
<path d="M5.24504 3.42651C5.07449 3.42651 4.92736 3.38887 4.80367 3.31358C4.68075 3.23752 4.58587 3.1315 4.51903 2.99552C4.45296 2.85876 4.41992 2.69973 4.41992 2.51842C4.41992 2.33711 4.45296 2.17731 4.51903 2.03902C4.58587 1.89996 4.67883 1.79164 4.79791 1.71404C4.91776 1.63568 5.05759 1.5965 5.21739 1.5965C5.30958 1.5965 5.40062 1.61186 5.49051 1.64259C5.58039 1.67332 5.66221 1.72326 5.73597 1.79241C5.80972 1.86078 5.86849 1.95144 5.91229 2.06437C5.95608 2.17731 5.97797 2.31637 5.97797 2.48154V2.59678H4.61353V2.36169H5.7014C5.7014 2.26182 5.68142 2.1727 5.64147 2.09434C5.60229 2.01597 5.5462 1.95413 5.47322 1.9088C5.401 1.86347 5.31572 1.84081 5.21739 1.84081C5.10906 1.84081 5.01533 1.8677 4.9362 1.92147C4.85784 1.97449 4.79753 2.04363 4.75527 2.12891C4.71302 2.21419 4.69189 2.30561 4.69189 2.40318V2.55991C4.69189 2.69359 4.71494 2.80691 4.76103 2.89987C4.8079 2.99206 4.87282 3.06236 4.95579 3.11076C5.03876 3.15839 5.13518 3.18221 5.24504 3.18221C5.31649 3.18221 5.38103 3.17222 5.43865 3.15224C5.49704 3.1315 5.54736 3.10077 5.58961 3.06005C5.63187 3.01856 5.66452 2.96709 5.68757 2.90563L5.95031 2.97938C5.92266 3.0685 5.87618 3.14686 5.81087 3.21447C5.74557 3.28131 5.6649 3.33355 5.56887 3.3712C5.47283 3.40808 5.36489 3.42651 5.24504 3.42651Z" fill="black"/>
<path d="M3.99974 0.955765L4.13803 1.12171C4.08425 1.17395 4.02202 1.21045 3.95134 1.23119C3.88066 1.25193 3.80076 1.26461 3.71164 1.26922C3.62252 1.27383 3.52341 1.27844 3.41432 1.28305C3.2914 1.28766 3.1896 1.31762 3.10893 1.37294C3.02826 1.42825 2.96603 1.50815 2.92224 1.61264C2.87845 1.71712 2.85041 1.84542 2.83812 1.99754H2.86117C2.92109 1.88691 3.00406 1.80547 3.11009 1.75323C3.21611 1.70099 3.32981 1.67487 3.4512 1.67487C3.58949 1.67487 3.71395 1.70713 3.82458 1.77167C3.93521 1.8362 4.02279 1.93185 4.08732 2.05862C4.15186 2.18538 4.18413 2.34172 4.18413 2.52764C4.18413 2.7128 4.15109 2.8726 4.08502 3.00704C4.01972 3.14149 3.92791 3.24521 3.80959 3.31819C3.69205 3.39041 3.55414 3.42652 3.39588 3.42652C3.23762 3.42652 3.09894 3.38926 2.97986 3.31474C2.86078 3.23945 2.7682 3.12805 2.70213 2.98054C2.63606 2.83226 2.60303 2.64903 2.60303 2.43084V2.24185C2.60303 1.84773 2.66987 1.54887 2.80355 1.34528C2.93799 1.14169 3.14005 1.03643 3.40971 1.02952C3.50498 1.02645 3.58987 1.02568 3.66439 1.02721C3.73891 1.02875 3.80383 1.02529 3.85915 1.01684C3.91446 1.00839 3.96133 0.988032 3.99974 0.955765ZM3.39588 3.18221C3.50267 3.18221 3.59448 3.15532 3.67131 3.10154C3.7489 3.04776 3.80844 2.97209 3.84993 2.87452C3.89142 2.77618 3.91216 2.66056 3.91216 2.52764C3.91216 2.39858 3.89103 2.28871 3.84878 2.19806C3.80729 2.1074 3.74775 2.03826 3.67015 1.99062C3.59256 1.94299 3.4996 1.91917 3.39127 1.91917C3.31214 1.91917 3.24107 1.93262 3.17808 1.95951C3.11508 1.9864 3.0613 2.02596 3.01674 2.07821C2.97218 2.13045 2.93761 2.19422 2.91302 2.26951C2.88921 2.3448 2.87653 2.43084 2.87499 2.52764C2.87499 2.72586 2.92147 2.88451 3.01444 3.00359C3.1074 3.12267 3.23454 3.18221 3.39588 3.18221Z" fill="black"/>
<path d="M2.35854 1.76706H2.07275C2.05584 1.68485 2.02627 1.61264 1.98401 1.55041C1.94252 1.48818 1.89182 1.43594 1.83189 1.39368C1.77274 1.35066 1.70705 1.31839 1.63483 1.29688C1.56262 1.27537 1.48732 1.26461 1.40896 1.26461C1.26606 1.26461 1.13661 1.30072 1.0206 1.37294C0.90536 1.44515 0.813552 1.55156 0.745176 1.69215C0.677568 1.83275 0.643764 2.00522 0.643764 2.20958C0.643764 2.41394 0.677568 2.58642 0.745176 2.72701C0.813552 2.86761 0.90536 2.97401 1.0206 3.04623C1.13661 3.11845 1.26606 3.15455 1.40896 3.15455C1.48732 3.15455 1.56262 3.1438 1.63483 3.12229C1.70705 3.10078 1.77274 3.06889 1.83189 3.02664C1.89182 2.98361 1.94252 2.93099 1.98401 2.86876C2.02627 2.80576 2.05584 2.73354 2.07275 2.65211H2.35854C2.33703 2.77272 2.29785 2.88067 2.241 2.97593C2.18414 3.0712 2.11346 3.15225 2.02895 3.21909C1.94445 3.28516 1.84956 3.33548 1.74431 3.37005C1.63983 3.40463 1.52804 3.42191 1.40896 3.42191C1.20767 3.42191 1.02867 3.37274 0.871941 3.2744C0.715214 3.17607 0.591906 3.03624 0.502019 2.85493C0.412131 2.67362 0.367188 2.4585 0.367188 2.20958C0.367188 1.96066 0.412131 1.74555 0.502019 1.56424C0.591906 1.38292 0.715214 1.2431 0.871941 1.14476C1.02867 1.04642 1.20767 0.997253 1.40896 0.997253C1.52804 0.997253 1.63983 1.01454 1.74431 1.04911C1.84956 1.08368 1.94445 1.13439 2.02895 1.20123C2.11346 1.2673 2.18414 1.34797 2.241 1.44323C2.29785 1.53773 2.33703 1.64567 2.35854 1.76706Z" fill="black"/>
</svg>
