<svg width="14" height="4" viewBox="0 0 14 4" fill="none" xmlns="http://www.w3.org/2000/svg">
<path d="M1.39533 1.48479C1.3815 1.36801 1.32542 1.27736 1.22708 1.21282C1.12874 1.14829 1.00812 1.11602 0.865226 1.11602C0.760741 1.11602 0.669317 1.13292 0.590954 1.16673C0.513359 1.20053 0.452665 1.24701 0.408874 1.30617C0.365851 1.36532 0.344339 1.43255 0.344339 1.50784C0.344339 1.57084 0.359321 1.625 0.389283 1.67033C0.420014 1.71489 0.459196 1.75215 0.506828 1.78211C0.554461 1.8113 0.604399 1.8355 0.656641 1.85471C0.708883 1.87315 0.7569 1.88813 0.800691 1.89966L1.04039 1.96419C1.10185 1.98032 1.17023 2.0026 1.24552 2.03103C1.32158 2.05946 1.39418 2.09825 1.46332 2.14742C1.53324 2.19582 1.59086 2.25805 1.63618 2.33411C1.68151 2.41017 1.70418 2.50352 1.70418 2.61415C1.70418 2.74168 1.67076 2.85692 1.60392 2.95987C1.53785 3.06282 1.44104 3.14464 1.31351 3.20533C1.18675 3.26602 1.03271 3.29637 0.851397 3.29637C0.682378 3.29637 0.536023 3.2691 0.412331 3.21455C0.289408 3.16 0.192606 3.08394 0.121925 2.98637C0.0520127 2.8888 0.0124468 2.77548 0.0032276 2.64641H0.298243C0.305926 2.73553 0.335888 2.80929 0.388131 2.86767C0.441141 2.9253 0.507981 2.96832 0.588649 2.99674C0.670086 3.0244 0.757668 3.03823 0.851397 3.03823C0.960492 3.03823 1.05845 3.02056 1.14526 2.98522C1.23207 2.94911 1.30084 2.89917 1.35154 2.83541C1.40225 2.77087 1.4276 2.69558 1.4276 2.60954C1.4276 2.53117 1.4057 2.46741 1.36191 2.41824C1.31812 2.36907 1.2605 2.32912 1.18905 2.29839C1.1176 2.26766 1.04039 2.24077 0.957418 2.21772L0.667013 2.13475C0.482628 2.08174 0.336657 2.00606 0.229099 1.90772C0.121541 1.80938 0.0677622 1.6807 0.0677622 1.52167C0.0677622 1.38952 0.103487 1.27428 0.174936 1.17595C0.247153 1.07684 0.343955 1.00001 0.465342 0.945464C0.587497 0.890149 0.723864 0.862491 0.874445 0.862491C1.02656 0.862491 1.16178 0.889765 1.28009 0.944312C1.39841 0.998091 1.49213 1.07184 1.56128 1.16557C1.63119 1.2593 1.66807 1.36571 1.67191 1.48479H1.39533ZM2.07671 3.25488V0.894759H2.36251V1.94575H3.62094V0.894759H3.90673V3.25488H3.62094V2.19928H2.36251V3.25488H2.07671ZM4.47835 3.25488H4.17872L5.04533 0.894759H5.34035L6.20695 3.25488H5.90733L5.20206 1.26814H5.18362L4.47835 3.25488ZM4.58898 2.33296H5.7967V2.58649H4.58898V2.33296ZM7.20554 3.25488H6.47722V0.894759H7.2378C7.46675 0.894759 7.66266 0.942007 7.82553 1.0365C7.9884 1.13023 8.11325 1.26506 8.20006 1.441C8.28688 1.61616 8.33028 1.8259 8.33028 2.07021C8.33028 2.31606 8.28649 2.52772 8.19891 2.70519C8.11133 2.88189 7.98379 3.01787 7.81631 3.11314C7.64883 3.20763 7.44524 3.25488 7.20554 3.25488ZM6.76301 3.00135H7.1871C7.38224 3.00135 7.54396 2.96371 7.67226 2.88842C7.80056 2.81313 7.89621 2.70595 7.95921 2.5669C8.02221 2.42784 8.05371 2.26228 8.05371 2.07021C8.05371 1.87968 8.02259 1.71565 7.96036 1.57813C7.89813 1.43985 7.80517 1.33382 7.68148 1.26007C7.55779 1.18555 7.40375 1.14829 7.21937 1.14829H6.76301V3.00135ZM8.69821 3.25488H8.39859L9.26519 0.894759H9.56021L10.4268 3.25488H10.1272L9.42192 1.26814H9.40348L8.69821 3.25488ZM8.80884 2.33296H10.0166V2.58649H8.80884V2.33296ZM10.6971 0.894759H11.0382L11.8403 2.85385H11.8679L12.67 0.894759H13.0111V3.25488H12.7438V1.46174H12.7207L11.9832 3.25488H11.725L10.9875 1.46174H10.9644V3.25488H10.6971V0.894759Z" fill="black"/>
</svg>
