<svg width="18" height="4" viewBox="0 0 18 4" fill="none" xmlns="http://www.w3.org/2000/svg">
<path d="M15.7615 3.20534V0.771461H16.0242V1.05265H16.0565C16.0765 1.02192 16.1041 0.982735 16.1395 0.935102C16.1756 0.886702 16.227 0.843679 16.2939 0.806033C16.3615 0.76762 16.4529 0.748413 16.5682 0.748413C16.7172 0.748413 16.8486 0.785674 16.9623 0.860196C17.076 0.934718 17.1647 1.04036 17.2285 1.17711C17.2923 1.31386 17.3241 1.4752 17.3241 1.66112C17.3241 1.84858 17.2923 2.01106 17.2285 2.14858C17.1647 2.28534 17.0764 2.39136 16.9634 2.46665C16.8505 2.54117 16.7203 2.57843 16.5728 2.57843C16.4591 2.57843 16.368 2.55961 16.2996 2.52196C16.2313 2.48355 16.1786 2.44014 16.1418 2.39174C16.1049 2.34257 16.0765 2.30185 16.0565 2.26959H16.0334V3.20534H15.7615ZM16.0288 1.65651C16.0288 1.79019 16.0484 1.90812 16.0876 2.0103C16.1268 2.11171 16.184 2.19122 16.2593 2.24884C16.3346 2.3057 16.4268 2.33412 16.5359 2.33412C16.6496 2.33412 16.7445 2.30416 16.8205 2.24423C16.8974 2.18354 16.955 2.1021 16.9934 1.99992C17.0326 1.89698 17.0522 1.7825 17.0522 1.65651C17.0522 1.53205 17.033 1.41988 16.9945 1.32001C16.9569 1.21936 16.8997 1.13985 16.8228 1.08146C16.7468 1.0223 16.6511 0.992723 16.5359 0.992723C16.4253 0.992723 16.3323 1.02076 16.257 1.07685C16.1817 1.13216 16.1249 1.20976 16.0865 1.30963C16.048 1.40874 16.0288 1.52437 16.0288 1.65651Z" fill="black"/>
<path d="M14.7123 2.57843C14.5418 2.57843 14.3946 2.54079 14.271 2.4655C14.148 2.38944 14.0532 2.28342 13.9863 2.14743C13.9202 2.01068 13.8872 1.85165 13.8872 1.67034C13.8872 1.48902 13.9202 1.32922 13.9863 1.19094C14.0532 1.05188 14.1461 0.943553 14.2652 0.865958C14.385 0.787595 14.5249 0.748413 14.6847 0.748413C14.7769 0.748413 14.8679 0.763778 14.9578 0.794509C15.0477 0.82524 15.1295 0.875178 15.2033 0.944322C15.277 1.0127 15.3358 1.10335 15.3796 1.21629C15.4234 1.32922 15.4453 1.46828 15.4453 1.63346V1.7487H14.0808V1.51361H15.1687C15.1687 1.41373 15.1487 1.32462 15.1088 1.24625C15.0696 1.16789 15.0135 1.10604 14.9405 1.06071C14.8683 1.01539 14.783 0.992723 14.6847 0.992723C14.5763 0.992723 14.4826 1.01961 14.4035 1.07339C14.3251 1.1264 14.2648 1.19555 14.2226 1.28082C14.1803 1.3661 14.1592 1.45753 14.1592 1.5551V1.71182C14.1592 1.8455 14.1822 1.95882 14.2283 2.05178C14.2752 2.14397 14.3401 2.21427 14.4231 2.26267C14.506 2.31031 14.6025 2.33412 14.7123 2.33412C14.7838 2.33412 14.8483 2.32413 14.9059 2.30416C14.9643 2.28342 15.0146 2.25268 15.0569 2.21197C15.0992 2.17048 15.1318 2.11901 15.1549 2.05754L15.4176 2.1313C15.3899 2.22042 15.3435 2.29878 15.2782 2.36639C15.2129 2.43323 15.1322 2.48547 15.0362 2.52312C14.9401 2.55999 14.8322 2.57843 14.7123 2.57843Z" fill="black"/>
<path d="M13.6773 0.771497V1.00198H12.76V0.771497H13.6773ZM13.0274 0.347412H13.2993V2.03453C13.2993 2.11136 13.3105 2.16898 13.3328 2.20739C13.3558 2.24504 13.385 2.27039 13.4203 2.28345C13.4564 2.29574 13.4945 2.30189 13.5344 2.30189C13.5644 2.30189 13.589 2.30035 13.6082 2.29728C13.6274 2.29344 13.6428 2.29037 13.6543 2.28806L13.7096 2.53237C13.6912 2.53929 13.6654 2.5462 13.6324 2.55311C13.5993 2.5608 13.5575 2.56464 13.5068 2.56464C13.4299 2.56464 13.3547 2.54812 13.2809 2.51508C13.2079 2.48205 13.1472 2.43173 13.0988 2.36412C13.0512 2.29651 13.0274 2.21123 13.0274 2.10829V0.347412Z" fill="black"/>
<path d="M12.263 0.771468C12.2491 0.654691 12.193 0.564036 12.0947 0.499501C11.9964 0.434966 11.8757 0.402699 11.7328 0.402699C11.6284 0.402699 11.5369 0.419601 11.4586 0.453405C11.381 0.487209 11.3203 0.533689 11.2765 0.592846C11.2335 0.652002 11.212 0.719226 11.212 0.794516C11.212 0.857515 11.2269 0.911677 11.2569 0.957006C11.2876 1.00157 11.3268 1.03883 11.3745 1.06879C11.4221 1.09798 11.472 1.12218 11.5243 1.14139C11.5765 1.15983 11.6245 1.17481 11.6683 1.18633L11.908 1.25087C11.9695 1.267 12.0379 1.28928 12.1131 1.31771C12.1892 1.34613 12.2618 1.38493 12.3309 1.4341C12.4009 1.4825 12.4585 1.54473 12.5038 1.62079C12.5491 1.69685 12.5718 1.79019 12.5718 1.90082C12.5718 2.02836 12.5384 2.1436 12.4715 2.24655C12.4055 2.34949 12.3087 2.43131 12.1811 2.49201C12.0544 2.5527 11.9003 2.58305 11.719 2.58305C11.55 2.58305 11.4036 2.55577 11.28 2.50123C11.157 2.44668 11.0602 2.37062 10.9895 2.27305C10.9196 2.17548 10.8801 2.06216 10.8708 1.93309H11.1659C11.1735 2.02221 11.2035 2.09597 11.2558 2.15435C11.3088 2.21197 11.3756 2.255 11.4563 2.28342C11.5377 2.31108 11.6253 2.32491 11.719 2.32491C11.8281 2.32491 11.9261 2.30724 12.0129 2.2719C12.0997 2.23579 12.1685 2.18585 12.2192 2.12209C12.2699 2.05755 12.2952 1.98226 12.2952 1.89622C12.2952 1.81785 12.2733 1.75409 12.2295 1.70492C12.1857 1.65575 12.1281 1.6158 12.0567 1.58507C11.9852 1.55434 11.908 1.52745 11.825 1.5044L11.5346 1.42142C11.3502 1.36841 11.2043 1.29274 11.0967 1.1944C10.9892 1.09606 10.9354 0.967377 10.9354 0.808345C10.9354 0.676203 10.9711 0.560962 11.0426 0.462624C11.1148 0.363517 11.2116 0.28669 11.333 0.232143C11.4551 0.176828 11.5915 0.14917 11.7421 0.14917C11.8942 0.14917 12.0294 0.176444 12.1477 0.230991C12.266 0.284769 12.3598 0.358523 12.4289 0.452252C12.4988 0.545981 12.5357 0.652387 12.5395 0.771468H12.263Z" fill="black"/>
<path d="M9.07073 2.57843C8.90017 2.57843 8.75305 2.54079 8.62936 2.4655C8.50643 2.38944 8.41155 2.28342 8.34471 2.14743C8.27864 2.01068 8.24561 1.85165 8.24561 1.67034C8.24561 1.48902 8.27864 1.32922 8.34471 1.19094C8.41155 1.05188 8.50451 0.943553 8.62359 0.865958C8.74344 0.787595 8.88327 0.748413 9.04307 0.748413C9.13526 0.748413 9.2263 0.763778 9.31619 0.794509C9.40608 0.82524 9.4879 0.875178 9.56165 0.944322C9.63541 1.0127 9.69418 1.10335 9.73797 1.21629C9.78176 1.32922 9.80366 1.46828 9.80366 1.63346V1.7487H8.43921V1.51361H9.52708C9.52708 1.41373 9.5071 1.32462 9.46715 1.24625C9.42797 1.16789 9.37189 1.10604 9.2989 1.06071C9.22669 1.01539 9.14141 0.992723 9.04307 0.992723C8.93474 0.992723 8.84101 1.01961 8.76188 1.07339C8.68352 1.1264 8.62321 1.19555 8.58096 1.28082C8.5387 1.3661 8.51757 1.45753 8.51757 1.5551V1.71182C8.51757 1.8455 8.54062 1.95882 8.58672 2.05178C8.63358 2.14397 8.6985 2.21427 8.78147 2.26267C8.86445 2.31031 8.96086 2.33412 9.07073 2.33412C9.14218 2.33412 9.20671 2.32413 9.26433 2.30416C9.32272 2.28342 9.37304 2.25268 9.4153 2.21197C9.45755 2.17048 9.4902 2.11901 9.51325 2.05754L9.776 2.1313C9.74834 2.22042 9.70186 2.29878 9.63656 2.36639C9.57125 2.43323 9.49059 2.48547 9.39455 2.52312C9.29852 2.55999 9.19058 2.57843 9.07073 2.57843Z" fill="black"/>
<path d="M7.92797 0.181396V2.54152H7.65601V0.181396H7.92797Z" fill="black"/>
<path d="M5.77588 3.20534V0.771461H6.03863V1.05265H6.07089C6.09087 1.02192 6.11853 0.982735 6.15387 0.935102C6.18998 0.886702 6.24145 0.843679 6.30829 0.806033C6.3759 0.76762 6.46732 0.748413 6.58256 0.748413C6.73161 0.748413 6.86298 0.785674 6.97668 0.860196C7.09039 0.934718 7.17912 1.04036 7.24289 1.17711C7.30666 1.31386 7.33854 1.4752 7.33854 1.66112C7.33854 1.84858 7.30666 2.01106 7.24289 2.14858C7.17912 2.28534 7.09077 2.39136 6.97784 2.46665C6.8649 2.54117 6.73468 2.57843 6.58717 2.57843C6.47347 2.57843 6.38243 2.55961 6.31405 2.52196C6.24568 2.48355 6.19305 2.44014 6.15617 2.39174C6.1193 2.34257 6.09087 2.30185 6.07089 2.26959H6.04785V3.20534H5.77588ZM6.04324 1.65651C6.04324 1.79019 6.06283 1.90812 6.10201 2.0103C6.14119 2.11171 6.19843 2.19122 6.27372 2.24884C6.34901 2.3057 6.4412 2.33412 6.55029 2.33412C6.664 2.33412 6.75888 2.30416 6.83494 2.24423C6.91177 2.18354 6.96939 2.1021 7.0078 1.99992C7.04698 1.89698 7.06657 1.7825 7.06657 1.65651C7.06657 1.53205 7.04737 1.41988 7.00895 1.32001C6.97131 1.21936 6.91407 1.13985 6.83724 1.08146C6.76118 1.0223 6.66553 0.992723 6.55029 0.992723C6.43966 0.992723 6.3467 1.02076 6.27141 1.07685C6.19612 1.13216 6.13927 1.20976 6.10086 1.30963C6.06244 1.40874 6.04324 1.52437 6.04324 1.65651Z" fill="black"/>
<path d="M3.05249 2.54155V0.771461H3.31524V1.04804H3.33829C3.37516 0.953541 3.4347 0.880171 3.51691 0.827929C3.59911 0.774918 3.69784 0.748413 3.81308 0.748413C3.92985 0.748413 4.02704 0.774918 4.10464 0.827929C4.183 0.880171 4.24408 0.953541 4.28787 1.04804H4.30631C4.35163 0.956614 4.41963 0.884013 4.51028 0.830234C4.60094 0.775687 4.70965 0.748413 4.83641 0.748413C4.99468 0.748413 5.12413 0.797966 5.22477 0.897073C5.32542 0.995412 5.37574 1.14868 5.37574 1.35688V2.54155H5.10377V1.35688C5.10377 1.22628 5.06805 1.13293 4.9966 1.07685C4.92515 1.02076 4.84102 0.992723 4.74422 0.992723C4.61976 0.992723 4.52334 1.03037 4.45497 1.10566C4.38659 1.18018 4.3524 1.27468 4.3524 1.38915V2.54155H4.07583V1.32922C4.07583 1.22858 4.04317 1.14753 3.97787 1.08607C3.91257 1.02384 3.82844 0.992723 3.72549 0.992723C3.65481 0.992723 3.58874 1.01155 3.52728 1.04919C3.46659 1.08684 3.41742 1.13908 3.37977 1.20592C3.3429 1.27199 3.32446 1.34843 3.32446 1.43525V2.54155H3.05249Z" fill="black"/>
<path d="M2.37978 2.54154V0.771451H2.65175V2.54154H2.37978ZM2.51807 0.476435C2.46506 0.476435 2.41934 0.458381 2.38093 0.422272C2.34329 0.386164 2.32446 0.342757 2.32446 0.292051C2.32446 0.241345 2.34329 0.197938 2.38093 0.161829C2.41934 0.12572 2.46506 0.107666 2.51807 0.107666C2.57108 0.107666 2.61641 0.12572 2.65405 0.161829C2.69246 0.197938 2.71167 0.241345 2.71167 0.292051C2.71167 0.342757 2.69246 0.386164 2.65405 0.422272C2.61641 0.458381 2.57108 0.476435 2.51807 0.476435Z" fill="black"/>
<path d="M1.73537 0.771468C1.72154 0.654691 1.66545 0.564036 1.56712 0.499501C1.46878 0.434966 1.34816 0.402699 1.20526 0.402699C1.10078 0.402699 1.00935 0.419601 0.930988 0.453405C0.853393 0.487209 0.792699 0.533689 0.748908 0.592846C0.705885 0.652002 0.684373 0.719226 0.684373 0.794516C0.684373 0.857515 0.699355 0.911677 0.729317 0.957006C0.760048 1.00157 0.79923 1.03883 0.846862 1.06879C0.894495 1.09798 0.944433 1.12218 0.996675 1.14139C1.04892 1.15983 1.09693 1.17481 1.14073 1.18633L1.38043 1.25087C1.44189 1.267 1.51026 1.28928 1.58555 1.31771C1.66161 1.34613 1.73421 1.38493 1.80336 1.4341C1.87327 1.4825 1.93089 1.54473 1.97622 1.62079C2.02155 1.69685 2.04421 1.79019 2.04421 1.90082C2.04421 2.02836 2.01079 2.1436 1.94395 2.24655C1.87788 2.34949 1.78108 2.43131 1.65355 2.49201C1.52678 2.5527 1.37274 2.58305 1.19143 2.58305C1.02241 2.58305 0.876057 2.55577 0.752365 2.50123C0.629442 2.44668 0.53264 2.37062 0.461959 2.27305C0.392047 2.17548 0.352481 2.06216 0.343262 1.93309H0.638277C0.64596 2.02221 0.675922 2.09597 0.728165 2.15435C0.781175 2.21197 0.848015 2.255 0.928683 2.28342C1.01012 2.31108 1.0977 2.32491 1.19143 2.32491C1.30053 2.32491 1.39848 2.30724 1.48529 2.2719C1.57211 2.23579 1.64087 2.18585 1.69157 2.12209C1.74228 2.05755 1.76763 1.98226 1.76763 1.89622C1.76763 1.81785 1.74574 1.75409 1.70195 1.70492C1.65816 1.65575 1.60054 1.6158 1.52909 1.58507C1.45764 1.55434 1.38043 1.52745 1.29745 1.5044L1.00705 1.42142C0.822662 1.36841 0.676691 1.29274 0.569133 1.1944C0.461575 1.09606 0.407796 0.967377 0.407796 0.808345C0.407796 0.676203 0.443521 0.560962 0.51497 0.462624C0.587187 0.363517 0.683989 0.28669 0.805376 0.232143C0.927531 0.176828 1.0639 0.14917 1.21448 0.14917C1.3666 0.14917 1.50181 0.176444 1.62013 0.230991C1.73844 0.284769 1.83217 0.358523 1.90131 0.452252C1.97123 0.545981 2.0081 0.652387 2.01194 0.771468H1.73537Z" fill="black"/>
</svg>
