<svg width="86" height="51" viewBox="0 0 86 51" fill="none" xmlns="http://www.w3.org/2000/svg">
<g clip-path="url(#clip0_3790_6899)">
<path d="M61.4657 51H0V0H86V29.3371H84.6764V1.32437H1.32362V49.6756H61.4657V51Z" fill="#1D1D1B"/>
<path d="M61.4658 13.1727H54.8713V38.2884H61.4658V13.1727Z" fill="#1D1D1B"/>
<path d="M46.3149 32.648H40.5477C37.6405 32.648 35.2768 30.2831 35.2768 27.3742V13.1727H28.6824V29.207C28.6824 34.2207 32.7478 38.2884 37.7586 38.2884H52.8976V13.1727H46.3031V32.648H46.3149Z" fill="#1D1D1B"/>
<path d="M71.9483 13.1727V23.6967H62.9902V29.3371H71.9483V43.9643H78.5428V13.1727H71.9483Z" fill="#1D1D1B"/>
<path d="M12.7754 25.837V25.6478C12.7754 22.3605 15.2926 18.8131 18.6726 18.8131H26.7207V13.1727H18.2117C11.2272 13.1727 5.54272 18.7776 5.54272 25.6596V25.8488C5.54272 32.719 11.2154 38.3121 18.188 38.3121H27.4179V32.6717H18.649C15.2808 32.6717 12.7636 29.1243 12.7636 25.8488" fill="#1D1D1B"/>
</g>
<defs>
<clipPath id="clip0_3790_6899">
<rect width="86" height="51" fill="white"/>
</clipPath>
</defs>
</svg>
