<svg width="16" height="4" viewBox="0 0 16 4" fill="none" xmlns="http://www.w3.org/2000/svg">
<path d="M2.31281 1.3217C2.29898 1.20493 2.24289 1.11427 2.14455 1.04974C2.04622 0.985202 1.9256 0.952934 1.7827 0.952934C1.67821 0.952934 1.58679 0.969836 1.50843 1.00364C1.43083 1.03744 1.37014 1.08392 1.32635 1.14308C1.28332 1.20224 1.26181 1.26946 1.26181 1.34475C1.26181 1.40775 1.27679 1.46191 1.30676 1.50724C1.33749 1.5518 1.37667 1.58906 1.4243 1.61902C1.47193 1.64822 1.52187 1.67242 1.57411 1.69163C1.62636 1.71006 1.67437 1.72505 1.71816 1.73657L1.95786 1.8011C2.01933 1.81724 2.0877 1.83952 2.16299 1.86794C2.23905 1.89637 2.31165 1.93517 2.3808 1.98434C2.45071 2.03274 2.50833 2.09497 2.55366 2.17103C2.59899 2.24708 2.62165 2.34043 2.62165 2.45106C2.62165 2.57859 2.58823 2.69383 2.52139 2.79678C2.45532 2.89973 2.35852 2.98155 2.23098 3.04224C2.10422 3.10294 1.95018 3.13328 1.76887 3.13328C1.59985 3.13328 1.4535 3.10601 1.3298 3.05146C1.20688 2.99692 1.11008 2.92086 1.0394 2.82329C0.969486 2.72572 0.92992 2.6124 0.9207 2.48333H1.21572C1.2234 2.57245 1.25336 2.6462 1.3056 2.70459C1.35861 2.76221 1.42545 2.80523 1.50612 2.83366C1.58756 2.86132 1.67514 2.87514 1.76887 2.87514C1.87796 2.87514 1.97592 2.85747 2.06273 2.82213C2.14955 2.78603 2.21831 2.73609 2.26901 2.67232C2.31972 2.60779 2.34507 2.5325 2.34507 2.44645C2.34507 2.36809 2.32318 2.30432 2.27939 2.25515C2.23559 2.20598 2.17797 2.16603 2.10652 2.1353C2.03508 2.10457 1.95786 2.07768 1.87489 2.05463L1.58449 1.97166C1.4001 1.91865 1.25413 1.84297 1.14657 1.74464C1.03901 1.6463 0.985235 1.51761 0.985235 1.35858C0.985235 1.22644 1.02096 1.1112 1.09241 1.01286C1.16463 0.913752 1.26143 0.836925 1.38281 0.782378C1.50497 0.727063 1.64134 0.699405 1.79192 0.699405C1.94404 0.699405 2.07925 0.726679 2.19756 0.781226C2.31588 0.835005 2.40961 0.908759 2.47875 1.00249C2.54866 1.09622 2.58554 1.20262 2.58938 1.3217H2.31281ZM4.98554 1.91173C4.98554 2.16065 4.9406 2.37577 4.85071 2.55708C4.76082 2.73839 4.63752 2.87822 4.48079 2.97656C4.32406 3.07489 4.14505 3.12406 3.94377 3.12406C3.74248 3.12406 3.56347 3.07489 3.40675 2.97656C3.25002 2.87822 3.12671 2.73839 3.03683 2.55708C2.94694 2.37577 2.90199 2.16065 2.90199 1.91173C2.90199 1.66282 2.94694 1.4477 3.03683 1.26639C3.12671 1.08508 3.25002 0.945252 3.40675 0.846913C3.56347 0.748574 3.74248 0.699405 3.94377 0.699405C4.14505 0.699405 4.32406 0.748574 4.48079 0.846913C4.63752 0.945252 4.76082 1.08508 4.85071 1.26639C4.9406 1.4477 4.98554 1.66282 4.98554 1.91173ZM4.70896 1.91173C4.70896 1.70738 4.67478 1.5349 4.6064 1.39431C4.53879 1.25371 4.44698 1.14731 4.33098 1.07509C4.21574 1.00287 4.08667 0.966763 3.94377 0.966763C3.80087 0.966763 3.67142 1.00287 3.55541 1.07509C3.44017 1.14731 3.34836 1.25371 3.27998 1.39431C3.21238 1.5349 3.17857 1.70738 3.17857 1.91173C3.17857 2.11609 3.21238 2.28857 3.27998 2.42916C3.34836 2.56976 3.44017 2.67616 3.55541 2.74838C3.67142 2.8206 3.80087 2.85671 3.94377 2.85671C4.08667 2.85671 4.21574 2.8206 4.33098 2.74838C4.44698 2.67616 4.53879 2.56976 4.6064 2.42916C4.67478 2.28857 4.70896 2.11609 4.70896 1.91173ZM5.36874 3.0918V0.731673L5.65454 0.731673V1.90252H5.68219L6.74241 0.731673H7.11578L6.12472 1.79649L7.11578 3.0918H6.77006L5.94955 1.99471L5.65454 2.3266V3.0918H5.36874ZM9.26879 1.91173C9.26879 2.16065 9.22384 2.37577 9.13396 2.55708C9.04407 2.73839 8.92076 2.87822 8.76403 2.97656C8.60731 3.07489 8.4283 3.12406 8.22701 3.12406C8.02573 3.12406 7.84672 3.07489 7.68999 2.97656C7.53327 2.87822 7.40996 2.73839 7.32007 2.55708C7.23018 2.37577 7.18524 2.16065 7.18524 1.91173C7.18524 1.66282 7.23018 1.4477 7.32007 1.26639C7.40996 1.08508 7.53327 0.945252 7.68999 0.846913C7.84672 0.748574 8.02573 0.699405 8.22701 0.699405C8.4283 0.699405 8.60731 0.748574 8.76403 0.846913C8.92076 0.945252 9.04407 1.08508 9.13396 1.26639C9.22384 1.4477 9.26879 1.66282 9.26879 1.91173ZM8.99221 1.91173C8.99221 1.70738 8.95802 1.5349 8.88965 1.39431C8.82204 1.25371 8.73023 1.14731 8.61422 1.07509C8.49898 1.00287 8.36991 0.966763 8.22701 0.966763C8.08412 0.966763 7.95466 1.00287 7.83865 1.07509C7.72341 1.14731 7.6316 1.25371 7.56323 1.39431C7.49562 1.5349 7.46182 1.70738 7.46182 1.91173C7.46182 2.11609 7.49562 2.28857 7.56323 2.42916C7.6316 2.56976 7.72341 2.67616 7.83865 2.74838C7.95466 2.8206 8.08412 2.85671 8.22701 2.85671C8.36991 2.85671 8.49898 2.8206 8.61422 2.74838C8.73023 2.67616 8.82204 2.56976 8.88965 2.42916C8.95802 2.28857 8.99221 2.11609 8.99221 1.91173ZM9.65198 3.0918V0.731673H9.93778V2.83827H11.0349V3.0918H9.65198ZM13.2795 1.91173C13.2795 2.16065 13.2345 2.37577 13.1447 2.55708C13.0548 2.73839 12.9315 2.87822 12.7747 2.97656C12.618 3.07489 12.439 3.12406 12.2377 3.12406C12.0364 3.12406 11.8574 3.07489 11.7007 2.97656C11.544 2.87822 11.4207 2.73839 11.3308 2.55708C11.2409 2.37577 11.1959 2.16065 11.1959 1.91173C11.1959 1.66282 11.2409 1.4477 11.3308 1.26639C11.4207 1.08508 11.544 0.945252 11.7007 0.846913C11.8574 0.748574 12.0364 0.699405 12.2377 0.699405C12.439 0.699405 12.618 0.748574 12.7747 0.846913C12.9315 0.945252 13.0548 1.08508 13.1447 1.26639C13.2345 1.4477 13.2795 1.66282 13.2795 1.91173ZM13.0029 1.91173C13.0029 1.70738 12.9687 1.5349 12.9003 1.39431C12.8327 1.25371 12.7409 1.14731 12.6249 1.07509C12.5097 1.00287 12.3806 0.966763 12.2377 0.966763C12.0948 0.966763 11.9654 1.00287 11.8494 1.07509C11.7341 1.14731 11.6423 1.25371 11.5739 1.39431C11.5063 1.5349 11.4725 1.70738 11.4725 1.91173C11.4725 2.11609 11.5063 2.28857 11.5739 2.42916C11.6423 2.56976 11.7341 2.67616 11.8494 2.74838C11.9654 2.8206 12.0948 2.85671 12.2377 2.85671C12.3806 2.85671 12.5097 2.8206 12.6249 2.74838C12.7409 2.67616 12.8327 2.56976 12.9003 2.42916C12.9687 2.28857 13.0029 2.11609 13.0029 1.91173ZM13.6486 0.731673L14.3492 2.71842H14.3769L15.0776 0.731673H15.3772L14.5106 3.0918H14.2156L13.3489 0.731673L13.6486 0.731673Z" fill="black"/>
</svg>
