<svg width="14" height="4" viewBox="0 0 14 4" fill="none" xmlns="http://www.w3.org/2000/svg">
<path d="M11.8889 2.78825L12.7417 1.41919H13.0551V3.18928H12.7832V1.82023L11.935 3.18928H11.6169V1.41919H11.8889V2.78825Z" fill="black"/>
<path d="M11.3173 1.41919V1.67272H10.4968V3.18928H10.2249V1.41919H11.3173Z" fill="black"/>
<path d="M9.56483 3.18928V1.66811H9.09465C8.98863 1.66811 8.90527 1.69269 8.84457 1.74186C8.78388 1.79103 8.75353 1.85864 8.75353 1.94469C8.75353 2.0292 8.78081 2.09565 8.83536 2.14405C8.89067 2.19245 8.96635 2.21665 9.06238 2.21665H9.63397V2.47018H9.06238C8.94253 2.47018 8.8392 2.44905 8.75238 2.4068C8.66557 2.36455 8.59873 2.30424 8.55186 2.22587C8.505 2.14674 8.48157 2.05301 8.48157 1.94469C8.48157 1.83559 8.50615 1.74186 8.55532 1.6635C8.60449 1.58514 8.67479 1.52483 8.76621 1.48257C8.8584 1.44032 8.96788 1.41919 9.09465 1.41919H9.82297V3.18928H9.56483ZM8.38477 3.18928L8.88721 2.30885H9.18223L8.67978 3.18928H8.38477Z" fill="black"/>
<path d="M6.52661 3.18928V2.93575H6.59115C6.64416 2.93575 6.68833 2.92538 6.72367 2.90464C6.75901 2.88313 6.78744 2.84587 6.80895 2.79286C6.83123 2.73908 6.84813 2.66455 6.85966 2.56929C6.87195 2.47326 6.88078 2.3511 6.88616 2.20282L6.91843 1.41919H8.09849V3.18928H7.82652V1.67272H7.17657L7.14891 2.30424C7.14276 2.44944 7.1297 2.57736 7.10973 2.68799C7.09052 2.79785 7.06094 2.89004 7.02099 2.96456C6.98181 3.03909 6.92957 3.09517 6.86427 3.13281C6.79896 3.17046 6.71714 3.18928 6.6188 3.18928H6.52661Z" fill="black"/>
<path d="M5.11621 2.78825L5.96899 1.41919H6.28244V3.18928H6.01047V1.82023L5.1623 3.18928H4.84424V1.41919H5.11621V2.78825Z" fill="black"/>
<path d="M3.10669 1.67272V1.41919H4.54489V1.67272H3.96408V3.18928H3.69211V1.67272H3.10669Z" fill="black"/>
<path d="M2.88052 1.56668H2.59472C2.57782 1.48448 2.54824 1.41226 2.50598 1.35003C2.4645 1.2878 2.41379 1.23556 2.35387 1.1933C2.29471 1.15028 2.22902 1.11801 2.15681 1.0965C2.08459 1.07499 2.0093 1.06423 1.93093 1.06423C1.78804 1.06423 1.65858 1.10034 1.54257 1.17256C1.42733 1.24478 1.33552 1.35118 1.26715 1.49178C1.19954 1.63237 1.16574 1.80484 1.16574 2.0092C1.16574 2.21356 1.19954 2.38604 1.26715 2.52663C1.33552 2.66723 1.42733 2.77363 1.54257 2.84585C1.65858 2.91807 1.78804 2.95418 1.93093 2.95418C2.0093 2.95418 2.08459 2.94342 2.15681 2.92191C2.22902 2.9004 2.29471 2.86851 2.35387 2.82626C2.41379 2.78324 2.4645 2.73061 2.50598 2.66838C2.54824 2.60538 2.57782 2.53316 2.59472 2.45173H2.88052C2.859 2.57235 2.81982 2.68029 2.76297 2.77555C2.70612 2.87082 2.63544 2.95187 2.55093 3.01871C2.46642 3.08478 2.37154 3.1351 2.26628 3.16968C2.1618 3.20425 2.05002 3.22153 1.93093 3.22153C1.72965 3.22153 1.55064 3.17236 1.39391 3.07403C1.23719 2.97569 1.11388 2.83586 1.02399 2.65455C0.934104 2.47324 0.88916 2.25812 0.88916 2.0092C0.88916 1.76029 0.934104 1.54517 1.02399 1.36386C1.11388 1.18255 1.23719 1.04272 1.39391 0.944383C1.55064 0.846044 1.72965 0.796875 1.93093 0.796875C2.05002 0.796875 2.1618 0.814161 2.26628 0.848733C2.37154 0.883305 2.46642 0.934011 2.55093 1.00085C2.63544 1.06692 2.70612 1.14759 2.76297 1.24286C2.81982 1.33735 2.859 1.44529 2.88052 1.56668Z" fill="black"/>
</svg>
