<svg xmlns="http://www.w3.org/2000/svg" width="1200" height="712" viewBox="0 0 12000 7120">


    <path id="pqsH4zjbD"
        d="M1272 4650 c-152 -31 -316 -203 -351 -368 -17 -83 -15 -1369 3 -1444 34 -142 150 -279 278 -331 117 -47 149 -48 853 -45 l660 3 65 24 c176 63 307 222 330 401 13 101 12 1265 0 1354 -23 158 -127 299 -276 372 l-78 39 -720 2 c-397 0 -740 -3 -764 -7z m1049 -441 c156 -33 303 -161 361 -314 23 -59 28 -151 19 -315 -2 -25 0 -85 4 -134 9 -104 -3 -171 -48 -265 -55 -118 -183 -218 -327 -256 -69 -18 -541 -21 -622 -4 -182 39 -331 180 -383 363 -14 48 -16 79 -10 155 9 122 9 139 0 236 -4 48 -3 103 4 138 34 181 186 343 368 392 64 17 557 20 634 4z">
    </path>
    <path id="pUBVE2HZW"
        d="M1690 4136 c-76 -21 -122 -48 -181 -107 -67 -67 -113 -154 -129 -248 -20 -107 -10 -113 57 -41 70 76 119 110 203 141 61 22 81 24 330 27 334 5 362 -3 415 -109 31 -60 31 -85 1 -151 -48 -109 -74 -117 -374 -118 -260 0 -277 -4 -307 -66 -28 -59 -11 -122 40 -154 30 -19 49 -20 283 -20 284 0 324 7 426 75 129 85 207 243 193 390 -13 132 -90 259 -202 331 -93 59 -128 64 -434 63 -187 0 -291 -4 -321 -13z">
    </path>
    <path id="pgcMwA7cq"
        d="M1699 3826 c-118 -33 -249 -147 -288 -250 -39 -106 -45 -155 -27 -239 8 -42 27 -100 42 -128 37 -75 121 -154 201 -192 l68 -32 320 0 320 0 64 33 c79 42 159 116 194 180 48 89 75 242 43 242 -8 0 -17 -9 -21 -20 -10 -31 -97 -104 -172 -142 -101 -53 -152 -60 -443 -56 -247 3 -256 4 -293 26 -73 46 -107 148 -76 229 15 42 79 102 119 113 19 5 138 10 264 10 214 0 231 1 262 21 42 25 54 47 54 93 0 52 -15 81 -53 105 -33 20 -46 21 -283 20 -168 0 -264 -5 -295 -13z">
    </path>
    <path id="p19MP5VuH4"
        d="M3901 3904 c-65 -17 -121 -43 -127 -59 -4 -10 43 -125 51 -125 2 0 20 9 39 21 113 67 294 64 312 -5 13 -54 4 -59 -226 -126 -133 -39 -191 -126 -160 -241 16 -58 81 -121 149 -144 76 -25 220 -22 297 6 87 32 86 31 56 99 -24 58 -38 70 -57 51 -38 -34 -189 -53 -239 -29 -38 17 -59 53 -46 78 17 32 48 46 158 74 168 43 224 83 238 172 14 98 -42 183 -149 222 -69 26 -211 29 -296 6z">
    </path>
    <path id="plA59UaiF"
        d="M4926 3904 c-34 -11 -64 -31 -101 -67 -77 -78 -87 -123 -83 -401 l3 -219 77 -3 c65 -2 78 0 82 14 3 9 4 112 3 227 -1 206 -1 211 24 255 20 37 32 48 73 61 91 30 171 -10 195 -98 6 -21 11 -132 11 -250 l0 -213 80 0 80 0 0 233 c0 277 -7 313 -77 388 -61 65 -126 89 -236 88 -45 0 -104 -7 -131 -15z">
    </path>
    <path id="p4WCNjO52"
        d="M8611 3899 c-51 -16 -76 -32 -121 -77 -83 -84 -104 -135 -104 -252 -1 -84 3 -102 28 -157 42 -93 119 -157 229 -193 60 -19 202 -15 265 9 53 20 141 78 142 94 0 5 -21 28 -47 52 -46 42 -73 56 -73 36 0 -5 -25 -22 -55 -36 -138 -68 -292 1 -324 145 -34 151 110 291 265 258 27 -6 55 -15 62 -20 8 -7 12 -42 12 -109 l0 -99 75 0 75 0 0 144 0 144 -32 20 c-63 39 -121 54 -228 58 -87 3 -116 1 -169 -17z">
    </path>
    <path id="pCP8yHgXI"
        d="M5832 3563 l3 -348 48 -1 c26 0 54 4 61 10 7 6 51 58 97 115 220 273 255 315 267 319 9 3 12 -45 12 -217 0 -170 3 -221 13 -222 6 0 31 -1 54 -3 24 -1 47 1 53 4 7 4 9 122 8 346 l-3 339 -55 2 -55 3 -170 -211 c-93 -115 -178 -217 -187 -226 -17 -15 -18 -5 -18 210 l0 227 -65 0 -65 0 2 -347z">
    </path>
    <path id="pFa2PQSQE"
        d="M6910 3571 c0 -285 2 -340 15 -351 9 -7 38 -10 82 -8 l68 4 5 279 5 280 160 2 c88 1 165 2 171 3 7 0 10 21 8 58 -2 31 -3 60 -4 65 0 4 -115 7 -255 7 l-255 0 0 -339z">
    </path>
    <path id="p13a79dGlb"
        d="M7807 3903 c-10 -9 -8 -666 2 -681 5 -9 29 -12 82 -10 l74 3 3 348 2 347 -78 0 c-43 0 -82 -3 -85 -7z">
    </path>
    <path id="pCRxlYtyX"
        d="M9482 3563 l3 -348 77 -3 77 -3 3 138 3 138 153 3 152 3 0 -125 c0 -68 2 -130 5 -138 4 -9 27 -13 83 -12 l77 1 0 344 0 344 -80 0 -80 0 -1 -135 -2 -135 -153 0 -154 0 -3 138 -3 137 -79 0 -80 0 2 -347z">
    </path>
    <path id="pkcRbSbAt"
        d="M10708 3633 l-3 -278 -107 -3 -108 -3 0 -57 c0 -32 5 -63 12 -70 9 -9 90 -12 305 -12 l293 0 0 70 0 70 -110 0 -110 0 0 280 0 280 -85 0 -85 0 -2 -277z">
    </path>

</svg>