<svg width="8" height="24" viewBox="0 0 8 24" fill="none" xmlns="http://www.w3.org/2000/svg">
<g clip-path="url(#clip0_3790_6350)">
<path d="M2.58398 16.2254L3.87591 19.7408L4.43906 21.2789L5.3169 23.6958C5.58191 23.5099 5.8138 23.2563 6.02912 22.9014C6.5757 21.9887 7.00635 21.0254 7.25479 19.9775C7.48668 19.0141 7.2051 18.2366 6.42664 17.6451C6.19475 17.4761 5.96287 17.3239 5.73098 17.1887L4.50531 21.1099L4.04154 19.1662L4.67094 16.6986C4.33968 16.5634 3.99185 16.462 3.64403 16.3606C3.49496 16.3268 3.34589 16.2761 3.19682 16.2592C2.9815 16.2254 2.78274 16.2254 2.58398 16.2423L2.58398 16.2254Z" fill="black"/>
<path d="M1.44115 16.7662C1.34177 16.8845 1.24239 17.0197 1.14301 17.1718C0.579863 18.169 0.19891 19.2507 0.033279 20.3662C-0.115789 21.3296 0.232037 22.1408 1.0105 22.7324C1.57365 23.1887 2.21961 23.493 2.88214 23.7127L3.46185 21.3972L1.44115 16.7662Z" fill="black"/>
<path d="M3.62744 23.9155C3.99183 24 4.32309 24.0169 4.60467 23.9662L4.02496 22.631L3.62744 23.9155Z" fill="black"/>
<path d="M6.2279 11.9324C6.06226 11.9324 5.9132 11.8986 5.78069 11.8479C5.64818 11.7972 5.53224 11.7127 5.43286 11.6113C5.33349 11.5099 5.25067 11.3915 5.20098 11.2563C5.15129 11.1211 5.11816 10.969 5.11816 10.8C5.11816 10.7324 5.11816 10.6817 5.11816 10.631C5.11816 10.5803 5.13473 10.5127 5.15129 10.462C5.15129 10.3944 5.16785 10.3437 5.18442 10.2592C5.18442 10.1915 5.18442 10.107 5.18442 10.0056C5.18442 9.97183 5.18442 9.93803 5.18442 9.90422C5.18442 9.87042 5.18442 9.85352 5.18442 9.81972C5.18442 9.76901 5.18442 9.73521 5.21754 9.70141C5.25067 9.6676 5.2838 9.6507 5.33349 9.66761C5.4163 9.66761 5.48255 9.66761 5.54881 9.66761C5.61506 9.66761 5.68131 9.66761 5.74756 9.66761C5.81382 9.66761 5.89663 9.66761 5.96288 9.66761C6.02914 9.66761 6.11195 9.66761 6.21133 9.66761C6.31071 9.66761 6.37696 9.66761 6.45978 9.66761C6.52603 9.66761 6.60885 9.66761 6.6751 9.66761C6.74135 9.66761 6.80761 9.66761 6.87386 9.66761C6.94011 9.66761 7.00636 9.66761 7.08918 9.66761C7.13887 9.66761 7.17199 9.6676 7.20512 9.70141C7.23825 9.73521 7.25481 9.76901 7.23825 9.81972C7.23825 9.85352 7.23825 9.88732 7.23825 9.90422C7.23825 9.93803 7.23825 9.97183 7.23825 10.0056C7.23825 10.107 7.23825 10.1915 7.23825 10.2761C7.23825 10.3437 7.25481 10.4113 7.27137 10.4789C7.27137 10.5296 7.28794 10.5972 7.3045 10.6479C7.3045 10.6986 7.3045 10.7493 7.3045 10.8169C7.3045 10.9859 7.27137 11.138 7.22168 11.2732C7.17199 11.4084 7.08918 11.5268 6.9898 11.6282C6.89042 11.7296 6.77448 11.8141 6.64197 11.8648C6.50947 11.9155 6.3604 11.9493 6.19477 11.9493L6.2279 11.9324ZM6.84073 10.8C6.84073 10.6141 6.79104 10.462 6.70823 10.3606C6.60885 10.2592 6.45978 10.2085 6.2279 10.2085C5.99601 10.2085 5.84694 10.2592 5.74756 10.3606C5.64818 10.462 5.61506 10.6141 5.61506 10.8C5.61506 10.9859 5.66475 11.138 5.74756 11.2394C5.84694 11.3408 5.99601 11.3915 6.2279 11.3915C6.45978 11.3915 6.60885 11.3408 6.70823 11.2394C6.80761 11.138 6.84073 10.9859 6.84073 10.8Z" fill="black"/>
<path d="M6.22793 9.21127C6.14512 9.21127 6.0623 9.21127 5.97949 9.21127C5.91323 9.21127 5.83042 9.21127 5.76417 9.21127C5.69791 9.21127 5.63166 9.21127 5.56541 9.21127C5.49915 9.21127 5.4329 9.21127 5.35009 9.21127C5.3004 9.21127 5.26727 9.21127 5.23414 9.17747C5.20102 9.14366 5.18446 9.10986 5.20102 9.05916C5.20102 9.02535 5.20102 8.99155 5.20102 8.97465C5.20102 8.94085 5.20102 8.92395 5.20102 8.87324C5.20102 8.77183 5.20102 8.68733 5.20102 8.61972C5.20102 8.55211 5.18446 8.48451 5.16789 8.4169C5.16789 8.3493 5.15133 8.29859 5.13477 8.24789C5.13477 8.19719 5.13477 8.12958 5.13477 8.07888C5.13477 7.90986 5.16789 7.75775 5.21758 7.62254C5.26727 7.48733 5.35009 7.36902 5.44947 7.26761C5.54884 7.1662 5.66479 7.09859 5.79729 7.03099C5.9298 6.98028 6.07887 6.94648 6.2445 6.94648C6.41013 6.94648 6.5592 6.98028 6.6917 7.03099C6.82421 7.08169 6.94015 7.1662 7.03953 7.26761C7.13891 7.36902 7.20516 7.48733 7.27141 7.62254C7.3211 7.75775 7.35423 7.90986 7.35423 8.07888C7.35423 8.11268 7.35423 8.14648 7.35423 8.19719C7.35423 8.24789 7.35423 8.28169 7.33766 8.3324C7.33766 8.3831 7.33766 8.4169 7.3211 8.46761C7.3211 8.51831 7.3211 8.55212 7.30454 8.58592C7.30454 8.63662 7.30454 8.67043 7.37079 8.65352C7.47017 8.65352 7.6358 8.65352 7.90081 8.65352C7.91737 8.65352 7.9505 8.65352 7.96706 8.68733C7.98363 8.70423 8.00019 8.73803 8.01675 8.75493C8.01675 8.78873 8.03332 8.82254 8.03332 8.85634C8.03332 8.89014 8.03332 8.92395 8.03332 8.94085C8.03332 8.95775 8.03332 8.99155 8.03332 9.02536C8.03332 9.05916 8.03332 9.09296 8.01675 9.12676C8.01675 9.16057 7.98363 9.17747 7.96706 9.19437C7.9505 9.21127 7.93394 9.22817 7.90081 9.22817C7.80143 9.22817 7.66893 9.22817 7.53642 9.22817C7.38735 9.22817 7.23829 9.22817 7.08922 9.22817C6.94015 9.22817 6.79108 9.22817 6.64201 9.22817C6.49294 9.22817 6.377 9.22817 6.27762 9.22817L6.22793 9.21127ZM6.84077 8.09578C6.84077 7.90986 6.79108 7.75775 6.70827 7.65634C6.60889 7.55493 6.45982 7.50423 6.22793 7.50423C5.99605 7.50423 5.84698 7.55493 5.7476 7.65634C5.64822 7.75775 5.6151 7.90986 5.6151 8.09578C5.6151 8.28169 5.66479 8.43381 5.7476 8.53521C5.84698 8.63662 5.99605 8.68733 6.22793 8.68733C6.45982 8.68733 6.60889 8.63662 6.70827 8.53521C6.80764 8.43381 6.84077 8.28169 6.84077 8.09578Z" fill="black"/>
<path d="M5.11816 6.32113C5.11816 6.32113 5.11816 6.27042 5.11816 6.23662C5.11816 6.20282 5.11816 6.16902 5.13473 6.13521C5.13473 6.10141 5.16785 6.06761 5.18442 6.05071C5.20098 6.0338 5.21754 6.0169 5.25067 6.0169C5.33349 6.0169 5.4163 6.0169 5.53224 6.0169C5.64818 6.0169 5.76413 6.0169 5.84694 6.0169C5.89663 6.0169 5.92976 6.0169 5.92976 5.9662C5.92976 5.9493 5.92976 5.91549 5.89663 5.89859C5.86351 5.86479 5.81382 5.81409 5.76413 5.76338C5.71444 5.71268 5.66475 5.66197 5.5985 5.61127C5.54881 5.56056 5.49912 5.50986 5.44943 5.45916C5.39974 5.40845 5.35005 5.35775 5.31692 5.32394C5.2838 5.29014 5.25067 5.23944 5.23411 5.18873C5.21754 5.13803 5.20098 5.08732 5.20098 5.03662L5.20098 4.66479C5.20098 4.66479 5.20098 4.58028 5.23411 4.58028C5.25067 4.58028 5.2838 4.58028 5.31692 4.61409C5.36661 4.66479 5.43286 4.73239 5.51568 4.8169C5.5985 4.90141 5.68131 4.96902 5.76413 5.05352C5.84694 5.13803 5.92976 5.20564 5.99601 5.27324C6.06226 5.34085 6.12852 5.39155 6.16164 5.44226C6.19477 5.47606 6.24446 5.47606 6.27758 5.44226C6.31071 5.40845 6.37696 5.34085 6.44322 5.27324C6.50947 5.20564 6.59228 5.12113 6.6751 5.05352C6.75792 4.96902 6.84073 4.90141 6.92355 4.8169C7.00636 4.73239 7.07262 4.66479 7.12231 4.61409C7.15543 4.58028 7.18856 4.56338 7.20512 4.58028C7.22168 4.58028 7.23825 4.61409 7.23825 4.66479L7.23825 5.03662C7.23825 5.03662 7.23825 5.13803 7.20512 5.18873C7.18856 5.23944 7.15543 5.29014 7.12231 5.32394C7.08918 5.35775 7.03949 5.40845 6.9898 5.45916C6.94011 5.50986 6.89042 5.56056 6.82417 5.61127C6.77448 5.66197 6.72479 5.71268 6.6751 5.76338C6.62541 5.81409 6.57572 5.86479 6.5426 5.89859C6.50947 5.9324 6.50947 5.9493 6.50947 5.9662C6.50947 6 6.5426 6 6.59228 6C6.65854 6 6.75792 6 6.85729 6C6.95667 6 7.05605 6 7.15543 6C7.172 6 7.20512 6 7.22168 6.0338C7.23825 6.05071 7.25481 6.08451 7.27137 6.11831C7.27137 6.15211 7.28794 6.18592 7.28794 6.21972C7.28794 6.25352 7.28794 6.28732 7.28794 6.30423C7.28794 6.32113 7.28794 6.35493 7.28794 6.38873C7.28794 6.42254 7.28794 6.45634 7.27137 6.49014C7.27137 6.52395 7.23825 6.55775 7.22168 6.57465C7.20512 6.59155 7.18856 6.60845 7.15543 6.60845C7.07262 6.60845 7.00636 6.60845 6.94011 6.60845C6.87386 6.60845 6.80761 6.60845 6.74135 6.60845C6.6751 6.60845 6.59228 6.60845 6.50947 6.60845C6.42665 6.60845 6.34384 6.60845 6.24446 6.60845C6.17821 6.60845 6.09539 6.60845 5.99601 6.60845C5.89663 6.60845 5.61506 6.60845 5.51568 6.60845C5.4163 6.60845 5.33349 6.60845 5.26723 6.60845C5.25067 6.60845 5.21754 6.60845 5.20098 6.57465C5.18442 6.55775 5.16785 6.52395 5.15129 6.49014C5.15129 6.45634 5.13473 6.42254 5.13473 6.38873C5.13473 6.35493 5.13473 6.32113 5.13473 6.30423L5.11816 6.32113Z" fill="black"/>
<path d="M5.11813 3.22817C5.11813 3.09296 5.13469 2.95775 5.16781 2.82254C5.20094 2.70423 5.25063 2.58592 5.31688 2.50141C5.38314 2.41691 5.44939 2.3324 5.54877 2.28169C5.63158 2.23099 5.73096 2.19719 5.83034 2.19719C5.96285 2.19719 6.06223 2.23099 6.14504 2.28169C6.22786 2.3324 6.29411 2.41691 6.36036 2.50141C6.41005 2.58592 6.44318 2.70423 6.4763 2.82254C6.49287 2.94085 6.50943 3.07606 6.50943 3.22817C6.50943 3.32958 6.50943 3.43099 6.49287 3.5155C6.49287 3.6 6.45974 3.66761 6.45974 3.71831C6.45974 3.75212 6.45974 3.76902 6.45974 3.78592C6.45974 3.78592 6.49287 3.78592 6.50943 3.78592C6.54256 3.78592 6.57568 3.76902 6.60881 3.73522C6.64194 3.71831 6.67506 3.68451 6.70819 3.63381C6.74131 3.6 6.77444 3.5324 6.791 3.46479C6.80757 3.39719 6.82413 3.31268 6.82413 3.21127C6.82413 3.12676 6.82413 3.05916 6.80757 3.00845C6.80757 2.95775 6.77444 2.90705 6.75788 2.85634C6.74131 2.82254 6.72475 2.77184 6.69162 2.75493C6.67506 2.72113 6.64194 2.70423 6.62537 2.67043C6.59225 2.63662 6.57568 2.58592 6.57568 2.51831C6.57568 2.48451 6.57568 2.45071 6.59225 2.4169C6.59225 2.3831 6.62537 2.3493 6.64194 2.3324C6.6585 2.3155 6.69162 2.28169 6.72475 2.26479C6.75788 2.26479 6.791 2.24789 6.82413 2.24789C6.87382 2.24789 6.92351 2.26479 6.98976 2.3155C7.03945 2.3493 7.1057 2.41691 7.15539 2.50141C7.20508 2.58592 7.23821 2.68733 7.27133 2.80564C7.30446 2.92395 7.32102 3.05916 7.32102 3.21127C7.32102 3.38029 7.2879 3.5324 7.23821 3.68451C7.18852 3.81972 7.1057 3.93803 7.00632 4.03944C6.90695 4.14085 6.791 4.20845 6.6585 4.25916C6.52599 4.30986 6.37693 4.34367 6.21129 4.34367C6.04566 4.34367 5.89659 4.30986 5.76409 4.25916C5.63158 4.20845 5.51564 4.12395 5.41626 4.03944C5.31688 3.93803 5.23407 3.81972 5.18438 3.68451C5.13469 3.5493 5.10156 3.39719 5.10156 3.21127L5.11813 3.22817ZM5.99597 3.71831C5.99597 3.71831 6.01254 3.6 6.0291 3.4986C6.0291 3.41409 6.04566 3.31268 6.04566 3.22817C6.04566 3.09296 6.0291 2.97465 5.97941 2.89015C5.94628 2.80564 5.88003 2.75493 5.81378 2.75493C5.74753 2.75493 5.68127 2.80564 5.64815 2.89015C5.61502 2.97465 5.58189 3.09296 5.58189 3.22817C5.58189 3.32958 5.58189 3.39719 5.61502 3.46479C5.63158 3.5324 5.66471 3.5831 5.68127 3.63381C5.7144 3.68451 5.74753 3.71831 5.78065 3.73522C5.81378 3.75212 5.8469 3.76902 5.88003 3.78592C5.89659 3.78592 5.92972 3.78592 5.94628 3.78592C5.96285 3.78592 5.97941 3.75212 5.97941 3.73522L5.99597 3.71831Z" fill="black"/>
<path d="M5.73115 0.692957C5.73115 0.692957 5.59865 0.692957 5.5324 0.692957C5.46614 0.692957 5.39989 0.692957 5.31708 0.692957C5.30051 0.692957 5.26739 0.692956 5.25082 0.726759C5.23426 0.74366 5.2177 0.777463 5.20113 0.811266C5.20113 0.845069 5.18457 0.878872 5.18457 0.912675C5.18457 0.946478 5.18457 0.980281 5.18457 0.997183C5.18457 1.01408 5.18457 1.04789 5.18457 1.08169C5.18457 1.11549 5.18457 1.14929 5.20113 1.1831C5.20113 1.2169 5.23426 1.2507 5.25082 1.2676C5.26739 1.28451 5.28395 1.30141 5.31708 1.30141C5.39989 1.30141 5.46614 1.30141 5.5324 1.30141C5.59865 1.30141 5.6649 1.30141 5.73115 1.30141C5.79741 1.30141 5.88022 1.30141 5.96304 1.30141C6.04585 1.30141 6.12867 1.30141 6.24461 1.30141C6.36055 1.30141 6.44337 1.30141 6.50962 1.30141C6.59244 1.30141 6.65869 1.30141 6.74151 1.30141C6.80776 1.30141 6.87401 1.30141 6.94026 1.30141C7.00652 1.30141 7.07277 1.30141 7.15559 1.30141C7.18871 1.30141 7.20527 1.30141 7.22184 1.2676C7.2384 1.2507 7.25496 1.2169 7.27153 1.1831C7.27153 1.14929 7.28809 1.11549 7.28809 1.08169C7.28809 1.04789 7.28809 1.01408 7.28809 0.997183C7.28809 0.980281 7.28809 0.946478 7.28809 0.912675C7.28809 0.878872 7.28809 0.845069 7.27153 0.811266C7.27153 0.777463 7.2384 0.74366 7.22184 0.726759C7.20527 0.709857 7.18871 0.692957 7.15559 0.692957C7.07277 0.692957 7.00652 0.692957 6.94026 0.692957C6.87401 0.692957 6.80776 0.692957 6.74151 0.692957C6.67525 0.692957 6.59244 0.692957 6.50962 0.692957C6.42681 0.692957 6.34399 0.692957 6.24461 0.692957C6.14523 0.692957 6.04585 0.692957 5.96304 0.692957C5.88022 0.692957 5.81397 0.692957 5.73115 0.692957Z" fill="black"/>
<path d="M5.13477 1.43662C5.13477 1.43662 5.13477 1.57184 5.13477 1.63944C5.13477 1.70705 5.13477 1.77465 5.13477 1.85916C5.13477 1.87606 5.13477 1.90986 5.16789 1.92676C5.18446 1.94367 5.21758 1.96057 5.25071 1.97747C5.28383 1.97747 5.31696 1.99437 5.35009 1.99437C5.38321 1.99437 5.41634 1.99437 5.4329 1.99437C5.44947 1.99437 5.48259 1.99437 5.51572 1.99437C5.54884 1.99437 5.58197 1.99437 5.6151 1.97747C5.64822 1.97747 5.68135 1.94367 5.69791 1.92676C5.71448 1.90986 5.73104 1.89296 5.73104 1.85916C5.73104 1.77465 5.73104 1.70705 5.73104 1.63944C5.73104 1.57184 5.73104 1.50423 5.73104 1.43662C5.73104 1.36902 5.73104 1.28451 5.73104 1.2C5.73104 1.1155 5.73104 1.03099 5.73104 0.91268C5.73104 0.794371 5.73104 0.878878 5.73104 0.794371C5.73104 0.709864 5.73104 0.642258 5.73104 0.557751C5.73104 0.490145 5.73104 0.42254 5.73104 0.354934C5.73104 0.287328 5.73104 0.219723 5.73104 0.135215C5.73104 0.101413 5.73104 0.0845114 5.69791 0.06761C5.68135 0.0507085 5.64822 0.0338076 5.6151 0.0169062C5.58197 0.0169062 5.54884 4.39264e-06 5.51572 4.39409e-06C5.48259 4.39554e-06 5.44947 4.39699e-06 5.4329 4.39771e-06C5.41634 4.39844e-06 5.38321 4.39988e-06 5.35009 4.40133e-06C5.31696 4.40278e-06 5.28383 4.76186e-06 5.25071 0.0169063C5.21758 0.0169063 5.18445 0.0507085 5.16789 0.06761C5.15133 0.0845114 5.13477 0.101413 5.13477 0.135216C5.13477 0.219723 5.13477 0.287328 5.13477 0.354934C5.13477 0.42254 5.13477 0.490145 5.13477 0.557751C5.13477 0.625356 5.13477 0.709864 5.13477 0.794371C5.13477 0.878878 5.13477 0.794371 5.13477 0.91268C5.13477 1.03099 5.13477 1.1155 5.13477 1.2C5.13477 1.28451 5.13477 1.35212 5.13477 1.43662Z" fill="black"/>
<path d="M5.73115 14.2141C5.73115 14.2141 5.59865 14.2141 5.5324 14.2141C5.46614 14.2141 5.39989 14.2141 5.31708 14.2141C5.30051 14.2141 5.26739 14.2141 5.25082 14.2479C5.23426 14.2648 5.2177 14.2986 5.20113 14.3324C5.20113 14.3662 5.18457 14.4 5.18457 14.4338C5.18457 14.4676 5.18457 14.5014 5.18457 14.5183C5.18457 14.5352 5.18457 14.569 5.18457 14.6028C5.18457 14.6366 5.18457 14.6704 5.20113 14.7042C5.20113 14.738 5.23426 14.7718 5.25082 14.7887C5.26739 14.8056 5.28395 14.8225 5.31708 14.8225C5.39989 14.8225 5.46614 14.8225 5.5324 14.8225C5.59865 14.8225 5.6649 14.8225 5.73115 14.8225C5.79741 14.8225 5.88022 14.8225 5.96304 14.8225C6.04585 14.8225 6.12867 14.8225 6.24461 14.8225C6.36055 14.8225 6.44337 14.8225 6.50962 14.8225C6.59244 14.8225 6.65869 14.8225 6.74151 14.8225C6.80776 14.8225 6.87401 14.8225 6.94026 14.8225C7.00652 14.8225 7.07277 14.8225 7.15559 14.8225C7.18871 14.8225 7.20527 14.8225 7.22184 14.7887C7.2384 14.7718 7.25496 14.738 7.27153 14.7042C7.27153 14.6704 7.28809 14.6366 7.28809 14.6028C7.28809 14.569 7.28809 14.5352 7.28809 14.5183C7.28809 14.5014 7.28809 14.4676 7.28809 14.4338C7.28809 14.4 7.28809 14.3662 7.27153 14.3324C7.27153 14.2986 7.2384 14.2648 7.22184 14.2479C7.20527 14.231 7.18871 14.2141 7.15559 14.2141C7.07277 14.2141 7.00652 14.2141 6.94026 14.2141C6.87401 14.2141 6.80776 14.2141 6.74151 14.2141C6.67525 14.2141 6.59244 14.2141 6.50962 14.2141C6.42681 14.2141 6.34399 14.2141 6.24461 14.2141C6.14523 14.2141 6.04585 14.2141 5.96304 14.2141C5.88022 14.2141 5.81397 14.2141 5.73115 14.2141Z" fill="black"/>
<path d="M5.73115 12.2197C5.73115 12.2197 5.59865 12.2197 5.5324 12.2197C5.46614 12.2197 5.39989 12.2197 5.31708 12.2197C5.30051 12.2197 5.26739 12.2197 5.25082 12.2535C5.23426 12.2704 5.2177 12.3042 5.20113 12.338C5.20113 12.3718 5.18457 12.4056 5.18457 12.4394C5.18457 12.4732 5.18457 12.507 5.18457 12.5239C5.18457 12.5408 5.18457 12.5747 5.18457 12.6085C5.18457 12.6423 5.18457 12.6761 5.20113 12.7099C5.20113 12.7437 5.23426 12.7775 5.25082 12.7944C5.26739 12.8113 5.28395 12.8282 5.31708 12.8282C5.39989 12.8282 5.46614 12.8282 5.5324 12.8282C5.59865 12.8282 5.6649 12.8282 5.73115 12.8282C5.79741 12.8282 5.88022 12.8282 5.96304 12.8282C6.04585 12.8282 6.12867 12.8282 6.24461 12.8282C6.36055 12.8282 6.44337 12.8282 6.50962 12.8282C6.59244 12.8282 6.65869 12.8282 6.74151 12.8282C6.80776 12.8282 6.87401 12.8282 6.94026 12.8282C7.00652 12.8282 7.07277 12.8282 7.15559 12.8282C7.18871 12.8282 7.20527 12.8282 7.22184 12.7944C7.2384 12.7775 7.25496 12.7437 7.27153 12.7099C7.27153 12.6761 7.28809 12.6423 7.28809 12.6085C7.28809 12.5747 7.28809 12.5408 7.28809 12.5239C7.28809 12.507 7.28809 12.4732 7.28809 12.4394C7.28809 12.4056 7.28809 12.3718 7.27153 12.338C7.27153 12.3042 7.2384 12.2704 7.22184 12.2535C7.20527 12.2366 7.18871 12.2197 7.15559 12.2197C7.07277 12.2197 7.00652 12.2197 6.94026 12.2197C6.87401 12.2197 6.80776 12.2197 6.74151 12.2197C6.67525 12.2197 6.59244 12.2197 6.50962 12.2197C6.42681 12.2197 6.34399 12.2197 6.24461 12.2197C6.14523 12.2197 6.04585 12.2197 5.96304 12.2197C5.88022 12.2197 5.81397 12.2197 5.73115 12.2197Z" fill="black"/>
<path d="M5.2509 12.5408C5.2509 12.5408 5.2509 12.5746 5.2509 12.5916C5.2509 12.6085 5.2509 12.6423 5.2509 12.6761C5.2509 12.7268 5.2509 12.7606 5.21777 12.7944C5.21777 12.7944 5.21777 12.7944 5.23434 12.8113C5.31715 12.8958 5.3834 12.9803 5.46622 13.0648C5.54904 13.1493 5.61529 13.2338 5.68154 13.3014C5.74779 13.369 5.79748 13.4366 5.84717 13.4704C5.8803 13.5042 5.8803 13.5549 5.84717 13.5887C5.81405 13.6225 5.74779 13.6901 5.68154 13.7577C5.61529 13.8254 5.53247 13.9099 5.46622 13.9944C5.3834 14.0789 5.31715 14.1634 5.23434 14.2479C5.23434 14.2479 5.23434 14.2817 5.23434 14.2986C5.23434 14.3155 5.23434 14.3493 5.23434 14.3662C5.23434 14.3662 5.23434 14.3831 5.23434 14.4C5.23434 14.4169 5.23434 14.4338 5.23434 14.4507C5.2509 14.4676 5.28403 14.4845 5.30059 14.5183C5.30059 14.5183 5.30059 14.5521 5.31715 14.569L5.48278 14.569C5.48278 14.569 5.58216 14.569 5.63185 14.5352C5.68154 14.5183 5.73123 14.4845 5.76436 14.4507C5.79748 14.4169 5.84717 14.3662 5.89686 14.3155C5.94655 14.2648 5.99624 14.2141 6.04593 14.1634C6.09562 14.1127 6.14531 14.062 6.195 14.0113C6.24469 13.9606 6.52626 13.6563 6.52626 13.538C6.52626 13.4704 6.44345 13.369 6.39376 13.3014C6.36063 13.2676 6.07906 12.9634 6.02937 12.9127C5.97968 12.862 5.92999 12.8113 5.8803 12.7606C5.83061 12.7099 5.78092 12.6592 5.74779 12.6254C5.71467 12.5916 5.66498 12.5577 5.61529 12.5408C5.5656 12.5239 5.51591 12.507 5.46622 12.507L5.2509 12.507C5.2509 12.507 5.2509 12.5577 5.2509 12.5746L5.2509 12.5408Z" fill="black"/>
<path d="M2.38512 14.8225C2.21949 14.8225 2.07042 14.7887 1.93792 14.738C1.80541 14.6873 1.68947 14.6028 1.59009 14.5014C1.49071 14.4 1.4079 14.2817 1.35821 14.1465C1.30852 14.0113 1.27539 13.8592 1.27539 13.6901C1.27539 13.538 1.27539 13.4028 1.32508 13.2845C1.35821 13.1662 1.39133 13.0648 1.44102 12.9803C1.49071 12.8958 1.5404 12.8451 1.60665 12.7944C1.65634 12.7606 1.7226 12.7268 1.77229 12.7268C1.80541 12.7268 1.83854 12.7268 1.87166 12.7437C1.90479 12.7437 1.93792 12.7775 1.95448 12.8113C1.97104 12.8282 2.00417 12.862 2.00417 12.8958C2.00417 12.9296 2.02073 12.9634 2.02073 12.9972C2.02073 13.0479 2.00417 13.0986 1.97104 13.1493C1.95448 13.1662 1.92135 13.2 1.90479 13.2338C1.88823 13.2676 1.8551 13.3014 1.83854 13.3352C1.82197 13.369 1.80541 13.4197 1.78885 13.4873C1.78885 13.538 1.77229 13.6056 1.77229 13.6901C1.77229 13.8761 1.82197 14.0282 1.90479 14.1296C2.00417 14.231 2.15324 14.2817 2.38512 14.2817C2.61701 14.2817 2.76607 14.231 2.86545 14.1296C2.96483 14.0282 2.99796 13.8761 2.99796 13.6901C2.99796 13.6056 2.99796 13.538 2.98139 13.4873C2.98139 13.4366 2.94827 13.3859 2.93171 13.3352C2.91514 13.3014 2.89858 13.2507 2.86545 13.2338C2.84889 13.2 2.81576 13.1831 2.7992 13.1493C2.76607 13.1155 2.74951 13.0648 2.74951 12.9972C2.74951 12.9634 2.74951 12.9296 2.76607 12.8958C2.76607 12.862 2.7992 12.8282 2.81576 12.8113C2.83233 12.7944 2.86545 12.7606 2.89858 12.7437C2.93171 12.7437 2.96483 12.7268 2.99796 12.7268C3.04765 12.7268 3.09734 12.7437 3.16359 12.7944C3.21328 12.8282 3.27953 12.8958 3.32922 12.9803C3.37891 13.0648 3.41204 13.1662 3.44516 13.2845C3.47829 13.4028 3.49485 13.538 3.49485 13.6901C3.49485 13.8592 3.46173 14.0113 3.41204 14.1465C3.36235 14.2817 3.27953 14.4 3.18015 14.5014C3.08077 14.6028 2.96483 14.6704 2.83233 14.738C2.69982 14.7887 2.55075 14.8225 2.38512 14.8225Z" fill="black"/>
<path d="M1.4577 12.4732C1.4577 12.4732 1.40801 12.4732 1.39145 12.4394C1.37488 12.4225 1.35832 12.3887 1.34176 12.3549C1.34176 12.3211 1.3252 12.2873 1.3252 12.2535C1.3252 12.2197 1.3252 12.1859 1.3252 12.169C1.3252 12.1521 1.3252 12.1183 1.3252 12.0845C1.3252 12.0507 1.3252 12.0169 1.34176 11.9831C1.34176 11.9493 1.37488 11.9155 1.39145 11.8986C1.40801 11.8817 1.42457 11.8648 1.4577 11.8648C1.54052 11.8648 1.60677 11.8648 1.67302 11.8648C1.73927 11.8648 1.80553 11.8648 1.87178 11.8648C1.93803 11.8648 2.02085 11.8648 2.10366 11.8648C2.18648 11.8648 2.26929 11.8648 2.38524 11.8648C2.61712 11.8648 2.76619 11.8141 2.86557 11.7296C2.96495 11.6451 2.99807 11.5099 2.99807 11.3239C2.99807 11.138 2.94838 11.0028 2.86557 10.9183C2.76619 10.8338 2.61712 10.7831 2.38524 10.7831C2.28586 10.7831 2.18648 10.7831 2.10366 10.7831C2.02085 10.7831 1.95459 10.7831 1.87178 10.7831C1.80553 10.7831 1.73927 10.7831 1.67302 10.7831C1.60677 10.7831 1.54052 10.7831 1.4577 10.7831C1.44114 10.7831 1.40801 10.7831 1.39145 10.7493C1.37488 10.7324 1.35832 10.6986 1.34176 10.6648C1.34176 10.631 1.3252 10.5972 1.3252 10.5634C1.3252 10.5296 1.3252 10.4958 1.3252 10.4789C1.3252 10.462 1.3252 10.4282 1.3252 10.3944C1.3252 10.3606 1.3252 10.3268 1.34176 10.293C1.34176 10.2592 1.37488 10.2254 1.39145 10.2085C1.40801 10.1916 1.42457 10.1747 1.4577 10.1747C1.54052 10.1747 1.60677 10.1747 1.67302 10.1747C1.73927 10.1747 1.80553 10.1747 1.87178 10.1747C1.93803 10.1747 2.02085 10.1747 2.10366 10.1747C2.18648 10.1747 2.26929 10.1747 2.38524 10.1747C2.58399 10.1747 2.79932 10.1747 2.99807 10.1747C3.19683 10.1747 3.41215 10.1747 3.61091 10.1747C3.75998 10.1747 3.89248 10.2085 4.00843 10.2592C4.12437 10.3099 4.20718 10.3944 4.29 10.4958C4.35625 10.5972 4.4225 10.7155 4.45563 10.8676C4.48876 11.0028 4.50532 11.1549 4.50532 11.3239C4.50532 11.4761 4.50532 11.6113 4.45563 11.7296C4.4225 11.8479 4.38938 11.9493 4.33969 12.0338C4.29 12.1183 4.24031 12.169 4.17406 12.2197C4.12437 12.2535 4.05812 12.2873 4.00843 12.2873C3.9753 12.2873 3.94217 12.2873 3.90905 12.2704C3.87592 12.2704 3.84279 12.2366 3.82623 12.2028C3.80967 12.1859 3.77654 12.1521 3.77654 12.1183C3.77654 12.0845 3.75998 12.0507 3.75998 12.0169C3.75998 11.9662 3.77654 11.9155 3.80967 11.8648C3.82623 11.8479 3.85936 11.8141 3.87592 11.7803C3.89248 11.7465 3.92561 11.7127 3.94217 11.6789C3.95874 11.6451 3.9753 11.5944 3.99186 11.5268C3.99186 11.4761 4.00843 11.4085 4.00843 11.3239C4.00843 11.2056 4.00843 11.1042 3.9753 11.0366C3.95874 10.969 3.92561 10.9014 3.87592 10.8676C3.82623 10.8338 3.77654 10.8 3.71029 10.7831C3.64404 10.7831 3.56122 10.7662 3.4784 10.7493C3.42872 10.7493 3.41215 10.7831 3.42872 10.8338C3.42872 10.8676 3.46184 10.9352 3.46184 11.0197C3.46184 11.1042 3.46184 11.2056 3.46184 11.3239C3.46184 11.5099 3.42872 11.662 3.37903 11.8141C3.32934 11.9493 3.24652 12.0676 3.14714 12.169C3.04776 12.2704 2.93182 12.338 2.79932 12.3887C2.66681 12.4394 2.51774 12.4563 2.36867 12.4563C2.26929 12.4563 2.16992 12.4563 2.0871 12.4563C2.00428 12.4563 1.93803 12.4563 1.85522 12.4563C1.78896 12.4563 1.72271 12.4563 1.65646 12.4563C1.59021 12.4563 1.52395 12.4563 1.44114 12.4563L1.4577 12.4732Z" fill="black"/>
<path d="M1.87178 9.12676C1.87178 9.12676 1.73927 9.12676 1.67302 9.12676C1.60677 9.12676 1.54052 9.12676 1.4577 9.12676C1.44114 9.12676 1.40801 9.12676 1.39145 9.16057C1.37488 9.17747 1.35832 9.21127 1.34176 9.24507C1.34176 9.27888 1.3252 9.31268 1.3252 9.34648C1.3252 9.38028 1.3252 9.41409 1.3252 9.43099C1.3252 9.44789 1.3252 9.48169 1.3252 9.5155C1.3252 9.5493 1.3252 9.5831 1.34176 9.6169C1.34176 9.65071 1.37488 9.68451 1.39145 9.70141C1.40801 9.71831 1.42457 9.73521 1.4577 9.73521C1.54052 9.73521 1.60677 9.73521 1.67302 9.73521C1.73927 9.73521 1.80553 9.73521 1.87178 9.73521C1.93803 9.73521 2.02085 9.73521 2.10366 9.73521C2.18648 9.73521 2.26929 9.73521 2.38524 9.73521C2.50118 9.73521 2.58399 9.73521 2.65025 9.73521C2.73306 9.73521 2.79932 9.73521 2.88213 9.73521C2.94838 9.73521 3.01464 9.73521 3.08089 9.73521C3.14714 9.73521 3.21339 9.73521 3.29621 9.73521C3.32934 9.73521 3.3459 9.73521 3.36246 9.70141C3.37903 9.66761 3.39559 9.65071 3.41215 9.6169C3.41215 9.5831 3.42872 9.5493 3.42872 9.5155C3.42872 9.48169 3.42872 9.44789 3.42872 9.43099C3.42872 9.41409 3.42872 9.38028 3.42872 9.34648C3.42872 9.31268 3.42872 9.27888 3.41215 9.24507C3.41215 9.21127 3.37903 9.17747 3.36246 9.16057C3.3459 9.14366 3.32934 9.12676 3.29621 9.12676C3.21339 9.12676 3.14714 9.12676 3.08089 9.12676C3.01464 9.12676 2.94838 9.12676 2.88213 9.12676C2.81588 9.12676 2.73306 9.12676 2.65025 9.12676C2.56743 9.12676 2.48462 9.12676 2.38524 9.12676C2.28586 9.12676 2.18648 9.12676 2.10366 9.12676C2.02085 9.12676 1.95459 9.12676 1.87178 9.12676Z" fill="black"/>
<path d="M1.87178 8.04508C1.87178 8.04508 1.73927 8.04508 1.67302 8.04508C1.60677 8.04508 1.54052 8.04508 1.4577 8.04508C1.44114 8.04508 1.40801 8.04508 1.39145 8.07888C1.37488 8.09578 1.35832 8.12958 1.34176 8.16339C1.34176 8.19719 1.3252 8.23099 1.3252 8.26479C1.3252 8.2986 1.3252 8.3324 1.3252 8.3493C1.3252 8.3662 1.3252 8.4 1.3252 8.43381C1.3252 8.46761 1.3252 8.50141 1.34176 8.53522C1.34176 8.56902 1.37488 8.60282 1.39145 8.61972C1.40801 8.63662 1.42457 8.65353 1.4577 8.65353C1.54052 8.65353 1.60677 8.65353 1.67302 8.65353C1.73927 8.65353 1.80553 8.65353 1.87178 8.65353C1.93803 8.65353 2.02085 8.65353 2.10366 8.65353C2.18648 8.65353 2.26929 8.65353 2.38524 8.65353C2.50118 8.65353 2.58399 8.65353 2.65025 8.65353C2.7165 8.65353 2.79932 8.65353 2.88213 8.65353C2.94838 8.65353 3.01464 8.65353 3.08089 8.65353C3.14714 8.65353 3.21339 8.65353 3.29621 8.65353C3.32934 8.65353 3.3459 8.65353 3.36246 8.61972C3.37903 8.60282 3.39559 8.56902 3.41215 8.53522C3.41215 8.50141 3.42872 8.46761 3.42872 8.43381C3.42872 8.4 3.42872 8.3662 3.42872 8.3493C3.42872 8.3324 3.42872 8.2986 3.42872 8.26479C3.42872 8.23099 3.42872 8.19719 3.41215 8.16339C3.41215 8.12958 3.37903 8.09578 3.36246 8.07888C3.3459 8.06198 3.32934 8.04508 3.29621 8.04508C3.21339 8.04508 3.14714 8.04508 3.08089 8.04508C3.01464 8.04508 2.94838 8.04508 2.88213 8.04508C2.81588 8.04508 2.73306 8.04508 2.65025 8.04508C2.56743 8.04508 2.48462 8.04508 2.38524 8.04508C2.28586 8.04508 2.18648 8.04508 2.10366 8.04508C2.02085 8.04508 1.95459 8.04508 1.87178 8.04508Z" fill="black"/>
<path d="M1.87178 6.94648C1.87178 6.94648 1.73927 6.94648 1.67302 6.94648C1.60677 6.94648 1.54052 6.94648 1.4577 6.94648C1.44114 6.94648 1.40801 6.94648 1.39145 6.98028C1.37488 6.99718 1.35832 7.03099 1.34176 7.06479C1.34176 7.09859 1.3252 7.1324 1.3252 7.1662C1.3252 7.2 1.3252 7.2338 1.3252 7.25071C1.3252 7.26761 1.3252 7.30141 1.3252 7.33521C1.3252 7.36902 1.3252 7.40282 1.34176 7.43662C1.34176 7.47042 1.37488 7.50423 1.39145 7.52113C1.40801 7.53803 1.42457 7.55493 1.4577 7.55493C1.54052 7.55493 1.60677 7.55493 1.67302 7.55493C1.73927 7.55493 1.80553 7.55493 1.87178 7.55493C1.93803 7.55493 2.02085 7.55493 2.10366 7.55493C2.18648 7.55493 2.26929 7.55493 2.38524 7.55493C2.50118 7.55493 2.58399 7.55493 2.65025 7.55493C2.73306 7.55493 2.79932 7.55493 2.88213 7.55493C2.94838 7.55493 3.01464 7.55493 3.08089 7.55493C3.14714 7.55493 3.21339 7.55493 3.29621 7.55493C3.32934 7.55493 3.3459 7.55493 3.36246 7.52113C3.37903 7.48733 3.39559 7.47042 3.41215 7.43662C3.41215 7.40282 3.42872 7.36902 3.42872 7.33521C3.42872 7.30141 3.42872 7.26761 3.42872 7.25071C3.42872 7.2338 3.42872 7.2 3.42872 7.1662C3.42872 7.1324 3.42872 7.09859 3.41215 7.06479C3.41215 7.03099 3.37903 6.99718 3.36246 6.98028C3.3459 6.96338 3.32934 6.94648 3.29621 6.94648C3.21339 6.94648 3.14714 6.94648 3.08089 6.94648C3.01464 6.94648 2.94838 6.94648 2.88213 6.94648C2.81588 6.94648 2.73306 6.94648 2.65025 6.94648C2.56743 6.94648 2.48462 6.94648 2.38524 6.94648C2.28586 6.94648 2.18648 6.94648 2.10366 6.94648C2.02085 6.94648 1.95459 6.94648 1.87178 6.94648Z" fill="black"/>
<path d="M1.47426 4.17465C1.47426 4.17465 1.62333 4.17465 1.68958 4.17465C1.75584 4.17465 1.82209 4.17465 1.88834 4.17465C1.95459 4.17465 2.03741 4.17465 2.12023 4.17465C2.20304 4.17465 2.28586 4.17465 2.38524 4.17465C2.46805 4.17465 2.55087 4.17465 2.63368 4.17465C2.69994 4.17465 2.78275 4.17465 2.849 4.17465C2.91526 4.17465 2.98151 4.17465 3.04776 4.17465C3.11402 4.17465 3.18027 4.17465 3.26308 4.17465C3.31277 4.17465 3.3459 4.17465 3.37903 4.22535C3.41215 4.25915 3.42872 4.29296 3.41215 4.34366C3.41215 4.37746 3.41215 4.41127 3.41215 4.42817C3.41215 4.46197 3.41215 4.49577 3.41215 4.52958C3.41215 4.63098 3.41215 4.71549 3.41215 4.7831C3.41215 4.8507 3.42872 4.91831 3.44528 4.98591C3.44528 5.05352 3.46184 5.10423 3.4784 5.15493C3.4784 5.20563 3.4784 5.27324 3.4784 5.32394C3.4784 5.49296 3.44528 5.64507 3.39559 5.78028C3.3459 5.91549 3.26308 6.0338 3.1637 6.13521C3.06433 6.23662 2.94838 6.32113 2.81588 6.37183C2.68337 6.42253 2.53431 6.45634 2.36867 6.45634C2.26929 6.45634 2.16992 6.45634 2.10366 6.45634C2.02085 6.45634 1.95459 6.45634 1.87178 6.45634C1.80553 6.45634 1.73927 6.45634 1.67302 6.45634C1.60677 6.45634 1.54052 6.45634 1.4577 6.45634C1.44114 6.45634 1.40801 6.45634 1.39145 6.42253C1.37488 6.40563 1.35832 6.37183 1.34176 6.33803C1.34176 6.30422 1.3252 6.27042 1.3252 6.23662C1.3252 6.20282 1.3252 6.16901 1.3252 6.15211C1.3252 6.13521 1.3252 6.10141 1.3252 6.06761C1.3252 6.0338 1.3252 6 1.34176 5.9662C1.34176 5.93239 1.37488 5.89859 1.39145 5.88169C1.40801 5.86479 1.42457 5.84789 1.4577 5.84789C1.54052 5.84789 1.60677 5.84789 1.67302 5.84789C1.73927 5.84789 1.80553 5.84789 1.87178 5.84789C1.93803 5.84789 2.02085 5.84789 2.10366 5.84789C2.18648 5.84789 2.26929 5.84789 2.36867 5.84789C2.60056 5.84789 2.74963 5.79718 2.849 5.71268C2.94838 5.62817 2.98151 5.49296 2.98151 5.30704C2.98151 5.12113 2.93182 4.98591 2.849 4.90141C2.74963 4.8169 2.60056 4.7662 2.36867 4.7662C2.26929 4.7662 2.16992 4.7662 2.10366 4.7662C2.02085 4.7662 1.95459 4.7662 1.87178 4.7662C1.80553 4.7662 1.73927 4.7662 1.67302 4.7662C1.60677 4.7662 1.54052 4.7662 1.4577 4.7662C1.44114 4.7662 1.40801 4.7662 1.39145 4.73239C1.37488 4.71549 1.35832 4.68169 1.34176 4.64789C1.34176 4.61408 1.3252 4.58028 1.3252 4.54648C1.3252 4.51267 1.3252 4.47887 1.3252 4.46197C1.3252 4.44507 1.3252 4.41127 1.3252 4.37746C1.3252 4.34366 1.3252 4.30986 1.34176 4.27606C1.34176 4.24225 1.37488 4.20845 1.39145 4.19155C1.40801 4.17465 1.42457 4.15775 1.4577 4.15775L1.47426 4.17465Z" fill="black"/>
<path d="M3.39578 7.35211C3.39578 7.35211 3.34609 7.2 3.34609 7.11549C3.34609 7.06479 3.34609 7.01409 3.34609 6.96338C3.31297 6.96338 3.2964 6.96338 3.26328 6.94648C3.23015 6.94648 3.19702 6.94648 3.18046 6.94648C3.1639 6.94648 3.13077 6.94648 3.09765 6.94648C3.06452 6.94648 3.03139 6.94648 2.99827 6.96338C2.96514 6.96338 2.93201 6.99718 2.91545 7.01409C2.89889 7.03099 2.88232 7.04789 2.88232 7.08169C2.88232 7.1831 2.88232 7.06479 2.88232 7.1662C2.88232 7.26761 2.88232 7.35211 2.88232 7.43662C2.88232 7.48732 2.88232 8.12958 2.88232 8.19718C2.88232 8.28169 2.88232 8.4 2.88232 8.51831C2.88232 8.63662 2.88232 8.77183 2.88232 8.90704C2.88232 9.04225 2.88232 9.16056 2.88232 9.29578C2.88232 9.41409 2.88232 9.5324 2.88232 9.6169C2.88232 9.6338 2.88232 9.66761 2.91545 9.68451C2.93201 9.70141 2.96514 9.71831 2.99827 9.73521C3.03139 9.73521 3.06452 9.75211 3.09765 9.75211C3.13077 9.75211 3.1639 9.75211 3.18046 9.75211C3.19702 9.75211 3.23015 9.75211 3.26328 9.75211C3.2964 9.75211 3.32953 9.75211 3.36266 9.73521C3.36266 9.66761 3.37922 9.5831 3.39578 9.51549C3.41234 9.44789 3.39578 9.5831 3.44547 9.51549C3.44547 9.51549 3.46203 9.34648 3.46203 9.32958C3.46203 9.16056 3.46203 9.07606 3.46203 9.00845C3.46203 8.90704 3.46203 8.85634 3.46203 8.73803C3.46203 8.61972 3.46203 8.51831 3.46203 8.4C3.46203 8.29859 3.46203 8.19718 3.46203 8.09578C3.46203 7.99437 3.46203 7.90986 3.46203 7.84225C3.46203 7.74085 3.46203 7.63944 3.46203 7.57183C3.46203 7.48732 3.46203 7.33521 3.46203 7.28451C3.42891 7.26761 3.42891 7.40282 3.41234 7.38592L3.39578 7.35211Z" fill="black"/>
</g>
<defs>
<clipPath id="clip0_3790_6350">
<rect width="24" height="8" fill="white" transform="translate(0 24) rotate(-90)"/>
</clipPath>
</defs>
</svg>
