<svg width="20" height="38" viewBox="0 0 20 38" fill="none" xmlns="http://www.w3.org/2000/svg">
<mask id="mask0_3789_5405" style="mask-type:luminance" maskUnits="userSpaceOnUse" x="0" y="0" width="20" height="38">
<path d="M0.73407 37.6807L0.734068 0.816434L19.9414 0.816433L19.9414 37.6807L0.73407 37.6807Z" fill="white"/>
</mask>
<g mask="url(#mask0_3789_5405)">
<path d="M6.79134 6.43107C6.69502 6.33275 6.57617 6.25383 6.43321 6.19515L6.40468 6.1836L6.40468 6.09802L6.43321 6.08647C6.57617 6.02788 6.69502 5.94897 6.79134 5.85064C6.88793 5.75167 6.96551 5.63366 7.02369 5.49541L7.0356 5.46686L7.12065 5.46686L7.13257 5.49541C7.19038 5.63366 7.26786 5.75167 7.36445 5.85064C7.46114 5.94897 7.58027 6.02788 7.72267 6.08647L7.75148 6.09802L7.75148 6.1836L7.72267 6.19515C7.58027 6.25383 7.46114 6.33275 7.36445 6.43107C7.26786 6.53014 7.19038 6.64861 7.13257 6.78649L7.12065 6.81495L7.0356 6.81495L7.02369 6.78649C6.96588 6.64861 6.88793 6.53014 6.79134 6.43107ZM8.77452 26.1229C8.67829 26.0246 8.55916 25.9457 8.4163 25.8871L8.38786 25.8756L8.38786 25.79L8.4163 25.7784C8.55916 25.7199 8.67829 25.6409 8.77452 25.5426C8.87112 25.4434 8.9485 25.3255 9.00668 25.1871L9.0186 25.1586L9.10383 25.1586L9.11575 25.1871C9.17356 25.3255 9.25085 25.4434 9.34773 25.5426C9.44432 25.6409 9.56327 25.7199 9.70576 25.7784L9.73466 25.79L9.73466 25.8756L9.70576 25.8871C9.56327 25.9457 9.44432 26.0246 9.34773 26.1229C9.25085 26.222 9.17356 26.3403 9.11575 26.4783L9.10383 26.5068L9.0186 26.5068L9.00668 26.4783C8.94897 26.3403 8.87112 26.222 8.77452 26.1229ZM6.98481 26.1229C6.8884 26.0246 6.76945 25.9457 6.62641 25.8871L6.59796 25.8756L6.59796 25.79L6.62641 25.7784C6.76945 25.7199 6.8884 25.6409 6.98481 25.5426C7.08141 25.4434 7.15907 25.3255 7.21697 25.1871L7.22889 25.1586L7.31403 25.1586L7.32604 25.1871C7.38366 25.3255 7.46114 25.4434 7.55792 25.5426C7.65452 25.6409 7.77356 25.7199 7.91596 25.7784L7.94486 25.79L7.94486 25.8756L7.91596 25.8871C7.77356 25.9457 7.65452 26.0246 7.55792 26.1229C7.46114 26.222 7.38366 26.3403 7.32604 26.4783L7.31403 26.5068L7.22889 26.5068L7.21697 26.4783C7.15907 26.3403 7.08141 26.222 6.98481 26.1229ZM9.82932 9.53821C9.6099 9.53821 9.41449 9.57795 9.24337 9.65807C9.07188 9.73782 8.92514 9.85934 8.80185 10.0216C8.57385 10.3118 8.45933 10.6811 8.45933 11.1293C8.45933 11.1821 8.46127 11.2041 8.4621 11.2484C8.46321 11.3146 8.46571 11.3718 8.46857 11.4191C8.4742 11.4985 8.48288 11.5508 8.49609 11.5774C8.54882 11.7004 8.68051 11.7621 8.89106 11.7621L11.1656 11.7621L11.1643 10.5138C11.028 10.1889 10.8481 9.94482 10.6251 9.78227C10.4022 9.61963 10.1368 9.53821 9.82932 9.53821ZM14.486 18.0783L14.4878 19.1435L14.2765 19.1324L14.276 19.0893C14.2756 19.0645 14.2745 19.0445 14.2716 19.029L14.2675 18.9956C14.2548 18.873 14.232 18.7681 14.2005 18.6823C14.1693 18.5966 14.1266 18.5276 14.0741 18.4753C14.0342 18.4317 13.9714 18.3858 13.8843 18.3394C13.7961 18.2925 13.6856 18.2432 13.5531 18.1904L8.16825 16.1057L8.16825 15.9099L13.2025 13.7702C13.3859 13.6914 13.5119 13.5975 13.5858 13.4906C13.6131 13.4518 13.6378 13.3931 13.6586 13.3126C13.6794 13.2318 13.6941 13.1334 13.703 13.0197L13.7076 12.9786C13.7095 12.9661 13.7106 12.9515 13.7114 12.9356C13.6828 12.5781 13.5203 12.4154 13.2244 12.4165L8.87112 12.4165C8.54836 12.4151 8.38001 12.6103 8.38047 13.0513L8.38047 13.0941L8.17204 13.1103L8.16825 10.842C8.16871 10.5867 8.20824 10.3451 8.26152 10.1264C8.31509 9.90638 8.39432 9.70243 8.49951 9.51474C8.62768 9.28972 8.78578 9.1182 8.97353 9.0025C9.16164 8.88662 9.37885 8.82905 9.62385 8.82905C9.82563 8.82868 10.0154 8.86158 10.193 8.9271C10.3706 8.99262 10.5374 9.09205 10.6929 9.22457C10.9583 9.44709 11.1585 9.74041 11.295 10.1033C11.4405 9.9232 11.8186 9.54597 12.4219 8.97598C12.6318 8.77471 12.8333 8.57381 13.0261 8.37281C13.2195 8.17154 13.4051 7.9699 13.584 7.76891C13.7707 7.5461 13.9131 7.36803 14.0114 7.23422C14.2825 6.86494 14.4847 6.51156 14.6181 6.17482C14.7516 5.83761 14.818 5.51583 14.8174 5.20894C14.8174 5.02014 14.7978 4.8343 14.7593 4.65161C14.7204 4.469 14.6635 4.28705 14.5884 4.1062L14.5464 4.00602L14.6476 4.04539C14.8128 4.1098 14.9462 4.34536 15.0597 4.7114C15.1495 5.01136 15.1953 5.27344 15.1953 5.49615C15.1946 6.18923 14.8965 6.94562 14.3099 7.76383C14.1257 8.01629 13.8912 8.30147 13.607 8.619C13.323 8.93625 12.9885 9.28316 12.6024 9.66038C12.259 9.99537 11.9909 10.275 11.7979 10.4985C11.6093 10.717 11.4959 10.8772 11.4517 10.9816L11.4517 11.7155L13.2242 11.7155C13.3932 11.7155 13.5126 11.6631 13.5913 11.5635C13.6717 11.4624 13.7155 11.3039 13.7155 11.0804L13.7155 11.037L13.9242 11.0213L13.9242 13.0605L13.9234 15.2747L13.7121 15.2635L13.7114 15.2204C13.7114 15.2004 13.7097 15.1818 13.7076 15.1664L13.703 15.126C13.6594 14.6801 13.5323 14.5055 13.3631 14.5042C13.3173 14.5028 13.2696 14.5136 13.2218 14.536L9.44737 16.1319L14.486 18.0783ZM13.7153 7.16925L13.7153 7.12628C13.7153 6.68502 13.5473 6.49012 13.2244 6.49114L8.87158 6.49114C8.54882 6.49012 8.38047 6.68539 8.38047 7.12628L8.38047 7.16925L8.17176 7.18533L8.16788 5.10377L8.38047 5.11061L8.38047 5.15534C8.38047 5.59633 8.54882 5.79177 8.87158 5.79048L13.2244 5.79048C13.5473 5.79177 13.7153 5.59632 13.7153 5.15534L13.7153 5.11255L13.9234 5.09638L13.9234 7.18533L13.7153 7.16925ZM7.60557 17.9061L7.60363 16.8407L7.8152 16.8519L7.81539 16.895C7.81594 16.9197 7.81687 16.9398 7.81982 16.9553L7.82407 16.9887C7.83654 17.1112 7.85935 17.2161 7.89093 17.3022C7.92214 17.3876 7.96481 17.4565 8.01736 17.509C8.05697 17.5526 8.12023 17.5984 8.20713 17.6448C8.29542 17.6917 8.40577 17.741 8.53838 17.7938L13.9233 19.8785L13.9233 20.0743L8.88894 22.2141C8.70553 22.2928 8.57948 22.3868 8.5056 22.4936C8.47836 22.5324 8.45379 22.591 8.43274 22.6717C8.41224 22.7525 8.39755 22.8509 8.3886 22.9645L8.38389 23.0057C8.38176 23.0204 8.38047 23.0381 8.38001 23.0578C8.40439 23.4155 8.56692 23.5781 8.86271 23.5769L9.01518 23.5769C11.5295 23.5769 13.2361 24.3143 14.1143 25.8042L14.128 25.8277L14.1143 25.8513C13.2361 27.3412 11.5295 28.0785 9.01518 28.0785L8.86271 28.0785C8.53995 28.0773 8.37151 28.2728 8.37151 28.7137L8.37151 28.7565L8.16788 28.7723L8.16788 26.6833L8.37151 26.6992L8.37151 26.7419C8.37151 27.1828 8.53995 27.3783 8.86271 27.3768L8.98812 27.3768C9.95999 27.3783 10.837 27.2858 11.6197 27.1C12.1812 26.9667 12.6437 26.7908 13.0083 26.5743C13.3636 26.3635 13.6229 26.1145 13.7892 25.8277C13.4455 25.2392 12.7277 24.8091 11.6197 24.5463C10.873 24.3682 9.99619 24.2787 8.98812 24.2787L8.86271 24.2787C8.53995 24.2772 8.37151 24.4727 8.37151 24.9136L8.37151 24.9563L8.16788 24.9722L8.16788 20.7095L8.37927 20.7207L8.38001 20.7638C8.38001 20.7837 8.38176 20.8024 8.38389 20.8178L8.3886 20.8582C8.43218 21.3042 8.55889 21.4787 8.72844 21.4799C8.77415 21.4815 8.82171 21.4707 8.86973 21.4482L12.644 19.8523L7.60557 17.9061ZM13.414 28.864C13.6421 28.9924 13.8409 29.1842 14.0107 29.4378C14.1631 29.6646 14.2787 29.9054 14.3565 30.1601C14.4344 30.4149 14.4732 30.6848 14.4732 30.9692C14.4732 31.1691 14.4601 31.3549 14.4339 31.5264C14.4077 31.6979 14.3685 31.8536 14.3152 31.9928L14.0888 32.5874L12.6815 32.8071L12.6815 32.5708L12.7172 32.5628C12.9634 32.5062 13.1733 32.4353 13.3477 32.3501C13.5228 32.2649 13.664 32.167 13.7733 32.0575C13.8874 31.9335 13.974 31.7816 14.033 31.6009C14.0923 31.4197 14.1228 31.2093 14.1228 30.9692C14.1231 30.7645 14.0996 30.5775 14.0534 30.4076C14.0067 30.2384 13.9359 30.0885 13.8411 29.9578C13.6329 29.6595 13.3358 29.51 12.9454 29.51C12.6002 29.51 12.2721 29.6425 11.9593 29.9127C11.6466 30.1833 11.3524 30.5932 11.0789 31.1452L11.0476 31.2078C10.8024 31.7037 10.5324 32.0784 10.2367 32.3285C9.94005 32.5791 9.61923 32.7062 9.27449 32.7058C9.0053 32.7062 8.76492 32.6607 8.55464 32.5685C8.34418 32.4765 8.16437 32.3367 8.01495 32.1501C7.8817 31.9843 7.78307 31.7893 7.71833 31.5658C7.65415 31.343 7.62201 31.092 7.62257 30.8135C7.62201 30.7025 7.63291 30.5798 7.65517 30.4449C7.67733 30.3117 7.71159 30.1636 7.75813 30.0014C7.80939 29.8213 7.8478 29.6684 7.87366 29.5427C7.89915 29.4175 7.91143 29.3188 7.91143 29.2463L7.91143 29.2067L8.98895 29.0368L8.98895 29.2047L8.96023 29.2166C8.77184 29.2926 8.61291 29.3843 8.48178 29.4906C8.35156 29.597 8.24869 29.7209 8.17407 29.86C8.03462 30.0993 7.96213 30.4334 7.96213 30.8655C7.96213 31.0269 7.98531 31.1722 8.0313 31.3013C8.07664 31.4305 8.14711 31.545 8.24056 31.644C8.32995 31.7481 8.43791 31.8271 8.56276 31.8803C8.68827 31.9338 8.82817 31.9608 8.98397 31.9613C9.12738 31.9608 9.26332 31.9292 9.39307 31.8656C9.52319 31.8021 9.64878 31.7075 9.76976 31.5808C9.85518 31.4903 9.94762 31.3703 10.0475 31.2201C10.1476 31.069 10.2564 30.8881 10.3747 30.6766C10.7279 30.0338 11.0411 29.5693 11.3154 29.2865C11.7064 28.8768 12.1534 28.6697 12.6552 28.6717C12.9325 28.6717 13.186 28.7358 13.414 28.864Z" fill="black"/>
</g>
</svg>
