<svg width="22" height="20" viewBox="0 0 22 20" fill="none" xmlns="http://www.w3.org/2000/svg">
<g clip-path="url(#clip0_3790_6980)">
<path d="M21.9864 6.4411C21.9864 6.34244 21.9864 6.25787 21.9864 6.15921C21.9864 5.9196 21.9864 5.68 21.9727 5.45449C21.9727 5.29945 21.9727 5.14441 21.9451 4.97528C21.9314 4.74977 21.9176 4.52426 21.9038 4.29875C21.8763 4.01686 21.8488 3.74906 21.8212 3.46717C21.7799 3.1571 21.7386 2.84702 21.6698 2.55104C21.601 2.19868 21.5184 1.86041 21.3807 1.52214C21.2981 1.29663 21.1879 1.08521 21.0227 0.901987C20.8851 0.746949 20.7199 0.634193 20.5133 0.606004C20.4032 0.59191 20.3206 0.606004 20.238 0.690571C20.1967 0.746949 20.1416 0.789232 20.1003 0.84561C19.9076 1.09931 19.7286 1.3671 19.5496 1.6349C19.3018 1.98726 19.0678 2.33962 18.8062 2.67789C18.7098 2.80474 18.6135 2.91749 18.4896 3.03025C18.4207 3.10072 18.3244 3.143 18.228 3.143C18.1867 3.143 18.1316 3.143 18.0903 3.143C17.9251 3.143 17.7737 3.08662 17.6222 3.04434C17.3056 2.95977 17.0027 2.83292 16.7136 2.72017C16.2455 2.52285 15.7912 2.32553 15.3231 2.1423C14.8826 1.95907 14.442 1.77584 13.9877 1.6208C13.5471 1.45167 13.0928 1.31073 12.6385 1.18388C12.3356 1.09931 12.0327 1.04293 11.7161 0.986554C11.4821 0.944271 11.248 0.916082 11.0002 0.901987C10.835 0.901987 10.656 0.887893 10.4908 0.901987C10.2705 0.901987 10.0365 0.930176 9.81622 0.958365C9.49958 0.986554 9.18293 1.04293 8.88005 1.09931C8.4395 1.18388 8.01272 1.28254 7.58594 1.40939C6.99395 1.57852 6.41572 1.78994 5.8375 2.02954C5.54839 2.1423 5.25928 2.26915 4.98393 2.3819C4.90133 2.41009 4.81873 2.42419 4.74989 2.45237C4.70859 2.45237 4.68105 2.45237 4.66729 2.42419C4.57092 2.31143 4.48831 2.19868 4.39194 2.08592C4.10283 1.71946 3.82749 1.35301 3.52461 1.01474C3.34563 0.817421 3.16666 0.634193 2.96015 0.46506C2.79495 0.324116 2.61597 0.197266 2.42323 0.112699C2.32686 0.0704158 2.23049 0.0422269 2.14789 0.0140381H1.98268C1.74864 0.0845103 1.56966 0.239549 1.41822 0.436871C1.28055 0.620099 1.15665 0.817421 1.06028 1.02884C0.895071 1.3671 0.757399 1.70537 0.647261 2.05773C0.482055 2.56513 0.35815 3.10072 0.248012 3.62221C0.179176 3.98867 0.124107 4.35512 0.0965727 4.73567C0.0828055 4.93299 0.0690383 5.13032 0.0552711 5.34173C0.0552711 5.41221 0.0552711 5.49677 0.0552711 5.56724C0.0552711 5.63772 0.0552711 5.70819 0.0415039 5.77866V6.59614C0.0415039 6.59614 0.0552711 6.72299 0.0552711 6.79346C0.0690383 7.01897 0.0828055 7.24448 0.11034 7.46999C0.137874 7.79416 0.192943 8.11834 0.248012 8.44251C0.316848 8.83715 0.413219 9.2318 0.523356 9.61235C0.674796 10.1338 0.881304 10.6271 1.11535 11.1064C1.30809 11.501 1.52836 11.8815 1.76241 12.248C2.09282 12.7554 2.46453 13.2205 2.86378 13.6574C3.05652 13.8689 3.26303 14.0662 3.46954 14.2494C3.73112 14.5031 4.02023 14.7427 4.30934 14.9541C4.63975 15.2078 4.97017 15.4333 5.31435 15.6448C5.63099 15.8421 5.9614 16.0253 6.30558 16.1804C6.53963 16.2931 6.78744 16.4059 7.02148 16.5045C7.35189 16.6455 7.69607 16.7723 8.04025 16.8851C8.56341 17.0542 9.1141 17.1952 9.65102 17.2938C9.88506 17.3361 10.1191 17.3784 10.3531 17.4066C10.6147 17.4489 10.8763 17.477 11.1379 17.5052C11.3031 17.5193 11.4683 17.5193 11.6473 17.5334C11.6473 17.5334 11.661 17.5334 11.6748 17.5334H12.7899C12.7899 17.5334 12.8725 17.5334 12.9276 17.5334C13.0791 17.5334 13.2443 17.5052 13.3957 17.4911C13.7536 17.4629 14.1116 17.4066 14.4695 17.3361C14.9927 17.2374 15.5158 17.0965 16.0252 16.9133C16.3832 16.7864 16.7411 16.6314 17.0853 16.4763C17.4295 16.3072 17.7737 16.124 18.1041 15.9267C18.5309 15.6589 18.9163 15.3629 19.2881 15.0246C19.7286 14.6159 20.1141 14.1508 20.4583 13.6434C20.6923 13.291 20.8988 12.9104 21.0778 12.5158C21.3118 12.0084 21.4908 11.4869 21.6285 10.9372C21.7386 10.5285 21.8212 10.1197 21.8763 9.69691C21.9176 9.45731 21.9451 9.20361 21.9589 8.94991C21.9864 8.7244 22.0002 8.51298 22.014 8.28747C22.014 8.14653 22.014 8.00558 22.0277 7.87873C22.0277 7.85054 22.0277 7.83645 22.0277 7.80826V6.49748C22.0277 6.49748 22.0277 6.45519 22.0277 6.4411H21.9864ZM13.4095 13.7843L13.3544 13.8689L13.3269 13.9534L13.2856 13.9957V14.0803V14.1226V14.1789V14.2635L13.3819 14.2917H13.4783H13.5747L13.6986 14.2353H13.7674L14.0152 14.0803L14.0841 14.0521L14.1391 14.0098L14.2217 13.9816L14.2768 13.9111H14.3043L14.3319 13.883H14.4007L14.442 13.8266L14.7036 13.6011L14.7862 13.5165H14.8137L14.8826 13.587V13.6152V13.6997L14.855 13.7702V13.8125L14.8137 13.8407L14.7311 13.8971L14.6898 13.9675L14.5521 14.0944L14.4833 14.1789L14.4007 14.2353L14.3732 14.3058L14.3456 14.334H14.2906L14.208 14.4185H14.1254L14.0152 14.5031H13.9464L13.85 14.6159H13.6986L13.6435 14.6582H13.5196L13.4232 14.7004L13.3269 14.6159L13.2305 14.5595L13.1204 14.4185L13.0791 14.3622V14.334L13.0515 14.2494L13.024 14.193V14.1367L12.9689 14.1648L12.8863 14.2776L12.8037 14.3058L12.7624 14.3481H12.6936L12.666 14.4326L12.5559 14.4749L12.3769 14.5313H12.3081L12.2393 14.489H12.1704L12.1291 14.3763L12.0878 14.3058V14.2776V14.2635V14.1789L12.074 14.1367V14.0662V13.9675V13.9111V13.8266V13.8125L12.0052 13.8689H11.9364L11.8951 13.9957L11.8262 14.038L11.7987 14.0803L11.7299 14.1085L11.661 14.1648H11.606L11.5784 14.2353L11.5509 14.2776L11.3031 14.4749L11.2205 14.5595L11.1241 14.6159L10.835 14.785L10.7111 14.8132L10.5184 14.7709L10.4082 14.6863V14.6582L10.3669 14.5454L10.3256 14.4326V14.2776V14.1648L10.3531 14.1226H10.3807V14.0521L10.3944 13.9816L10.5321 13.7702V13.7138L10.6423 13.6293L10.6973 13.5447L10.8075 13.4601L10.9314 13.3192L11.1516 13.1782L11.3582 13.0373L11.4821 12.995L11.5922 12.9245L11.7574 12.8823L11.8675 12.8259L11.9364 12.8682L12.0052 12.84H12.019L12.1016 12.8682L12.2117 12.9527L12.2393 13.0232V13.1219L12.2943 13.1923L12.3494 13.15L12.4182 13.0373L12.5008 12.9668L12.6385 12.9245H12.7211L12.7762 12.995V13.1078V13.2769L12.6936 13.4601L12.611 13.5729L12.5284 13.7984L12.5008 13.8548V14.0803V14.1226L12.5284 14.1367H12.5559L12.5972 14.1085L12.7073 13.9957L12.7762 13.9534L12.9001 13.8266H12.9276L12.9827 13.7279L13.0653 13.6715L13.0928 13.6152V13.5447L13.1754 13.4601L13.2167 13.4037L13.258 13.3051L13.2856 13.2628L13.3131 13.1923H13.3957L13.4232 13.1641L13.3819 13.1219L13.4095 13.0091L13.4645 12.9386L13.5334 12.8259L13.616 12.7413L13.6986 12.5722L13.7536 12.5299V12.4876H13.6986H13.6573H13.5471L13.4645 12.5158L13.2993 12.544L13.203 12.6004H13.1341H13.0515H13.0102L12.9827 12.544V12.4876V12.4453L13.0378 12.3467L13.0791 12.2762L13.1617 12.2198L13.203 12.2621L13.258 12.1775H13.2718L13.2993 12.1634H13.4232L13.5196 12.1493L13.6297 12.1212L13.7261 12.0789L13.9739 12.0366L14.0703 11.9802L14.1391 11.952L14.2493 11.8111L14.3594 11.7265L14.4833 11.501L14.5521 11.4164L14.6072 11.3601L14.676 11.3882L14.7587 11.4728L14.8 11.6419L14.7724 11.7688H14.7587L14.6623 11.8675L14.621 11.9238V11.9661V11.9802H14.6623L14.7174 11.952L15.0202 11.9097L15.2543 11.8393L15.5296 11.8111L15.7774 11.7547H15.8463L15.9151 11.7829L15.9839 11.7547L16.1629 11.7265L16.2455 11.6701H16.3006L16.3419 11.6983H16.3969L16.6998 11.6279L16.8375 11.656L16.9752 11.5997H17.0302L17.1266 11.5574H17.223H17.2781L17.3469 11.5856L17.4157 11.6138L17.4433 11.656L17.4846 11.7124L17.5396 11.797V11.9238V11.9802L17.4983 12.0084H17.4433V12.0225H17.3607L17.1404 12.0084H17.0302L16.7411 12.0366H16.6585L16.3694 12.093H16.2042H16.1354L16.0803 12.0648L15.9977 12.093L15.8738 12.1352H15.7086L15.626 12.1634H15.5021L15.3782 12.1916H15.2267L14.9101 12.2903H14.8L14.6485 12.3467H14.5246L14.4282 12.3889H14.3594L14.3319 12.4735L14.2906 12.5017V12.5863L14.208 12.6145L14.0978 12.84L14.0152 12.8823L13.9602 12.995L13.8776 13.0796L13.7949 13.2628L13.7399 13.3333V13.4037L13.6848 13.4319L13.6435 13.5024L13.6022 13.5447V13.6152L13.4783 13.7138V13.8266L13.4095 13.7843ZM9.43074 14.2917L9.34814 14.3904L9.30684 14.4185H9.26553L9.1967 14.4467L9.1554 14.5172L9.08656 14.5454L8.97642 14.6441H8.89382L8.83875 14.7004H8.75615L8.71485 14.7427H8.65978L8.61848 14.785H8.59094H8.56341V14.7004L8.53587 14.785V14.8273H8.50834H8.4808L8.41197 14.7991L8.3156 14.8414L8.06779 14.7709H8.01272L7.97142 14.7427L7.90258 14.7145V14.6441L7.80621 14.6018L7.77868 14.5172L7.72361 14.4608V14.4185L7.66854 14.3481V14.2917L7.62724 14.2353L7.5997 14.1085L7.57217 13.8407V13.6856L7.5997 13.6152L7.641 13.4319L7.72361 13.15L7.81998 12.9104V12.8541L7.87505 12.7977L7.94388 12.6286L7.99895 12.5863L8.04025 12.5158H8.08155L8.05402 12.3889L8.15039 12.2762L8.17793 12.1916L8.21923 12.1493L8.26053 12.0789L8.37067 12.0507L8.41197 12.1071L8.45327 12.0648L8.38443 12.0366L8.32936 11.9379L8.38443 11.8534L8.4808 11.8111L8.4395 11.7829V11.7547L8.50834 11.6842L8.53587 11.5997L8.60471 11.5574H8.61848H8.64601V11.4728V11.3882L8.75615 11.2614L8.79745 11.1768L8.92135 11.0923L8.94889 11.0359L9.03149 10.9654L9.12786 10.909H9.14163L9.1967 10.9513L9.16916 10.9795V11.0077L9.1967 10.9795V10.9372V10.909L9.14163 10.8668L9.1967 10.7822L9.30684 10.6976L9.41697 10.599L9.52711 10.5285L9.58218 10.4721H9.66478L9.67855 10.5003H9.69232L9.67855 10.4298L9.77492 10.3594L9.95389 10.303L10.0227 10.2466L10.1879 10.1902H10.2843L10.3807 10.1479L10.4633 10.1902L10.5184 10.162L10.5872 10.2325L10.6836 10.303L10.7249 10.3875L10.7524 10.4862L10.7386 10.6553V10.7822L10.6973 10.8949L10.6698 11.05L10.6285 11.1486L10.5872 11.3037L10.5046 11.4728L10.1329 12.0507L10.0916 12.1071L10.009 12.1493V12.2198V12.2762L9.94013 12.3467L9.84376 12.4171H9.77492H9.69232L9.65102 12.3889L9.56841 12.2903V12.2339L9.58218 12.1212L9.63725 12.0366L9.85752 11.8675L9.91259 11.8252H9.96766L9.9952 11.7688V11.6983L10.0916 11.6279L10.1191 11.5856L10.1466 11.5433H10.1879L10.2292 11.4587L10.3394 11.2755V11.1909L10.422 11.1486V11.0359L10.477 10.9936V10.9231L10.5046 10.8386L10.5597 10.7117V10.5285L10.5184 10.5003H10.4495H10.422L10.2292 10.599L10.1466 10.6271L10.1053 10.599H10.0916L10.0778 10.6694H10.0227L9.96766 10.7399H9.91259L9.85752 10.8245L9.78869 10.8668L9.73362 10.9513H9.67855L9.60971 11.0782H9.54088L9.51334 11.1768L9.41697 11.2614L9.37567 11.3178H9.30684V11.4305L9.238 11.4728V11.5151L9.18293 11.5574L9.14163 11.5856L9.07279 11.6279V11.6701L9.05903 11.7265V11.7547H9.03149H9.00396L8.99019 11.8816L8.93512 11.9661L8.88005 12.0507L8.85252 12.1212L8.81122 12.2057L8.71485 12.2339V12.3467L8.67354 12.4312L8.63224 12.5299L8.54964 12.6426V12.7131L8.49457 12.8118L8.42573 12.995L8.34313 13.0796V13.15L8.3156 13.2346L8.24676 13.3333L8.21923 13.4601L8.15039 13.5165H8.17793V13.6434L8.10909 13.7561L8.05402 13.8971L8.08155 13.9675L8.05402 14.193V14.2635H8.04025V14.3058L8.09532 14.3622L8.15039 14.4467L8.17793 14.5031H8.26053L8.34313 14.489H8.41197L8.52211 14.4326L8.65978 14.3904L8.72861 14.3058L8.86629 14.2776L8.97642 14.1508L9.12786 14.0662L9.21047 13.9816L9.2793 13.9534L9.3206 13.883L9.36191 13.8548L9.41697 13.8125L9.58218 13.6715L9.62348 13.587L9.67855 13.5447H9.74739V13.5024L9.80246 13.4601L9.87129 13.4178L9.89883 13.3474L9.9952 13.2769L10.0778 13.1782H10.1466L10.1742 13.0937L10.2017 13.0514H10.2568L10.2981 12.9527L10.3807 12.9245L10.4357 12.8259L10.5459 12.7695L10.5872 12.7413H10.6147H10.656L10.7111 12.7977V12.8682V12.9104L10.656 12.9668V13.0373L10.5734 13.0937L10.5046 13.1641V13.2346L10.3944 13.291L10.3256 13.3897L10.2705 13.446H10.2292L10.2017 13.5447L10.0778 13.6574L10.0503 13.742H9.98143L9.92636 13.8266L9.85752 13.8971L9.81622 13.9534H9.74739L9.70609 14.0239H9.62348L9.55465 14.1367L9.51334 14.1789L9.48581 14.2212H9.45827V14.1648L9.40321 14.2071L9.43074 14.2635V14.2917ZM6.64976 7.65322L6.62223 7.56865L6.52586 7.48409L6.48456 7.42771H6.40195L6.31935 7.38543L6.20921 7.32905H6.18168L6.14038 7.25858H6.09908L5.7962 7.17401H5.7549L5.67229 7.14582H5.58969L5.56215 7.10354H5.49332L5.45202 7.04716H5.31435L5.24551 7.03306L5.21798 6.99078H5.1216L5.039 6.96259L4.81873 6.92031L4.76366 6.89212H4.69482L4.65352 6.83574H4.55715L4.48831 6.77937L4.36441 6.6948L4.33687 6.63842L4.2818 6.56795V6.53976L4.26804 6.45519L4.29557 6.22968L4.32311 6.15921L4.37818 6.07464L4.40571 6.01827L4.47455 5.96189L4.51585 5.86323L4.59845 5.80685L4.62598 5.75047L4.74989 5.62362L4.80496 5.56724L4.87379 5.52496L4.92886 5.48268L4.98393 5.45449L5.01147 5.39811L5.06654 5.36992L5.21798 5.24307L5.43825 5.13032L5.50709 5.08803L5.58969 5.05984H5.65853L5.69983 4.97528H5.82373L5.89257 4.89071H5.98894L6.04401 4.83433H6.08531L6.30558 4.77796L6.52586 4.69339H6.60846L6.66353 4.65111L6.7186 4.62292H6.7599L6.81497 4.65111H6.89757L7.00771 4.62292L7.15915 4.59473H7.28306L7.36566 4.65111V4.60882L7.37943 4.59473H7.39319L7.40696 4.58063H7.4345L7.50333 4.60882L7.5584 4.63701H7.641L7.69607 4.62292H7.72361L7.76491 4.6793H7.81998L7.84751 4.63701H7.87505L7.91635 4.70748H8.04025L8.06779 4.73567L8.10909 4.77796L8.15039 4.83433L8.21923 4.80615H8.26053L8.3156 4.9189L8.38443 4.98937V5.03166L8.45327 5.05984V5.15851L8.4808 5.20079L8.50834 5.35583V5.4263V5.55315V5.72228L8.46704 5.79276L8.42573 5.86323L8.37067 5.89142L8.3156 5.9196H8.2743H8.23299L8.20546 5.89142L8.16416 5.83504L8.12286 5.79276V5.75047V5.70819L8.16416 5.65181L8.21923 5.60953L8.28806 5.58134V5.49677L8.21923 5.45449L8.13662 5.35583L8.06779 5.29945L8.02649 5.21488H7.94388L7.86128 5.20079H7.72361L7.58594 5.13032H7.5171L7.33812 5.10213L7.02148 5.14441H6.91134L6.69107 5.21488H6.58093L6.31935 5.31354H6.26428L6.20921 5.35583L6.12661 5.38402L5.97517 5.45449L5.90634 5.41221H5.85127L5.80996 5.44039V5.51087L5.74113 5.55315L5.61722 5.58134L5.57592 5.62362H5.52085L5.43825 5.68H5.36941L5.30058 5.79276H5.21798L5.17667 5.86323H5.10784L5.039 5.94779L4.90133 6.06055L4.86003 6.13102L4.77742 6.17331L4.74989 6.24378L4.63975 6.39882V6.4411V6.48338L4.66729 6.51157L4.76366 6.55385L4.83249 6.61023H4.90133L5.02523 6.66661H5.06654L5.09407 6.73708H5.1216L5.16291 6.6948H5.19044H5.20421L5.27304 6.75118L5.31435 6.72299H5.36941H5.43825L5.53462 6.75118H5.58969L5.69983 6.79346H5.78243H5.86503L5.93387 6.76527L6.01647 6.80755H6.08531L6.26428 6.84984L6.37442 6.9344L6.40195 6.90622H6.41572H6.44326L6.636 6.97669H6.73237H6.7599V7.00488V7.03306L6.74614 7.08944V7.11763L6.8425 7.07535L6.88381 7.04716L6.93888 7.06125L7.09032 7.14582L7.14538 7.21629L7.21422 7.30086L7.24176 7.37133V7.4418L7.26929 7.49818V7.52637V7.59684V7.7096L7.20045 7.75188L7.22799 7.83645L7.18669 7.89283L7.09032 8.04786L7.02148 8.10424V8.16062L7.13162 8.09015L7.81998 7.73779L7.91635 7.7096L7.95765 7.66731L7.99895 7.59684H8.08155L8.12286 7.54046L8.19169 7.51228L8.28806 7.41362L8.38443 7.35724L8.46704 7.24448L8.59094 7.13173L8.68731 7.10354L8.76991 7.13173L8.83875 7.2022L8.88005 7.39952V7.55456L8.81122 7.66731L8.78368 7.75188L8.59094 8.04786L8.4808 8.27338L8.3982 8.4707V8.54117L8.42573 8.55526L8.50834 8.52708H8.54964L8.59094 8.44251L8.68731 8.41432V8.35794L8.75615 8.32975L8.82498 8.30156L8.85252 8.24519L8.89382 8.18881L8.93512 8.14653L9.03149 8.11834V8.00558L9.08656 7.97739L9.11409 7.92101H9.18293V7.80826L9.26553 7.73779L9.54088 7.28677L9.58218 7.24448H9.62348H9.67855L9.77492 7.31495L9.87129 7.4418L9.92636 7.63913V7.72369L9.89883 7.73779H9.87129L9.81622 7.9633L9.71985 8.13243V8.2029V8.27338L9.69232 8.32975V8.40023L9.67855 8.44251V8.48479V8.52708L9.70609 8.55526L9.77492 8.52708H9.84376L9.91259 8.48479L10.009 8.41432L10.1329 8.32975L10.1742 8.27338L10.2568 8.2029L10.2843 8.14653H10.3256L10.3531 8.04786L10.4082 7.99149L10.5046 7.80826L10.5597 7.7096V7.62503L10.5321 7.55456L10.4633 7.37133V7.34314L10.4908 7.24448L10.5459 7.17401H10.5734H10.656H10.7662L10.835 7.2022L10.9314 7.27267L10.9727 7.31495L11.014 7.4418V7.49818V7.51228L10.9314 7.78007V7.85054L10.8625 7.92101L10.8075 8.09015L10.7111 8.17471L10.6285 8.34385L10.5734 8.38613L10.477 8.52708L10.3394 8.59755L10.3118 8.62574V8.7103L10.2155 8.78078L10.1604 8.83715H10.1053L10.009 8.94991H9.9952L9.85752 8.99219H9.76115L9.62348 8.9781L9.56841 8.94991L9.37567 8.80896L9.33437 8.61164V8.52708H9.3206V8.38613L9.34814 8.14653V8.10424L9.33437 8.07605L9.29307 8.16062L9.22423 8.217L9.1967 8.30156L9.1554 8.34385L9.11409 8.40023L9.04526 8.4566L9.01772 8.51298L8.96266 8.55526L8.89382 8.65392V8.68211L8.83875 8.7244L8.75615 8.80896L8.53587 8.94991L8.34313 9.06266H8.30183L8.20546 9.04857L8.12286 8.9781L8.09532 8.92172L8.06779 8.76668L8.04025 8.65392L8.06779 8.41432V8.34385L8.13662 8.24519V8.17471L8.20546 8.09015V8.03377L8.28806 7.9633V7.89283L8.32936 7.80826L8.24676 7.83645L8.16416 7.90692L8.04025 7.97739L7.95765 8.06196L7.90258 8.10424H7.86128H7.79244H7.75114L7.70984 8.16062L7.641 8.18881H7.54463L7.48956 8.25928L7.40696 8.28747L7.32436 8.32975H7.24176L7.07655 8.4566L6.85627 8.52708L6.81497 8.56936L6.74614 8.59755L6.56716 8.7244L6.44326 8.76668L6.31935 8.86534L6.11284 9.00629L5.94764 9.09085L5.82373 9.18951H5.7549L5.65853 9.25999L5.60346 9.30227L5.36941 9.38684L5.19044 9.4855L5.05277 9.51369L4.90133 9.55597H4.79119L4.65352 9.61235H4.55715L4.41948 9.65463H4.33687L4.2405 9.64054L4.18543 9.59825L4.1166 9.57006L4.08906 9.4855V9.44321L4.14413 9.37274L4.2405 9.30227L4.47455 9.20361L4.54338 9.14723L4.66729 9.11904L4.74989 9.06266L4.84626 9.03447L5.01147 8.94991H5.0803L5.17667 8.87944L5.27304 8.85125L5.35565 8.78078L5.52085 8.7103L5.60346 8.65392L5.72736 8.61164L5.85127 8.55526H5.9201L6.01647 8.48479H6.09908L6.14038 8.42841L6.30558 8.30156L6.38819 8.217L6.55339 7.97739L6.62223 7.90692L6.66353 7.76598L6.70483 7.7096L6.66353 7.65322H6.64976ZM17.4846 6.45519L17.3607 6.49748H17.223L16.9063 6.59614H16.7962L16.6585 6.65252H16.5346L16.4383 6.6948H16.3694L16.3419 6.77937L16.3006 6.80755V6.89212L16.218 6.92031L16.1078 7.14582L16.0252 7.1881L15.9702 7.30086L15.8876 7.38543L15.805 7.56865L15.7499 7.63913V7.7096L15.6948 7.72369L15.6535 7.79416L15.6122 7.83645V7.90692L15.4883 8.00558V8.11834L15.4332 8.2029L15.4057 8.28747L15.3644 8.32975V8.41432V8.4566V8.51298V8.59755L15.4608 8.62574H15.5572H15.6535L15.7774 8.56936H15.8463L16.0941 8.41432L16.1629 8.38613L16.218 8.34385L16.3006 8.31566L16.3556 8.24519H16.3832L16.4107 8.217H16.4796L16.5209 8.16062L16.7824 7.93511L16.865 7.85054H16.8926L16.9614 7.92101V7.9492V8.03377L16.9339 8.10424V8.14653L16.8926 8.17471L16.81 8.23109L16.7687 8.30156L16.631 8.42841L16.5622 8.51298L16.4796 8.56936L16.452 8.63983L16.4245 8.66802H16.3694L16.2868 8.75259H16.2042L16.0941 8.83715H16.0252L15.9289 8.94991H15.7774L15.7224 8.99219H15.5985L15.5021 9.03447L15.4057 8.94991L15.3093 8.89353L15.1992 8.75259L15.1579 8.69621V8.66802L15.1304 8.58345L15.1028 8.52708V8.44251L15.0753 8.32975V8.30156L15.034 8.35794L14.9514 8.44251L14.8963 8.48479L14.8688 8.4566H14.8275V8.52708V8.55526H14.8L14.7036 8.61164L14.6623 8.65392H14.5797L14.5108 8.76668L14.3732 8.80896L14.1804 8.92172H14.1254L13.8776 9.03447H13.8087H13.7674L13.7123 8.99219H13.6297L13.5196 9.02038H13.4783L13.4232 8.9781L13.2993 8.90763L13.258 8.80896H13.203L13.1204 8.55526L13.0378 8.51298V8.48479L13.0102 8.42841V8.35794L12.9827 8.41432L12.9276 8.4566L12.9001 8.42841H12.8588V8.49889V8.52708H12.8312L12.7349 8.58345L12.6936 8.62574H12.611L12.5421 8.73849L12.4045 8.78078L12.2117 8.89353H12.1566L11.9088 9.00629H11.84H11.7987L11.7436 8.964H11.661L11.5509 8.99219H11.5096L11.4545 8.94991L11.3306 8.87944L11.2893 8.78078H11.2342L11.1516 8.52708L11.069 8.48479V8.4566L11.0415 8.40023L11.069 8.30156L11.0966 8.23109L11.1654 8.14653L11.2067 7.9633L11.2342 7.93511L11.2618 7.86464L11.2893 7.80826L11.3444 7.7096L11.3719 7.63913L11.3995 7.61094L11.4545 7.56865L11.5234 7.52637V7.49818L11.5371 7.42771L11.5647 7.38543L11.6335 7.34314L11.7849 7.21629L11.9501 7.14582L12.0603 7.07535H12.1016H12.1153L12.2117 7.04716H12.2806L12.4045 7.01897H12.4871H12.5421L12.6798 7.04716L12.7486 7.07535L12.8175 7.15991V7.23039V7.31495L12.7349 7.4418L12.611 7.55456H12.5421L12.4871 7.63913L12.432 7.66731L12.3632 7.72369H12.2806V7.73779L12.253 7.76598L12.198 7.83645H12.1429L12.0878 7.87873V7.93511L11.9914 7.9633L11.9088 8.03377L11.8538 8.07605H11.7849L11.7574 8.11834V8.18881H11.7023L11.661 8.23109H11.6197L11.5509 8.28747H11.4683L11.4545 8.37204L11.427 8.49889V8.55526L11.4683 8.58345H11.4958H11.6886H11.7987L11.9501 8.51298H12.0327H12.1016L12.1704 8.42841L12.2393 8.40023H12.3219L12.3494 8.31566L12.3769 8.28747H12.4045L12.5146 8.24519L12.5834 8.16062L12.6936 8.11834L12.7486 8.04786L12.845 8.01968L12.9001 7.9492L12.9964 7.87873L13.0378 7.85054H13.0653L13.0928 7.89283V7.79416L13.1892 7.72369L13.2718 7.68141L13.3131 7.59684L13.3819 7.56865H13.4232V7.54046L13.4783 7.49818L13.5471 7.4559V7.42771L13.5609 7.35724L13.5884 7.31495L13.6573 7.27267L13.8087 7.14582L13.9739 7.07535L14.0841 7.00488H14.1254H14.1391L14.2355 6.97669H14.3043L14.4282 6.9485H14.5108H14.5659L14.7036 6.97669L14.7724 7.00488L14.8413 7.08944V7.15991V7.24448L14.7587 7.37133L14.6347 7.48409H14.5659L14.5108 7.56865L14.4558 7.59684L14.3869 7.65322H14.3043V7.66731L14.2768 7.6955L14.2217 7.76598H14.1667L14.1116 7.80826V7.86464L14.0152 7.89283L13.9326 7.9633L13.8776 8.00558H13.8087L13.7812 8.04786V8.11834H13.7261L13.6848 8.16062H13.6435L13.5747 8.217H13.4921L13.4783 8.30156L13.4508 8.42841V8.48479L13.4921 8.51298H13.5196H13.7123H13.8225L13.9739 8.44251H14.0565H14.1254L14.1942 8.35794L14.263 8.32975H14.3456L14.3732 8.24519L14.4007 8.217H14.4282L14.5384 8.17471L14.6072 8.09015L14.7174 8.04786L14.7724 7.97739L14.8688 7.9492L14.9239 7.87873L15.0202 7.80826L15.0615 7.78007H15.0891L15.1166 7.82235V7.72369L15.213 7.65322L15.2956 7.61094L15.3231 7.51228H15.3506L15.3782 7.41362L15.4057 7.37133L15.4332 7.30086H15.5158L15.5434 7.27267L15.5021 7.23039L15.5296 7.11763L15.5847 7.04716L15.6535 6.9344L15.7361 6.84984L15.8187 6.6807L15.8738 6.63842V6.59614H15.8187H15.7774H15.6673L15.5847 6.62433L15.4195 6.65252L15.3231 6.70889H15.2543H15.1717H15.1304L15.1028 6.65252V6.59614V6.55385L15.1579 6.45519L15.1992 6.38472L15.2818 6.32834L15.3231 6.37063L15.3782 6.28606H15.3919L15.4195 6.27197H15.5434L15.6398 6.25787L15.7499 6.22968L15.8463 6.1874L16.0941 6.14512L16.1904 6.08874L16.2593 6.06055L16.3694 5.9196L16.4796 5.83504L16.6035 5.60953L16.6723 5.52496L16.7274 5.46858L16.7962 5.49677L16.8788 5.58134L16.9201 5.75047L16.8926 5.87732H16.8788L16.7824 5.97598L16.7411 6.03236V6.07464V6.08874H16.7824L16.8375 6.06055L17.1266 6.01827L17.3607 5.94779L17.636 5.9196L17.8838 5.86323H17.9526L18.0215 5.89142L18.0903 5.86323L18.2693 5.83504L18.3519 5.77866H18.407L18.4483 5.80685H18.5033L18.8062 5.73638L18.9439 5.76457L19.0678 5.70819H19.1229L19.2192 5.6659H19.3156H19.3707L19.4395 5.69409L19.5083 5.72228L19.5359 5.76457L19.5772 5.82094L19.6322 5.90551V6.03236V6.08874L19.5909 6.11693H19.5359V6.13102H19.4533L19.233 6.11693H19.1229L18.8337 6.14512H18.7511L18.462 6.20149H18.2968H18.228L18.1729 6.17331L18.0903 6.20149L17.9664 6.24378H17.8012L17.7186 6.27197H17.5947L17.4846 6.45519Z" fill="black"/>
<path d="M11.6885 7.94922L11.8124 7.89284L11.9638 7.76599L12.0189 7.7378L12.1015 7.66733L12.1428 7.63914L12.1703 7.59686H12.2254L12.2805 7.51229L12.3218 7.4841L12.4044 7.42772L12.3768 7.39954H12.3493H12.2667H12.1703L12.1152 7.44182L11.9913 7.4841L11.9087 7.55458L11.7848 7.63914L11.7435 7.66733L11.7022 7.79418L11.6472 7.87875L11.6196 7.96331H11.6472L11.716 7.93512L11.6885 7.94922Z" fill="black"/>
<path d="M5.34176 9.03448L5.20409 9.09086L5.02512 9.13314L4.68094 9.31637L4.5708 9.37275H4.62587L4.76354 9.33046L5.02512 9.2459L5.17656 9.21771L5.23163 9.16133H5.2867L5.3693 9.09086L5.47944 9.04857V9.02039H5.34176V9.03448Z" fill="black"/>
<path d="M13.6846 7.94922L13.8085 7.89284L13.9599 7.76599L14.015 7.7378L14.0976 7.66733L14.1389 7.63914L14.1664 7.59686H14.2215L14.2765 7.51229L14.3178 7.4841L14.4005 7.42772L14.3729 7.39954H14.3454H14.2628H14.1664L14.1113 7.44182L13.9874 7.4841L13.9048 7.55458L13.7809 7.63914L13.7396 7.66733L13.6983 7.79418L13.6433 7.87875L13.6157 7.96331H13.6433L13.7121 7.93512L13.6846 7.94922Z" fill="black"/>
<path d="M12.0464 13.3334H11.9913L11.7848 13.3052L11.7159 13.3475L11.5645 13.3897L11.358 13.5166L11.2892 13.5448L11.2341 13.6012L11.0414 13.7562L11 13.8267L10.9174 13.9112L10.8899 13.9676L10.8073 14.024L10.7798 14.1227L10.7109 14.2072V14.2495V14.2777V14.3764L10.7385 14.4045H10.7798L10.9174 14.3623L11.2479 14.1649L11.2892 14.1086L11.592 13.9112L11.6471 13.8549L11.6746 13.8267V13.7844L11.8261 13.6716L11.8536 13.6153L11.9087 13.573L12.0326 13.4602L12.1014 13.3897L12.1565 13.3052H12.0877L12.0464 13.3334Z" fill="black"/>
<path d="M9.0587 19.2248C8.92103 19.2248 8.78336 19.1967 8.76959 19.0557C8.76959 19.0134 8.76959 18.9711 8.79713 18.9289C8.85219 18.8584 8.94857 18.8302 9.03117 18.8302C9.14131 18.8302 9.26521 18.8866 9.29275 18.9993H9.47172C9.44419 18.7456 9.23768 18.647 9.03117 18.647C8.87973 18.647 8.72829 18.7034 8.64569 18.8302C8.59062 18.9007 8.56308 18.9993 8.57685 19.0839C8.59062 19.3658 8.82466 19.4081 9.03117 19.4222C9.15507 19.4222 9.29275 19.4504 9.30651 19.549C9.30651 19.5631 9.30651 19.5772 9.30651 19.5913C9.30651 19.7322 9.15507 19.8027 9.0174 19.8027C8.8935 19.8027 8.75582 19.7322 8.74206 19.6195V19.6054H8.54932V19.6477C8.57685 19.8873 8.81089 20 9.00363 20C9.23768 20 9.47172 19.845 9.47172 19.5913C9.47172 19.5631 9.47172 19.5349 9.47172 19.5067C9.41665 19.2953 9.21014 19.2389 9.03117 19.2248H9.0587Z" fill="black"/>
<path d="M10.7935 19.2248H10.2566V18.661H10.0776V19.9859H10.2566V19.408H10.7935V19.9859H10.9863V18.661H10.7935V19.2248Z" fill="black"/>
<path d="M12.2115 18.647C12.0325 18.647 11.8673 18.7315 11.7572 18.8443C11.6471 18.9711 11.5645 19.1403 11.5645 19.3235C11.5645 19.5067 11.6333 19.6759 11.7572 19.8027C11.8673 19.9296 12.0325 20 12.2115 20C12.3905 20 12.5557 19.9296 12.6796 19.8027C12.7897 19.6759 12.8723 19.5067 12.8723 19.3235C12.8723 19.1403 12.8035 18.9711 12.6796 18.8443C12.5557 18.7174 12.4043 18.647 12.2115 18.647ZM12.5419 19.6759C12.4593 19.7604 12.3354 19.8168 12.2115 19.8168C12.0876 19.8168 11.9637 19.7604 11.8811 19.6759C11.7985 19.5913 11.7434 19.4645 11.7434 19.3376C11.7434 19.2108 11.7985 19.0839 11.8811 18.9993C11.9637 18.9148 12.0876 18.8584 12.2115 18.8584C12.3354 18.8584 12.4593 18.9148 12.5419 18.9993C12.6245 19.0839 12.6796 19.2108 12.6796 19.3376C12.6796 19.4785 12.6245 19.5913 12.5419 19.6759Z" fill="black"/>
<path d="M13.8909 18.661H13.4229V19.9859H13.6156V19.549H13.8909C14.1663 19.549 14.304 19.3235 14.304 19.112C14.304 18.9006 14.1663 18.661 13.8909 18.661ZM13.8909 19.3516H13.6156V18.8442H13.8909C14.0424 18.8442 14.125 18.9711 14.125 19.0979C14.125 19.2248 14.0424 19.3516 13.8909 19.3516Z" fill="black"/>
</g>
<defs>
<clipPath id="clip0_3790_6980">
<rect width="22" height="20" fill="white"/>
</clipPath>
</defs>
</svg>
