<svg width="6" height="15" viewBox="0 0 6 15" fill="none" xmlns="http://www.w3.org/2000/svg">
<g clip-path="url(#clip0_3790_6376)">
<path d="M2.11764 15L2.98529 15L2.73529 12.7957L1.79411 12.7957L2.11764 15ZM3.02941 14.293L6 14.293L6 13.4889L2.94117 13.4889L3.02941 14.293ZM1.73529 12.4908L5.98529 12.4908L5.98529 11.6451L1.61764 11.6451L1.75 12.4908M1.60294 11.4787L2.58823 11.4787L2.44117 10.2588L1.41176 10.2588L1.58823 11.4787M3.29411 11.4787L4.29411 11.4787L4.25 10.6747L3.22058 10.6747L3.29411 11.4787ZM5.0147 11.4787L6 11.4787L6 10.2588L4.97059 10.2588L5.0147 11.4787ZM0.926467 7.09797L5.98529 7.09797L5.98529 5.98891L0.764702 5.98891L0.926467 7.09797ZM0.73529 5.78096L1.89705 5.78096L1.70588 4.15896L0.499996 4.15896L0.73529 5.78096ZM2.77941 5.78096L3.97058 5.78096L3.91176 4.71349L2.69117 4.71349L2.79411 5.78096M4.85294 5.78096L6.0147 5.78096L6.0147 4.15896L4.79411 4.15896L4.85294 5.78096ZM1.35294 9.93993L5.98529 9.93993L5.98529 8.9695L1.22058 8.9695L1.36764 9.93993M4.94117 8.78928L6.0147 8.78928L6.0147 7.38909L4.89706 7.38909L4.94117 8.78928ZM0.441172 0.512938C0.088231 0.859519 -0.0588278 1.38632 0.0294075 1.94085L1.32353 1.94085C1.32353 1.71904 1.39705 1.52495 1.58823 1.44177C1.86764 1.31701 2.30882 1.44177 2.70588 1.76063C3.32353 2.24584 4.57353 3.54898 4.57353 3.54898L4.5147 1.67745C3.33823 0.540665 2.61764 0.124769 1.72058 0.0554532C1.25 0.0138635 0.794113 0.180222 0.470584 0.499075M6.02941 -0.0138638L4.67647 -0.0138638L4.79411 3.77079M4.79411 3.77079L6.02941 3.77079L6.02941 -0.0138638M0.0588193 2.16266C0.308819 3.25786 1.16176 3.79852 2.57353 3.74307L2.45588 2.56469C1.66176 2.62015 1.47058 2.38447 1.36764 2.16266L0.0588193 2.16266Z" fill="black"/>
</g>
<defs>
<clipPath id="clip0_3790_6376">
<rect width="15" height="6" fill="white" transform="translate(0 15) rotate(-90)"/>
</clipPath>
</defs>
</svg>
