<svg width="10" height="8" viewBox="0 0 10 8" fill="none" xmlns="http://www.w3.org/2000/svg">
<path d="M0.441194 2.74463V0.384505H1.26632C1.43073 0.384505 1.56633 0.412931 1.67311 0.469783C1.7799 0.525866 1.85942 0.601541 1.91166 0.696806C1.9639 0.791303 1.99003 0.896172 1.99003 1.01141C1.99003 1.11282 1.97197 1.19657 1.93586 1.26264C1.90052 1.32871 1.85366 1.38095 1.79527 1.41936C1.73765 1.45778 1.67504 1.4862 1.60743 1.50464V1.52769C1.67964 1.5323 1.75225 1.55765 1.82523 1.60375C1.89822 1.64984 1.9593 1.71592 2.00846 1.80196C2.05763 1.88801 2.08222 1.99326 2.08222 2.11772C2.08222 2.23603 2.05533 2.34244 2.00155 2.43694C1.94777 2.53143 1.86288 2.60634 1.74687 2.66166C1.63086 2.71697 1.47989 2.74463 1.29397 2.74463H0.441194ZM0.726991 2.4911H1.29397C1.48066 2.4911 1.61319 2.45499 1.69155 2.38277C1.77068 2.30979 1.81025 2.22144 1.81025 2.11772C1.81025 2.03782 1.78989 1.96407 1.74917 1.89646C1.70845 1.82808 1.65045 1.77354 1.57516 1.73282C1.49987 1.69133 1.41075 1.67059 1.3078 1.67059H0.726991V2.4911ZM0.726991 1.42167H1.2571C1.34314 1.42167 1.42074 1.40477 1.48988 1.37096C1.55979 1.33716 1.61511 1.28953 1.65583 1.22806C1.69732 1.1666 1.71806 1.09439 1.71806 1.01141C1.71806 0.907696 1.68195 0.819729 1.60973 0.747512C1.53751 0.674526 1.42304 0.638034 1.26632 0.638034H0.726991V1.42167ZM2.68956 2.34359L3.54234 0.974536H3.85579V2.74463H3.58382V1.37557L2.73565 2.74463H2.41759V0.974536H2.68956V2.34359ZM5.44123 1.73512V1.98865H4.464V1.73512H5.44123ZM4.52853 0.974536V2.74463H4.25656V0.974536H4.52853ZM5.64867 0.974536V2.74463H5.3767V0.974536H5.64867ZM7.23267 1.73512V1.98865H6.25543V1.73512H7.23267ZM6.31997 0.974536V2.74463H6.048V0.974536H6.31997ZM7.4401 0.974536V2.74463H7.16814V0.974536H7.4401ZM8.1114 2.34359L8.96418 0.974536H9.27764V2.74463H9.00567V1.37557L8.1575 2.74463H7.83943V0.974536H8.1114V2.34359ZM2.49523 6.74463V4.97454H3.88734V6.74463H3.61537V5.22806H2.7672V6.74463H2.49523ZM4.39845 7.40841C4.35236 7.40841 4.31125 7.40457 4.27515 7.39689C4.23904 7.38998 4.21407 7.38306 4.20024 7.37615L4.26938 7.13645C4.33545 7.15335 4.39384 7.15949 4.44455 7.15488C4.49525 7.15028 4.5402 7.12761 4.57938 7.08689C4.61933 7.04694 4.65582 6.98202 4.68886 6.89214L4.73956 6.75385L4.085 4.97454H4.38001L4.86863 6.38508H4.88707L5.37569 4.97454H5.67071L4.91934 7.00277C4.88554 7.09419 4.84367 7.16987 4.79373 7.22979C4.74379 7.29048 4.68579 7.33543 4.61971 7.36462C4.55441 7.39382 4.48066 7.40841 4.39845 7.40841ZM6.13515 4.97454L6.55923 5.69825L6.98332 4.97454H7.29677L6.72518 5.85958L7.29677 6.74463H6.98332L6.55923 6.0578L6.13515 6.74463H5.8217L6.38407 5.85958L5.8217 4.97454H6.13515Z" fill="black"/>
</svg>
