<svg width="3" height="25" viewBox="0 0 3 25" fill="none" xmlns="http://www.w3.org/2000/svg">
<g clip-path="url(#clip0_3790_7310)">
<path fill-rule="evenodd" clip-rule="evenodd" d="M2.26817 0.405335C2.26817 0.719142 2.24311 1.12448 1.59148 1.12448H0.626566H0.526316C0.413534 1.1114 0.037594 1.15063 0 1.45136V0.993724C0 0.679916 0.0250627 0.274582 0.676692 0.274582C1.19048 0.274582 1.32832 0.274582 1.85464 0.274582C2.15539 0.274582 2.26817 0.143828 2.26817 0V0.405335Z" fill="black"/>
<path fill-rule="evenodd" clip-rule="evenodd" d="M2.26817 2.32745C2.26817 2.64126 2.24311 3.0466 1.59148 3.3081C1.07769 3.50423 0.93985 3.55653 0.413534 3.76574C0.112782 3.87034 0 4.04032 0 4.19722V3.79189C0 3.47808 0.0250627 3.05967 0.676692 2.81124C1.19048 2.61511 1.32832 2.56281 1.85464 2.3536C2.15539 2.23593 2.26817 2.06595 2.26817 1.92212V2.32745Z" fill="black"/>
<path fill-rule="evenodd" clip-rule="evenodd" d="M0 2.00057C0 2.3013 0.238095 2.53665 0.513784 2.53665C0.802005 2.53665 1.02757 2.28822 1.02757 2.00057C1.02757 1.69983 0.789474 1.46448 0.513784 1.46448C0.238095 1.46448 0 1.69983 0 2.00057Z" fill="black"/>
<path fill-rule="evenodd" clip-rule="evenodd" d="M2.23058 6.86449L0 5.81847V5.38698L2.23058 4.34096L2.26817 4.32788V4.36711V4.79859V4.81167L2.25564 4.82474L0.313283 5.72694L2.25564 6.64221H2.26817V6.66836V6.82527V6.87757L2.23058 6.86449Z" fill="black"/>
<path d="M2.26817 7.93677H0V8.3944H2.26817V7.93677Z" fill="black"/>
<path fill-rule="evenodd" clip-rule="evenodd" d="M2.06767 11.0487V10.3818H0.0250627H0V10.3557V10.2249V10.0811V9.95036V9.91113H0.0250627H2.06767V9.24429V9.21814H2.10526H2.24311H2.26817V9.24429V9.95036V10.3557V11.0487V11.0879H2.24311H2.10526H2.06767V11.0487Z" fill="black"/>
<path fill-rule="evenodd" clip-rule="evenodd" d="M0.639098 14.9189C0.639098 14.9189 0.538847 14.9973 0.488722 15.0366C0.438597 15.0889 0.401003 15.1281 0.363409 15.1804C0.325815 15.2327 0.300752 15.285 0.275689 15.3373C0.250627 15.3896 0.238095 15.455 0.225564 15.5203C0.225564 15.5857 0.213033 15.6511 0.213033 15.7165C0.213033 15.7818 0.213033 15.8472 0.225564 15.9126C0.225564 15.978 0.250627 16.0303 0.275689 16.0957C0.300752 16.148 0.325815 16.2003 0.363409 16.2526C0.401003 16.3049 0.438597 16.3572 0.488722 16.3964C0.488722 16.3964 0.588972 16.4879 0.639098 16.5141C0.689223 16.5533 0.75188 16.5794 0.802005 16.6056C0.802005 16.6056 0.914787 16.6448 0.977444 16.6579C1.0401 16.6579 1.10276 16.671 1.17795 16.671C1.25313 16.671 1.31579 16.671 1.37845 16.6579C1.4411 16.6579 1.50376 16.6317 1.56642 16.6056C1.62907 16.5794 1.6792 16.5533 1.72932 16.5141C1.77945 16.4748 1.82957 16.4356 1.8797 16.3964C1.8797 16.3964 1.96742 16.3049 2.00501 16.2526C2.04261 16.2003 2.06767 16.148 2.09273 16.0957C2.11779 16.0434 2.13033 15.978 2.14286 15.9126C2.14286 15.8472 2.15539 15.7818 2.15539 15.7165C2.15539 15.6511 2.15539 15.5857 2.14286 15.5203C2.14286 15.455 2.11779 15.4027 2.09273 15.3373C2.06767 15.285 2.04261 15.2327 2.00501 15.1804C1.96742 15.1281 1.92982 15.0758 1.8797 15.0366C1.82957 14.9843 1.77945 14.945 1.72932 14.9189C1.6792 14.8796 1.62907 14.8535 1.56642 14.8273C1.56642 14.8273 1.45363 14.7881 1.37845 14.775C1.31579 14.775 1.25313 14.762 1.17795 14.762C1.10276 14.762 1.0401 14.762 0.977444 14.775C0.914787 14.775 0.85213 14.8012 0.802005 14.8273C0.802005 14.8273 0.689223 14.8796 0.639098 14.9189ZM1.6416 14.3828C1.77945 14.4351 1.90476 14.5266 2.01754 14.6312C2.19298 14.8143 2.30576 15.0758 2.35589 15.3373C2.40602 15.6249 2.38095 15.9257 2.2807 16.1741C2.25564 16.2395 2.21805 16.3049 2.18045 16.3702C2.14286 16.4356 2.09273 16.4879 2.03008 16.5533C1.97995 16.6056 1.91729 16.6579 1.85464 16.6971C1.79198 16.7363 1.72932 16.7756 1.65414 16.8017C1.57895 16.8279 1.51629 16.854 1.42857 16.8671C1.35338 16.8802 1.2782 16.8932 1.19048 16.8932C1.10276 16.8932 1.02757 16.8932 0.952381 16.8671C0.877193 16.854 0.802005 16.8279 0.726817 16.8017C0.651629 16.7756 0.588972 16.7363 0.526316 16.6971C0.463659 16.6579 0.401003 16.6056 0.350877 16.5533C0.300752 16.501 0.250627 16.4356 0.200501 16.3702C0.162907 16.3049 0.125313 16.2395 0.100251 16.1741C0 15.9257 -0.0250627 15.6249 0.0250627 15.3373C0.0626566 15.0627 0.175439 14.8143 0.350877 14.6312C0.350877 14.6312 0.463659 14.5266 0.526316 14.4874C0.588972 14.4482 0.651629 14.4089 0.726817 14.3828C0.802005 14.3566 0.864662 14.3305 0.952381 14.3174C1.02757 14.3043 1.10276 14.2913 1.19048 14.2913C1.35338 14.2913 1.50376 14.3174 1.65414 14.3697L1.6416 14.3828Z" fill="black"/>
<path fill-rule="evenodd" clip-rule="evenodd" d="M1.0401 18.2924H0C0 18.1354 0 17.9785 0 17.8347H2.24311H2.26817V19.1292C2.26817 19.2076 2.26817 19.273 2.24311 19.3384C2.23058 19.4038 2.20551 19.4691 2.19298 19.5214C2.19298 19.5214 2.14286 19.626 2.10526 19.6653C2.06767 19.7045 2.03008 19.7437 1.97995 19.7699C1.92982 19.796 1.8797 19.8222 1.82957 19.8352C1.77945 19.8483 1.71679 19.8614 1.65414 19.8614C1.65414 19.8614 1.54135 19.8614 1.50376 19.8483C1.45363 19.8483 1.40351 19.8222 1.36591 19.796C1.36591 19.796 1.2782 19.7437 1.25313 19.7045C1.21554 19.6653 1.19048 19.626 1.16541 19.5868C1.16541 19.5868 1.11529 19.4953 1.10276 19.443C1.10276 19.4038 1.07769 19.3645 1.07769 19.3122L0.0501253 20.0444L0 20.0837V19.8483L0.0125313 19.8222L1.0401 19.0769V18.3054V18.2924ZM2.0802 19.1161V18.2924H1.22807V19.1161C1.22807 19.1161 1.22807 19.2207 1.22807 19.273C1.22807 19.3253 1.25313 19.3645 1.26566 19.4038C1.26566 19.4038 1.30326 19.4822 1.32832 19.5084C1.32832 19.5084 1.37845 19.5607 1.40351 19.5868C1.40351 19.5868 1.46617 19.626 1.50376 19.6391C1.54135 19.6391 1.57895 19.6522 1.62907 19.6522C1.6792 19.6522 1.71679 19.6522 1.75439 19.6391C1.79198 19.6391 1.82957 19.613 1.85464 19.5868C1.8797 19.5607 1.91729 19.5476 1.92982 19.5084C1.95489 19.4822 1.97995 19.443 1.99248 19.4038C2.00501 19.3645 2.01754 19.3253 2.03008 19.273C2.03008 19.2207 2.04261 19.1684 2.04261 19.1161H2.0802Z" fill="black"/>
<path fill-rule="evenodd" clip-rule="evenodd" d="M2.06767 13.7291V13.0623H0.0250627H0V13.0361V12.9054V12.7615V12.6308V12.5916H0.0250627H2.06767V11.9247V11.8986H2.10526H2.24311H2.26817V11.9247V12.6308V13.0361V13.7291V13.7683H2.24311H2.10526H2.06767V13.7291Z" fill="black"/>
<path fill-rule="evenodd" clip-rule="evenodd" d="M0.651629 22.9603L0.0250627 22.6596H0V22.4242L0.037594 22.4503L2.24311 23.4964H2.25564V23.9409H2.24311L0.037594 24.987L0 25.0131V24.5293H0.0125313L0.639098 24.2286V22.9734L0.651629 22.9603ZM0.839599 24.1371L1.97995 23.5879L0.839599 23.0387V24.124V24.1371Z" fill="black"/>
<path d="M2.26817 21.0513H0V21.5089H2.26817V21.0513Z" fill="black"/>
</g>
<defs>
<clipPath id="clip0_3790_7310">
<rect width="2.38095" height="25" fill="white"/>
</clipPath>
</defs>
</svg>
