<svg width="21" height="16" viewBox="0 0 21 16" fill="none" xmlns="http://www.w3.org/2000/svg">
<g clip-path="url(#clip0_3790_7019)">
<path d="M3.8799 15.96C5.93992 15.96 7.6099 14.29 7.6099 12.23C7.6099 10.17 5.93992 8.5 3.8799 8.5C1.81988 8.5 0.149902 10.17 0.149902 12.23C0.149902 14.29 1.81988 15.96 3.8799 15.96Z" fill="black"/>
<path d="M7.43977 0.19005C7.35977 0.05005 7.17977 4.99748e-05 7.03977 0.08005C7.03977 0.08005 7.03977 0.08005 7.02977 0.08005C6.36977 0.50005 5.86977 1.13005 5.58977 1.86005C5.57977 1.90005 5.55977 1.94005 5.54977 1.97005C5.22977 2.94005 5.33977 4.01005 5.85977 4.89005C7.93977 8.49005 10.0198 12.1 12.1098 15.7C12.1898 15.84 12.3698 15.89 12.5098 15.8101C12.9698 15.54 13.3698 15.17 13.6598 14.72C14.1098 14.0201 14.1998 13.2701 14.1598 12.64C14.1098 11.9901 13.9198 11.35 13.5898 10.79C11.5298 7.26005 9.47977 3.73005 7.43977 0.19005Z" fill="black"/>
<path d="M13.6497 0.19005C13.5697 0.05005 13.3897 4.99748e-05 13.2497 0.08005C13.2497 0.08005 13.2497 0.08005 13.2397 0.08005C12.5797 0.50005 12.0797 1.13005 11.7997 1.86005C11.7897 1.90005 11.7697 1.94005 11.7597 1.97005C11.4397 2.94005 11.5497 4.01005 12.0697 4.89005C14.1497 8.49005 16.2297 12.1 18.3197 15.7C18.3997 15.84 18.5797 15.89 18.7197 15.8101C19.1797 15.54 19.5797 15.17 19.8697 14.72C20.3197 14.0201 20.4097 13.2701 20.3697 12.64C20.3197 11.9901 20.1297 11.35 19.7997 10.79C17.7397 7.26005 15.6997 3.73005 13.6497 0.19005Z" fill="black"/>
</g>
<defs>
<clipPath id="clip0_3790_7019">
<rect width="20.22" height="15.92" fill="white" transform="translate(0.149902 0.0400391)"/>
</clipPath>
</defs>
</svg>
