<svg width="3" height="17" viewBox="0 0 3 17" fill="none" xmlns="http://www.w3.org/2000/svg">
<path d="M2.55037 2.20952L0.780273 2.20952L0.780273 1.93755L1.55008 1.93755L1.55008 1.75778L0.780273 1.12165L0.780273 0.771318L1.63305 1.48581L2.55037 0.762098L2.55037 1.11243L1.80361 1.69324L1.80361 1.93755L2.55037 1.93755L2.55037 2.20952Z" fill="black"/>
<path d="M2.58734 3.3294C2.58734 3.4892 2.54931 3.62941 2.47325 3.75002C2.3972 3.86987 2.29079 3.9636 2.15404 4.03121C2.01729 4.09805 1.85749 4.13147 1.67464 4.13147C1.49025 4.13147 1.3293 4.09805 1.19178 4.03121C1.05426 3.9636 0.947471 3.86987 0.871412 3.75002C0.795354 3.62941 0.757324 3.4892 0.757324 3.3294C0.757324 3.1696 0.795354 3.02977 0.871412 2.90992C0.947471 2.7893 1.05426 2.69557 1.19178 2.62873C1.3293 2.56113 1.49025 2.52732 1.67464 2.52732C1.85749 2.52732 2.01729 2.56113 2.15404 2.62873C2.29079 2.69557 2.3972 2.7893 2.47325 2.90992C2.54931 3.02977 2.58734 3.1696 2.58734 3.3294ZM2.34303 3.3294C2.34303 3.20801 2.31192 3.10813 2.24969 3.02977C2.18746 2.95141 2.10564 2.8934 2.00423 2.85576C1.90281 2.81811 1.79295 2.79929 1.67464 2.79929C1.55632 2.79929 1.44608 2.81811 1.3439 2.85576C1.24172 2.8934 1.15913 2.95141 1.09613 3.02977C1.03313 3.10813 1.00163 3.20801 1.00163 3.3294C1.00163 3.45078 1.03313 3.55066 1.09613 3.62902C1.15913 3.70738 1.24172 3.76539 1.3439 3.80303C1.44608 3.84068 1.55632 3.8595 1.67464 3.8595C1.79295 3.8595 1.90281 3.84068 2.00423 3.80303C2.10564 3.76539 2.18746 3.70738 2.24969 3.62902C2.31192 3.55066 2.34303 3.45078 2.34303 3.3294Z" fill="black"/>
<path d="M1.0338 5.69415L0.780273 5.69415L0.780273 4.25595L1.0338 4.25595L1.0338 4.83676L2.55037 4.83676L2.55037 5.10873L1.0338 5.10873L1.0338 5.69415Z" fill="black"/>
<path d="M2.58734 6.55098C2.58734 6.71693 2.54816 6.85983 2.4698 6.97968C2.39143 7.09953 2.28349 7.19172 2.14597 7.25626C2.00845 7.32079 1.85134 7.35306 1.67464 7.35306C1.49486 7.35306 1.33622 7.32002 1.1987 7.25395C1.06041 7.18711 0.952465 7.09415 0.874869 6.97507C0.796506 6.85522 0.757324 6.71539 0.757324 6.55559C0.757324 6.43113 0.780372 6.31897 0.826468 6.21909C0.872565 6.11922 0.937099 6.0374 1.02007 5.97363C1.10305 5.90986 1.19985 5.8703 1.31048 5.85493L1.31048 6.1269C1.22981 6.14764 1.15836 6.19374 1.09613 6.26519C1.03313 6.33587 1.00163 6.43113 1.00163 6.55098C1.00163 6.65701 1.02929 6.74997 1.08461 6.82987C1.13915 6.909 1.21637 6.97084 1.31624 7.0154C1.41535 7.05919 1.53174 7.08109 1.66542 7.08109C1.80217 7.08109 1.92125 7.05958 2.02266 7.01656C2.12408 6.97276 2.20282 6.9113 2.25891 6.83217C2.31499 6.75227 2.34303 6.65854 2.34303 6.55098C2.34303 6.4803 2.33074 6.41615 2.30616 6.35853C2.28157 6.30091 2.24623 6.25213 2.20013 6.21218C2.15404 6.17223 2.09872 6.1438 2.03419 6.1269L2.03419 5.85493C2.13867 5.8703 2.23279 5.90833 2.31653 5.96902C2.3995 6.02894 2.46557 6.10846 2.51474 6.20757C2.56314 6.30591 2.58734 6.42038 2.58734 6.55098Z" fill="black"/>
<path d="M2.58734 8.38996C2.58734 8.54976 2.54931 8.68997 2.47325 8.81059C2.3972 8.93044 2.29079 9.02416 2.15404 9.09177C2.01729 9.15861 1.85749 9.19203 1.67464 9.19203C1.49025 9.19203 1.3293 9.15861 1.19178 9.09177C1.05426 9.02416 0.947471 8.93044 0.871412 8.81059C0.795354 8.68997 0.757324 8.54976 0.757324 8.38996C0.757324 8.23016 0.795354 8.09033 0.871412 7.97048C0.947471 7.84986 1.05426 7.75614 1.19178 7.6893C1.3293 7.62169 1.49025 7.58788 1.67464 7.58788C1.85749 7.58788 2.01729 7.62169 2.15404 7.6893C2.29079 7.75614 2.3972 7.84986 2.47325 7.97048C2.54931 8.09033 2.58734 8.23016 2.58734 8.38996ZM2.34303 8.38996C2.34303 8.26857 2.31192 8.1687 2.24969 8.09033C2.18746 8.01197 2.10564 7.95397 2.00423 7.91632C1.90281 7.87867 1.79295 7.85985 1.67464 7.85985C1.55632 7.85985 1.44608 7.87867 1.3439 7.91632C1.24172 7.95397 1.15913 8.01197 1.09613 8.09033C1.03313 8.1687 1.00163 8.26857 1.00163 8.38996C1.00163 8.51134 1.03313 8.61122 1.09613 8.68958C1.15913 8.76795 1.24172 8.82595 1.3439 8.8636C1.44608 8.90124 1.55632 8.92006 1.67464 8.92006C1.79295 8.92006 1.90281 8.90124 2.00423 8.8636C2.10564 8.82595 2.18746 8.76795 2.24969 8.68958C2.31192 8.61122 2.34303 8.51134 2.34303 8.38996Z" fill="black"/>
<path d="M2.55055 11.0855L0.19043 11.0855L0.19043 10.2603C0.19043 10.0959 0.218856 9.96033 0.275708 9.85354C0.331791 9.74675 0.407466 9.66723 0.502731 9.61499C0.597228 9.56275 0.702097 9.53662 0.817338 9.53662C0.918749 9.53662 1.00249 9.55468 1.06856 9.59079C1.13463 9.62613 1.18688 9.67299 1.22529 9.73138C1.2637 9.789 1.29213 9.85162 1.31057 9.91922L1.33361 9.91922C1.33822 9.84701 1.36358 9.7744 1.40967 9.70142C1.45577 9.62843 1.52184 9.56736 1.60789 9.51819C1.69393 9.46902 1.79919 9.44443 1.92365 9.44443C2.04196 9.44443 2.14836 9.47132 2.24286 9.5251C2.33736 9.57888 2.41227 9.66377 2.46758 9.77978C2.5229 9.89579 2.55055 10.0468 2.55055 10.2327L2.55055 11.0855ZM2.29702 10.7997L2.29702 10.2327C2.29702 10.046 2.26092 9.91346 2.1887 9.8351C2.11571 9.75597 2.02736 9.7164 1.92365 9.7164C1.84375 9.7164 1.76999 9.73676 1.70238 9.77748C1.63401 9.8182 1.57946 9.8762 1.53874 9.95149C1.49726 10.0268 1.47651 10.1159 1.47651 10.2188L1.47651 10.7997L2.29702 10.7997ZM1.22759 10.7997L1.22759 10.2696C1.22759 10.1835 1.21069 10.1059 1.17689 10.0368C1.14308 9.96686 1.09545 9.91154 1.03399 9.87082C0.972528 9.82934 0.900311 9.80859 0.817338 9.80859C0.713621 9.80859 0.625654 9.8447 0.553437 9.91692C0.480451 9.98914 0.443959 10.1036 0.443959 10.2603L0.443959 10.7997L1.22759 10.7997Z" fill="black"/>
<path d="M2.58734 13.0576C2.58734 13.2174 2.54931 13.3576 2.47325 13.4782C2.3972 13.598 2.29079 13.6918 2.15404 13.7594C2.01729 13.8262 1.85749 13.8596 1.67464 13.8596C1.49025 13.8596 1.3293 13.8262 1.19178 13.7594C1.05426 13.6918 0.947471 13.598 0.871412 13.4782C0.795354 13.3576 0.757324 13.2174 0.757324 13.0576C0.757324 12.8978 0.795354 12.7579 0.871412 12.6381C0.947471 12.5175 1.05426 12.4237 1.19178 12.3569C1.3293 12.2893 1.49025 12.2555 1.67464 12.2555C1.85749 12.2555 2.01729 12.2893 2.15404 12.3569C2.29079 12.4237 2.3972 12.5175 2.47325 12.6381C2.54931 12.7579 2.58734 12.8978 2.58734 13.0576ZM2.34303 13.0576C2.34303 12.9362 2.31192 12.8363 2.24969 12.7579C2.18746 12.6796 2.10564 12.6216 2.00423 12.5839C1.90281 12.5463 1.79295 12.5274 1.67464 12.5274C1.55632 12.5274 1.44608 12.5463 1.3439 12.5839C1.24172 12.6216 1.15913 12.6796 1.09613 12.7579C1.03313 12.8363 1.00163 12.9362 1.00163 13.0576C1.00163 13.1789 1.03313 13.2788 1.09613 13.3572C1.15913 13.4355 1.24172 13.4935 1.3439 13.5312C1.44608 13.5688 1.55632 13.5877 1.67464 13.5877C1.79295 13.5877 1.90281 13.5688 2.00423 13.5312C2.10564 13.4935 2.18746 13.4355 2.24969 13.3572C2.31192 13.2788 2.34303 13.1789 2.34303 13.0576Z" fill="black"/>
<path d="M2.55068 14.8329L0.780588 14.8329L0.780588 14.5701L1.04795 14.5701L1.04795 14.5517C0.960363 14.5194 0.889298 14.461 0.83475 14.3765C0.780203 14.292 0.75293 14.1967 0.75293 14.0907C0.75293 14.0707 0.753314 14.0458 0.754082 14.0158C0.75485 13.9858 0.756003 13.9632 0.757539 13.9478L1.03412 13.9478C1.03181 13.957 1.02835 13.9782 1.02374 14.0112C1.01837 14.0435 1.01568 14.0776 1.01568 14.1138C1.01568 14.1998 1.03373 14.2766 1.06984 14.3442C1.10518 14.4111 1.15435 14.4641 1.21735 14.5033C1.27958 14.5417 1.35064 14.5609 1.43054 14.5609L2.55068 14.5609L2.55068 14.8329Z" fill="black"/>
<path d="M2.55055 16.7585L0.19043 16.7585L0.19043 15.9611C0.19043 15.7759 0.223849 15.6246 0.290689 15.507C0.35676 15.3887 0.446263 15.3011 0.559199 15.2443C0.672135 15.1874 0.798131 15.159 0.937188 15.159C1.07624 15.159 1.20262 15.1874 1.31633 15.2443C1.43003 15.3004 1.52069 15.3872 1.5883 15.5047C1.65514 15.6223 1.68856 15.7729 1.68856 15.9565L1.68856 16.5281L1.43503 16.5281L1.43503 15.9657C1.43503 15.8389 1.41313 15.7371 1.36934 15.6603C1.32555 15.5835 1.26639 15.5278 1.19187 15.4932C1.11658 15.4579 1.03168 15.4402 0.937188 15.4402C0.842691 15.4402 0.758181 15.4579 0.683659 15.4932C0.609137 15.5278 0.550748 15.5839 0.508493 15.6615C0.46547 15.7391 0.443959 15.842 0.443959 15.9703L0.443959 16.4727L2.55055 16.4727L2.55055 16.7585Z" fill="black"/>
</svg>
