<svg width="18" height="3" viewBox="0 0 18 3" fill="none" xmlns="http://www.w3.org/2000/svg">
<g clip-path="url(#clip0_3790_7025)">
<mask id="mask0_3790_7025" style="mask-type:luminance" maskUnits="userSpaceOnUse" x="0" y="-1" width="7" height="4">
<path d="M5.02 0.57999H5.35C5.61 0.57999 5.8 0.61999 5.91 0.70999C6.03 0.78999 6.08 0.94999 6.08 1.17999V1.70999H5.07C4.81 1.70999 4.62 1.66999 4.51 1.57999C4.39 1.49999 4.34 1.33999 4.34 1.10999V0.57999H5.02ZM1.97 2.29999H1.31V1.43999H0.66C0.48 1.43999 0.32 1.37999 0.19 1.26999C0.06 1.15999 0 1.01999 0 0.86999V-9.76585e-06H0.65V0.51999C0.65 0.60999 0.69 0.69999 0.77 0.75999C0.85 0.82999 0.94 0.85999 1.05 0.85999H2.23C2.34 0.85999 2.43 0.82999 2.51 0.75999C2.59 0.68999 2.63 0.60999 2.63 0.51999V-9.76585e-06H3.29V0.85999C3.29 1.01999 3.23 1.15999 3.1 1.26999C2.97 1.37999 2.82 1.43999 2.64 1.43999H1.98V2.29999H1.97ZM5.39 2.29999H6.85V1.15999C6.85 0.73999 6.69 0.43999 6.41 0.25999C6.12 0.0799902 5.86 -0.0100098 5.62 -0.0100098H3.57V1.12999C3.58 1.54999 3.73 1.84999 4.01 2.02999C4.3 2.20999 4.56 2.29999 4.8 2.29999H5.39Z" fill="white"/>
</mask>
<g mask="url(#mask0_3790_7025)">
<path d="M6.85 0H0V2.3H6.85V0Z" fill="black"/>
</g>
<mask id="mask1_3790_7025" style="mask-type:luminance" maskUnits="userSpaceOnUse" x="7" y="0" width="11" height="3">
<path d="M7.56986 2.30005H7.10986V0.690054H7.56986V1.29005H8.64986C8.72986 1.29005 8.78986 1.27005 8.84986 1.22005C8.89986 1.17005 8.95986 1.12005 8.95986 1.05005V0.690054H9.41986V1.11005C9.41986 1.29005 9.23986 1.49005 9.08986 1.49005C9.30986 1.51005 9.41986 1.75005 9.41986 1.89005V2.29005H8.95986V1.93005C8.95986 1.86005 8.89986 1.81005 8.84986 1.76005C8.79986 1.71005 8.72986 1.69005 8.64986 1.69005H7.56986V2.29005V2.30005ZM16.1899 2.30005H17.2199V1.50005C17.2199 1.20005 17.1099 0.990054 16.9099 0.870054C16.7099 0.740054 16.5199 0.680054 16.3499 0.680054H14.9099V1.48005C14.9099 1.78005 15.0199 1.99005 15.2199 2.11005C15.4199 2.24005 15.6099 2.30005 15.7799 2.30005H16.1899ZM15.9299 1.09005H16.1599C16.3399 1.09005 16.4799 1.12005 16.5599 1.18005C16.6399 1.24005 16.6799 1.35005 16.6799 1.51005V1.89005H15.9699C15.7899 1.89005 15.6499 1.86005 15.5699 1.80005C15.4899 1.74005 15.4499 1.63005 15.4499 1.47005V1.09005H15.9299ZM12.3099 1.69005V1.50005C12.3099 1.20005 12.4199 0.990054 12.6199 0.870054C12.8199 0.740054 13.0099 0.680054 13.1799 0.680054H14.6199V1.09005H13.3699C13.1899 1.09005 13.0499 1.12005 12.9699 1.18005C12.8899 1.24005 12.8399 1.28005 12.8399 1.29005H14.6199V1.48005C14.6199 1.78005 14.5099 1.99005 14.3099 2.11005C14.1099 2.24005 13.9199 2.30005 13.7499 2.30005H12.3099V1.89005H13.5599C13.7399 1.89005 13.8799 1.86005 13.9599 1.80005C14.0399 1.74005 14.0799 1.70005 14.0799 1.69005H12.3099ZM10.7399 2.30005H9.70986V1.50005C9.70986 1.20005 9.81986 0.990054 10.0199 0.870054C10.2199 0.740054 10.4099 0.680054 10.5799 0.680054H12.0199V1.48005C12.0199 1.78005 11.9099 1.99005 11.7099 2.11005C11.5099 2.24005 11.3199 2.30005 11.1499 2.30005H10.7399ZM10.9999 1.09005H10.7699C10.5899 1.09005 10.4499 1.12005 10.3699 1.18005C10.2899 1.24005 10.2499 1.35005 10.2499 1.51005V1.89005H10.9599C11.1399 1.89005 11.2799 1.86005 11.3599 1.80005C11.4399 1.74005 11.4799 1.63005 11.4799 1.47005V1.09005H10.9999Z" fill="white"/>
</mask>
<g mask="url(#mask1_3790_7025)">
<path d="M17.2199 0.680054H7.10986V2.30005H17.2199V0.680054Z" fill="black"/>
</g>
</g>
<defs>
<clipPath id="clip0_3790_7025">
<rect width="17.22" height="2.3" fill="white"/>
</clipPath>
</defs>
</svg>
