<svg width="10" height="4" viewBox="0 0 10 4" fill="none" xmlns="http://www.w3.org/2000/svg">
<path d="M8.35484 3.04154C8.24267 3.04154 8.14087 3.02041 8.04945 2.97815C7.95803 2.93513 7.88542 2.87329 7.83165 2.79262C7.77787 2.71118 7.75098 2.61284 7.75098 2.4976C7.75098 2.39619 7.77095 2.31399 7.8109 2.25099C7.85085 2.18722 7.90425 2.13728 7.97109 2.10117C8.03793 2.06507 8.11168 2.03818 8.19235 2.02051C8.27378 2.00207 8.35561 1.98747 8.43781 1.97672C8.54537 1.96289 8.63257 1.95251 8.69941 1.9456C8.76701 1.93792 8.81618 1.92524 8.84691 1.90757C8.87841 1.8899 8.89416 1.85917 8.89416 1.81538V1.80616C8.89416 1.69246 8.86305 1.6041 8.80082 1.54111C8.73936 1.47811 8.64601 1.44661 8.52078 1.44661C8.39095 1.44661 8.28915 1.47504 8.2154 1.53189C8.14164 1.58874 8.08978 1.64943 8.05982 1.71397L7.80168 1.62177C7.84778 1.51422 7.90924 1.43048 7.98607 1.37055C8.06366 1.30986 8.14817 1.2676 8.2396 1.24379C8.33179 1.2192 8.42244 1.20691 8.51156 1.20691C8.56842 1.20691 8.63372 1.21382 8.70747 1.22765C8.78199 1.24071 8.85383 1.26799 8.92297 1.30947C8.99288 1.35096 9.05089 1.41357 9.09698 1.49732C9.14308 1.58106 9.16613 1.69322 9.16613 1.83382V3.00005H8.89416V2.76035H8.88033C8.86189 2.79876 8.83116 2.83987 8.78814 2.88366C8.74512 2.92745 8.68788 2.96471 8.61643 2.99544C8.54498 3.02617 8.45778 3.04154 8.35484 3.04154ZM8.39632 2.79723C8.50388 2.79723 8.59454 2.7761 8.66829 2.73385C8.74281 2.69159 8.7989 2.63704 8.83654 2.5702C8.87496 2.50336 8.89416 2.43307 8.89416 2.35931V2.11039C8.88264 2.12422 8.85728 2.1369 8.8181 2.14842C8.77969 2.15918 8.73513 2.16878 8.68442 2.17723C8.63449 2.18492 8.5857 2.19183 8.53807 2.19798C8.4912 2.20335 8.45317 2.20796 8.42398 2.21181C8.3533 2.22102 8.28723 2.23601 8.22577 2.25675C8.16507 2.27672 8.1159 2.30707 8.07826 2.34779C8.04138 2.38774 8.02294 2.44229 8.02294 2.51143C8.02294 2.60593 8.0579 2.67738 8.12781 2.72578C8.19849 2.77341 8.288 2.79723 8.39632 2.79723Z" fill="black"/>
<path d="M6.41954 2.35467L6.41494 2.01817H6.47025L7.24467 1.22992H7.58117L6.75605 2.06426H6.733L6.41954 2.35467ZM6.16602 3.00002V0.639893H6.43798V3.00002H6.16602ZM7.29076 3.00002L6.59932 2.12419L6.79292 1.9352L7.63648 3.00002H7.29076Z" fill="black"/>
<path d="M4.75158 2.35467L4.74697 2.01817H4.80228L5.5767 1.22992H5.9132L5.08808 2.06426H5.06503L4.75158 2.35467ZM4.49805 3.00002V0.639893H4.77001V3.00002H4.49805ZM5.62279 3.00002L4.93135 2.12419L5.12496 1.9352L5.96851 3.00002H5.62279Z" fill="black"/>
<path d="M3.28794 3.04154C3.17577 3.04154 3.07398 3.02041 2.98255 2.97815C2.89113 2.93513 2.81853 2.87329 2.76475 2.79262C2.71097 2.71118 2.68408 2.61284 2.68408 2.4976C2.68408 2.39619 2.70406 2.31399 2.74401 2.25099C2.78396 2.18722 2.83735 2.13728 2.90419 2.10117C2.97103 2.06507 3.04478 2.03818 3.12545 2.02051C3.20689 2.00207 3.28871 1.98747 3.37091 1.97672C3.47847 1.96289 3.56567 1.95251 3.63251 1.9456C3.70012 1.93792 3.74929 1.92524 3.78002 1.90757C3.81152 1.8899 3.82727 1.85917 3.82727 1.81538V1.80616C3.82727 1.69246 3.79615 1.6041 3.73392 1.54111C3.67246 1.47811 3.57912 1.44661 3.45389 1.44661C3.32405 1.44661 3.22225 1.47504 3.1485 1.53189C3.07475 1.58874 3.02289 1.64943 2.99293 1.71397L2.73479 1.62177C2.78088 1.51422 2.84235 1.43048 2.91917 1.37055C2.99677 1.30986 3.08128 1.2676 3.1727 1.24379C3.26489 1.2192 3.35555 1.20691 3.44467 1.20691C3.50152 1.20691 3.56682 1.21382 3.64058 1.22765C3.7151 1.24071 3.78693 1.26799 3.85608 1.30947C3.92599 1.35096 3.98399 1.41357 4.03009 1.49732C4.07619 1.58106 4.09923 1.69322 4.09923 1.83382V3.00005H3.82727V2.76035H3.81344C3.795 2.79876 3.76427 2.83987 3.72125 2.88366C3.67822 2.92745 3.62099 2.96471 3.54954 2.99544C3.47809 3.02617 3.39089 3.04154 3.28794 3.04154ZM3.32943 2.79723C3.43699 2.79723 3.52764 2.7761 3.6014 2.73385C3.67592 2.69159 3.732 2.63704 3.76965 2.5702C3.80806 2.50336 3.82727 2.43307 3.82727 2.35931V2.11039C3.81574 2.12422 3.79039 2.1369 3.75121 2.14842C3.71279 2.15918 3.66823 2.16878 3.61753 2.17723C3.56759 2.18492 3.51881 2.19183 3.47117 2.19798C3.42431 2.20335 3.38628 2.20796 3.35709 2.21181C3.28641 2.22102 3.22033 2.23601 3.15887 2.25675C3.09818 2.27672 3.04901 2.30707 3.01136 2.34779C2.97449 2.38774 2.95605 2.44229 2.95605 2.51143C2.95605 2.60593 2.99101 2.67738 3.06092 2.72578C3.1316 2.77341 3.2211 2.79723 3.32943 2.79723Z" fill="black"/>
<path d="M0.79459 3.00002V2.79258L2.06684 0.893422H0.780762V0.639893H2.40796V0.847325L1.1357 2.74649H2.42179V3.00002H0.79459Z" fill="black"/>
</svg>
