<svg width="15" height="12" viewBox="0 0 15 12" fill="none" xmlns="http://www.w3.org/2000/svg">
<g clip-path="url(#clip0_3790_7151)">
<path fill-rule="evenodd" clip-rule="evenodd" d="M2.93998 6.77C2.99998 6.96 2.95998 7.14 2.83998 7.31C2.66998 7.55 2.33998 7.73 1.85998 7.88C1.63998 7.94 1.44998 7.99 1.29998 8.01C1.13998 8.03 0.97998 8.04 0.80998 8.04L0.62998 7.44C0.75998 7.45 0.89998 7.46 1.04998 7.45C1.19998 7.45 1.32998 7.42 1.44998 7.39C1.58998 7.35 1.67998 7.3 1.72998 7.23C1.77998 7.16 1.78998 7.1 1.76998 7.04C1.74998 6.96 1.68998 6.92 1.59998 6.91C1.53998 6.91 1.46998 6.91 1.38998 6.94L1.01998 7.05L0.88998 6.62L1.30998 6.5C1.41998 6.47 1.48998 6.42 1.52998 6.36C1.54998 6.32 1.55998 6.28 1.53998 6.23C1.51998 6.17 1.47998 6.13 1.41998 6.11C1.33998 6.09 1.23998 6.09 1.10998 6.13C0.98998 6.16 0.87998 6.21 0.75998 6.27C0.64998 6.33 0.52998 6.41 0.39998 6.53L0.22998 5.94C0.39998 5.83 0.55998 5.75 0.72998 5.67C0.89998 5.6 1.06998 5.54 1.23998 5.49C1.64998 5.37 1.96998 5.36 2.19998 5.46C2.35998 5.53 2.46998 5.65 2.51998 5.81C2.54998 5.92 2.54998 6.03 2.51998 6.13C2.47998 6.25 2.39998 6.34 2.27998 6.41C2.42998 6.39 2.55998 6.41 2.67998 6.48C2.79998 6.55 2.87998 6.65 2.90998 6.78M4.74998 6.32C4.74998 6.45 4.72998 6.54 4.66998 6.61C4.60998 6.68 4.53998 6.71 4.44998 6.72C4.36998 6.72 4.29998 6.71 4.24998 6.67C4.19998 6.63 4.16998 6.58 4.16998 6.51C4.16998 6.41 4.19998 6.33 4.26998 6.29C4.33998 6.24 4.47998 6.21 4.66998 6.2H4.72998V6.33L4.74998 6.32ZM5.82998 7.16L5.74998 5.66C5.72998 5.34 5.57998 5.1 5.29998 4.96C5.06998 4.85 4.76998 4.8 4.40998 4.82C4.22998 4.82 4.03998 4.85 3.84998 4.89C3.65998 4.93 3.47998 4.97 3.30998 5.03L3.33998 5.65C3.51998 5.56 3.70998 5.5 3.88998 5.46C3.98998 5.44 4.06998 5.43 4.14998 5.42C4.28998 5.42 4.40998 5.42 4.50998 5.45C4.63998 5.49 4.70998 5.57 4.70998 5.67V5.74H4.55998C4.26998 5.76 4.04998 5.78 3.90998 5.81C3.65998 5.86 3.46998 5.94 3.32998 6.06C3.16998 6.2 3.08998 6.4 3.10998 6.65C3.11998 6.86 3.19998 7.02 3.33998 7.14C3.48998 7.27 3.69998 7.33 3.96998 7.31C4.12998 7.31 4.26998 7.27 4.38998 7.23C4.54998 7.17 4.67998 7.07 4.76998 6.92H4.78998L4.80998 7.21L5.83998 7.15L5.82998 7.16ZM7.70998 4.14L7.08998 4.27C7.08998 4.94 7.58998 5.3 7.53998 5.88C7.53998 6.21 7.34998 6.51 7.33998 6.84C7.33998 7.12 7.42998 7.3 7.65998 7.47C7.96998 7.69 8.34998 7.86 8.46998 8.23C8.56998 8.54 8.47998 8.83 8.30998 9.12C8.22998 9.26 8.03998 9.42 8.00998 9.59C7.98998 9.7 8.19998 9.85 8.26998 9.92L7.45998 10.61C7.21998 10.36 7.01998 10.15 6.92998 9.81C6.81998 9.4 7.13998 9.02 7.35998 8.68L7.39998 8.6V8.57L7.35998 8.53L7.19998 8.42C7.02998 8.3 6.81998 8.2 6.68998 8.05C6.37998 7.7 6.23998 7.34 6.23998 6.88C6.23998 6.54 6.36998 6.35 6.43998 6.03C6.55998 5.58 5.90998 5.05 5.97998 4.53L5.35998 4.66L5.21998 4L7.55998 3.49L7.69998 4.15L7.70998 4.14ZM9.30998 4.74L8.77998 4.99L8.75998 4.95C8.68998 4.8 8.66998 4.67 8.70998 4.58C8.73998 4.52 8.77998 4.48 8.83998 4.45C8.90998 4.42 8.97998 4.41 9.04998 4.45C9.13998 4.49 9.21998 4.58 9.27998 4.71L9.29998 4.75L9.30998 4.74ZM10.41 4.74L10.32 4.56C10.11 4.13 9.82998 3.87 9.45998 3.8C9.17998 3.75 8.87998 3.8 8.55998 3.95C8.18998 4.12 7.93998 4.36 7.80998 4.67C7.67998 4.97 7.68998 5.29 7.83998 5.62C7.97998 5.92 8.17998 6.13 8.43998 6.25C8.78998 6.41 9.20998 6.38 9.70998 6.14C9.85998 6.07 10.01 5.98 10.17 5.88C10.33 5.78 10.48 5.67 10.61 5.56L10.35 5.01C10.22 5.14 10.11 5.24 10.01 5.31C9.90998 5.38 9.79998 5.45 9.66998 5.51C9.47998 5.6 9.31998 5.63 9.18998 5.6C9.09998 5.57 9.02998 5.52 8.98998 5.42L10.41 4.74ZM12.12 4.25L12.05 3.72H11.96C11.85 3.75 11.78 3.79 11.74 3.86C11.71 3.91 11.7 3.97 11.71 4.05C11.71 4.11 11.74 4.16 11.78 4.2C11.84 4.26 11.93 4.28 12.04 4.26H12.13L12.12 4.25ZM13.39 5.34L12.27 5.49L12.16 4.71L12.04 4.73L11.87 5.54L10.71 5.7L11.06 4.71C10.92 4.69 10.81 4.63 10.72 4.54C10.63 4.45 10.57 4.33 10.55 4.18C10.52 3.97 10.55 3.78 10.65 3.64C10.79 3.42 11.06 3.28 11.46 3.22L13.08 3L13.4 5.34H13.39Z" fill="black"/>
<path fill-rule="evenodd" clip-rule="evenodd" d="M0.640137 2.90002C1.97014 1.84002 3.72014 0.880023 5.64014 0.460023C7.56014 0.0400229 9.63014 0.170023 11.2001 0.610023C11.1001 1.00002 11.0101 1.40002 10.9101 1.79002C10.8101 2.18002 10.7201 2.58002 10.6201 2.97002C9.27014 2.66002 7.72014 2.46002 6.14014 2.80002C4.57014 3.14002 3.24014 3.97002 2.14014 4.81002C1.89014 4.49002 1.64014 4.17002 1.39014 3.86002C1.14014 3.54002 0.890137 3.22002 0.640137 2.91002" fill="black"/>
<path fill-rule="evenodd" clip-rule="evenodd" d="M9.91018 1.44002C9.92018 1.36002 9.94018 1.28002 9.95018 1.20002C9.90018 1.19002 9.84018 1.17002 9.79018 1.16002H9.75018L9.71018 1.15002H9.67018H9.63018L9.60018 1.17002L9.57018 1.20002L9.55018 1.23002V1.27002L9.54018 1.31002V1.35002V1.37002V1.39002L9.56018 1.41002V1.43002L9.58018 1.44002L9.61018 1.46002L9.65018 1.48002C9.65018 1.48002 9.71018 1.50002 9.74018 1.51002C9.79018 1.51002 9.84018 1.52002 9.89018 1.52002V1.45002L9.91018 1.44002ZM9.84018 1.83002L9.88018 1.61002C9.88018 1.61002 9.80018 1.61002 9.76018 1.60002C9.73018 1.60002 9.70018 1.59002 9.67018 1.58002L9.60018 1.65002L9.56018 1.71002L9.52018 1.77002C9.52018 1.77002 9.49018 1.82002 9.48018 1.85002C9.45018 1.92002 9.43018 1.99002 9.41018 2.07002C9.33018 2.06002 9.26018 2.04002 9.18018 2.03002C9.19018 1.96002 9.21018 1.89002 9.24018 1.82002C9.26018 1.79002 9.27018 1.75002 9.29018 1.72002C9.32018 1.68002 9.35018 1.64002 9.38018 1.60002C9.41018 1.57002 9.43018 1.54002 9.46018 1.52002C9.43018 1.49002 9.40018 1.47002 9.37018 1.44002C9.36018 1.42002 9.34018 1.41002 9.33018 1.39002C9.32018 1.37002 9.31018 1.36002 9.30018 1.34002C9.30018 1.32002 9.29018 1.31002 9.28018 1.29002C9.28018 1.27002 9.28018 1.26002 9.28018 1.24002V1.19002L9.29018 1.16002V1.13002L9.32018 1.11002L9.34018 1.09002L9.36018 1.07002L9.38018 1.05002H9.41018L9.44018 1.03002H9.47018L9.51018 1.02002H9.55018H9.60018H9.65018L9.71018 1.03002C9.76018 1.04002 9.81018 1.05002 9.86018 1.07002C9.98018 1.10002 10.0902 1.13002 10.2102 1.17002C10.1902 1.25002 10.1802 1.33002 10.1602 1.41002C10.1102 1.68002 10.0502 1.94002 10.0002 2.21002C9.93018 2.19002 9.86018 2.18002 9.78018 2.16002C9.80018 2.05002 9.82018 1.95002 9.83018 1.84002L9.84018 1.83002Z" fill="white"/>
<path fill-rule="evenodd" clip-rule="evenodd" d="M8.66002 1.61005C8.66002 1.50005 8.67002 1.40005 8.68002 1.29005C8.60002 1.31005 8.51002 1.33005 8.43002 1.37005L8.39002 1.39005L8.37002 1.41005L8.35002 1.43005L8.33002 1.45005L8.31002 1.47005V1.49005L8.29002 1.51005C8.29002 1.52005 8.29002 1.54005 8.29002 1.55005C8.29002 1.56005 8.29002 1.58005 8.29002 1.59005C8.29002 1.63005 8.29002 1.68005 8.29002 1.72005V1.75005L8.31002 1.78005L8.32002 1.81005H8.34002L8.36002 1.83005H8.40002C8.40002 1.83005 8.44002 1.85005 8.47002 1.85005H8.54002H8.58002H8.60002L8.62002 1.83005H8.64002L8.65002 1.81005L8.66002 1.77005V1.72005L8.68002 1.62005L8.66002 1.61005ZM8.12002 1.93005H8.10002L8.08002 1.90005L8.06002 1.88005V1.86005L8.04002 1.84005V1.82005L8.02002 1.80005V1.77005V1.74005C8.02002 1.69005 8.02002 1.64005 8.02002 1.59005V1.50005C8.02002 1.50005 8.02002 1.45005 8.03002 1.43005C8.03002 1.41005 8.04002 1.40005 8.05002 1.38005L8.07002 1.36005C8.07002 1.36005 8.13002 1.32005 8.16002 1.30005C8.19002 1.29005 8.22002 1.28005 8.25002 1.26005C8.31002 1.24005 8.37002 1.23005 8.43002 1.22005C8.52002 1.20005 8.60002 1.19005 8.69002 1.18005C8.69002 1.15005 8.69002 1.12005 8.69002 1.09005V1.05005L8.68002 1.02005L8.66002 0.990049H8.65002L8.64002 0.970049H8.62002L8.59002 0.940049H8.55002C8.55002 0.940049 8.50002 0.920049 8.48002 0.920049H8.45002H8.42002H8.40002L8.38002 0.930049H8.36002L8.34002 0.960049L8.32002 0.980049V1.00005C8.32002 1.00005 8.30002 1.05005 8.30002 1.07005H8.06002C8.06002 1.07005 8.06002 1.01005 8.06002 0.990049V0.960049L8.07002 0.930049V0.910049L8.10002 0.890049L8.12002 0.870049L8.14002 0.850049L8.18002 0.830049C8.18002 0.830049 8.22002 0.820049 8.25002 0.810049C8.28002 0.810049 8.31002 0.810049 8.33002 0.800049H8.38002C8.46002 0.800049 8.54002 0.800049 8.62002 0.820049C8.65002 0.820049 8.68002 0.830049 8.70002 0.840049C8.74002 0.850049 8.77002 0.860049 8.81002 0.880049C8.83002 0.890049 8.85002 0.900049 8.87002 0.920049C8.88002 0.920049 8.89002 0.940049 8.91002 0.950049C8.92002 0.960049 8.93002 0.970049 8.94002 0.990049C8.94002 1.00005 8.95002 1.02005 8.96002 1.03005V1.08005C8.96002 1.08005 8.98002 1.12005 8.98002 1.14005C8.98002 1.18005 8.98002 1.22005 8.98002 1.26005C8.98002 1.35005 8.96002 1.44005 8.95002 1.53005C8.94002 1.69005 8.92002 1.84005 8.91002 2.00005C8.84002 2.00005 8.76002 1.98005 8.69002 1.98005C8.69002 1.92005 8.69002 1.87005 8.69002 1.81005C8.64002 1.84005 8.59002 1.88005 8.54002 1.90005C8.51002 1.92005 8.48002 1.93005 8.44002 1.95005C8.42002 1.95005 8.41002 1.96005 8.39002 1.97005C8.36002 1.97005 8.34002 1.97005 8.32002 1.97005H8.28002H8.25002H8.22002L8.19002 1.96005H8.16002L8.14002 1.94005L8.12002 1.93005Z" fill="white"/>
<path fill-rule="evenodd" clip-rule="evenodd" d="M7.3402 1.10003C7.3402 1.02003 7.3302 0.940029 7.3202 0.870029C7.2602 0.920029 7.2002 0.970029 7.1502 1.03003C7.1302 1.05003 7.1202 1.07003 7.1002 1.09003L7.0702 1.13003L7.0502 1.18003C7.0502 1.18003 7.0302 1.23003 7.0202 1.26003C7.0202 1.28003 7.0202 1.30003 7.0102 1.32003C6.9902 1.43003 6.9902 1.55003 6.9902 1.66003C6.9902 1.74003 7.0002 1.83003 7.0102 1.91003C7.0102 1.94003 7.0102 1.96003 7.0102 1.99003C6.9202 1.99003 6.8302 2.01003 6.7402 2.02003C6.7302 1.94003 6.7202 1.85003 6.7102 1.77003C6.7002 1.62003 6.6902 1.46003 6.7202 1.31003C6.7202 1.27003 6.7402 1.24003 6.7502 1.20003C6.7702 1.16003 6.7902 1.12003 6.8102 1.08003C6.8302 1.05003 6.8502 1.03003 6.8702 1.00003L6.9602 0.910029L7.1202 0.800029L7.6202 0.780029L7.6602 1.93003C7.5702 1.93003 7.4802 1.93003 7.4002 1.94003C7.3902 1.73003 7.3702 1.52003 7.3602 1.31003C7.3602 1.23003 7.3502 1.16003 7.3402 1.08003" fill="white"/>
<path fill-rule="evenodd" clip-rule="evenodd" d="M5.99 1.30001C5.99 1.30001 5.98 1.25001 5.97 1.23001C5.97 1.21001 5.96 1.20001 5.95 1.18001L5.94 1.15001H5.93L5.91 1.13001H5.89L5.87 1.12001H5.85H5.8H5.75L5.7 1.14001L5.66 1.16001H5.64L5.62 1.19001L5.6 1.21001V1.23001L5.58 1.25001V1.27001V1.30001C5.58 1.32001 5.58 1.34001 5.58 1.36001V1.39001L5.62 1.53001L5.97 1.46001H6.04L6.02 1.33001L5.99 1.30001ZM6.02 2.17001L5.88 2.20001L5.73 2.22001C5.73 2.22001 5.68 2.22001 5.66 2.22001C5.63 2.22001 5.61 2.22001 5.58 2.21001C5.56 2.21001 5.55 2.21001 5.54 2.19001L5.5 2.16001L5.47 2.12001C5.47 2.12001 5.45 2.09001 5.44 2.07001C5.43 2.05001 5.42 2.03001 5.41 2.01001C5.41 1.99001 5.39 1.96001 5.39 1.94001C5.35 1.80001 5.32 1.66001 5.28 1.52001C5.28 1.49001 5.26 1.46001 5.26 1.43001C5.26 1.40001 5.25 1.37001 5.25 1.34001C5.25 1.32001 5.25 1.30001 5.25 1.28001C5.25 1.26001 5.25 1.25001 5.26 1.23001C5.26 1.21001 5.27 1.20001 5.28 1.19001C5.28 1.18001 5.3 1.16001 5.31 1.15001C5.32 1.14001 5.34 1.13001 5.36 1.11001C5.38 1.10001 5.4 1.09001 5.42 1.07001C5.45 1.06001 5.47 1.05001 5.5 1.04001L5.6 1.01001L5.79 0.970015H5.89L5.98 0.950015H6.06L6.12 0.970015L6.17 0.990015L6.21 1.02001C6.21 1.02001 6.23 1.04001 6.24 1.06001C6.25 1.08001 6.26 1.09001 6.27 1.11001C6.27 1.13001 6.29 1.15001 6.29 1.17001C6.3 1.22001 6.31 1.28001 6.32 1.33001C6.32 1.38001 6.34 1.43001 6.34 1.48001C6.13 1.52001 5.92 1.56001 5.7 1.60001L5.63 1.62001C5.65 1.72001 5.68 1.82001 5.7 1.92001V1.96001C5.7 1.96001 5.72 1.99001 5.73 2.01001H5.74L5.75 2.04001H5.77L5.79 2.06001H5.81L5.83 2.07001H5.87H5.92C5.94 2.07001 5.97 2.07001 5.99 2.05001L6.03 2.03001H6.05L6.07 2.01001H6.08L6.09 1.98001V1.96001L6.11 1.93001V1.89001V1.85001C6.11 1.82001 6.1 1.79001 6.09 1.76001C6.18 1.74001 6.28 1.73001 6.38 1.71001C6.38 1.74001 6.38 1.76001 6.39 1.79001C6.39 1.81001 6.39 1.84001 6.39 1.86001C6.39 1.88001 6.39 1.90001 6.39 1.92001C6.39 1.94001 6.39 1.95001 6.38 1.97001C6.38 1.98001 6.37 2.00001 6.36 2.01001L6.33 2.04001L6.29 2.07001L6.21 2.11001L6.13 2.14001C6.13 2.14001 6.07 2.16001 6.04 2.17001H6.02ZM5.49 0.780015C5.49 0.780015 5.49 0.810015 5.5 0.830015L5.34 0.870015C5.34 0.870015 5.32 0.800015 5.32 0.770015L5.48 0.730015V0.780015H5.49ZM5.9 0.760015C5.9 0.760015 5.86 0.760015 5.83 0.770015C5.83 0.740015 5.82 0.700015 5.81 0.670015C5.87 0.660015 5.92 0.650015 5.98 0.640015V0.670015L6 0.750015C5.97 0.750015 5.93 0.760015 5.9 0.770015V0.760015Z" fill="white"/>
<path fill-rule="evenodd" clip-rule="evenodd" d="M4.66994 2.54006C4.66994 2.54006 4.60994 2.56006 4.57994 2.56006C4.53994 2.56006 4.49994 2.58006 4.45994 2.58006C4.43994 2.58006 4.41994 2.58006 4.39994 2.58006C4.37994 2.58006 4.36994 2.58006 4.34994 2.58006C4.33994 2.58006 4.31994 2.57006 4.30994 2.56006C4.29994 2.56006 4.27994 2.54006 4.26994 2.53006C4.25994 2.52006 4.24994 2.50006 4.22994 2.49006C4.20994 2.47006 4.19994 2.44006 4.17994 2.42006C4.16994 2.40006 4.15994 2.37006 4.14994 2.35006C4.08994 2.19006 4.02994 2.04006 3.96994 1.88006C3.96994 1.86006 3.94994 1.83006 3.94994 1.81006V1.75006L3.93994 1.69006V1.64006L3.96994 1.60006C3.96994 1.59006 3.98994 1.57006 3.99994 1.56006C4.00994 1.54006 4.02994 1.53006 4.03994 1.52006C4.05994 1.50006 4.07994 1.49006 4.09994 1.48006C4.12994 1.46006 4.14994 1.45006 4.17994 1.44006C4.21994 1.42006 4.25994 1.40006 4.30994 1.39006C4.34994 1.38006 4.38994 1.36006 4.43994 1.35006L4.51994 1.33006H4.58994L4.64994 1.31006H4.70994H4.75994H4.79994C4.79994 1.31006 4.82994 1.34006 4.83994 1.35006C4.87994 1.39006 4.90994 1.45006 4.92994 1.50006C4.94994 1.54006 4.95994 1.59006 4.97994 1.64006C4.87994 1.67006 4.77994 1.70006 4.68994 1.73006C4.67994 1.69006 4.65994 1.65006 4.64994 1.61006C4.64994 1.59006 4.62994 1.57006 4.61994 1.54006L4.59994 1.51006H4.58994L4.57994 1.49006H4.55994L4.53994 1.48006H4.51994H4.49994H4.44994L4.39994 1.50006L4.34994 1.52006L4.30994 1.54006H4.28994L4.26994 1.57006V1.59006L4.24994 1.61006V1.63006V1.65006V1.68006C4.24994 1.68006 4.24994 1.72006 4.24994 1.73006C4.24994 1.75006 4.25994 1.77006 4.26994 1.78006L4.43994 2.25006L4.46994 2.32006C4.46994 2.32006 4.48994 2.36006 4.50994 2.38006L4.52994 2.40006H4.53994L4.55994 2.42006H4.57994H4.59994H4.63994L4.67994 2.41006L4.72994 2.39006C4.72994 2.39006 4.76994 2.37006 4.78994 2.36006H4.80994L4.82994 2.33006V2.31006L4.84994 2.29006V2.27006V2.24006C4.84994 2.22006 4.84994 2.21006 4.84994 2.19006C4.83994 2.14006 4.81994 2.09006 4.79994 2.04006C4.88994 2.01006 4.98994 1.98006 5.07994 1.95006C5.07994 1.97006 5.08994 1.99006 5.09994 2.01006C5.10994 2.05006 5.11994 2.10006 5.12994 2.14006C5.12994 2.16006 5.12994 2.18006 5.12994 2.20006C5.12994 2.22006 5.12994 2.23006 5.12994 2.25006L5.10994 2.29006L5.08994 2.33006L5.04994 2.37006L4.97994 2.42006L4.92994 2.44006L4.68994 2.53006L4.66994 2.54006Z" fill="white"/>
<path fill-rule="evenodd" clip-rule="evenodd" d="M3.44977 2.24005C3.44977 2.24005 3.40977 2.15005 3.38977 2.10005C3.37977 2.08005 3.36977 2.06005 3.34977 2.04005L3.32977 2.02005H3.31977L3.29977 2.00005H3.27977L3.25977 1.99005H3.21977L3.17977 2.01005L3.12977 2.03005L3.08977 2.06005L3.04977 2.09005V2.11005L3.01977 2.13005V2.15005L2.99977 2.17005V2.19005V2.22005C2.99977 2.24005 2.99977 2.25005 3.00977 2.27005C3.01977 2.31005 3.03977 2.34005 3.05977 2.37005L3.09977 2.44005C3.18977 2.39005 3.27977 2.34005 3.36977 2.30005C3.39977 2.28005 3.42977 2.27005 3.46977 2.25005M3.41977 3.10005C3.41977 3.10005 3.37977 3.11005 3.35977 3.12005C3.33977 3.12005 3.30977 3.12005 3.28977 3.12005C3.27977 3.12005 3.25977 3.12005 3.24977 3.12005C3.23977 3.12005 3.21977 3.12005 3.20977 3.10005C3.19977 3.10005 3.17977 3.08005 3.16977 3.07005C3.15977 3.06005 3.13977 3.05005 3.12977 3.03005C3.11977 3.01005 3.09977 3.00005 3.08977 2.98005C3.05977 2.93005 3.02977 2.87005 2.99977 2.82005C2.94977 2.73005 2.90977 2.65005 2.85977 2.56005L2.77977 2.41005L2.75977 2.35005V2.29005V2.24005V2.19005L2.78977 2.15005L2.81977 2.10005L2.86977 2.05005L2.93977 2.00005L2.98977 1.96005C3.04977 1.92005 3.10977 1.89005 3.17977 1.86005C3.21977 1.84005 3.24977 1.83005 3.28977 1.82005C3.30977 1.82005 3.33977 1.81005 3.35977 1.80005C3.37977 1.80005 3.39977 1.80005 3.41977 1.80005C3.43977 1.80005 3.44977 1.80005 3.46977 1.80005C3.47977 1.80005 3.49977 1.80005 3.50977 1.81005C3.51977 1.81005 3.53977 1.83005 3.54977 1.84005C3.55977 1.85005 3.57977 1.86005 3.58977 1.88005C3.59977 1.90005 3.61977 1.91005 3.62977 1.93005C3.63977 1.95005 3.64977 1.97005 3.65977 1.99005C3.69977 2.07005 3.72977 2.16005 3.75977 2.24005C3.63977 2.30005 3.51977 2.36005 3.39977 2.42005C3.31977 2.46005 3.22977 2.51005 3.14977 2.55005C3.18977 2.64005 3.23977 2.73005 3.27977 2.82005L3.29977 2.85005C3.29977 2.85005 3.31977 2.88005 3.32977 2.89005H3.33977L3.34977 2.91005H3.36977L3.38977 2.92005H3.40977H3.42977H3.46977L3.50977 2.89005C3.52977 2.88005 3.54977 2.87005 3.56977 2.86005L3.59977 2.83005H3.60977L3.61977 2.80005V2.78005L3.63977 2.76005V2.74005V2.71005V2.68005L3.57977 2.56005L3.82977 2.44005L3.86977 2.54005L3.88977 2.62005V2.67005V2.72005C3.88977 2.73005 3.88977 2.75005 3.86977 2.76005C3.86977 2.77005 3.84977 2.79005 3.83977 2.80005C3.82977 2.81005 3.81977 2.83005 3.79977 2.84005C3.77977 2.86005 3.74977 2.88005 3.72977 2.90005L3.67977 2.93005C3.60977 2.97005 3.52977 3.01005 3.45977 3.05005C3.43977 3.05005 3.40977 3.07005 3.38977 3.08005L3.41977 3.10005Z" fill="white"/>
<path fill-rule="evenodd" clip-rule="evenodd" d="M2.5599 3.14995L2.5299 3.10995L2.4899 3.07995L2.4499 3.05995H2.4099H2.3699L2.3299 3.07995L2.2899 3.09995C2.2899 3.09995 2.2099 3.15995 2.1599 3.19995C2.2399 3.32995 2.3199 3.44995 2.3999 3.57995C2.4399 3.54995 2.4899 3.50995 2.5299 3.47995L2.5699 3.44995C2.5699 3.44995 2.5999 3.41995 2.6099 3.39995V3.37995L2.6299 3.35995V3.33995V3.31995V3.29995V3.27995V3.23995L2.5899 3.19995L2.5599 3.15995V3.14995ZM2.2499 2.68995L2.2199 2.66995H2.1899H2.1599H2.1299L2.0999 2.68995L2.0499 2.71995C2.0499 2.71995 1.9599 2.78995 1.9199 2.81995C1.9799 2.91995 2.0399 3.00995 2.0999 3.10995C2.1499 3.06995 2.1999 3.03995 2.2399 2.99995L2.2699 2.96995L2.2999 2.93995L2.3199 2.89995V2.85995L2.3299 2.81995V2.77995L2.2999 2.73995L2.2799 2.70995L2.2599 2.68995H2.2499ZM2.8499 3.19995C2.8499 3.19995 2.8499 3.22995 2.8499 3.24995C2.8499 3.27995 2.8499 3.29995 2.8499 3.31995C2.8499 3.32995 2.8499 3.34995 2.8299 3.35995C2.8199 3.38995 2.7999 3.40995 2.7799 3.42995L2.7499 3.45995C2.7499 3.45995 2.6599 3.53995 2.6099 3.56995C2.4999 3.64995 2.3899 3.72995 2.2799 3.81995C2.1399 3.60995 1.9999 3.39995 1.8599 3.18995C1.7899 3.07995 1.7199 2.97995 1.6499 2.86995C1.7799 2.76995 1.8999 2.65995 2.0299 2.56995C2.0999 2.51995 2.1699 2.46995 2.2499 2.44995C2.2699 2.44995 2.2799 2.44995 2.2999 2.44995H2.3199H2.3399H2.3599L2.3799 2.46995L2.3999 2.48995L2.4199 2.50995L2.4399 2.53995L2.4699 2.58995L2.4899 2.63995V2.68995V2.73995V2.78995L2.4099 2.91995H2.5299H2.5799H2.6199L2.6599 2.93995L2.6899 2.95995L2.7299 2.99995L2.7599 3.03995L2.8199 3.13995C2.8199 3.13995 2.8399 3.18995 2.8399 3.20995L2.8499 3.19995Z" fill="white"/>
<path fill-rule="evenodd" clip-rule="evenodd" d="M1.83014 5.51004C1.83014 5.51004 1.86014 5.51004 1.88014 5.51004C1.93014 5.51004 1.98014 5.51004 2.03014 5.51004C2.06014 5.51004 2.09014 5.51004 2.12014 5.53004C2.15014 5.53004 2.19014 5.55004 2.22014 5.56004C2.25014 5.57004 2.27014 5.58004 2.29014 5.60004C2.31014 5.61004 2.33014 5.63004 2.35014 5.64004C2.37014 5.66004 2.38014 5.67004 2.40014 5.69004C2.41014 5.71004 2.43014 5.73004 2.44014 5.75004L2.46014 5.79004C2.46014 5.79004 2.48014 5.84004 2.49014 5.87004C2.49014 5.89004 2.49014 5.90004 2.49014 5.92004C2.49014 5.96004 2.49014 6.00004 2.49014 6.03004C2.49014 6.05004 2.49014 6.07004 2.48014 6.09004C2.48014 6.12004 2.46014 6.14004 2.44014 6.17004C2.43014 6.19004 2.41014 6.21004 2.40014 6.23004C2.39014 6.24004 2.37014 6.26004 2.36014 6.27004C2.34014 6.28004 2.33014 6.29004 2.31014 6.31004L1.90014 6.56004L1.60014 6.59004L2.22014 6.21004C2.22014 6.21004 2.25014 6.19004 2.26014 6.18004C2.28014 6.17004 2.29014 6.15004 2.31014 6.13004C2.32014 6.11004 2.33014 6.10004 2.34014 6.08004C2.34014 6.06004 2.36014 6.04004 2.36014 6.02004C2.36014 6.00004 2.37014 5.98004 2.37014 5.95004C2.37014 5.91004 2.37014 5.87004 2.37014 5.83004V5.80004C2.37014 5.80004 2.35014 5.75004 2.33014 5.72004C2.33014 5.70004 2.31014 5.68004 2.30014 5.67004C2.29014 5.65004 2.27014 5.64004 2.26014 5.62004C2.24014 5.61004 2.23014 5.59004 2.21014 5.58004C2.18014 5.56004 2.14014 5.54004 2.11014 5.53004H2.07014C2.07014 5.53004 1.99014 5.50004 1.95014 5.49004C1.92014 5.49004 1.89014 5.49004 1.86014 5.49004C1.85014 5.49004 1.83014 5.49004 1.82014 5.49004M1.68014 6.20004L1.67014 6.16004L1.65014 6.13004L1.63014 6.10004L1.61014 6.07004L1.58014 6.05004L1.55014 6.03004L1.52014 6.01004L1.47014 5.99004C1.47014 5.99004 1.43014 5.99004 1.41014 5.98004C1.39014 5.98004 1.37014 5.98004 1.34014 5.98004C1.30014 5.98004 1.26014 5.98004 1.22014 5.99004C1.07014 6.02004 0.930137 6.08004 0.800137 6.14004C0.760137 6.16004 0.720137 6.18004 0.680137 6.20004L0.630137 6.23004C0.630137 6.23004 0.540137 6.29004 0.490137 6.33004L0.390137 5.97004L0.460137 6.19004C0.530137 6.14004 0.610137 6.09004 0.690137 6.05004C0.830137 5.98004 0.970137 5.93004 1.12014 5.89004C1.15014 5.89004 1.19014 5.88004 1.22014 5.87004C1.25014 5.87004 1.27014 5.87004 1.30014 5.87004C1.32014 5.87004 1.35014 5.87004 1.37014 5.87004C1.39014 5.87004 1.42014 5.87004 1.44014 5.89004H1.48014L1.52014 5.92004L1.55014 5.94004L1.58014 5.97004L1.61014 6.00004L1.63014 6.03004L1.65014 6.07004V6.11004L1.67014 6.14004V6.17004L1.68014 6.20004ZM1.90014 7.02004V6.99004L1.89014 6.95004L1.87014 6.90004L1.85014 6.85004L1.82014 6.81004L1.78014 6.77004L1.74014 6.74004L1.69014 6.72004H1.64014L1.59014 6.70004H1.55014H1.48014H1.41014C1.41014 6.70004 1.34014 6.72004 1.31014 6.73004L1.09014 6.79004L1.05014 6.67004L1.12014 6.90004L1.42014 6.81004C1.42014 6.81004 1.48014 6.80004 1.52014 6.79004H1.58014H1.64014H1.68014L1.72014 6.81004L1.76014 6.83004L1.80014 6.85004L1.83014 6.88004L1.86014 6.92004L1.88014 6.96004V7.00004H1.90014V7.02004ZM2.66014 7.38004L2.59014 7.43004C2.59014 7.43004 2.51014 7.49004 2.46014 7.52004C2.41014 7.55004 2.36014 7.58004 2.31014 7.60004C2.26014 7.62004 2.22014 7.64004 2.17014 7.66004C2.09014 7.69004 2.01014 7.72004 1.93014 7.75004C1.74014 7.81004 1.55014 7.86004 1.36014 7.89004C1.26014 7.90004 1.17014 7.91004 1.07014 7.92004C1.01014 7.92004 0.960137 7.92004 0.900137 7.92004L0.790137 7.54004C0.860137 7.54004 0.930137 7.54004 1.01014 7.54004C0.940137 7.54004 0.870137 7.54004 0.800137 7.54004L0.880137 7.81004C1.02014 7.81004 1.15014 7.79004 1.29014 7.77004C1.48014 7.74004 1.67014 7.69004 1.86014 7.63004C1.94014 7.60004 2.02014 7.58004 2.09014 7.55004C2.15014 7.53004 2.20014 7.50004 2.26014 7.47004C2.31014 7.44004 2.36014 7.42004 2.40014 7.39004C2.43014 7.37004 2.46014 7.35004 2.50014 7.32004C2.53014 7.30004 2.55014 7.28004 2.58014 7.25004C2.60014 7.23004 2.63014 7.20004 2.65014 7.18004C2.67014 7.16004 2.68014 7.14004 2.70014 7.12004L2.73014 7.07004L2.75014 7.02004L2.77014 6.97004V6.92004L2.78014 6.87004V6.82004C2.78014 6.82004 2.77014 6.77004 2.76014 6.74004V6.71004C2.76014 6.71004 2.72014 6.66004 2.71014 6.64004C2.71014 6.63004 2.69014 6.61004 2.68014 6.60004C2.66014 6.58004 2.65014 6.57004 2.63014 6.56004C2.60014 6.54004 2.58014 6.53004 2.55014 6.52004C2.53014 6.52004 2.52014 6.51004 2.50014 6.50004C2.47014 6.50004 2.44014 6.49004 2.41014 6.48004C2.41014 6.48004 2.40014 6.48004 2.39014 6.48004H2.40014C2.40014 6.48004 2.45014 6.48004 2.47014 6.48004C2.51014 6.48004 2.54014 6.48004 2.58014 6.50004C2.60014 6.50004 2.62014 6.51004 2.64014 6.52004C2.67014 6.53004 2.70014 6.55004 2.73014 6.57004C2.75014 6.58004 2.76014 6.59004 2.77014 6.61004C2.79014 6.63004 2.80014 6.65004 2.82014 6.67004C2.83014 6.69004 2.85014 6.71004 2.86014 6.74004V6.78004C2.86014 6.78004 2.89014 6.83004 2.90014 6.86004V6.92004V6.98004V7.03004L2.88014 7.08004L2.86014 7.13004L2.83014 7.19004C2.83014 7.19004 2.80014 7.24004 2.78014 7.27004C2.76014 7.29004 2.75014 7.31004 2.73014 7.33004C2.71014 7.35004 2.69014 7.37004 2.67014 7.39004L2.66014 7.38004ZM4.89014 6.08004V5.97004C4.76014 5.97004 4.64014 5.98004 4.53014 5.99004C4.49014 5.99004 4.45014 6.00004 4.40014 6.01004C4.37014 6.01004 4.34014 6.02004 4.32014 6.03004L4.27014 6.05004C4.27014 6.05004 4.22014 6.07004 4.20014 6.09004L4.16014 6.12004L4.12014 6.16004L4.09014 6.20004L4.06014 6.25004L4.04014 6.30004V6.35004L4.02014 6.40004V6.45004V6.49004V6.53004L4.04014 6.57004L4.06014 6.61004L4.08014 6.64004L4.10014 6.67004L4.13014 6.70004L4.16014 6.73004L4.19014 6.75004L4.23014 6.77004L4.27014 6.79004H4.31014L4.35014 6.81004H4.39014H4.43014H4.48014H4.45014H4.41014L4.38014 6.80004H4.35014L4.32014 6.78004L4.29014 6.76004L4.26014 6.74004L4.23014 6.72004L4.21014 6.70004L4.19014 6.67004L4.17014 6.64004V6.61004L4.15014 6.58004V6.55004L4.14014 6.52004V6.47004V6.42004V6.38004L4.17014 6.34004L4.19014 6.30004L4.22014 6.26004L4.25014 6.23004L4.29014 6.20004H4.31014C4.31014 6.20004 4.35014 6.17004 4.38014 6.16004C4.41014 6.15004 4.45014 6.14004 4.48014 6.13004C4.54014 6.12004 4.61014 6.11004 4.67014 6.10004C4.75014 6.10004 4.82014 6.10004 4.90014 6.09004L4.89014 6.08004ZM4.52014 4.92004C4.52014 4.92004 4.57014 4.92004 4.60014 4.92004C4.68014 4.92004 4.75014 4.92004 4.82014 4.93004C4.88014 4.93004 4.94014 4.95004 4.99014 4.96004C5.03014 4.97004 5.08014 4.98004 5.12014 5.00004L5.16014 5.02004C5.16014 5.02004 5.26014 5.07004 5.30014 5.09004C5.32014 5.10004 5.34014 5.12004 5.35014 5.13004C5.38014 5.15004 5.40014 5.18004 5.43014 5.20004C5.44014 5.22004 5.46014 5.23004 5.47014 5.25004C5.49014 5.28004 5.51014 5.31004 5.52014 5.34004C5.53014 5.37004 5.54014 5.39004 5.55014 5.42004C5.55014 5.45004 5.57014 5.48004 5.57014 5.51004C5.57014 5.54004 5.57014 5.58004 5.58014 5.61004L5.65014 6.95004L4.93014 6.99004V7.10004L5.76014 7.05004L5.68014 5.63004C5.68014 5.63004 5.68014 5.56004 5.67014 5.53004C5.67014 5.49004 5.65014 5.45004 5.64014 5.41004C5.64014 5.39004 5.62014 5.37004 5.61014 5.35004C5.59014 5.32004 5.57014 5.29004 5.55014 5.26004C5.54014 5.24004 5.52014 5.23004 5.51014 5.21004C5.48014 5.18004 5.45014 5.16004 5.42014 5.13004C5.40014 5.12004 5.38014 5.10004 5.36014 5.09004C5.32014 5.07004 5.28014 5.04004 5.23014 5.02004C5.20014 5.01004 5.17014 5.00004 5.14014 4.99004C5.09014 4.97004 5.03014 4.96004 4.97014 4.95004C4.88014 4.93004 4.79014 4.92004 4.69014 4.92004C4.66014 4.92004 4.63014 4.92004 4.60014 4.92004C4.56014 4.92004 4.53014 4.92004 4.49014 4.92004H4.52014ZM4.87014 5.59004V5.55004V5.52004L4.85014 5.50004L4.83014 5.48004L4.81014 5.46004L4.79014 5.44004L4.77014 5.42004L4.72014 5.39004L4.67014 5.36004C4.67014 5.36004 4.62014 5.34004 4.59014 5.33004C4.57014 5.33004 4.55014 5.32004 4.52014 5.31004C4.46014 5.30004 4.41014 5.29004 4.35014 5.29004C4.28014 5.29004 4.20014 5.29004 4.13014 5.29004C4.08014 5.29004 4.03014 5.30004 3.97014 5.31004C3.81014 5.34004 3.65014 5.39004 3.50014 5.46004V5.33004C3.64014 5.27004 3.80014 5.23004 3.96014 5.20004C4.00014 5.20004 4.03014 5.19004 4.07014 5.18004C4.15014 5.18004 4.22014 5.17004 4.30014 5.18004C4.35014 5.18004 4.40014 5.18004 4.46014 5.19004C4.49014 5.19004 4.52014 5.20004 4.56014 5.21004C4.59014 5.21004 4.62014 5.23004 4.64014 5.24004L4.70014 5.27004L4.73014 5.29004L4.76014 5.31004L4.78014 5.33004L4.80014 5.35004L4.82014 5.37004L4.84014 5.40004L4.86014 5.43004V5.46004L4.88014 5.49004V5.52004L4.89014 5.55004L4.87014 5.59004ZM4.66014 6.99004C4.66014 6.99004 4.62014 7.03004 4.60014 7.04004C4.58014 7.06004 4.56014 7.07004 4.54014 7.09004C4.52014 7.10004 4.49014 7.12004 4.47014 7.13004C4.45014 7.14004 4.42014 7.15004 4.40014 7.16004C4.35014 7.18004 4.30014 7.19004 4.25014 7.20004C4.19014 7.21004 4.13014 7.22004 4.06014 7.22004C4.02014 7.22004 3.98014 7.22004 3.94014 7.22004H3.86014L3.78014 7.21004L3.71014 7.19004L3.64014 7.17004L3.58014 7.14004L3.52014 7.11004L3.47014 7.07004L3.43014 7.03004L3.39014 6.99004L3.36014 6.94004L3.33014 6.89004L3.31014 6.84004L3.29014 6.78004V6.72004L3.28014 6.71004C3.28014 6.71004 3.29014 6.77004 3.30014 6.80004C3.31014 6.82004 3.32014 6.85004 3.33014 6.87004C3.34014 6.89004 3.36014 6.91004 3.37014 6.93004C3.39014 6.95004 3.41014 6.97004 3.43014 6.98004L3.48014 7.01004L3.53014 7.04004L3.59014 7.06004L3.65014 7.08004L3.72014 7.10004H3.79014L3.87014 7.11004C3.91014 7.11004 3.95014 7.11004 3.98014 7.11004C4.04014 7.11004 4.10014 7.10004 4.16014 7.09004C4.20014 7.09004 4.24014 7.07004 4.29014 7.06004C4.31014 7.06004 4.33014 7.04004 4.35014 7.04004C4.37014 7.03004 4.40014 7.02004 4.42014 7.01004C4.44014 7.00004 4.46014 6.98004 4.48014 6.97004C4.50014 6.95004 4.52014 6.94004 4.54014 6.92004C4.56014 6.90004 4.59014 6.87004 4.61014 6.85004L4.63014 6.82004C4.63014 6.82004 4.65014 6.82004 4.66014 6.81004C4.68014 6.81004 4.70014 6.79004 4.71014 6.78004C4.73014 6.77004 4.74014 6.76004 4.76014 6.74004H4.92014V6.84004H4.75014L4.69014 6.94004C4.67014 6.96004 4.66014 6.98004 4.64014 7.00004L4.66014 6.99004ZM6.16014 4.39004V4.27004L5.50014 4.42004L5.43014 4.07004L5.53014 4.53004L6.17014 4.39004H6.16014ZM6.61014 5.77004V5.73004L6.59014 5.68004V5.63004L6.56014 5.58004L6.54014 5.53004L6.50014 5.43004L6.45014 5.33004C6.39014 5.22004 6.33014 5.11004 6.27014 5.00004C6.25014 4.96004 6.23014 4.91004 6.21014 4.86004L6.18014 4.77004V4.73004L6.16014 4.69004V4.71004L6.17014 4.75004V4.79004L6.19014 4.83004L6.22014 4.92004L6.26014 5.01004C6.33014 5.15004 6.41014 5.29004 6.49014 5.44004L6.54014 5.54004L6.58014 5.64004L6.60014 5.69004V5.74004L6.62014 5.77004H6.61014ZM7.58014 8.54004V8.50004L7.52014 8.42004L7.46014 8.37004L7.25014 8.23004C7.14014 8.16004 7.03014 8.09004 6.92014 8.01004C6.89014 7.99004 6.87014 7.97004 6.84014 7.94004C6.76014 7.86004 6.69014 7.77004 6.63014 7.68004C6.60014 7.64004 6.58014 7.60004 6.56014 7.56004C6.54014 7.52004 6.52014 7.48004 6.50014 7.43004C6.48014 7.39004 6.47014 7.34004 6.45014 7.30004C6.44014 7.26004 6.43014 7.21004 6.42014 7.17004C6.42014 7.19004 6.42014 7.20004 6.42014 7.22004C6.42014 7.26004 6.44014 7.29004 6.44014 7.33004C6.44014 7.36004 6.46014 7.40004 6.47014 7.43004C6.48014 7.46004 6.50014 7.50004 6.51014 7.53004C6.53014 7.56004 6.54014 7.60004 6.56014 7.63004C6.58014 7.67004 6.61014 7.72004 6.64014 7.76004C6.66014 7.79004 6.68014 7.82004 6.71014 7.85004C6.75014 7.90004 6.79014 7.95004 6.84014 8.00004C6.87014 8.02004 6.89014 8.05004 6.92014 8.07004L6.98014 8.11004C7.08014 8.18004 7.18014 8.24004 7.28014 8.31004L7.48014 8.45004L7.53014 8.50004L7.56014 8.54004H7.58014ZM7.17014 4.87004L7.21014 4.97004C7.27014 5.11004 7.34014 5.25004 7.40014 5.39004L7.43014 5.48004L7.46014 5.57004L7.48014 5.66004V5.71004L7.49014 5.76004V5.81004V5.86004V5.91004C7.49014 5.91004 7.49014 5.97004 7.49014 6.00004C7.49014 6.03004 7.49014 6.05004 7.48014 6.08004C7.47014 6.15004 7.45014 6.21004 7.43014 6.28004C7.39014 6.40004 7.35014 6.52004 7.32014 6.64004C7.32014 6.68004 7.30014 6.73004 7.30014 6.77004C7.30014 6.80004 7.30014 6.84004 7.30014 6.87004C7.30014 6.90004 7.30014 6.93004 7.30014 6.95004C7.30014 6.99004 7.30014 7.04004 7.32014 7.08004C7.32014 7.11004 7.33014 7.13004 7.34014 7.15004C7.35014 7.19004 7.37014 7.23004 7.39014 7.27004C7.41014 7.30004 7.42014 7.33004 7.44014 7.36004C7.46014 7.38004 7.47014 7.40004 7.49014 7.42004C7.52014 7.45004 7.55014 7.48004 7.58014 7.51004C7.60014 7.53004 7.62014 7.55004 7.64014 7.56004C7.68014 7.59004 7.72014 7.61004 7.75014 7.64004C7.90014 7.74004 8.05014 7.83004 8.18014 7.94004C8.21014 7.97004 8.24014 8.00004 8.27014 8.03004C8.29014 8.05004 8.31014 8.08004 8.33014 8.10004L8.36014 8.15004C8.36014 8.15004 8.39014 8.20004 8.40014 8.23004C8.41014 8.26004 8.42014 8.28004 8.43014 8.31004V8.36004C8.43014 8.36004 8.46014 8.44004 8.46014 8.48004C8.46014 8.50004 8.46014 8.53004 8.46014 8.55004C8.46014 8.59004 8.46014 8.63004 8.44014 8.67004C8.44014 8.70004 8.42014 8.74004 8.41014 8.77004C8.40014 8.81004 8.38014 8.85004 8.36014 8.90004C8.32014 8.98004 8.29014 9.05004 8.24014 9.12004C8.20014 9.18004 8.15014 9.23004 8.11014 9.29004C8.09014 9.32004 8.06014 9.35004 8.04014 9.39004L8.02014 9.42004L8.00014 9.46004L7.98014 9.50004V9.54004L7.96014 9.59004V9.63004V9.67004V9.71004L7.99014 9.74004L8.01014 9.77004L8.03014 9.80004L8.08014 9.85004C8.08014 9.85004 8.13014 9.90004 8.16014 9.92004L7.51014 10.47C7.44014 10.4 7.38014 10.33 7.32014 10.25C7.29014 10.21 7.25014 10.16 7.22014 10.12C7.20014 10.09 7.18014 10.06 7.17014 10.03C7.15014 9.99004 7.13014 9.95004 7.11014 9.90004C7.10014 9.87004 7.09014 9.85004 7.08014 9.82004C7.08014 9.79004 7.06014 9.76004 7.06014 9.73004V9.71004C7.06014 9.71004 7.06014 9.74004 7.07014 9.76004C7.09014 9.81004 7.10014 9.86004 7.13014 9.91004C7.14014 9.94004 7.16014 9.97004 7.18014 10C7.21014 10.05 7.24014 10.09 7.27014 10.13C7.33014 10.21 7.39014 10.28 7.46014 10.35L8.02014 9.87004C8.02014 9.87004 7.96014 9.81004 7.93014 9.78004L7.91014 9.75004L7.89014 9.72004L7.87014 9.68004L7.85014 9.64004V9.59004V9.54004V9.49004L7.88014 9.45004L7.90014 9.41004L7.92014 9.37004L7.94014 9.33004C7.94014 9.33004 7.99014 9.26004 8.01014 9.23004C8.05014 9.17004 8.10014 9.12004 8.14014 9.06004C8.18014 9.00004 8.22014 8.94004 8.25014 8.87004C8.27014 8.82004 8.29014 8.77004 8.31014 8.72004C8.31014 8.69004 8.33014 8.66004 8.34014 8.62004C8.34014 8.59004 8.35014 8.56004 8.35014 8.53004C8.35014 8.50004 8.35014 8.47004 8.35014 8.44004C8.35014 8.40004 8.35014 8.36004 8.33014 8.32004V8.27004C8.33014 8.27004 8.30014 8.22004 8.29014 8.19004C8.28014 8.16004 8.27014 8.14004 8.25014 8.12004C8.23014 8.10004 8.22014 8.07004 8.20014 8.05004C8.18014 8.03004 8.16014 8.01004 8.14014 7.99004C8.11014 7.96004 8.08014 7.93004 8.05014 7.91004C7.94014 7.82004 7.83014 7.75004 7.71014 7.67004C7.65014 7.63004 7.59014 7.59004 7.53014 7.55004C7.50014 7.53004 7.47014 7.50004 7.44014 7.48004C7.41014 7.45004 7.39014 7.43004 7.36014 7.40004C7.34014 7.37004 7.31014 7.34004 7.29014 7.31004C7.28014 7.29004 7.26014 7.26004 7.25014 7.24004C7.24014 7.22004 7.23014 7.19004 7.22014 7.17004C7.21014 7.14004 7.20014 7.10004 7.19014 7.07004C7.19014 7.03004 7.18014 7.00004 7.17014 6.96004C7.17014 6.92004 7.17014 6.88004 7.17014 6.84004C7.17014 6.81004 7.17014 6.77004 7.17014 6.74004C7.17014 6.71004 7.17014 6.67004 7.18014 6.64004C7.18014 6.60004 7.20014 6.55004 7.21014 6.51004C7.24014 6.42004 7.26014 6.33004 7.29014 6.24004C7.31014 6.17004 7.33014 6.10004 7.35014 6.02004C7.35014 5.99004 7.35014 5.97004 7.36014 5.94004C7.36014 5.91004 7.36014 5.89004 7.36014 5.86004V5.81004V5.77004V5.73004V5.69004L7.34014 5.61004C7.34014 5.61004 7.32014 5.53004 7.30014 5.48004L7.27014 5.39004C7.22014 5.28004 7.17014 5.18004 7.12014 5.07004L7.10014 5.02004C7.08014 4.97004 7.06014 4.92004 7.03014 4.87004L6.99014 4.76004L6.96014 4.65004V4.59004L6.93014 4.53004V4.47004L6.91014 4.40004V4.33004V4.14004L7.50014 4.01004L7.43014 3.66004L7.53014 3.64004L7.63014 4.10004L7.03014 4.23004V4.38004V4.44004V4.50004L7.05014 4.56004V4.62004L7.08014 4.68004L7.11014 4.79004L7.15014 4.90004L7.17014 4.87004ZM9.50014 4.77004H9.52014L9.42014 4.56004C9.40014 4.52004 9.38014 4.49004 9.36014 4.45004L9.32014 4.40004C9.32014 4.40004 9.28014 4.36004 9.26014 4.34004L9.22014 4.30004L9.17014 4.27004L9.12014 4.24004H9.08014L9.04014 4.21004H9.00014H8.96014H8.92014L8.88014 4.22004H8.84014L8.80014 4.25004L8.77014 4.27004L8.74014 4.29004L8.71014 4.31004L8.68014 4.34004L8.65014 4.37004L8.63014 4.40004L8.61014 4.43004L8.59014 4.46004V4.49004L8.57014 4.52004V4.55004L8.56014 4.58004V4.64004V4.70004V4.76004C8.56014 4.76004 8.59014 4.82004 8.60014 4.85004C8.61014 4.88004 8.63014 4.91004 8.64014 4.95004L8.73014 5.13004L8.81014 5.09004C8.78014 5.02004 8.74014 4.95004 8.72014 4.88004C8.71014 4.85004 8.70014 4.82004 8.69014 4.79004V4.73004L8.68014 4.67004V4.61004L8.69014 4.56004L8.71014 4.51004V4.48004L8.74014 4.45004L8.76014 4.42004L8.78014 4.40004L8.80014 4.38004L8.83014 4.36004L8.86014 4.34004L8.89014 4.32004H8.93014L8.97014 4.29004H9.01014L9.05014 4.28004H9.09014H9.13014H9.17014L9.21014 4.30004L9.26014 4.32004C9.26014 4.32004 9.30014 4.35004 9.32014 4.36004L9.36014 4.40004C9.36014 4.40004 9.40014 4.44004 9.41014 4.46004C9.43014 4.49004 9.45014 4.52004 9.47014 4.56004C9.50014 4.61004 9.52014 4.67004 9.55014 4.73004L9.50014 4.77004ZM10.3101 5.25004L10.4201 5.47004C10.3101 5.55004 10.2001 5.63004 10.0901 5.70004C9.98014 5.77004 9.87014 5.83004 9.75014 5.90004C9.69014 5.93004 9.62014 5.96004 9.56014 5.99004C9.50014 6.01004 9.45014 6.04004 9.39014 6.06004C9.35014 6.07004 9.31014 6.09004 9.27014 6.10004C9.23014 6.10004 9.19014 6.12004 9.16014 6.13004C9.12014 6.13004 9.09014 6.14004 9.05014 6.15004C9.02014 6.15004 8.98014 6.15004 8.95014 6.15004C8.92014 6.15004 8.88014 6.15004 8.85014 6.15004C8.82014 6.15004 8.79014 6.15004 8.75014 6.14004C8.72014 6.14004 8.69014 6.13004 8.66014 6.12004C8.63014 6.12004 8.60014 6.10004 8.57014 6.09004C8.54014 6.08004 8.50014 6.06004 8.47014 6.05004C8.43014 6.03004 8.39014 6.00004 8.35014 5.98004C8.32014 5.96004 8.29014 5.93004 8.26014 5.91004C8.23014 5.88004 8.19014 5.84004 8.16014 5.81004C8.13014 5.77004 8.10014 5.73004 8.07014 5.69004C8.04014 5.64004 8.02014 5.60004 7.99014 5.55004C7.97014 5.51004 7.95014 5.46004 7.93014 5.42004C7.91014 5.38004 7.90014 5.33004 7.89014 5.29004C7.89014 5.29004 7.89014 5.27004 7.89014 5.26004C7.89014 5.28004 7.89014 5.30004 7.89014 5.32004C7.89014 5.35004 7.90014 5.38004 7.91014 5.40004C7.92014 5.44004 7.93014 5.48004 7.95014 5.51004C7.97014 5.56004 7.99014 5.60004 8.01014 5.65004C8.04014 5.70004 8.06014 5.75004 8.09014 5.79004C8.12014 5.83004 8.15014 5.87004 8.18014 5.91004C8.22014 5.95004 8.26014 5.99004 8.30014 6.03004C8.32014 6.05004 8.34014 6.06004 8.36014 6.07004C8.39014 6.09004 8.43014 6.11004 8.46014 6.13004C8.50014 6.15004 8.54014 6.17004 8.58014 6.19004L8.64014 6.21004C8.64014 6.21004 8.70014 6.23004 8.74014 6.23004C8.77014 6.23004 8.81014 6.24004 8.84014 6.24004C8.87014 6.24004 8.91014 6.24004 8.94014 6.24004C8.98014 6.24004 9.01014 6.24004 9.05014 6.24004C9.09014 6.24004 9.13014 6.24004 9.16014 6.23004C9.20014 6.23004 9.24014 6.21004 9.28014 6.21004C9.32014 6.20004 9.36014 6.19004 9.40014 6.18004C9.44014 6.17004 9.48014 6.15004 9.53014 6.14004C9.60014 6.11004 9.67014 6.08004 9.73014 6.05004C9.79014 6.02004 9.86014 5.98004 9.92014 5.95004C10.1301 5.83004 10.3301 5.70004 10.5201 5.55004L10.3501 5.20004C10.3501 5.20004 10.3101 5.24004 10.2801 5.26004L10.3101 5.25004ZM9.18014 5.69004H9.22014L9.25014 5.71004H9.31014H9.24014H9.21014H9.18014H9.14014L9.09014 5.69004L9.04014 5.67004L9.00014 5.64004L8.96014 5.61004L8.92014 5.57004L8.89014 5.53004L8.86014 5.49004L8.76014 5.31004L10.1901 4.63004L10.1501 4.55004C10.1501 4.55004 10.1101 4.48004 10.0901 4.44004C10.0601 4.40004 10.0401 4.36004 10.0101 4.32004C9.99014 4.29004 9.97014 4.26004 9.95014 4.24004C9.93014 4.22004 9.91014 4.19004 9.88014 4.17004C9.86014 4.15004 9.83014 4.13004 9.81014 4.11004C9.79014 4.09004 9.76014 4.07004 9.74014 4.06004C9.72014 4.04004 9.69014 4.03004 9.66014 4.01004C9.63014 4.00004 9.61014 3.98004 9.58014 3.97004C9.55014 3.96004 9.53014 3.95004 9.50014 3.94004C9.46014 3.93004 9.43014 3.92004 9.39014 3.91004C9.36014 3.91004 9.33014 3.91004 9.30014 3.90004C9.27014 3.90004 9.24014 3.90004 9.21014 3.90004C9.24014 3.90004 9.28014 3.90004 9.31014 3.90004C9.36014 3.90004 9.41014 3.90004 9.46014 3.91004C9.50014 3.91004 9.54014 3.93004 9.57014 3.94004C9.60014 3.94004 9.63014 3.96004 9.66014 3.97004C9.69014 3.98004 9.72014 4.00004 9.74014 4.01004C9.77014 4.03004 9.79014 4.04004 9.82014 4.06004C9.85014 4.08004 9.87014 4.10004 9.90014 4.12004C9.93014 4.14004 9.95014 4.16004 9.97014 4.19004C9.99014 4.21004 10.0201 4.24004 10.0401 4.27004C10.0601 4.30004 10.0901 4.33004 10.1101 4.36004C10.1401 4.40004 10.1701 4.44004 10.1901 4.49004C10.2101 4.53004 10.2301 4.56004 10.2501 4.60004L10.3101 4.73004L8.88014 5.41004L8.95014 5.54004L8.98014 5.58004L9.01014 5.62004L9.04014 5.65004L9.08014 5.68004L9.12014 5.70004L9.16014 5.72004L9.18014 5.69004ZM12.2001 3.62004V3.51004L11.9101 3.55004C11.8801 3.55004 11.8601 3.56004 11.8401 3.57004L11.7901 3.59004C11.7901 3.59004 11.7501 3.61004 11.7201 3.63004L11.6801 3.66004L11.6401 3.69004L11.6101 3.73004V3.75004L11.5801 3.78004V3.81004L11.5501 3.85004V3.89004L11.5401 3.93004V3.97004V4.01004V4.05004V4.08004V4.11004L11.5601 4.14004V4.17004L11.5901 4.20004L11.6101 4.23004L11.6301 4.26004L11.6501 4.28004L11.6901 4.31004L11.7301 4.34004L11.7801 4.36004L11.8301 4.38004H11.8801C11.8801 4.38004 11.9301 4.39004 11.9601 4.39004C11.9701 4.39004 11.9901 4.39004 12.0001 4.39004C11.9801 4.39004 11.9701 4.39004 11.9501 4.39004C11.9301 4.39004 11.9101 4.39004 11.8801 4.38004L11.8401 4.36004L11.8001 4.34004L11.7601 4.31004L11.7201 4.27004L11.7001 4.25004L11.6801 4.23004V4.20004L11.6501 4.17004V4.14004L11.6301 4.11004V4.08004V4.05004V4.02004V3.99004V3.96004L11.6401 3.93004V3.90004L11.6601 3.87004L11.6801 3.84004L11.7101 3.80004L11.7401 3.77004L11.7701 3.74004C11.7701 3.74004 11.8101 3.72004 11.8301 3.71004C11.8501 3.71004 11.8701 3.69004 11.8901 3.69004C11.9101 3.69004 11.9301 3.68004 11.9601 3.67004L12.1801 3.64004L12.2001 3.62004ZM11.2401 4.66004L11.2701 4.57004L11.0501 4.53004C11.0501 4.53004 11.0001 4.52004 10.9801 4.51004C10.9501 4.50004 10.9301 4.49004 10.9001 4.47004C10.8801 4.45004 10.8501 4.44004 10.8301 4.42004C10.8201 4.41004 10.8101 4.40004 10.8001 4.38004C10.7801 4.36004 10.7701 4.33004 10.7501 4.30004C10.7501 4.28004 10.7401 4.26004 10.7301 4.25004V4.21004C10.7301 4.21004 10.7201 4.20004 10.7201 4.19004C10.7201 4.20004 10.7201 4.21004 10.7201 4.22004C10.7201 4.26004 10.7401 4.29004 10.7501 4.33004C10.7501 4.35004 10.7701 4.37004 10.7701 4.39004C10.7801 4.41004 10.8001 4.44004 10.8101 4.46004C10.8301 4.48004 10.8401 4.50004 10.8601 4.52004C10.8901 4.54004 10.9101 4.56004 10.9401 4.58004C10.9601 4.58004 10.9701 4.60004 10.9901 4.61004C11.0201 4.62004 11.0401 4.63004 11.0701 4.64004C11.1201 4.65004 11.1801 4.66004 11.2301 4.67004L11.2401 4.66004ZM12.3201 4.63004V4.52004L11.9201 4.57004L11.7501 5.38004L10.9801 5.49004L10.9401 5.61004L11.8501 5.48004L12.0201 4.67004L12.3101 4.63004H12.3201ZM13.3501 5.28004L12.4301 5.41004V5.30004L13.2301 5.19004L12.9501 3.17004H13.0501L13.3401 5.29004L13.3501 5.28004Z" fill="white"/>
<path fill-rule="evenodd" clip-rule="evenodd" d="M6.85006 0.350049H6.92006L7.10006 0.330049H7.28006L7.46006 0.310049H7.64006L7.82006 0.300049H8.00006H8.18006H8.36006H8.54006H8.72006L8.90006 0.320049H9.07006L9.24006 0.350049L9.41006 0.370049L9.58006 0.390049L9.75006 0.410049L9.92006 0.430049L10.0901 0.460049L10.2501 0.490049L10.4101 0.520049L10.5701 0.550049L10.7301 0.580049L10.8801 0.620049L11.0301 0.660049L11.1001 0.680049L10.7701 2.01005C10.7001 2.30005 10.6301 2.60005 10.5501 2.89005L9.98006 2.77005L9.71006 2.72005L9.44006 2.68005L9.16006 2.64005L9.02006 2.62005H8.88006L8.74006 2.59005H8.60006L8.46006 2.57005H8.32006L8.18006 2.56005H8.04006H7.90006H7.75006H7.60006H7.45006L7.30006 2.57005H7.15006L7.00006 2.59005L6.85006 2.61005L6.70006 2.63005L6.55006 2.65005L6.40006 2.67005L6.25006 2.70005L6.10006 2.73005L5.95006 2.76005L5.80006 2.80005L5.65006 2.84005L5.51006 2.88005L5.37006 2.92005L5.23006 2.97005L5.09006 3.02005L4.95006 3.07005L4.81006 3.12005L4.67006 3.18005L4.54006 3.24005L4.41006 3.30005L4.28006 3.36005L4.15006 3.42005L4.02006 3.48005L3.89006 3.55005L3.76006 3.62005L3.64006 3.69005L3.52006 3.76005L3.40006 3.83005L3.28006 3.90005L3.05006 4.05005L2.82006 4.20005L2.60006 4.35005C2.44006 4.46005 2.28006 4.58005 2.13006 4.70005C2.11006 4.67005 2.08006 4.64005 2.06006 4.61005C2.24006 4.47005 2.43006 4.34005 2.61006 4.21005L2.84006 4.06005L3.07006 3.91005L3.19006 3.84005L3.31006 3.77005L3.43006 3.70005L3.55006 3.63005L3.67006 3.56005L3.80006 3.49005L3.93006 3.42005L4.06006 3.35005L4.19006 3.29005L4.32006 3.23005L4.45006 3.17005L4.58006 3.11005L4.72006 3.05005L4.86006 3.00005L5.00006 2.95005L5.14006 2.90005L5.28006 2.85005L5.42006 2.81005L5.56006 2.77005L5.71006 2.73005L5.86006 2.69005L6.01006 2.66005L6.16006 2.63005L6.31006 2.60005L6.46006 2.58005L6.61006 2.56005L6.76006 2.54005L6.91006 2.52005H7.06006L7.21006 2.50005H7.36006L7.51006 2.49005H7.66006H7.81006H7.96006H8.10006H8.24006L8.38006 2.50005H8.52006L8.66006 2.52005H8.80006L8.94006 2.55005L9.08006 2.57005L9.22006 2.59005L9.49006 2.63005L9.76006 2.68005C9.98006 2.72005 10.2101 2.77005 10.4301 2.82005C10.6001 2.11005 10.7801 1.40005 10.9501 0.690049C10.7901 0.650049 10.6201 0.610049 10.4601 0.570049L10.3001 0.540049L10.1401 0.510049L9.98006 0.480049L9.82006 0.450049L9.65006 0.430049L9.48006 0.410049L9.31006 0.390049L9.14006 0.370049H8.97006L8.80006 0.340049H8.62006L8.44006 0.320049H8.26006H8.08006H7.72006H7.54006H7.36006L7.18006 0.340049H7.00006L6.82006 0.370049L6.85006 0.350049Z" fill="white"/>
<path fill-rule="evenodd" clip-rule="evenodd" d="M9.87986 1.31001C9.87986 1.31001 9.87986 1.27001 9.88986 1.24001C9.84986 1.24001 9.80986 1.22001 9.77986 1.21001C9.65986 1.18001 9.59986 1.21001 9.58986 1.27001C9.58986 1.32001 9.58986 1.35001 9.60986 1.38001C9.60986 1.38001 9.61986 1.39001 9.62986 1.40001C9.62986 1.39001 9.62986 1.37001 9.62986 1.35001C9.62986 1.28001 9.70986 1.26001 9.81986 1.29001C9.83986 1.29001 9.85986 1.29001 9.86986 1.30001M9.34986 1.53001C9.34986 1.53001 9.30986 1.48001 9.29986 1.45001C9.29986 1.45001 9.29986 1.44001 9.29986 1.43001C9.31986 1.46001 9.34986 1.49001 9.37986 1.51001C9.37986 1.51001 9.36986 1.52001 9.35986 1.53001H9.34986ZM9.77986 1.72001C9.77986 1.72001 9.77986 1.67001 9.78986 1.65001C9.74986 1.65001 9.69986 1.64001 9.65986 1.63001C9.59986 1.69001 9.53986 1.77001 9.49986 1.85001C9.45986 1.93001 9.43986 2.02001 9.41986 2.12001C9.32986 2.10001 9.23986 2.09001 9.14986 2.07001C9.14986 2.09001 9.14986 2.12001 9.13986 2.14001C9.24986 2.16001 9.35986 2.18001 9.46986 2.20001C9.48986 2.10001 9.50986 2.01001 9.54986 1.93001C9.58986 1.85001 9.63986 1.78001 9.70986 1.71001C9.72986 1.71001 9.74986 1.71001 9.77986 1.72001ZM10.0599 2.33001C9.95986 2.30001 9.84986 2.28001 9.73986 2.25001C9.73986 2.23001 9.73986 2.21001 9.74986 2.18001C9.83986 2.20001 9.91986 2.22001 10.0099 2.24001C10.0499 2.05001 10.0899 1.86001 10.1299 1.67001C10.1599 1.50001 10.1999 1.33001 10.2299 1.17001C10.2499 1.17001 10.2699 1.18001 10.2899 1.19001C10.2499 1.38001 10.2099 1.57001 10.1699 1.76001C10.1299 1.95001 10.0899 2.14001 10.0499 2.33001H10.0599ZM8.59986 1.43001C8.59986 1.43001 8.59986 1.37001 8.59986 1.34001C8.50986 1.36001 8.44986 1.38001 8.40986 1.40001C8.34986 1.43001 8.30986 1.48001 8.29986 1.52001C8.29986 1.53001 8.29986 1.55001 8.29986 1.57001C8.29986 1.59001 8.29986 1.62001 8.29986 1.64001C8.29986 1.69001 8.29986 1.72001 8.31986 1.74001C8.31986 1.74001 8.33986 1.76001 8.34986 1.76001C8.34986 1.75001 8.34986 1.74001 8.34986 1.72001C8.34986 1.70001 8.34986 1.67001 8.34986 1.65001C8.34986 1.63001 8.34986 1.61001 8.34986 1.60001C8.34986 1.55001 8.39986 1.51001 8.45986 1.48001C8.48986 1.47001 8.52986 1.45001 8.58986 1.43001H8.59986ZM8.61986 1.07001C8.61986 1.07001 8.60986 1.02001 8.58986 1.00001C8.56986 0.980015 8.52986 0.970015 8.46986 0.960015C8.39986 0.960015 8.34986 0.960015 8.32986 1.00001C8.32986 1.02001 8.31986 1.05001 8.30986 1.12001C8.20986 1.12001 8.10986 1.11001 8.00986 1.11001C8.00986 1.14001 8.00986 1.16001 8.00986 1.19001C8.08986 1.19001 8.16986 1.19001 8.24986 1.20001C8.25986 1.20001 8.26986 1.20001 8.28986 1.20001C8.30986 1.20001 8.32986 1.20001 8.35986 1.19001C8.35986 1.14001 8.35986 1.11001 8.37986 1.10001C8.39986 1.07001 8.44986 1.06001 8.51986 1.06001C8.55986 1.06001 8.58986 1.07001 8.61986 1.08001V1.07001ZM8.58986 2.00001C8.58986 2.00001 8.58986 1.92001 8.58986 1.89001C8.45986 1.97001 8.35986 2.01001 8.26986 2.01001C8.14986 2.01001 8.05986 1.97001 7.99986 1.91001C8.03986 2.02001 8.14986 2.08001 8.31986 2.09001C8.38986 2.09001 8.47986 2.07001 8.57986 2.01001L8.58986 2.00001ZM8.95986 2.12001C8.84986 2.11001 8.73986 2.10001 8.62986 2.09001C8.62986 2.06001 8.62986 2.04001 8.62986 2.01001C8.71986 2.01001 8.80986 2.03001 8.89986 2.04001C8.90986 1.89001 8.92986 1.75001 8.93986 1.60001C8.94986 1.45001 8.96986 1.31001 8.97986 1.16001C8.97986 1.09001 8.97986 1.04001 8.95986 0.990015C9.00986 1.05001 9.03986 1.14001 9.02986 1.24001C9.01986 1.39001 8.99986 1.53001 8.98986 1.68001C8.97986 1.83001 8.95986 1.97001 8.94986 2.12001H8.95986ZM7.25986 1.08001C7.25986 1.08001 7.25986 1.00001 7.25986 0.960015C7.20986 1.00001 7.15986 1.05001 7.12986 1.10001C7.08986 1.15001 7.06986 1.21001 7.04986 1.29001C7.02986 1.37001 7.02986 1.46001 7.01986 1.56001C7.01986 1.59001 7.01986 1.65001 7.01986 1.73001C7.01986 1.81001 7.03986 1.91001 7.04986 2.03001C6.93986 2.04001 6.82986 2.05001 6.71986 2.07001C6.71986 2.10001 6.71986 2.13001 6.72986 2.16001C6.84986 2.14001 6.97986 2.13001 7.09986 2.12001C7.08986 2.00001 7.07986 1.90001 7.06986 1.82001C7.06986 1.74001 7.06986 1.69001 7.06986 1.65001C7.06986 1.55001 7.06986 1.46001 7.09986 1.38001C7.11986 1.30001 7.14986 1.24001 7.17986 1.19001C7.20986 1.16001 7.23986 1.12001 7.26986 1.09001L7.25986 1.08001ZM7.73986 2.06001C7.61986 2.06001 7.49986 2.07001 7.36986 2.08001C7.36986 2.05001 7.36986 2.03001 7.36986 2.00001C7.47986 2.00001 7.58986 1.99001 7.68986 1.99001C7.68986 1.78001 7.67986 1.57001 7.66986 1.36001C7.66986 1.18001 7.65986 1.00001 7.64986 0.810015C7.65986 0.810015 7.67986 0.810015 7.68986 0.810015C7.68986 1.02001 7.69986 1.23001 7.70986 1.44001C7.70986 1.65001 7.71986 1.86001 7.72986 2.07001L7.73986 2.06001ZM5.89986 1.23001C5.89986 1.23001 5.82986 1.21001 5.75986 1.23001C5.68986 1.24001 5.64986 1.27001 5.62986 1.30001C5.61986 1.32001 5.61986 1.36001 5.62986 1.41001C5.62986 1.41001 5.62986 1.41001 5.62986 1.42001C5.62986 1.42001 5.60986 1.42001 5.59986 1.42001C5.59986 1.39001 5.58986 1.36001 5.57986 1.32001C5.56986 1.27001 5.56986 1.24001 5.57986 1.21001C5.59986 1.18001 5.63986 1.16001 5.70986 1.14001C5.77986 1.13001 5.82986 1.14001 5.84986 1.15001C5.86986 1.16001 5.87986 1.19001 5.88986 1.23001H5.89986ZM6.27986 1.07001C6.27986 1.07001 6.30986 1.16001 6.31986 1.21001C6.32986 1.31001 6.34986 1.40001 6.35986 1.50001C6.11986 1.54001 5.88986 1.58001 5.64986 1.63001C5.66986 1.71001 5.68986 1.79001 5.70986 1.88001C5.71986 1.93001 5.73986 1.96001 5.75986 1.97001C5.75986 1.97001 5.75986 1.97001 5.75986 1.96001C5.73986 1.88001 5.71986 1.80001 5.69986 1.71001C5.93986 1.66001 6.16986 1.62001 6.40986 1.58001C6.39986 1.48001 6.37986 1.39001 6.36986 1.29001C6.35986 1.19001 6.32986 1.12001 6.27986 1.07001ZM6.43986 1.79001C6.45986 1.94001 6.43986 2.05001 6.37986 2.13001C6.30986 2.20001 6.17986 2.26001 5.98986 2.30001C5.79986 2.34001 5.65986 2.34001 5.56986 2.30001C5.50986 2.27001 5.44986 2.22001 5.41986 2.13001C5.44986 2.17001 5.48986 2.20001 5.52986 2.22001C5.61986 2.26001 5.75986 2.26001 5.94986 2.22001C6.13986 2.18001 6.26986 2.12001 6.33986 2.05001C6.39986 1.98001 6.42986 1.87001 6.40986 1.72001C6.41986 1.72001 6.42986 1.72001 6.43986 1.72001C6.43986 1.75001 6.43986 1.77001 6.44986 1.80001L6.43986 1.79001ZM5.57986 0.930015C5.48986 0.950015 5.39986 0.970015 5.31986 0.990015C5.31986 0.960015 5.30986 0.930015 5.29986 0.900015C5.37986 0.880015 5.45986 0.870015 5.53986 0.850015C5.53986 0.810015 5.51986 0.770015 5.50986 0.730015C5.50986 0.730015 5.52986 0.730015 5.53986 0.730015C5.54986 0.800015 5.56986 0.870015 5.57986 0.930015ZM6.06986 0.840015C5.97986 0.850015 5.88986 0.870015 5.79986 0.890015C5.79986 0.860015 5.78986 0.830015 5.77986 0.800015C5.85986 0.790015 5.93986 0.770015 6.01986 0.760015C6.01986 0.720015 6.00986 0.680015 5.99986 0.640015C6.00986 0.640015 6.01986 0.640015 6.02986 0.640015C6.03986 0.710015 6.04986 0.780015 6.06986 0.850015V0.840015ZM4.55986 1.59001C4.54986 1.55001 4.52986 1.52001 4.49986 1.51001C4.46986 1.49001 4.42986 1.49001 4.36986 1.51001C4.30986 1.53001 4.26986 1.56001 4.25986 1.59001C4.24986 1.61001 4.25986 1.65001 4.25986 1.69001C4.28986 1.78001 4.32986 1.88001 4.35986 1.97001C4.38986 2.06001 4.42986 2.16001 4.45986 2.25001C4.46986 2.29001 4.48986 2.31001 4.50986 2.33001C4.47986 2.24001 4.43986 2.15001 4.40986 2.05001C4.37986 1.96001 4.33986 1.86001 4.30986 1.77001C4.28986 1.72001 4.28986 1.69001 4.30986 1.67001C4.31986 1.64001 4.35986 1.61001 4.41986 1.59001C4.47986 1.57001 4.52986 1.57001 4.54986 1.59001H4.55986ZM4.91986 1.40001C4.96986 1.46001 5.00986 1.57001 5.04986 1.72001C4.91986 1.76001 4.78986 1.80001 4.65986 1.84001C4.65986 1.81001 4.63986 1.78001 4.62986 1.75001C4.74986 1.71001 4.87986 1.67001 4.99986 1.64001C4.96986 1.54001 4.93986 1.46001 4.90986 1.40001H4.91986ZM5.15986 2.08001C5.19986 2.23001 5.18986 2.34001 5.13986 2.42001C5.07986 2.50001 4.95986 2.57001 4.77986 2.63001C4.58986 2.69001 4.45986 2.71001 4.36986 2.69001C4.28986 2.67001 4.22986 2.60001 4.16986 2.49001C4.20986 2.55001 4.25986 2.59001 4.31986 2.61001C4.40986 2.64001 4.54986 2.61001 4.72986 2.55001C4.90986 2.49001 5.03986 2.42001 5.08986 2.34001C5.14986 2.26001 5.14986 2.15001 5.10986 2.00001C5.10986 1.99001 5.10986 1.98001 5.09986 1.96001C5.09986 1.96001 5.10986 1.96001 5.11986 1.96001C5.12986 2.00001 5.13986 2.04001 5.15986 2.08001ZM3.31986 2.13001C3.31986 2.13001 3.29986 2.12001 3.29986 2.11001C3.26986 2.10001 3.21986 2.11001 3.16986 2.13001C3.10986 2.16001 3.07986 2.19001 3.06986 2.23001C3.06986 2.25001 3.06986 2.29001 3.08986 2.33001C3.07986 2.30001 3.05986 2.27001 3.04986 2.24001C3.02986 2.19001 3.01986 2.16001 3.02986 2.14001C3.02986 2.10001 3.06986 2.07001 3.12986 2.04001C3.18986 2.01001 3.22986 2.00001 3.25986 2.02001C3.27986 2.03001 3.29986 2.06001 3.31986 2.10001C3.31986 2.10001 3.31986 2.11001 3.31986 2.12001V2.13001ZM3.65986 1.93001C3.65986 1.93001 3.66986 1.96001 3.67986 1.98001C3.71986 2.07001 3.74986 2.16001 3.78986 2.25001C3.57986 2.35001 3.37986 2.45001 3.17986 2.55001C3.21986 2.63001 3.24986 2.70001 3.28986 2.78001C3.29986 2.80001 3.30986 2.82001 3.31986 2.83001C3.28986 2.76001 3.24986 2.70001 3.21986 2.63001C3.41986 2.52001 3.61986 2.42001 3.82986 2.33001C3.78986 2.24001 3.75986 2.15001 3.71986 2.06001C3.69986 2.01001 3.67986 1.97001 3.64986 1.93001H3.65986ZM3.91986 2.52001C3.97986 2.66001 3.98986 2.78001 3.93986 2.86001C3.89986 2.95001 3.78986 3.03001 3.62986 3.12001C3.45986 3.21001 3.33986 3.24001 3.24986 3.23001C3.15986 3.21001 3.07986 3.14001 3.00986 3.00001C3.06986 3.09001 3.13986 3.14001 3.20986 3.15001C3.29986 3.17001 3.42986 3.13001 3.58986 3.04001C3.75986 2.95001 3.85986 2.87001 3.89986 2.78001C3.93986 2.69001 3.93986 2.59001 3.87986 2.45001C3.87986 2.45001 3.87986 2.45001 3.88986 2.45001C3.88986 2.47001 3.90986 2.50001 3.91986 2.52001ZM2.52986 3.24001C2.52986 3.24001 2.51986 3.21001 2.50986 3.20001C2.43986 3.09001 2.35986 3.06001 2.26986 3.13001C2.23986 3.15001 2.20986 3.17001 2.17986 3.19001C2.19986 3.22001 2.20986 3.24001 2.22986 3.27001C2.25986 3.25001 2.28986 3.23001 2.30986 3.21001C2.38986 3.15001 2.45986 3.16001 2.51986 3.24001H2.52986ZM2.23986 2.80001C2.23986 2.80001 2.23986 2.77001 2.21986 2.75001C2.17986 2.69001 2.12986 2.68001 2.05986 2.73001C2.01986 2.76001 1.98986 2.79001 1.94986 2.81001C1.96986 2.84001 1.97986 2.86001 1.99986 2.89001C2.03986 2.86001 2.06986 2.83001 2.10986 2.81001C2.15986 2.77001 2.20986 2.77001 2.23986 2.79001V2.80001ZM2.50986 2.56001C2.54986 2.65001 2.53986 2.74001 2.48986 2.84001C2.51986 2.84001 2.54986 2.84001 2.56986 2.84001C2.59986 2.76001 2.58986 2.68001 2.54986 2.61001C2.53986 2.59001 2.52986 2.57001 2.50986 2.55001V2.56001ZM2.85986 3.11001C2.91986 3.23001 2.93986 3.33001 2.90986 3.42001C2.87986 3.51001 2.79986 3.59001 2.66986 3.68001C2.53986 3.77001 2.41986 3.87001 2.29986 3.96001C2.17986 3.79001 2.06986 3.61001 1.95986 3.44001C1.84986 3.27001 1.72986 3.09001 1.60986 2.92001C1.70986 3.07001 1.80986 3.21001 1.89986 3.36001C2.00986 3.53001 2.12986 3.71001 2.23986 3.88001C2.35986 3.78001 2.47986 3.69001 2.60986 3.60001C2.73986 3.51001 2.81986 3.42001 2.84986 3.34001C2.87986 3.26001 2.86986 3.16001 2.80986 3.05001C2.81986 3.07001 2.82986 3.09001 2.84986 3.11001H2.85986Z" fill="black"/>
<path fill-rule="evenodd" clip-rule="evenodd" d="M1.10002 7.24C1.10002 7.24 1.14002 7.24 1.17002 7.24H1.11002H1.10002ZM5.55002 4.82H5.52002C5.52002 4.82 5.54002 4.84 5.56002 4.85V4.82H5.55002ZM5.94002 5.12C5.94002 5.12 5.93002 5.1 5.92002 5.08H5.89002C5.89002 5.08 5.92002 5.11 5.93002 5.12H5.94002ZM3.12002 4.9L2.96002 5.01L2.49002 5.36C2.49002 5.36 2.55002 5.41 2.58002 5.44C2.59002 5.46 2.61002 5.47 2.62002 5.49C2.67002 5.51 2.71002 5.53 2.75002 5.55C2.79002 5.57 2.82002 5.59 2.86002 5.62C2.89002 5.65 2.92002 5.67 2.95002 5.7C2.98002 5.73 3.00002 5.76 3.03002 5.8C3.05002 5.84 3.07002 5.87 3.09002 5.91C3.10002 5.94 3.11002 5.97 3.12002 6.01L3.15002 5.98L3.22002 5.91L3.17002 5.82L3.12002 4.89V4.9ZM10.65 3.37C10.65 3.37 10.6 3.36 10.58 3.35C10.36 3.31 10.14 3.27 9.93002 3.23C9.75002 3.2 9.57002 3.18 9.39002 3.16L8.84002 3.11L8.42002 3.09H8.00002L7.57002 3.12C7.43002 3.13 7.28002 3.15 7.14002 3.17L6.85002 3.21L6.56002 3.27L6.28002 3.34L6.00002 3.42C5.86002 3.46 5.73002 3.51 5.59002 3.56L5.19002 3.72L4.81002 3.89C4.68002 3.95 4.56002 4.01 4.44002 4.08L3.96002 4.35C3.84002 4.42 3.73002 4.49 3.61002 4.57L3.18002 4.86C3.24002 4.84 3.30002 4.82 3.36002 4.8C3.67002 4.71 3.98002 4.65 4.30002 4.62C4.43002 4.61 4.56002 4.61 4.69002 4.61C4.86002 4.61 5.02002 4.64 5.18002 4.69L4.99002 3.83L7.74002 3.23L7.81002 3.56L8.12002 3.49L8.21002 3.91C8.26002 3.88 8.32002 3.84 8.37002 3.81C8.47002 3.76 8.57002 3.71 8.68002 3.67L8.97002 3.59C9.06002 3.57 9.14002 3.57 9.23002 3.56C9.32002 3.56 9.40002 3.56 9.48002 3.58C9.56002 3.59 9.63002 3.61 9.71002 3.64C9.76002 3.66 9.81002 3.68 9.86002 3.71C9.91002 3.74 9.95002 3.77 10 3.8C10.05 3.83 10.09 3.87 10.13 3.91C10.14 3.92 10.15 3.93 10.16 3.94C10.19 3.95 10.21 3.96 10.23 3.98C10.27 4 10.3 4.02 10.34 4.04C10.34 4 10.34 3.95 10.34 3.91C10.34 3.87 10.36 3.82 10.37 3.78C10.38 3.74 10.4 3.7 10.41 3.66C10.43 3.61 10.46 3.56 10.49 3.52C10.52 3.48 10.54 3.45 10.57 3.42C10.58 3.4 10.6 3.39 10.61 3.38L10.65 3.37ZM1.23002 2.33C1.09002 2.43 0.96002 2.52 0.83002 2.62L0.49002 2.88L2.12002 4.95L2.62002 4.58L3.18002 4.2C3.33002 4.1 3.49002 4.01 3.65002 3.91C3.77002 3.84 3.89002 3.77 4.02002 3.71L4.40002 3.52L4.79002 3.34L5.19002 3.18C5.33002 3.13 5.46002 3.09 5.60002 3.04L5.88002 2.96L6.17002 2.89L6.46002 2.83L6.75002 2.78L7.18002 2.73L7.61002 2.71H8.04002L8.46002 2.72L9.01002 2.77L9.55002 2.84C9.77002 2.88 9.99002 2.92 10.21 2.96C10.37 2.99 10.53 3.03 10.69 3.07C10.77 2.77 10.84 2.46 10.91 2.16C11.04 1.61 11.18 1.06 11.32 0.51L11.07 0.44C10.91 0.4 10.76 0.36 10.6 0.33C10.44 0.3 10.27 0.27 10.11 0.24C9.94002 0.21 9.77002 0.19 9.60002 0.17C9.43002 0.15 9.25002 0.13 9.08002 0.12C8.90002 0.11 8.72002 0.1 8.54002 0.09C8.36002 0.09 8.18002 0.09 8.00002 0.09C7.82002 0.09 7.63002 0.09 7.45002 0.11L7.08002 0.13L6.71002 0.17L6.34002 0.22L5.97002 0.28L5.60002 0.35L5.24002 0.44L4.88002 0.54L4.53002 0.65L4.18002 0.77L3.84002 0.9L3.50002 1.04C3.33002 1.11 3.17002 1.19 3.01002 1.27C2.85002 1.35 2.69002 1.43 2.53002 1.51C2.38002 1.59 2.22002 1.68 2.07002 1.77C1.92002 1.86 1.77002 1.95 1.63002 2.04C1.49002 2.13 1.35002 2.23 1.21002 2.32L1.23002 2.33ZM4.59002 6.3C4.52002 6.3 4.44002 6.32 4.37002 6.36C4.34002 6.38 4.32002 6.4 4.31002 6.43C4.31002 6.47 4.30002 6.5 4.31002 6.54C4.34002 6.61 4.41002 6.62 4.48002 6.61C4.55002 6.61 4.61002 6.56 4.64002 6.49C4.67002 6.43 4.67002 6.36 4.66002 6.29C4.63002 6.29 4.60002 6.29 4.58002 6.29L4.59002 6.3ZM4.18002 7.39C4.25002 7.38 4.31002 7.37 4.37002 7.35C4.49002 7.31 4.62002 7.25 4.71002 7.16V7.32L5.96002 7.25L5.87002 5.64C5.87002 5.59 5.86002 5.53 5.85002 5.48C5.84002 5.42 5.82002 5.36 5.80002 5.3C5.78002 5.24 5.75002 5.19 5.71002 5.14C5.67002 5.09 5.64002 5.05 5.59002 5.01C5.54002 4.97 5.50002 4.93 5.44002 4.9C5.37002 4.86 5.31002 4.83 5.23002 4.8C5.14002 4.77 5.05002 4.74 4.96002 4.73C4.81002 4.71 4.67002 4.7 4.52002 4.7C4.17002 4.7 3.83002 4.77 3.49002 4.86C3.40002 4.89 3.30002 4.91 3.21002 4.94L3.26002 5.79L3.43002 5.71C3.52002 5.67 3.60002 5.64 3.69002 5.6C3.92002 5.53 4.17002 5.47 4.41002 5.51C4.48002 5.52 4.60002 5.55 4.62002 5.63C4.41002 5.64 4.19002 5.66 3.98002 5.69C3.85002 5.71 3.72002 5.75 3.59002 5.79C3.53002 5.82 3.46002 5.85 3.40002 5.88C3.37002 5.9 3.34002 5.92 3.30002 5.95C3.27002 5.98 3.24002 6.01 3.21002 6.04C3.18002 6.08 3.15002 6.11 3.13002 6.15C3.11002 6.19 3.09002 6.23 3.07002 6.27L3.04002 6.36C3.04002 6.36 3.02002 6.45 3.02002 6.5C3.02002 6.58 3.02002 6.65 3.02002 6.72C3.02002 6.69 3.00002 6.67 2.99002 6.65C2.96002 6.6 2.94002 6.55 2.90002 6.5C2.87002 6.47 2.85002 6.45 2.82002 6.42C2.74002 6.36 2.65002 6.31 2.55002 6.29C2.62002 6.19 2.65002 6.08 2.66002 5.97C2.66002 5.9 2.66002 5.84 2.64002 5.78C2.63002 5.74 2.61002 5.7 2.59002 5.65C2.57002 5.62 2.56002 5.59 2.54002 5.56C2.52002 5.53 2.50002 5.51 2.47002 5.48C2.44002 5.46 2.42002 5.43 2.39002 5.41C2.34002 5.38 2.29002 5.35 2.23002 5.33C2.20002 5.32 2.16002 5.31 2.13002 5.3C2.05002 5.28 1.98002 5.27 1.90002 5.27C1.81002 5.27 1.73002 5.27 1.64002 5.28C1.53002 5.3 1.42002 5.32 1.31002 5.35C0.950019 5.45 0.61002 5.59 0.28002 5.78C0.23002 5.81 0.17002 5.85 0.12002 5.88L0.36002 6.7L0.51002 6.57C0.60002 6.49 0.69002 6.42 0.80002 6.36C0.93002 6.3 1.06002 6.24 1.20002 6.21C1.27002 6.19 1.36002 6.17 1.43002 6.21C1.46002 6.23 1.47002 6.26 1.46002 6.3C1.44002 6.35 1.37002 6.37 1.32002 6.39L0.78002 6.55L0.97002 7.18L1.44002 7.04C1.50002 7.02 1.58002 7 1.65002 7.02C1.68002 7.03 1.69002 7.05 1.70002 7.08C1.70002 7.13 1.67002 7.17 1.63002 7.2C1.56002 7.25 1.48002 7.27 1.40002 7.3C1.18002 7.35 0.95002 7.36 0.73002 7.34C0.65002 7.34 0.58002 7.32 0.50002 7.32L0.74002 8.14H0.85002C1.00002 8.14 1.14002 8.13 1.29002 8.11C1.43002 8.09 1.56002 8.06 1.70002 8.03C2.05002 7.94 2.41002 7.82 2.71002 7.6C2.79002 7.54 2.86002 7.47 2.92002 7.4L2.96002 7.34C2.96002 7.34 3.00002 7.27 3.02002 7.23C3.04002 7.19 3.05002 7.15 3.06002 7.11C3.06002 7.07 3.08002 7.03 3.08002 6.99C3.08002 6.95 3.08002 6.91 3.08002 6.87C3.10002 6.92 3.11002 6.96 3.14002 7.01C3.16002 7.04 3.18002 7.08 3.20002 7.11C3.23002 7.14 3.25002 7.17 3.28002 7.2C3.31002 7.23 3.34002 7.25 3.38002 7.28C3.42002 7.3 3.46002 7.32 3.50002 7.34C3.54002 7.36 3.58002 7.37 3.63002 7.39C3.68002 7.4 3.72002 7.41 3.77002 7.42C3.82002 7.42 3.87002 7.42 3.92002 7.43C4.02002 7.43 4.11002 7.43 4.21002 7.41L4.18002 7.39ZM7.32002 4.77C7.30002 4.71 7.27002 4.64 7.26002 4.58C7.24002 4.5 7.23002 4.42 7.22002 4.34L7.85002 4.2L7.66002 3.34L5.12002 3.89L5.31002 4.75L5.90002 4.62C5.91002 4.83 6.01002 5.03 6.11002 5.22C6.19002 5.37 6.28002 5.52 6.34002 5.67C6.35002 5.71 6.36002 5.75 6.37002 5.79C6.37002 5.84 6.37002 5.88 6.37002 5.93C6.37002 5.96 6.36002 5.99 6.35002 6.02C6.30002 6.21 6.23002 6.39 6.19002 6.59C6.19002 6.63 6.18002 6.67 6.17002 6.71C6.16002 6.84 6.17002 6.97 6.17002 7.1V7.18C6.20002 7.26 6.22002 7.34 6.24002 7.42C6.27002 7.5 6.30002 7.57 6.33002 7.65C6.37002 7.73 6.41002 7.8 6.46002 7.87C6.53002 7.97 6.60002 8.06 6.69002 8.14L6.76002 8.2C6.88002 8.29 7.01002 8.37 7.13002 8.45L7.31002 8.57C7.28002 8.63 7.24002 8.68 7.21002 8.73C7.12002 8.87 7.02002 9 6.95002 9.15C6.93002 9.2 6.90002 9.25 6.88002 9.3C6.86002 9.35 6.85002 9.41 6.84002 9.46C6.84002 9.5 6.83002 9.54 6.83002 9.59C6.83002 9.63 6.83002 9.68 6.83002 9.72C6.83002 9.77 6.85002 9.82 6.87002 9.87C6.91002 9.97 6.95002 10.07 7.00002 10.16C7.03002 10.21 7.07002 10.26 7.11002 10.31C7.22002 10.45 7.35002 10.58 7.47002 10.71L8.44002 9.88L8.34002 9.79C8.27002 9.73 8.20002 9.67 8.15002 9.6C8.15002 9.59 8.13002 9.57 8.13002 9.56C8.13002 9.54 8.14002 9.52 8.15002 9.5C8.20002 9.4 8.28002 9.31 8.35002 9.22C8.45002 9.09 8.52002 8.94 8.57002 8.78C8.59002 8.73 8.60002 8.68 8.61002 8.63C8.62002 8.57 8.63002 8.51 8.63002 8.44C8.63002 8.39 8.63002 8.33 8.62002 8.28C8.61002 8.21 8.59002 8.14 8.56002 8.08C8.54002 8.04 8.52002 8.01 8.50002 7.98C8.47002 7.94 8.44002 7.9 8.41002 7.86C8.37002 7.81 8.32002 7.77 8.28002 7.73C8.16002 7.63 8.02002 7.54 7.89002 7.45C7.82002 7.4 7.74002 7.35 7.67002 7.29C7.60002 7.22 7.54002 7.16 7.50002 7.06C7.50002 7.04 7.48002 7.01 7.48002 6.99C7.46002 6.89 7.46002 6.79 7.48002 6.69C7.48002 6.65 7.49002 6.62 7.50002 6.58C7.54002 6.41 7.61002 6.24 7.64002 6.07C7.65002 6.01 7.66002 5.96 7.66002 5.9C7.66002 5.84 7.66002 5.78 7.66002 5.72C7.66002 5.66 7.66002 5.61 7.64002 5.55L7.62002 5.44C7.60002 5.37 7.58002 5.31 7.55002 5.24C7.48002 5.07 7.39002 4.9 7.32002 4.73V4.77ZM9.08002 4.54C9.08002 4.54 9.02002 4.5 8.97002 4.5C8.92002 4.5 8.87002 4.53 8.84002 4.57C8.79002 4.65 8.82002 4.74 8.84002 4.83L9.18002 4.67C9.18002 4.67 9.12002 4.58 9.07002 4.54H9.08002ZM9.29002 5.49C9.45002 5.49 9.59002 5.43 9.73002 5.36C9.78002 5.33 9.83002 5.31 9.87002 5.28C10.03 5.17 10.17 5.04 10.31 4.9L9.16002 5.45C9.16002 5.45 9.24002 5.49 9.29002 5.5V5.49ZM11.94 3.84C11.94 3.84 11.88 3.86 11.86 3.88C11.83 3.91 11.82 3.93 11.82 3.97C11.82 4.04 11.82 4.1 11.89 4.13C11.93 4.15 11.98 4.15 12.03 4.15L11.99 3.83C11.99 3.83 11.97 3.83 11.95 3.83L11.94 3.84ZM10.82 4.75C10.82 4.75 10.9 4.79 10.94 4.8L10.7 5.48L10.4 4.85L10.55 4.78L10.4 4.46C10.36 4.38 10.32 4.3 10.27 4.23C10.22 4.16 10.17 4.1 10.12 4.04C10.08 4 10.05 3.97 10.01 3.93C9.95002 3.88 9.89002 3.84 9.82002 3.8C9.78002 3.78 9.73002 3.76 9.68002 3.74C9.61002 3.72 9.54002 3.7 9.47002 3.68C9.41002 3.68 9.35002 3.67 9.30002 3.66C9.22002 3.66 9.14002 3.66 9.06002 3.67C8.95002 3.69 8.85002 3.71 8.75002 3.75C8.57002 3.82 8.39002 3.9 8.23002 4.01L8.17002 4.05C8.10002 4.11 8.03002 4.17 7.96002 4.24C7.91002 4.29 7.87002 4.34 7.83002 4.4C7.79002 4.47 7.75002 4.53 7.72002 4.61C7.69002 4.67 7.67002 4.73 7.65002 4.8C7.63002 4.86 7.62002 4.93 7.62002 4.99C7.62002 5.08 7.62002 5.16 7.62002 5.25C7.62002 5.29 7.64002 5.34 7.65002 5.38C7.71002 5.59 7.81002 5.79 7.94002 5.96C7.99002 6.02 8.04002 6.08 8.10002 6.13C8.16002 6.18 8.22002 6.22 8.29002 6.26C8.37002 6.31 8.45002 6.34 8.54002 6.37C8.58002 6.38 8.62002 6.39 8.66002 6.4C8.74002 6.42 8.82002 6.42 8.90002 6.42C8.96002 6.42 9.01002 6.42 9.07002 6.42C9.16002 6.41 9.25002 6.39 9.33002 6.37C9.39002 6.35 9.45002 6.33 9.51002 6.31C9.80002 6.2 10.08 6.04 10.34 5.87C10.44 5.8 10.53 5.73 10.62 5.66L10.56 5.84L11.95 5.65L12.09 4.99L12.18 5.62L13.51 5.44L13.16 2.9L11.44 3.14C11.38 3.14 11.32 3.16 11.26 3.17C11.17 3.19 11.08 3.22 11 3.25C10.93 3.28 10.87 3.31 10.81 3.35C10.74 3.4 10.67 3.46 10.62 3.53C10.6 3.55 10.59 3.58 10.57 3.6C10.54 3.66 10.51 3.71 10.49 3.77C10.48 3.81 10.47 3.84 10.46 3.88C10.46 3.93 10.45 3.99 10.45 4.04C10.45 4.12 10.45 4.19 10.47 4.27C10.48 4.33 10.5 4.39 10.53 4.44C10.55 4.48 10.58 4.52 10.6 4.56C10.65 4.62 10.7 4.67 10.77 4.71L10.82 4.74V4.75ZM2.20002 1.59C2.35002 1.5 2.51002 1.42 2.67002 1.33C2.83002 1.25 2.99002 1.17 3.16002 1.09L3.49002 0.94C3.66002 0.87 3.83002 0.8 4.00002 0.73L4.35002 0.6L4.70002 0.48L5.06002 0.38L5.42002 0.29L5.79002 0.21L6.16002 0.14L6.53002 0.09L6.90002 0.05L7.27002 0.02L7.64002 0C7.82002 0 8.01002 0 8.19002 0C8.37002 0 8.55002 0 8.74002 0.02C8.92002 0.03 9.10002 0.04 9.28002 0.06C9.46002 0.08 9.63002 0.1 9.80002 0.12C9.97002 0.14 10.14 0.17 10.31 0.2L10.64 0.26C10.8 0.29 10.96 0.33 11.11 0.37L11.46 0.46C11.45 0.51 11.43 0.56 11.42 0.62C11.44 0.62 11.47 0.63 11.49 0.64L11.84 0.73C11.7 1.31 11.55 1.89 11.41 2.48C11.36 2.68 11.31 2.88 11.26 3.07C11.33 3.06 11.39 3.04 11.46 3.03L13.29 2.78L13.33 3.09L13.67 3.04L14.05 5.79L12.52 6L12.5 5.86L12.47 6.01L10.84 6.24V6.22C10.63 6.36 10.41 6.49 10.18 6.6C10.08 6.64 9.99002 6.68 9.89002 6.71C9.83002 6.73 9.76002 6.75 9.70002 6.76C9.61002 6.78 9.52002 6.79 9.42002 6.8C9.37002 6.8 9.33002 6.8 9.29002 6.8C9.22002 6.8 9.14002 6.79 9.07002 6.77C9.03002 6.77 8.99002 6.75 8.94002 6.74C8.85002 6.71 8.77002 6.68 8.70002 6.63C8.64002 6.59 8.58002 6.55 8.52002 6.51C8.48002 6.48 8.44002 6.44 8.41002 6.41C8.38002 6.4 8.35002 6.38 8.33002 6.37C8.28002 6.34 8.23002 6.31 8.19002 6.28C8.19002 6.31 8.19002 6.35 8.17002 6.38C8.16002 6.45 8.14002 6.51 8.12002 6.58C8.11002 6.62 8.10002 6.66 8.08002 6.7C8.02002 6.9 7.94002 7.14 8.04002 7.35C8.07002 7.41 8.11002 7.45 8.16002 7.49C8.20002 7.52 8.23002 7.54 8.27002 7.57C8.30002 7.59 8.33002 7.62 8.36002 7.64C8.46002 7.7 8.55002 7.77 8.65002 7.84C8.72002 7.9 8.79002 7.95 8.86002 8.02C8.90002 8.06 8.93002 8.1 8.97002 8.15C9.00002 8.19 9.02002 8.22 9.04002 8.26C9.06002 8.3 9.08002 8.34 9.10002 8.38C9.12002 8.43 9.13002 8.48 9.14002 8.53C9.14002 8.58 9.16002 8.62 9.16002 8.67C9.16002 8.74 9.16002 8.81 9.16002 8.88V8.95C9.11002 9.15 9.03002 9.34 8.91002 9.52C8.85002 9.6 8.79002 9.68 8.73002 9.76C8.71002 9.79 8.69002 9.82 8.67002 9.85C8.70002 9.89 8.74002 9.92 8.78002 9.96C8.86002 10.03 8.94002 10.11 9.02002 10.19L7.89002 11.16C7.79002 11.05 7.68002 10.95 7.58002 10.84L7.51002 10.9C7.34002 10.73 7.17002 10.56 7.03002 10.37C6.98002 10.3 6.93002 10.22 6.89002 10.14C6.86002 10.08 6.83002 10.01 6.81002 9.94L6.79002 9.87C6.78002 9.82 6.77002 9.77 6.76002 9.72C6.76002 9.67 6.76002 9.62 6.76002 9.57C6.76002 9.52 6.77002 9.48 6.78002 9.43C6.79002 9.38 6.80002 9.34 6.82002 9.3C6.85002 9.21 6.89002 9.14 6.93002 9.06C7.01002 8.92 7.11002 8.78 7.20002 8.64C7.17002 8.62 7.14002 8.6 7.11002 8.57L7.05002 8.52C6.94002 8.45 6.83002 8.38 6.73002 8.3L6.66002 8.24C6.57002 8.15 6.49002 8.06 6.42002 7.95C6.39002 7.9 6.35002 7.85 6.32002 7.8C6.29002 7.74 6.26002 7.69 6.24002 7.63L5.04002 7.7V7.63C4.98002 7.66 4.93002 7.68 4.87002 7.71C4.67002 7.78 4.46002 7.8 4.25002 7.8C4.20002 7.8 4.15002 7.8 4.09002 7.78C4.04002 7.77 3.99002 7.76 3.94002 7.74C3.89002 7.72 3.85002 7.7 3.80002 7.68L3.71002 7.63C3.64002 7.58 3.58002 7.53 3.53002 7.47C3.49002 7.59 3.42002 7.69 3.34002 7.78C3.29002 7.83 3.24002 7.88 3.19002 7.93C3.13002 7.98 3.07002 8.02 3.01002 8.06C2.92002 8.12 2.82002 8.16 2.72002 8.21C2.62002 8.25 2.52002 8.29 2.42002 8.32C2.19002 8.39 1.95002 8.46 1.70002 8.49C1.55002 8.51 1.40002 8.52 1.25002 8.52H1.06002L0.98002 8.25C0.94002 8.25 0.91002 8.25 0.87002 8.25H0.68002L0.37002 7.21C0.54002 7.23 0.72002 7.25 0.89002 7.25L0.83002 7.05L0.71002 7.16L0.57002 6.68L0.33002 6.9L0.0200195 5.84C0.10002 5.79 0.17002 5.74 0.25002 5.7C0.40002 5.61 0.56002 5.53 0.72002 5.47C0.95002 5.38 1.18002 5.3 1.42002 5.24C1.56002 5.21 1.71002 5.19 1.86002 5.18C1.93002 5.18 1.99002 5.18 2.06002 5.19C2.13002 5.2 2.20002 5.22 2.27002 5.24C2.32002 5.26 2.36002 5.28 2.40002 5.3C2.43002 5.32 2.45002 5.33 2.48002 5.35L2.23002 5.03L2.12002 5.11L0.35002 2.87L0.77002 2.54L1.18002 2.24C1.32002 2.14 1.46002 2.05 1.61002 1.95C1.76002 1.86 1.91002 1.76 2.06002 1.67L2.21002 1.58L2.20002 1.59Z" fill="black"/>
<path fill-rule="evenodd" clip-rule="evenodd" d="M0.640234 2.89997C0.890234 3.21997 1.14023 3.53997 1.39023 3.84997C1.64023 4.16997 1.89023 4.48997 2.14023 4.79997C3.24023 3.95997 4.57023 3.12997 6.14023 2.78997C7.72023 2.44997 9.27023 2.64997 10.6202 2.95997C10.7202 2.56997 10.8102 2.16997 10.9102 1.77997C11.0102 1.38997 11.1002 0.989966 11.2002 0.599966C9.63023 0.169966 7.56023 0.0399658 5.64023 0.459966C3.72023 0.879966 1.97023 1.83997 0.640234 2.89997ZM1.23023 2.31997C1.37023 2.21997 1.51023 2.12997 1.65023 2.03997C1.80023 1.94997 1.94023 1.85997 2.09023 1.76997C2.24023 1.67997 2.39023 1.59997 2.55023 1.50997C2.71023 1.42997 2.87023 1.34997 3.03023 1.26997C3.19023 1.18997 3.36023 1.11997 3.52023 1.03997L3.86023 0.899966L4.20023 0.769966L4.55023 0.649966L4.90023 0.539966L5.26023 0.439966L5.62023 0.349966L5.99023 0.279966L6.36023 0.219966L6.73023 0.169966L7.10023 0.129966L7.47023 0.109966C7.65023 0.109966 7.84024 0.0999658 8.02024 0.0899658C8.20023 0.0899658 8.38024 0.0899658 8.56024 0.0899658C8.74024 0.0899658 8.92023 0.109966 9.10023 0.119966C9.27024 0.139966 9.45023 0.149966 9.62023 0.169966C9.79023 0.189966 9.96023 0.219966 10.1302 0.239966C10.2902 0.269966 10.4602 0.299966 10.6202 0.329966C10.7802 0.359966 10.9302 0.399966 11.0902 0.439966L11.3402 0.509966C11.2002 1.05997 11.0702 1.60997 10.9302 2.15997C10.8602 2.45997 10.7802 2.76997 10.7102 3.06997C10.5502 3.02997 10.3902 2.99997 10.2302 2.95997C10.0102 2.91997 9.79023 2.87997 9.57023 2.83997L9.03023 2.76997L8.48023 2.71997L8.06024 2.69997H7.63023L7.20023 2.72997L6.77023 2.77997L6.48023 2.82997L6.19023 2.88997L5.90023 2.95997L5.62023 3.03997C5.48023 3.07997 5.34023 3.12997 5.21023 3.17997L4.81023 3.33997L4.42023 3.51997L4.04023 3.70997C3.92023 3.77997 3.80023 3.83997 3.67023 3.90997C3.51023 3.99997 3.36023 4.09997 3.20023 4.19997L2.64023 4.57997L2.14023 4.94997L0.490234 2.88997L0.830234 2.62997C0.960234 2.52997 1.10023 2.42997 1.23023 2.33997V2.31997Z" fill="black"/>
<path fill-rule="evenodd" clip-rule="evenodd" d="M4.59008 6.30001C4.52008 6.30001 4.44008 6.32001 4.37008 6.36001C4.34008 6.38001 4.32008 6.40001 4.31008 6.43001C4.31008 6.47001 4.30008 6.50001 4.31008 6.54001C4.34008 6.61001 4.41008 6.62001 4.48008 6.61001C4.55008 6.61001 4.61008 6.56001 4.64008 6.49001C4.67008 6.43001 4.67008 6.36001 4.66008 6.29001C4.63008 6.29001 4.60008 6.29001 4.58008 6.29001M4.17008 7.38001C4.07008 7.39001 3.98008 7.40001 3.88008 7.40001C3.83008 7.40001 3.78008 7.40001 3.73008 7.39001C3.68008 7.39001 3.64008 7.37002 3.59008 7.36001C3.55008 7.35001 3.50008 7.33001 3.46008 7.31001C3.42008 7.29001 3.38008 7.27001 3.34008 7.25001C3.30008 7.23001 3.27008 7.20001 3.24008 7.17001C3.21008 7.14001 3.19008 7.11001 3.16008 7.08001C3.14008 7.05001 3.12008 7.02001 3.10008 6.98001C3.08008 6.93001 3.06008 6.89001 3.04008 6.84001C3.04008 6.88001 3.04008 6.92001 3.04008 6.96001C3.04008 7.00001 3.03008 7.04001 3.02008 7.08001C3.01008 7.12001 3.00008 7.16001 2.98008 7.20001C2.96008 7.24001 2.94008 7.27001 2.92008 7.31001L2.88008 7.37001C2.82008 7.45001 2.75008 7.51002 2.67008 7.57001C2.37008 7.79001 2.02008 7.91001 1.66008 8.00001C1.53008 8.03001 1.39008 8.06001 1.25008 8.08001C1.10008 8.10001 0.960078 8.11001 0.810078 8.11001H0.700078L0.460078 7.29001C0.540078 7.29001 0.610078 7.31001 0.690078 7.31001C0.910078 7.33001 1.14008 7.32001 1.36008 7.27001C1.44008 7.25001 1.52008 7.22001 1.59008 7.17001C1.63008 7.14001 1.66008 7.10001 1.66008 7.05001C1.66008 7.02001 1.64008 7.00001 1.61008 6.99001C1.54008 6.97001 1.47008 6.99001 1.40008 7.01001L0.930078 7.15001L0.740078 6.52001L1.28008 6.36001C1.28008 6.36001 1.40008 6.32001 1.42008 6.27001C1.43008 6.24001 1.42008 6.20001 1.39008 6.18001C1.32008 6.15001 1.23008 6.16001 1.16008 6.18001C1.02008 6.22001 0.890078 6.27001 0.760078 6.33001C0.650078 6.39001 0.560078 6.46001 0.470078 6.54001L0.320078 6.67001L0.0800781 5.85001C0.130078 5.82001 0.190078 5.78001 0.240078 5.75001C0.560078 5.56001 0.910078 5.42001 1.27008 5.32001C1.38008 5.29001 1.49008 5.27001 1.60008 5.25001C1.69008 5.24001 1.77008 5.23001 1.86008 5.24001C1.94008 5.24001 2.01008 5.25001 2.09008 5.27001C2.13008 5.27001 2.16008 5.29001 2.19008 5.30001C2.25008 5.32001 2.30008 5.35001 2.35008 5.38001C2.38008 5.40001 2.41008 5.42001 2.43008 5.45001C2.46008 5.48001 2.48008 5.50001 2.50008 5.53001C2.52008 5.56001 2.54008 5.59001 2.55008 5.62001C2.57008 5.66001 2.58008 5.70001 2.60008 5.75001C2.62008 5.82001 2.62008 5.88001 2.62008 5.94001C2.62008 6.06001 2.58008 6.17001 2.51008 6.26001C2.61008 6.28001 2.70008 6.33001 2.78008 6.39001C2.81008 6.42001 2.84008 6.44001 2.86008 6.47001C2.90008 6.52001 2.93008 6.56001 2.95008 6.62001C2.96008 6.64001 2.97008 6.67001 2.98008 6.69001C2.98008 6.61001 2.98008 6.54001 2.98008 6.47001C2.98008 6.42001 2.99008 6.38001 3.00008 6.33001L3.03008 6.24001C3.03008 6.24001 3.07008 6.16001 3.09008 6.12001C3.12008 6.08001 3.14008 6.05001 3.17008 6.01001C3.20008 5.98001 3.23008 5.95001 3.26008 5.92001C3.29008 5.90001 3.32008 5.87001 3.36008 5.85001C3.42008 5.81001 3.48008 5.78001 3.55008 5.76001C3.68008 5.71001 3.81008 5.68001 3.94008 5.66001C4.15008 5.63001 4.37008 5.61001 4.58008 5.60001C4.56008 5.52001 4.44008 5.49001 4.37008 5.48001C4.13008 5.44001 3.88008 5.50001 3.65008 5.57001C3.56008 5.60001 3.47008 5.64001 3.39008 5.68001L3.22008 5.76001L3.17008 4.91001C3.26008 4.88001 3.35008 4.85001 3.45008 4.83001C3.79008 4.74001 4.13008 4.68001 4.48008 4.67001C4.63008 4.67001 4.78008 4.67001 4.92008 4.70001C5.01008 4.72001 5.10008 4.74001 5.19008 4.77001C5.26008 4.80001 5.33008 4.83001 5.40008 4.87001C5.45008 4.90001 5.50008 4.94001 5.55008 4.98001C5.59008 5.02001 5.63008 5.06001 5.67008 5.11001C5.70008 5.16001 5.73008 5.21001 5.76008 5.27001C5.78008 5.33001 5.80008 5.39001 5.81008 5.45001C5.81008 5.50001 5.83008 5.56001 5.83008 5.61001L5.92008 7.22001L4.68008 7.29001V7.13001C4.57008 7.22001 4.45008 7.28001 4.33008 7.32001C4.27008 7.34001 4.20008 7.35001 4.14008 7.36001L4.17008 7.38001ZM7.31008 4.76001C7.29008 4.70001 7.26008 4.63001 7.25008 4.57001C7.23008 4.49001 7.22008 4.41001 7.21008 4.33001L7.84008 4.19001L7.65008 3.33001L5.11008 3.88001L5.30008 4.74001L5.89008 4.61001C5.90008 4.82001 6.00008 5.02001 6.10008 5.21001C6.18008 5.36001 6.27008 5.51001 6.33008 5.66001C6.34008 5.70001 6.35008 5.74001 6.36008 5.78001C6.36008 5.83001 6.36008 5.87001 6.36008 5.92001C6.36008 5.95001 6.35008 5.98001 6.34008 6.01001C6.29008 6.20001 6.22008 6.38001 6.18008 6.58001C6.18008 6.62001 6.17008 6.66001 6.16008 6.70001C6.15008 6.83001 6.16008 6.96001 6.16008 7.09001V7.17001C6.19008 7.25001 6.21008 7.33001 6.23008 7.41001C6.26008 7.49001 6.29008 7.56001 6.32008 7.64001C6.36008 7.72001 6.40008 7.79001 6.45008 7.86001C6.52008 7.96001 6.59008 8.05001 6.68008 8.13001L6.75008 8.19001C6.87008 8.28001 7.00008 8.36001 7.12008 8.44001L7.30008 8.56001C7.27008 8.62001 7.23008 8.67001 7.20008 8.72001C7.11008 8.86001 7.01008 8.99001 6.94008 9.14001C6.92008 9.19001 6.89008 9.24001 6.87008 9.29001C6.85008 9.34001 6.84008 9.40001 6.83008 9.45001C6.83008 9.49001 6.82008 9.53001 6.82008 9.58001C6.82008 9.62001 6.82008 9.67001 6.82008 9.71001C6.82008 9.76001 6.84008 9.81001 6.86008 9.86001C6.90008 9.96001 6.94008 10.06 6.99008 10.15C7.02008 10.2 7.06008 10.25 7.10008 10.3C7.21008 10.44 7.34008 10.57 7.46008 10.7L8.43008 9.87001L8.33008 9.78001C8.26008 9.72001 8.19008 9.66001 8.14008 9.59001C8.14008 9.58001 8.12008 9.56001 8.12008 9.55001C8.12008 9.53001 8.13008 9.51001 8.14008 9.49001C8.19008 9.39001 8.27008 9.30001 8.34008 9.21001C8.44008 9.08001 8.51008 8.93001 8.56008 8.77001C8.58008 8.72001 8.59008 8.67001 8.60008 8.62001C8.61008 8.56001 8.62008 8.50001 8.62008 8.43001C8.62008 8.38001 8.62008 8.32001 8.61008 8.27001C8.60008 8.20001 8.58008 8.13001 8.55008 8.07001C8.53008 8.03001 8.51008 8.00001 8.49008 7.97001C8.46008 7.93001 8.43008 7.89001 8.40008 7.85001C8.36008 7.80001 8.31008 7.76001 8.27008 7.72001C8.15008 7.62001 8.01008 7.53001 7.88008 7.44001C7.81008 7.39001 7.73008 7.34001 7.66008 7.28001C7.59008 7.21001 7.53008 7.15001 7.49008 7.05001C7.49008 7.03001 7.47008 7.00001 7.47008 6.98001C7.45008 6.88001 7.45008 6.78001 7.47008 6.68001C7.47008 6.64001 7.48008 6.61001 7.49008 6.57001C7.53008 6.40001 7.60008 6.23001 7.63008 6.06001C7.64008 6.00001 7.65008 5.95001 7.65008 5.89001C7.65008 5.83001 7.65008 5.77001 7.65008 5.71001C7.65008 5.65001 7.65008 5.60001 7.63008 5.54001L7.61008 5.43001C7.59008 5.36001 7.57008 5.30001 7.54008 5.23001C7.47008 5.06001 7.38008 4.89001 7.31008 4.72001V4.76001ZM9.07008 4.53001C9.07008 4.53001 9.01008 4.49001 8.96008 4.49001C8.91008 4.49001 8.86008 4.52001 8.83008 4.56001C8.78008 4.64001 8.81008 4.73001 8.83008 4.82001L9.17008 4.66001C9.17008 4.66001 9.11008 4.57001 9.06008 4.53001H9.07008ZM9.28008 5.48001C9.44008 5.48001 9.58008 5.42001 9.72008 5.35001C9.77008 5.32001 9.82008 5.30001 9.86008 5.27001C10.0201 5.16001 10.1601 5.03001 10.3001 4.89001L9.15008 5.44001C9.15008 5.44001 9.23008 5.48001 9.28008 5.49001V5.48001ZM11.9301 3.83001C11.9301 3.83001 11.8701 3.85001 11.8501 3.87001C11.8201 3.90001 11.8101 3.92001 11.8101 3.96001C11.8101 4.03001 11.8101 4.09001 11.8801 4.12001C11.9201 4.14001 11.9701 4.14001 12.0201 4.14001L11.9801 3.82001C11.9801 3.82001 11.9601 3.82001 11.9401 3.82001L11.9301 3.83001ZM2.94008 6.77001C3.00008 6.96001 2.96008 7.14001 2.84008 7.31001C2.67008 7.55001 2.34008 7.73001 1.86008 7.88001C1.64008 7.94001 1.45008 7.99001 1.30008 8.01001C1.14008 8.03001 0.980078 8.04001 0.810078 8.04001L0.630078 7.44001C0.760078 7.45002 0.900078 7.46001 1.05008 7.45001C1.20008 7.45001 1.33008 7.42001 1.45008 7.39001C1.59008 7.35001 1.68008 7.30001 1.73008 7.23001C1.78008 7.16001 1.79008 7.10001 1.77008 7.04001C1.75008 6.96001 1.69008 6.92001 1.60008 6.91001C1.54008 6.91001 1.47008 6.91001 1.39008 6.94001L1.02008 7.05001L0.890078 6.62001L1.31008 6.50001C1.42008 6.47001 1.49008 6.42001 1.53008 6.36001C1.55008 6.32001 1.56008 6.28001 1.54008 6.23001C1.52008 6.17001 1.48008 6.13001 1.42008 6.11001C1.34008 6.09001 1.24008 6.09001 1.11008 6.13001C0.990078 6.16001 0.880078 6.21001 0.760078 6.27001C0.650078 6.33001 0.530078 6.41001 0.400078 6.53001L0.230078 5.94001C0.400078 5.83001 0.560078 5.75001 0.730078 5.67001C0.900078 5.60001 1.07008 5.54001 1.24008 5.49001C1.65008 5.37001 1.97008 5.36001 2.20008 5.46001C2.36008 5.53001 2.47008 5.65001 2.52008 5.81001C2.55008 5.92001 2.55008 6.03001 2.52008 6.13001C2.48008 6.25001 2.40008 6.34001 2.28008 6.41001C2.43008 6.39001 2.56008 6.41001 2.68008 6.48001C2.80008 6.55001 2.88008 6.65001 2.91008 6.78001L2.94008 6.77001ZM4.78008 6.31001V6.18001H4.71008C4.52008 6.19001 4.38008 6.22001 4.31008 6.27001C4.24008 6.32001 4.20008 6.39001 4.21008 6.49001C4.21008 6.56001 4.24008 6.61001 4.29008 6.65001C4.34008 6.69001 4.41008 6.71001 4.49008 6.70001C4.58008 6.70001 4.65008 6.66001 4.71008 6.59001C4.77008 6.52001 4.79008 6.43001 4.79008 6.30001L4.78008 6.31001ZM5.86008 7.15001L4.83008 7.21001L4.81008 6.92001H4.79008C4.70008 7.06001 4.57008 7.16001 4.41008 7.23001C4.30008 7.28001 4.16008 7.30001 3.99008 7.31001C3.72008 7.33001 3.51008 7.27001 3.36008 7.14001C3.22008 7.02001 3.14008 6.86001 3.13008 6.65001C3.12008 6.40001 3.19008 6.21001 3.35008 6.06001C3.48008 5.94001 3.68008 5.86001 3.93008 5.81001C4.08008 5.78001 4.29008 5.76001 4.58008 5.74001H4.74008V5.66001C4.74008 5.55001 4.67008 5.48001 4.54008 5.44001C4.44008 5.41001 4.32008 5.40001 4.18008 5.41001C4.10008 5.41001 4.02008 5.43001 3.92008 5.45001C3.73008 5.49001 3.55008 5.55001 3.37008 5.64001L3.34008 5.02001C3.51008 4.97001 3.69008 4.92001 3.88008 4.88001C4.07008 4.84001 4.26008 4.82001 4.44008 4.81001C4.81008 4.79001 5.10008 4.84001 5.33008 4.95001C5.61008 5.09001 5.77008 5.32001 5.78008 5.65001L5.86008 7.15001ZM7.74008 4.13001L7.60008 3.47001L5.26008 3.98001L5.40008 4.64001L6.02008 4.51001C5.94008 5.03001 6.59008 5.56001 6.48008 6.01001C6.41008 6.34001 6.29008 6.53001 6.28008 6.86001C6.28008 7.32001 6.41008 7.68001 6.73008 8.03001C6.87008 8.18001 7.07008 8.28001 7.24008 8.40001L7.40008 8.51001L7.44008 8.55001L7.43008 8.59001L7.39008 8.67001C7.17008 9.01001 6.84008 9.39001 6.96008 9.80001C7.05008 10.13 7.24008 10.35 7.49008 10.6L8.30008 9.91001C8.24008 9.85001 8.03008 9.69001 8.04008 9.58001C8.07008 9.42001 8.26008 9.25001 8.34008 9.11001C8.51008 8.82001 8.60008 8.53001 8.50008 8.22001C8.38008 7.85001 8.00008 7.68001 7.69008 7.46001C7.46008 7.29001 7.36008 7.11001 7.37008 6.83001C7.37008 6.50001 7.58008 6.20001 7.57008 5.87001C7.62008 5.28001 7.11008 4.93001 7.12008 4.26001L7.74008 4.13001ZM9.34008 4.73001L9.32008 4.69001C9.26008 4.55001 9.18008 4.47001 9.09008 4.43001C9.02008 4.40001 8.95008 4.40001 8.88008 4.43001C8.82008 4.46001 8.77008 4.50001 8.75008 4.56001C8.71008 4.66001 8.72008 4.78001 8.80008 4.93001L8.82008 4.97001L9.35008 4.72001L9.34008 4.73001ZM10.4401 4.73001L10.3501 4.55001C10.1401 4.12001 9.86008 3.86001 9.49008 3.79001C9.21008 3.74001 8.91008 3.79001 8.59008 3.94001C8.22008 4.11001 7.97008 4.35001 7.84008 4.66001C7.71008 4.96001 7.72008 5.28001 7.87008 5.61001C8.01008 5.91001 8.21008 6.12001 8.47008 6.24001C8.82008 6.40001 9.24008 6.37001 9.74008 6.13001C9.89008 6.06001 10.0401 5.97001 10.2001 5.87001C10.3601 5.77001 10.5101 5.66001 10.6401 5.55001L10.3801 5.00001C10.2501 5.13001 10.1401 5.23001 10.0401 5.30001C9.94008 5.37001 9.83008 5.44001 9.70008 5.50001C9.51008 5.59001 9.35008 5.62001 9.22008 5.59001C9.13008 5.56001 9.06008 5.51001 9.02008 5.41001L10.4401 4.73001ZM12.1501 4.24001L12.0801 3.71001H11.9901C11.8801 3.74001 11.8101 3.78001 11.7701 3.85001C11.7401 3.90001 11.7301 3.96001 11.7401 4.04001C11.7401 4.10001 11.7701 4.15001 11.8101 4.19001C11.8701 4.25001 11.9601 4.27001 12.0701 4.25001H12.1601L12.1501 4.24001ZM13.4201 5.33001L13.1001 2.99001L11.4801 3.21001C11.0801 3.26001 10.8201 3.40001 10.6701 3.63001C10.5801 3.78001 10.5401 3.96001 10.5701 4.18001C10.5901 4.33001 10.6501 4.45001 10.7401 4.54001C10.8301 4.63001 10.9401 4.69001 11.0801 4.71001L10.7301 5.70001L11.8901 5.54001L12.0601 4.73001L12.1801 4.71001L12.2901 5.49001L13.4101 5.34001L13.4201 5.33001ZM10.8301 4.73001L10.7801 4.70001C10.7201 4.66001 10.6601 4.61001 10.6101 4.55001C10.5801 4.51001 10.5601 4.47001 10.5401 4.43001C10.5101 4.37001 10.5001 4.32001 10.4801 4.26001C10.4701 4.18001 10.4601 4.11001 10.4601 4.03001C10.4601 3.98001 10.4601 3.92001 10.4701 3.87001C10.4701 3.83001 10.4901 3.79001 10.5001 3.76001C10.5201 3.70001 10.5501 3.64001 10.5801 3.59001C10.6001 3.57001 10.6101 3.54001 10.6301 3.52001C10.6901 3.45001 10.7501 3.40001 10.8201 3.34001C10.8801 3.30001 10.9401 3.27001 11.0101 3.24001C11.1001 3.21001 11.1801 3.18001 11.2701 3.16001C11.3301 3.15001 11.3901 3.14001 11.4501 3.13001L13.1701 2.89001L13.5201 5.43001L12.1901 5.61001L12.1001 4.98001L11.9601 5.64001L10.5701 5.83001L10.6301 5.65001C10.5401 5.72001 10.4501 5.79001 10.3501 5.86001C10.0901 6.03001 9.81008 6.19001 9.52008 6.30001C9.46008 6.32001 9.40008 6.34001 9.34008 6.36001C9.25008 6.38001 9.17008 6.40001 9.08008 6.41001C9.02008 6.41001 8.97008 6.41001 8.91008 6.41001C8.83008 6.41001 8.75008 6.41001 8.67008 6.39001C8.63008 6.39001 8.59008 6.37001 8.55008 6.36001C8.46008 6.33001 8.38008 6.29001 8.30008 6.25001C8.23008 6.21001 8.17008 6.17001 8.11008 6.12001C8.05008 6.07001 8.00008 6.01001 7.95008 5.95001C7.82008 5.78001 7.71008 5.58001 7.66008 5.37001C7.65008 5.33001 7.64008 5.28001 7.63008 5.24001C7.62008 5.15001 7.62008 5.07001 7.63008 4.98001C7.63008 4.91001 7.65008 4.85001 7.66008 4.79001C7.68008 4.73001 7.70008 4.66001 7.73008 4.60001C7.76008 4.53001 7.80008 4.46001 7.84008 4.39001C7.88008 4.33001 7.92008 4.28001 7.97008 4.23001C8.03008 4.16001 8.10008 4.10001 8.18008 4.04001L8.24008 4.00001C8.40008 3.89001 8.57008 3.80001 8.76008 3.74001C8.86008 3.71001 8.96008 3.68001 9.07008 3.66001C9.15008 3.65001 9.23008 3.64001 9.31008 3.65001C9.37008 3.65001 9.43008 3.65001 9.48008 3.67001C9.55008 3.68001 9.62008 3.70001 9.69008 3.73001C9.74008 3.75001 9.78008 3.77001 9.83008 3.79001C9.90008 3.83001 9.96008 3.87001 10.0201 3.92001C10.0601 3.95001 10.1001 3.99001 10.1301 4.03001C10.1901 4.09001 10.2401 4.15001 10.2801 4.22001C10.3301 4.29001 10.3701 4.37001 10.4101 4.45001L10.5601 4.77001L10.4101 4.84001L10.7101 5.47001L10.9501 4.79001C10.9501 4.79001 10.8701 4.76001 10.8301 4.74001V4.73001Z" fill="black"/>
<path fill-rule="evenodd" clip-rule="evenodd" d="M11.7001 2.63006L11.8001 2.61006L11.9201 2.80006L11.9501 2.58006L12.0401 2.56006L12.1001 2.85006H12.0301L11.9901 2.67006L11.9601 2.88006H11.8901L11.7801 2.72006L11.8201 2.91006H11.7501L11.6901 2.63006H11.7001ZM11.3901 2.70006L11.6501 2.64006V2.70006L11.5701 2.72006L11.6201 2.95006L11.5401 2.97006L11.4901 2.74006L11.4001 2.76006V2.70006H11.3901Z" fill="black"/>
<path fill-rule="evenodd" clip-rule="evenodd" d="M14.2001 6.81002L14.1401 6.55002C14.1401 6.55002 14.0701 6.62002 14.0601 6.65002C14.0401 6.68002 14.0401 6.73002 14.0601 6.78002V6.85002C14.0901 6.91002 14.1201 6.94002 14.1601 6.93002C14.1901 6.93002 14.2101 6.91002 14.2101 6.89002C14.2101 6.88002 14.2101 6.85002 14.2101 6.82002M14.4401 7.04002L14.2801 7.08002L14.2601 6.99002C14.2201 7.07002 14.1701 7.12002 14.1301 7.13002C14.0201 7.15002 13.9501 7.09002 13.9201 6.94002L13.8901 6.80002C13.8701 6.73002 13.8701 6.67002 13.8901 6.63002C13.9001 6.59002 13.9401 6.54002 14.0001 6.50002C14.0301 6.48002 14.0701 6.45002 14.1201 6.41002V6.39002C14.1201 6.39002 14.1001 6.34002 14.0901 6.33002C14.0801 6.32002 14.0601 6.31002 14.0301 6.32002C14.0001 6.32002 13.9801 6.35002 13.9801 6.38002C13.9801 6.38002 13.9801 6.42002 13.9901 6.47002L13.8401 6.50002V6.44002C13.8101 6.36002 13.8101 6.29002 13.8401 6.25002C13.8701 6.20002 13.9201 6.17002 14.0001 6.15002C14.0901 6.13002 14.1601 6.15002 14.2001 6.18002C14.2401 6.22002 14.2701 6.28002 14.2901 6.37002L14.4401 7.07002V7.04002ZM13.6601 6.24002C13.6601 6.24002 13.6601 6.24002 13.6601 6.22002C13.6601 6.22002 13.6601 6.21002 13.6601 6.20002L13.4901 6.24002C13.5301 6.42002 13.5101 6.57002 13.4401 6.67002L13.3501 6.26002L13.1801 6.30002L13.3901 7.26002L13.5601 7.22002L13.4701 6.82002C13.4701 6.82002 13.5101 6.78002 13.5201 6.76002C13.5801 6.83002 13.6401 6.97002 13.6901 7.19002L13.8601 7.15002C13.8301 7.03002 13.8101 6.93002 13.7801 6.87002C13.7401 6.77002 13.6801 6.69002 13.6101 6.63002C13.6701 6.50002 13.6901 6.37002 13.6601 6.22002V6.24002ZM13.2601 7.29002L13.0901 7.33002L13.0201 7.03002C13.0101 7.17002 12.9801 7.29002 12.9301 7.37002L12.7701 7.40002L12.5601 6.44002L12.7301 6.40002L12.8701 7.07002C12.8701 7.07002 12.9101 7.00002 12.9101 6.96002C12.9301 6.87002 12.9301 6.78002 12.9101 6.67002C12.9101 6.60002 12.8801 6.51002 12.8601 6.38002L13.0301 6.34002L13.2401 7.30002L13.2601 7.29002ZM12.6501 7.42002L12.4401 6.46002L12.2701 6.50002L12.3401 6.84002L12.2001 6.87002L12.1301 6.53002L11.9601 6.57002L12.1701 7.53002L12.3401 7.49002L12.2501 7.05002L12.3901 7.02002L12.4801 7.46002L12.6501 7.42002ZM11.8101 7.42002L11.6801 6.81002C11.6801 6.81002 11.6501 6.88002 11.6401 6.91002C11.6101 7.00002 11.6301 7.18002 11.6801 7.45002L11.8101 7.42002ZM12.1201 7.69002L11.9701 7.72002L11.9401 7.58002L11.6401 7.65002L11.6701 7.79002L11.5201 7.82002L11.4501 7.50002H11.5201C11.4501 7.16002 11.4401 6.93002 11.5001 6.80002C11.5201 6.75002 11.5501 6.70002 11.5901 6.66002L11.8201 6.61002L11.9901 7.39002L12.0701 7.37002L12.1401 7.69002H12.1201ZM11.3801 7.41002C11.3501 7.28002 11.3001 7.21002 11.2301 7.18002C11.2801 7.12002 11.2901 7.06002 11.2701 6.97002C11.2501 6.88002 11.2201 6.82002 11.1801 6.79002C11.1401 6.76002 11.0801 6.75002 10.9901 6.77002C10.9101 6.79002 10.8601 6.82002 10.8301 6.87002C10.8101 6.91002 10.8001 6.98002 10.8301 7.06002C10.8301 7.08002 10.8401 7.10002 10.8501 7.12002L11.0001 7.09002C11.0001 7.09002 10.9801 7.01002 10.9901 7.01002C10.9901 6.98002 11.0101 6.96002 11.0401 6.95002C11.0701 6.95002 11.0901 6.95002 11.1001 6.96002C11.1001 6.96002 11.1101 6.99002 11.1201 7.02002C11.1201 7.07002 11.1201 7.10002 11.1101 7.11002C11.1001 7.12002 11.0701 7.13002 11.0201 7.14002L11.0601 7.31002C11.1101 7.30002 11.1501 7.29002 11.1601 7.30002C11.1801 7.30002 11.2001 7.33002 11.2101 7.38002L11.2301 7.46002C11.2401 7.52002 11.2301 7.56002 11.1801 7.57002C11.1501 7.57002 11.1301 7.57002 11.1201 7.57002C11.1101 7.56002 11.0901 7.50002 11.0701 7.40002L10.9101 7.43002C10.9101 7.43002 10.9201 7.50002 10.9301 7.53002C10.9701 7.71002 11.0601 7.78002 11.2201 7.75002C11.3201 7.73002 11.3801 7.69002 11.4001 7.63002C11.4201 7.58002 11.4201 7.51002 11.4001 7.41002H11.3801ZM10.6301 7.59002L10.5701 7.33002C10.5701 7.33002 10.5001 7.41002 10.4901 7.43002C10.4701 7.46002 10.4701 7.51002 10.4901 7.56002V7.63002C10.5201 7.69002 10.5501 7.72002 10.5901 7.71002C10.6201 7.71002 10.6401 7.69002 10.6401 7.67002C10.6401 7.66002 10.6401 7.63002 10.6401 7.60002L10.6301 7.59002ZM10.8601 7.81002L10.7001 7.85002L10.6801 7.76002C10.6401 7.84002 10.5901 7.89002 10.5501 7.90002C10.4401 7.92002 10.3701 7.86002 10.3401 7.71002L10.3101 7.57002C10.2901 7.50002 10.2901 7.44002 10.3101 7.40002C10.3201 7.36002 10.3601 7.31002 10.4201 7.27002C10.4501 7.25002 10.4901 7.22002 10.5501 7.18002V7.16002C10.5501 7.16002 10.5301 7.11002 10.5201 7.10002C10.5101 7.09002 10.4901 7.08002 10.4601 7.09002C10.4301 7.09002 10.4101 7.12002 10.4101 7.15002C10.4101 7.15002 10.4101 7.19002 10.4201 7.24002L10.2701 7.27002V7.21002C10.2401 7.13002 10.2401 7.06002 10.2701 7.02002C10.3001 6.97002 10.3501 6.94002 10.4301 6.92002C10.5201 6.90002 10.5901 6.92002 10.6301 6.95002C10.6701 6.99002 10.7001 7.05002 10.7201 7.14002L10.8701 7.84002L10.8601 7.81002ZM10.0501 7.71002C10.0501 7.71002 10.0501 7.77002 10.0501 7.78002C10.0501 7.80002 10.0301 7.82002 10.0001 7.82002C9.9701 7.82002 9.9501 7.82002 9.9401 7.80002C9.9401 7.79002 9.9201 7.77002 9.9201 7.73002L9.8301 7.29002C9.8301 7.29002 9.8301 7.23002 9.8301 7.22002C9.8301 7.20002 9.8501 7.18002 9.8801 7.18002C9.9201 7.18002 9.9501 7.20002 9.9701 7.27002L10.0601 7.71002H10.0501ZM10.2201 7.62002L10.1401 7.25002C10.1201 7.16002 10.1001 7.10002 10.0801 7.07002C10.0401 7.01002 9.9901 6.98002 9.9201 6.99002C9.8801 6.99002 9.8601 7.02002 9.8301 7.04002C9.8101 7.06002 9.8001 7.09002 9.7801 7.13002L9.7601 7.04002L9.6001 7.08002L9.8401 8.18002L10.0201 8.14002L9.9701 7.91002C9.9701 7.91002 10.0301 7.96002 10.0401 7.97002C10.0701 7.99002 10.1001 7.99002 10.1301 7.98002C10.2101 7.96002 10.2501 7.91002 10.2601 7.83002C10.2601 7.79002 10.2601 7.72002 10.2301 7.62002H10.2201ZM9.6701 8.06002L9.5001 8.10002L9.3301 7.33002L9.2001 7.36002L9.3701 8.13002L9.2001 8.17002L8.9901 7.21002L9.4701 7.11002L9.6801 8.07002L9.6701 8.06002ZM5.8001 8.57002C5.8001 8.57002 5.7801 8.50002 5.7701 8.48002C5.7501 8.45002 5.7301 8.44002 5.6901 8.45002C5.6701 8.45002 5.6501 8.46002 5.6301 8.47002L5.6901 8.73002H5.7301C5.7301 8.73002 5.8001 8.69002 5.8001 8.67002C5.8001 8.65002 5.8001 8.62002 5.8001 8.58002V8.57002ZM5.9601 8.53002C5.9801 8.60002 5.9801 8.66002 5.9801 8.70002C5.9801 8.77002 5.9501 8.82002 5.9101 8.84002C5.8801 8.86002 5.8501 8.87002 5.8001 8.88002L5.5501 8.93002L5.3401 7.97002L5.5101 7.93002L5.5901 8.28002C5.5901 8.28002 5.6501 8.25002 5.6701 8.25002C5.7601 8.23002 5.8201 8.25002 5.8701 8.31002C5.9101 8.35002 5.9301 8.42002 5.9501 8.52002L5.9601 8.53002ZM6.2701 8.78002L6.1001 8.82002L5.8901 7.86002L6.0601 7.82002L6.2701 8.78002ZM5.4301 8.96002L5.2201 8.00002L5.0501 8.04002L5.1201 8.38002L4.9801 8.41002L4.9101 8.07002L4.7401 8.11002L4.9501 9.07002L5.1201 9.03002L5.0301 8.59002L5.1701 8.56002L5.2601 9.00002L5.4301 8.96002ZM4.8301 9.09002L4.6601 9.13002L4.5901 8.83002C4.5801 8.97002 4.5501 9.09002 4.5001 9.17002L4.3401 9.20002L4.1301 8.24002L4.3001 8.20002L4.4401 8.87002C4.4401 8.87002 4.4801 8.80002 4.4801 8.76002C4.5001 8.67002 4.5001 8.58002 4.4801 8.47002C4.4801 8.40002 4.4501 8.31002 4.4301 8.18002L4.6001 8.14002L4.8101 9.10002L4.8301 9.09002ZM4.1801 8.94002C4.1501 8.82002 4.1001 8.74002 4.0301 8.71002C4.0801 8.65002 4.0901 8.59002 4.0701 8.50002C4.0501 8.41002 4.0201 8.35002 3.9801 8.32002C3.9401 8.29002 3.8801 8.28002 3.7901 8.30002C3.7101 8.32002 3.6601 8.35002 3.6301 8.40002C3.6101 8.44002 3.6001 8.51002 3.6301 8.59002C3.6301 8.61002 3.6401 8.63002 3.6501 8.65002L3.8001 8.62002C3.8001 8.62002 3.7801 8.54002 3.7901 8.54002C3.7901 8.51002 3.8101 8.49002 3.8401 8.49002C3.8701 8.49002 3.8901 8.49002 3.9001 8.50002C3.9001 8.50002 3.9101 8.53002 3.9201 8.56002C3.9201 8.61002 3.9201 8.64002 3.9101 8.65002C3.9001 8.66002 3.8701 8.67002 3.8201 8.68002L3.8601 8.85002C3.9101 8.84002 3.9501 8.83002 3.9601 8.84002C3.9801 8.84002 4.0001 8.87002 4.0101 8.92002L4.0301 9.00002C4.0401 9.06002 4.0301 9.10002 3.9801 9.11002C3.9501 9.11002 3.9301 9.11002 3.9201 9.11002C3.9101 9.10002 3.8901 9.04002 3.8701 8.94002L3.7101 8.97002C3.7101 8.97002 3.7201 9.04002 3.7301 9.07002C3.7701 9.25002 3.8601 9.32002 4.0201 9.29002C4.1201 9.27002 4.1801 9.23002 4.2001 9.17002C4.2201 9.12002 4.2201 9.05002 4.2001 8.95002L4.1801 8.94002ZM3.4301 9.12002L3.3701 8.86002C3.3701 8.86002 3.3001 8.93002 3.2901 8.96002C3.2701 8.99002 3.2701 9.04002 3.2901 9.09002V9.16002C3.3201 9.22002 3.3501 9.25002 3.3901 9.24002C3.4201 9.24002 3.4401 9.22002 3.4401 9.20002C3.4401 9.19002 3.4401 9.16002 3.4401 9.13002L3.4301 9.12002ZM3.6601 9.34002L3.5001 9.37002L3.4801 9.28002C3.4401 9.36002 3.4001 9.41002 3.3501 9.42002C3.2401 9.44002 3.1701 9.38002 3.1401 9.23002L3.1101 9.09002C3.0901 9.02002 3.0901 8.96002 3.1101 8.92002C3.1301 8.88002 3.1601 8.83002 3.2201 8.79002C3.2501 8.77002 3.2901 8.74002 3.3501 8.70002V8.67002C3.3501 8.67002 3.3301 8.62002 3.3201 8.61002C3.3101 8.60002 3.2901 8.59002 3.2601 8.60002C3.2301 8.60002 3.2101 8.63002 3.2101 8.66002C3.2101 8.67002 3.2101 8.70002 3.2201 8.75002L3.0701 8.78002V8.72002C3.0401 8.64002 3.0401 8.57002 3.0701 8.53002C3.1001 8.48002 3.1501 8.45002 3.2301 8.43002C3.3201 8.41002 3.3901 8.43002 3.4301 8.46002C3.4701 8.50002 3.5001 8.56002 3.5201 8.65002L3.6701 9.35002L3.6601 9.34002ZM2.9501 8.68002L2.7801 8.72002L2.9501 9.49002L2.7801 9.53002L2.5701 8.57002L2.9201 8.50002L2.9601 8.68002H2.9501ZM2.4201 9.33002C2.4201 9.33002 2.4201 9.39002 2.4201 9.40002C2.4201 9.42002 2.4001 9.44002 2.3701 9.44002C2.3301 9.44002 2.3001 9.42002 2.2801 9.36002V9.29002C2.2801 9.29002 2.2601 9.20002 2.2801 9.16002C2.2901 9.14002 2.3201 9.10002 2.3601 9.06002L2.4201 9.32002V9.33002ZM2.6501 9.55002L2.5001 8.85002C2.4801 8.76002 2.4501 8.69002 2.4101 8.66002C2.3601 8.62002 2.3001 8.61002 2.2101 8.63002C2.1301 8.65002 2.0801 8.68002 2.0501 8.73002C2.0201 8.78002 2.0201 8.84002 2.0401 8.92002V8.98002L2.2101 8.95002C2.2001 8.90002 2.2001 8.87002 2.2001 8.86002C2.2001 8.83002 2.2201 8.81002 2.2501 8.80002C2.2801 8.80002 2.3001 8.80002 2.3101 8.81002C2.3101 8.82002 2.3301 8.84002 2.3401 8.87002V8.89002C2.3401 8.89002 2.2501 8.96002 2.2201 8.98002C2.1601 9.03002 2.1301 9.07002 2.1101 9.11002C2.1001 9.15002 2.1001 9.21002 2.1101 9.28002L2.1401 9.42002C2.1701 9.57002 2.2401 9.63002 2.3501 9.61002C2.3901 9.61002 2.4401 9.55002 2.4801 9.47002L2.5001 9.56002L2.6601 9.53002L2.6501 9.55002ZM2.0601 9.68002L1.8901 9.72002L1.7201 8.94002C1.6801 9.02002 1.6701 9.11002 1.6701 9.21002C1.6701 9.28002 1.6801 9.37002 1.7101 9.48002L1.7701 9.75002L1.6101 9.78002C1.5701 9.59002 1.5501 9.50002 1.5501 9.51002C1.5301 9.41002 1.5001 9.32002 1.4701 9.25002C1.4401 9.17002 1.3801 9.09002 1.3101 9.03002L1.4801 9.81002L1.3101 9.85002L1.1001 8.89002L1.3101 8.84002C1.4001 8.90002 1.4701 8.98002 1.5201 9.06002C1.5301 8.96002 1.5701 8.86002 1.6201 8.77002L1.8401 8.72002L2.0501 9.68002H2.0601Z" fill="black"/>
</g>
<defs>
<clipPath id="clip0_3790_7151">
<rect width="14.43" height="11.15" fill="white"/>
</clipPath>
</defs>
</svg>
