<svg width="70" height="70" viewBox="0 0 70 70" xmlns="http://www.w3.org/2000/svg">
    <path
        d="M42.2102 35.8903C42.2383 33.7288 43.4103 31.6836 45.2695 30.5515C44.0966 28.8924 42.132 27.8404 40.0881 27.7771C37.9081 27.5505 35.7946 29.0691 34.6837 29.0691C33.5513 29.0691 31.8409 27.7996 29.9991 27.8371C27.5984 27.9139 25.3603 29.2658 24.1923 31.3447C21.6815 35.6502 23.5543 41.9778 25.9594 45.458C27.1627 47.1622 28.5691 49.0658 30.4092 48.9983C32.2099 48.9243 32.8825 47.861 35.0561 47.861C37.2095 47.861 37.8405 48.9983 39.718 48.9553C41.6502 48.9243 42.8677 47.2436 44.0288 45.5233C44.8933 44.309 45.5586 42.967 46 41.5469C43.7293 40.5956 42.2128 38.3323 42.2102 35.8903Z" />
    <path
        d="M38.6639 25.4883C39.7174 24.2357 40.2365 22.6256 40.1108 21C38.5012 21.1674 37.0144 21.9294 35.9466 23.134C34.9025 24.3109 34.3591 25.8927 34.4618 27.4561C36.072 27.4725 37.6549 26.7313 38.6639 25.4883Z" />
</svg>