<svg xmlns="http://www.w3.org/2000/svg" width="20" height="20" viewBox="0 0 20 20">
    <path
        d="M14.9804 10C14.9804 10.251 14.8846 10.5018 14.6934 10.6931L8.67364 16.7128C8.29071 17.0957 7.66986 17.0957 7.28708 16.7128C6.90431 16.33 6.90431 15.7093 7.28708 15.3263L12.6137 10L7.28727 4.67373C6.90449 4.2908 6.90449 3.67013 7.28727 3.28738C7.67004 2.90427 8.2909 2.90427 8.67383 3.28738L14.6936 9.30697C14.8848 9.49835 14.9804 9.74923 14.9804 10Z" />
    <path fill-rule="evenodd" clip-rule="evenodd"
        d="M7.28708 16.7128C7.66986 17.0957 8.29071 17.0957 8.67364 16.7128L14.6934 10.6931C14.8846 10.5018 14.9804 10.251 14.9804 10C14.9804 9.74923 14.8848 9.49835 14.6936 9.30697L8.67383 3.28738C8.2909 2.90427 7.67004 2.90427 7.28727 3.28738C6.90449 3.67013 6.90449 4.29079 7.28727 4.67373L12.6137 10L7.28708 15.3263C6.90431 15.7093 6.90431 16.33 7.28708 16.7128ZM14.6228 9.37765L8.60312 3.35809C8.25924 3.01404 7.70172 3.01405 7.35801 3.35806C7.0143 3.70174 7.01424 4.25914 7.35799 4.60303L12.7551 10L7.35781 15.397C7.01405 15.741 7.01408 16.2984 7.35779 16.6421C7.7015 16.9859 8.25905 16.986 8.60293 16.6421L14.6227 10.6224C14.6227 10.6224 14.6226 10.6224 14.6227 10.6224C14.7944 10.4506 14.8804 10.2255 14.8804 10C14.8804 9.77464 14.7945 9.54951 14.6228 9.37765C14.6228 9.37764 14.6228 9.37766 14.6228 9.37765Z" />
</svg>