<svg xmlns="http://www.w3.org/2000/svg" viewBox="0 0 20 22">
    <path
        d="M19.37,4.88h0c-.13-.65-.45-1.23-.9-1.69-.16-.16-.31-.28-.46-.37l-.02-.02s-.04-.03-.06-.04l-.02-.02c-.07-.05-.14-.09-.22-.12h-.03c-.49-.25-.99-.38-1.55-.38h-1.25v-.84c0-.28-.23-.51-.51-.51s-.51,.23-.51,.51v.79H6.2v-.79c0-.27-.24-.51-.51-.51s-.51,.23-.51,.51v.79h-1.25c-.42,0-.84,.09-1.24,.25-.44,.18-.81,.43-1.12,.74-.16,.17-.32,.36-.47,.59-.14,.24-.25,.46-.34,.7-.04,.13-.09,.27-.11,.4-.04,.22-.07,.45-.07,.67v12.24c0,.87,.35,1.72,.97,2.34,.62,.62,1.45,.97,2.34,.97h12.26c.87,0,1.72-.35,2.34-.97,.62-.62,.97-1.45,.97-2.34V5.56c0-.22-.02-.45-.07-.67Zm-13.73-.34c.28,0,.51-.23,.51-.51v-.79h7.74v.79c0,.28,.23,.51,.51,.51s.51-.23,.51-.51v-.79h1.25c.42,0,.85,.12,1.19,.33,.14,.1,.29,.21,.42,.34,.33,.33,.55,.74,.63,1.16,.02,.15,.04,.32,.04,.47v1.69H1.62v-1.69c0-.16,.02-.31,.04-.47,.01-.09,.04-.19,.08-.29,.02-.05,.04-.11,.05-.15,.07-.17,.17-.33,.29-.5,.03-.04,.06-.08,.1-.12,.03-.04,.07-.08,.09-.11,.13-.13,.28-.24,.42-.33,.38-.22,.78-.33,1.19-.33h1.25v.79c0,.28,.23,.51,.51,.51Zm12.83,3.69v9.54c0,.63-.24,1.22-.67,1.65-.42,.42-1.02,.67-1.63,.67H3.91c-.61,0-1.21-.24-1.63-.67-.42-.43-.67-1.02-.67-1.63V8.23H18.47Z" />
</svg>