<svg width="16" height="17" viewBox="0 0 16 17" xmlns="http://www.w3.org/2000/svg">
    <path fill-rule="evenodd" clip-rule="evenodd"
        d="M1.53033 0.96967C1.23744 0.676777 0.762563 0.676777 0.46967 0.96967C0.176777 1.26256 0.176777 1.73744 0.46967 2.03033L6.93934 8.5L0.469783 14.9696C0.17689 15.2624 0.17689 15.7373 0.469783 16.0302C0.762676 16.3231 1.23755 16.3231 1.53044 16.0302L8 9.56066L14.4691 16.0298C14.762 16.3227 15.2369 16.3227 15.5298 16.0298C15.8227 15.7369 15.8227 15.262 15.5298 14.9691L9.06066 8.5L15.5299 2.03077C15.8228 1.73787 15.8228 1.263 15.5299 0.970107C15.237 0.677213 14.7621 0.677214 14.4692 0.970107L8 7.43934L1.53033 0.96967Z" />
</svg>