<svg width="20" height="20" viewBox="0 0 20 20" xmlns="http://www.w3.org/2000/svg">

    <path
        d="M15.1923 1L4.80769 1C3.79839 1.00183 2.83095 1.40358 2.11727 2.11727C1.40358 2.83095 1.00183 3.79839 1 4.80769L1 15.1923C1.00183 16.2016 1.40358 17.169 2.11727 17.8827C2.83095 18.5964 3.79839 18.9982 4.80769 19L15.1923 19C16.2016 18.9982 17.169 18.5964 17.8827 17.8827C18.5964 17.169 18.9982 16.2016 19 15.1923L19 4.80769C18.9982 3.79839 18.5964 2.83095 17.8827 2.11727C17.169 1.40358 16.2016 1.00183 15.1923 1ZM18.3077 15.1923C18.3059 16.018 17.9771 16.8093 17.3932 17.3932C16.8093 17.9771 16.018 18.3059 15.1923 18.3077L4.80769 18.3077C3.982 18.3059 3.19065 17.9771 2.6068 17.3932C2.02295 16.8093 1.69414 16.018 1.69231 15.1923L1.69231 4.80769C1.69414 3.982 2.02295 3.19065 2.6068 2.6068C3.19065 2.02295 3.982 1.69414 4.80769 1.69231L15.1923 1.69231C16.018 1.69414 16.8093 2.02295 17.3932 2.6068C17.9771 3.19065 18.3059 3.982 18.3077 4.80769L18.3077 15.1923Z" />
    <path fill-rule="evenodd" clip-rule="evenodd"
        d="M15.1935 0.800781C16.2557 0.802708 17.2738 1.22553 18.0249 1.97663C18.776 2.72773 19.1989 3.74589 19.2008 4.80811L19.2008 15.1931C19.1989 16.2553 18.776 17.2738 18.0249 18.0249C17.2738 18.776 16.2557 19.1989 15.1935 19.2008L4.80847 19.2008C3.74626 19.1989 2.72773 18.776 1.97663 18.0249C1.22553 17.2738 0.802708 16.2557 0.800782 15.1935L0.800781 4.80847C0.802708 3.74626 1.22553 2.72773 1.97663 1.97663C2.72773 1.22553 3.74589 0.802708 4.80811 0.800782L15.1935 0.800781ZM15.1931 19.0008L4.80847 19.0008C3.79917 18.999 2.83173 18.5972 2.11805 17.8835C1.40437 17.1698 1.00261 16.2024 1.00078 15.1931L1.00078 4.80847C1.00261 3.79917 1.40437 2.83173 2.11805 2.11805C2.83173 1.40437 3.79917 1.00261 4.80847 1.00078L15.1931 1.00078C16.2024 1.00261 17.1698 1.40437 17.8835 2.11805C18.5972 2.83173 18.999 3.79917 19.0008 4.80847L19.0008 15.1931C18.999 16.2024 18.5972 17.1698 17.8835 17.8835C17.1698 18.5972 16.2024 18.999 15.1931 19.0008ZM17.2526 17.2526C17.799 16.7061 18.1068 15.9654 18.1085 15.1926L18.1085 4.80892C18.1068 4.03612 17.799 3.29546 17.2526 2.74901C16.7062 2.2026 15.9656 1.89486 15.1929 1.89309L4.8087 1.89309C4.03598 1.89486 3.29541 2.2026 2.74901 2.74901C2.2026 3.29541 1.89486 4.03598 1.89309 4.8087L1.89309 15.1929C1.89486 15.9656 2.2026 16.7062 2.74901 17.2526C3.29546 17.799 4.03612 18.1068 4.80892 18.1085L15.1926 18.1085C15.9654 18.1068 16.7061 17.799 17.2526 17.2526ZM15.1931 18.3085C16.0188 18.3066 16.8101 17.9778 17.394 17.394C17.9778 16.8101 18.3066 16.0188 18.3085 15.1931L18.3085 4.80847C18.3066 3.98278 17.9778 3.19144 17.394 2.60758C16.8101 2.02373 16.0188 1.69492 15.1931 1.69309L4.80847 1.69309C3.98278 1.69492 3.19144 2.02373 2.60758 2.60758C2.02373 3.19144 1.69492 3.98278 1.69309 4.80847L1.69309 15.1931C1.69492 16.0188 2.02373 16.8101 2.60758 17.394C3.19144 17.9778 3.98278 18.3066 4.80847 18.3085L15.1931 18.3085Z" />
    <path
        d="M9.75482 13.9245C9.78766 13.9553 9.82501 13.981 9.86559 14.0006C9.95112 14.0282 10.0431 14.0282 10.1287 14.0006C10.1693 13.981 10.2066 13.9553 10.2394 13.9245L13.4587 10.6914C13.4911 10.6592 13.5169 10.6209 13.5344 10.5787C13.552 10.5366 13.5611 10.4913 13.5611 10.4456C13.5611 10.3999 13.552 10.3547 13.5344 10.3125C13.5169 10.2703 13.4911 10.232 13.4587 10.1999C13.394 10.1364 13.307 10.1009 13.2164 10.1009C13.1258 10.1009 13.0388 10.1364 12.9741 10.1999L10.3433 12.8445L10.3433 4.21139C10.3433 4.11958 10.3068 4.03154 10.2419 3.96662C10.177 3.9017 10.0889 3.86523 9.99713 3.86523C9.90533 3.86523 9.81728 3.9017 9.75236 3.96662C9.68745 4.03154 9.65098 4.11958 9.65098 4.21139L9.65098 12.8445L7.03405 10.2275C6.96935 10.1641 6.88235 10.1286 6.79175 10.1286C6.70114 10.1286 6.61414 10.1641 6.54944 10.2275C6.4901 10.2894 6.45584 10.3711 6.45328 10.4568C6.45072 10.5425 6.48005 10.6261 6.53559 10.6914L9.75482 13.9245Z" />
    <path fill-rule="evenodd" clip-rule="evenodd"
        d="M9.61388 14.0664L6.38911 10.8277L6.38402 10.8217C6.29639 10.7187 6.25011 10.5868 6.25415 10.4516C6.25819 10.3164 6.31225 10.1875 6.40587 10.0899L6.41015 10.0854C6.51224 9.98536 6.64957 9.92937 6.79253 9.92937C6.93548 9.92937 7.07274 9.98543 7.17484 10.0855L7.17626 10.0869L9.45176 12.3624L9.45176 4.21217C9.45176 4.06732 9.5093 3.9284 9.61172 3.82598C9.71415 3.72356 9.85306 3.66602 9.99791 3.66602C10.1428 3.66602 10.2817 3.72356 10.3841 3.82598C10.4865 3.9284 10.5441 4.06732 10.5441 4.21217L10.5441 12.3606L12.8348 10.0578C12.9369 9.95772 13.0742 9.90168 13.2171 9.90168C13.3601 9.90168 13.4974 9.95773 13.5995 10.0578L13.6003 10.0586C13.6515 10.1094 13.6921 10.1698 13.7198 10.2364C13.7476 10.3029 13.7618 10.3743 13.7618 10.4464C13.7618 10.5185 13.7476 10.5899 13.7198 10.6564C13.6922 10.7228 13.6518 10.783 13.6008 10.8337C13.6006 10.8338 13.601 10.8335 13.6008 10.8337L10.3773 14.071C10.3296 14.1158 10.2753 14.153 10.2164 14.1815L10.204 14.1875L10.1907 14.1918C10.0654 14.2321 9.93047 14.2321 9.80508 14.1918L9.79187 14.1875L9.77938 14.1815C9.72048 14.153 9.66627 14.1158 9.61861 14.071L9.61388 14.0664ZM13.4595 10.6922C13.4919 10.66 13.5176 10.6217 13.5352 10.5795C13.5528 10.5373 13.5618 10.4921 13.5618 10.4464C13.5618 10.4007 13.5528 10.3555 13.5352 10.3133C13.5176 10.2711 13.4919 10.2328 13.4595 10.2006C13.3947 10.1372 13.3077 10.1017 13.2171 10.1017C13.1265 10.1017 13.0395 10.1372 12.9748 10.2006L10.3441 12.8452L10.3441 4.21217C10.3441 4.12036 10.3076 4.03232 10.2427 3.9674C10.1778 3.90249 10.0897 3.86602 9.99791 3.86602C9.90611 3.86602 9.81806 3.90249 9.75314 3.9674C9.68823 4.03232 9.65176 4.12036 9.65176 4.21217L9.65176 12.8452L7.03484 10.2283C6.97013 10.1649 6.88313 10.1294 6.79253 10.1294C6.70192 10.1294 6.61493 10.1649 6.55022 10.2283C6.49088 10.2902 6.45662 10.3719 6.45406 10.4576C6.4515 10.5433 6.48083 10.6269 6.53637 10.6922L9.7556 13.9252C9.78844 13.9561 9.82579 13.9818 9.86637 14.0014C9.9519 14.0289 10.0439 14.0289 10.1295 14.0014C10.17 13.9818 10.2074 13.9561 10.2402 13.9252L13.4595 10.6922Z" />
    <path
        d="M14.1538 15.4414L5.84615 15.4414C5.75435 15.4414 5.6663 15.4779 5.60139 15.5428C5.53647 15.6077 5.5 15.6958 5.5 15.7876C5.5 15.8794 5.53647 15.9674 5.60139 16.0323C5.6663 16.0972 5.75435 16.1337 5.84615 16.1337H14.1538C14.2457 16.1337 14.3337 16.0972 14.3986 16.0323C14.4635 15.9674 14.5 15.8794 14.5 15.7876C14.5 15.6958 14.4635 15.6077 14.3986 15.5428C14.3337 15.4779 14.2457 15.4414 14.1538 15.4414Z" />
    <path fill-rule="evenodd" clip-rule="evenodd"
        d="M5.84694 15.2422L14.1546 15.2422C14.2995 15.2422 14.4384 15.2997 14.5408 15.4022C14.6432 15.5046 14.7008 15.6435 14.7008 15.7883C14.7008 15.9332 14.6432 16.0721 14.5408 16.1745C14.4384 16.277 14.2995 16.3345 14.1546 16.3345H5.84694C5.70208 16.3345 5.56317 16.277 5.46075 16.1745C5.35832 16.0721 5.30078 15.9332 5.30078 15.7883C5.30078 15.6435 5.35832 15.5046 5.46075 15.4022C5.56317 15.2997 5.70209 15.2422 5.84694 15.2422ZM5.84694 15.4422L14.1546 15.4422C14.2464 15.4422 14.3345 15.4787 14.3994 15.5436C14.4643 15.6085 14.5008 15.6965 14.5008 15.7883C14.5008 15.8801 14.4643 15.9682 14.3994 16.0331C14.3345 16.098 14.2464 16.1345 14.1546 16.1345H5.84694C5.75513 16.1345 5.66708 16.098 5.60217 16.0331C5.53725 15.9682 5.50078 15.8801 5.50078 15.7883C5.50078 15.6965 5.53725 15.6085 5.60217 15.5436C5.66708 15.4787 5.75513 15.4422 5.84694 15.4422Z" />

</svg>