<svg width="21" height="21" viewBox="0 0 21 21" xmlns="http://www.w3.org/2000/svg">

    <path fill-rule="evenodd" clip-rule="evenodd"
        d="M1.47266 4.98438C1.47266 3.60366 2.59194 2.48438 3.97266 2.48438H17.5727C18.9534 2.48438 20.0727 3.60366 20.0727 4.98438C20.0727 6.36509 18.9534 7.48438 17.5727 7.48438H3.97266C2.59194 7.48438 1.47266 6.36509 1.47266 4.98438ZM3.97266 3.48438C3.14423 3.48438 2.47266 4.15595 2.47266 4.98438C2.47266 5.8128 3.14423 6.48438 3.97266 6.48438H17.5727C18.4011 6.48438 19.0727 5.8128 19.0727 4.98438C19.0727 4.15595 18.4011 3.48438 17.5727 3.48438H3.97266ZM1.47266 10.9844C1.47266 10.7082 1.69651 10.4844 1.97266 10.4844H19.5727C19.8488 10.4844 20.0727 10.7082 20.0727 10.9844C20.0727 11.2605 19.8488 11.4844 19.5727 11.4844H1.97266C1.69651 11.4844 1.47266 11.2605 1.47266 10.9844ZM1.47266 14.9844C1.47266 14.7082 1.69651 14.4844 1.97266 14.4844H19.5727C19.8488 14.4844 20.0727 14.7082 20.0727 14.9844C20.0727 15.2605 19.8488 15.4844 19.5727 15.4844H1.97266C1.69651 15.4844 1.47266 15.2605 1.47266 14.9844ZM1.47266 18.9844C1.47266 18.7082 1.69651 18.4844 1.97266 18.4844H19.5727C19.8488 18.4844 20.0727 18.7082 20.0727 18.9844C20.0727 19.2605 19.8488 19.4844 19.5727 19.4844H1.97266C1.69651 19.4844 1.47266 19.2605 1.47266 18.9844Z" />

</svg>