<svg width="20" height="20" viewBox="0 0 20 20" xmlns="http://www.w3.org/2000/svg">
    <path
        d="M17.2213 8.45983L9.59802 15.9984C8.3349 17.2476 6.28679 17.2476 5.02367 15.9984C3.76055 14.7492 3.76055 12.7242 5.02367 11.4749L11.8849 4.69028C12.7272 3.85764 14.0921 3.85764 14.9344 4.69028C15.7766 5.52289 15.7766 6.87332 14.9344 7.70593L8.07306 14.4906C7.6522 14.9072 6.96949 14.9072 6.54809 14.4906C6.12723 14.0746 6.12723 13.3994 6.54809 12.9828L12.6469 6.95201L11.8844 6.19811L5.78616 12.2294C4.9439 13.062 4.9439 14.4124 5.78616 15.2451C6.62842 16.0777 7.99329 16.0777 8.83555 15.2451L15.6969 8.46037C16.96 7.21118 16.96 5.18611 15.6969 3.93689C14.4337 2.6877 12.3856 2.6877 11.1225 3.93689L3.87995 11.0985L3.9062 11.1247C2.59059 12.7975 2.70624 15.2156 4.2612 16.7529C5.81615 18.2901 8.26047 18.4053 9.95249 17.1036L9.97873 17.1298L17.9832 9.21427L17.2213 8.45983Z" />
</svg>