<svg width="20" height="20" viewBox="0 0 20 20" xmlns="http://www.w3.org/2000/svg">
    <path fill-rule="evenodd" clip-rule="evenodd"
        d="M0.5 4C0.5 3.72386 0.723858 3.5 1 3.5H18.6C18.8761 3.5 19.1 3.72386 19.1 4C19.1 4.27614 18.8761 4.5 18.6 4.5H1C0.723858 4.5 0.5 4.27614 0.5 4ZM0.5 8C0.5 7.72386 0.723858 7.5 1 7.5H18.6C18.8761 7.5 19.1 7.72386 19.1 8C19.1 8.27614 18.8761 8.5 18.6 8.5H1C0.723858 8.5 0.5 8.27614 0.5 8ZM0.5 12C0.5 11.7239 0.723858 11.5 1 11.5H18.6C18.8761 11.5 19.1 11.7239 19.1 12C19.1 12.2761 18.8761 12.5 18.6 12.5H1C0.723858 12.5 0.5 12.2761 0.5 12ZM0.5 16C0.5 15.7239 0.723858 15.5 1 15.5H18.6C18.8761 15.5 19.1 15.7239 19.1 16C19.1 16.2761 18.8761 16.5 18.6 16.5H1C0.723858 16.5 0.5 16.2761 0.5 16Z" />
</svg>