<svg width="71" height="70" viewBox="0 0 71 70" xmlns="http://www.w3.org/2000/svg">
    <path fill-rule="evenodd" clip-rule="evenodd"
        d="M39.5491 29.6004L28.8292 23.3835C28.4232 23.1403 27.9493 23 27.4423 23C26.4086 23 25.498 23.6188 25.0508 24.4884L25.1387 24.5762L34.8566 34.292L39.5491 29.6004ZM24.7589 25.6106C24.7582 25.635 24.7578 25.6595 24.7578 25.6841V44.3159C24.7578 44.34 24.7582 44.3639 24.7588 44.3878L34.1494 34.9991L24.7589 25.6106ZM25.0503 45.5105C25.4973 46.3806 26.4084 47 27.4423 47C27.9384 47 28.4042 46.8659 28.8037 46.6304L28.8354 46.6118L39.5686 40.4171L34.8566 35.7061L25.1387 45.4221L25.0503 45.5105ZM40.4653 39.8995L44.818 37.3873C45.66 36.9328 46.2315 36.0452 46.2315 35.0217C46.2315 34.0055 45.6676 33.1224 44.8341 32.6664L44.8246 32.6598L40.4442 30.1195L35.5638 34.9991L40.4653 39.8995Z" />
</svg>