<svg xmlns="http://www.w3.org/2000/svg" width="20" height="20" viewBox="0 0 20 20">
    <path fill-rule="evenodd" clip-rule="evenodd"
        d="M19.0118 0.988781C18.8406 0.817729 18.6233 0.700357 18.3863 0.651064C18.1494 0.601771 17.9033 0.622699 17.6781 0.711281L1.41245 7.11878C1.16927 7.2144 0.962449 7.38428 0.821418 7.60425C0.680387 7.82422 0.612334 8.08307 0.626943 8.34396C0.641552 8.60485 0.73808 8.85448 0.902788 9.05733C1.0675 9.26018 1.29199 9.40591 1.54432 9.47378L8.61807 11.3825L10.5268 18.4563C10.5947 18.7086 10.7404 18.9331 10.9433 19.0978C11.1461 19.2625 11.3958 19.359 11.6566 19.3737C11.9175 19.3883 12.1764 19.3202 12.3964 19.1792C12.6163 19.0382 12.7862 18.8313 12.8818 18.5882L19.2893 2.32253C19.3779 2.09733 19.3988 1.85118 19.3495 1.61426C19.3002 1.37734 19.1829 1.15996 19.0118 0.988781ZM11.7274 18.1082L9.8237 11.0532C9.76695 10.8436 9.65632 10.6526 9.5028 10.499C9.34929 10.3455 9.15825 10.2349 8.9487 10.1782L1.89245 8.27316L18.1193 1.88128L11.7274 18.1082Z" />
</svg>