<svg xmlns="http://www.w3.org/2000/svg" viewBox="0 0 33 32">
    <path
        d="M30.28,6.31h0s-.09-.04-.09-.04h0s-8.41-3.74-8.41-3.74h0c-.18-.08-.38-.08-.55,0l-9.73,3.89L4.19,3.15c-.53-.24-1.13-.19-1.62,.13-.49,.31-.78,.84-.78,1.42V23.77c0,.67,.4,1.28,1.01,1.55l8.37,3.72v.02h.05c.08,.04,.17,.05,.27,.05,.09,0,.17-.01,.24-.04l9.74-3.89,7.32,3.26c.53,.24,1.13,.19,1.61-.13,.49-.31,.78-.84,.78-1.42V7.81c0-.64-.36-1.22-.92-1.51Zm-.48,1.51V26.88c0,.1-.05,.2-.14,.25-.09,.06-.19,.07-.28,.03l-7.18-3.19V4.24l7.42,3.3c.11,.05,.18,.15,.18,.27Zm-9-3.61V23.95l-8.6,3.44V7.64l8.6-3.44Zm-10,3.42V27.35l-7.42-3.29h0c-.1-.06-.17-.16-.17-.28V4.71c0-.1,.05-.19,.14-.25h0c.07-.05,.18-.06,.28-.02l7.18,3.19Z" />
</svg>