<svg width="24" height="24" viewBox="0 0 24 24" xmlns="http://www.w3.org/2000/svg">
    <path
        d="M21.707 20.293L16.311 14.897C17.4054 13.4993 18 11.7752 18 10C18 5.589 14.411 2 10 2C5.589 2 2 5.589 2 10C2 14.411 5.589 18 10 18C11.775 17.9999 13.499 17.4057 14.897 16.312L20.293 21.708C20.4806 21.8955 20.7351 22.0008 21.0004 22.0007C21.2656 22.0006 21.52 21.8951 21.7075 21.7075C21.895 21.5199 22.0003 21.2654 22.0002 21.0001C22.0001 20.7349 21.8946 20.4805 21.707 20.293ZM4 10C4 6.691 6.691 4 10 4C13.309 4 16 6.691 16 10C16 13.309 13.309 16 10 16C6.691 16 4 13.309 4 10Z" />
</svg>