<svg xmlns="http://www.w3.org/2000/svg" width="20" height="20" viewBox="0 0 20 20">
    <path
        d="M18.5063 4.02779L13.2531 1.69341C13.175 1.65904 13.0875 1.65591 13.0094 1.69029L6.88125 4.14029L2.25625 2.08404C1.96562 1.95279 1.63125 1.98091 1.36562 2.15591C1.09687 2.32779 0.9375 2.62154 0.9375 2.94029V14.8581C0.9375 15.2268 1.15625 15.5643 1.49375 15.7143L6.74688 18.0487C6.7875 18.0675 6.83125 18.0768 6.875 18.0768C6.91562 18.0768 6.95313 18.0706 6.99063 18.055L13.1188 15.6049L17.7437 17.6612C18.0344 17.7893 18.3688 17.7643 18.6344 17.5893C18.9031 17.4174 19.0625 17.1206 19.0625 16.8049V4.88404C19.0625 4.51529 18.8438 4.17779 18.5063 4.02779ZM7.1875 4.69029L12.8125 2.44029V15.0549L7.1875 17.3049V4.69029ZM1.5625 14.8581V2.94029C1.5625 2.83404 1.61563 2.73716 1.70625 2.67779C1.75625 2.64341 1.81563 2.62779 1.875 2.62779C1.91875 2.62779 1.9625 2.63716 2.00312 2.65591L6.5625 4.68091V17.2831L1.74688 15.1456C1.63438 15.0924 1.5625 14.9799 1.5625 14.8581ZM18.4375 16.8018C18.4375 16.9081 18.3844 17.0049 18.2938 17.0643C18.2031 17.1237 18.0938 17.1331 17.9969 17.0893L13.4375 15.0612V2.45904L18.2531 4.59966C18.3656 4.64966 18.4375 4.76216 18.4375 4.88404V16.8018Z" />
    <path fill-rule="evenodd" clip-rule="evenodd"
        d="M13.3312 1.5113L18.5843 3.84567C18.9942 4.02783 19.2594 4.43705 19.2594 4.88469V16.8056C19.2594 17.188 19.0665 17.5485 18.7402 17.7577C18.4168 17.9702 18.011 17.9996 17.6599 17.8449L13.1115 15.8226L7.06442 18.2402C7.06393 18.2404 7.06343 18.2406 7.06293 18.2408C6.99778 18.2677 6.93398 18.2775 6.87187 18.2775C6.80009 18.2775 6.72823 18.2622 6.66139 18.2316C6.66091 18.2314 6.66042 18.2312 6.65994 18.2309L1.40941 15.8977C0.999547 15.7156 0.734375 15.3064 0.734375 14.8587V2.94094C0.734375 2.55502 0.927569 2.19786 1.2536 1.98881C1.57556 1.77724 1.98168 1.74288 2.33488 1.90216C2.33507 1.90225 2.33469 1.90208 2.33488 1.90216L6.88225 3.9239L12.9292 1.50633C13.0626 1.44889 13.208 1.45708 13.3312 1.5113ZM13.0063 1.69094C13.0844 1.65656 13.1719 1.65969 13.25 1.69406L18.5035 4.0276C18.841 4.1776 19.0594 4.51594 19.0594 4.88469V16.8056C19.0594 17.1212 18.9 17.4181 18.6313 17.59C18.3656 17.765 18.0312 17.79 17.7406 17.6618L13.1156 15.6056L6.9875 18.0556C6.95 18.0712 6.9125 18.0775 6.87187 18.0775C6.82812 18.0775 6.78438 18.0681 6.74375 18.0494L1.49063 15.715C1.15313 15.565 0.934375 15.2275 0.934375 14.8587V2.94094C0.934375 2.62219 1.09375 2.32844 1.3625 2.15656C1.62813 1.98156 1.9625 1.95344 2.25312 2.08469L6.87813 4.14094L13.0063 1.69094ZM1.81273 2.84573C1.77704 2.86911 1.75938 2.90387 1.75938 2.94094V14.8587C1.75938 14.9011 1.78457 14.9436 1.82754 14.9646L6.35938 16.9761V4.81157L1.91618 2.83817C1.90217 2.83171 1.88707 2.82844 1.87188 2.82844C1.84689 2.82844 1.82842 2.83501 1.81643 2.84325L1.81273 2.84573ZM6.55937 4.68156L2 2.65656C1.95938 2.63781 1.91563 2.62844 1.87188 2.62844C1.8125 2.62844 1.75313 2.64406 1.70313 2.67844C1.6125 2.73781 1.55937 2.83469 1.55937 2.94094V14.8587C1.55937 14.9806 1.63125 15.0931 1.74375 15.1462L6.55937 17.2837V4.68156ZM18.0761 16.9077C18.1088 16.9225 18.1459 16.9207 18.181 16.8977C18.2167 16.8743 18.2344 16.8395 18.2344 16.8025V4.88469C18.2344 4.84091 18.2082 4.80059 18.1688 4.78308L18.25 4.60031C18.3625 4.65031 18.4344 4.76281 18.4344 4.88469V16.8025C18.4344 16.9087 18.3813 17.0056 18.2906 17.065C18.2 17.1244 18.0906 17.1337 17.9938 17.09L13.4344 15.0619V2.45969L18.25 4.60031L18.1688 4.78308L13.6344 2.76746V14.9319L18.0761 16.9077ZM7.38438 4.82635L12.6094 2.73635V14.9202L7.38438 17.0102V4.82635ZM7.18437 17.3056V4.69094L12.8094 2.44094V15.0556L7.18437 17.3056Z" />
</svg>