<svg xmlns="http://www.w3.org/2000/svg" viewBox="0 0 20 20">
  <path
    d="M17.15,5.05v-1.68c0-.65-.3-1.23-.83-1.6-.53-.37-1.19-.46-1.8-.24l-6.92,2.53H3.52c-1.62,0-2.94,1.32-2.94,2.94v1.78c0,1.62,1.32,2.94,2.94,2.94h.03v4.2c0,1.29,1.05,2.34,2.34,2.34s2.34-1.05,2.34-2.34v-3.97l6.28,2.3c.6,.22,1.27,.13,1.79-.24,.53-.37,.84-.96,.84-1.6v-1.68c1.35-.26,2.35-1.46,2.35-2.84s-1-2.58-2.35-2.83Zm1.27,2.83c0,.79-.53,1.49-1.27,1.73v-3.45c.75,.23,1.27,.93,1.27,1.72Zm-2.35-4.51V12.4c0,.29-.14,.56-.38,.72-.24,.17-.54,.21-.81,.11l-6.65-2.43V4.98l6.65-2.43c.27-.1,.57-.06,.81,.1,.24,.17,.38,.43,.38,.72ZM7.16,11.71v4.2c0,.7-.57,1.26-1.26,1.26s-1.26-.57-1.26-1.26v-4.2h2.53Zm0-6.57v5.5H3.52c-1.03,0-1.86-.83-1.86-1.86v-1.78c0-1.03,.83-1.86,1.86-1.86h3.64Z" />
</svg>