<svg width="20" height="20" viewBox="0 0 20 20" xmlns="http://www.w3.org/2000/svg">
    <path fill-rule="evenodd" clip-rule="evenodd"
        d="M4.64645 14.6464C4.45118 14.8417 4.45118 15.1583 4.64645 15.3536C4.84171 15.5488 5.15829 15.5488 5.35355 15.3536L10.0019 10.7052L14.6503 15.3536C14.8455 15.5489 15.1621 15.5489 15.3574 15.3536C15.5526 15.1584 15.5526 14.8418 15.3574 14.6465L10.709 9.99812L15.3536 5.35355C15.5488 5.15829 15.5488 4.84171 15.3536 4.64645C15.1583 4.45118 14.8417 4.45118 14.6464 4.64645L10.0019 9.29101L5.35738 4.64652C5.16212 4.45126 4.84554 4.45126 4.65028 4.64652C4.45502 4.84178 4.45502 5.15837 4.65028 5.35363L9.29477 9.99812L4.64645 14.6464Z" />
</svg>