<svg width="70" height="71" viewBox="0 0 70 71" xmlns="http://www.w3.org/2000/svg">

    <path
        d="M42.0406 34.2905L35.8183 34.3093V28.2094C35.8186 28.0833 35.7939 27.9584 35.7458 27.8419C35.6977 27.7254 35.627 27.6195 35.5379 27.5304C35.4488 27.4413 35.3429 27.3706 35.2264 27.3225C35.1099 27.2744 34.985 27.2497 34.8589 27.25C34.7329 27.2497 34.608 27.2744 34.4915 27.3225C34.3749 27.3706 34.2691 27.4413 34.1799 27.5304C34.0908 27.6195 34.0201 27.7254 33.972 27.8419C33.9239 27.9584 33.8993 28.0833 33.8996 28.2094L33.9184 34.2906H27.9594C27.8333 34.2904 27.7084 34.315 27.5919 34.3631C27.4754 34.4112 27.3695 34.4819 27.2804 34.571C27.1913 34.6602 27.1206 34.766 27.0725 34.8825C27.0244 34.9991 26.9997 35.1239 27 35.25C26.9997 35.3761 27.0244 35.5009 27.0725 35.6174C27.1206 35.7339 27.1913 35.8398 27.2804 35.9289C27.3695 36.018 27.4754 36.0887 27.5919 36.1368C27.7084 36.1849 27.8333 36.2095 27.9594 36.2092H33.909V42.2906C33.9087 42.4167 33.9334 42.5416 33.9815 42.6581C34.0296 42.7746 34.1003 42.8804 34.1894 42.9696C34.2785 43.0587 34.3844 43.1294 34.5009 43.1775C34.6174 43.2256 34.7423 43.2502 34.8683 43.25C34.9944 43.2502 35.1192 43.2256 35.2358 43.1775C35.3523 43.1294 35.4581 43.0587 35.5472 42.9696C35.6364 42.8804 35.707 42.7746 35.7552 42.6581C35.8033 42.5416 35.8279 42.4167 35.8277 42.2906V36.2094H42.0406C42.1667 36.2096 42.2916 36.185 42.4081 36.1368C42.5246 36.0887 42.6304 36.0181 42.7196 35.9289C42.8087 35.8398 42.8794 35.7339 42.9275 35.6174C42.9756 35.5009 43.0002 35.3761 43 35.25C42.9998 34.9956 42.8986 34.7517 42.7188 34.5718C42.5389 34.3919 42.295 34.2907 42.0406 34.2905Z" />

</svg>