<svg width="30" height="30" viewBox="0 0 30 30" xmlns="http://www.w3.org/2000/svg">

    <path fill-rule="evenodd" clip-rule="evenodd"
        d="M6.79289 6.79304C7.18342 6.40252 7.81658 6.40252 8.20711 6.79304L23.2071 21.793C23.5976 22.1836 23.5976 22.8167 23.2071 23.2073C22.8166 23.5978 22.1834 23.5978 21.7929 23.2073L6.79289 8.20726C6.40237 7.81673 6.40237 7.18357 6.79289 6.79304Z" />
    <path fill-rule="evenodd" clip-rule="evenodd"
        d="M6.79304 23.2071C6.40252 22.8166 6.40252 22.1834 6.79304 21.7929L21.793 6.79289C22.1836 6.40237 22.8167 6.40237 23.2073 6.79289C23.5978 7.18342 23.5978 7.81658 23.2073 8.20711L8.20726 23.2071C7.81673 23.5976 7.18357 23.5976 6.79304 23.2071Z" />

</svg>