<svg xmlns="http://www.w3.org/2000/svg" width="20" height="21" viewBox="0 0 20 21">
    <path fill-rule="evenodd" clip-rule="evenodd"
        d="M9.71429 2.75195C8.29356 2.75195 6.89222 2.84047 5.51472 3.01263C4.966 3.08121 4.5 3.60995 4.5 4.30897V17.4922L6.65933 16.562C6.7856 16.5076 6.92869 16.5076 7.05496 16.562L9.71429 17.7075L12.3736 16.562C12.4999 16.5076 12.643 16.5076 12.7692 16.562L14.9286 17.4922V4.30897C14.9286 3.60995 14.4626 3.08121 13.9139 3.01263C12.5364 2.84047 11.135 2.75195 9.71429 2.75195ZM5.3907 2.02035C6.80921 1.84307 8.25196 1.75195 9.71429 1.75195C11.1766 1.75195 12.6194 1.84307 14.0379 2.02035C15.1663 2.16138 15.9286 3.18975 15.9286 4.30897V18.252C15.9286 18.4202 15.844 18.5771 15.7034 18.6696C15.5629 18.7621 15.3853 18.7777 15.2308 18.7112L12.5714 17.5656L9.9121 18.7112C9.78583 18.7656 9.64274 18.7656 9.51647 18.7112L6.85714 17.5656L4.19781 18.7112C4.0433 18.7777 3.86568 18.7621 3.72514 18.6696C3.58461 18.5771 3.5 18.4202 3.5 18.252V4.30897C3.5 3.18975 4.26232 2.16138 5.3907 2.02035ZM12.3402 6.80863C12.5426 6.99653 12.5543 7.3129 12.3664 7.51526L7.79497 12.4383C7.60707 12.6407 7.2907 12.6524 7.08835 12.4645C6.88599 12.2766 6.87427 11.9602 7.06217 11.7579L11.6336 6.8348C11.8215 6.63245 12.1379 6.62073 12.3402 6.80863ZM7.21429 7.79041C7.21429 7.37988 7.53181 6.98272 8 6.98272C8.46819 6.98272 8.78571 7.37988 8.78571 7.79041C8.78571 8.20095 8.46819 8.59811 8 8.59811C7.53181 8.59811 7.21429 8.20095 7.21429 7.79041ZM10.6429 11.4827C10.6429 11.0722 10.9604 10.675 11.4286 10.675C11.8968 10.675 12.2143 11.0722 12.2143 11.4827C12.2143 11.8933 11.8968 12.2904 11.4286 12.2904C10.9604 12.2904 10.6429 11.8933 10.6429 11.4827Z" />
</svg>