<svg width="60" height="60" viewBox="0 0 60 60" xmlns="http://www.w3.org/2000/svg">
    <path
        d="M38.0866 36.9121L33.5899 32.4155C34.5019 31.2507 34.9974 29.814 34.9974 28.3346C34.9974 24.6588 32.0066 21.668 28.3307 21.668C24.6549 21.668 21.6641 24.6588 21.6641 28.3346C21.6641 32.0105 24.6549 35.0013 28.3307 35.0013C29.8099 35.0013 31.2465 34.5061 32.4116 33.5946L36.9082 38.0913C37.0646 38.2476 37.2766 38.3353 37.4977 38.3352C37.7187 38.3351 37.9307 38.2473 38.087 38.0909C38.2432 37.9345 38.331 37.7225 38.3309 37.5014C38.3308 37.2804 38.2429 37.0684 38.0866 36.9121ZM23.3307 28.3346C23.3307 25.5771 25.5732 23.3346 28.3307 23.3346C31.0882 23.3346 33.3307 25.5771 33.3307 28.3346C33.3307 31.0921 31.0882 33.3346 28.3307 33.3346C25.5732 33.3346 23.3307 31.0921 23.3307 28.3346Z" />
</svg>