<svg width="60" height="60" viewBox="0 0 60 60" xmlns="http://www.w3.org/2000/svg">
    <path fill-rule="evenodd" clip-rule="evenodd"
        d="M34.788 37.8233C35.0295 38.0057 35.3407 38.0513 35.6182 37.9393C35.8957 37.8265 36.0997 37.5737 36.1612 37.2673C36.8129 34.0001 38.3939 25.7305 38.9871 22.7585C39.0321 22.5345 38.9571 22.3017 38.7921 22.1521C38.6271 22.0025 38.3984 21.9593 38.1944 22.0401C35.0497 23.2817 25.3652 27.1577 21.4068 28.7201C21.1555 28.8193 20.992 29.0769 21.0003 29.3593C21.0093 29.6425 21.1878 29.8881 21.445 29.9705C23.2202 30.5369 25.5504 31.3249 25.5504 31.3249C25.5504 31.3249 26.6394 34.8329 27.2072 36.6169C27.2784 36.8409 27.4427 37.0169 27.6594 37.0777C27.8754 37.1377 28.1064 37.0745 28.2676 36.9121C29.1796 35.9937 30.5896 34.5737 30.5896 34.5737C30.5896 34.5737 33.2685 36.6689 34.788 37.8233ZM26.5307 30.8817L27.7899 35.3121L28.0696 32.5065C28.0696 32.5065 32.9348 27.8257 35.7082 25.1577C35.7892 25.0793 35.8005 24.9481 35.733 24.8561C35.6662 24.7641 35.5432 24.7425 35.451 24.8049C32.2365 26.9945 26.5307 30.8817 26.5307 30.8817Z" />
</svg>