<svg width="25" height="24" viewBox="0 0 25 24" xmlns="http://www.w3.org/2000/svg">
    <path fill-rule="evenodd" clip-rule="evenodd"
        d="M17.288 19.8233C17.5295 20.0057 17.8407 20.0513 18.1182 19.9393C18.3957 19.8265 18.5997 19.5737 18.6612 19.2673C19.3129 16.0001 20.8939 7.73052 21.4871 4.75852C21.5321 4.53452 21.4571 4.30172 21.2921 4.15212C21.1271 4.00252 20.8984 3.95932 20.6944 4.04012C17.5497 5.28172 7.8652 9.15772 3.90679 10.7201C3.65554 10.8193 3.49205 11.0769 3.5003 11.3593C3.5093 11.6425 3.68779 11.8881 3.94504 11.9705C5.72025 12.5369 8.05044 13.3249 8.05044 13.3249C8.05044 13.3249 9.13942 16.8329 9.70716 18.6169C9.7784 18.8409 9.94265 19.0169 10.1594 19.0777C10.3754 19.1377 10.6064 19.0745 10.7676 18.9121C11.6796 17.9937 13.0896 16.5737 13.0896 16.5737C13.0896 16.5737 15.7685 18.6689 17.288 19.8233ZM9.03067 12.8817L10.2899 17.3121L10.5696 14.5065C10.5696 14.5065 15.4348 9.82573 18.2082 7.15772C18.2892 7.07932 18.3005 6.94812 18.233 6.85612C18.1662 6.76412 18.0432 6.74252 17.951 6.80492C14.7365 8.99452 9.03067 12.8817 9.03067 12.8817Z" />
</svg>