<svg xmlns="http://www.w3.org/2000/svg" viewBox="0 0 22 22">
    <path
        d="M13.32,6.57c0-.12-.05-.24-.13-.33l-.25-.26s-.09-.08-.15-.1c-.06-.02-.12-.04-.18-.04s-.12,.01-.18,.04c-.06,.02-.11,.06-.15,.1s-.08,.1-.1,.15c-.02,.06-.03,.12-.03,.18s.01,.12,.03,.18c.02,.06,.06,.11,.1,.15l.25,.26c.08,.09,.2,.14,.32,.14s.24-.05,.32-.14c.08-.09,.13-.21,.13-.33Z" />
    <path
        d="M14.29,7.8c.02-.06,.03-.12,.03-.18,0-.06-.01-.12-.03-.18-.02-.06-.06-.11-.1-.15h0s0,0,0,0c0,0,0,0,0,0h0l-.25-.26h0s0,0,0,0c-.04-.04-.09-.08-.15-.1-.06-.02-.12-.04-.18-.04-.06,0-.12,.01-.18,.04h0c-.06,.02-.11,.06-.15,.1-.04,.04-.08,.1-.1,.15-.02,.06-.03,.12-.03,.18,0,.06,.01,.12,.03,.18,.02,.06,.06,.11,.1,.15h0s0,0,0,0h0l.25,.26h0s0,0,0,0h0s0,0,0,0c.04,.04,.09,.08,.15,.1,.06,.02,.12,.04,.18,.04,.06,0,.12-.01,.18-.04,.06-.02,.11-.06,.15-.1,.04-.04,.08-.1,.1-.15Zm-.17-.44h0s0,0,0,0Zm-.25-.26h0s0,0,0,0h0Zm-.25,.8h0s0,0,0,0h0Z" />
    <path
        d="M15.3,8.86c.02-.06,.03-.12,.03-.18s-.01-.12-.03-.18c-.02-.06-.06-.11-.1-.15l-.25-.26s-.09-.08-.15-.1c-.06-.02-.12-.04-.18-.04s-.12,.01-.18,.04c-.06,.02-.11,.06-.15,.1-.04,.04-.08,.1-.1,.15-.02,.06-.03,.12-.03,.18s.01,.12,.03,.18c.02,.06,.06,.11,.1,.15l.25,.26s.09,.08,.15,.1c.06,.02,.12,.04,.18,.04s.12-.01,.18-.04c.06-.02,.11-.06,.15-.1,.04-.04,.08-.1,.1-.15Z" />
    <path
        d="M20.74,6.6h0s-1.59-1.66-1.59-1.66h0c-.09-.1-.21-.15-.34-.15-.13,0-.25,.05-.35,.14h0c-.17,.16-.38,.24-.61,.24-.22,0-.44-.1-.6-.27-.16-.17-.25-.39-.26-.63,0-.24,.08-.47,.23-.64h0c.09-.1,.13-.22,.13-.36,0-.13-.05-.26-.14-.35l-.07,.07h0s.06-.07,.06-.07h0s-1.59-1.66-1.59-1.66h0s0,0,0,0c-.23-.24-.53-.37-.86-.37s-.63,.13-.86,.37h0S4.57,11.03,4.57,11.03H2.11v.1h0v-.1c-.32,0-.63,.14-.86,.38-.23,.24-.35,.56-.35,.89h0v2.34h0c0,.13,.05,.26,.14,.36,.09,.1,.21,.15,.34,.15h0c.22,.01,.44,.11,.59,.28,.16,.17,.24,.4,.24,.64s-.09,.47-.24,.64c-.16,.17-.37,.27-.59,.28h0c-.13,0-.25,.06-.34,.15-.09,.1-.14,.22-.14,.36h0v2.34h0c0,.33,.12,.65,.35,.89,.23,.24,.53,.37,.86,.37H18.75c.32,0,.63-.14,.86-.37,.23-.24,.35-.56,.35-.89h0v-2.34h0c0-.13-.05-.26-.14-.36-.09-.1-.21-.15-.34-.15h0c-.22-.01-.44-.11-.59-.28-.16-.17-.24-.4-.24-.64s.09-.47,.24-.64c.16-.17,.37-.27,.59-.28h0c.13,0,.25-.06,.34-.15,.09-.1,.14-.22,.14-.36h0v-2.34h0c0-.33-.12-.65-.35-.89-.23-.24-.53-.37-.86-.37h-.54l2.53-2.65h0s-.07-.07-.07-.07h0s.07,.07,.07,.07c.23-.24,.35-.56,.35-.89,0-.33-.13-.65-.36-.89Zm-.07,.07h0s0,0,0,0Zm-1.53,5.63h-.1s0,0,0,0v1.98c-.36,.11-.69,.32-.93,.62-.25,.33-.39,.74-.39,1.16s.14,.83,.39,1.16c.24,.31,.56,.52,.93,.62v1.98h0s.1,0,.1,0h0s-.1,0-.1,0c0,.09-.03,.17-.09,.23-.06,.06-.13,.09-.21,.09h-3.88c.03-.06,.05-.13,.05-.2h-.1s.1,0,.1,0h0v-.37c0-.12-.05-.24-.13-.33-.09-.09-.2-.14-.32-.14s-.24,.05-.32,.14c-.09,.09-.13,.21-.13,.33v.37h0s.1,0,.1,0h-.1c0,.07,.02,.14,.05,.2H2.11c-.08,0-.15-.03-.21-.09-.06-.06-.09-.14-.09-.23h-.1s.1,0,.1,0h0v-1.98c.36-.11,.69-.32,.93-.62,.25-.33,.39-.74,.39-1.16s-.14-.83-.39-1.16c-.24-.31-.56-.52-.93-.62v-1.98h0c0-.09,.03-.17,.09-.23,.06-.06,.13-.09,.21-.09H14.03s-.03,.09-.03,.14h0v.37c0,.12,.05,.24,.13,.33,.09,.09,.2,.14,.32,.14s.24-.05,.32-.14c.09-.09,.13-.21,.13-.33v-.37h0s-.1,0-.1,0h.1s-.01-.1-.03-.14h3.86c.08,0,.15,.03,.21,.09,.06,.06,.09,.14,.09,.23h.1ZM2.11,20.25h0s0,0,0,0Zm-.39-2.47h0Zm0-3.44h0ZM20.1,7.72l-2.74,2.86s-.05-.09-.08-.13l-.06,.05,.02-.02,.04-.03h0s-.25-.26-.25-.26c-.04-.04-.09-.08-.15-.1h0c-.06-.02-.12-.04-.18-.04s-.12,.01-.18,.04c-.06,.02-.11,.06-.15,.1-.04,.04-.08,.1-.1,.15-.02,.06-.03,.12-.03,.18s.01,.12,.03,.18c.02,.06,.06,.11,.1,.15l.17,.18H5.86l5.38-5.61c.02,.06,.05,.11,.09,.16h0s.07-.07,.07-.07h0s-.07,.07-.07,.07l.25,.26h0s.09,.08,.15,.1c.06,.02,.12,.04,.18,.04,.06,0,.12-.01,.18-.04,.06-.02,.11-.06,.15-.1,.04-.04,.08-.1,.1-.15,.02-.06,.03-.12,.03-.18,0-.06-.01-.12-.03-.18-.02-.06-.06-.11-.1-.15h0s-.25-.26-.25-.26l-.07,.07h0s.07-.07,.07-.07h0s-.1-.08-.16-.1l2.75-2.87h0c.06-.06,.13-.09,.21-.09,.08,0,.15,.03,.21,.09h0s1.34,1.4,1.34,1.4c-.19,.34-.27,.73-.23,1.12,.05,.42,.23,.81,.51,1.11,.29,.3,.66,.49,1.07,.54,.38,.04,.75-.05,1.08-.24l1.34,1.4h0c.06,.06,.09,.14,.09,.22s-.03,.17-.09,.23h0Zm-7.94-2.48h0Zm-.54-.37h0Zm2.89-3.01h0s0,0,0,0Zm2.81,8.91h0Zm2.86-2.99h0s0,0,0,0Zm-1.63-2.78h0s0,0,0,0Zm-1.38-1.43h0s0,0,0,0ZM1,12.3h0s-.02,0-.02,0h.02Zm.38,2.75h0s0,0,0,0Zm-.38,4.78h0s-.02,0-.02,0h.02Zm18.86,0h0s.02,0,.02,0h-.02Zm-.38-2.75h0s0,0,0,0Zm.38-4.78h0s.02,0,.02,0h-.02Z" />
    <path
        d="M14.41,17.63c-.12,0-.24,.05-.32,.14-.08,.09-.13,.21-.13,.33v.37c0,.12,.05,.24,.13,.33,.09,.09,.2,.14,.32,.14s.24-.05,.32-.14c.08-.09,.13-.21,.13-.33v-.37c0-.12-.05-.24-.13-.33-.09-.09-.2-.14-.32-.14Z" />
    <path
        d="M16.21,9.41l-.25-.26s-.09-.08-.15-.1c-.06-.02-.12-.04-.18-.04s-.12,.01-.18,.04c-.06,.02-.11,.06-.15,.1-.04,.04-.08,.1-.1,.15-.02,.06-.03,.12-.03,.18s.01,.12,.03,.18c.02,.06,.06,.11,.1,.15l.25,.26s.09,.08,.15,.1c.06,.02,.12,.04,.18,.04s.12-.01,.18-.04c.06-.02,.11-.06,.15-.1,.04-.04,.08-.1,.1-.15s.03-.12,.03-.18-.01-.12-.03-.18-.06-.11-.1-.15Z" />
    <path
        d="M10.21,15.51l-2.97-1.9h0c-.1-.06-.21-.1-.33-.1-.12,0-.23,.03-.33,.09-.1,.06-.19,.15-.24,.25s-.09,.22-.09,.34v3.81h0c0,.09,.02,.18,.05,.26,.03,.08,.08,.16,.14,.22s.13,.11,.21,.15c.08,.03,.16,.05,.25,.05h0c.12,0,.24-.04,.34-.1l-.05-.08h0s.05,.08,.05,.08h0s2.97-1.9,2.97-1.9l-.04-.06h0s.03,.06,.03,.06h0c.1-.06,.17-.15,.23-.25,.05-.1,.08-.22,.08-.33,0-.12-.03-.23-.08-.33-.05-.1-.13-.19-.23-.25Zm-3.05-.84l2.22,1.42-2.22,1.42v-2.85Zm.05-1.01l-.02,.03h0l.02-.03Zm-.31,4.91h0Z" />
    <path
        d="M14.41,14.65c-.12,0-.24,.05-.32,.14-.08,.09-.13,.21-.13,.33v.37c0,.12,.05,.24,.13,.33,.09,.09,.2,.14,.32,.14s.24-.05,.32-.14c.08-.09,.13-.21,.13-.33v-.37c0-.12-.05-.24-.13-.33-.09-.09-.2-.14-.32-.14Z" />
    <path
        d="M14.41,13.15c-.12,0-.24,.05-.32,.14-.08,.09-.13,.21-.13,.33v.37c0,.12,.05,.24,.13,.33,.09,.09,.2,.14,.32,.14s.24-.05,.32-.14c.08-.09,.13-.21,.13-.33v-.37c0-.12-.05-.24-.13-.33-.09-.09-.2-.14-.32-.14Z" />
    <path
        d="M14.41,16.14c-.12,0-.24,.05-.32,.14-.08,.09-.13,.21-.13,.33v.37c0,.12,.05,.24,.13,.33,.09,.09,.2,.14,.32,.14s.24-.05,.32-.14c.08-.09,.13-.21,.13-.33v-.37c0-.12-.05-.24-.13-.33-.09-.09-.2-.14-.32-.14Z" />
</svg>