<svg width="20" height="20" viewBox="0 0 20 20" xmlns="http://www.w3.org/2000/svg">
    <path
        d="M12.7841 0.078125H7.21094C6.43563 0.078125 5.80469 0.709063 5.80469 1.48438V18.5156C5.80469 19.2909 6.43563 19.9219 7.21094 19.9219H12.7841C13.5594 19.9219 14.1903 19.2909 14.1903 18.5156V1.48438C14.1903 0.709063 13.5594 0.078125 12.7841 0.078125ZM13.2528 18.5156C13.2528 18.7741 13.0425 18.9844 12.7841 18.9844H7.21094C6.9525 18.9844 6.74219 18.7741 6.74219 18.5156V1.48438C6.74219 1.22594 6.9525 1.01562 7.21094 1.01562H12.7841C13.0425 1.01562 13.2528 1.22594 13.2528 1.48438V18.5156Z" />
    <path
        d="M10.0025 1.64062C8.69594 1.64062 7.63281 2.70375 7.63281 4.01031C7.63281 5.31719 8.69594 6.38 10.0025 6.38C11.3094 6.38 12.3722 5.31687 12.3722 4.01031C12.3722 2.70375 11.3094 1.64062 10.0025 1.64062ZM10.0025 5.44281C9.21281 5.44281 8.57031 4.80031 8.57031 4.01062C8.57031 3.22094 9.21281 2.57844 10.0025 2.57844C10.7922 2.57844 11.4347 3.22094 11.4347 4.01062C11.4347 4.8 10.7922 5.44281 10.0025 5.44281Z" />
    <path
        d="M10.0025 7.62891C8.69594 7.62891 7.63281 8.69203 7.63281 9.99859C7.63281 11.3052 8.69594 12.3683 10.0025 12.3683C11.3094 12.3683 12.3722 11.3055 12.3722 9.99859C12.3722 8.69172 11.3094 7.62891 10.0025 7.62891ZM10.0025 11.4308C9.21281 11.4308 8.57031 10.7883 8.57031 9.99859C8.57031 9.20891 9.21281 8.56641 10.0025 8.56641C10.7922 8.56641 11.4347 9.20891 11.4347 9.99859C11.4347 10.7883 10.7922 11.4308 10.0025 11.4308Z" />
    <path
        d="M10.0025 13.6211C8.69594 13.6211 7.63281 14.6839 7.63281 15.9908C7.63281 17.2977 8.69594 18.3608 10.0025 18.3608C11.3094 18.3608 12.3722 17.2977 12.3722 15.9908C12.3722 14.6839 11.3094 13.6211 10.0025 13.6211ZM10.0025 17.4233C9.21281 17.4233 8.57031 16.7805 8.57031 15.9908C8.57031 15.2011 9.21281 14.5586 10.0025 14.5586C10.7922 14.5586 11.4347 15.2011 11.4347 15.9908C11.4347 16.7805 10.7922 17.4233 10.0025 17.4233Z" />
</svg>