<svg width="60" height="60" viewBox="0 0 60 60" xmlns="http://www.w3.org/2000/svg">
    <path fill-rule="evenodd" clip-rule="evenodd"
        d="M38.9336 25.1562C39.0727 24.7156 38.9336 24.3953 38.3184 24.3953H36.2727C35.7566 24.3953 35.5184 24.6758 35.3793 24.9758C35.3793 24.9758 34.327 27.5383 32.8574 29.1996C32.3809 29.6801 32.1625 29.8402 31.9043 29.8402C31.7652 29.8402 31.5863 29.6801 31.5863 29.2398V25.1355C31.5863 24.6152 31.4277 24.375 30.9906 24.375H27.7734C27.4555 24.375 27.257 24.6152 27.257 24.8555C27.257 25.3559 27.9918 25.4762 28.0711 26.8773V29.9219C28.0711 30.5824 27.9539 30.7031 27.6938 30.7031C26.9988 30.7031 25.3109 28.1207 24.2984 25.1781C24.1016 24.5953 23.9016 24.375 23.3852 24.375H21.3199C20.7242 24.375 20.625 24.6551 20.625 24.9555C20.625 25.4961 21.3199 28.2184 23.8617 31.8215C25.5496 34.2824 27.9523 35.6051 30.1168 35.6051C31.4277 35.6051 31.5863 35.3047 31.5863 34.8043V32.9426C31.5863 32.3422 31.7055 32.2422 32.1227 32.2422C32.4203 32.2422 32.9566 32.402 34.168 33.5832C35.5578 34.9844 35.7961 35.625 36.5707 35.625H38.616C39.2117 35.625 39.4898 35.3246 39.3309 34.7441C39.1523 34.1637 38.477 33.323 37.6031 32.3223C37.1266 31.7621 36.4117 31.1414 36.1934 30.841C35.8957 30.4406 35.975 30.2805 36.1934 29.9203C36.1734 29.9203 38.6758 26.357 38.9336 25.1547" />
</svg>