<svg xmlns="http://www.w3.org/2000/svg" xmlns:xlink="http://www.w3.org/1999/xlink" viewBox="0 0 32 32">
    <path
        d="M31.4,13.74c-.44-2.96-1.71-5.72-3.68-7.98l-.02-.02s-.07-.08-.1-.11c-1.47-1.65-3.23-2.94-5.25-3.84S18.2,.43,15.99,.43s-4.35,.46-6.36,1.36c-2.01,.9-3.78,2.2-5.23,3.83-.05,.04-.09,.09-.12,.14v.02c-1.97,2.25-3.24,5-3.67,7.96-.44,2.96-.01,5.97,1.23,8.7s3.23,5.03,5.74,6.65,5.43,2.48,8.43,2.48,5.91-.86,8.43-2.48c2.52-1.62,4.51-3.92,5.74-6.65,1.24-2.73,1.66-5.73,1.23-8.7Zm-14.82,8.72v-5.87h7.2c-.04,2.29-.4,4.55-1.09,6.73-2-.53-4.05-.82-6.12-.86Zm6.83,2.29c1.01,.33,1.99,.75,2.92,1.27-1.7,1.76-3.83,3.06-6.17,3.77,1.31-1.21,2.43-2.94,3.25-5.03Zm-6.83,5.61v-6.73c1.93,.04,3.86,.3,5.73,.8-1.36,3.46-3.44,5.62-5.73,5.93ZM23.39,7.21c-.82-2.09-1.94-3.8-3.23-4.99,2.33,.71,4.44,1.99,6.14,3.73-.92,.51-1.9,.93-2.91,1.25Zm.4,8.21h-7.21v-5.93c2.06-.04,4.12-.33,6.12-.86,.69,2.2,1.06,4.48,1.1,6.78Zm-7.21-7.09V1.65c2.27,.31,4.34,2.45,5.71,5.88-1.86,.49-3.78,.75-5.71,.79Zm13.8,8.26c-.12,3.11-1.27,6.13-3.25,8.54-1.05-.61-2.17-1.1-3.33-1.48,.72-2.29,1.11-4.66,1.15-7.06h5.43Zm0-1.17h-5.43c-.04-2.41-.43-4.8-1.17-7.11,1.15-.37,2.26-.87,3.31-1.47,2,2.41,3.17,5.45,3.29,8.58Zm-23.34,1.17c.04,2.4,.42,4.77,1.15,7.06-1.16,.37-2.28,.87-3.33,1.48-1.98-2.41-3.13-5.43-3.25-8.54H7.04Zm1.54,8.16c.83,2.12,1.95,3.85,3.25,5.04-2.34-.71-4.46-2.01-6.17-3.77,.93-.51,1.91-.94,2.92-1.27Zm-.37-8.16h7.2v5.87c-2.06,.04-4.12,.33-6.12,.86-.68-2.18-1.05-4.45-1.09-6.74Zm7.2,7.04v6.73c-2.29-.32-4.37-2.47-5.73-5.93,1.87-.49,3.8-.76,5.73-.8Zm-7.2-15.32c-.74,2.3-1.13,4.69-1.17,7.11H1.61c.13-3.13,1.29-6.17,3.29-8.58,1.05,.6,2.16,1.09,3.31,1.47Zm7.2,1.18v5.93h-7.2c.03-2.3,.4-4.59,1.09-6.78,2,.53,4.05,.82,6.12,.86Zm-6.81-2.28c-1.01-.32-1.98-.75-2.91-1.25,1.7-1.74,3.81-3.03,6.13-3.73-1.29,1.18-2.4,2.89-3.23,4.99ZM15.41,1.65v6.67c-1.93-.04-3.85-.3-5.71-.79,1.37-3.44,3.44-5.57,5.71-5.88Z" />
</svg>