<svg width="16" height="16" viewBox="0 0 16 16" fill="black" xmlns="http://www.w3.org/2000/svg">
    <path
        d="M12.3012 2.34302L7.91463 6.7562L3.60134 2.44291C3.51239 2.35358 3.40668 2.28269 3.29027 2.23433C3.17385 2.18596 3.04903 2.16106 2.92297 2.16106C2.79691 2.16106 2.67209 2.18596 2.55567 2.23433C2.43926 2.28269 2.33354 2.35358 2.2446 2.44291C2.15527 2.53185 2.08438 2.63757 2.03602 2.75398C1.98765 2.8704 1.96275 2.99522 1.96275 3.12128C1.96275 3.24734 1.98765 3.37216 2.03602 3.48858C2.08438 3.60499 2.15527 3.7107 2.2446 3.79965L6.55801 8.08646L2.34436 12.3001C2.25503 12.3891 2.18414 12.4948 2.13578 12.6112C2.08741 12.7276 2.06251 12.8524 2.06251 12.9785C2.06251 13.1045 2.08741 13.2294 2.13578 13.3458C2.18414 13.4622 2.25503 13.5679 2.34436 13.6569C2.4333 13.7462 2.53901 13.8171 2.65542 13.8654C2.77183 13.9138 2.89664 13.9387 3.02269 13.9386C3.14875 13.9386 3.27356 13.9137 3.38996 13.8653C3.50636 13.817 3.61206 13.7461 3.70098 13.6567L7.90798 9.44973L12.2082 13.75C12.2972 13.8393 12.4029 13.9101 12.5193 13.9585C12.6357 14.0068 12.7605 14.0317 12.8866 14.0317C13.0126 14.0317 13.1375 14.0068 13.2539 13.9585C13.3703 13.9101 13.476 13.8393 13.565 13.75C13.6543 13.661 13.7251 13.5553 13.7735 13.4389C13.8218 13.3225 13.8467 13.1976 13.8467 13.0716C13.8467 12.9455 13.8218 12.8207 13.7735 12.7043C13.7251 12.5879 13.6543 12.4822 13.565 12.3932L9.26485 8.09311L13.6581 3.69989C13.7474 3.61093 13.8182 3.50521 13.8666 3.3888C13.9149 3.27239 13.9398 3.14757 13.9398 3.02152C13.9398 2.89546 13.9149 2.77065 13.8666 2.65424C13.8182 2.53782 13.7474 2.4321 13.6581 2.34315C13.478 2.16343 13.234 2.06248 12.9797 2.06246C12.7253 2.06244 12.4813 2.16334 12.3012 2.34302Z" />
</svg>