<svg width="24" height="25" viewBox="0 0 24 25" fill="none" xmlns="http://www.w3.org/2000/svg">
<path fill-rule="evenodd" clip-rule="evenodd" d="M12 5.83333C8.3181 5.83333 5.33333 8.8181 5.33333 12.5C5.33333 16.1819 8.3181 19.1667 12 19.1667C15.6819 19.1667 18.6667 16.1819 18.6667 12.5C18.6667 8.8181 15.6819 5.83333 12 5.83333ZM4 12.5C4 8.08172 7.58172 4.5 12 4.5C16.4183 4.5 20 8.08172 20 12.5C20 16.9183 16.4183 20.5 12 20.5C7.58172 20.5 4 16.9183 4 12.5ZM12 9.16667C12.3682 9.16667 12.6667 9.46515 12.6667 9.83333V13.8333C12.6667 14.2015 12.3682 14.5 12 14.5C11.6318 14.5 11.3333 14.2015 11.3333 13.8333V9.83333C11.3333 9.46515 11.6318 9.16667 12 9.16667ZM12 15.1667C12.3682 15.1667 12.6667 15.4651 12.6667 15.8333V15.84C12.6667 16.2082 12.3682 16.5067 12 16.5067C11.6318 16.5067 11.3333 16.2082 11.3333 15.84V15.8333C11.3333 15.4651 11.6318 15.1667 12 15.1667Z" fill="#EF3D42"/>
</svg>
