<svg width="213" height="138" viewBox="0 0 213 138" fill="none" xmlns="http://www.w3.org/2000/svg">
<path fill-rule="evenodd" clip-rule="evenodd" d="M5.73977 105.241C2.21764 113.573 0 116.914 0 116.914C0 116.914 11.1317 111.707 15.9583 107.627C20.7849 103.548 17.6542 99.9026 17.6542 99.2951C17.6542 99.0781 16.5671 98.6875 15.0452 98.6875C12.2622 98.6875 8.0009 99.8592 5.73977 105.241Z" fill="white"/>
<path fill-rule="evenodd" clip-rule="evenodd" d="M62.5756 138.001C66.4021 133.401 66.4891 115.564 59.0535 115.564C50.009 115.608 60.7058 134.963 62.5756 138.001Z" fill="white"/>
<path fill-rule="evenodd" clip-rule="evenodd" d="M116.153 114.571C110.544 106.542 100.673 99.2951 90.6719 98.6875C94.5854 111.663 103.108 115.699 116.153 114.571Z" fill="white"/>
<path fill-rule="evenodd" clip-rule="evenodd" d="M92.0156 40.094C105.452 40.4411 107.974 23.3859 115.975 13.5781C96.19 17.3971 100.669 27.8125 92.0156 40.094Z" fill="white"/>
<path fill-rule="evenodd" clip-rule="evenodd" d="M60.3543 26.429C59.2672 20.31 66.5724 12.4117 63.3112 0C48.179 1.6925 55.6581 19.2251 60.3543 26.429Z" fill="white"/>
<path fill-rule="evenodd" clip-rule="evenodd" d="M24.6587 41.4405C20.006 27.1628 11.7442 21.9985 6.83061 21.9551C-0.0397236 21.9551 -0.431072 32.0667 24.6587 41.4405Z" fill="white"/>
<path fill-rule="evenodd" clip-rule="evenodd" d="M24.481 63.1001C27.1334 48.0412 36.9606 36.6277 51.7014 32.0709C50.4404 31.8973 49.1794 31.8105 47.9618 31.8105C31.3078 31.8105 21.5676 47.043 24.481 63.1001Z" fill="white"/>
<path fill-rule="evenodd" clip-rule="evenodd" d="M36.9078 62.497C37.2557 53.5138 49.3005 44.5739 61.9106 47.2211C59.7365 44.7475 55.9969 43.4456 52.0834 43.4456C43.7347 43.4022 34.5163 49.3042 36.9078 62.497Z" fill="white"/>
<path fill-rule="evenodd" clip-rule="evenodd" d="M46.8328 104.062C60.356 107.403 69.2266 101.631 74.2271 95.8594C78.5754 90.8687 80.0104 85.878 79.0538 86.7893C74.8794 96.3368 61.704 102.456 46.6588 98.767C31.6137 95.0348 23.0475 76.6777 23.0475 76.6777C23.0475 76.6777 21.5691 97.8557 46.8328 104.062Z" fill="white"/>
<path fill-rule="evenodd" clip-rule="evenodd" d="M39.568 107.843C25.8708 99.6839 19.8701 93.5215 16.5219 77.5078C12.2606 94.0856 24.175 105.239 39.568 107.843Z" fill="white"/>
<path fill-rule="evenodd" clip-rule="evenodd" d="M56.875 111.399C72.9638 114.394 89.7917 103.024 89.009 86.0117C85.7913 98.4234 69.1372 111.052 56.875 111.399Z" fill="white"/>
<path fill-rule="evenodd" clip-rule="evenodd" d="M58.3125 31.8982C73.836 33.9812 84.9677 42.3136 90.4465 57.1121C92.6207 41.4456 78.5756 31.2906 64.3132 31.2906C62.3129 31.2472 60.2692 31.4642 58.3125 31.8982Z" fill="white"/>
<path fill-rule="evenodd" clip-rule="evenodd" d="M64.6102 48.0391C64.5233 48.1259 74.4374 54.8091 67.0453 73.253C59.6966 91.6535 42.3469 87.2703 38.7812 84.5363C38.9987 84.7533 42.2599 91.9138 53.0872 91.3063C64.0449 90.6987 76.0898 81.7589 77.7856 73.0794C78.3509 77.5927 80.612 84.2759 80.612 84.2759C80.612 84.2759 84.482 79.0682 85.83 74.4247C87.0475 78.2437 89.7 82.7136 89.7 82.7136C89.7 82.7136 91.9611 76.3342 92.5264 71.7774C93.0917 67.2207 91.2654 60.2771 91.2654 60.2771C91.2654 60.2771 87.6998 64.4433 86.0474 68.0453C86.0039 63.4017 85.3082 58.8884 85.3082 58.8884C85.3082 58.8884 80.2642 63.7489 78.3944 68.0019C78.4813 57.4563 71.0892 48.0391 64.9146 48.0391C64.7407 48.0391 64.6972 48.0391 64.6102 48.0391Z" fill="white"/>
<path fill-rule="evenodd" clip-rule="evenodd" d="M6.26187 89.5219C6.26187 89.5219 10.3493 73.2913 19.2633 71.9894C27.3947 70.8177 37.3958 72.9441 39.0916 73.3347C39.9178 78.4556 43.0921 82.4482 49.0058 82.5784C62.8769 82.8387 75.0957 51.853 57.4415 50.4209C48.2666 49.6831 42.092 56.5399 39.8308 64.1344C32.9605 66.1307 24.7422 66.9119 18.0023 64.3081C18.0023 64.3081 17.437 63.9175 18.5676 58.189C19.6982 52.4606 22.2637 47.9906 22.2637 47.9906L13.1757 45.7773C8.30557 56.1927 2.8267 78.6726 6.26187 89.5219ZM49.5711 71.1214C44.1792 70.9912 48.3101 58.3626 54.4412 58.84C59.9201 59.2739 53.9629 71.1214 49.6145 71.1214H49.5711Z" fill="white"/>
<path fill-rule="evenodd" clip-rule="evenodd" d="M107.228 66.0058C102.401 66.3963 102.879 60.3641 100.618 60.3641C96.3133 60.3641 94.0957 82.41 96.6177 82.41C98.0961 82.41 101.27 73.5135 106.01 73.5135C110.75 73.5135 112.402 81.0213 112.402 81.0213C112.402 81.0213 116.576 74.3381 116.011 68.3058C115.446 62.2736 113.141 58.1074 113.141 58.1074C113.185 58.1074 112.054 65.6152 107.228 66.0058Z" fill="white"/>
<path fill-rule="evenodd" clip-rule="evenodd" d="M118.567 72.2137C118.089 77.595 118.219 81.9348 121.828 82.4121C125.437 82.8895 130.829 75.6421 128.525 72.0401C126.22 68.4382 134.482 76.1195 131.134 80.763C129.264 83.3669 132.09 80.7196 135.351 78.1158C137.917 76.0327 140.7 73.993 141.657 74.4704C143.787 75.5987 141.178 80.8498 141.178 80.8498C141.178 80.8498 150.092 70.9552 151.397 71.5628C152.701 72.2137 150.179 80.1989 155.875 81.1102C162.833 82.2385 171.573 75.6855 175.486 70.2609C175.486 70.2609 163.789 78.5064 159.963 74.9912C156.18 71.476 161.528 60.5398 161.528 60.5398C161.528 60.5398 155.484 61.2776 151.397 63.9682C147.309 66.6589 146.657 67.3098 146.657 67.3098C146.657 67.3098 146.744 60.5398 145.831 60.3662C144.918 60.1927 140.917 66.9627 138.308 69.2627C135.699 71.5628 134.699 71.693 134.699 71.693C134.699 71.693 134.873 63.2739 136.178 61.5814C136.221 61.538 136.221 61.538 136.221 61.538C135.395 62.5361 130.22 68.5684 125.785 67.7872C125.785 67.7872 126.35 59.8889 125.22 59.8889C124.046 59.8455 119.002 66.8325 118.567 72.2137ZM122.437 76.6403C121.785 76.2497 121.828 75.0346 122.567 73.8628C123.263 72.6911 124.35 72.0835 125.002 72.4307C125.611 72.8213 125.568 74.0798 124.872 75.2082C124.307 76.1629 123.481 76.7271 122.872 76.7271C122.698 76.7705 122.567 76.7271 122.437 76.6403Z" fill="white"/>
<path fill-rule="evenodd" clip-rule="evenodd" d="M151.539 57.1109C161.149 48.2145 173.802 55.375 185.152 41.5312C172.02 46.4352 153.974 43.1804 151.539 57.1109Z" fill="white"/>
<path d="M104.101 86.5801L102.188 96.6917H113.319L115.232 86.5801H113.102L111.536 94.8256H109.145L110.71 86.5801H108.623L107.058 94.8256H104.666L106.231 86.5801H104.101ZM118.537 96.8219C121.059 96.8219 122.929 94.869 122.929 92.1783C122.929 90.4858 121.798 89.1405 119.798 89.1405C117.189 89.1405 115.406 91.2236 115.406 93.7841C115.406 95.6067 116.667 96.8219 118.537 96.8219ZM118.842 95.1728C118.102 95.1728 117.667 94.6086 117.667 93.7407C117.667 92.6123 118.32 90.7896 119.537 90.7896C120.407 90.7896 120.711 91.5274 120.711 92.1783C120.711 93.4369 120.016 95.1728 118.842 95.1728ZM125.712 96.6483L126.321 93.3935C126.625 91.7878 127.451 90.8764 128.147 90.8764C128.712 90.8764 128.886 91.2236 128.886 91.7444C128.886 92.0048 128.843 92.3085 128.799 92.5689L128.016 96.6049H130.191L131.017 92.3519C131.06 92.0048 131.147 91.4406 131.147 91.1368C131.147 89.8783 130.452 89.1405 129.277 89.1405C128.321 89.1405 127.408 89.5745 126.712 90.5292H126.669L126.799 89.3141H124.886C124.799 89.9651 124.668 90.7462 124.494 91.701L123.581 96.6483H125.712ZM133.278 89.3575L132.495 93.4369C132.408 93.9576 132.365 94.3916 132.365 94.7822C132.365 96.1709 133.061 96.8219 134.235 96.8219C135.104 96.8219 136.017 96.4313 136.757 95.4766H136.8L136.67 96.6917H138.583C138.67 96.0407 138.8 95.2596 138.974 94.3048L139.887 89.3575H137.757L137.104 92.7425C136.8 94.1746 136.061 95.086 135.322 95.086C134.8 95.086 134.582 94.6954 134.582 94.2614C134.582 94.001 134.626 93.6539 134.669 93.3067L135.409 89.4009L133.278 89.3575ZM141.801 89.3575L140.409 96.6917H142.583L143.149 93.7407H145.366L144.801 96.6917H146.975L148.367 89.3575H146.192L145.671 92.0482H143.453L143.975 89.3575H141.801ZM150.106 91.1368C150.584 90.9632 151.193 90.7462 151.802 90.7462C152.324 90.7462 152.584 90.9198 152.584 91.2236C152.584 91.6142 151.932 91.8746 151.236 92.1783C149.975 92.6991 148.627 93.2633 148.627 94.7822C148.627 96.0841 149.628 96.7785 151.28 96.7785C152.15 96.7785 153.193 96.5181 153.845 96.1709L153.628 94.652C153.15 94.9124 152.367 95.2162 151.584 95.2162C151.063 95.2162 150.845 94.9992 150.845 94.6954C150.845 94.2614 151.41 94.001 152.193 93.6539C153.541 93.0897 154.672 92.4387 154.672 91.1802C154.672 89.9217 153.845 89.1839 152.237 89.1405C151.323 89.1405 150.454 89.3575 149.888 89.6613L150.106 91.1368ZM155.628 91.9614L155.324 93.4803H159.194L159.498 91.9614H155.628ZM161.455 89.3575L160.064 96.6917H162.151L162.716 93.6539H162.89C163.586 93.6539 163.847 94.0878 164.107 94.9558C164.281 95.6067 164.368 96.3011 164.542 96.6917H166.673C166.456 96.2143 166.325 95.4765 166.195 94.7822C166.021 93.6973 165.673 92.9161 164.977 92.6123L168.195 89.3575H165.673L163.194 92.3519H162.977L163.542 89.3575H161.455ZM168.63 89.3575L170.065 95.9973C170.108 96.1709 170.108 96.2577 170.021 96.3445C169.717 96.8219 169.325 97.2992 168.804 97.6464C168.369 97.9502 167.891 98.1238 167.543 98.2106L168.021 100.077C168.499 99.9899 169.499 99.6427 170.369 98.8182C171.369 97.8634 172.195 96.6917 173.195 94.7388C173.978 93.2199 175.109 90.7462 175.804 89.3575H173.5L172.195 92.6123C171.891 93.4369 171.717 93.8708 171.543 94.3482H171.5C171.456 93.8708 171.326 93.3501 171.239 92.6123L170.804 89.4009H168.63V89.3575ZM177.152 99.6427L177.718 96.5615H177.761C178.022 96.7351 178.544 96.8653 179.109 96.8653C181.675 96.8653 183.37 94.5218 183.37 92.0048C183.37 90.4858 182.588 89.2273 181.022 89.2273C180.153 89.2273 179.283 89.6613 178.674 90.4424H178.631L178.761 89.3141H176.848C176.761 90.0519 176.587 91.3538 176.413 92.2217L174.978 99.6861H177.152V99.6427ZM178.37 93.2633C178.587 91.8312 179.37 90.9198 180.196 90.9198C180.892 90.9198 181.153 91.5274 181.153 92.1349C181.153 93.5671 180.24 95.2162 179.109 95.2162C178.674 95.2162 178.37 95.086 178.109 94.869L178.37 93.2633ZM187.371 96.8219C189.893 96.8219 191.763 94.869 191.763 92.1783C191.763 90.4858 190.632 89.1405 188.632 89.1405C186.023 89.1405 184.24 91.2236 184.24 93.7841C184.284 95.6067 185.501 96.8219 187.371 96.8219ZM187.675 95.1728C186.936 95.1728 186.501 94.6086 186.501 93.7407C186.501 92.6123 187.154 90.7896 188.371 90.7896C189.241 90.7896 189.545 91.5274 189.545 92.1783C189.545 93.4369 188.849 95.1728 187.675 95.1728ZM193.937 99.6427L194.502 96.5615H194.546C194.807 96.7351 195.328 96.8653 195.894 96.8653C198.459 96.8653 200.155 94.5218 200.155 92.0048C200.155 90.4858 199.372 89.2273 197.807 89.2273C196.937 89.2273 196.068 89.6613 195.459 90.4424H195.415L195.546 89.3141H193.589C193.502 90.0519 193.328 91.3538 193.154 92.2217L191.719 99.6861H193.937V99.6427ZM195.154 93.2633C195.372 91.8312 196.155 90.9198 196.981 90.9198C197.676 90.9198 197.937 91.5274 197.937 92.1349C197.937 93.5671 197.024 95.2162 195.894 95.2162C195.459 95.2162 195.154 95.086 194.894 94.869L195.154 93.2633ZM202.938 96.6483L203.547 93.3501C203.808 91.918 204.59 90.8764 205.329 90.8764C205.851 90.8764 206.025 91.267 206.025 91.7878C206.025 92.0482 205.982 92.3085 205.938 92.6123L205.156 96.6483H207.243L207.851 93.3067C208.156 91.8312 208.852 90.8764 209.591 90.8764C210.069 90.8764 210.33 91.2236 210.33 91.7444C210.33 92.0482 210.287 92.3519 210.243 92.6123L209.504 96.6049H211.591L212.374 92.3519C212.417 91.9614 212.504 91.3972 212.504 91.0934C212.504 89.8349 211.852 89.1405 210.721 89.1405C209.765 89.1405 208.852 89.5745 208.199 90.5292C208.156 89.8783 207.634 89.1405 206.46 89.1405C205.503 89.1405 204.634 89.5745 203.938 90.4858H203.895L204.025 89.3141H202.199C202.112 89.9651 201.981 90.7462 201.807 91.701L200.894 96.6483H202.938Z" fill="white"/>
</svg>
