<svg width="295" height="191" viewBox="0 0 295 191" fill="none" xmlns="http://www.w3.org/2000/svg">
<path fill-rule="evenodd" clip-rule="evenodd" d="M7.94418 145.66C3.06934 157.192 0 161.817 0 161.817C0 161.817 15.4069 154.609 22.0872 148.963C28.7676 143.317 24.4344 138.272 24.4344 137.431C24.4344 137.13 22.9298 136.59 20.8234 136.59C16.9717 136.59 11.0737 138.212 7.94418 145.66Z" fill="black"/>
<path fill-rule="evenodd" clip-rule="evenodd" d="M86.6019 191.001C91.898 184.634 92.0184 159.947 81.7271 159.947C69.209 160.007 84.014 186.796 86.6019 191.001Z" fill="black"/>
<path fill-rule="evenodd" clip-rule="evenodd" d="M160.76 158.573C152.996 147.462 139.334 137.431 125.492 136.59C130.909 154.549 142.705 160.135 160.76 158.573Z" fill="black"/>
<path fill-rule="evenodd" clip-rule="evenodd" d="M127.352 55.4924C145.948 55.9729 149.439 32.3676 160.512 18.793C133.129 24.0786 139.328 38.4941 127.352 55.4924Z" fill="black"/>
<path fill-rule="evenodd" clip-rule="evenodd" d="M83.5371 36.5793C82.0325 28.1102 92.1433 17.1785 87.6295 0C66.6858 2.34252 77.0373 26.6086 83.5371 36.5793Z" fill="black"/>
<path fill-rule="evenodd" clip-rule="evenodd" d="M34.1348 57.3577C27.6952 37.5964 16.2604 30.4487 9.45973 30.3887C-0.0492055 30.3887 -0.590854 44.3837 34.1348 57.3577Z" fill="black"/>
<path fill-rule="evenodd" clip-rule="evenodd" d="M33.8808 87.3339C37.552 66.4915 51.1534 50.6945 71.5555 44.3877C69.8102 44.1475 68.0648 44.0273 66.3797 44.0273C43.3296 44.0273 29.8485 65.11 33.8808 87.3339Z" fill="black"/>
<path fill-rule="evenodd" clip-rule="evenodd" d="M51.0867 86.4995C51.5682 74.0662 68.2389 61.6929 85.692 65.3568C82.6829 61.9331 77.5071 60.1312 72.0906 60.1312C60.5355 60.0711 47.7766 68.2399 51.0867 86.4995Z" fill="black"/>
<path fill-rule="evenodd" clip-rule="evenodd" d="M64.8177 144.028C83.5346 148.653 95.812 140.664 102.733 132.675C108.751 125.768 110.737 118.861 109.413 120.122C103.636 133.336 85.4003 141.805 64.5769 136.7C43.7536 131.534 31.8975 106.127 31.8975 106.127C31.8975 106.127 29.8512 135.438 64.8177 144.028Z" fill="black"/>
<path fill-rule="evenodd" clip-rule="evenodd" d="M54.7623 149.262C35.8046 137.97 27.4993 129.441 22.8652 107.277C16.9673 130.222 33.4575 145.659 54.7623 149.262Z" fill="black"/>
<path fill-rule="evenodd" clip-rule="evenodd" d="M78.7188 154.185C100.987 158.329 124.277 142.592 123.194 119.047C118.741 136.225 95.6904 153.704 78.7188 154.185Z" fill="black"/>
<path fill-rule="evenodd" clip-rule="evenodd" d="M80.7109 44.1492C102.196 47.0323 117.603 58.5647 125.186 79.0467C128.195 57.3634 108.756 43.3083 89.0162 43.3083C86.2478 43.2483 83.4192 43.5486 80.7109 44.1492Z" fill="black"/>
<path fill-rule="evenodd" clip-rule="evenodd" d="M89.4207 66.4902C89.3003 66.6104 103.022 75.8603 92.7909 101.388C82.62 126.855 58.6069 120.789 53.6719 117.005C53.9728 117.305 58.4865 127.215 73.4721 126.375C88.6383 125.534 105.309 113.16 107.656 101.147C108.439 107.394 111.568 116.644 111.568 116.644C111.568 116.644 116.924 109.436 118.79 103.009C120.475 108.295 124.146 114.482 124.146 114.482C124.146 114.482 127.276 105.652 128.058 99.3455C128.841 93.0388 126.313 83.4284 126.313 83.4284C126.313 83.4284 121.378 89.1946 119.091 94.18C119.031 87.7531 118.068 81.5064 118.068 81.5064C118.068 81.5064 111.087 88.2336 108.499 94.1199C108.619 79.5242 98.388 66.4902 89.842 66.4902C89.6012 66.4902 89.541 66.4902 89.4207 66.4902Z" fill="black"/>
<path fill-rule="evenodd" clip-rule="evenodd" d="M8.66667 123.902C8.66667 123.902 14.3239 101.438 26.6614 99.6364C37.9157 98.0147 51.7578 100.958 54.105 101.498C55.2484 108.586 59.6418 114.112 67.8267 114.292C87.0252 114.653 103.937 71.7665 79.5023 69.7843C66.8036 68.7632 58.2576 78.2534 55.1281 88.7647C45.6191 91.5277 34.2445 92.6089 24.9161 89.005C24.9161 89.005 24.1337 88.4644 25.6985 80.5359C27.2633 72.6074 30.8141 66.4207 30.8141 66.4207L18.2358 63.3574C11.4953 77.7729 3.9122 108.886 8.66667 123.902ZM68.6091 98.4351C61.1464 98.2549 66.8638 80.7761 75.3496 81.4369C82.9327 82.0375 74.6876 98.4351 68.6693 98.4351H68.6091Z" fill="black"/>
<path fill-rule="evenodd" clip-rule="evenodd" d="M148.406 91.3556C141.726 91.8962 142.388 83.5472 139.258 83.5472C133.3 83.5472 130.231 114.06 133.721 114.06C135.768 114.06 140.161 101.747 146.721 101.747C153.281 101.747 155.568 112.138 155.568 112.138C155.568 112.138 161.345 102.888 160.563 94.539C159.781 86.19 156.591 80.4238 156.591 80.4238C156.651 80.4238 155.086 90.815 148.406 91.3556Z" fill="black"/>
<path fill-rule="evenodd" clip-rule="evenodd" d="M164.112 99.9492C163.45 107.397 163.631 113.404 168.626 114.064C173.621 114.725 181.084 104.694 177.894 99.709C174.705 94.7236 186.139 105.355 181.505 111.782C178.917 115.386 182.829 111.722 187.343 108.118C190.894 105.235 194.746 102.412 196.07 103.073C199.019 104.634 195.408 111.902 195.408 111.902C195.408 111.902 207.745 98.2074 209.551 99.0483C211.356 99.9492 207.866 111.001 215.75 112.262C225.379 113.824 237.476 104.754 242.892 97.2463C242.892 97.2463 226.703 108.659 221.407 103.793C216.171 98.9281 223.573 83.7919 223.573 83.7919C223.573 83.7919 215.208 84.813 209.551 88.537C203.894 92.261 202.991 93.1619 202.991 93.1619C202.991 93.1619 203.111 83.7919 201.847 83.5516C200.583 83.3114 195.047 92.6814 191.436 95.8648C187.825 99.0483 186.44 99.2285 186.44 99.2285C186.44 99.2285 186.681 87.5759 188.487 85.2334C188.547 85.1734 188.547 85.1733 188.547 85.1733C187.403 86.5548 180.242 94.9038 174.103 93.8227C174.103 93.8227 174.885 82.8909 173.32 82.8909C171.696 82.8308 164.714 92.5012 164.112 99.9492ZM169.469 106.076C168.566 105.535 168.626 103.853 169.649 102.232C170.612 100.61 172.117 99.769 173.02 100.25C173.862 100.79 173.802 102.532 172.839 104.094C172.057 105.415 170.913 106.196 170.071 106.196C169.83 106.256 169.649 106.196 169.469 106.076Z" fill="black"/>
<path fill-rule="evenodd" clip-rule="evenodd" d="M209.742 79.0456C223.043 66.7324 240.556 76.643 256.264 57.4824C238.088 64.2697 213.112 59.7649 209.742 79.0456Z" fill="black"/>
<path d="M144.078 119.832L141.43 133.827H156.837L159.485 119.832H156.536L154.369 131.244H151.059L153.226 119.832H150.337L148.17 131.244H144.86L147.027 119.832H144.078ZM164.059 134.007C167.549 134.007 170.137 131.304 170.137 127.58C170.137 125.238 168.572 123.376 165.804 123.376C162.193 123.376 159.725 126.259 159.725 129.803C159.725 132.325 161.471 134.007 164.059 134.007ZM164.48 131.725C163.457 131.725 162.855 130.944 162.855 129.743C162.855 128.181 163.758 125.658 165.443 125.658C166.646 125.658 167.068 126.679 167.068 127.58C167.068 129.322 166.105 131.725 164.48 131.725ZM173.989 133.767L174.831 129.262C175.253 127.04 176.396 125.778 177.359 125.778C178.141 125.778 178.382 126.259 178.382 126.98C178.382 127.34 178.322 127.761 178.262 128.121L177.179 133.707H180.188L181.331 127.821C181.391 127.34 181.512 126.559 181.512 126.139C181.512 124.397 180.549 123.376 178.924 123.376C177.6 123.376 176.336 123.976 175.373 125.298H175.313L175.493 123.616H172.845C172.725 124.517 172.544 125.598 172.304 126.92L171.04 133.767H173.989ZM184.461 123.676L183.377 129.322C183.257 130.043 183.197 130.644 183.197 131.184C183.197 133.106 184.16 134.007 185.785 134.007C186.988 134.007 188.252 133.467 189.275 132.145H189.335L189.155 133.827H191.803C191.923 132.926 192.104 131.845 192.345 130.524L193.609 123.676H190.66L189.757 128.361C189.335 130.343 188.312 131.605 187.289 131.605C186.567 131.605 186.266 131.064 186.266 130.463C186.266 130.103 186.326 129.623 186.387 129.142L187.41 123.736L184.461 123.676ZM196.257 123.676L194.331 133.827H197.34L198.122 129.743H201.192L200.409 133.827H203.418L205.344 123.676H202.335L201.613 127.4H198.544L199.266 123.676H196.257ZM207.752 126.139C208.414 125.899 209.256 125.598 210.099 125.598C210.821 125.598 211.182 125.838 211.182 126.259C211.182 126.8 210.279 127.16 209.316 127.58C207.571 128.301 205.705 129.082 205.705 131.184C205.705 132.986 207.09 133.947 209.376 133.947C210.58 133.947 212.025 133.587 212.927 133.106L212.626 131.004C211.964 131.364 210.881 131.785 209.798 131.785C209.076 131.785 208.775 131.485 208.775 131.064C208.775 130.463 209.557 130.103 210.64 129.623C212.506 128.842 214.071 127.941 214.071 126.199C214.071 124.457 212.927 123.436 210.701 123.376C209.437 123.376 208.233 123.676 207.451 124.097L207.752 126.139ZM215.395 127.28L214.974 129.382H220.33L220.751 127.28H215.395ZM223.459 123.676L221.533 133.827H224.422L225.205 129.623H225.445C226.408 129.623 226.769 130.223 227.131 131.424C227.371 132.325 227.492 133.286 227.732 133.827H230.681C230.38 133.166 230.2 132.145 230.019 131.184C229.779 129.683 229.297 128.601 228.334 128.181L232.788 123.676H229.297L225.867 127.821H225.566L226.348 123.676H223.459ZM233.39 123.676L235.376 132.866C235.436 133.106 235.436 133.226 235.315 133.347C234.894 134.007 234.353 134.668 233.63 135.148C233.028 135.569 232.366 135.809 231.885 135.929L232.547 138.512C233.209 138.392 234.593 137.911 235.797 136.77C237.181 135.449 238.325 133.827 239.709 131.124C240.792 129.022 242.357 125.598 243.32 123.676H240.13L238.325 128.181C237.903 129.322 237.663 129.923 237.422 130.584H237.362C237.301 129.923 237.121 129.202 237.001 128.181L236.399 123.736H233.39V123.676ZM245.185 137.911L245.968 133.647H246.028C246.389 133.887 247.111 134.067 247.894 134.067C251.445 134.067 253.792 130.824 253.792 127.34C253.792 125.238 252.708 123.496 250.542 123.496C249.338 123.496 248.134 124.097 247.292 125.178H247.232L247.412 123.616H244.764C244.644 124.637 244.403 126.439 244.162 127.64L242.176 137.972H245.185V137.911ZM246.871 129.082C247.172 127.1 248.255 125.838 249.398 125.838C250.361 125.838 250.722 126.679 250.722 127.52C250.722 129.502 249.458 131.785 247.894 131.785C247.292 131.785 246.871 131.605 246.509 131.304L246.871 129.082ZM259.329 134.007C262.819 134.007 265.407 131.304 265.407 127.58C265.407 125.238 263.842 123.376 261.074 123.376C257.463 123.376 254.995 126.259 254.995 129.803C255.056 132.325 256.741 134.007 259.329 134.007ZM259.75 131.725C258.727 131.725 258.125 130.944 258.125 129.743C258.125 128.181 259.028 125.658 260.713 125.658C261.916 125.658 262.338 126.679 262.338 127.58C262.338 129.322 261.375 131.725 259.75 131.725ZM268.416 137.911L269.199 133.647H269.259C269.62 133.887 270.342 134.067 271.124 134.067C274.675 134.067 277.022 130.824 277.022 127.34C277.022 125.238 275.939 123.496 273.772 123.496C272.569 123.496 271.365 124.097 270.523 125.178H270.462L270.643 123.616H267.935C267.814 124.637 267.574 126.439 267.333 127.64L265.347 137.972H268.416V137.911ZM270.101 129.082C270.402 127.1 271.486 125.838 272.629 125.838C273.592 125.838 273.953 126.679 273.953 127.52C273.953 129.502 272.689 131.785 271.124 131.785C270.523 131.785 270.101 131.605 269.74 131.304L270.101 129.082ZM280.874 133.767L281.717 129.202C282.078 127.22 283.161 125.778 284.184 125.778C284.906 125.778 285.147 126.319 285.147 127.04C285.147 127.4 285.087 127.761 285.027 128.181L283.943 133.767H286.832L287.675 129.142C288.096 127.1 289.059 125.778 290.082 125.778C290.744 125.778 291.105 126.259 291.105 126.98C291.105 127.4 291.045 127.821 290.985 128.181L289.962 133.707H292.851L293.934 127.821C293.994 127.28 294.114 126.499 294.114 126.079C294.114 124.337 293.212 123.376 291.647 123.376C290.323 123.376 289.059 123.976 288.156 125.298C288.096 124.397 287.374 123.376 285.749 123.376C284.425 123.376 283.221 123.976 282.258 125.238H282.198L282.379 123.616H279.851C279.731 124.517 279.55 125.598 279.309 126.92L278.045 133.767H280.874Z" fill="black"/>
</svg>
