<svg xmlns="http://www.w3.org/2000/svg" width="83" height="24" viewBox="0 0 83 24" fill="none">
    <g clip-path="url(#clip0_4101_20581)">
        <path fill-rule="evenodd" clip-rule="evenodd"
            d="M44.2378 8.84255C44.4357 9.04386 46.2169 13.8396 46.4032 14.4317C46.5887 15.066 46.8507 15.6745 47.1832 16.2434C47.8002 16.3855 47.8584 15.7579 48.0447 15.2606C49.0576 12.5726 50.5943 8.65309 51.3627 6.01248C51.8982 4.73361 51.9448 4.39021 50.9785 4.39021C50.0122 4.39021 50.117 5.02965 49.7328 5.85854C49.3952 7.43344 48.0913 10.7608 47.614 12.2884C47.614 12.4897 47.614 12.4897 47.3695 12.4897C46.5662 10.2161 45.6348 7.43344 44.7267 5.18358C44.4823 4.74545 44.0515 4.65072 43.7605 5.63355C43.2715 7.19661 42.5963 9.0557 42.0724 10.5714C42.0724 10.5714 41.4437 12.4897 41.3971 12.5844C41.0642 12.0399 40.8204 11.4441 40.6753 10.8201C39.9535 9.00833 39.3249 7.05451 38.7078 5.24279C38.5565 4.89939 38.5565 4.69809 38.2189 4.49679C37.8805 4.36923 37.5146 4.33652 37.1595 4.40206C36.2048 4.55599 36.8218 5.33752 37.0197 5.91775C38.1839 9.10306 39.4762 12.9278 40.7685 15.9592C40.7987 16.0343 40.8479 16.1 40.911 16.1496C40.9742 16.1992 41.0491 16.2311 41.1282 16.2419C41.2073 16.2527 41.2878 16.2421 41.3616 16.2112C41.4353 16.1802 41.4998 16.1301 41.5485 16.0658C41.7348 15.6987 44.0981 8.84255 44.2378 8.84255Z"
            fill="white" />
        <path fill-rule="evenodd" clip-rule="evenodd"
            d="M0.180448 4.59302C0.132324 4.79029 0.148671 4.99812 0.227016 5.18509C0.424931 6.01398 -0.15717 15.4634 -0.00582373 15.8423C0.465415 16.0578 0.993755 16.1078 1.496 15.9844C1.72884 15.7357 1.6357 15.4989 1.6357 15.1081C1.6357 13.4385 1.7754 11.8281 1.7754 10.1111C1.83361 9.47165 1.88018 9.03352 1.88018 8.64276C1.88018 8.25199 1.88018 8.29936 1.97332 8.20463C2.06645 8.1099 3.59156 10.8097 3.7429 11.1058C4.03395 11.686 4.60441 12.5741 4.9886 13.2609C5.5707 14.3384 5.86175 13.6043 6.00145 13.3556C6.33907 12.9175 8.94688 8.26384 9.13315 8.1691C9.30778 8.35857 9.30778 13.0122 9.30778 13.3556C9.30778 15.9015 9.01673 16.1502 10.6 16.0436C11.089 16.0436 11.1356 15.6528 11.089 15.2147C11.089 14.3858 11.089 13.4503 11.089 12.6214C10.9609 10.5137 10.8678 8.1099 10.8678 6.01398C10.8678 5.76532 10.9609 4.82985 10.9609 4.68776C10.8184 4.5244 10.6254 4.41541 10.4137 4.3788C10.202 4.3422 9.98434 4.38018 9.79675 4.48645C9.45913 4.68776 9.36599 5.12588 9.12151 5.42192C8.14358 7.18628 6.82804 9.18746 5.90832 10.8571C5.5707 11.4492 5.5707 11.2478 5.27965 10.8571C4.65098 9.92162 3.83604 8.3112 3.26558 7.37574L2.10138 5.42192C1.93956 5.08238 1.73187 4.76751 1.48435 4.48645C1.15838 4.24963 0.518067 4.43909 0.180448 4.59302Z"
            fill="white" />
        <path fill-rule="evenodd" clip-rule="evenodd"
            d="M61.6125 10.0774C62.0245 9.7354 62.5134 9.50239 63.0354 9.39909C63.5574 9.29579 64.0964 9.32541 64.6045 9.4853C66.1412 10.1721 66.3391 12.4812 65.6639 13.6061C65.3763 14.0445 64.9621 14.3813 64.4783 14.5701C63.9945 14.7589 63.465 14.7903 62.963 14.66C62.4766 14.5623 62.0162 14.3605 61.6125 14.0679V10.0774ZM61.6125 8.40774C61.5399 7.11809 61.5399 5.82528 61.6125 4.53563C61.6125 4.00277 61.4262 3.90804 60.9373 4.0975C59.7731 4.59483 59.7731 4.39353 59.9361 5.47109C60.0292 6.01579 59.9361 12.3272 59.9361 13.2153C59.9361 14.9678 59.6916 15.3704 62.1946 16.1046C62.9073 16.2566 63.6429 16.2605 64.3571 16.1161C65.0714 15.9716 65.7495 15.6817 66.3508 15.2639C68.8073 13.2153 68.132 7.43675 63.6498 7.87488C63.2592 7.89639 62.8703 7.94385 62.4856 8.01698C62.3343 8.06434 61.7638 8.40774 61.694 8.40774H61.6125Z"
            fill="white" />
        <path fill-rule="evenodd" clip-rule="evenodd"
            d="M27.6699 15.9486C27.852 15.3311 27.9036 14.6814 27.8213 14.0422C27.7736 13.372 27.7736 12.6993 27.8213 12.0292C27.961 12.0292 28.1123 12.2778 28.4034 12.5739C28.6944 12.8699 31.0927 15.4158 31.4768 15.7C31.6109 15.8268 31.7725 15.9198 31.9485 15.9712C32.1244 16.0227 32.3099 16.0311 32.4897 15.996C32.8273 15.996 33.3628 15.996 33.5491 15.7592C33.5491 15.4158 32.8739 14.8711 32.5828 14.575C32.2918 14.279 31.9192 13.9001 31.5816 13.4975C30.8411 12.8346 30.1486 12.1183 29.5093 11.3542C29.5093 11.2476 32.1521 8.98593 32.641 8.55964C32.8273 8.35834 33.0252 8.31097 32.9787 8.01494C32.3795 7.82693 31.7384 7.82693 31.1392 8.01494C30.9064 8.12151 29.3114 9.58984 28.8807 9.9806C28.741 10.1227 27.9144 11.0108 27.8213 10.9634C27.6816 10.5135 27.8213 4.3915 27.7281 4.0481C27.635 3.7047 25.9935 4.2494 26.04 4.84147C26.1313 5.25746 26.1781 5.68226 26.1797 6.10849V14.575C26.1797 14.8711 26.0866 15.7592 26.2845 15.9013C26.7375 16.019 27.2102 16.0352 27.6699 15.9486Z"
            fill="white" />
        <path fill-rule="evenodd" clip-rule="evenodd"
            d="M15.1311 11.9347C15.6666 11.7926 17.4595 12.2307 17.541 12.7162C17.5875 13.2401 17.5875 13.7672 17.541 14.2911C17.2033 14.7293 14.8866 15.6055 14.1182 14.0425C14.0147 13.8204 13.9609 13.5777 13.9609 13.332C13.9609 13.0862 14.0147 12.8436 14.1182 12.6215C14.23 12.441 14.378 12.2865 14.5525 12.1681C14.7271 12.0498 14.9242 11.9702 15.1311 11.9347ZM17.5875 11.3426C17.1352 11.0378 16.6292 10.8247 16.0974 10.7151C15.4346 10.6404 14.7641 10.6886 14.1182 10.8572C13.5744 11.0156 13.0949 11.3473 12.7503 11.8035C12.4056 12.2598 12.214 12.8164 12.2036 13.3917C12.1931 13.967 12.3645 14.5304 12.6924 14.9993C13.0202 15.4681 13.4874 15.8176 14.0251 15.9963C14.9459 16.3157 15.9449 16.3157 16.8657 15.9963C17.0636 15.9016 17.4478 15.6529 17.5875 15.6055C17.7272 15.5582 17.7854 15.9489 17.9717 16.0437C18.158 16.1384 19.0311 16.0437 19.2756 15.8068C19.5201 15.57 19.5667 15.6055 19.4153 15.2621C19.1901 14.809 19.1087 14.296 19.1825 13.7938V10.2651C19.2434 9.76544 19.1234 9.26034 18.8449 8.84413C17.9252 6.98504 12.3836 7.7192 12.826 9.2941C13.2683 10.869 13.9902 8.7494 16.435 9.04543C17.7505 9.18752 17.6108 10.4664 17.6108 11.3426H17.5875Z"
            fill="white" />
        <path fill-rule="evenodd" clip-rule="evenodd"
            d="M74.5735 11.1029H70.5803C70.6338 10.6167 70.852 10.1646 71.1973 9.82408C71.5743 9.48782 72.048 9.28432 72.5478 9.24386C72.8081 9.22198 73.0702 9.2537 73.3182 9.33712C73.5662 9.42053 73.7952 9.55393 73.9914 9.72935C74.1889 9.89464 74.3448 10.1055 74.446 10.3444C74.5473 10.5833 74.591 10.8434 74.5735 11.1029ZM70.4755 12.37C70.7666 12.2279 75.1323 12.37 75.924 12.37C76.7156 12.37 76.3547 9.72935 74.9111 8.65179C74.3214 8.20457 73.6193 7.93613 72.8859 7.87745C72.1525 7.81878 71.4178 7.97226 70.7665 8.32018C70.1153 8.66811 69.574 9.19628 69.2053 9.84373C68.8365 10.4912 68.6554 11.2315 68.6827 11.9792C68.655 12.7054 68.8211 13.4257 69.1634 14.0637C69.5057 14.7016 70.0114 15.2334 70.6269 15.6026C71.9191 16.4907 75.3884 16.4434 75.8192 15.0698C76.3547 13.3054 75.0974 14.2883 74.655 14.4777C74.2829 14.6328 73.8908 14.7326 73.4908 14.7738C70.9179 15.0698 70.2892 12.7607 70.4755 12.37Z"
            fill="white" />
        <path fill-rule="evenodd" clip-rule="evenodd"
            d="M53 11.106C53.0409 10.6002 53.2669 10.1285 53.6335 9.78418C54 9.43989 54.4802 9.24813 54.9792 9.24686C55.9804 9.14029 57.1446 10.0284 56.9467 11.106H53ZM52.8021 12.2901C53.0466 12.2901 57.5753 12.2901 58.204 12.2901C58.8327 12.2901 58.7279 11.8993 58.6813 11.4138C58.6473 10.7563 58.446 10.1191 58.097 9.56457C57.7481 9.01002 57.2635 8.55718 56.6908 8.25038C56.118 7.94359 55.4768 7.79337 54.8298 7.81445C54.1828 7.83552 53.5523 8.02717 53 8.37061C52.379 8.74376 51.8712 9.2838 51.5323 9.9314C51.1934 10.579 51.0366 11.3091 51.0791 12.0414C51.0297 12.7643 51.1897 13.4861 51.5394 14.1175C51.8891 14.7489 52.4131 15.2622 53.0466 15.5938C54.6881 16.624 57.913 16.1859 58.204 15.0136C58.204 14.6702 58.4368 13.8295 57.913 14.0308C57.2801 14.3946 56.5913 14.6469 55.8756 14.7768C55.4941 14.8286 55.1063 14.803 54.7346 14.7013C54.3629 14.5997 54.0147 14.4241 53.7102 14.1847C53.2911 13.8413 52.6158 12.8111 52.8021 12.2901Z"
            fill="white" />
        <path fill-rule="evenodd" clip-rule="evenodd"
            d="M78.9522 15.9982C79.2432 15.7021 79.1967 15.56 79.1967 15.1219V13.9378C79.1967 12.3747 78.9056 9.78145 80.6868 9.39069C81.071 9.29596 81.1642 9.62752 81.6531 9.53279C81.9415 9.26966 82.158 8.93517 82.2818 8.5618C82.2818 7.81579 81.1176 7.6737 80.0582 8.15919C79.7206 8.31313 79.4412 8.84599 79.1967 8.89335C79.1967 8.45523 79.2898 8.26576 78.9988 7.875C78.6256 7.9114 78.2644 8.02848 77.9393 8.2184C77.462 8.45523 77.3689 8.45523 77.462 9.04729C77.5551 9.63936 77.462 13.7009 77.462 14.6719C77.5086 16.1521 77.5086 16.1047 78.9522 15.9982Z"
            fill="white" />
        <path fill-rule="evenodd" clip-rule="evenodd"
            d="M22.1904 15.9469V15.8521C22.3255 14.6495 22.3606 13.4373 22.2952 12.2287C22.2952 11.2932 22.528 9.77752 23.5409 9.48149C24.3558 9.18546 24.4024 9.96698 24.9379 9.48149C26.1836 8.15526 24.5072 7.6224 23.4943 8.06053C22.4815 8.49866 22.6212 8.84206 22.3301 8.93679C22.3067 8.74411 22.3067 8.54924 22.3301 8.35656C22.3301 8.1079 22.2253 8.1079 22.1322 7.9658C21.7589 7.96271 21.3921 8.0652 21.0728 8.26183C20.5955 8.45129 20.4441 8.49866 20.5955 9.09073C20.6979 9.99855 20.729 10.9132 20.6886 11.8261V14.5259C20.7934 15.9942 20.5955 16.1008 22.1904 15.9469Z"
            fill="white" />
        <path fill-rule="evenodd" clip-rule="evenodd"
            d="M43.8984 17.5247C41.9765 17.7659 40.0868 18.2226 38.2637 18.8865C37.6932 19.1351 37.0995 19.2772 36.529 19.5259C35.3648 19.964 34.2705 20.3548 33.1179 20.8047C32.7337 20.9468 29.9862 21.7757 29.5089 21.8823C27.1805 22.4625 23.6879 23.1493 21.4642 22.1191C20.4048 21.5863 20.3 23.2441 22.7099 23.8361C24.1192 24.0872 25.5654 24.0225 26.9476 23.6467C28.1118 23.398 29.5089 22.9599 30.6149 22.6165C31.7209 22.2731 33.0248 21.8823 34.2239 21.5389C34.5149 21.4323 34.7478 21.3376 35.0854 21.2429L36.8666 20.6982C37.2043 20.6034 37.4487 20.4613 37.7398 20.3548L39.5792 19.9166C39.9168 19.8219 40.1613 19.7272 40.4524 19.6206C42.8899 19.0917 45.376 18.8297 47.8683 18.8391C48.4854 18.8391 49.4051 18.993 50.0338 19.0878C51.198 19.2299 50.9418 18.6023 50.1735 18.1997C48.1756 17.4211 46.0122 17.1884 43.8984 17.5247Z"
            fill="#FFDB59" />
    </g>
    <defs>
        <clipPath id="clip0_4101_20581">
            <rect width="82.2857" height="24" fill="white" />
        </clipPath>
    </defs>
</svg>