<svg width="32" height="32" viewBox="0 0 32 32" fill="none" xmlns="http://www.w3.org/2000/svg">
<path d="M22.7732 27.3728C22.7732 27.3728 22.5016 27.8861 20.6216 27.7328C20.6216 27.7328 20.5649 28.2061 18.8232 28.2061C18.8232 28.2061 18.3449 28.2128 18.1482 28.1028C18.1482 28.1028 17.7116 28.3845 15.9999 28.3845C14.2882 28.3845 13.8516 28.1028 13.8516 28.1028C13.6566 28.2145 13.1766 28.2061 13.1766 28.2061C11.4349 28.2061 11.3782 27.7328 11.3782 27.7328C9.49656 27.8861 9.22656 27.3728 9.22656 27.3728C9.22656 27.3728 9.94156 23.0528 10.8466 18.4878C11.5599 14.8845 12.2999 13.8111 12.5799 13.5195C12.6549 13.4411 12.6966 13.4195 12.6966 13.4195C12.6966 13.4195 12.8282 12.7711 12.6632 11.7778C12.5766 11.2611 12.4099 10.6511 12.1016 9.99115C11.2016 8.06281 12.4249 6.01115 12.4249 6.01115H13.1016C13.6599 7.94948 15.9999 8.61781 15.9999 8.61781C15.9999 8.61781 18.3399 7.94781 18.8966 6.00781H19.5732C19.5732 6.00781 20.7982 8.05781 19.8966 9.98781C19.5882 10.6478 19.4216 11.2578 19.3349 11.7745C19.1699 12.7678 19.3016 13.4161 19.3016 13.4161C19.3016 13.4161 19.3432 13.4378 19.4182 13.5161C19.6982 13.8078 20.4382 14.8811 21.1516 18.4845C22.0582 23.0511 22.7732 27.3728 22.7732 27.3728Z" stroke="black" stroke-miterlimit="10" stroke-linecap="round" stroke-linejoin="round"/>
<path d="M13.1016 6.01023V3.61523" stroke="black" stroke-miterlimit="10" stroke-linecap="round" stroke-linejoin="round"/>
<path d="M12.426 6.01023L11.9844 3.61523" stroke="black" stroke-miterlimit="10" stroke-linecap="round" stroke-linejoin="round"/>
<path d="M18.8906 6.01023V3.61523" stroke="black" stroke-miterlimit="10" stroke-linecap="round" stroke-linejoin="round"/>
<path d="M19.5703 6.01023L20.012 3.61523" stroke="black" stroke-miterlimit="10" stroke-linecap="round" stroke-linejoin="round"/>
<path d="M19.4181 13.519H12.5781C12.6531 13.4407 12.6948 13.419 12.6948 13.419C12.6948 13.419 12.8265 12.7707 12.6615 11.7773H19.3348C19.1698 12.7707 19.3015 13.419 19.3015 13.419C19.3015 13.419 19.3431 13.4407 19.4181 13.519Z" stroke="black" stroke-miterlimit="10" stroke-linecap="round" stroke-linejoin="round"/>
<path d="M11.375 27.7341L12.415 17.7441" stroke="black" stroke-miterlimit="10" stroke-linecap="round" stroke-linejoin="round"/>
<path d="M13.8516 28.1038L14.1499 18.2988" stroke="black" stroke-miterlimit="10" stroke-linecap="round" stroke-linejoin="round"/>
<path d="M20.6181 27.7341L19.5781 17.7441" stroke="black" stroke-miterlimit="10" stroke-linecap="round" stroke-linejoin="round"/>
<path d="M18.1482 28.1038L17.8516 18.2988" stroke="black" stroke-miterlimit="10" stroke-linecap="round" stroke-linejoin="round"/>
</svg>
