<svg width="32" height="32" viewBox="0 0 32 32" fill="none" xmlns="http://www.w3.org/2000/svg">
<path d="M25.1736 6.22618C25.6269 6.22618 25.9978 6.58909 25.9978 7.03264V27.1939C25.9978 27.6375 25.6269 28.0004 25.1736 28.0004H7.86336C7.41 28.0004 7.03906 27.6375 7.03906 27.1939V4.61328" stroke="black"/>
<path d="M9.10156 7.43555V26.7904" stroke="black"/>
<path fill-rule="evenodd" clip-rule="evenodd" d="M25.1757 4.81452V6.22581H8.36009C7.70065 6.22581 7 5.37903 7 4.6129C7 3.84677 7.65944 3 8.36009 3H23.9393C24.5987 3 25.1345 3.24194 25.1345 4.00806L25.1757 4.81452Z" stroke="black"/>
<path d="M8.6875 4.61328H23.5248" stroke="black"/>
<path fill-rule="evenodd" clip-rule="evenodd" d="M14.5003 19.9362C14.5003 20.1782 14.3354 20.3395 14.0882 20.3395L12.8517 18.7266L11.6153 20.3395C11.368 20.3395 11.2031 20.1782 11.2031 19.9362V6.62979C11.2031 6.38785 11.368 6.22656 11.6153 6.22656H14.0882C14.3354 6.22656 14.5003 6.38785 14.5003 6.62979V19.9362Z" stroke="black"/>
</svg>
