<svg width="32" height="32" viewBox="0 0 32 32" fill="none" xmlns="http://www.w3.org/2000/svg">
<path d="M5.33594 12.6667C5.33594 13.1971 5.47641 13.7058 5.72646 14.0809C5.97651 14.456 6.31565 14.6667 6.66927 14.6667C7.02289 14.6667 7.36203 14.456 7.61208 14.0809C7.86213 13.7058 8.0026 13.1971 8.0026 12.6667C8.0026 12.1362 7.86213 11.6275 7.61208 11.2525C7.36203 10.8774 7.02289 10.6667 6.66927 10.6667C6.31565 10.6667 5.97651 10.8774 5.72646 11.2525C5.47641 11.6275 5.33594 12.1362 5.33594 12.6667Z" stroke="black" stroke-linecap="round" stroke-linejoin="round"/>
<path d="M19.2867 15.4613C20.996 17.8267 23.9213 20.016 23.9213 20.016C23.9213 20.016 26.4827 22.1147 24.712 24.864C22.9413 27.6147 18.1893 26.4 18.1893 26.4C18.1893 26.4 16.3013 25.8133 14.1093 26.2827C11.9173 26.7573 10.0293 26.576 10.0293 26.576C10.0293 26.576 7.28934 26.2827 6.73601 23.504C6.18134 20.7253 9.29334 18.6533 9.53868 18.36C9.78134 18.064 11.4173 17.072 12.584 15.168C13.7507 13.264 17.0333 12.1187 19.2867 15.4627V15.4613Z" stroke="black" stroke-linecap="round" stroke-linejoin="round"/>
<path d="M10.6693 6C10.6693 6.53043 10.8097 7.03914 11.0598 7.41421C11.3098 7.78929 11.649 8 12.0026 8C12.3562 8 12.6954 7.78929 12.9454 7.41421C13.1955 7.03914 13.3359 6.53043 13.3359 6C13.3359 5.46957 13.1955 4.96086 12.9454 4.58579C12.6954 4.21071 12.3562 4 12.0026 4C11.649 4 11.3098 4.21071 11.0598 4.58579C10.8097 4.96086 10.6693 5.46957 10.6693 6Z" stroke="black" stroke-linecap="round" stroke-linejoin="round"/>
<path d="M18.6693 6C18.6693 6.53043 18.8097 7.03914 19.0598 7.41421C19.3098 7.78929 19.649 8 20.0026 8C20.3562 8 20.6954 7.78929 20.9454 7.41421C21.1955 7.03914 21.3359 6.53043 21.3359 6C21.3359 5.46957 21.1955 4.96086 20.9454 4.58579C20.6954 4.21071 20.3562 4 20.0026 4C19.649 4 19.3098 4.21071 19.0598 4.58579C18.8097 4.96086 18.6693 5.46957 18.6693 6Z" stroke="black" stroke-linecap="round" stroke-linejoin="round"/>
<path d="M24.0026 12.6667C24.0026 13.1971 24.1431 13.7058 24.3931 14.0809C24.6432 14.456 24.9823 14.6667 25.3359 14.6667C25.6896 14.6667 26.0287 14.456 26.2787 14.0809C26.5288 13.7058 26.6693 13.1971 26.6693 12.6667C26.6693 12.1362 26.5288 11.6275 26.2787 11.2525C26.0287 10.8774 25.6896 10.6667 25.3359 10.6667C24.9823 10.6667 24.6432 10.8774 24.3931 11.2525C24.1431 11.6275 24.0026 12.1362 24.0026 12.6667Z" stroke="black" stroke-linecap="round" stroke-linejoin="round"/>
</svg>
