<svg width="32" height="32" viewBox="0 0 32 32" fill="none" xmlns="http://www.w3.org/2000/svg">
<path d="M28 11.9998V16.6664C27.2928 16.6664 26.6145 16.9474 26.1144 17.4475C25.6143 17.9476 25.3334 18.6258 25.3334 19.3331C25.3334 20.0403 25.6143 20.7186 26.1144 21.2187C26.6145 21.7188 27.2928 21.9998 28 21.9998V26.6664L6.02535 26.6771C4.74669 24.4958 4 21.8717 4 19.0491C4 15.5384 5.15333 12.3371 7.05067 9.91042C9.14267 7.23708 12.1373 5.50375 15.4867 5.34375L28 11.9998ZM28 11.9998H5.70402M20 17.3331V17.3464M10.6667 17.3331V17.3464M14.6667 21.3331V21.3464" stroke="black" stroke-linecap="round" stroke-linejoin="round"/>
</svg>
