<svg width="32" height="32" viewBox="0 0 32 32" fill="none" xmlns="http://www.w3.org/2000/svg">
<path d="M10.1905 9.84323C10.5755 11.0932 10.1639 13.6982 10.1639 13.6982L7.26885 26.8916L3.61719 26.3749C4.92719 16.8666 9.45219 7.68323 9.45219 7.68323L11.6855 6.60156" stroke="black" stroke-miterlimit="10" stroke-linecap="round" stroke-linejoin="round"/>
<path d="M14.0964 11.8449L11.6797 9.9982C11.6797 9.9982 12.9597 9.11987 13.6847 8.6582" stroke="black" stroke-miterlimit="10" stroke-linecap="round" stroke-linejoin="round"/>
<path d="M18.3201 8.65628H20.6818L20.3984 6.63794L20.3201 6.07794C20.3201 6.07794 18.9584 5.20794 18.2351 4.43628C17.7368 3.90461 16.8834 3.71794 16.4001 3.65461C16.1618 3.62294 15.9184 3.62294 15.6801 3.65461C15.1968 3.71961 14.3434 3.90461 13.8451 4.43628C13.1234 5.20794 11.7601 6.07794 11.7601 6.07794L11.6868 6.59961L11.3984 8.65461H13.6868" stroke="black" stroke-miterlimit="10" stroke-linecap="round" stroke-linejoin="round"/>
<path d="M20.3984 6.63867L22.5534 7.68201C22.5534 7.68201 27.0801 16.8653 28.3884 26.372L24.7368 26.8887L22.9168 18.5937L21.8418 13.6953C21.8418 13.6953 21.4301 11.0903 21.8151 9.84034" stroke="black" stroke-miterlimit="10" stroke-linecap="round" stroke-linejoin="round"/>
<path d="M18.3147 8.65625C19.0397 9.11958 20.3197 9.99625 20.3197 9.99625L12.4297 14.3046" stroke="black" stroke-miterlimit="10" stroke-linecap="round" stroke-linejoin="round"/>
<path d="M22.9126 18.5938V27.9954H9.08594V18.5938" stroke="black" stroke-miterlimit="10" stroke-linecap="round" stroke-linejoin="round"/>
<path d="M17.7497 5.4043C17.7497 5.4043 15.7064 9.71763 12.4297 14.3043V27.9976" stroke="black" stroke-miterlimit="10" stroke-linecap="round" stroke-linejoin="round"/>
<path d="M15.7925 9.06096C15.7925 9.06096 14.5625 7.44596 14.5625 5.4043" stroke="black" stroke-miterlimit="10" stroke-linecap="round" stroke-linejoin="round"/>
<path d="M14.468 16.7642C14.6273 16.7642 14.7564 16.6351 14.7564 16.4758C14.7564 16.3166 14.6273 16.1875 14.468 16.1875C14.3088 16.1875 14.1797 16.3166 14.1797 16.4758C14.1797 16.6351 14.3088 16.7642 14.468 16.7642Z" stroke="black" stroke-miterlimit="10" stroke-linecap="round" stroke-linejoin="round"/>
<path d="M18.0383 16.7642C18.1976 16.7642 18.3267 16.6351 18.3267 16.4758C18.3267 16.3166 18.1976 16.1875 18.0383 16.1875C17.8791 16.1875 17.75 16.3166 17.75 16.4758C17.75 16.6351 17.8791 16.7642 18.0383 16.7642Z" stroke="black" stroke-miterlimit="10" stroke-linecap="round" stroke-linejoin="round"/>
<path d="M14.468 19.8638C14.6273 19.8638 14.7564 19.7347 14.7564 19.5754C14.7564 19.4162 14.6273 19.2871 14.468 19.2871C14.3088 19.2871 14.1797 19.4162 14.1797 19.5754C14.1797 19.7347 14.3088 19.8638 14.468 19.8638Z" stroke="black" stroke-miterlimit="10" stroke-linecap="round" stroke-linejoin="round"/>
<path d="M18.0383 19.8638C18.1976 19.8638 18.3267 19.7347 18.3267 19.5754C18.3267 19.4162 18.1976 19.2871 18.0383 19.2871C17.8791 19.2871 17.75 19.4162 17.75 19.5754C17.75 19.7347 17.8791 19.8638 18.0383 19.8638Z" stroke="black" stroke-miterlimit="10" stroke-linecap="round" stroke-linejoin="round"/>
<path d="M14.468 22.9595C14.6273 22.9595 14.7564 22.8304 14.7564 22.6711C14.7564 22.5119 14.6273 22.3828 14.468 22.3828C14.3088 22.3828 14.1797 22.5119 14.1797 22.6711C14.1797 22.8304 14.3088 22.9595 14.468 22.9595Z" stroke="black" stroke-miterlimit="10" stroke-linecap="round" stroke-linejoin="round"/>
<path d="M18.0383 22.9595C18.1976 22.9595 18.3267 22.8304 18.3267 22.6711C18.3267 22.5119 18.1976 22.3828 18.0383 22.3828C17.8791 22.3828 17.75 22.5119 17.75 22.6711C17.75 22.8304 17.8791 22.9595 18.0383 22.9595Z" stroke="black" stroke-miterlimit="10" stroke-linecap="round" stroke-linejoin="round"/>
</svg>
