<svg width="34" height="32" viewBox="0 0 34 32" fill="none" xmlns="http://www.w3.org/2000/svg">
<path d="M18.455 9.24496C17.977 9.25142 17.4926 9.25788 16.9995 9.26003C16.5086 9.25788 16.0242 9.25142 15.544 9.24496C7.31282 9.12223 1.1055 8.42678 1.00215 8.41602H1V16.3782C8.77692 16.3782 14.0886 24.3404 14.0886 24.3404H19.9105C19.9105 24.3404 25.22 16.3782 32.999 16.3782V8.41602H32.9969C32.8935 8.42678 26.6841 9.12223 18.455 9.24496Z" stroke="black" stroke-miterlimit="10" stroke-linecap="round" stroke-linejoin="round"/>
<path d="M3.90884 8.47703C3.90884 7.661 3.25861 7 2.4555 7C1.67177 7 1.0323 7.62871 1.00215 8.41674C1.00215 8.43612 1 8.45765 1 8.47703" stroke="black" stroke-miterlimit="10" stroke-linecap="round" stroke-linejoin="round"/>
<path d="M6.81509 8.47703C6.81509 7.661 6.16486 7 5.36175 7C4.55864 7 3.90625 7.661 3.90625 8.47703" stroke="black" stroke-miterlimit="10" stroke-linecap="round" stroke-linejoin="round"/>
<path d="M9.7235 8.75633C9.7235 8.73479 9.7235 8.71326 9.72134 8.69173C9.68905 7.90585 9.04957 7.2793 8.268 7.2793C7.55747 7.2793 6.96537 7.79604 6.83834 8.48073C6.82111 8.56901 6.8125 8.66159 6.8125 8.75633" stroke="black" stroke-miterlimit="10" stroke-linecap="round" stroke-linejoin="round"/>
<path d="M12.6333 8.69187C12.6333 7.87585 11.983 7.21484 11.1799 7.21484C10.3768 7.21484 9.72656 7.87585 9.72656 8.69187" stroke="black" stroke-miterlimit="10" stroke-linecap="round" stroke-linejoin="round"/>
<path d="M15.5495 8.90672C15.5495 8.09069 14.8992 7.42969 14.0961 7.42969C13.3641 7.42969 12.759 7.97873 12.6557 8.69356C12.6449 8.76246 12.6406 8.83351 12.6406 8.90672" stroke="black" stroke-miterlimit="10" stroke-linecap="round" stroke-linejoin="round"/>
<path d="M18.4536 9.21531C18.4536 9.11196 18.4428 9.01077 18.4234 8.91388C18.2856 8.24211 17.7021 7.73828 17.0002 7.73828C16.2983 7.73828 15.7127 8.24211 15.577 8.91388C15.5576 9.01077 15.5469 9.11196 15.5469 9.21531" stroke="black" stroke-miterlimit="10" stroke-linecap="round" stroke-linejoin="round"/>
<path d="M21.3676 8.90672C21.3676 8.83351 21.3633 8.76246 21.3526 8.69356C21.2514 7.97873 20.6463 7.42969 19.9143 7.42969C19.1112 7.42969 18.4609 8.09069 18.4609 8.90672" stroke="black" stroke-miterlimit="10" stroke-linecap="round" stroke-linejoin="round"/>
<path d="M24.276 8.69187C24.276 7.87585 23.6258 7.21484 22.8205 7.21484C22.0174 7.21484 21.3672 7.87585 21.3672 8.69187" stroke="black" stroke-miterlimit="10" stroke-linecap="round" stroke-linejoin="round"/>
<path d="M27.1766 8.75633C27.1766 8.66159 27.168 8.57116 27.1508 8.48073C27.0238 7.79604 26.4316 7.2793 25.7211 7.2793C24.9395 7.2793 24.3022 7.90585 24.2678 8.69173C24.2678 8.71326 24.2656 8.73479 24.2656 8.75633" stroke="black" stroke-miterlimit="10" stroke-linecap="round" stroke-linejoin="round"/>
<path d="M30.0885 8.47703C30.0885 7.661 29.4383 7 28.6352 7C27.8321 7 27.1797 7.661 27.1797 8.47703" stroke="black" stroke-miterlimit="10" stroke-linecap="round" stroke-linejoin="round"/>
<path d="M32.9969 8.47703C32.9969 8.45765 32.9969 8.43612 32.9948 8.41674C32.9646 7.62871 32.3252 7 31.5414 7C30.7383 7 30.0859 7.661 30.0859 8.47703" stroke="black" stroke-miterlimit="10" stroke-linecap="round" stroke-linejoin="round"/>
</svg>
