<svg width="32" height="32" viewBox="0 0 32 32" fill="none" xmlns="http://www.w3.org/2000/svg">
<path d="M7.24219 4.57023L8.26885 3.61523" stroke="black" stroke-miterlimit="10" stroke-linecap="round" stroke-linejoin="round"/>
<path d="M4.36719 7.23654L5.39385 6.2832" stroke="black" stroke-miterlimit="10" stroke-linecap="round" stroke-linejoin="round"/>
<path d="M11.2969 7.09323L12.3669 6.10156" stroke="black" stroke-miterlimit="10" stroke-linecap="round" stroke-linejoin="round"/>
<path d="M6.53906 11.5129L7.60906 10.5195" stroke="black" stroke-miterlimit="10" stroke-linecap="round" stroke-linejoin="round"/>
<path d="M10.3777 7.95042L11.2994 7.09375L21.541 18.1271L17.8494 21.5538L15.7627 19.3038L14.1527 17.5704L12.5427 15.8371L10.9344 14.1038L9.32438 12.3704L7.60938 10.5204L8.53104 9.66375" stroke="black" stroke-miterlimit="10" stroke-linecap="round" stroke-linejoin="round"/>
<path d="M21.3329 20.1699L23.1796 22.4399L22.0329 23.5033L19.9062 21.4933L19.9196 21.4816L21.3329 20.1699Z" stroke="black" stroke-miterlimit="10" stroke-linecap="round" stroke-linejoin="round"/>
<path d="M22.9531 23.3477L27.6281 28.3843" stroke="black" stroke-miterlimit="10" stroke-linecap="round" stroke-linejoin="round"/>
<path d="M21.5398 18.127C21.5398 18.127 22.0815 18.9286 21.3281 20.1703" stroke="black" stroke-miterlimit="10" stroke-linecap="round" stroke-linejoin="round"/>
<path d="M17.8516 21.5537C17.8516 21.5537 18.6116 22.1288 19.9049 21.4688" stroke="black" stroke-miterlimit="10" stroke-linecap="round" stroke-linejoin="round"/>
<path d="M7.23729 4.57031L6.31396 5.42698L5.39062 6.28365L8.52896 9.66365L9.45229 8.80698L10.3756 7.95031L7.23729 4.57031Z" stroke="black" stroke-miterlimit="10" stroke-linecap="round" stroke-linejoin="round"/>
<path d="M6.32031 5.42773L9.45865 8.80773" stroke="black" stroke-miterlimit="10" stroke-linecap="round" stroke-linejoin="round"/>
<path d="M9.32812 12.3696L11.1748 10.6562" stroke="black" stroke-miterlimit="10" stroke-linecap="round" stroke-linejoin="round"/>
<path d="M10.9375 14.104L12.7825 12.3906" stroke="black" stroke-miterlimit="10" stroke-linecap="round" stroke-linejoin="round"/>
<path d="M12.5469 15.8364L14.3935 14.123" stroke="black" stroke-miterlimit="10" stroke-linecap="round" stroke-linejoin="round"/>
<path d="M14.1562 17.5708L16.0012 15.8574" stroke="black" stroke-miterlimit="10" stroke-linecap="round" stroke-linejoin="round"/>
<path d="M15.7656 19.3032L17.6106 17.5898" stroke="black" stroke-miterlimit="10" stroke-linecap="round" stroke-linejoin="round"/>
</svg>
