<svg width="32" height="32" viewBox="0 0 32 32" fill="none" xmlns="http://www.w3.org/2000/svg">
<path d="M22.189 20.7469C22.189 20.7469 16.954 24.4485 14.7623 22.7835C12.5706 21.1185 5.55562 8.00519 5.96229 3.74353C5.96229 3.74353 7.14729 3.14686 8.02562 4.54686C8.90395 5.94686 18.0573 19.8152 19.3856 20.3869C20.7106 20.9569 22.189 20.7469 22.189 20.7469Z" stroke="black" stroke-miterlimit="10" stroke-linecap="round" stroke-linejoin="round"/>
<path d="M25.3388 27.4954C22.1905 28.0587 16.8921 28.1004 11.9938 25.8404C11.9938 25.8404 11.0854 25.7604 10.2971 23.3321C9.60045 21.1854 9.03045 18.7387 6.14545 14.9721C5.76712 14.4787 5.34878 13.9621 4.88545 13.4204C4.80045 13.3221 4.72212 13.2221 4.64712 13.1187C1.95378 9.43707 5.32045 3.45374 5.96378 3.7404C5.55712 8.00207 12.5721 21.1154 14.7638 22.7804C16.9554 24.4454 22.1905 20.7437 22.1905 20.7437C22.1905 20.7437 27.5721 22.7287 28.3371 25.5654C28.3371 25.5687 28.4888 26.9321 25.3388 27.4954Z" stroke="black" stroke-miterlimit="10" stroke-linecap="round" stroke-linejoin="round"/>
<path d="M6.14677 14.9728L6.11177 23.3328H5.41177L4.64844 13.1211C4.72344 13.2228 4.80177 13.3244 4.88677 13.4228C5.35177 13.9628 5.7701 14.4794 6.14677 14.9728Z" stroke="black" stroke-miterlimit="10" stroke-linecap="round" stroke-linejoin="round"/>
</svg>
