<svg width="32" height="32" viewBox="0 0 32 32" fill="none" xmlns="http://www.w3.org/2000/svg">
<path d="M6.23438 18.0344C8.55271 20.3528 11.696 21.6544 14.9744 21.6544H16.9944C19.441 21.6544 21.8127 20.9294 23.8227 19.5978C24.506 19.1444 25.1477 18.6228 25.736 18.0344L25.7744 17.9961" stroke="black" stroke-miterlimit="10" stroke-linecap="round" stroke-linejoin="round"/>
<path d="M9.89802 11.9453H8.24635C7.43802 11.9453 6.75469 12.5453 6.64969 13.3453L4.67969 28.3853H27.3214L25.2947 13.3403C25.1864 12.542 24.5047 11.9453 23.6997 11.9453H21.7947" stroke="black" stroke-miterlimit="10" stroke-linecap="round" stroke-linejoin="round"/>
<path d="M19.9268 11.9453H11.7734" stroke="black" stroke-miterlimit="10" stroke-linecap="round" stroke-linejoin="round"/>
<path d="M21.7951 11.9452V9.56357C21.7951 6.27857 19.1318 3.61523 15.8468 3.61523C12.5618 3.61523 9.89844 6.27857 9.89844 9.56357V16.4202C9.89844 16.9369 10.3184 17.3569 10.8351 17.3552C11.0934 17.3552 11.3268 17.2502 11.4951 17.0802C11.6634 16.9102 11.7684 16.6769 11.7684 16.4186V9.64857C11.7684 7.3969 13.5934 5.5719 15.8451 5.5719C16.9701 5.5719 17.9901 6.02857 18.7284 6.76523C19.4668 7.50357 19.9234 8.5219 19.9234 9.64857V16.4219C19.9234 16.9386 20.3418 17.3569 20.8568 17.3569H20.8584C21.3751 17.3569 21.7934 16.9386 21.7934 16.4219V11.9452H21.7951Z" stroke="black" stroke-miterlimit="10" stroke-linecap="round" stroke-linejoin="round"/>
<path d="M17.0929 21.8945V23.5445C17.0929 24.1479 16.6029 24.6379 15.9996 24.6379C15.6979 24.6379 15.4246 24.5162 15.2262 24.3179C15.0279 24.1195 14.9062 23.8462 14.9062 23.5445V21.8945" stroke="black" stroke-miterlimit="10" stroke-linecap="round" stroke-linejoin="round"/>
<path d="M21.9062 13.9551C21.9062 13.9551 24.3046 15.2717 23.8229 19.5984C23.7496 20.2517 23.6112 20.9717 23.3896 21.7684" stroke="black" stroke-miterlimit="10" stroke-linecap="round" stroke-linejoin="round"/>
<path d="M22.7384 26.6258L20.2734 25.5024L21.7418 22.2791L23.3918 21.8008L24.2068 23.4024L22.7384 26.6258Z" stroke="black" stroke-miterlimit="10" stroke-linecap="round" stroke-linejoin="round"/>
</svg>
