<svg width="48" height="48" viewBox="0 0 48 48" fill="none" xmlns="http://www.w3.org/2000/svg">
<g clip-path="url(#clip0_5191_31239)">
<path d="M24 48C37.232 48 48 37.232 48 24C48 10.768 37.2321 0 24 0C10.7679 0 0 10.768 0 24C0 37.232 10.768 48 24 48ZM24 3.19995C35.472 3.19995 44.8001 12.5279 44.8001 24C44.8001 35.4721 35.4721 44.8001 24 44.8001C12.5279 44.8001 3.19995 35.4721 3.19995 24C3.19995 12.5279 12.528 3.19995 24 3.19995Z" fill="white"/>
<path d="M31.0023 31.6476C31.2984 31.8875 31.6503 31.9996 32.0023 31.9996C32.2421 32.0001 32.4789 31.9464 32.695 31.8425C32.9111 31.7386 33.1009 31.5872 33.2503 31.3996C33.8023 30.7116 33.6902 29.7036 33.0023 29.1516L25.6023 23.2316V11.1996C25.6023 10.3196 24.8823 9.59961 24.0023 9.59961C23.1223 9.59961 22.4023 10.3196 22.4023 11.1996V23.9996C22.4023 24.4877 22.6264 24.9436 23.0023 25.2476L31.0023 31.6476Z" fill="white"/>
</g>
<defs>
<clipPath id="clip0_5191_31239">
<rect width="48" height="48" fill="white"/>
</clipPath>
</defs>
</svg>
