<svg width="48" height="48" viewBox="0 0 48 48" fill="none" xmlns="http://www.w3.org/2000/svg">
<path d="M38.3561 5.94619C34.5217 2.11172 29.4235 0 24.0008 0C18.5781 0 13.4798 2.11172 9.64541 5.94619C5.81094 9.78075 3.69922 14.8789 3.69922 20.3015C3.69922 31.2713 14.0715 40.3956 19.6439 45.2974C20.4183 45.9786 21.087 46.5668 21.6198 47.0645C22.2873 47.688 23.1441 47.9998 24.0007 47.9998C24.8575 47.9998 25.7141 47.688 26.3817 47.0645C26.9144 46.5667 27.5832 45.9786 28.3575 45.2974C33.9299 40.3955 44.3022 31.2713 44.3022 20.3015C44.3022 14.8789 42.1905 9.78075 38.3561 5.94619ZM26.5003 43.1863C25.709 43.8824 25.0257 44.4836 24.4622 45.0098C24.2034 45.2514 23.798 45.2515 23.5391 45.0098C22.9757 44.4834 22.2923 43.8823 21.5009 43.1862C16.2622 38.5779 6.51078 29.9999 6.51078 20.3016C6.51078 10.6577 14.3566 2.81184 24.0006 2.81184C33.6445 2.81184 41.4903 10.6577 41.4903 20.3016C41.4904 29.9999 31.7391 38.5779 26.5003 43.1863Z" fill="white"/>
<path d="M24.0013 10.5879C19.0681 10.5879 15.0547 14.6012 15.0547 19.5345C15.0547 24.4677 19.0681 28.481 24.0013 28.481C28.9346 28.481 32.9479 24.4677 32.9479 19.5345C32.9479 14.6012 28.9346 10.5879 24.0013 10.5879ZM24.0013 25.6692C20.6186 25.6692 17.8664 22.917 17.8664 19.5344C17.8664 16.1517 20.6186 13.3995 24.0013 13.3995C27.3841 13.3995 30.1362 16.1517 30.1362 19.5344C30.1362 22.917 27.3841 25.6692 24.0013 25.6692Z" fill="white"/>
</svg>
