<svg width="48" height="48" viewBox="0 0 48 48" fill="none" xmlns="http://www.w3.org/2000/svg">
<path d="M24 45.7045C23.3165 45.7045 22.6578 45.4569 22.1444 45.0072C20.2052 43.3117 18.3358 41.7183 16.6863 40.3128L16.6779 40.3055C11.8421 36.1845 7.6662 32.6257 4.76071 29.1199C1.51284 25.2009 0 21.4848 0 17.4254C0 13.4813 1.35243 9.84261 3.80784 7.17918C6.29258 4.48425 9.70198 3 13.4091 3C16.1799 3 18.7173 3.876 20.9509 5.60343C22.0781 6.47531 23.0998 7.54246 24 8.78718C24.9004 7.54246 25.9218 6.47531 27.0494 5.60343C29.2829 3.876 31.8204 3 34.5911 3C38.2979 3 41.7077 4.48425 44.1924 7.17918C46.6478 9.84261 47.9999 13.4813 47.9999 17.4254C47.9999 21.4847 46.4874 25.2008 43.2396 29.1195C40.334 32.6257 36.1585 36.1842 31.3234 40.3047C29.6711 41.7125 27.7987 43.3084 25.8552 45.008C25.3415 45.4572 24.6823 45.7047 24 45.7045ZM13.4091 5.81174C10.4967 5.81174 7.82117 6.97415 5.87474 9.08493C3.89943 11.2277 2.81137 14.1896 2.81137 17.4254C2.81137 20.8396 4.08027 23.893 6.92539 27.3259C9.67526 30.6441 13.7655 34.1297 18.5013 38.1657L18.5101 38.1731C20.1657 39.584 22.0425 41.1836 23.9959 42.8917C25.961 41.1804 27.8408 39.5782 29.4997 38.165C34.2352 34.129 38.325 30.6441 41.0749 27.3259C43.9196 23.893 45.1885 20.8396 45.1885 17.4254C45.1885 14.1895 44.1005 11.2276 42.1252 9.08493C40.1791 6.97415 37.5033 5.81174 34.5911 5.81174C32.4576 5.81174 30.4987 6.49002 28.7691 7.82737C27.2278 9.01977 26.154 10.5271 25.5244 11.5818C25.2008 12.1241 24.631 12.4478 24 12.4478C23.3689 12.4478 22.7991 12.1241 22.4754 11.5818C21.8463 10.5271 20.7725 9.01977 19.2307 7.82737C17.5012 6.49002 15.5423 5.81174 13.4091 5.81174Z" fill="white"/>
</svg>
