<svg width="48" height="48" viewBox="0 0 48 48" fill="none" xmlns="http://www.w3.org/2000/svg">
<g clip-path="url(#clip0_5191_84)">
<path d="M23.9998 0C10.7451 0 0 10.7451 0 23.9998C0 37.2546 10.7451 48.0001 23.9998 48.0001C37.2546 48.0001 48.0001 37.2546 48.0001 23.9998C47.9851 10.7512 37.2489 0.01485 23.9998 0ZM23.9998 45.5998C12.0705 45.5998 2.39985 35.9293 2.39985 23.9998C2.39985 12.0705 12.0705 2.39985 23.9998 2.39985C35.9293 2.39985 45.5998 12.0705 45.5998 23.9998C45.5862 35.9235 35.9235 45.5862 23.9998 45.5998Z" fill="white"/>
<path d="M21.1897 14.6971C20.6906 14.2606 19.9325 14.3117 19.4962 14.8105C19.0602 15.3097 19.1112 16.0677 19.61 16.5041L28.1775 24.0003L19.6096 31.497C19.1103 31.9334 19.0598 32.6914 19.4957 33.1901C19.9321 33.6894 20.6901 33.7403 21.1894 33.304L30.7892 24.9038C30.918 24.7911 31.0213 24.6522 31.092 24.4964C31.1628 24.3406 31.1993 24.1714 31.1993 24.0003C31.1993 23.8291 31.1628 23.66 31.092 23.5041C31.0213 23.3483 30.918 23.2094 30.7892 23.0967L21.1897 14.6971Z" fill="white"/>
</g>
<defs>
<clipPath id="clip0_5191_84">
<rect width="48" height="48" fill="white"/>
</clipPath>
</defs>
</svg>
