<svg width="60" height="60" viewBox="0 0 60 60" fill="none" xmlns="http://www.w3.org/2000/svg">

    <path
        d="M9.70044 30H5.83381C5.29992 30 4.86719 30.4327 4.86719 30.9666V56.0998C4.86719 57.7014 6.1655 58.9998 7.76718 58.9998C9.36886 58.9998 10.6672 57.7015 10.6672 56.0998V30.9665C10.6671 30.4327 10.2343 30 9.70044 30ZM8.73392 56.0998C8.73381 56.6337 8.30108 57.0665 7.76718 57.0665C7.23329 57.0665 6.80055 56.6337 6.80055 56.0998V31.9333H8.73392V56.0998Z"
        fill="black" />
    <path fill-rule="evenodd" clip-rule="evenodd"
        d="M4.82812 30.9676C4.82812 30.4116 5.27877 29.9609 5.83475 29.9609H9.70137C10.2574 29.9609 10.708 30.4116 10.7081 30.9674V56.1008C10.7081 57.7245 9.39189 59.0408 7.76812 59.0408C6.14435 59.0408 4.82812 57.7244 4.82812 56.1008V30.9676ZM5.83475 30.0409C5.32295 30.0409 4.90812 30.4558 4.90812 30.9676V56.1008C4.90812 57.6803 6.18853 58.9608 7.76812 58.9608C9.34771 58.9608 10.6281 57.6804 10.6281 56.1008V30.9675C10.6281 30.9675 10.6281 30.9675 10.6281 30.9675C10.628 30.4558 10.2132 30.0409 9.70137 30.0409H5.83475ZM6.76149 31.8942H8.77486V56.1008C8.77474 56.6568 8.32411 57.1074 7.76812 57.1074C7.21213 57.1074 6.76149 56.6568 6.76149 56.1008V31.8942ZM6.84149 31.9742V56.1008C6.84149 56.6126 7.25632 57.0274 7.76812 57.0274C8.27992 57.0274 8.69475 56.6126 8.69486 56.1008V31.9742H6.84149Z"
        fill="black" />
    <path
        d="M9.70044 16.4668H5.83381C5.29992 16.4668 4.86719 16.8995 4.86719 17.4334V30.9668C4.86719 31.5007 5.29992 31.9334 5.83381 31.9334H9.70044C10.2343 31.9334 10.6671 31.5007 10.6671 30.9668V17.4335C10.6671 16.8996 10.2343 16.4668 9.70044 16.4668ZM8.73381 30.0001H6.80044V18.4001H8.73381V30.0001Z"
        fill="black" />
    <path fill-rule="evenodd" clip-rule="evenodd"
        d="M4.82812 17.4344C4.82812 16.8784 5.27877 16.4277 5.83475 16.4277H9.70137C10.2574 16.4277 10.708 16.8785 10.708 17.4345V30.9677C10.708 31.5237 10.2574 31.9743 9.70137 31.9743H5.83475C5.27877 31.9743 4.82812 31.5237 4.82812 30.9677V17.4344ZM5.83475 16.5077C5.32295 16.5077 4.90812 16.9226 4.90812 17.4344V30.9677C4.90812 31.4795 5.32295 31.8943 5.83475 31.8943H9.70137C10.2132 31.8943 10.628 31.4795 10.628 30.9677V17.4345C10.628 16.9227 10.2132 16.5077 9.70137 16.5077H5.83475ZM6.76138 18.361H8.77475V30.0411H6.76138V18.361ZM6.84138 18.441V29.9611H8.69475V18.441H6.84138Z"
        fill="black" />
    <path
        d="M57.0658 1H55.1325C52.997 1 51.2659 2.73116 51.2659 4.86662V28.0666C51.2448 29.9978 52.652 31.6485 54.5622 31.9332H54.7362H55.1326H58.0326C58.5665 31.9332 58.9992 31.5005 58.9992 30.9666V2.93337C58.9992 1.86558 58.1336 1 57.0658 1ZM55.0165 29.9999H54.9005C53.9242 29.882 53.1921 29.05 53.1991 28.0666V4.86662C53.1991 3.79883 54.0647 2.93325 55.1325 2.93325H57.0658V29.9999H55.0165Z"
        fill="black" />
    <path fill-rule="evenodd" clip-rule="evenodd"
        d="M54.5641 31.9331C52.6538 31.6484 51.2467 29.9977 51.2677 28.0665V4.86654C51.2677 2.73108 52.9989 0.999922 55.1344 0.999922H57.0677C58.1355 0.999922 59.0011 1.8655 59.0011 2.93329V30.9665C59.0011 31.5004 58.5684 31.9331 58.0345 31.9331H54.5641ZM51.1877 28.0661C51.1664 30.037 52.6027 31.7217 54.5523 32.0122L58.0345 32.0131C58.6125 32.0131 59.0811 31.5446 59.0811 30.9665V2.93329C59.0811 1.82132 58.1797 0.919922 57.0677 0.919922H55.1344C52.9547 0.919922 51.1877 2.6869 51.1877 4.86654V28.0661ZM53.201 28.0665C53.194 29.0499 53.9261 29.8819 54.9024 29.9999H57.0677V2.93318H55.1344C54.0666 2.93318 53.201 3.79876 53.201 4.86654V28.0665ZM56.9877 3.01318H55.1344C54.1108 3.01318 53.281 3.84294 53.281 4.86654V28.0665C53.2743 29.0076 53.9737 29.8047 54.9072 29.9199H56.9877V3.01318Z"
        fill="black" />
    <path
        d="M5.83336 16.4666C4.23179 16.4666 2.93337 15.1683 2.93337 13.5666V1.96663C2.93337 1.43273 2.50052 1 1.96663 1C1.43273 1 1 1.43273 1 1.96663V13.5666C1 16.236 3.16401 18.3999 5.83336 18.3999C6.36726 18.3999 6.79999 17.967 6.79999 17.4332C6.79999 16.8994 6.36726 16.4666 5.83336 16.4666Z"
        fill="black" />
    <path fill-rule="evenodd" clip-rule="evenodd"
        d="M3.01524 13.5665C3.01524 15.124 4.27785 16.3865 5.83524 16.3865C6.41332 16.3865 6.88186 16.8552 6.88186 17.4331C6.88186 18.0111 6.41332 18.4798 5.83524 18.4798C3.1217 18.4798 0.921875 16.2801 0.921875 13.5665V1.96655C0.921875 1.38847 1.39043 0.919922 1.9685 0.919922C2.54657 0.919922 3.01524 1.38846 3.01524 1.96655V13.5665ZM2.93524 13.5665C2.93524 15.1682 4.23367 16.4665 5.83524 16.4665C6.36913 16.4665 6.80186 16.8994 6.80186 17.4331C6.80186 17.9669 6.36913 18.3998 5.83524 18.3998C3.16588 18.3998 1.00187 16.2359 1.00187 13.5665V1.96655C1.00187 1.43266 1.43461 0.999922 1.9685 0.999922C2.5024 0.999922 2.93524 1.43266 2.93524 1.96655V13.5665Z"
        fill="black" />
    <path
        d="M13.5676 1C13.0337 1 12.601 1.43273 12.601 1.96663V13.5666C12.601 15.1682 11.3026 16.4666 9.701 16.4666C9.16711 16.4666 8.73438 16.8993 8.73438 17.4332C8.73438 17.9671 9.16711 18.3999 9.701 18.3999C12.3704 18.3999 14.5344 16.2358 14.5344 13.5665V1.96663C14.5344 1.43273 14.1015 1 13.5676 1Z"
        fill="black" />
    <path fill-rule="evenodd" clip-rule="evenodd"
        d="M12.5619 1.96756C12.5619 1.41158 13.0126 0.960938 13.5686 0.960938C14.1245 0.960938 14.5753 1.41157 14.5753 1.96756V13.5674C14.5753 16.2589 12.3934 18.4408 9.70194 18.4408C9.14596 18.4408 8.69531 17.9902 8.69531 17.4342C8.69531 16.8782 9.14596 16.4275 9.70194 16.4275C11.2814 16.4275 12.5619 15.147 12.5619 13.5675V1.96756ZM13.5686 1.04094C13.0568 1.04094 12.6419 1.45576 12.6419 1.96756V13.5675C12.6419 15.1912 11.3256 16.5075 9.70194 16.5075C9.19014 16.5075 8.77531 16.9224 8.77531 17.4342C8.77531 17.946 9.19014 18.3608 9.70194 18.3608C12.3492 18.3608 14.4953 16.2147 14.4953 13.5674V1.96756C14.4953 1.45577 14.0804 1.04094 13.5686 1.04094Z"
        fill="black" />
    <path
        d="M13.5666 11.6348H1.96663C1.43273 11.6348 1 12.0675 1 12.6014C1 13.1353 1.43273 13.568 1.96663 13.568H13.5666C14.1005 13.568 14.5332 13.1353 14.5332 12.6014C14.5332 12.0675 14.1005 11.6348 13.5666 11.6348Z"
        fill="black" />
    <path fill-rule="evenodd" clip-rule="evenodd"
        d="M0.960938 12.6023C0.960938 12.0463 1.41158 11.5957 1.96756 11.5957H13.5675C14.1235 11.5957 14.5742 12.0463 14.5742 12.6023C14.5742 13.1583 14.1235 13.609 13.5675 13.609H1.96756C1.41158 13.609 0.960938 13.1583 0.960938 12.6023ZM1.96756 11.6757C1.45576 11.6757 1.04094 12.0905 1.04094 12.6023C1.04094 13.1141 1.45576 13.529 1.96756 13.529H13.5675C14.0793 13.529 14.4942 13.1141 14.4942 12.6023C14.4942 12.0905 14.0793 11.6757 13.5675 11.6757H1.96756Z"
        fill="black" />
    <path
        d="M5.83381 1C5.29992 1 4.86719 1.43273 4.86719 1.96663V12.6C4.86719 13.1339 5.29992 13.5666 5.83381 13.5666C6.36771 13.5666 6.80044 13.1339 6.80044 12.6V1.96663C6.80044 1.43273 6.36771 1 5.83381 1Z"
        fill="black" />
    <path fill-rule="evenodd" clip-rule="evenodd"
        d="M4.82812 1.96756C4.82812 1.41158 5.27877 0.960938 5.83475 0.960938C6.39074 0.960938 6.84138 1.41158 6.84138 1.96756V12.6009C6.84138 13.1569 6.39074 13.6075 5.83475 13.6075C5.27877 13.6075 4.82812 13.1569 4.82812 12.6009V1.96756ZM5.83475 1.04094C5.32295 1.04094 4.90812 1.45576 4.90812 1.96756V12.6009C4.90812 13.1127 5.32295 13.5275 5.83475 13.5275C6.34655 13.5275 6.76138 13.1127 6.76138 12.6009V1.96756C6.76138 1.45576 6.34655 1.04094 5.83475 1.04094Z"
        fill="black" />
    <path
        d="M9.701 1C9.16711 1 8.73438 1.43273 8.73438 1.96663V12.6C8.73438 13.1339 9.16711 13.5666 9.701 13.5666C10.2349 13.5666 10.6676 13.1339 10.6676 12.6V1.96663C10.6676 1.43273 10.2349 1 9.701 1Z"
        fill="black" />
    <path fill-rule="evenodd" clip-rule="evenodd"
        d="M8.69531 1.96756C8.69531 1.41158 9.14596 0.960938 9.70194 0.960938C10.2579 0.960938 10.7086 1.41158 10.7086 1.96756V12.6009C10.7086 13.1569 10.2579 13.6075 9.70194 13.6075C9.14596 13.6075 8.69531 13.1569 8.69531 12.6009V1.96756ZM9.70194 1.04094C9.19014 1.04094 8.77531 1.45576 8.77531 1.96756V12.6009C8.77531 13.1127 9.19014 13.5275 9.70194 13.5275C10.2137 13.5275 10.6286 13.1127 10.6286 12.6009V1.96756C10.6286 1.45576 10.2137 1.04094 9.70194 1.04094Z"
        fill="black" />
    <path
        d="M58.0286 30H54.1619C53.628 30 53.1953 30.4327 53.1953 30.9666V56.0998C53.1953 57.7014 54.4936 58.9998 56.0953 58.9998C57.697 58.9998 58.9953 57.7015 58.9953 56.0998V30.9665C58.9952 30.4327 58.5625 30 58.0286 30ZM57.0619 56.0998C57.0618 56.6337 56.6291 57.0665 56.0952 57.0665C55.5613 57.0665 55.1286 56.6337 55.1286 56.0998V31.9333H57.0619V56.0998Z"
        fill="black" />
    <path fill-rule="evenodd" clip-rule="evenodd"
        d="M59.0772 30.9664V56.0998C59.0772 57.7456 57.743 59.0798 56.0972 59.0798C54.4513 59.0798 53.1172 57.7455 53.1172 56.0998V30.9665C53.1172 30.3885 53.5857 29.9199 54.1638 29.9199H58.0304C58.6085 29.9199 59.0771 30.3885 59.0772 30.9664ZM58.9972 30.9664V56.0998C58.9972 57.7014 57.6989 58.9998 56.0972 58.9998C54.4955 58.9998 53.1972 57.7013 53.1972 56.0998V30.9665C53.1972 30.4327 53.6299 29.9999 54.1638 29.9999H58.0304C58.5643 29.9999 58.9971 30.4327 58.9972 30.9664ZM56.0971 56.9864C56.5868 56.9864 56.9837 56.5895 56.9838 56.0997V32.0132H55.2104V56.0998C55.2104 56.5895 55.6074 56.9864 56.0971 56.9864ZM56.0971 57.0664C56.631 57.0664 57.0637 56.6336 57.0638 56.0998V31.9332H55.1304V56.0998C55.1304 56.6336 55.5632 57.0664 56.0971 57.0664Z"
        fill="black" />
    <path
        d="M55.7359 30.8231C55.7195 30.7324 55.6902 30.6445 55.6489 30.5621C55.5062 30.2492 55.208 30.0358 54.8659 30.0015C53.8897 29.8835 53.1575 29.0515 53.1646 28.0681V23.5827C53.1624 23.42 53.1191 23.2603 53.0389 23.1187C49.9704 17.583 44.8526 13.4721 38.7853 11.6693C25.9914 7.86806 12.5381 15.158 8.73676 27.9521C8.72407 28.0418 8.72407 28.133 8.73676 28.2227V41.4467C8.72316 41.5397 8.72316 41.6341 8.73676 41.7271C11.8311 51.9596 21.2465 58.9701 31.9367 59.0013C42.6242 58.9714 52.0388 51.9654 55.1367 41.7367C55.1503 41.6438 55.1503 41.5493 55.1367 41.4563V31.8767C55.5592 31.7099 55.8085 31.2715 55.7359 30.8231ZM53.2033 41.3113C51.0442 48.3923 45.5022 53.9342 38.4213 56.0934C26.6761 59.6748 14.2514 53.0565 10.67 41.3113V28.3677C12.3291 22.9264 16.0108 18.328 20.9574 15.5188C31.6348 9.45512 45.2062 13.1953 51.2699 23.8727V28.0681C51.2714 29.4481 52.0082 30.7227 53.2033 31.4127V41.3113Z"
        fill="black" />
    <path fill-rule="evenodd" clip-rule="evenodd"
        d="M8.69957 27.9417C12.5072 15.1264 25.9828 7.82437 38.7979 11.6319C44.8751 13.4376 50.0013 17.5553 53.075 23.1001C53.1584 23.2475 53.2035 23.4137 53.2057 23.5832L53.2057 28.0691C53.1988 29.032 53.9156 29.847 54.8715 29.9627C55.2273 29.9985 55.5375 30.2204 55.6862 30.5458C55.7289 30.6314 55.7594 30.7227 55.7764 30.8169C55.8506 31.2748 55.6024 31.7235 55.1778 31.9045V41.4544C55.1916 41.5503 55.1914 41.6477 55.1774 41.7434L55.1765 41.7494C52.0735 51.9949 42.6431 59.0123 31.938 59.0422C21.2302 59.011 11.7991 51.989 8.69963 41.7396L8.69789 41.7339C8.68388 41.638 8.68418 41.5407 8.69791 41.4448V28.2265C8.6851 28.1339 8.68523 28.0399 8.69831 27.9475L8.69957 27.9417ZM8.77711 27.9616C8.76536 28.0466 8.7655 28.133 8.77752 28.2181L8.77831 28.2237L8.77791 41.4535C8.76502 41.5417 8.76446 41.6311 8.77707 41.7193C11.8672 51.9335 21.2663 58.9311 31.9379 58.9622C42.6067 58.9323 52.005 51.9392 55.0987 41.729C55.1113 41.6408 55.1111 41.5513 55.0982 41.4631L55.0974 41.4573L55.0978 31.8505L55.1231 31.8405C55.5281 31.6805 55.7671 31.2605 55.6977 30.8308C55.6819 30.7439 55.6538 30.6598 55.6143 30.581L55.6137 30.5796C55.4769 30.2797 55.191 30.0751 54.8631 30.0422C53.8666 29.9219 53.1185 29.0725 53.1257 28.0688L53.1257 23.5842C53.1257 23.5841 53.1257 23.5843 53.1257 23.5842C53.1236 23.4283 53.0821 23.2751 53.0053 23.1394C49.9418 17.6129 44.8323 13.5084 38.7751 11.7086C26.0033 7.91392 12.5734 15.1905 8.77711 27.9616ZM51.2311 23.8843C45.1757 13.2331 31.6335 9.5035 20.9783 15.5546C16.0423 18.3577 12.3681 22.9456 10.7112 28.3746V41.3063C14.2884 53.0268 26.6886 59.6304 38.4108 56.0561C45.4771 53.9014 51.008 48.3718 53.1645 41.3063V31.4367C51.9688 30.7369 51.2326 29.4556 51.2311 28.0691V23.8843ZM20.9388 15.485C31.6354 9.41038 45.2313 13.1573 51.3059 23.8539L51.3111 23.8631V28.0691C51.3125 29.4347 52.0417 30.6962 53.2245 31.379L53.2445 31.3906V41.3245L53.2427 41.3239C51.0797 48.4177 45.5278 53.9696 38.4341 56.1326C26.6677 59.7204 14.2207 53.0903 10.6329 41.3239L10.6294 41.3123H10.6312V28.3565L10.6329 28.357C12.295 22.9059 15.9833 18.2992 20.9388 15.485Z"
        fill="black" />
    <path
        d="M31.9333 18.4004C22.8575 18.4004 15.5 25.758 15.5 34.8338C15.5 43.9097 22.8575 51.2672 31.9333 51.2672C41.0092 51.2672 48.3667 43.9097 48.3667 34.8338C48.3667 25.758 41.0092 18.4004 31.9333 18.4004ZM31.9333 49.3338C23.9252 49.3338 17.4334 42.8419 17.4334 34.8338C17.4334 26.8258 23.9253 20.3339 31.9333 20.3339C39.9414 20.3339 46.4333 26.8258 46.4333 34.8338C46.4333 42.8419 39.9414 49.3338 31.9333 49.3338Z"
        fill="black" />
    <path fill-rule="evenodd" clip-rule="evenodd"
        d="M15.4219 34.8338C15.4219 25.7137 22.8152 18.3203 31.9352 18.3203C41.0552 18.3203 48.4486 25.7137 48.4486 34.8338C48.4486 43.9538 41.0552 51.3471 31.9352 51.3471C22.8152 51.3471 15.4219 43.9538 15.4219 34.8338ZM17.5152 34.8338C17.5152 42.7976 23.9712 49.2537 31.9352 49.2537C39.8991 49.2537 46.3552 42.7976 46.3552 34.8338C46.3552 26.8699 39.8991 20.4138 31.9352 20.4138C23.9713 20.4138 17.5152 26.8699 17.5152 34.8338ZM15.5019 34.8338C15.5019 25.7579 22.8594 18.4003 31.9352 18.4003C41.0111 18.4003 48.3686 25.7579 48.3686 34.8338C48.3686 43.9096 41.0111 51.2671 31.9352 51.2671C22.8594 51.2671 15.5019 43.9096 15.5019 34.8338ZM17.4352 34.8338C17.4352 42.8418 23.927 49.3337 31.9352 49.3337C39.9433 49.3337 46.4352 42.8418 46.4352 34.8338C46.4352 26.8257 39.9433 20.3338 31.9352 20.3338C23.9271 20.3338 17.4352 26.8257 17.4352 34.8338Z"
        fill="black" />
    <path
        d="M31.9338 22.2656C24.9934 22.2656 19.3672 27.892 19.3672 34.8322C19.3672 35.3661 19.7999 35.7989 20.3338 35.7989C20.8677 35.7989 21.3004 35.3661 21.3004 34.8322C21.3004 28.9596 26.0612 24.1989 31.9338 24.1989C32.4677 24.1989 32.9004 23.7661 32.9004 23.2323C32.9004 22.6984 32.4676 22.2656 31.9338 22.2656Z"
        fill="black" />
    <path fill-rule="evenodd" clip-rule="evenodd"
        d="M19.2891 34.8321C19.2891 27.8477 24.9511 22.1855 31.9357 22.1855C32.5136 22.1855 32.9823 22.6541 32.9823 23.2322C32.9823 23.8103 32.5137 24.2788 31.9357 24.2788C26.1072 24.2788 21.3823 29.0037 21.3823 34.8321C21.3823 35.4102 20.9138 35.8788 20.3357 35.8788C19.7576 35.8788 19.2891 35.4102 19.2891 34.8321ZM19.3691 34.8321C19.3691 27.8919 24.9953 22.2655 31.9357 22.2655C32.4694 22.2655 32.9023 22.6983 32.9023 23.2322C32.9023 23.7661 32.4696 24.1988 31.9357 24.1988C26.0631 24.1988 21.3023 28.9595 21.3023 34.8321C21.3023 35.366 20.8696 35.7988 20.3357 35.7988C19.8018 35.7988 19.3691 35.366 19.3691 34.8321Z"
        fill="black" />
    <path
        d="M43.5354 33.8652C43.0015 33.8652 42.5687 34.298 42.5687 34.8319C42.5687 40.7045 37.808 45.4652 31.9354 45.4652C31.4015 45.4652 30.9688 45.8981 30.9688 46.4318C30.9688 46.9656 31.4016 47.3985 31.9354 47.3985C38.8757 47.3985 44.502 41.7722 44.502 34.832C44.502 34.298 44.0692 33.8652 43.5354 33.8652Z"
        fill="black" />
    <path fill-rule="evenodd" clip-rule="evenodd"
        d="M42.4906 34.8318C42.4906 34.2537 42.9592 33.7852 43.5372 33.7852C44.1153 33.7852 44.5839 34.2537 44.5839 34.8319C44.5839 41.8164 38.9217 47.4784 31.9373 47.4784C31.3593 47.4784 30.8906 47.0097 30.8906 46.4318C30.8906 45.8538 31.3592 45.3851 31.9373 45.3851C37.7657 45.3851 42.4906 40.6602 42.4906 34.8318ZM42.5706 34.8318C42.5706 34.2979 43.0033 33.8652 43.5372 33.8652C44.0711 33.8652 44.5039 34.2979 44.5039 34.8319C44.5039 41.7722 38.8775 47.3984 31.9373 47.3984C31.4035 47.3984 30.9706 46.9655 30.9706 46.4318C30.9706 45.898 31.4034 45.4651 31.9373 45.4651C37.8099 45.4651 42.5706 40.7044 42.5706 34.8318Z"
        fill="black" />

</svg>