<?xml version="1.0" encoding="UTF-8"?>
<svg id="Layer_1" data-name="Layer 1" xmlns="http://www.w3.org/2000/svg" xmlns:xlink="http://www.w3.org/1999/xlink" viewBox="0 0 61 60">
  <defs>
    <style>
      .cls-1 {
        fill: none;
      }

      .cls-2 {
        clip-path: url(#clippath);
      }
    </style>
    <clipPath id="clippath">
      <rect class="cls-1" x=".5" width="60" height="60"/>
    </clipPath>
  </defs>
  <g class="cls-2">
    <g>
      <path d="M21.94,24.52c-1.13,.91-2.74,.91-3.88,0-.38-.39-.93-.55-1.46-.41-.52,.14-.93,.55-1.07,1.07-.14,.52,.02,1.08,.41,1.46,2.3,2.09,5.82,2.09,8.12,0,.39-.38,.55-.93,.41-1.46-.14-.52-.55-.93-1.07-1.07-.52-.14-1.08,.02-1.46,.41Z"/>
      <path d="M42.94,24.52c-1.13,.91-2.74,.91-3.88,0-.38-.39-.93-.55-1.46-.41-.52,.14-.93,.55-1.07,1.07-.14,.52,.02,1.08,.41,1.46,2.3,2.09,5.82,2.09,8.12,0,.39-.38,.55-.93,.41-1.46-.14-.52-.55-.93-1.07-1.07-.52-.14-1.08,.02-1.46,.41Z"/>
      <path d="M34.17,41.17c-2.31,1.17-5.03,1.17-7.34,0-.45-.3-1.02-.34-1.5-.11-.48,.24-.8,.72-.84,1.25-.03,.54,.23,1.05,.68,1.35,1.61,.95,3.46,1.43,5.33,1.37,1.87,.06,3.72-.42,5.33-1.37,.68-.46,.86-1.39,.4-2.07-.46-.68-1.38-.87-2.07-.42Z"/>
      <path d="M56.92,24.57C54.33,12.04,43.3,3.05,30.5,3.05S6.67,12.04,4.08,24.57c-2.18,.95-3.58,3.1-3.58,5.48s1.41,4.53,3.58,5.48c2.59,12.53,13.62,21.52,26.42,21.52s23.83-8.99,26.42-21.52c2.18-.95,3.58-3.1,3.58-5.48s-1.41-4.53-3.58-5.48Zm-1.68,8.37c-.57,.15-1.01,.62-1.11,1.2-1.98,11.5-11.95,19.91-23.62,19.91S8.85,45.64,6.88,34.14c-.1-.58-.54-1.05-1.11-1.2-1.33-.33-2.26-1.52-2.26-2.89,0-1.37,.94-2.56,2.27-2.89,.57-.15,1.01-.62,1.11-1.2,1.67-9.79,9.22-17.53,18.96-19.44-.85,1.18-1.31,2.59-1.34,4.03-.05,2.3,1.25,4.42,3.33,5.42,.51,.21,1.05,.32,1.6,.32,1.39-.05,2.69-.66,3.63-1.68,.57-.59,.56-1.52-.02-2.1-.58-.58-1.51-.59-2.1-.02-.71,.71-1.38,.95-1.96,.71-.94-.54-1.51-1.56-1.48-2.65,.2-2.24,1.89-4.07,4.11-4.45,11.25,.49,20.62,8.76,22.52,19.86,.1,.58,.53,1.05,1.11,1.2,1.33,.33,2.27,1.52,2.27,2.89,0,1.37-.93,2.56-2.26,2.89Z"/>
    </g>
  </g>
</svg>