<?xml version="1.0" encoding="UTF-8"?>
<svg id="Layer_1" data-name="Layer 1" xmlns="http://www.w3.org/2000/svg" xmlns:xlink="http://www.w3.org/1999/xlink" viewBox="0 0 61 60">
  <defs>
    <style>
      .cls-1 {
        fill: none;
      }

      .cls-2 {
        clip-path: url(#clippath);
      }
    </style>
    <clipPath id="clippath">
      <rect class="cls-1" x=".5" width="60" height="60"/>
    </clipPath>
  </defs>
  <g class="cls-2">
    <g>
      <path d="M9.64,20.86C4.6,20.86,.5,24.96,.5,30s4.1,9.14,9.14,9.14,9.14-4.1,9.14-9.14-4.1-9.14-9.14-9.14Zm0,15.88c-3.72,0-6.74-3.02-6.74-6.74s3.02-6.74,6.74-6.74,6.74,3.02,6.74,6.74c0,3.72-3.02,6.74-6.74,6.74Z"/>
      <path d="M30.5,20.86c-5.04,0-9.14,4.1-9.14,9.14s4.1,9.14,9.14,9.14,9.14-4.1,9.14-9.14-4.1-9.14-9.14-9.14Zm0,15.88c-3.72,0-6.74-3.02-6.74-6.74s3.02-6.74,6.74-6.74,6.74,3.02,6.74,6.74-3.02,6.74-6.74,6.74Z"/>
      <path d="M51.36,20.86c-5.04,0-9.14,4.1-9.14,9.14s4.1,9.14,9.14,9.14,9.14-4.1,9.14-9.14-4.1-9.14-9.14-9.14Zm0,15.88c-3.72,0-6.74-3.02-6.74-6.74s3.02-6.74,6.74-6.74,6.74,3.02,6.74,6.74-3.02,6.74-6.74,6.74Z"/>
    </g>
  </g>
</svg>