<?xml version="1.0" encoding="UTF-8"?>
<svg id="Layer_1" data-name="Layer 1" xmlns="http://www.w3.org/2000/svg" viewBox="0 0 61 60">
  <path d="M10.29,42.89s-.08,0-.11,0h0c-.76,.05-1.5,.31-2.14,.74-1.48,1.01-2.37,2.46-2.36,3.89,0,1.73,1.36,3.03,3.16,3.03,1.95,0,3.18-1.4,3.73-2.24,.85-1.28,1.19-3.23-.06-4.5-.53-.53-1.51-.94-2.23-.94Zm-2.45,4.65c0-.63,.44-1.38,.85-1.76,.44-.4,1.05-.77,1.6-.77,.2,0,.4,.05,.57,.17,.55,.38,.38,1.36-.09,2.05h0c-.44,.64-1.24,1.17-1.9,1.24-.3,.03-.55-.03-.72-.18-.21-.19-.31-.44-.31-.75Z"/>
  <path d="M59.29,47.62c-.52-.57-1.26-.85-2.1-.77-.79,.07-1.54,.33-2.27,.57-.83,.28-1.69,.57-2.58,.58-.06-2.83-1.14-5.38-3.05-7.18-2.32-2.18-5.09-3.05-8.02-2.52-2.71-2.37-5.27-4.86-7.64-7.2,3.44-3.99,12.2-14.66,13.26-15.98,1.31-1.62,2.63-3.4,3.4-5.49,.29-.77,.7-2.22,.22-3.23-.21-.45-.58-.77-1.09-.95-1.09-.38-2.21,.1-2.96,.49-1.62,.87-3.06,2.2-4.33,3.37-1,.92-6.23,6.15-10.43,10.35-1.91,1.91-3.65,3.65-4.8,4.79-.84-.83-2.1-2.09-3.55-3.55-4.79-4.8-12.02-12.05-13.89-13.52-.74-.58-3-2.37-4.69-2.1-.55,.09-1,.38-1.33,.88-1.03,1.54,.24,3.97,.85,5.15,.78,1.5,1.85,2.83,2.89,4.11l.09,.11c2.33,2.88,12.09,14.57,12.92,15.56l-.78,.77c-2.2,2.16-4.48,4.39-6.84,6.46-3.16-.59-6.27,.53-8.53,3.07-2.12,2.37-3.03,5.35-2.45,7.96,.66,3,3.55,5.45,6.7,5.71,.13,0,.27,.02,.43,.02,1.46,0,4.36-.54,7.13-4.23,1.85-2.46,2.5-6.07,1.62-9,1.04-.88,2.12-1.73,3.17-2.56,2.03-1.6,4.13-3.26,5.97-5.13,.22-.23,.67,.08,1.03,.37,2.05,1.66,4.09,3.41,6.06,5.1l.37,.32c.76,.65,1.52,1.3,2.29,1.94l.25,.21c-1.63,3.16-.93,7.14,1.75,9.92,1.45,1.5,4.73,3.74,10.32,1.86,2.32,.94,5.01,.42,6.42,.02,1.96-.55,4.38-1.7,4.78-4,.15-.85-.07-1.67-.61-2.26Zm-20.4-5.25c.25-.38,.17-1-.17-1.29-.85-.71-2.41-2.03-4.01-3.39-2.27-1.92-4.62-3.92-5.22-4.41l-.21-.17c-.7-.58-1.37-1.13-2.34-1.13-.03,0-.05,0-.08,0-.37,0-.73,.11-1.08,.21-.4,.12-.79,.23-1.18,.2-.65-.04-1.16-.69-1.61-1.27-.12-.15-.23-.29-.33-.41-1.41-1.62-9.23-10.96-11.7-14-2.2-2.69-4.17-5.83-5.47-7.95-.19-.32-.37-.85-.26-1.32,.75-.13,1.9,.79,2.46,1.23,.06,.05,.12,.09,.16,.13,2,1.54,3.81,3.38,5.55,5.16,.34,.35,.68,.7,1.03,1.04,4.31,4.35,24.78,24.4,26,25.36,.2,.16,.49,.2,.81,.13,2.45-.6,4.76,.09,6.69,1.98,1.65,1.61,2.44,3.86,2.29,6.5-.03,.44,.35,.94,.78,1.03,1.04,.2,2.07,.16,3.24-.11,.76-.18,1.49-.41,2.1-.61,.08-.03,.17-.06,.27-.1,.35-.13,.79-.3,1.05-.2,.13,.05,.18,.13,.19,.31,.02,.4-.24,.79-.39,.99h0c-.88,1.12-2.58,1.56-3.97,1.81-1.62,.3-3,.24-4.08-.2-.67-.27-1.18-.1-1.78,.1-.17,.06-.35,.12-.54,.17-.83,.22-1.61,.34-2.36,.35-2.02,.05-3.82-.79-5.22-2.41-1.94-2.25-2.19-5.35-.62-7.71Zm-23.65-.58c.81,2.08,.63,4.82-.43,6.82-1.11,2.09-3.05,3.74-4.96,4.22-2.3,.58-5.02-.89-5.96-3.2-.72-1.77-.33-4,1.05-5.98,1.49-2.14,3.71-3.32,6.15-3.32,.5,0,1.01,.05,1.53,.15,.32,.06,.66,.07,1.02-.27,2.61-2.42,5.3-4.92,7.94-7.5l.06,.07c.41,.48,1,1.2,1.63,1.41-1.57,1.3-3.14,2.64-4.67,3.94-1.02,.87-2.05,1.75-3.08,2.62-.27,.22-.4,.72-.28,1.04Zm13.17-15.85c2.84-2.81,6.18-6.12,9.48-9.42,.63-.63,1.26-1.28,1.87-1.9,1.9-1.95,3.87-3.96,6.03-5.67,.06-.05,.14-.11,.22-.18,.59-.49,1.56-1.31,2.62-1.33,.36,1.51-2.15,4.84-3.26,6.21-.86,1.06-2,2.47-3.15,3.88-2.74,3.35-6.36,7.75-10.1,12.1-.94-.93-3.22-3.19-3.71-3.68Z"/>
  <path d="M25.24,28.39c-.32,0-.58,.12-.77,.33-.16,.19-.26,.45-.26,.72,0,.53,.35,1.06,1.02,1.06,.32,0,.58-.12,.77-.33,.16-.19,.26-.45,.26-.73,0-.53-.35-1.06-1.02-1.06Z"/>
  <path d="M42.33,49.63c.68,.45,1.55,.76,2.41,.76,.75,0,1.49-.24,2.08-.82,.57-.56,.99-1.61,.93-2.35-.05-.77-.31-1.51-.75-2.14-.48-.71-1.82-2.35-3.88-2.35h-.02c-1.73,0-3.03,1.37-3.03,3.17,0,1.95,1.41,3.17,2.24,3.73Zm3.15-1.72c-.12,.17-.29,.28-.53,.32-.43,.08-1.04-.09-1.51-.41-.65-.44-1.17-1.24-1.25-1.89-.04-.3,.02-.55,.18-.72,.19-.21,.44-.32,.75-.32h0c.63,0,1.37,.44,1.75,.85,.2,.22,1.16,1.35,.6,2.17Z"/>
</svg>