<svg xmlns="http://www.w3.org/2000/svg" width="60" height="60" viewBox="0 0 60 60">
    <path
        d="M55.6082 5.45459H10.9091V5.84591L10.3498 3.92843C9.6759 1.61527 7.52268 0 5.11364 0H1.36368C0.609929 0 0 0.609929 0 1.36368C0 2.11743 0.609929 2.72736 1.36368 2.72736H5.11364C6.3188 2.72736 7.39483 3.53442 7.7317 4.69164L16.2198 33.7927L11.8705 39.2287C11.2491 40.008 10.9102 40.975 10.9091 41.9719C10.9091 44.3942 12.8786 46.3637 15.3009 46.3637H53.1819C53.361 46.3638 53.5383 46.3286 53.7038 46.2602C53.8694 46.1917 54.0197 46.0912 54.1464 45.9646C54.273 45.8379 54.3735 45.6875 54.442 45.522C54.5105 45.3565 54.5456 45.1791 54.5455 45C54.5456 44.8209 54.5105 44.6435 54.442 44.478C54.3735 44.3125 54.273 44.1622 54.1464 44.0355C54.0197 43.9089 53.8694 43.8084 53.7038 43.7399C53.5383 43.6714 53.361 43.6362 53.1819 43.6364H15.3009C14.3834 43.6364 13.6363 42.8893 13.6363 41.9717C13.6363 41.5949 13.7654 41.2246 14.0011 40.9318L18.3834 35.4545H45.1304C47.2332 35.4545 49.1707 34.2253 50.067 32.3224L59.5832 12.1009C59.8567 11.516 59.999 10.8783 60 10.2325V9.84631C60 7.42411 58.0305 5.45459 55.6082 5.45459ZM57.2728 10.2326C57.2728 10.4763 57.2182 10.7214 57.1142 10.9411L47.5994 31.1612C47.1507 32.1121 46.1826 32.7273 45.1304 32.7273H18.7501L11.5904 8.18182H55.6082C56.5257 8.18182 57.2728 8.92893 57.2728 9.84644V10.2326ZM16.3636 49.091C13.3554 49.091 10.9091 51.5372 10.9091 54.5455C10.9091 57.5539 13.3553 60.0001 16.3636 60.0001C19.372 60.0001 21.8182 57.5539 21.8182 54.5455C21.8182 51.5372 19.3719 49.091 16.3636 49.091ZM16.3636 57.2728C14.8602 57.2728 13.6364 56.049 13.6364 54.5455C13.6364 53.0421 14.8602 51.8183 16.3636 51.8183C17.8671 51.8183 19.0909 53.0421 19.0909 54.5455C19.0909 56.049 17.8671 57.2728 16.3636 57.2728ZM49.0909 49.091C46.0827 49.091 43.6364 51.5372 43.6364 54.5455C43.6364 57.5539 46.0826 60.0001 49.0909 60.0001C52.0993 60.0001 54.5455 57.5539 54.5455 54.5455C54.5455 51.5372 52.0992 49.091 49.0909 49.091ZM49.0909 57.2728C47.5875 57.2728 46.3637 56.049 46.3637 54.5455C46.3637 53.0421 47.5875 51.8183 49.0909 51.8183C50.5944 51.8183 51.8182 53.0421 51.8182 54.5455C51.8182 56.049 50.5944 57.2728 49.0909 57.2728Z" />
</svg>