<?xml version="1.0" encoding="UTF-8"?>
<svg id="Layer_1" data-name="Layer 1" xmlns="http://www.w3.org/2000/svg" viewBox="0 0 61 60">
  <path
    d="M28.42,41.43l-7.82-4.78c-.23-.14-.5-.22-.77-.22-.27,0-.54,.06-.78,.2-.24,.13-.44,.33-.57,.56-.14,.24-.21,.5-.21,.77v9.56c0,.2,.04,.4,.12,.58,.08,.19,.19,.36,.33,.5,.14,.14,.31,.26,.5,.33,.19,.08,.38,.12,.59,.12,.28,0,.56-.08,.8-.22l7.82-4.78c.22-.14,.41-.33,.54-.56,.13-.23,.2-.49,.2-.75s-.07-.52-.2-.75c-.13-.23-.31-.42-.54-.56Zm-1.75,1.31l-6.38,3.9v-7.79l6.38,3.9Z" />
  <path
    d="M39.59,39.22c-.29,0-.57,.12-.77,.32-.2,.2-.32,.48-.32,.77v.94c0,.29,.12,.57,.32,.77,.2,.2,.48,.32,.77,.32s.57-.12,.77-.32c.2-.2,.32-.48,.32-.77v-.94c0-.29-.12-.57-.32-.77-.2-.2-.48-.32-.77-.32Z" />
  <path
    d="M39.59,35.47c-.29,0-.57,.12-.77,.32-.2,.2-.32,.48-.32,.77v.94c0,.29,.12,.57,.32,.77,.2,.2,.48,.32,.77,.32s.57-.12,.77-.32c.2-.2,.32-.48,.32-.77v-.94c0-.29-.12-.57-.32-.77-.2-.2-.48-.32-.77-.32Z" />
  <path
    d="M39.59,42.97c-.29,0-.57,.12-.77,.32-.2,.2-.32,.48-.32,.77v.94c0,.29,.12,.57,.32,.77,.2,.2,.48,.32,.77,.32s.57-.12,.77-.32c.2-.2,.32-.48,.32-.77v-.94c0-.29-.12-.57-.32-.77-.2-.2-.48-.32-.77-.32Z" />
  <path
    d="M39.59,46.72c-.29,0-.57,.12-.77,.32-.2,.2-.32,.48-.32,.77v.94c0,.29,.12,.57,.32,.77,.2,.2,.48,.32,.77,.32s.57-.12,.77-.32c.2-.2,.32-.48,.32-.77v-.94c0-.29-.12-.57-.32-.77-.2-.2-.48-.32-.77-.32Z" />
  <path
    d="M56.82,21.18c0-.8-.32-1.55-.88-2.11l-4.16-4.16c-.21-.21-.48-.32-.77-.33h-.01c-.29,0-.56,.11-.76,.31-.47,.43-1.08,.67-1.73,.65-.64-.01-1.25-.27-1.7-.72s-.71-1.06-.73-1.7c-.01-.64,.22-1.26,.65-1.73,.2-.21,.31-.49,.3-.78,0-.29-.12-.56-.32-.77l-4.16-4.16c-.56-.57-1.32-.88-2.12-.88h-.01c-.79,0-1.54,.31-2.11,.87L13.71,30.25H7.16c-.8,0-1.55,.32-2.11,.89-.56,.57-.87,1.32-.87,2.12v5.89c0,.29,.11,.57,.31,.77,.2,.21,.48,.33,.76,.33,.64,.03,1.24,.3,1.68,.76,.44,.46,.69,1.07,.69,1.72s-.24,1.25-.69,1.71-1.04,.73-1.68,.76c-.29,0-.56,.12-.77,.33-.2,.21-.31,.49-.31,.77v5.89c0,.79,.32,1.56,.87,2.12,.56,.57,1.31,.88,2.11,.89H50.84c.8,0,1.55-.32,2.12-.89,.56-.57,.87-1.32,.87-2.12v-5.89c0-.29-.11-.57-.31-.77s-.48-.33-.77-.33c-.64-.03-1.24-.3-1.68-.76-.44-.46-.69-1.07-.69-1.72s.24-1.25,.69-1.72c.44-.46,1.04-.73,1.68-.76,.29,0,.56-.12,.77-.33,.2-.21,.31-.48,.31-.78v-5.89c0-.79-.32-1.56-.87-2.12-.56-.57-1.31-.88-2.11-.89h-1.84l6.95-6.95c.56-.57,.87-1.32,.87-2.12Zm-7.48,18.73c-.64,.8-.99,1.8-.99,2.82s.35,2.02,.99,2.81c.62,.78,1.5,1.34,2.47,1.57v5.09c0,.25-.1,.5-.28,.69-.18,.19-.42,.29-.68,.29h-10.53c.06-.06,.12-.14,.16-.22,.08-.14,.12-.31,.12-.47v-.94c0-.27-.11-.52-.3-.72-.19-.19-.45-.3-.72-.3s-.53,.11-.72,.3c-.19,.19-.3,.45-.3,.72v.94c0,.16,.04,.32,.12,.47,.04,.08,.1,.15,.16,.22H7.16c-.26,0-.5-.11-.68-.29-.18-.18-.28-.43-.28-.69v-5.08c.97-.24,1.84-.79,2.47-1.57,.64-.8,.99-1.8,.99-2.81s-.35-2.02-.99-2.81c-.62-.78-1.5-1.34-2.47-1.57v-5.09c0-.26,.1-.51,.28-.69,.18-.18,.42-.29,.68-.29h31.57c-.1,.16-.16,.34-.16,.53v.94c0,.27,.11,.53,.3,.72,.19,.19,.45,.3,.72,.3s.53-.11,.72-.3c.19-.19,.3-.45,.3-.72v-.94c0-.19-.06-.37-.16-.53h10.41c.26,0,.5,.11,.68,.29,.18,.18,.28,.43,.28,.69v5.08c-.97,.24-1.84,.79-2.47,1.57Zm-3.48-12.07c-.25-.1-.53-.1-.77,0-.12,.05-.23,.12-.33,.22-.09,.09-.17,.2-.22,.33-.05,.12-.08,.25-.08,.39s.03,.26,.08,.39c.05,.12,.12,.24,.22,.33l.66,.66s.07,.06,.1,.09H16.57l14.64-14.64c0,.08,.02,.17,.05,.25,.05,.14,.13,.27,.23,.38l.66,.66c.09,.1,.21,.17,.33,.22,.25,.1,.53,.1,.78,0,.12-.05,.23-.13,.33-.22,.09-.09,.17-.21,.22-.33,.05-.12,.08-.25,.08-.39s-.03-.26-.08-.39c-.05-.12-.13-.23-.22-.33l-.66-.66c-.11-.1-.24-.18-.38-.23-.08-.03-.16-.04-.25-.05l7.44-7.44c.18-.18,.43-.28,.68-.28,0,0,0,0,.01,0,.26,0,.5,.11,.68,.29l3.6,3.6c-.52,.85-.75,1.86-.63,2.86,.11,1.01,.57,1.97,1.29,2.69,.72,.72,1.67,1.18,2.69,1.29,1,.11,2.01-.11,2.86-.63l3.6,3.6c.19,.18,.29,.42,.29,.68,0,.26-.09,.5-.28,.69l-7.39,7.39c-.04-.2-.13-.39-.28-.53l-.66-.66c-.09-.09-.21-.17-.33-.22Z" />
  <path
    d="M44.24,26.03l-.66-.66c-.1-.1-.22-.18-.35-.24-.27-.11-.57-.11-.83,0-.13,.06-.25,.14-.35,.24-.1,.1-.18,.22-.24,.35-.05,.13-.08,.27-.08,.42s.03,.28,.08,.42c.05,.13,.13,.25,.24,.35l.66,.66c.1,.1,.22,.18,.35,.24,.13,.06,.27,.08,.42,.08s.28-.03,.42-.08c.13-.05,.25-.13,.35-.24,.1-.1,.18-.22,.24-.35,.05-.13,.08-.27,.08-.42s-.03-.28-.08-.42c-.05-.13-.13-.25-.24-.35Z" />
  <path
    d="M41.91,24.15c0-.15-.03-.29-.08-.42-.05-.13-.13-.25-.24-.35l-.66-.66c-.1-.1-.22-.18-.35-.24-.27-.11-.57-.11-.83,0-.13,.05-.25,.13-.35,.24-.1,.1-.18,.22-.24,.35-.05,.13-.08,.27-.08,.42s.03,.28,.08,.42c.05,.13,.13,.25,.24,.35l.66,.66c.1,.1,.22,.18,.35,.24,.13,.06,.27,.08,.42,.08s.28-.03,.42-.08c.13-.05,.25-.13,.35-.24,.1-.1,.18-.22,.24-.35,.05-.13,.08-.27,.08-.42Z" />
  <path
    d="M39.26,21.5c0-.14-.03-.29-.08-.42-.06-.13-.14-.25-.24-.35l-.64-.64-.02-.02c-.1-.1-.22-.18-.35-.24-.26-.11-.57-.11-.83,0-.13,.06-.25,.13-.35,.24-.1,.1-.18,.22-.24,.35-.05,.13-.08,.27-.08,.42s.03,.28,.08,.42c.06,.13,.14,.25,.24,.35l.66,.66,.02,.02h0c.1,.09,.21,.16,.33,.22,.13,.06,.27,.08,.42,.08h0c.14,0,.28-.03,.41-.08,.13-.06,.25-.13,.35-.24,.1-.1,.18-.22,.24-.35,.06-.13,.08-.27,.08-.42Z" />
  <path
    d="M36.29,18.08l-.66-.66c-.1-.1-.22-.18-.35-.24-.27-.11-.57-.11-.83,0-.13,.05-.25,.13-.35,.24-.1,.1-.18,.22-.24,.35-.05,.13-.08,.27-.08,.42s.03,.28,.08,.42c.05,.13,.13,.25,.24,.35l.66,.66c.2,.2,.48,.32,.77,.32s.56-.11,.77-.32c.2-.2,.32-.48,.32-.77s-.11-.56-.32-.77Z" />
</svg>