<svg width="50" height="50" viewBox="0 0 50 50" fill="none" xmlns="http://www.w3.org/2000/svg">
<g clip-path="url(#clip0_5101_22616)">
<path d="M17.8663 20.4384C16.9206 21.1928 15.5789 21.1928 14.6336 20.4384C14.32 20.1134 13.855 19.983 13.4182 20.0974C12.9811 20.2119 12.6396 20.5533 12.5251 20.9901C12.4107 21.4272 12.5412 21.8918 12.8662 22.2059C14.7865 23.9458 17.7134 23.9458 19.6337 22.2059C19.9588 21.8918 20.0888 21.4272 19.9743 20.9901C19.8603 20.5533 19.5188 20.2119 19.0817 20.0974C18.6445 19.983 18.1799 20.1134 17.8663 20.4384Z" fill="black"/>
<path d="M35.3659 20.4384C34.4207 21.1928 33.079 21.1928 32.1332 20.4384C31.8196 20.1134 31.355 19.983 30.9179 20.0974C30.4807 20.2119 30.1397 20.5533 30.0252 20.9901C29.9108 21.4272 30.0408 21.8918 30.3658 22.2059C32.2861 23.9458 35.213 23.9458 37.1334 22.2059C37.4584 21.8918 37.5888 21.4272 37.4744 20.9901C37.3599 20.5533 37.0185 20.2119 36.5818 20.0974C36.1446 19.983 35.68 20.1134 35.3659 20.4384Z" fill="black"/>
<path d="M28.0585 34.3121C26.1363 35.2839 23.8672 35.2839 21.9451 34.3121C21.5738 34.0594 21.095 34.0255 20.6917 34.2237C20.2884 34.4215 20.022 34.8206 19.9945 35.2692C19.9671 35.7174 20.1822 36.1463 20.5585 36.3921C21.902 37.185 23.4424 37.5809 25.002 37.5347C26.5611 37.5809 28.1015 37.185 29.445 36.3921C30.0122 36.0062 30.1628 35.2358 29.7824 34.665C29.402 34.0942 28.6325 33.9367 28.0585 34.3121Z" fill="black"/>
<path d="M47.0132 20.4751C44.8589 10.0317 35.6634 2.53906 24.9998 2.53906C14.3367 2.53906 5.14113 10.0317 2.9869 20.4751C1.17279 21.268 0 23.0601 0 25.0399C0 27.0202 1.17279 28.8119 2.9869 29.6047C5.14205 40.0477 14.3371 47.5394 24.9998 47.5394C35.6629 47.5394 44.858 40.0477 47.0132 29.6047C48.8273 28.8119 50.0001 27.0202 50.0001 25.0399C50.0001 23.0601 48.8273 21.268 47.0132 20.4751ZM45.6129 27.4501C45.1345 27.5718 44.7719 27.9637 44.6882 28.4503C43.0389 38.0354 34.7263 45.0396 25.0007 45.0396C15.2746 45.0396 6.96211 38.0354 5.31325 28.4503C5.22902 27.9637 4.86648 27.5718 4.38811 27.4501C3.27941 27.1759 2.50076 26.1811 2.50076 25.039C2.50122 23.8969 3.28033 22.9022 4.38903 22.6284C4.86785 22.5067 5.22994 22.1148 5.31325 21.6282C6.70439 13.4695 12.995 7.02056 21.1171 5.42709C20.4121 6.40853 20.0225 7.58132 20.0006 8.78936C19.9607 10.7088 21.0456 12.4743 22.7755 13.3061C23.199 13.4833 23.6531 13.5748 24.1122 13.5757C25.2667 13.5318 26.3552 13.0264 27.1343 12.1731C27.6081 11.6829 27.6013 10.9033 27.1192 10.4208C26.6368 9.9388 25.8572 9.93193 25.3669 10.4057C24.7723 11.0013 24.2207 11.2004 23.7323 10.9967C22.9463 10.544 22.4729 9.69573 22.5004 8.78936C22.6712 6.92123 24.0751 5.40008 25.924 5.08056C35.2949 5.49026 43.1103 12.3828 44.6882 21.6287C44.7715 22.1153 45.1336 22.5071 45.6119 22.6289C46.7211 22.9026 47.5002 23.8974 47.5002 25.0395C47.5007 26.1811 46.7216 27.1759 45.6129 27.4501Z" fill="black"/>
</g>
<defs>
<clipPath id="clip0_5101_22616">
<rect width="50" height="50" fill="white"/>
</clipPath>
</defs>
</svg>
