<svg width="50" height="50" viewBox="0 0 50 50" fill="none" xmlns="http://www.w3.org/2000/svg">
<path d="M25 21.2461C24.2234 21.2461 23.5938 21.8758 23.5938 22.6523V36.1164C23.5938 36.893 24.2234 37.5227 25 37.5227C25.7766 37.5227 26.4062 36.893 26.4062 36.1164V22.6523C26.4062 21.8758 25.7781 21.2461 25 21.2461Z" fill="black"/>
<path d="M23.5906 14.4366C23.2375 14.8147 23.0156 15.3209 23.0156 15.8506C23.0156 16.3803 23.2359 16.8881 23.5906 17.2631C23.9656 17.6162 24.4734 17.8366 25.0047 17.8366C25.5344 17.8366 26.0422 17.6162 26.4172 17.2631C26.7703 16.8881 26.9922 16.3803 26.9922 15.8506C26.9922 15.3209 26.7719 14.8131 26.4172 14.4366C25.6656 13.6866 24.3406 13.71 23.5906 14.4366Z" fill="black"/>
<path d="M25 3.28125C13.0234 3.28125 3.28125 13.025 3.28125 25C3.28125 36.975 13.0234 46.7188 25 46.7188C36.975 46.7188 46.7188 36.975 46.7188 25C46.7188 13.025 36.975 3.28125 25 3.28125ZM25 43.9062C14.575 43.9062 6.09375 35.425 6.09375 25C6.09375 14.575 14.575 6.09375 25 6.09375C35.425 6.09375 43.9062 14.575 43.9062 25C43.9062 35.425 35.425 43.9062 25 43.9062Z" fill="black"/>
</svg>
