<svg width="50" height="50" viewBox="0 0 50 50" fill="none" xmlns="http://www.w3.org/2000/svg">
<path d="M37.3047 5.07969H32.2563V3.125C32.2563 1.56196 30.9849 0.290625 29.4219 0.290625H20.5938C19.0307 0.290625 17.7594 1.56196 17.7594 3.125V5.07969H12.7109C12.43 5.07969 12.158 5.11179 11.9034 5.15953L11.9034 5.15951L11.9018 5.15985C10.0673 5.53637 8.68125 7.16238 8.68125 9.10938V45.6797C8.68125 47.899 10.4916 49.7094 12.7109 49.7094H37.3125C39.5318 49.7094 41.3422 47.899 41.3422 45.6797L41.3422 9.10938L41.3422 9.10855C41.3262 7.16269 39.9489 5.53665 38.1142 5.15992C37.8486 5.10361 37.576 5.07969 37.3047 5.07969ZM38.3425 7.56726L38.3427 7.56739C38.8395 7.90109 39.1656 8.47208 39.1656 9.10938V11.0641H10.8422V9.10938C10.8422 8.46449 11.1681 7.90122 11.6651 7.56739L11.6651 7.5674L11.6663 7.56659C11.9542 7.36725 12.3172 7.24844 12.7031 7.24844H37.3047C37.69 7.24844 38.0457 7.36691 38.3425 7.56726ZM39.1656 41.5563H10.8422V13.225H39.1656V41.5563ZM19.9203 3.125C19.9203 2.75835 20.2193 2.45937 20.5859 2.45937H29.4141C29.7807 2.45937 30.0797 2.75835 30.0797 3.125V5.07969H19.9203V3.125ZM37.2969 47.5406H12.7031C11.6802 47.5406 10.8422 46.7026 10.8422 45.6797V43.725H39.1656V45.6795C39.1579 46.7031 38.327 47.5406 37.2969 47.5406Z" fill="black" stroke="black" stroke-width="0.2"/>
<path d="M21.2737 28.0757H26.6266L22.4657 33.9176L22.4653 33.9182C22.1214 34.4083 22.2333 35.0794 22.7229 35.4317C22.914 35.5706 23.1384 35.6304 23.3518 35.6304C23.687 35.6304 24.0228 35.4755 24.2379 35.1744L24.238 35.1743L29.613 27.6196L29.613 27.6195C29.8454 27.2924 29.88 26.8537 29.6904 26.4918C29.5013 26.1308 29.1314 25.9069 28.7268 25.9069H23.064L25.7685 20.7487L25.7688 20.7481C26.0438 20.2152 25.838 19.5613 25.3123 19.2855L25.3123 19.2855L25.3118 19.2852C24.78 19.0108 24.1252 19.2072 23.849 19.742C23.849 19.7421 23.8489 19.7422 23.8489 19.7423L20.3185 26.4829C20.3184 26.4831 20.3183 26.4833 20.3182 26.4835C20.1378 26.819 20.1463 27.2236 20.3444 27.5509C20.5422 27.8777 20.895 28.0757 21.2737 28.0757Z" fill="black" stroke="black" stroke-width="0.2"/>
</svg>
