<svg width="50" height="50" viewBox="0 0 50 50" fill="none" xmlns="http://www.w3.org/2000/svg">
<g clip-path="url(#clip0_5101_22673)">
<path d="M48.6696 41.9222L28.5438 20.0339C27.9124 19.3339 27.0852 18.8399 26.1696 18.6157V11.9751C27.0986 11.3304 27.8457 10.4569 28.3385 9.43907C28.8313 8.42126 29.0532 7.29354 28.9828 6.16489C28.9124 5.03624 28.5521 3.94483 27.9366 2.99615C27.3212 2.04746 26.4714 1.27357 25.4694 0.749275C24.4675 0.224979 23.3472 -0.0319974 22.2169 0.00318259C21.0866 0.0383626 19.9845 0.364509 19.0171 0.950101C18.0497 1.53569 17.2497 2.36093 16.6944 3.34606C16.1392 4.33118 15.8474 5.44288 15.8473 6.57373C15.8473 6.88453 15.9708 7.1826 16.1906 7.40237C16.4103 7.62213 16.7084 7.7456 17.0192 7.7456C17.33 7.7456 17.6281 7.62213 17.8478 7.40237C18.0676 7.1826 18.1911 6.88453 18.1911 6.57373C18.1913 5.82639 18.3895 5.09244 18.7655 4.44657C19.1414 3.8007 19.6818 3.26597 20.3316 2.89677C20.9814 2.52758 21.7174 2.33711 22.4647 2.34475C23.212 2.35238 23.9439 2.55785 24.586 2.94025C25.2281 3.32264 25.7574 3.86831 26.1202 4.52172C26.4829 5.17514 26.666 5.91298 26.651 6.66017C26.6359 7.40736 26.4232 8.13722 26.0344 8.77549C25.6456 9.41375 25.0947 9.93764 24.4378 10.2938C24.2517 10.395 24.0965 10.5446 23.9887 10.7269C23.8809 10.9092 23.8245 11.1172 23.8255 11.329V18.6152C22.9098 18.8394 22.0827 19.3334 21.4512 20.0334L1.32584 41.9222C0.692613 42.6109 0.273626 43.469 0.120044 44.3919C-0.0335389 45.3148 0.0849297 46.2624 0.460983 47.119C0.837036 47.9757 1.4544 48.7043 2.23768 49.2159C3.02097 49.7275 3.93628 50 4.87184 50H45.1236C46.0592 50 46.9745 49.7275 47.7577 49.2159C48.541 48.7043 49.1584 47.9757 49.5345 47.119C49.9105 46.2624 50.029 45.3148 49.8754 44.3919C49.7218 43.469 49.3028 42.6109 48.6696 41.9222ZM47.3883 46.177C47.2019 46.6217 46.8865 47.0003 46.4828 47.264C46.0791 47.5277 45.6057 47.6643 45.1236 47.6562H4.87184C4.39145 47.6562 3.92145 47.5164 3.51925 47.2537C3.11704 46.991 2.80004 46.6168 2.60694 46.177C2.41384 45.7371 2.35301 45.2505 2.43187 44.7766C2.51074 44.3028 2.72588 43.8621 3.05104 43.5085L23.1768 21.6203C23.4085 21.3683 23.69 21.1672 24.0034 21.0296C24.3168 20.892 24.6554 20.821 24.9977 20.821C25.34 20.821 25.6785 20.892 25.9919 21.0296C26.3054 21.1672 26.5868 21.3683 26.8185 21.6203L46.9444 43.5085C47.2767 43.858 47.4966 44.299 47.5757 44.7747C47.6549 45.2503 47.5896 45.7388 47.3884 46.177H47.3883Z" fill="black"/>
</g>
<defs>
<clipPath id="clip0_5101_22673">
<rect width="50" height="50" fill="white"/>
</clipPath>
</defs>
</svg>
