<svg width="50" height="50" viewBox="0 0 50 50" fill="none" xmlns="http://www.w3.org/2000/svg">
<g clip-path="url(#clip0_5101_19969)">
<path d="M6.72418 9.03689L6.70776 9.06189V9.07316C3.65415 12.576 1.67093 16.882 0.99436 21.4792C0.315962 26.0889 0.979966 30.7963 2.90699 35.0387C4.83401 39.2811 7.94251 42.879 11.8609 45.4022C15.7792 47.9255 20.3416 49.2673 25.0026 49.2673C29.6636 49.2673 34.226 47.9255 38.1443 45.4022C42.0627 42.879 45.1712 39.2811 47.0982 35.0387C49.0252 30.7963 49.6892 26.0889 49.0108 21.4792C48.3324 16.8696 46.3404 12.5527 43.2727 9.04484L43.2598 9.03002L43.243 9.02166C43.1956 8.95365 43.1386 8.89287 43.0736 8.84125C40.8024 6.29252 38.0177 4.25262 34.9022 2.85539C31.784 1.45696 28.4051 0.733984 24.9875 0.733984C21.5699 0.733984 18.1909 1.45696 15.0728 2.85539C11.9572 4.25268 9.17235 6.29271 6.90105 8.84159C6.83237 8.89715 6.7727 8.96303 6.72418 9.03689ZM38.9273 25.8529H47.527C47.346 30.7844 45.5436 35.5189 42.3988 39.3232C40.7264 38.3542 38.9552 37.5667 37.1154 36.9742C38.2627 33.3763 38.8732 29.6289 38.9273 25.8529ZM31.2832 46.6498C33.3992 44.7644 35.2231 41.992 36.5504 38.5896C38.1769 39.1114 39.7474 39.7937 41.2387 40.6263C38.5031 43.4714 35.0697 45.5476 31.2832 46.6498ZM7.58964 39.3258C4.4435 35.5211 2.64035 30.7855 2.45931 25.8529H11.059C11.1127 29.6301 11.7233 33.3788 12.8709 36.978C11.0319 37.5703 9.26139 38.3573 7.58964 39.3258ZM2.45936 24.1431C2.64393 19.1841 4.4679 14.4259 7.64609 10.6133C9.30929 11.5728 11.0695 12.3535 12.8971 12.9424C11.7326 16.5643 11.1131 20.3391 11.059 24.1431H2.45936ZM25.8484 14.7691C29.1086 14.7149 32.35 14.2612 35.4997 13.4181C36.5981 16.8893 37.1817 20.5027 37.232 24.1431H25.8484V14.7691ZM25.8484 13.0592V2.50833C29.5499 2.983 32.8116 6.52151 34.9032 11.8058C31.946 12.5843 28.906 13.0051 25.8484 13.0592ZM24.138 2.50833V13.0592C21.0803 13.0051 18.0403 12.5843 15.0831 11.8058C17.1747 6.52151 20.4364 2.983 24.138 2.50833ZM14.4867 13.4181C17.6365 14.2611 20.8777 14.7149 24.138 14.7691V24.1431H12.7693C12.8148 20.5035 13.3934 16.8901 14.4867 13.4181ZM14.4867 36.5023C13.4016 33.0543 12.8231 29.4671 12.7695 25.8529H24.138V35.1439C20.8774 35.2004 17.6361 35.6566 14.4867 36.5023ZM24.138 36.8538V47.4876C20.4209 47.0089 17.1296 43.4403 15.0523 38.1148C18.0192 37.3311 21.0697 36.9077 24.138 36.8538ZM25.8484 36.8538C28.9166 36.9077 31.9672 37.3311 34.934 38.1148C32.8567 43.4403 29.5655 47.0089 25.8484 47.4876V36.8538ZM35.4996 36.4985C32.35 35.6541 29.1088 35.1992 25.8484 35.1438V25.8529H37.2168C37.1628 29.4658 36.5844 33.0518 35.4996 36.4985ZM47.527 24.1431H38.9273C38.8732 20.3391 38.2537 16.5643 37.0892 12.9424C38.9169 12.3535 40.677 11.5728 42.3402 10.6133C45.5184 14.4259 47.3424 19.1841 47.527 24.1431ZM36.5124 11.3311C35.1891 7.96451 33.3855 5.21076 31.2714 3.34301C35.0351 4.43895 38.45 6.49717 41.1776 9.31674C39.6926 10.1397 38.13 10.8144 36.5124 11.3311ZM13.4776 11.331C11.8601 10.8144 10.2975 10.1397 8.81246 9.31674C11.5384 6.49847 14.9509 4.44066 18.712 3.34395C16.5993 5.20296 14.8002 7.96268 13.4776 11.331ZM13.4435 38.5896C14.7701 41.9912 16.5805 44.7804 18.7082 46.6521C14.9223 45.5488 11.4898 43.4718 8.75516 40.6263C10.2464 39.7936 11.817 39.1114 13.4435 38.5896Z" fill="black" stroke="black" stroke-width="0.2"/>
</g>
<defs>
<clipPath id="clip0_5101_19969">
<rect width="50" height="50" fill="white"/>
</clipPath>
</defs>
</svg>
