<svg width="50" height="50" viewBox="0 0 50 50" fill="none" xmlns="http://www.w3.org/2000/svg">
<path d="M38.6133 48.8281H11.3872C8.67896 48.825 6.08251 47.7479 4.16745 45.8329C2.25238 43.9179 1.17508 41.3215 1.17188 38.6133V11.3872C1.17495 8.67888 2.25219 6.08235 4.16727 4.16727C6.08235 2.25219 8.67888 1.17495 11.3872 1.17188H38.6133C41.3215 1.17508 43.9179 2.25238 45.8329 4.16745C47.7479 6.08251 48.825 8.67896 48.8281 11.3872V38.6133C48.8249 41.3214 47.7477 43.9178 45.8327 45.8327C43.9178 47.7477 41.3214 48.8249 38.6133 48.8281ZM11.3872 2.73438C9.09313 2.73696 6.89375 3.64942 5.27159 5.27159C3.64942 6.89375 2.73696 9.09313 2.73438 11.3872V38.6133C2.73709 40.9073 3.64961 43.1065 5.27176 44.7286C6.8939 46.3506 9.09321 47.263 11.3872 47.2656H38.6133C40.9072 47.2629 43.1064 46.3505 44.7284 44.7284C46.3505 43.1064 47.2629 40.9072 47.2656 38.6133V11.3872C47.263 9.09321 46.3506 6.8939 44.7286 5.27176C43.1065 3.64961 40.9073 2.73709 38.6133 2.73438H11.3872Z" fill="black" stroke="black" stroke-width="0.2"/>
<path d="M17.2121 39.9373C16.1372 39.9373 15.252 39.5598 14.581 38.815C13.9312 38.0942 13.6016 37.0654 13.6016 35.757V14.2997C13.6016 12.8396 13.9727 11.7531 14.7042 11.0701C15.4207 10.4015 16.5137 10.0625 17.9527 10.0625H25.1874C27.4204 10.0625 29.1055 10.2338 30.3392 10.5862C31.5435 10.9104 32.6574 11.5064 33.5952 12.3285C34.517 13.1478 35.2346 14.1711 35.6909 15.3168C36.1571 16.4691 36.3936 17.7756 36.3936 19.1988C36.3936 22.2633 35.4178 24.6339 33.4932 26.2446C31.6099 27.8208 28.8154 28.62 25.1872 28.62H20.8037V35.7191C20.8037 37.042 20.4666 38.0817 19.8018 38.8095C19.4773 39.1735 19.0777 39.4628 18.6307 39.6575C18.1836 39.8522 17.6996 39.9477 17.2121 39.9373ZM17.9527 11.625C16.9223 11.625 16.188 11.8226 15.7703 12.2124C15.3681 12.5879 15.1641 13.2901 15.1641 14.2997V35.757C15.1641 36.667 15.3583 37.3438 15.7416 37.7687C16.1142 38.1822 16.5814 38.3742 17.2121 38.3742C17.4824 38.3841 17.7516 38.3337 18 38.2266C18.2484 38.1195 18.4698 37.9584 18.6481 37.7551C19.0417 37.3243 19.2412 36.6391 19.2412 35.7186V27.8388C19.2412 27.6316 19.3235 27.4329 19.47 27.2863C19.6165 27.1398 19.8153 27.0575 20.0225 27.0575H25.1874C28.4394 27.0575 30.896 26.3809 32.4904 25.0465C34.0654 23.7281 34.8311 21.8154 34.8311 19.1988C34.8311 17.9773 34.633 16.8685 34.2425 15.9029C33.8763 14.9813 33.3 14.1578 32.5593 13.4983C31.7973 12.8329 30.8928 12.3511 29.9154 12.0901C28.833 11.781 27.2441 11.625 25.1874 11.625H17.9527ZM23.8202 24.3665H20.0225C19.8153 24.3665 19.6165 24.2842 19.47 24.1377C19.3235 23.9912 19.2412 23.7925 19.2412 23.5853V15.078C19.2412 14.8708 19.3235 14.6721 19.47 14.5256C19.6165 14.3791 19.8153 14.2968 20.0225 14.2968H23.8202C26.5831 14.2968 28.3988 14.7768 29.371 15.7642C29.3758 15.769 29.3808 15.7739 29.3852 15.7789C30.243 16.6969 30.6779 17.8858 30.6779 19.3126C30.6779 20.504 30.39 21.4969 29.8223 22.2646C29.2545 23.0324 28.4355 23.5857 27.3854 23.9131C26.4219 24.214 25.2222 24.3665 23.8202 24.3665ZM20.8037 22.804H23.8202C25.0644 22.804 26.1072 22.6754 26.9201 22.4217C27.6571 22.1919 28.1954 21.8367 28.566 21.3357C28.9306 20.8428 29.1154 20.1621 29.1154 19.3128C29.1154 18.2851 28.8322 17.4806 28.2508 16.8537C27.7966 16.3984 26.659 15.8595 23.8202 15.8595H20.8037V22.804Z" fill="black" stroke="black" stroke-width="0.2"/>
</svg>
