<svg width="50" height="50" viewBox="0 0 50 50" fill="none" xmlns="http://www.w3.org/2000/svg">
<g clip-path="url(#clip0_5107_65214)">
<path d="M48.4677 0.185547L42.5768 6.21104L3.62108 6.23682C2.49002 6.23682 1.46199 6.76309 0.800666 7.68066C0.146564 8.58818 -0.0310724 9.71494 0.311213 10.7776L6.6369 35.4305L6.65633 35.4966C7.13026 36.9186 8.45574 37.8738 9.95457 37.8738H14.6124V37.884H30.6564L32.9112 37.8952H32.9286C33.0201 37.8952 33.1108 37.8913 33.201 37.8842C33.746 37.8867 34.1887 38.3307 34.1887 38.8763C34.1887 39.4234 33.7434 39.8685 33.1964 39.8685H15.227V39.87C15.2067 39.8697 15.1867 39.8685 15.1664 39.8685C12.4577 39.8685 10.2541 42.0721 10.2541 44.7809C10.2541 47.4895 12.4577 49.6932 15.1664 49.6932C17.8751 49.6932 20.0787 47.4895 20.0787 44.7809C20.0787 43.6704 19.7079 42.6452 19.0843 41.8216H27.2178C26.5752 42.6595 26.1921 43.7062 26.1921 44.8414C26.1921 47.5835 28.4229 49.8145 31.165 49.8145C33.9071 49.8145 36.138 47.5835 36.138 44.8414C36.138 43.4997 35.6029 42.2812 34.7362 41.3858C35.5788 40.867 36.1418 39.9362 36.1418 38.8763C36.1418 38.1119 35.849 37.4147 35.3698 36.8906C35.7914 36.4752 36.1104 35.9507 36.2772 35.3532L44.052 7.4959L49.8642 1.55088L48.4677 0.185547ZM15.1664 47.7399C13.5348 47.7399 12.2072 46.4124 12.2072 44.7808C12.2072 43.149 13.5348 41.8215 15.1664 41.8215C16.798 41.8215 18.1256 43.149 18.1256 44.7808C18.1256 46.4125 16.798 47.7399 15.1664 47.7399ZM31.165 47.8613C29.4999 47.8613 28.1452 46.5066 28.1452 44.8414C28.1452 43.1763 29.4999 41.8216 31.165 41.8216C32.8302 41.8216 34.1848 43.1763 34.1848 44.8414C34.1848 46.5066 32.8302 47.8613 31.165 47.8613ZM34.396 34.8282C34.2284 35.4284 33.7106 35.8605 33.1028 35.9309H30.6637L28.6168 35.9207H9.95467C9.30789 35.9207 8.73485 35.5148 8.51922 34.9076L2.1952 10.2613L2.17576 10.1952C2.01903 9.725 2.09529 9.22471 2.38514 8.82256C2.67498 8.42041 3.12547 8.18984 3.62176 8.18984L41.8378 8.16465L34.396 34.8282Z" fill="black" stroke="black" stroke-width="0.1"/>
</g>
<defs>
<clipPath id="clip0_5107_65214">
<rect width="50" height="50" fill="white"/>
</clipPath>
</defs>
</svg>
