<svg width="32" height="32" viewBox="0 0 32 32" fill="none" xmlns="http://www.w3.org/2000/svg">
<path d="M12.1429 18.7692L19 11.3846M24.1429 7.08552V28L19.8571 26.1538L15.5714 28L11.2857 26.1538L7 28V7.08552C7 5.72185 7.92124 4.55401 9.17906 4.39681C11.2761 4.13473 13.4091 4 15.5714 4C17.7337 4 19.8668 4.13473 21.9638 4.39681C23.2216 4.55402 24.1429 5.72185 24.1429 7.08552ZM13 12.3077H13.0086V12.3169H13V12.3077ZM13.4286 12.3077C13.4286 12.5626 13.2367 12.7692 13 12.7692C12.7633 12.7692 12.5714 12.5626 12.5714 12.3077C12.5714 12.0528 12.7633 11.8462 13 11.8462C13.2367 11.8462 13.4286 12.0528 13.4286 12.3077ZM18.1429 17.8462H18.1514V17.8554H18.1429V17.8462ZM18.5714 17.8462C18.5714 18.1011 18.3795 18.3077 18.1429 18.3077C17.9062 18.3077 17.7143 18.1011 17.7143 17.8462C17.7143 17.5913 17.9062 17.3846 18.1429 17.3846C18.3795 17.3846 18.5714 17.5913 18.5714 17.8462Z" stroke="black" stroke-linecap="round" stroke-linejoin="round"/>
</svg>
