<svg width="32" height="32" viewBox="0 0 32 32" fill="none" xmlns="http://www.w3.org/2000/svg">
<path d="M23.3838 23.4237C23.6884 23.4489 23.9965 23.4617 24.3077 23.4617C25.5979 23.4617 26.8367 23.2411 27.9882 22.8355C27.996 22.7376 28 22.6386 28 22.5386C28 20.4994 26.3469 18.8463 24.3077 18.8463C23.5352 18.8463 22.8181 19.0835 22.2254 19.489M23.3838 23.4237C23.3839 23.4364 23.3839 23.449 23.3839 23.4617C23.3839 23.7386 23.3686 24.012 23.3389 24.281C21.1767 25.5216 18.6708 26.2309 15.9992 26.2309C13.3276 26.2309 10.8216 25.5216 8.65945 24.281C8.62976 24.012 8.61452 23.7386 8.61452 23.4617C8.61452 23.4491 8.61455 23.4364 8.61462 23.4238M23.3838 23.4237C23.3765 21.9756 22.9524 20.6261 22.2254 19.489M22.2254 19.489C20.9135 17.4372 18.6152 16.077 15.9992 16.077C13.3835 16.077 11.0855 17.4369 9.77353 19.4883M9.77353 19.4883C9.18096 19.0832 8.46432 18.8463 7.69234 18.8463C5.65312 18.8463 4 20.4994 4 22.5386C4 22.6386 4.00397 22.7376 4.01177 22.8355C5.16333 23.2411 6.40207 23.4617 7.69234 23.4617C8.00292 23.4617 8.31051 23.4489 8.61462 23.4238M9.77353 19.4883C9.04616 20.6256 8.62188 21.9754 8.61462 23.4238M19.6915 8.69234C19.6915 10.7316 18.0384 12.3847 15.9992 12.3847C13.96 12.3847 12.3069 10.7316 12.3069 8.69234C12.3069 6.65312 13.96 5 15.9992 5C18.0384 5 19.6915 6.65312 19.6915 8.69234ZM27.0762 12.3847C27.0762 13.9141 25.8364 15.1539 24.307 15.1539C22.7775 15.1539 21.5377 13.9141 21.5377 12.3847C21.5377 10.8553 22.7775 9.61542 24.307 9.61542C25.8364 9.61542 27.0762 10.8553 27.0762 12.3847ZM10.4607 12.3847C10.4607 13.9141 9.22085 15.1539 7.69144 15.1539C6.16202 15.1539 4.92218 13.9141 4.92218 12.3847C4.92218 10.8553 6.16202 9.61542 7.69144 9.61542C9.22085 9.61542 10.4607 10.8553 10.4607 12.3847Z" stroke="black" stroke-linecap="round" stroke-linejoin="round"/>
</svg>
