<svg width="32" height="32" viewBox="0 0 32 32" fill="none" xmlns="http://www.w3.org/2000/svg">
<path d="M10.4615 11.6316H21.5385M10.4615 15.4211H16M4 17.3276C4 19.35 5.38266 21.1104 7.33226 21.4046C8.72118 21.6142 10.1258 21.7742 11.5444 21.8827C11.9754 21.9157 12.3694 22.1477 12.6092 22.5168L16 27.7368L19.3908 22.5168C19.6305 22.1478 20.0245 21.9158 20.4555 21.8828C21.8741 21.7743 23.2788 21.6143 24.6677 21.4047C26.6173 21.1106 28 19.3502 28 17.3277V9.72491C28 7.70248 26.6173 5.9421 24.6677 5.64792C21.8388 5.22107 18.9447 5 16.0004 5C13.0557 5 10.1614 5.22111 7.33227 5.64803C5.38267 5.94223 4 7.7026 4 9.72502V17.3276Z" stroke="black" stroke-linecap="round" stroke-linejoin="round"/>
</svg>
