<svg xmlns="http://www.w3.org/2000/svg" viewBox="0 0 32 32">

    <path
        d="M7.33,10.16H25.13c1.85,0,3.36-1.51,3.36-3.36s-1.51-3.36-3.36-3.36H7.33c-1.85,0-3.36,1.51-3.36,3.36s1.51,3.36,3.36,3.36Zm-1.89-3.36c0-1.04,.85-1.89,1.89-1.89H25.13c1.04,0,1.89,.85,1.89,1.89s-.85,1.89-1.89,1.89H7.33c-1.04,0-1.89-.85-1.89-1.89Z" />
    <path
        d="M25.13,22H7.33c-1.85,0-3.36,1.51-3.36,3.36s1.51,3.36,3.36,3.36H25.13c1.85,0,3.36-1.51,3.36-3.36s-1.51-3.36-3.36-3.36Zm1.89,3.36c0,1.04-.85,1.89-1.89,1.89H7.33c-1.04,0-1.89-.85-1.89-1.89s.85-1.89,1.89-1.89H25.13c1.04,0,1.89,.85,1.89,1.89Z" />
    <path
        d="M7.33,19.44H25.13c1.85,0,3.36-1.51,3.36-3.36s-1.51-3.36-3.36-3.36H7.33c-1.85,0-3.36,1.51-3.36,3.36s1.51,3.36,3.36,3.36Zm-1.89-3.36c0-1.04,.85-1.89,1.89-1.89H25.13c1.04,0,1.89,.85,1.89,1.89s-.85,1.89-1.89,1.89H7.33c-1.04,0-1.89-.85-1.89-1.89Z" />
</svg>