<svg width="24" height="24" viewBox="0 0 24 24" fill="none" xmlns="http://www.w3.org/2000/svg">
<g clip-path="url(#clip0_5101_7684)">
<path d="M9.5 13.5C9.224 13.5 9 13.276 9 13C9 12.448 8.551 12 8 12C7.449 12 7 12.448 7 13C7 13.276 6.776 13.5 6.5 13.5C6.224 13.5 6 13.276 6 13C6 11.897 6.897 11 8 11C9.103 11 10 11.897 10 13C10 13.276 9.776 13.5 9.5 13.5Z" fill="black"/>
<path d="M17.5 13.5C17.224 13.5 17 13.276 17 13C17 12.448 16.551 12 16 12C15.449 12 15 12.448 15 13C15 13.276 14.776 13.5 14.5 13.5C14.224 13.5 14 13.276 14 13C14 11.897 14.897 11 16 11C17.103 11 18 11.897 18 13C18 13.276 17.776 13.5 17.5 13.5Z" fill="black"/>
<path d="M12.0039 23.5021C6.48991 23.5021 2.00391 19.015 2.00391 13.5C2.00391 7.98505 6.48991 3.49805 12.0039 3.49805C17.5179 3.49805 22.0039 7.98505 22.0039 13.5C22.0039 19.015 17.5179 23.5021 12.0039 23.5021ZM12.0039 4.49805C7.04191 4.49805 3.00391 8.53605 3.00391 13.5C3.00391 18.464 7.04191 22.5021 12.0039 22.5021C16.9659 22.5021 21.0039 18.464 21.0039 13.5C21.0039 8.53605 16.9659 4.49805 12.0039 4.49805Z" fill="black"/>
<path d="M21.4989 15.9994C21.4059 15.9994 21.3119 15.9974 21.2199 15.9844C20.9469 15.9464 20.7559 15.6934 20.7939 15.4204C20.8319 15.1474 21.0859 14.9614 21.3579 14.9944C21.4049 14.9994 21.4529 14.9994 21.4989 14.9994C22.3259 14.9994 22.9989 14.3264 22.9989 13.4994C22.9989 12.6564 22.3209 11.9904 21.4529 11.9994C21.4219 11.9994 21.3899 12.0004 21.3589 12.0044C21.0849 12.0344 20.8319 11.8524 20.7949 11.5784C20.7569 11.3054 20.9469 11.0524 21.2209 11.0144C22.6869 10.8114 23.9989 12.0274 23.9989 13.4994C23.9989 14.8784 22.8769 15.9994 21.4989 15.9994Z" fill="black"/>
<path d="M2.5 15.9992C1.122 15.9992 0 14.8782 0 13.4992C0 12.0272 1.303 10.8122 2.779 11.0142C3.052 11.0522 3.243 11.3052 3.205 11.5782C3.167 11.8512 2.916 12.0352 2.641 12.0042C2.594 11.9972 2.545 11.9992 2.5 11.9992C1.673 11.9992 1 12.6722 1 13.4992C1 14.3412 1.7 15.0332 2.546 14.9992C2.577 14.9992 2.609 14.9982 2.64 14.9942C2.914 14.9602 3.166 15.1462 3.204 15.4202C3.242 15.6942 3.052 15.9462 2.778 15.9842C2.687 15.9972 2.593 15.9992 2.5 15.9992Z" fill="black"/>
<path d="M12.5029 8.49995C11.5149 8.49995 10.5669 8.13795 9.83291 7.47895C9.62691 7.29395 9.60991 6.97795 9.79491 6.77195C9.98091 6.56595 10.2959 6.54895 10.5009 6.73395C11.0509 7.22895 11.7619 7.49995 12.5029 7.49995C14.1569 7.49995 15.5019 6.15395 15.5019 4.50095C15.5019 2.84795 14.1569 1.50195 12.5029 1.50195C10.8489 1.50195 9.50391 2.84795 9.50391 4.50095C9.50391 4.77695 9.27991 5.00095 9.00391 5.00095C8.72791 5.00095 8.50391 4.77695 8.50391 4.50095C8.50391 2.29595 10.2979 0.501953 12.5029 0.501953C14.7079 0.501953 16.5019 2.29595 16.5019 4.50095C16.5019 6.70595 14.7079 8.49995 12.5029 8.49995Z" fill="black"/>
<path d="M11.9991 19.9964C10.8471 19.9964 9.69513 19.5584 8.81813 18.6814C8.62312 18.4864 8.62312 18.1694 8.81813 17.9744C9.01313 17.7794 9.33012 17.7794 9.52512 17.9744C10.8461 19.2964 13.1511 19.2964 14.4721 17.9744C14.6671 17.7794 14.9841 17.7794 15.1791 17.9744C15.3741 18.1694 15.3741 18.4864 15.1791 18.6814C14.3031 19.5584 13.1511 19.9964 11.9991 19.9964Z" fill="black"/>
</g>
<defs>
<clipPath id="clip0_5101_7684">
<rect width="24" height="24" fill="white"/>
</clipPath>
</defs>
</svg>
