<svg width="24" height="24" viewBox="0 0 24 24" fill="none" xmlns="http://www.w3.org/2000/svg">
<g clip-path="url(#clip0_5101_7720)">
<path d="M23.3625 20.1226L13.7021 9.61626C13.399 9.28029 13.002 9.04313 12.5625 8.93554V5.74804C13.0084 5.43857 13.367 5.0193 13.6036 4.53075C13.8401 4.0422 13.9466 3.5009 13.9128 2.95915C13.8791 2.4174 13.7061 1.89352 13.4107 1.43815C13.1153 0.98278 12.7074 0.611314 12.2264 0.359652C11.7455 0.10799 11.2078 -0.0153587 10.6652 0.00152764C10.1227 0.018414 9.59367 0.174964 9.12931 0.456048C8.66495 0.737133 8.28095 1.13325 8.01442 1.60611C7.74789 2.07897 7.60784 2.61258 7.60781 3.15539C7.60781 3.30457 7.66707 3.44765 7.77256 3.55314C7.87805 3.65862 8.02113 3.71789 8.17031 3.71789C8.3195 3.71789 8.46257 3.65862 8.56806 3.55314C8.67355 3.44765 8.73281 3.30457 8.73281 3.15539C8.73291 2.79667 8.82804 2.44437 9.00851 2.13435C9.18899 1.82434 9.44837 1.56766 9.76027 1.39045C10.0722 1.21324 10.4254 1.12181 10.7841 1.12548C11.1428 1.12914 11.4942 1.22777 11.8024 1.41132C12.1106 1.59487 12.3647 1.85679 12.5388 2.17043C12.7129 2.48407 12.8008 2.83823 12.7936 3.19688C12.7863 3.55553 12.6842 3.90586 12.4976 4.21223C12.311 4.5186 12.0466 4.77007 11.7312 4.94104C11.6419 4.98958 11.5674 5.06141 11.5157 5.1489C11.4639 5.23639 11.4368 5.33627 11.4373 5.43792V8.93531C10.9978 9.0429 10.6008 9.28006 10.2977 9.61603L0.637497 20.1226C0.333548 20.4532 0.132434 20.8651 0.0587147 21.3081C-0.0150049 21.7511 0.04186 22.2059 0.222365 22.6171C0.402871 23.0283 0.699205 23.3781 1.07518 23.6236C1.45116 23.8692 1.89051 24 2.33958 24H21.6604C22.1095 24 22.5488 23.8692 22.9248 23.6236C23.3008 23.3781 23.5971 23.0283 23.7776 22.6171C23.9581 22.2059 24.015 21.7511 23.9413 21.3081C23.8676 20.8651 23.6664 20.4532 23.3625 20.1226ZM22.7475 22.165C22.658 22.3784 22.5066 22.5602 22.3129 22.6867C22.1191 22.8133 21.8918 22.8789 21.6604 22.875H2.33958C2.10899 22.875 1.88339 22.8078 1.69033 22.6818C1.49728 22.5557 1.34511 22.3761 1.25243 22.1649C1.15974 21.9538 1.13054 21.7202 1.16839 21.4928C1.20625 21.2653 1.30952 21.0538 1.46559 20.8841L11.126 10.3777C11.2372 10.2568 11.3723 10.1603 11.5227 10.0942C11.6732 10.0282 11.8357 9.99408 12 9.99408C12.1643 9.99408 12.3268 10.0282 12.4772 10.0942C12.6277 10.1603 12.7628 10.2568 12.874 10.3777L22.5344 20.8841C22.6939 21.0518 22.7995 21.2635 22.8374 21.4918C22.8754 21.7202 22.8441 21.9546 22.7475 22.165H22.7475Z" fill="black"/>
</g>
<defs>
<clipPath id="clip0_5101_7720">
<rect width="24" height="24" fill="white"/>
</clipPath>
</defs>
</svg>
