<svg width="24" height="24" viewBox="0 0 24 24" fill="none" xmlns="http://www.w3.org/2000/svg">
<g clip-path="url(#clip0_5101_7618)">
<path d="M3.87861 12H2.33196C2.11841 12 1.94531 12.1731 1.94531 12.3867V22.4399C1.94531 23.0806 2.46464 23.5999 3.10531 23.5999C3.74598 23.5999 4.26531 23.0806 4.26531 22.4399V12.3866C4.26526 12.1731 4.09217 12 3.87861 12ZM3.49201 22.4399C3.49196 22.6535 3.31887 22.8266 3.10531 22.8266C2.89175 22.8266 2.71866 22.6535 2.71866 22.4399V12.7733H3.49201V22.4399Z" fill="black"/>
<path d="M3.87861 6.58594H2.33196C2.11841 6.58594 1.94531 6.75903 1.94531 6.97259V12.3859C1.94531 12.5995 2.11841 12.7726 2.33196 12.7726H3.87861C4.09217 12.7726 4.26526 12.5995 4.26526 12.3859V6.97263C4.26526 6.75908 4.09217 6.58594 3.87861 6.58594ZM3.49196 11.9993H2.71861V7.35924H3.49196V11.9993Z" fill="black"/>
<path d="M22.8279 0.400391H22.0546C21.2004 0.400391 20.5079 1.09285 20.5079 1.94704V11.227C20.4995 11.9995 21.0623 12.6598 21.8265 12.7737H21.8961H22.0546H23.2146C23.4282 12.7737 23.6012 12.6006 23.6012 12.387V1.17374C23.6012 0.746623 23.255 0.400391 22.8279 0.400391ZM22.0082 12.0004H21.9618C21.5713 11.9532 21.2784 11.6204 21.2812 11.227V1.94704C21.2812 1.51992 21.6274 1.17369 22.0546 1.17369H22.8279V12.0004H22.0082Z" fill="black"/>
<path d="M2.33178 6.58703C1.69116 6.58703 1.17178 6.06771 1.17178 5.42703V0.787041C1.17178 0.573484 0.998646 0.400391 0.785088 0.400391C0.571531 0.400391 0.398438 0.573484 0.398438 0.787041V5.42703C0.398438 6.49477 1.26404 7.36033 2.33178 7.36033C2.54534 7.36033 2.71843 7.18719 2.71843 6.97368C2.71843 6.76017 2.54534 6.58703 2.33178 6.58703Z" fill="black"/>
<path d="M5.42549 0.400391C5.21193 0.400391 5.03884 0.573484 5.03884 0.787041V5.42703C5.03884 6.06766 4.51947 6.58703 3.87884 6.58703C3.66528 6.58703 3.49219 6.76012 3.49219 6.97368C3.49219 7.18724 3.66528 7.36033 3.87884 7.36033C4.94658 7.36033 5.81218 6.49473 5.81218 5.42699V0.787041C5.81218 0.573484 5.63904 0.400391 5.42549 0.400391Z" fill="black"/>
<path d="M5.42508 4.6543H0.785088C0.571531 4.6543 0.398438 4.82739 0.398438 5.04095C0.398438 5.25451 0.571531 5.4276 0.785088 5.4276H5.42508C5.63864 5.4276 5.81173 5.25451 5.81173 5.04095C5.81173 4.82739 5.63864 4.6543 5.42508 4.6543Z" fill="black"/>
<path d="M2.33196 0.400391C2.11841 0.400391 1.94531 0.573484 1.94531 0.787041V5.04038C1.94531 5.25394 2.11841 5.42703 2.33196 5.42703C2.54552 5.42703 2.71861 5.25394 2.71861 5.04038V0.787041C2.71861 0.573484 2.54552 0.400391 2.33196 0.400391Z" fill="black"/>
<path d="M3.87884 0.400391C3.66528 0.400391 3.49219 0.573484 3.49219 0.787041V5.04038C3.49219 5.25394 3.66528 5.42703 3.87884 5.42703C4.0924 5.42703 4.26549 5.25394 4.26549 5.04038V0.787041C4.26549 0.573484 4.0924 0.400391 3.87884 0.400391Z" fill="black"/>
<path d="M23.2145 12H21.6679C21.4543 12 21.2812 12.1731 21.2812 12.3867V22.4399C21.2812 23.0806 21.8006 23.5999 22.4412 23.5999C23.0819 23.5999 23.6012 23.0806 23.6012 22.4399V12.3866C23.6012 12.1731 23.4281 12 23.2145 12ZM22.8279 22.4399C22.8279 22.6535 22.6548 22.8266 22.4412 22.8266C22.2276 22.8266 22.0546 22.6535 22.0546 22.4399V12.7733H22.8279V22.4399Z" fill="black"/>
<path d="M22.292 12.33C22.2855 12.2937 22.2737 12.2586 22.2572 12.2256C22.2001 12.1005 22.0809 12.0151 21.944 12.0014C21.5535 11.9542 21.2607 11.6214 21.2635 11.228V9.43388C21.2626 9.36876 21.2453 9.30492 21.2132 9.24828C19.9858 7.034 17.9387 5.38961 15.5118 4.66851C10.3942 3.148 5.01291 6.06399 3.49236 11.1816C3.48728 11.2175 3.48728 11.254 3.49236 11.2899V16.5795C3.48692 16.6167 3.48692 16.6544 3.49236 16.6916C4.73011 20.7846 8.49625 23.5888 12.7723 23.6013C17.0473 23.5893 20.8132 20.7869 22.0523 16.6955C22.0578 16.6583 22.0578 16.6205 22.0523 16.5833V12.7515C22.2213 12.6847 22.3211 12.5094 22.292 12.33ZM21.279 16.5253C20.4153 19.3577 18.1985 21.5745 15.3662 22.4381C10.6681 23.8707 5.69821 21.2234 4.26566 16.5253V11.3479C4.92931 9.17134 6.40196 7.33197 8.38062 6.20831C12.6516 3.78283 18.0801 5.27891 20.5056 9.54988V11.228C20.5062 11.78 20.8009 12.2899 21.279 12.5659V16.5253Z" fill="black"/>
<path d="M12.7726 7.35938C9.14221 7.35938 6.19922 10.3024 6.19922 13.9328C6.19922 17.5631 9.14221 20.5061 12.7726 20.5061C16.4029 20.5061 19.3459 17.5631 19.3459 13.9328C19.3459 10.3024 16.4029 7.35938 12.7726 7.35938ZM12.7726 19.7327C9.56928 19.7327 6.97257 17.136 6.97257 13.9328C6.97257 10.7295 9.56933 8.13277 12.7726 8.13277C15.9758 8.13277 18.5725 10.7295 18.5725 13.9328C18.5725 17.136 15.9758 19.7327 12.7726 19.7327Z" fill="black"/>
<path d="M12.7727 8.90625C9.99658 8.90625 7.74609 11.1568 7.74609 13.9329C7.74609 14.1464 7.91919 14.3195 8.13274 14.3195C8.3463 14.3195 8.5194 14.1464 8.5194 13.9329C8.5194 11.5839 10.4237 9.67955 12.7727 9.67955C12.9863 9.67955 13.1594 9.50646 13.1594 9.2929C13.1594 9.07934 12.9862 8.90625 12.7727 8.90625Z" fill="black"/>
<path d="M17.4134 13.5469C17.1998 13.5469 17.0267 13.72 17.0267 13.9335C17.0267 16.2826 15.1224 18.1869 12.7734 18.1869C12.5598 18.1869 12.3867 18.36 12.3867 18.5735C12.3867 18.787 12.5599 18.9602 12.7734 18.9602C15.5495 18.9602 17.8 16.7097 17.8 13.9336C17.8 13.72 17.6269 13.5469 17.4134 13.5469Z" fill="black"/>
</g>
<defs>
<clipPath id="clip0_5101_7618">
<rect width="24" height="24" fill="white"/>
</clipPath>
</defs>
</svg>
