<svg width="24" height="24" viewBox="0 0 24 24" fill="none" xmlns="http://www.w3.org/2000/svg">
    <path
        d="M3.86445 17.1889C3.5654 17.2098 3.2716 17.3121 3.02501 17.48C2.53447 17.8132 2.09114 18.3588 2.09376 19.012C2.09376 19.6757 2.61316 20.1951 3.32931 20.1951C3.96938 20.1951 4.47304 19.8016 4.79833 19.3137C5.15246 18.7812 5.25215 18.0335 4.77996 17.5535C4.56748 17.341 4.15301 17.1705 3.86445 17.1889ZM4.12415 18.9097C3.85134 19.3058 3.28209 19.5655 3.03288 19.3399C2.72859 19.0619 3.0014 18.5188 3.24799 18.2906C3.46834 18.0886 3.86445 17.8499 4.15301 18.0493C4.39435 18.2172 4.3104 18.6369 4.12415 18.9097Z"
        fill="black" stroke="black" stroke-width="0.15" />
    <path
        d="M22.6791 18.7709C21.9997 18.8339 21.3885 19.2352 20.7038 19.2326C20.6881 18.1466 20.2998 17.113 19.4919 16.3523C18.5921 15.505 17.4929 15.1325 16.2967 15.3554C15.2343 14.4268 14.2165 13.4405 13.2092 12.4436C14.5392 10.9012 18.0674 6.60954 18.5317 6.03242C19.0774 5.35825 19.5837 4.66571 19.888 3.84464C20.0873 3.30687 20.2552 2.45432 19.5601 2.21036C19.1639 2.07132 18.7521 2.21823 18.4006 2.40448C17.7631 2.7455 17.2044 3.25965 16.6771 3.74758C16.1 4.28272 12.0418 8.354 10.5623 9.82301C9.12217 8.39859 4.54198 3.74233 3.56876 2.97634C3.04935 2.56712 1.7797 1.62275 1.20521 2.48317C0.816973 3.06291 1.27079 3.98105 1.54623 4.51094C1.86627 5.12478 2.30173 5.6573 2.73456 6.19244C3.66582 7.34142 7.71348 12.1944 7.92072 12.4384C6.91077 13.4274 5.90607 14.4268 4.84103 15.3581C3.55302 15.1141 2.32009 15.5915 1.44131 16.5752C0.683187 17.4252 0.213627 18.5899 0.468081 19.7336C0.735652 20.9429 1.90037 21.8952 3.1228 21.9922C4.35311 22.0893 5.42339 21.2499 6.1238 20.3186C6.85044 19.3506 7.12063 17.9026 6.76125 16.7248C7.98105 15.6912 9.31104 14.7757 10.4312 13.6346C10.5413 13.5218 10.7433 13.6661 10.885 13.7789C11.7559 14.4845 12.6058 15.2164 13.4558 15.9457C13.7994 16.2395 14.1431 16.5306 14.4867 16.8218C13.7942 18.1387 14.1483 19.7179 15.1714 20.7777C16.281 21.924 17.8418 21.9975 19.2794 21.5122C20.0716 21.8375 21.0396 21.7483 21.837 21.5227C22.6266 21.2997 23.571 20.8485 23.7284 19.9461C23.8491 19.2746 23.3664 18.7079 22.6791 18.7709ZM14.9353 6.58593C15.9662 5.55762 16.9526 4.45848 18.0989 3.55608C18.3061 3.39082 18.7705 2.94224 19.2794 2.94224C19.4578 3.54296 18.4583 4.8782 17.9756 5.4763C17.5559 5.9957 17.1362 6.51248 16.7138 7.02663C15.376 8.66092 14.0276 10.29 12.6504 11.8928C12.2806 11.5255 11.2627 10.5155 11.1211 10.3765C12.396 9.11474 13.6682 7.85296 14.9353 6.58593ZM6.02674 16.3208C5.92968 16.4021 5.87984 16.5857 5.92443 16.7038C6.25234 17.5485 6.17626 18.6555 5.7513 19.4556C5.34994 20.2111 4.59707 20.9456 3.74976 21.1581C2.78965 21.3994 1.69838 20.7672 1.33113 19.8622C1.0006 19.0463 1.27079 18.1361 1.75347 17.4435C2.46175 16.4231 3.61073 15.9168 4.85415 16.1634C4.99056 16.1896 5.1086 16.1818 5.23714 16.0611C6.32579 15.0511 7.3882 14.0648 8.43488 13.0391C8.59752 13.2306 8.88607 13.6005 9.16938 13.6608C8.11222 14.537 7.07604 15.4368 6.02674 16.3208ZM22.805 20.1245C22.443 20.5862 21.7452 20.7593 21.1996 20.859C20.6671 20.9587 20.0611 20.9823 19.5522 20.7777C19.219 20.6439 18.9777 20.796 18.6419 20.8852C18.3298 20.9692 18.015 21.0216 17.6897 21.0269C16.8476 21.0426 16.1262 20.6859 15.5806 20.0537C14.8199 19.1723 14.673 17.9236 15.3314 16.932C15.4206 16.7982 15.397 16.5621 15.2711 16.4546C14.45 15.7647 11.992 13.6713 11.5775 13.3329C11.2627 13.0758 10.9794 12.8056 10.5466 12.8188C10.2397 12.8266 9.94324 13.0024 9.64157 12.984C9.30055 12.963 9.04871 12.5381 8.84148 12.302C8.30371 11.6829 5.17943 7.95264 4.15899 6.70135C3.36414 5.72813 2.63226 4.60538 1.96858 3.51673C1.90824 3.41705 1.80069 3.17571 1.86627 2.94749C2.21516 2.87141 2.7608 3.34097 2.95754 3.49312C3.91502 4.23025 4.74397 5.12216 5.59128 5.97734C7.22294 7.62473 15.4967 15.7306 15.9898 16.1188C16.0633 16.1765 16.1708 16.1923 16.2862 16.1634C17.3172 15.9116 18.2406 16.229 18.9908 16.9635C19.7096 17.6665 19.9719 18.5978 19.9142 19.5867C19.9037 19.7467 20.0427 19.9356 20.2028 19.9671C20.6382 20.0484 21.0553 20.0222 21.4855 19.9225C21.7688 19.8569 22.0469 19.7704 22.3223 19.6785C22.4745 19.6287 22.7237 19.5054 22.8706 19.5605C22.9414 19.5867 22.9624 19.6339 22.9677 19.71C22.9755 19.8569 22.8968 20.0091 22.805 20.1245Z"
        fill="black" stroke="black" stroke-width="0.15" />
    <path
        d="M9.89534 11.3848C9.38905 11.3848 9.38905 12.1717 9.89534 12.1717C10.4016 12.1717 10.4016 11.3848 9.89534 11.3848Z"
        fill="black" stroke="black" stroke-width="0.15" />
    <path
        d="M17.0477 17.1231C16.384 17.1257 15.8646 17.6451 15.8672 18.3612C15.8698 19.0013 16.2659 19.505 16.7512 19.8276C17.2837 20.1818 18.034 20.2788 18.5114 19.8066C18.7265 19.5942 18.897 19.1797 18.8761 18.8911C18.8551 18.5921 18.7528 18.2983 18.5823 18.0517C18.2491 17.5611 17.7035 17.1204 17.0477 17.1231ZM18.0183 19.1823C17.853 19.4236 17.4333 19.3423 17.1605 19.1534C16.7617 18.8806 16.502 18.314 16.725 18.0648C17.0031 17.7579 17.5461 18.0307 17.7743 18.2773C17.9737 18.4976 18.215 18.8937 18.0183 19.1823Z"
        fill="black" stroke="black" stroke-width="0.15" />
</svg>