<svg width="26" height="26" viewBox="0 0 26 26" fill="none" xmlns="http://www.w3.org/2000/svg">
    <path
        d="M23.2433 3.18183H5.36362V3.33836L5.1399 2.57137C4.87036 1.64611 4.00907 1 3.04546 1H1.54547C1.24397 1 1 1.24397 1 1.54547C1 1.84697 1.24397 2.09094 1.54547 2.09094H3.04546C3.52752 2.09094 3.95793 2.41377 4.09268 2.87665L7.48793 14.5171L5.74822 16.6914C5.49964 17.0032 5.36406 17.39 5.36362 17.7887C5.36362 18.7576 6.15143 19.5454 7.12036 19.5454H22.2727C22.3444 19.5455 22.4153 19.5314 22.4815 19.504C22.5477 19.4766 22.6079 19.4364 22.6586 19.3858C22.7092 19.3351 22.7494 19.275 22.7768 19.2088C22.8042 19.1426 22.8183 19.0716 22.8182 19C22.8183 18.9283 22.8042 18.8574 22.7768 18.7912C22.7494 18.725 22.7092 18.6648 22.6586 18.6142C22.6079 18.5635 22.5477 18.5233 22.4815 18.4959C22.4153 18.4685 22.3444 18.4545 22.2727 18.4545H7.12036C6.75336 18.4545 6.45452 18.1557 6.45452 17.7887C6.45452 17.6379 6.50616 17.4898 6.60046 17.3727L8.35336 15.1818H19.0522C19.8933 15.1818 20.6683 14.6901 21.0268 13.9289L24.8333 5.84036C24.9427 5.60637 24.9996 5.35129 25 5.093V4.93852C25 3.96964 24.2122 3.18183 23.2433 3.18183ZM23.9091 5.09305C23.9091 5.19052 23.8873 5.28854 23.8457 5.37645L20.0398 13.4645C19.8603 13.8448 19.473 14.0909 19.0522 14.0909H8.50002L5.63618 4.27272H23.2433C23.6103 4.27272 23.9091 4.57156 23.9091 4.93857V5.09305ZM7.54546 20.6363C6.34217 20.6363 5.36362 21.6148 5.36362 22.8182C5.36362 24.0215 6.34212 25 7.54546 25C8.7488 25 9.7273 24.0215 9.7273 22.8182C9.7273 21.6148 8.74875 20.6363 7.54546 20.6363ZM7.54546 23.9091C6.9441 23.9091 6.45457 23.4195 6.45457 22.8182C6.45457 22.2168 6.9441 21.7273 7.54546 21.7273C8.14682 21.7273 8.63635 22.2168 8.63635 22.8182C8.63635 23.4195 8.14682 23.9091 7.54546 23.9091ZM20.6364 20.6363C19.4331 20.6363 18.4545 21.6148 18.4545 22.8182C18.4545 24.0215 19.433 25 20.6364 25C21.8397 25 22.8182 24.0215 22.8182 22.8182C22.8182 21.6148 21.8397 20.6363 20.6364 20.6363ZM20.6364 23.9091C20.035 23.9091 19.5455 23.4195 19.5455 22.8182C19.5455 22.2168 20.035 21.7273 20.6364 21.7273C21.2377 21.7273 21.7273 22.2168 21.7273 22.8182C21.7273 23.4195 21.2377 23.9091 20.6364 23.9091Z"
        fill="black" stroke="black" stroke-width="0.1" />
</svg>