<svg width="24" height="24" viewBox="0 0 24 24" fill="none" xmlns="http://www.w3.org/2000/svg">
<path d="M7.06172 15.1819V15.1819C7.06172 15.0651 7.09286 14.9504 7.15193 14.8496C7.211 14.7488 7.29586 14.6656 7.39778 14.6085C7.49969 14.5514 7.61499 14.5225 7.73179 14.5247C7.84857 14.527 7.96264 14.5603 8.06226 14.6213L8.06224 14.6213L8.02313 14.6853L8.0623 14.6214L7.06172 15.1819ZM7.06172 15.1819V19.0046C7.06172 19.0046 7.06172 19.0046 7.06172 19.0046C7.06169 19.0909 7.07867 19.1764 7.11169 19.2562C7.14472 19.336 7.19315 19.4085 7.25421 19.4696C7.31528 19.5306 7.38777 19.579 7.46756 19.6121C7.54733 19.6451 7.63284 19.6621 7.71918 19.6621L7.06172 15.1819ZM7.96172 15.6146L10.3816 17.0933L7.96172 18.572V15.6146Z" fill="black" stroke="black" stroke-width="0.15"/>
<path d="M15.6328 15.675H15.6328C15.5135 15.675 15.399 15.7224 15.3146 15.8068C15.2302 15.8912 15.1828 16.0057 15.1828 16.125V16.5C15.1828 16.6193 15.2302 16.7338 15.3146 16.8182C15.399 16.9026 15.5135 16.95 15.6328 16.95C15.7522 16.95 15.8666 16.9026 15.951 16.8182C16.0354 16.7338 16.0828 16.6193 16.0828 16.5V16.125V16.125C16.0828 16.0057 16.0354 15.8912 15.951 15.8068C15.8666 15.7224 15.7522 15.675 15.6328 15.675Z" fill="black" stroke="black" stroke-width="0.15"/>
<path d="M15.6328 14.175H15.6328C15.5135 14.175 15.399 14.2224 15.3146 14.3068C15.2302 14.3912 15.1828 14.5057 15.1828 14.625V15C15.1828 15.1193 15.2302 15.2338 15.3146 15.3182C15.399 15.4026 15.5135 15.45 15.6328 15.45C15.7522 15.45 15.8666 15.4026 15.951 15.3182C16.0354 15.2338 16.0828 15.1193 16.0828 15V14.625V14.625C16.0828 14.5057 16.0354 14.3912 15.951 14.3068C15.8666 14.2224 15.7522 14.175 15.6328 14.175Z" fill="black" stroke="black" stroke-width="0.15"/>
<path d="M15.6328 17.175H15.6328C15.5135 17.175 15.399 17.2224 15.3146 17.3068C15.2302 17.3912 15.1828 17.5057 15.1828 17.625V18C15.1828 18.1193 15.2302 18.2338 15.3146 18.3182C15.399 18.4026 15.5135 18.45 15.6328 18.45C15.7522 18.45 15.8666 18.4026 15.951 18.3182C16.0354 18.2338 16.0828 18.1193 16.0828 18V17.625V17.625C16.0828 17.5057 16.0354 17.3912 15.951 17.3068C15.8666 17.2224 15.7522 17.175 15.6328 17.175Z" fill="black" stroke="black" stroke-width="0.15"/>
<path d="M15.6328 18.675H15.6328C15.5135 18.675 15.399 18.7224 15.3146 18.8068C15.2302 18.8912 15.1828 19.0057 15.1828 19.125V19.5C15.1828 19.6193 15.2302 19.7338 15.3146 19.8182C15.399 19.9026 15.5135 19.95 15.6328 19.95C15.7522 19.95 15.8666 19.9026 15.951 19.8182C16.0354 19.7338 16.0828 19.6193 16.0828 19.5V19.125V19.125C16.0828 19.0057 16.0354 18.8912 15.951 18.8068C15.8666 18.7224 15.7522 18.675 15.6328 18.675Z" fill="black" stroke="black" stroke-width="0.15"/>
<mask id="path-6-outside-1_5101_7665" maskUnits="userSpaceOnUse" x="0.5" y="0.945312" width="23" height="22" fill="black">
<rect fill="white" x="0.5" y="0.945312" width="23" height="22"/>
<path d="M22.153 7.64823L20.4873 5.98253C20.4113 5.90606 20.3084 5.86246 20.2006 5.86109C20.0928 5.85973 19.9888 5.9007 19.9109 5.9752C19.717 6.15347 19.4617 6.24995 19.1984 6.24449C18.935 6.23903 18.684 6.13205 18.4977 5.9459C18.3113 5.75974 18.2041 5.5088 18.1984 5.24547C18.1926 4.98214 18.2888 4.72678 18.4669 4.5327C18.541 4.45454 18.5818 4.35061 18.5806 4.24292C18.5794 4.13522 18.5363 4.03222 18.4605 3.95573L16.7948 2.29001C16.5763 2.07041 16.2796 1.94645 15.9699 1.94532C15.6601 1.94419 15.3625 2.06598 15.1425 2.28397L5.29523 12.131H2.664C2.35424 12.1325 2.05772 12.2569 1.8395 12.4767C1.62129 12.6966 1.49919 12.994 1.5 13.3038V15.6595C1.49952 15.7673 1.54145 15.871 1.61674 15.9482C1.69204 16.0253 1.79466 16.0698 1.90247 16.072C2.16566 16.0831 2.41439 16.1955 2.5967 16.3856C2.77901 16.5758 2.88081 16.829 2.88083 17.0924C2.88086 17.3559 2.7791 17.6091 2.59683 17.7993C2.41455 17.9895 2.16585 18.1019 1.90265 18.1131C1.79479 18.1152 1.6921 18.1597 1.61677 18.2369C1.54143 18.3141 1.49949 18.4179 1.5 18.5258V20.8814C1.49923 21.1912 1.62134 21.4886 1.83955 21.7084C2.05777 21.9283 2.35426 22.0526 2.664 22.0541H20.1374C20.4472 22.0526 20.7437 21.9283 20.962 21.7085C21.1802 21.4886 21.3023 21.1912 21.3016 20.8814V18.5258C21.3021 18.4179 21.2602 18.3141 21.1848 18.2369C21.1095 18.1597 21.0068 18.1152 20.8989 18.1131C20.6357 18.102 20.387 17.9896 20.2047 17.7994C20.0224 17.6093 19.9206 17.356 19.9206 17.0926C19.9205 16.8292 20.0223 16.5759 20.2046 16.3857C20.3868 16.1956 20.6356 16.0832 20.8987 16.072C21.0066 16.0699 21.1093 16.0254 21.1847 15.9483C21.2601 15.8711 21.302 15.7673 21.3016 15.6595V13.3038C21.3024 12.994 21.1803 12.6965 20.962 12.4767C20.7437 12.2568 20.4472 12.1325 20.1374 12.131H19.3284L22.1591 9.30038C22.377 9.08034 22.4988 8.7828 22.4977 8.47306C22.4966 8.16332 22.3726 7.86668 22.153 7.64823ZM20.5516 13.3038V15.3614C20.1593 15.4507 19.809 15.6707 19.5581 15.9852C19.3072 16.2997 19.1706 16.6901 19.1706 17.0924C19.1706 17.4948 19.3072 17.8852 19.5581 18.1997C19.809 18.5142 20.1593 18.7341 20.5516 18.8235V20.8814C20.5526 20.9924 20.5095 21.0992 20.4319 21.1784C20.3542 21.2576 20.2483 21.3028 20.1374 21.3041H15.841C15.892 21.2711 15.9341 21.226 15.9635 21.1729C15.9929 21.1197 16.0087 21.0601 16.0095 20.9994V20.6244C16.0095 20.5249 15.97 20.4295 15.8996 20.3592C15.8293 20.2889 15.7339 20.2494 15.6345 20.2494C15.535 20.2494 15.4396 20.2889 15.3693 20.3592C15.299 20.4295 15.2595 20.5249 15.2595 20.6244V20.9994C15.2602 21.0601 15.276 21.1197 15.3054 21.1729C15.3348 21.226 15.3769 21.2711 15.4279 21.304H2.664C2.5531 21.3028 2.44722 21.2576 2.3696 21.1784C2.29199 21.0991 2.24898 20.9923 2.25 20.8814V18.8235C2.64223 18.7341 2.99246 18.5141 3.24332 18.1996C3.49418 17.8852 3.63081 17.4948 3.63081 17.0925C3.63081 16.6902 3.49418 16.2999 3.24332 15.9854C2.99246 15.6709 2.64223 15.4509 2.25 15.3615V13.3038C2.24897 13.1929 2.29198 13.0861 2.36959 13.0068C2.4472 12.9275 2.55308 12.8823 2.664 12.881H15.3546C15.2943 12.9478 15.2605 13.0344 15.2595 13.1244V13.4994C15.2595 13.5988 15.299 13.6942 15.3693 13.7645C15.4396 13.8349 15.535 13.8744 15.6345 13.8744C15.7339 13.8744 15.8293 13.8349 15.8996 13.7645C15.97 13.6942 16.0095 13.5988 16.0095 13.4994V13.1244C16.0084 13.0344 15.9746 12.9478 15.9143 12.881H20.1374C20.2483 12.8823 20.3542 12.9275 20.4319 13.0068C20.5095 13.086 20.5526 13.1929 20.5516 13.3038ZM21.6288 8.77011L18.6257 11.7732C18.6247 11.676 18.5857 11.5831 18.5171 11.5143L18.252 11.2492C18.2172 11.2144 18.1758 11.1867 18.1303 11.1679C18.0849 11.1491 18.0361 11.1394 17.9869 11.1394C17.9376 11.1394 17.8889 11.1491 17.8434 11.1679C17.7979 11.1867 17.7565 11.2144 17.7217 11.2492C17.6869 11.284 17.6593 11.3253 17.6404 11.3708C17.6216 11.4163 17.6119 11.4651 17.6119 11.5143C17.6119 11.5636 17.6216 11.6123 17.6404 11.6578C17.6593 11.7033 17.6869 11.7446 17.7217 11.7795L17.9868 12.0446C18.0277 12.0842 18.0773 12.1138 18.1316 12.131H6.3558L12.3164 6.17049C12.3092 6.22581 12.3146 6.28205 12.3323 6.33497C12.3499 6.3879 12.3794 6.43611 12.4184 6.47598L12.6835 6.74111C12.7183 6.77621 12.7596 6.80411 12.8052 6.82319C12.8508 6.84227 12.8997 6.85215 12.9491 6.85228C12.9985 6.8524 13.0474 6.84277 13.0931 6.82392C13.1387 6.80508 13.1802 6.7774 13.2152 6.74247C13.2501 6.70754 13.2778 6.66605 13.2966 6.62039C13.3155 6.57472 13.3251 6.52579 13.325 6.47639C13.3249 6.42699 13.315 6.3781 13.2959 6.33253C13.2768 6.28696 13.2489 6.24561 13.2138 6.21086L12.9487 5.94573C12.9088 5.90671 12.8606 5.87725 12.8077 5.85958C12.7548 5.84191 12.6985 5.83649 12.6432 5.84373L15.6727 2.81428C15.7522 2.73686 15.859 2.69403 15.9699 2.69516C16.0808 2.6963 16.1867 2.74129 16.2645 2.82032L17.7195 4.27527C17.5053 4.61586 17.4132 5.01908 17.4582 5.41888C17.5032 5.81868 17.6826 6.19135 17.9671 6.47584C18.2515 6.76034 18.6242 6.93979 19.024 6.98479C19.4238 7.0298 19.827 6.9377 20.1676 6.72358L21.6227 8.17848C21.7019 8.25622 21.7469 8.36215 21.748 8.47305C21.7492 8.58395 21.7063 8.69078 21.6288 8.77011Z"/>
</mask>
<path d="M22.153 7.64823L20.4873 5.98253C20.4113 5.90606 20.3084 5.86246 20.2006 5.86109C20.0928 5.85973 19.9888 5.9007 19.9109 5.9752C19.717 6.15347 19.4617 6.24995 19.1984 6.24449C18.935 6.23903 18.684 6.13205 18.4977 5.9459C18.3113 5.75974 18.2041 5.5088 18.1984 5.24547C18.1926 4.98214 18.2888 4.72678 18.4669 4.5327C18.541 4.45454 18.5818 4.35061 18.5806 4.24292C18.5794 4.13522 18.5363 4.03222 18.4605 3.95573L16.7948 2.29001C16.5763 2.07041 16.2796 1.94645 15.9699 1.94532C15.6601 1.94419 15.3625 2.06598 15.1425 2.28397L5.29523 12.131H2.664C2.35424 12.1325 2.05772 12.2569 1.8395 12.4767C1.62129 12.6966 1.49919 12.994 1.5 13.3038V15.6595C1.49952 15.7673 1.54145 15.871 1.61674 15.9482C1.69204 16.0253 1.79466 16.0698 1.90247 16.072C2.16566 16.0831 2.41439 16.1955 2.5967 16.3856C2.77901 16.5758 2.88081 16.829 2.88083 17.0924C2.88086 17.3559 2.7791 17.6091 2.59683 17.7993C2.41455 17.9895 2.16585 18.1019 1.90265 18.1131C1.79479 18.1152 1.6921 18.1597 1.61677 18.2369C1.54143 18.3141 1.49949 18.4179 1.5 18.5258V20.8814C1.49923 21.1912 1.62134 21.4886 1.83955 21.7084C2.05777 21.9283 2.35426 22.0526 2.664 22.0541H20.1374C20.4472 22.0526 20.7437 21.9283 20.962 21.7085C21.1802 21.4886 21.3023 21.1912 21.3016 20.8814V18.5258C21.3021 18.4179 21.2602 18.3141 21.1848 18.2369C21.1095 18.1597 21.0068 18.1152 20.8989 18.1131C20.6357 18.102 20.387 17.9896 20.2047 17.7994C20.0224 17.6093 19.9206 17.356 19.9206 17.0926C19.9205 16.8292 20.0223 16.5759 20.2046 16.3857C20.3868 16.1956 20.6356 16.0832 20.8987 16.072C21.0066 16.0699 21.1093 16.0254 21.1847 15.9483C21.2601 15.8711 21.302 15.7673 21.3016 15.6595V13.3038C21.3024 12.994 21.1803 12.6965 20.962 12.4767C20.7437 12.2568 20.4472 12.1325 20.1374 12.131H19.3284L22.1591 9.30038C22.377 9.08034 22.4988 8.7828 22.4977 8.47306C22.4966 8.16332 22.3726 7.86668 22.153 7.64823ZM20.5516 13.3038V15.3614C20.1593 15.4507 19.809 15.6707 19.5581 15.9852C19.3072 16.2997 19.1706 16.6901 19.1706 17.0924C19.1706 17.4948 19.3072 17.8852 19.5581 18.1997C19.809 18.5142 20.1593 18.7341 20.5516 18.8235V20.8814C20.5526 20.9924 20.5095 21.0992 20.4319 21.1784C20.3542 21.2576 20.2483 21.3028 20.1374 21.3041H15.841C15.892 21.2711 15.9341 21.226 15.9635 21.1729C15.9929 21.1197 16.0087 21.0601 16.0095 20.9994V20.6244C16.0095 20.5249 15.97 20.4295 15.8996 20.3592C15.8293 20.2889 15.7339 20.2494 15.6345 20.2494C15.535 20.2494 15.4396 20.2889 15.3693 20.3592C15.299 20.4295 15.2595 20.5249 15.2595 20.6244V20.9994C15.2602 21.0601 15.276 21.1197 15.3054 21.1729C15.3348 21.226 15.3769 21.2711 15.4279 21.304H2.664C2.5531 21.3028 2.44722 21.2576 2.3696 21.1784C2.29199 21.0991 2.24898 20.9923 2.25 20.8814V18.8235C2.64223 18.7341 2.99246 18.5141 3.24332 18.1996C3.49418 17.8852 3.63081 17.4948 3.63081 17.0925C3.63081 16.6902 3.49418 16.2999 3.24332 15.9854C2.99246 15.6709 2.64223 15.4509 2.25 15.3615V13.3038C2.24897 13.1929 2.29198 13.0861 2.36959 13.0068C2.4472 12.9275 2.55308 12.8823 2.664 12.881H15.3546C15.2943 12.9478 15.2605 13.0344 15.2595 13.1244V13.4994C15.2595 13.5988 15.299 13.6942 15.3693 13.7645C15.4396 13.8349 15.535 13.8744 15.6345 13.8744C15.7339 13.8744 15.8293 13.8349 15.8996 13.7645C15.97 13.6942 16.0095 13.5988 16.0095 13.4994V13.1244C16.0084 13.0344 15.9746 12.9478 15.9143 12.881H20.1374C20.2483 12.8823 20.3542 12.9275 20.4319 13.0068C20.5095 13.086 20.5526 13.1929 20.5516 13.3038ZM21.6288 8.77011L18.6257 11.7732C18.6247 11.676 18.5857 11.5831 18.5171 11.5143L18.252 11.2492C18.2172 11.2144 18.1758 11.1867 18.1303 11.1679C18.0849 11.1491 18.0361 11.1394 17.9869 11.1394C17.9376 11.1394 17.8889 11.1491 17.8434 11.1679C17.7979 11.1867 17.7565 11.2144 17.7217 11.2492C17.6869 11.284 17.6593 11.3253 17.6404 11.3708C17.6216 11.4163 17.6119 11.4651 17.6119 11.5143C17.6119 11.5636 17.6216 11.6123 17.6404 11.6578C17.6593 11.7033 17.6869 11.7446 17.7217 11.7795L17.9868 12.0446C18.0277 12.0842 18.0773 12.1138 18.1316 12.131H6.3558L12.3164 6.17049C12.3092 6.22581 12.3146 6.28205 12.3323 6.33497C12.3499 6.3879 12.3794 6.43611 12.4184 6.47598L12.6835 6.74111C12.7183 6.77621 12.7596 6.80411 12.8052 6.82319C12.8508 6.84227 12.8997 6.85215 12.9491 6.85228C12.9985 6.8524 13.0474 6.84277 13.0931 6.82392C13.1387 6.80508 13.1802 6.7774 13.2152 6.74247C13.2501 6.70754 13.2778 6.66605 13.2966 6.62039C13.3155 6.57472 13.3251 6.52579 13.325 6.47639C13.3249 6.42699 13.315 6.3781 13.2959 6.33253C13.2768 6.28696 13.2489 6.24561 13.2138 6.21086L12.9487 5.94573C12.9088 5.90671 12.8606 5.87725 12.8077 5.85958C12.7548 5.84191 12.6985 5.83649 12.6432 5.84373L15.6727 2.81428C15.7522 2.73686 15.859 2.69403 15.9699 2.69516C16.0808 2.6963 16.1867 2.74129 16.2645 2.82032L17.7195 4.27527C17.5053 4.61586 17.4132 5.01908 17.4582 5.41888C17.5032 5.81868 17.6826 6.19135 17.9671 6.47584C18.2515 6.76034 18.6242 6.93979 19.024 6.98479C19.4238 7.0298 19.827 6.9377 20.1676 6.72358L21.6227 8.17848C21.7019 8.25622 21.7469 8.36215 21.748 8.47305C21.7492 8.58395 21.7063 8.69078 21.6288 8.77011Z" fill="black"/>
<path d="M22.153 7.64823L20.4873 5.98253C20.4113 5.90606 20.3084 5.86246 20.2006 5.86109C20.0928 5.85973 19.9888 5.9007 19.9109 5.9752C19.717 6.15347 19.4617 6.24995 19.1984 6.24449C18.935 6.23903 18.684 6.13205 18.4977 5.9459C18.3113 5.75974 18.2041 5.5088 18.1984 5.24547C18.1926 4.98214 18.2888 4.72678 18.4669 4.5327C18.541 4.45454 18.5818 4.35061 18.5806 4.24292C18.5794 4.13522 18.5363 4.03222 18.4605 3.95573L16.7948 2.29001C16.5763 2.07041 16.2796 1.94645 15.9699 1.94532C15.6601 1.94419 15.3625 2.06598 15.1425 2.28397L5.29523 12.131H2.664C2.35424 12.1325 2.05772 12.2569 1.8395 12.4767C1.62129 12.6966 1.49919 12.994 1.5 13.3038V15.6595C1.49952 15.7673 1.54145 15.871 1.61674 15.9482C1.69204 16.0253 1.79466 16.0698 1.90247 16.072C2.16566 16.0831 2.41439 16.1955 2.5967 16.3856C2.77901 16.5758 2.88081 16.829 2.88083 17.0924C2.88086 17.3559 2.7791 17.6091 2.59683 17.7993C2.41455 17.9895 2.16585 18.1019 1.90265 18.1131C1.79479 18.1152 1.6921 18.1597 1.61677 18.2369C1.54143 18.3141 1.49949 18.4179 1.5 18.5258V20.8814C1.49923 21.1912 1.62134 21.4886 1.83955 21.7084C2.05777 21.9283 2.35426 22.0526 2.664 22.0541H20.1374C20.4472 22.0526 20.7437 21.9283 20.962 21.7085C21.1802 21.4886 21.3023 21.1912 21.3016 20.8814V18.5258C21.3021 18.4179 21.2602 18.3141 21.1848 18.2369C21.1095 18.1597 21.0068 18.1152 20.8989 18.1131C20.6357 18.102 20.387 17.9896 20.2047 17.7994C20.0224 17.6093 19.9206 17.356 19.9206 17.0926C19.9205 16.8292 20.0223 16.5759 20.2046 16.3857C20.3868 16.1956 20.6356 16.0832 20.8987 16.072C21.0066 16.0699 21.1093 16.0254 21.1847 15.9483C21.2601 15.8711 21.302 15.7673 21.3016 15.6595V13.3038C21.3024 12.994 21.1803 12.6965 20.962 12.4767C20.7437 12.2568 20.4472 12.1325 20.1374 12.131H19.3284L22.1591 9.30038C22.377 9.08034 22.4988 8.7828 22.4977 8.47306C22.4966 8.16332 22.3726 7.86668 22.153 7.64823ZM20.5516 13.3038V15.3614C20.1593 15.4507 19.809 15.6707 19.5581 15.9852C19.3072 16.2997 19.1706 16.6901 19.1706 17.0924C19.1706 17.4948 19.3072 17.8852 19.5581 18.1997C19.809 18.5142 20.1593 18.7341 20.5516 18.8235V20.8814C20.5526 20.9924 20.5095 21.0992 20.4319 21.1784C20.3542 21.2576 20.2483 21.3028 20.1374 21.3041H15.841C15.892 21.2711 15.9341 21.226 15.9635 21.1729C15.9929 21.1197 16.0087 21.0601 16.0095 20.9994V20.6244C16.0095 20.5249 15.97 20.4295 15.8996 20.3592C15.8293 20.2889 15.7339 20.2494 15.6345 20.2494C15.535 20.2494 15.4396 20.2889 15.3693 20.3592C15.299 20.4295 15.2595 20.5249 15.2595 20.6244V20.9994C15.2602 21.0601 15.276 21.1197 15.3054 21.1729C15.3348 21.226 15.3769 21.2711 15.4279 21.304H2.664C2.5531 21.3028 2.44722 21.2576 2.3696 21.1784C2.29199 21.0991 2.24898 20.9923 2.25 20.8814V18.8235C2.64223 18.7341 2.99246 18.5141 3.24332 18.1996C3.49418 17.8852 3.63081 17.4948 3.63081 17.0925C3.63081 16.6902 3.49418 16.2999 3.24332 15.9854C2.99246 15.6709 2.64223 15.4509 2.25 15.3615V13.3038C2.24897 13.1929 2.29198 13.0861 2.36959 13.0068C2.4472 12.9275 2.55308 12.8823 2.664 12.881H15.3546C15.2943 12.9478 15.2605 13.0344 15.2595 13.1244V13.4994C15.2595 13.5988 15.299 13.6942 15.3693 13.7645C15.4396 13.8349 15.535 13.8744 15.6345 13.8744C15.7339 13.8744 15.8293 13.8349 15.8996 13.7645C15.97 13.6942 16.0095 13.5988 16.0095 13.4994V13.1244C16.0084 13.0344 15.9746 12.9478 15.9143 12.881H20.1374C20.2483 12.8823 20.3542 12.9275 20.4319 13.0068C20.5095 13.086 20.5526 13.1929 20.5516 13.3038ZM21.6288 8.77011L18.6257 11.7732C18.6247 11.676 18.5857 11.5831 18.5171 11.5143L18.252 11.2492C18.2172 11.2144 18.1758 11.1867 18.1303 11.1679C18.0849 11.1491 18.0361 11.1394 17.9869 11.1394C17.9376 11.1394 17.8889 11.1491 17.8434 11.1679C17.7979 11.1867 17.7565 11.2144 17.7217 11.2492C17.6869 11.284 17.6593 11.3253 17.6404 11.3708C17.6216 11.4163 17.6119 11.4651 17.6119 11.5143C17.6119 11.5636 17.6216 11.6123 17.6404 11.6578C17.6593 11.7033 17.6869 11.7446 17.7217 11.7795L17.9868 12.0446C18.0277 12.0842 18.0773 12.1138 18.1316 12.131H6.3558L12.3164 6.17049C12.3092 6.22581 12.3146 6.28205 12.3323 6.33497C12.3499 6.3879 12.3794 6.43611 12.4184 6.47598L12.6835 6.74111C12.7183 6.77621 12.7596 6.80411 12.8052 6.82319C12.8508 6.84227 12.8997 6.85215 12.9491 6.85228C12.9985 6.8524 13.0474 6.84277 13.0931 6.82392C13.1387 6.80508 13.1802 6.7774 13.2152 6.74247C13.2501 6.70754 13.2778 6.66605 13.2966 6.62039C13.3155 6.57472 13.3251 6.52579 13.325 6.47639C13.3249 6.42699 13.315 6.3781 13.2959 6.33253C13.2768 6.28696 13.2489 6.24561 13.2138 6.21086L12.9487 5.94573C12.9088 5.90671 12.8606 5.87725 12.8077 5.85958C12.7548 5.84191 12.6985 5.83649 12.6432 5.84373L15.6727 2.81428C15.7522 2.73686 15.859 2.69403 15.9699 2.69516C16.0808 2.6963 16.1867 2.74129 16.2645 2.82032L17.7195 4.27527C17.5053 4.61586 17.4132 5.01908 17.4582 5.41888C17.5032 5.81868 17.6826 6.19135 17.9671 6.47584C18.2515 6.76034 18.6242 6.93979 19.024 6.98479C19.4238 7.0298 19.827 6.9377 20.1676 6.72358L21.6227 8.17848C21.7019 8.25622 21.7469 8.36215 21.748 8.47305C21.7492 8.58395 21.7063 8.69078 21.6288 8.77011Z" stroke="black" stroke-width="0.3" mask="url(#path-6-outside-1_5101_7665)"/>
<path d="M17.2439 10.1349L17.2439 10.1349C17.2021 10.0931 17.1525 10.06 17.0979 10.0374C17.0433 10.0148 16.9848 10.0031 16.9257 10.0031C16.8666 10.0031 16.8081 10.0148 16.7535 10.0374C16.699 10.06 16.6494 10.0931 16.6076 10.1349C16.5658 10.1767 16.5326 10.2263 16.51 10.2809C16.4874 10.3355 16.4758 10.394 16.4758 10.4531C16.4758 10.5122 16.4874 10.5707 16.51 10.6253C16.5326 10.6799 16.5658 10.7295 16.6076 10.7713C16.6076 10.7713 16.6076 10.7713 16.6076 10.7713L16.8727 11.0364C16.9145 11.0782 16.9641 11.1113 17.0187 11.1339C17.0733 11.1565 17.1318 11.1682 17.1909 11.1682C17.25 11.1682 17.3085 11.1565 17.3631 11.1339C17.4177 11.1113 17.4673 11.0782 17.509 11.0364C17.5508 10.9946 17.584 10.945 17.6066 10.8904C17.6292 10.8358 17.6408 10.7773 17.6408 10.7182C17.6408 10.6591 17.6292 10.6006 17.6066 10.546C17.584 10.4914 17.5508 10.4418 17.509 10.4001C17.509 10.4001 17.509 10.4001 17.509 10.4001L17.2439 10.1349Z" fill="black" stroke="black" stroke-width="0.15"/>
<path d="M16.1853 9.07437C16.1435 9.03259 16.0939 8.99944 16.0393 8.97683C15.9847 8.95422 15.9262 8.94258 15.8671 8.94258C15.8081 8.94258 15.7495 8.95422 15.695 8.97683C15.6404 8.99944 15.5908 9.03259 15.549 9.07437C15.5072 9.11615 15.4741 9.16575 15.4514 9.22034C15.4288 9.27494 15.4172 9.33345 15.4172 9.39254C15.4172 9.45163 15.4288 9.51014 15.4514 9.56473C15.4741 9.61932 15.5072 9.66892 15.549 9.71071L15.8141 9.97583C15.8559 10.0176 15.9055 10.0508 15.9601 10.0734C16.0147 10.096 16.0732 10.1076 16.1323 10.1076C16.1914 10.1076 16.2499 10.096 16.3045 10.0734C16.3591 10.0508 16.4087 10.0176 16.4504 9.97583C16.4922 9.93405 16.5254 9.88445 16.548 9.82985C16.5706 9.77526 16.5822 9.71675 16.5822 9.65766C16.5822 9.59857 16.5706 9.54006 16.548 9.48547C16.5254 9.43088 16.4922 9.38127 16.4504 9.33949L16.1853 9.07437Z" fill="black" stroke="black" stroke-width="0.15"/>
<path d="M15.1243 8.01509C15.1242 8.01505 15.1242 8.01502 15.1242 8.01498C15.0824 7.97298 15.0329 7.93962 14.9782 7.91681C14.9236 7.89397 14.865 7.88216 14.8057 7.88203C14.7465 7.88191 14.6878 7.89348 14.633 7.91608C14.5783 7.93869 14.5285 7.97188 14.4866 8.01375C14.4447 8.05563 14.4115 8.10536 14.3889 8.1601C14.3662 8.21485 14.3546 8.27352 14.3547 8.33276C14.3548 8.392 14.3666 8.45064 14.3893 8.50532C14.4121 8.55995 14.4455 8.60955 14.4874 8.65128C14.4875 8.65132 14.4875 8.65135 14.4875 8.65139L14.7523 8.91638C14.794 8.9585 14.8436 8.99199 14.8982 9.01491C14.9529 9.03787 15.0116 9.04978 15.0709 9.04997C15.1302 9.05016 15.189 9.03862 15.2439 9.01601C15.2987 8.99341 15.3485 8.96018 15.3905 8.91825C15.4325 8.87631 15.4657 8.8265 15.4884 8.77167C15.511 8.71684 15.5226 8.65807 15.5224 8.59875C15.5223 8.53943 15.5104 8.48072 15.4875 8.426C15.4646 8.37136 15.4311 8.32177 15.3891 8.28008L15.1243 8.01509Z" fill="black" stroke="black" stroke-width="0.15"/>
<path d="M14.0642 6.95327C14.0224 6.91149 13.9728 6.87835 13.9182 6.85574C13.8637 6.83312 13.8051 6.82148 13.7461 6.82148C13.687 6.82148 13.6285 6.83312 13.5739 6.85574C13.5193 6.87835 13.4697 6.91149 13.4279 6.95327C13.3861 6.99506 13.353 7.04466 13.3303 7.09925C13.3077 7.15384 13.2961 7.21235 13.2961 7.27144C13.2961 7.33053 13.3077 7.38904 13.3303 7.44364C13.353 7.49823 13.3861 7.54783 13.4279 7.58961L13.693 7.85474C13.7774 7.93912 13.8918 7.98653 14.0112 7.98653C14.1305 7.98653 14.245 7.93912 14.3293 7.85474C14.4137 7.77035 14.4611 7.6559 14.4611 7.53657C14.4611 7.41723 14.4137 7.30278 14.3293 7.2184L14.0642 6.95327Z" fill="black" stroke="black" stroke-width="0.15"/>
</svg>
