<svg width="51" height="50" viewBox="0 0 51 50" fill="none" xmlns="http://www.w3.org/2000/svg">
<path d="M26.3156 10.8594C26.3156 15.827 22.2645 19.8781 17.2969 19.8781C12.3292 19.8781 8.27813 15.827 8.27813 10.8594C8.27813 5.89171 12.3292 1.84063 17.2969 1.84063C22.2645 1.84063 26.3156 5.89171 26.3156 10.8594ZM23.5906 10.8594C23.5906 7.38954 20.7667 4.56562 17.2969 4.56562C13.827 4.56562 11.0031 7.38954 11.0031 10.8594C11.0031 14.3292 13.827 17.1531 17.2969 17.1531C20.7667 17.1531 23.5906 14.3292 23.5906 10.8594Z" fill="black" stroke="#F2F2F2" stroke-width="0.4"/>
<path d="M29.0942 28.7972L29.2066 28.9371L29.3578 28.8403C31.2794 27.6105 33.5859 26.9188 35.8906 26.9188H36.9062C43.827 26.9188 49.3625 32.4542 49.3625 39.375V46.7969C49.3625 47.5458 48.7489 48.1594 48 48.1594H3C2.25108 48.1594 1.6375 47.5458 1.6375 46.7969V38.3594C1.6375 29.8761 8.57921 22.9344 17.0625 22.9344C21.9189 22.9344 26.2383 25.2467 29.0942 28.7972ZM29.5625 45.4344H29.7625V45.2344V38.3594C29.7625 31.3739 24.048 25.6594 17.0625 25.6594C10.077 25.6594 4.3625 31.3739 4.3625 38.3594V45.2344V45.4344H4.5625H29.5625ZM32.4875 45.1562V45.3563H32.6875H46.4375H46.5156H46.7156V45.1562V39.2969C46.7156 33.952 42.3292 29.5656 36.9844 29.5656H35.9687C34.1368 29.5656 32.3805 30.0437 30.8619 31.0028L30.7066 31.1009L30.7912 31.2639C31.8704 33.3453 32.4875 35.7357 32.4875 38.2812V45.1562Z" fill="black" stroke="#F2F2F2" stroke-width="0.4"/>
<path d="M44.3625 17.1875C44.3625 21.4508 40.8596 24.8781 36.6719 24.8781C32.4047 24.8781 28.9813 21.5276 28.9813 17.2656C28.9813 13.0024 32.4842 9.575 36.6719 9.575C40.8622 9.575 44.3625 12.9268 44.3625 17.1875ZM41.6375 17.2656C41.6375 14.4968 39.3583 12.3 36.6719 12.3C33.9052 12.3 31.7062 14.4989 31.7062 17.2656C31.7062 20.0345 33.9854 22.2313 36.6719 22.2313C39.4386 22.2313 41.6375 20.0323 41.6375 17.2656Z" fill="black" stroke="#F2F2F2" stroke-width="0.4"/>
</svg>
