<svg width="51" height="50" viewBox="0 0 51 50" fill="none" xmlns="http://www.w3.org/2000/svg">
<path d="M39.1133 48.8281H11.8872C9.17896 48.825 6.58251 47.7479 4.66745 45.8329C2.75238 43.9179 1.67508 41.3215 1.67188 38.6133V11.3872C1.67495 8.67888 2.75219 6.08235 4.66727 4.16727C6.58235 2.25219 9.17888 1.17495 11.8872 1.17188H39.1133C41.8215 1.17508 44.4179 2.25238 46.3329 4.16745C48.2479 6.08251 49.325 8.67896 49.3281 11.3872V38.6133C49.3249 41.3214 48.2477 43.9178 46.3327 45.8327C44.4178 47.7477 41.8214 48.8249 39.1133 48.8281ZM11.8872 2.73438C9.59313 2.73696 7.39375 3.64942 5.77159 5.27159C4.14942 6.89375 3.23696 9.09313 3.23438 11.3872V38.6133C3.23709 40.9073 4.14961 43.1065 5.77176 44.7286C7.3939 46.3506 9.59321 47.263 11.8872 47.2656H39.1133C41.4072 47.2629 43.6064 46.3505 45.2284 44.7284C46.8505 43.1064 47.7629 40.9072 47.7656 38.6133V11.3872C47.763 9.09321 46.8506 6.8939 45.2286 5.27176C43.6065 3.64961 41.4073 2.73709 39.1133 2.73438H11.8872Z" fill="black" stroke="black" stroke-width="0.2"/>
<path d="M17.716 39.9373C16.6411 39.9373 15.7559 39.5598 15.0849 38.815C14.4351 38.0942 14.1055 37.0654 14.1055 35.757V14.2997C14.1055 12.8396 14.4766 11.7531 15.2081 11.0701C15.9246 10.4015 17.0176 10.0625 18.4566 10.0625H25.6913C27.9243 10.0625 29.6094 10.2338 30.8431 10.5862C32.0474 10.9104 33.1613 11.5064 34.0991 12.3285C35.0209 13.1478 35.7385 14.1711 36.1948 15.3168C36.661 16.4691 36.8975 17.7756 36.8975 19.1988C36.8975 22.2633 35.9217 24.6339 33.9971 26.2446C32.1138 27.8208 29.3193 28.62 25.6911 28.62H21.3076V35.7191C21.3076 37.042 20.9705 38.0817 20.3057 38.8095C19.9812 39.1735 19.5817 39.4628 19.1346 39.6575C18.6875 39.8522 18.2035 39.9477 17.716 39.9373ZM18.4566 11.625C17.4262 11.625 16.6919 11.8226 16.2742 12.2124C15.872 12.5879 15.668 13.2901 15.668 14.2997V35.757C15.668 36.667 15.8622 37.3438 16.2455 37.7687C16.6181 38.1822 17.0854 38.3742 17.716 38.3742C17.9863 38.3841 18.2555 38.3337 18.5039 38.2266C18.7523 38.1195 18.9737 37.9584 19.1521 37.7551C19.5456 37.3243 19.7451 36.6391 19.7451 35.7186V27.8388C19.7451 27.6316 19.8274 27.4329 19.9739 27.2863C20.1205 27.1398 20.3192 27.0575 20.5264 27.0575H25.6913C28.9433 27.0575 31.3999 26.3809 32.9943 25.0465C34.5693 23.7281 35.335 21.8154 35.335 19.1988C35.335 17.9773 35.1369 16.8685 34.7464 15.9029C34.3802 14.9813 33.8039 14.1578 33.0632 13.4983C32.3012 12.8329 31.3967 12.3511 30.4193 12.0901C29.3369 11.781 27.748 11.625 25.6913 11.625H18.4566ZM24.3241 24.3665H20.5264C20.3192 24.3665 20.1205 24.2842 19.9739 24.1377C19.8274 23.9912 19.7451 23.7925 19.7451 23.5853V15.078C19.7451 14.8708 19.8274 14.6721 19.9739 14.5256C20.1205 14.3791 20.3192 14.2968 20.5264 14.2968H24.3241C27.087 14.2968 28.9027 14.7768 29.8749 15.7642C29.8797 15.769 29.8847 15.7739 29.8891 15.7789C30.7469 16.6969 31.1818 17.8858 31.1818 19.3126C31.1818 20.504 30.8939 21.4969 30.3262 22.2646C29.7584 23.0324 28.9395 23.5857 27.8893 23.9131C26.9258 24.214 25.7261 24.3665 24.3241 24.3665ZM21.3076 22.804H24.3241C25.5683 22.804 26.6111 22.6754 27.424 22.4217C28.161 22.1919 28.6993 21.8367 29.0699 21.3357C29.4345 20.8428 29.6193 20.1621 29.6193 19.3128C29.6193 18.2851 29.3361 17.4806 28.7547 16.8537C28.3005 16.3984 27.1629 15.8595 24.3241 15.8595H21.3076V22.804Z" fill="black" stroke="black" stroke-width="0.2"/>
</svg>
