<svg width="51" height="50" viewBox="0 0 51 50" fill="none" xmlns="http://www.w3.org/2000/svg">
<path d="M49.6636 16.7222L47.4014 11.8768C46.3107 9.53825 43.938 8.02727 41.3563 8.02727H37.8279C35.894 8.02727 34.3207 9.60026 34.3207 11.5322C34.3206 11.5771 34.3206 11.6182 34.3206 11.6577H21.2449C21.2449 11.6186 21.2448 11.5779 21.2447 11.5336C21.2447 9.60026 19.6714 8.02737 17.7375 8.02737H16.7912C16.2811 4.45632 13.7513 1.44005 10.2291 0.357902C8.12678 -0.288958 6.00105 1.28036 6.00105 3.48035V8.21984C3.087 8.93401 0.917969 11.5661 0.917969 14.6965V23.8613C0.917969 26.9923 3.087 29.625 6.00105 30.3391V35.4234C6.00105 37.6152 8.12128 39.195 10.2286 38.5458C13.8562 37.4315 16.4381 34.2613 16.8336 30.5315H22.7026V40.8764H13.2597C10.859 40.8764 8.90575 42.8296 8.90575 45.2303C8.90575 47.6311 10.859 49.5843 13.2597 49.5843H37.949C40.3499 49.5843 42.303 47.6311 42.303 45.2303C42.303 42.8295 40.3498 40.8764 37.949 40.8764H28.506V30.5314H35.5815C35.9809 30.5314 36.3047 30.2077 36.3047 29.8082C36.3047 29.4087 35.9809 29.085 35.5815 29.085H7.58812C4.70781 29.085 2.36444 26.7416 2.36444 23.8613V14.6965C2.36444 11.8166 4.7082 9.47374 7.58908 9.47374H17.7375C18.8738 9.47374 19.7982 10.3977 19.7982 11.535C19.7991 11.9411 19.7955 12.1109 19.8017 12.3086C19.7943 12.383 19.7981 12.4568 19.8141 12.5315C20.0563 16.5266 23.3521 19.6395 27.3711 19.6395H28.1946C32.2147 19.6395 35.5107 16.5262 35.7517 12.5321C35.7683 12.4542 35.7714 12.3793 35.764 12.3066C35.7699 12.1095 35.7665 11.9488 35.7673 11.5336C35.7673 10.3978 36.6917 9.47383 37.828 9.47383H40.1308V18.4139C40.1308 18.8134 40.4546 19.1371 40.854 19.1371C41.2535 19.1371 41.5772 18.8134 41.5772 18.4139V9.47885C43.5126 9.56149 45.2677 10.7239 46.0907 12.4884L48.3528 17.3336C49.0338 18.7945 49.0108 20.4586 48.2901 21.8994L46.1405 26.1975C45.2667 27.9462 43.525 29.0438 41.5773 29.083V18.2847C41.5773 17.8851 41.2536 17.5614 40.8541 17.5614C40.4547 17.5614 40.1309 17.8851 40.1309 18.2847V29.085H36.0054C35.6059 29.085 35.2822 29.4087 35.2822 29.8082C35.2822 30.2077 35.6059 30.5314 36.0054 30.5314H41.4691C44.0119 30.5314 46.2976 29.1186 47.4342 26.8444L49.5835 22.5465C50.5031 20.7087 50.5323 18.586 49.6636 16.7222ZM40.8566 45.2302C40.8566 46.8335 39.5524 48.1377 37.9491 48.1377H13.2598C11.6565 48.1377 10.3523 46.8335 10.3523 45.2302C10.3523 43.627 11.6565 42.3227 13.2598 42.3227H37.9491C39.5524 42.3227 40.8566 43.627 40.8566 45.2302ZM27.0596 40.8763H24.1491V30.5314H27.0596V40.8763ZM15.3769 30.5314C14.9886 33.6224 12.825 36.2351 9.80343 37.1633C8.63266 37.5237 7.44752 36.6492 7.44752 35.4234V30.5279C7.8155 30.5356 6.34811 30.5284 15.3769 30.5314ZM7.44752 8.03084V3.48025C7.44752 2.25721 8.6289 1.37949 9.80391 1.74034C12.6817 2.62452 14.821 5.09721 15.3254 8.02727C13.1022 8.02794 7.75157 8.02447 7.44752 8.03084ZM28.1945 18.193H27.371C24.3453 18.193 21.8266 16.0121 21.3333 13.1041H34.2324C33.7405 16.0116 31.2214 18.193 28.1945 18.193Z" fill="black" stroke="black" stroke-width="0.2"/>
<path d="M6 12.5533V26.0036C6 26.4032 6.32372 26.7269 6.72323 26.7269C7.12275 26.7269 7.44647 26.4032 7.44647 26.0036V12.5533C7.44647 12.1538 7.12275 11.8301 6.72323 11.8301C6.32372 11.8301 6 12.1538 6 12.5533Z" fill="black" stroke="black" stroke-width="0.2"/>
<path d="M10.3594 12.5533V26.0057C10.3594 26.4052 10.6831 26.7289 11.0826 26.7289C11.4821 26.7289 11.8058 26.4052 11.8058 26.0057V12.5533C11.8058 12.1538 11.4821 11.8301 11.0826 11.8301C10.6831 11.8301 10.3594 12.1539 10.3594 12.5533Z" fill="black" stroke="black" stroke-width="0.2"/>
<path d="M14.7148 12.5533V26.0057C14.7148 26.4052 15.0386 26.7289 15.4381 26.7289C15.8376 26.7289 16.1613 26.4052 16.1613 26.0057V12.5533C16.1613 12.1538 15.8376 11.8301 15.4381 11.8301C15.0387 11.8301 14.7148 12.1539 14.7148 12.5533Z" fill="black" stroke="black" stroke-width="0.2"/>
</svg>
