<svg width="51" height="50" viewBox="0 0 51 50" fill="none" xmlns="http://www.w3.org/2000/svg">
<path d="M49.1735 41.9222L29.0477 20.0339C28.4163 19.3339 27.5891 18.8399 26.6735 18.6157V11.9751C27.6025 11.3304 28.3496 10.4569 28.8424 9.43907C29.3352 8.42126 29.5571 7.29354 29.4867 6.16489C29.4163 5.03624 29.056 3.94483 28.4405 2.99615C27.8251 2.04746 26.9753 1.27357 25.9733 0.749275C24.9714 0.224979 23.8511 -0.0319974 22.7208 0.00318259C21.5905 0.0383626 20.4884 0.364509 19.521 0.950101C18.5536 1.53569 17.7536 2.36093 17.1983 3.34606C16.6431 4.33118 16.3513 5.44288 16.3512 6.57373C16.3512 6.88453 16.4747 7.1826 16.6945 7.40237C16.9142 7.62213 17.2123 7.7456 17.5231 7.7456C17.8339 7.7456 18.132 7.62213 18.3517 7.40237C18.5715 7.1826 18.695 6.88453 18.695 6.57373C18.6952 5.82639 18.8934 5.09244 19.2694 4.44657C19.6454 3.8007 20.1857 3.26597 20.8355 2.89677C21.4853 2.52758 22.2213 2.33711 22.9686 2.34475C23.7159 2.35238 24.4478 2.55785 25.0899 2.94025C25.732 3.32264 26.2614 3.86831 26.6241 4.52172C26.9868 5.17514 27.1699 5.91298 27.1549 6.66017C27.1398 7.40736 26.9271 8.13722 26.5383 8.77549C26.1496 9.41375 25.5987 9.93764 24.9417 10.2938C24.7556 10.395 24.6004 10.5446 24.4926 10.7269C24.3848 10.9092 24.3284 11.1172 24.3294 11.329V18.6152C23.4137 18.8394 22.5866 19.3334 21.9551 20.0334L1.82975 41.9222C1.19652 42.6109 0.777532 43.469 0.62395 44.3919C0.470367 45.3148 0.588836 46.2624 0.964889 47.119C1.34094 47.9757 1.95831 48.7043 2.74159 49.2159C3.52488 49.7275 4.44018 50 5.37574 50H45.6275C46.5631 50 47.4784 49.7275 48.2617 49.2159C49.0449 48.7043 49.6623 47.9757 50.0384 47.119C50.4144 46.2624 50.5329 45.3148 50.3793 44.3919C50.2257 43.469 49.8067 42.6109 49.1735 41.9222ZM47.8922 46.177C47.7058 46.6217 47.3904 47.0003 46.9867 47.264C46.583 47.5277 46.1096 47.6643 45.6275 47.6562H5.37574C4.89535 47.6562 4.42536 47.5164 4.02315 47.2537C3.62095 46.991 3.30394 46.6168 3.11085 46.177C2.91775 45.7371 2.85692 45.2505 2.93578 44.7766C3.01464 44.3028 3.22979 43.8621 3.55494 43.5085L23.6807 21.6203C23.9124 21.3683 24.1939 21.1672 24.5073 21.0296C24.8207 20.892 25.1593 20.821 25.5016 20.821C25.8439 20.821 26.1824 20.892 26.4959 21.0296C26.8093 21.1672 27.0907 21.3683 27.3224 21.6203L47.4483 43.5085C47.7806 43.858 48.0005 44.299 48.0796 44.7747C48.1588 45.2503 48.0936 45.7388 47.8923 46.177H47.8922Z" fill="black"/>
</svg>
