<svg width="51" height="52" viewBox="0 0 51 52" fill="none" xmlns="http://www.w3.org/2000/svg">
<path d="M46.8401 5.54548H9.59088V5.87158L9.12479 4.27368C8.56325 2.34606 6.7689 1 4.76137 1H1.6364C1.00827 1 0.5 1.50827 0.5 2.1364C0.5 2.76452 1.00827 3.27279 1.6364 3.27279H4.76137C5.76566 3.27279 6.66236 3.94534 6.94308 4.90969L14.0165 29.1605L10.3921 33.6905C9.87425 34.34 9.5918 35.1458 9.59088 35.9765C9.59088 37.9951 11.2321 39.6363 13.2508 39.6363H44.8182C44.9675 39.6364 45.1153 39.6071 45.2532 39.55C45.3911 39.493 45.5164 39.4093 45.622 39.3037C45.7275 39.1982 45.8112 39.0729 45.8683 38.9349C45.9254 38.797 45.9547 38.6492 45.9546 38.4999C45.9547 38.3507 45.9254 38.2029 45.8683 38.065C45.8112 37.927 45.7275 37.8017 45.622 37.6962C45.5164 37.5906 45.3911 37.5069 45.2532 37.4499C45.1153 37.3928 44.9675 37.3635 44.8182 37.3635H13.2508C12.4862 37.3635 11.8636 36.741 11.8636 35.9764C11.8636 35.6623 11.9712 35.3538 12.1676 35.1097L15.8195 30.5454H38.1087C39.861 30.5454 41.4756 29.5211 42.2225 27.9353L50.1527 11.0841C50.3806 10.5966 50.4992 10.0652 50.5 9.52708V9.20524C50.5 7.18674 48.8587 5.54548 46.8401 5.54548ZM48.2273 9.52719C48.2273 9.73024 48.1818 9.93447 48.0952 10.1176L40.1662 26.9676C39.7923 27.76 38.9855 28.2727 38.1087 28.2727H16.125L10.1587 7.81817H46.8401C47.6047 7.81817 48.2273 8.44076 48.2273 9.20535V9.52719ZM14.1364 41.909C11.6295 41.909 9.59088 43.9476 9.59088 46.4545C9.59088 48.9615 11.6294 51 14.1364 51C16.6433 51 18.6819 48.9615 18.6819 46.4545C18.6819 43.9476 16.6432 41.909 14.1364 41.909ZM14.1364 48.7272C12.8835 48.7272 11.8637 47.7074 11.8637 46.4545C11.8637 45.2017 12.8835 44.1818 14.1364 44.1818C15.3892 44.1818 16.4091 45.2017 16.4091 46.4545C16.4091 47.7074 15.3892 48.7272 14.1364 48.7272ZM41.4091 41.909C38.9023 41.909 36.8636 43.9476 36.8636 46.4545C36.8636 48.9615 38.9022 51 41.4091 51C43.9161 51 45.9546 48.9615 45.9546 46.4545C45.9546 43.9476 43.916 41.909 41.4091 41.909ZM41.4091 48.7272C40.1563 48.7272 39.1364 47.7074 39.1364 46.4545C39.1364 45.2017 40.1563 44.1818 41.4091 44.1818C42.662 44.1818 43.6818 45.2017 43.6818 46.4545C43.6818 47.7074 42.662 48.7272 41.4091 48.7272Z" fill="black" stroke="black" stroke-width="0.1"/>
</svg>
