<svg width="51" height="50" viewBox="0 0 51 50" fill="none" xmlns="http://www.w3.org/2000/svg">
<g clip-path="url(#clip0_5124_65991)">
<path d="M18.3663 20.4384C17.4206 21.1928 16.0789 21.1928 15.1336 20.4384C14.82 20.1134 14.355 19.983 13.9182 20.0974C13.4811 20.2119 13.1396 20.5533 13.0251 20.9901C12.9107 21.4272 13.0412 21.8918 13.3662 22.2059C15.2865 23.9458 18.2134 23.9458 20.1337 22.2059C20.4588 21.8918 20.5888 21.4272 20.4743 20.9901C20.3603 20.5533 20.0188 20.2119 19.5817 20.0974C19.1445 19.983 18.6799 20.1134 18.3663 20.4384Z" fill="black"/>
<path d="M35.8659 20.4384C34.9207 21.1928 33.579 21.1928 32.6332 20.4384C32.3196 20.1134 31.855 19.983 31.4179 20.0974C30.9807 20.2119 30.6397 20.5533 30.5252 20.9901C30.4108 21.4272 30.5408 21.8918 30.8658 22.2059C32.7861 23.9458 35.713 23.9458 37.6334 22.2059C37.9584 21.8918 38.0888 21.4272 37.9744 20.9901C37.8599 20.5533 37.5185 20.2119 37.0818 20.0974C36.6446 19.983 36.18 20.1134 35.8659 20.4384Z" fill="black"/>
<path d="M28.5585 34.3121C26.6363 35.2839 24.3672 35.2839 22.4451 34.3121C22.0738 34.0594 21.595 34.0255 21.1917 34.2237C20.7884 34.4215 20.522 34.8206 20.4945 35.2692C20.4671 35.7174 20.6822 36.1463 21.0585 36.3921C22.402 37.185 23.9424 37.5809 25.502 37.5347C27.0611 37.5809 28.6015 37.185 29.945 36.3921C30.5122 36.0062 30.6628 35.2358 30.2824 34.665C29.902 34.0942 29.1325 33.9367 28.5585 34.3121Z" fill="black"/>
<path d="M47.5132 20.4751C45.3589 10.0317 36.1634 2.53906 25.4998 2.53906C14.8367 2.53906 5.64113 10.0317 3.4869 20.4751C1.67279 21.268 0.5 23.0601 0.5 25.0399C0.5 27.0202 1.67279 28.8119 3.4869 29.6047C5.64205 40.0477 14.8371 47.5394 25.4998 47.5394C36.1629 47.5394 45.358 40.0477 47.5132 29.6047C49.3273 28.8119 50.5001 27.0202 50.5001 25.0399C50.5001 23.0601 49.3273 21.268 47.5132 20.4751ZM46.1129 27.4501C45.6345 27.5718 45.2719 27.9637 45.1882 28.4503C43.5389 38.0354 35.2263 45.0396 25.5007 45.0396C15.7746 45.0396 7.46211 38.0354 5.81325 28.4503C5.72902 27.9637 5.36648 27.5718 4.88811 27.4501C3.77941 27.1759 3.00076 26.1811 3.00076 25.039C3.00122 23.8969 3.78033 22.9022 4.88903 22.6284C5.36785 22.5067 5.72994 22.1148 5.81325 21.6282C7.20439 13.4695 13.495 7.02056 21.6171 5.42709C20.9121 6.40853 20.5225 7.58132 20.5006 8.78936C20.4607 10.7088 21.5456 12.4743 23.2755 13.3061C23.699 13.4833 24.1531 13.5748 24.6122 13.5757C25.7667 13.5318 26.8552 13.0264 27.6343 12.1731C28.1081 11.6829 28.1013 10.9033 27.6192 10.4208C27.1368 9.9388 26.3572 9.93193 25.8669 10.4057C25.2723 11.0013 24.7207 11.2004 24.2323 10.9967C23.4463 10.544 22.973 9.69573 23.0004 8.78936C23.1712 6.92123 24.5751 5.40008 26.424 5.08056C35.7949 5.49026 43.6103 12.3828 45.1882 21.6287C45.2715 22.1153 45.6336 22.5071 46.1119 22.6289C47.2211 22.9026 48.0002 23.8974 48.0002 25.0395C48.0007 26.1811 47.2216 27.1759 46.1129 27.4501Z" fill="black" stroke="#F2F2F2" stroke-width="0.1"/>
</g>
<defs>
<clipPath id="clip0_5124_65991">
<rect width="50" height="50" fill="white" transform="translate(0.5)"/>
</clipPath>
</defs>
</svg>
