<svg width="51" height="50" viewBox="0 0 51 50" fill="none" xmlns="http://www.w3.org/2000/svg">
<path d="M46.0924 7.15898L36.0377 17.2148H26.1784V2.50391C26.1784 2.41412 26.1608 2.32521 26.1264 2.24225C26.0921 2.15929 26.0417 2.08391 25.9783 2.02042C25.9148 1.95693 25.8394 1.90658 25.7564 1.87224C25.6735 1.83791 25.5846 1.82026 25.4948 1.82031H19.4401C15.2863 1.82295 11.2946 3.43208 8.30025 6.31092C5.30593 9.18976 3.54114 13.1152 3.37524 17.2656C2.81167 17.3821 2.3053 17.6889 1.94111 18.1344C1.57691 18.58 1.37703 19.1373 1.37502 19.7128C1.373 20.2882 1.56897 20.8469 1.93004 21.295C2.29111 21.7431 2.79531 22.0534 3.35805 22.1738V30.1035C3.35857 30.9562 3.69737 31.7738 4.30011 32.3769C4.90284 32.98 5.72024 33.3193 6.57289 33.3203H19.9342L15.9608 37.2949C14.9226 36.8389 13.7717 36.7039 12.6561 36.9073C11.5406 37.1107 10.5114 37.6432 9.70095 38.4363C8.89052 39.2294 8.33591 40.2469 8.10847 41.3578C7.88103 42.4687 7.99116 43.6222 8.4247 44.67C8.85823 45.7178 9.59534 46.612 10.5412 47.2374C11.4871 47.8629 12.5984 48.191 13.7323 48.1797C14.8662 48.1683 15.9708 47.818 16.9039 47.1737C17.8371 46.5294 18.5561 45.6207 18.9686 44.5645H32.0241C32.4363 45.6219 33.1555 46.5318 34.0892 47.177C35.0228 47.8223 36.1282 48.1733 37.2631 48.185C38.398 48.1967 39.5104 47.8685 40.4572 47.2427C41.404 46.6168 42.1418 45.722 42.5757 44.6732C43.0096 43.6245 43.1198 42.47 42.892 41.3581C42.6642 40.2463 42.1088 39.228 41.2975 38.4345C40.4861 37.6409 39.4558 37.1083 38.3392 36.9052C37.2226 36.7021 36.0707 36.8379 35.0319 37.2949L31.0565 33.3203H44.4159C45.2682 33.3193 46.0854 32.9802 46.6881 32.3774C47.2908 31.7747 47.6298 30.9575 47.6307 30.1051V22.1754C48.2375 22.0466 48.7751 21.6974 49.1394 21.1954C49.5038 20.6933 49.6692 20.074 49.6036 19.4572C49.5381 18.8403 49.2462 18.2696 48.7844 17.8554C48.3226 17.4412 47.7237 17.2128 47.1034 17.2145H41.8803L49.0143 10.0809C49.2062 9.88906 49.3583 9.66135 49.4622 9.41072C49.566 9.1601 49.6195 8.89148 49.6196 8.6202C49.6196 8.34891 49.5662 8.08028 49.4624 7.82963C49.3586 7.57898 49.2065 7.35123 49.0147 7.15937C48.8229 6.96752 48.5952 6.81533 48.3446 6.71148C48.0939 6.60763 47.8253 6.55416 47.554 6.55412C47.2827 6.55408 47.0141 6.60748 46.7635 6.71126C46.5128 6.81505 46.2851 6.96718 46.0932 7.15898H46.0924ZM24.8112 3.1875V16.5664L10.4471 6.25938C13.0213 4.26669 16.1848 3.18609 19.4401 3.1875H24.8112ZM9.37563 7.17188L23.3694 17.2148H4.74125C4.92013 13.3922 6.58271 9.78999 9.37563 7.17383V7.17188ZM2.74477 19.7227C2.74477 19.4201 2.86494 19.13 3.07885 18.9161C3.29276 18.7022 3.58288 18.582 3.88539 18.582H34.6709L32.3901 20.8633H3.88539C3.58297 20.863 3.29303 20.7427 3.07919 20.5289C2.86535 20.315 2.74508 20.0251 2.74477 19.7227ZM6.57289 31.9531C6.08299 31.9525 5.61333 31.7576 5.26695 31.4111C4.92057 31.0647 4.72575 30.595 4.72524 30.1051V22.2305H31.0229L21.3014 31.9531H6.57289ZM13.6791 46.8125C12.827 46.8129 11.9937 46.5609 11.2845 46.0885C10.5752 45.6161 10.0217 44.9443 9.69363 44.1578C9.36556 43.3713 9.27764 42.5053 9.44095 41.6689C9.60426 40.8325 10.0115 40.0632 10.6113 39.4579C11.2112 38.8525 11.9768 38.4383 12.8116 38.2674C13.6465 38.0965 14.5133 38.1765 15.3027 38.4974C16.0922 38.8183 16.769 39.3657 17.2479 40.0706C17.7267 40.7756 17.9862 41.6064 17.9936 42.4586C17.9979 43.0282 17.8896 43.5931 17.6748 44.1207C17.46 44.6484 17.143 45.1283 16.742 45.5329C16.341 45.9376 15.864 46.259 15.3383 46.4786C14.8127 46.6981 14.2488 46.8116 13.6791 46.8125ZM25.4952 33.6023L32.1092 40.2168C32.0776 40.2887 32.0498 40.3621 32.0209 40.4355H18.9702C18.9416 40.3621 18.9135 40.2887 18.8819 40.2168L25.4952 33.6023ZM31.6706 43.1973H19.3202C19.3714 42.7338 19.3714 42.2662 19.3202 41.8027H31.6706C31.6187 42.2661 31.6187 42.7339 31.6706 43.1973ZM41.6272 42.4961C41.6273 43.3499 41.3742 44.1845 40.8999 44.8944C40.4256 45.6043 39.7514 46.1576 38.9626 46.4843C38.1738 46.811 37.3059 46.8965 36.4685 46.7299C35.6311 46.5633 34.862 46.1521 34.2583 45.5484C33.6547 44.9446 33.2437 44.1754 33.0772 43.338C32.9108 42.5006 32.9964 41.6327 33.3232 40.8439C33.6501 40.0552 34.2035 39.3812 34.9135 38.907C35.6235 38.4328 36.4582 38.1798 37.312 38.1801C38.4562 38.1814 39.5532 38.6366 40.3624 39.4457C41.1715 40.2548 41.6266 41.3518 41.628 42.4961H41.6272ZM32.828 39.002L26.4608 32.6348L27.4518 31.648L33.819 38.0152C33.4615 38.3157 33.13 38.6458 32.828 39.002ZM46.2655 30.1055C46.265 30.5954 46.0701 31.0651 45.7238 31.4115C45.3774 31.758 44.9077 31.9529 44.4178 31.9535H29.6913L28.4186 30.6801L36.8659 22.2305H46.2643L46.2655 30.1055ZM47.1053 18.582C47.4078 18.582 47.698 18.7022 47.9119 18.9161C48.1258 19.13 48.2459 19.4201 48.2459 19.7227C48.2459 20.0252 48.1258 20.3153 47.9119 20.5292C47.698 20.7431 47.4078 20.8633 47.1053 20.8633H38.233L40.5127 18.582H47.1053ZM48.0483 9.11367L18.1655 39.002C17.8643 38.6454 17.5337 38.3149 17.1772 38.0137L22.1815 33.0078C51.3756 3.81289 19.5057 35.6848 47.0588 8.125C47.1919 7.99684 47.3696 7.92544 47.5544 7.92588C47.7392 7.92632 47.9166 7.99856 48.0491 8.12734C48.114 8.19209 48.1654 8.26903 48.2004 8.35374C48.2355 8.43845 48.2534 8.52925 48.2533 8.62091C48.2531 8.71258 48.2348 8.80331 48.1994 8.88788C48.164 8.97244 48.1123 9.04918 48.0471 9.11367H48.0483Z" fill="black" stroke="black" stroke-width="0.2"/>
<path d="M13.6789 39.7109C13.1282 39.7109 12.5899 39.8742 12.132 40.1802C11.6741 40.4861 11.3172 40.921 11.1065 41.4298C10.8957 41.9386 10.8406 42.4984 10.948 43.0385C11.0555 43.5786 11.3207 44.0748 11.7101 44.4642C12.0995 44.8536 12.5956 45.1187 13.1357 45.2262C13.6758 45.3336 14.2357 45.2785 14.7444 45.0677C15.2532 44.857 15.6881 44.5001 15.994 44.0422C16.3 43.5843 16.4633 43.046 16.4633 42.4953C16.4625 41.7571 16.1688 41.0494 15.6468 40.5274C15.1249 40.0054 14.4171 39.7118 13.6789 39.7109ZM13.6789 43.9125C13.3986 43.9125 13.1246 43.8294 12.8916 43.6737C12.6585 43.5179 12.4769 43.2966 12.3696 43.0376C12.2623 42.7787 12.2343 42.4937 12.289 42.2188C12.3436 41.9439 12.4786 41.6914 12.6768 41.4932C12.875 41.295 13.1275 41.16 13.4024 41.1054C13.6773 41.0507 13.9623 41.0787 14.2212 41.186C14.4802 41.2933 14.7015 41.4749 14.8573 41.708C15.013 41.941 15.0961 42.215 15.0961 42.4953C15.0956 42.871 14.9461 43.2312 14.6804 43.4968C14.4148 43.7625 14.0546 43.912 13.6789 43.9125Z" fill="black" stroke="black" stroke-width="0.2"/>
<path d="M34.5273 42.4953C34.5273 43.046 34.6906 43.5843 34.9966 44.0422C35.3025 44.5001 35.7374 44.857 36.2462 45.0677C36.755 45.2785 37.3148 45.3336 37.8549 45.2262C38.395 45.1187 38.8912 44.8536 39.2806 44.4642C39.67 44.0748 39.9352 43.5786 40.0426 43.0385C40.15 42.4984 40.0949 41.9386 39.8841 41.4298C39.6734 40.921 39.3165 40.4861 38.8586 40.1802C38.4007 39.8742 37.8624 39.7109 37.3117 39.7109C36.5735 39.7118 35.8658 40.0054 35.3438 40.5274C34.8218 41.0494 34.5282 41.7571 34.5273 42.4953ZM37.3117 41.0781C37.592 41.0781 37.866 41.1612 38.0991 41.317C38.3321 41.4727 38.5138 41.694 38.621 41.953C38.7283 42.2119 38.7564 42.4969 38.7017 42.7718C38.647 43.0467 38.512 43.2992 38.3138 43.4974C38.1156 43.6956 37.8631 43.8306 37.5882 43.8853C37.3133 43.94 37.0283 43.9119 36.7694 43.8046C36.5104 43.6974 36.2891 43.5157 36.1334 43.2827C35.9776 43.0496 35.8945 42.7756 35.8945 42.4953C35.895 42.1196 36.0445 41.7594 36.3102 41.4938C36.5758 41.2281 36.936 41.0786 37.3117 41.0781Z" fill="black" stroke="black" stroke-width="0.2"/>
</svg>
